<svg width="540" height="348" viewBox="0 0 540 348" fill="none" xmlns="http://www.w3.org/2000/svg">
<rect x="0.5" y="0.5" width="539" height="347" rx="3.5" fill="white"/>
<rect x="0.5" y="0.5" width="539" height="347" rx="3.5" stroke="#D1D1D1"/>
<path d="M24.0459 31.5898C23.3076 31.9727 22.3893 32.1641 21.291 32.1641C19.8691 32.1641 18.7298 31.7152 17.873 30.8174C17.0163 29.9196 16.5879 28.7415 16.5879 27.2832C16.5879 25.7155 17.0687 24.4486 18.0303 23.4824C18.9964 22.5163 20.2155 22.0332 21.6875 22.0332C22.6354 22.0332 23.4215 22.1676 24.0459 22.4365V24.0498C23.3851 23.6579 22.6559 23.4619 21.8584 23.4619C20.7965 23.4619 19.9352 23.8014 19.2744 24.4805C18.6182 25.1595 18.29 26.0664 18.29 27.2012C18.29 28.2812 18.5977 29.1426 19.2129 29.7852C19.8281 30.4232 20.637 30.7422 21.6396 30.7422C22.5648 30.7422 23.3669 30.5234 24.0459 30.0859V31.5898ZM31.1006 32H29.5625V30.9062H29.5352C29.0521 31.7448 28.3434 32.1641 27.4092 32.1641C26.721 32.1641 26.181 31.9772 25.7891 31.6035C25.4017 31.2298 25.208 30.7354 25.208 30.1201C25.208 28.7985 25.9691 28.0283 27.4912 27.8096L29.5693 27.5156C29.5693 26.5176 29.0954 26.0186 28.1475 26.0186C27.3135 26.0186 26.5615 26.3057 25.8916 26.8799V25.4922C26.6299 25.0547 27.4821 24.8359 28.4482 24.8359C30.2165 24.8359 31.1006 25.7064 31.1006 27.4473V32ZM29.5693 28.5615L28.0996 28.7666C27.6439 28.8258 27.2998 28.9375 27.0674 29.1016C26.8395 29.2611 26.7256 29.5436 26.7256 29.9492C26.7256 30.2454 26.8304 30.4893 27.04 30.6807C27.2542 30.8675 27.5391 30.9609 27.8945 30.9609C28.3776 30.9609 28.7764 30.7923 29.0908 30.4551C29.4098 30.1133 29.5693 29.6849 29.5693 29.1699V28.5615ZM36.7334 31.9248C36.4235 32.0798 36.0156 32.1572 35.5098 32.1572C34.1517 32.1572 33.4727 31.5055 33.4727 30.2021V26.2441H32.3037V25H33.4727V23.3799L35.0586 22.9287V25H36.7334V26.2441H35.0586V29.7441C35.0586 30.1589 35.1338 30.4551 35.2842 30.6328C35.4346 30.8105 35.6852 30.8994 36.0361 30.8994C36.305 30.8994 36.5374 30.8219 36.7334 30.667V31.9248ZM43.9453 28.9307H39.1738C39.1921 29.5778 39.3903 30.0768 39.7686 30.4277C40.1514 30.7786 40.6755 30.9541 41.3408 30.9541C42.0882 30.9541 42.7741 30.7308 43.3984 30.2842V31.5625C42.7604 31.9635 41.9173 32.1641 40.8691 32.1641C39.8392 32.1641 39.0303 31.8473 38.4424 31.2139C37.859 30.5758 37.5674 29.6803 37.5674 28.5273C37.5674 27.4382 37.8887 26.5518 38.5312 25.8682C39.1784 25.18 39.9805 24.8359 40.9375 24.8359C41.8945 24.8359 42.6351 25.1436 43.1592 25.7588C43.6833 26.374 43.9453 27.2285 43.9453 28.3223V28.9307ZM42.4141 27.8096C42.4095 27.2399 42.2751 26.7979 42.0107 26.4834C41.7464 26.1644 41.3818 26.0049 40.917 26.0049C40.4613 26.0049 40.0739 26.1712 39.7549 26.5039C39.4404 26.8366 39.2467 27.2718 39.1738 27.8096H42.4141ZM51.8271 31.4395C51.8271 34.0098 50.5352 35.2949 47.9512 35.2949C47.0397 35.2949 46.2445 35.1423 45.5654 34.8369V33.3877C46.3311 33.8252 47.0579 34.0439 47.7461 34.0439C49.4095 34.0439 50.2412 33.2259 50.2412 31.5898V30.8242H50.2139C49.6898 31.7174 48.9014 32.1641 47.8486 32.1641C46.9964 32.1641 46.3083 31.8542 45.7842 31.2344C45.2646 30.61 45.0049 29.7738 45.0049 28.7256C45.0049 27.5361 45.2852 26.5905 45.8457 25.8887C46.4062 25.1868 47.1764 24.8359 48.1562 24.8359C49.0814 24.8359 49.7673 25.2142 50.2139 25.9707H50.2412V25H51.8271V31.4395ZM50.2549 28.7939V27.8848C50.2549 27.3926 50.0908 26.9733 49.7627 26.627C49.4391 26.276 49.0335 26.1006 48.5459 26.1006C47.9443 26.1006 47.4727 26.3239 47.1309 26.7705C46.7936 27.2126 46.625 27.8324 46.625 28.6299C46.625 29.318 46.7868 29.8695 47.1104 30.2842C47.4385 30.6943 47.8714 30.8994 48.4092 30.8994C48.9561 30.8994 49.4004 30.7035 49.7422 30.3115C50.084 29.915 50.2549 29.4092 50.2549 28.7939ZM56.9951 32.1641C55.915 32.1641 55.0514 31.8382 54.4043 31.1865C53.7617 30.5303 53.4404 29.6621 53.4404 28.582C53.4404 27.4062 53.7754 26.488 54.4453 25.8271C55.1198 25.1663 56.0267 24.8359 57.166 24.8359C58.2598 24.8359 59.112 25.1572 59.7227 25.7998C60.3333 26.4424 60.6387 27.3333 60.6387 28.4727C60.6387 29.5892 60.3083 30.4847 59.6475 31.1592C58.9912 31.8291 58.1071 32.1641 56.9951 32.1641ZM57.0703 26.1006C56.4505 26.1006 55.9606 26.3171 55.6006 26.75C55.2406 27.1829 55.0605 27.7799 55.0605 28.541C55.0605 29.2747 55.2428 29.8535 55.6074 30.2773C55.972 30.6966 56.4596 30.9062 57.0703 30.9062C57.6947 30.9062 58.1732 30.6989 58.5059 30.2842C58.8431 29.8695 59.0117 29.2793 59.0117 28.5137C59.0117 27.7435 58.8431 27.1488 58.5059 26.7295C58.1732 26.3102 57.6947 26.1006 57.0703 26.1006ZM66.3193 26.5107C66.1279 26.3604 65.8522 26.2852 65.4922 26.2852C65.0228 26.2852 64.6309 26.4971 64.3164 26.9209C64.002 27.3447 63.8447 27.9212 63.8447 28.6504V32H62.2588V25H63.8447V26.4424H63.8721C64.027 25.9502 64.264 25.5674 64.583 25.2939C64.9066 25.016 65.2666 24.877 65.6631 24.877C65.9502 24.877 66.1689 24.9202 66.3193 25.0068V26.5107ZM68.2402 23.5303C67.9805 23.5303 67.7572 23.446 67.5703 23.2773C67.388 23.1087 67.2969 22.8945 67.2969 22.6348C67.2969 22.375 67.388 22.1585 67.5703 21.9854C67.7572 21.8122 67.9805 21.7256 68.2402 21.7256C68.5091 21.7256 68.737 21.8122 68.9238 21.9854C69.1107 22.1585 69.2041 22.375 69.2041 22.6348C69.2041 22.8809 69.1107 23.0928 68.9238 23.2705C68.737 23.4437 68.5091 23.5303 68.2402 23.5303ZM69.0264 32H67.4404V25H69.0264V32ZM77.0312 28.9307H72.2598C72.278 29.5778 72.4762 30.0768 72.8545 30.4277C73.2373 30.7786 73.7614 30.9541 74.4268 30.9541C75.1742 30.9541 75.86 30.7308 76.4844 30.2842V31.5625C75.8464 31.9635 75.0033 32.1641 73.9551 32.1641C72.9251 32.1641 72.1162 31.8473 71.5283 31.2139C70.945 30.5758 70.6533 29.6803 70.6533 28.5273C70.6533 27.4382 70.9746 26.5518 71.6172 25.8682C72.2643 25.18 73.0664 24.8359 74.0234 24.8359C74.9805 24.8359 75.721 25.1436 76.2451 25.7588C76.7692 26.374 77.0312 27.2285 77.0312 28.3223V28.9307ZM75.5 27.8096C75.4954 27.2399 75.361 26.7979 75.0967 26.4834C74.8324 26.1644 74.4678 26.0049 74.0029 26.0049C73.5472 26.0049 73.1598 26.1712 72.8408 26.5039C72.5264 26.8366 72.3327 27.2718 72.2598 27.8096H75.5ZM78.1045 31.7812V30.3115C78.6969 30.7627 79.3509 30.9883 80.0664 30.9883C81.0234 30.9883 81.502 30.7057 81.502 30.1406C81.502 29.9811 81.4609 29.8467 81.3789 29.7373C81.2969 29.6234 81.1852 29.5231 81.0439 29.4365C80.9072 29.3499 80.7432 29.2725 80.5518 29.2041C80.3649 29.1357 80.1553 29.0583 79.9229 28.9717C79.6357 28.8577 79.376 28.737 79.1436 28.6094C78.9157 28.4818 78.7243 28.3382 78.5693 28.1787C78.4189 28.0146 78.305 27.8301 78.2275 27.625C78.1501 27.4199 78.1113 27.1807 78.1113 26.9072C78.1113 26.57 78.1911 26.2738 78.3506 26.0186C78.5101 25.7588 78.7243 25.5423 78.9932 25.3691C79.262 25.1914 79.5674 25.0592 79.9092 24.9727C80.251 24.8815 80.6042 24.8359 80.9688 24.8359C81.6159 24.8359 82.1947 24.9339 82.7051 25.1299V26.5176C82.2129 26.1803 81.6478 26.0117 81.0098 26.0117C80.8092 26.0117 80.627 26.0322 80.4629 26.0732C80.3034 26.1143 80.1667 26.1712 80.0527 26.2441C79.9388 26.3171 79.8499 26.4059 79.7861 26.5107C79.7223 26.611 79.6904 26.7227 79.6904 26.8457C79.6904 26.9961 79.7223 27.1237 79.7861 27.2285C79.8499 27.3333 79.9434 27.4268 80.0664 27.5088C80.194 27.5863 80.3444 27.6592 80.5176 27.7275C80.6953 27.7913 80.8981 27.862 81.126 27.9395C81.4268 28.0625 81.6956 28.1878 81.9326 28.3154C82.1742 28.443 82.3792 28.5889 82.5479 28.7529C82.7165 28.9124 82.8464 29.0993 82.9375 29.3135C83.0286 29.5231 83.0742 29.7738 83.0742 30.0654C83.0742 30.4209 82.9922 30.7308 82.8281 30.9951C82.6641 31.2594 82.4453 31.4782 82.1719 31.6514C81.8984 31.8245 81.5817 31.9521 81.2217 32.0342C80.8662 32.1208 80.4902 32.1641 80.0938 32.1641C79.3281 32.1641 78.665 32.0365 78.1045 31.7812Z" fill="#242424"/>
<path d="M189.499 23.5781H186.683V32H185.056V23.5781H182.246V22.1973H189.499V23.5781ZM196.978 32H195.392V28.1719C195.392 26.7865 194.929 26.0938 194.004 26.0938C193.539 26.0938 193.147 26.2943 192.828 26.6953C192.509 27.0964 192.35 27.609 192.35 28.2334V32H190.757V21.6367H192.35V26.1621H192.377C192.906 25.278 193.662 24.8359 194.646 24.8359C196.201 24.8359 196.978 25.7861 196.978 27.6865V32ZM202.966 26.5107C202.774 26.3604 202.499 26.2852 202.139 26.2852C201.669 26.2852 201.277 26.4971 200.963 26.9209C200.648 27.3447 200.491 27.9212 200.491 28.6504V32H198.905V25H200.491V26.4424H200.519C200.674 25.9502 200.91 25.5674 201.229 25.2939C201.553 25.016 201.913 24.877 202.31 24.877C202.597 24.877 202.815 24.9202 202.966 25.0068V26.5107ZM209.891 28.9307H205.119C205.137 29.5778 205.336 30.0768 205.714 30.4277C206.097 30.7786 206.621 30.9541 207.286 30.9541C208.034 30.9541 208.719 30.7308 209.344 30.2842V31.5625C208.706 31.9635 207.863 32.1641 206.814 32.1641C205.785 32.1641 204.976 31.8473 204.388 31.2139C203.804 30.5758 203.513 29.6803 203.513 28.5273C203.513 27.4382 203.834 26.5518 204.477 25.8682C205.124 25.18 205.926 24.8359 206.883 24.8359C207.84 24.8359 208.58 25.1436 209.104 25.7588C209.629 26.374 209.891 27.2285 209.891 28.3223V28.9307ZM208.359 27.8096C208.355 27.2399 208.22 26.7979 207.956 26.4834C207.692 26.1644 207.327 26.0049 206.862 26.0049C206.407 26.0049 206.019 26.1712 205.7 26.5039C205.386 26.8366 205.192 27.2718 205.119 27.8096H208.359ZM210.964 31.7812V30.3115C211.556 30.7627 212.21 30.9883 212.926 30.9883C213.883 30.9883 214.361 30.7057 214.361 30.1406C214.361 29.9811 214.32 29.8467 214.238 29.7373C214.156 29.6234 214.045 29.5231 213.903 29.4365C213.767 29.3499 213.603 29.2725 213.411 29.2041C213.224 29.1357 213.015 29.0583 212.782 28.9717C212.495 28.8577 212.235 28.737 212.003 28.6094C211.775 28.4818 211.584 28.3382 211.429 28.1787C211.278 28.0146 211.164 27.8301 211.087 27.625C211.009 27.4199 210.971 27.1807 210.971 26.9072C210.971 26.57 211.05 26.2738 211.21 26.0186C211.369 25.7588 211.584 25.5423 211.853 25.3691C212.121 25.1914 212.427 25.0592 212.769 24.9727C213.11 24.8815 213.464 24.8359 213.828 24.8359C214.475 24.8359 215.054 24.9339 215.564 25.1299V26.5176C215.072 26.1803 214.507 26.0117 213.869 26.0117C213.669 26.0117 213.486 26.0322 213.322 26.0732C213.163 26.1143 213.026 26.1712 212.912 26.2441C212.798 26.3171 212.709 26.4059 212.646 26.5107C212.582 26.611 212.55 26.7227 212.55 26.8457C212.55 26.9961 212.582 27.1237 212.646 27.2285C212.709 27.3333 212.803 27.4268 212.926 27.5088C213.053 27.5863 213.204 27.6592 213.377 27.7275C213.555 27.7913 213.757 27.862 213.985 27.9395C214.286 28.0625 214.555 28.1878 214.792 28.3154C215.034 28.443 215.239 28.5889 215.407 28.7529C215.576 28.9124 215.706 29.0993 215.797 29.3135C215.888 29.5231 215.934 29.7738 215.934 30.0654C215.934 30.4209 215.852 30.7308 215.688 30.9951C215.523 31.2594 215.305 31.4782 215.031 31.6514C214.758 31.8245 214.441 31.9521 214.081 32.0342C213.726 32.1208 213.35 32.1641 212.953 32.1641C212.188 32.1641 211.524 32.0365 210.964 31.7812ZM223.665 32H222.079V28.1719C222.079 26.7865 221.617 26.0938 220.691 26.0938C220.227 26.0938 219.835 26.2943 219.516 26.6953C219.197 27.0964 219.037 27.609 219.037 28.2334V32H217.444V21.6367H219.037V26.1621H219.064C219.593 25.278 220.35 24.8359 221.334 24.8359C222.888 24.8359 223.665 25.7861 223.665 27.6865V32ZM228.696 32.1641C227.616 32.1641 226.753 31.8382 226.105 31.1865C225.463 30.5303 225.142 29.6621 225.142 28.582C225.142 27.4062 225.477 26.488 226.146 25.8271C226.821 25.1663 227.728 24.8359 228.867 24.8359C229.961 24.8359 230.813 25.1572 231.424 25.7998C232.035 26.4424 232.34 27.3333 232.34 28.4727C232.34 29.5892 232.009 30.4847 231.349 31.1592C230.692 31.8291 229.808 32.1641 228.696 32.1641ZM228.771 26.1006C228.152 26.1006 227.662 26.3171 227.302 26.75C226.942 27.1829 226.762 27.7799 226.762 28.541C226.762 29.2747 226.944 29.8535 227.309 30.2773C227.673 30.6966 228.161 30.9062 228.771 30.9062C229.396 30.9062 229.874 30.6989 230.207 30.2842C230.544 29.8695 230.713 29.2793 230.713 28.5137C230.713 27.7435 230.544 27.1488 230.207 26.7295C229.874 26.3102 229.396 26.1006 228.771 26.1006ZM235.553 32H233.96V21.6367H235.553V32ZM243.988 32H242.402V30.8105H242.375C241.865 31.7129 241.078 32.1641 240.017 32.1641C239.155 32.1641 238.465 31.8519 237.945 31.2275C237.43 30.5986 237.173 29.7441 237.173 28.6641C237.173 27.5065 237.458 26.5791 238.027 25.8818C238.602 25.1846 239.365 24.8359 240.317 24.8359C241.261 24.8359 241.947 25.2142 242.375 25.9707H242.402V21.6367H243.988V32ZM242.423 28.8008V27.8848C242.423 27.388 242.261 26.9665 241.938 26.6201C241.614 26.2738 241.201 26.1006 240.7 26.1006C240.108 26.1006 239.641 26.3216 239.299 26.7637C238.962 27.2057 238.793 27.8187 238.793 28.6025C238.793 29.3135 238.955 29.8763 239.278 30.291C239.606 30.7012 240.046 30.9062 240.598 30.9062C241.14 30.9062 241.58 30.708 241.917 30.3115C242.254 29.9105 242.423 29.4069 242.423 28.8008ZM251.508 32H249.915V21.6367H251.508V32ZM259.506 28.9307H254.734C254.753 29.5778 254.951 30.0768 255.329 30.4277C255.712 30.7786 256.236 30.9541 256.901 30.9541C257.649 30.9541 258.335 30.7308 258.959 30.2842V31.5625C258.321 31.9635 257.478 32.1641 256.43 32.1641C255.4 32.1641 254.591 31.8473 254.003 31.2139C253.42 30.5758 253.128 29.6803 253.128 28.5273C253.128 27.4382 253.449 26.5518 254.092 25.8682C254.739 25.18 255.541 24.8359 256.498 24.8359C257.455 24.8359 258.196 25.1436 258.72 25.7588C259.244 26.374 259.506 27.2285 259.506 28.3223V28.9307ZM257.975 27.8096C257.97 27.2399 257.836 26.7979 257.571 26.4834C257.307 26.1644 256.942 26.0049 256.478 26.0049C256.022 26.0049 255.634 26.1712 255.315 26.5039C255.001 26.8366 254.807 27.2718 254.734 27.8096H257.975ZM267.046 25L264.339 32H262.623L260.046 25H261.769L263.32 29.8945C263.439 30.2546 263.512 30.569 263.539 30.8379H263.56C263.601 30.5007 263.664 30.1953 263.751 29.9219L265.378 25H267.046ZM273.943 28.9307H269.172C269.19 29.5778 269.388 30.0768 269.767 30.4277C270.149 30.7786 270.674 30.9541 271.339 30.9541C272.086 30.9541 272.772 30.7308 273.396 30.2842V31.5625C272.758 31.9635 271.915 32.1641 270.867 32.1641C269.837 32.1641 269.028 31.8473 268.44 31.2139C267.857 30.5758 267.565 29.6803 267.565 28.5273C267.565 27.4382 267.887 26.5518 268.529 25.8682C269.176 25.18 269.979 24.8359 270.936 24.8359C271.893 24.8359 272.633 25.1436 273.157 25.7588C273.681 26.374 273.943 27.2285 273.943 28.3223V28.9307ZM272.412 27.8096C272.408 27.2399 272.273 26.7979 272.009 26.4834C271.744 26.1644 271.38 26.0049 270.915 26.0049C270.459 26.0049 270.072 26.1712 269.753 26.5039C269.438 26.8366 269.245 27.2718 269.172 27.8096H272.412ZM277.047 32H275.454V21.6367H277.047V32ZM278.681 31.7812V30.3115C279.273 30.7627 279.927 30.9883 280.643 30.9883C281.6 30.9883 282.078 30.7057 282.078 30.1406C282.078 29.9811 282.037 29.8467 281.955 29.7373C281.873 29.6234 281.761 29.5231 281.62 29.4365C281.483 29.3499 281.319 29.2725 281.128 29.2041C280.941 29.1357 280.731 29.0583 280.499 28.9717C280.212 28.8577 279.952 28.737 279.72 28.6094C279.492 28.4818 279.3 28.3382 279.146 28.1787C278.995 28.0146 278.881 27.8301 278.804 27.625C278.726 27.4199 278.688 27.1807 278.688 26.9072C278.688 26.57 278.767 26.2738 278.927 26.0186C279.086 25.7588 279.3 25.5423 279.569 25.3691C279.838 25.1914 280.144 25.0592 280.485 24.9727C280.827 24.8815 281.18 24.8359 281.545 24.8359C282.192 24.8359 282.771 24.9339 283.281 25.1299V26.5176C282.789 26.1803 282.224 26.0117 281.586 26.0117C281.385 26.0117 281.203 26.0322 281.039 26.0732C280.88 26.1143 280.743 26.1712 280.629 26.2441C280.515 26.3171 280.426 26.4059 280.362 26.5107C280.299 26.611 280.267 26.7227 280.267 26.8457C280.267 26.9961 280.299 27.1237 280.362 27.2285C280.426 27.3333 280.52 27.4268 280.643 27.5088C280.77 27.5863 280.921 27.6592 281.094 27.7275C281.271 27.7913 281.474 27.862 281.702 27.9395C282.003 28.0625 282.272 28.1878 282.509 28.3154C282.75 28.443 282.955 28.5889 283.124 28.7529C283.293 28.9124 283.423 29.0993 283.514 29.3135C283.605 29.5231 283.65 29.7738 283.65 30.0654C283.65 30.4209 283.568 30.7308 283.404 30.9951C283.24 31.2594 283.021 31.4782 282.748 31.6514C282.475 31.8245 282.158 31.9521 281.798 32.0342C281.442 32.1208 281.066 32.1641 280.67 32.1641C279.904 32.1641 279.241 32.0365 278.681 31.7812Z" fill="#242424"/>
<g clip-path="url(#clip0_4265_31552)">
<path d="M298.5 26.5C298.5 26.2239 298.724 26 299 26C299.276 26 299.5 26.2239 299.5 26.5V28C299.5 28.2761 299.276 28.5 299 28.5C298.724 28.5 298.5 28.2761 298.5 28V26.5ZM299 23.75C298.586 23.75 298.25 24.0858 298.25 24.5C298.25 24.9142 298.586 25.25 299 25.25C299.414 25.25 299.75 24.9142 299.75 24.5C299.75 24.0858 299.414 23.75 299 23.75ZM294 26C294 23.2386 296.239 21 299 21C301.761 21 304 23.2386 304 26C304 28.7614 301.761 31 299 31C296.239 31 294 28.7614 294 26ZM299 22C296.791 22 295 23.7909 295 26C295 28.2091 296.791 30 299 30C301.209 30 303 28.2091 303 26C303 23.7909 301.209 22 299 22Z" fill="#424242"/>
</g>
<path d="M187.742 56.7637C187.742 57.4668 187.678 58.0898 187.549 58.6328C187.424 59.1758 187.24 59.6348 186.998 60.0098C186.76 60.3809 186.465 60.6641 186.113 60.8594C185.766 61.0508 185.369 61.1465 184.924 61.1465C184.502 61.1465 184.125 61.0547 183.793 60.8711C183.465 60.6836 183.188 60.4121 182.961 60.0566C182.734 59.7012 182.562 59.2656 182.445 58.75C182.328 58.2305 182.27 57.6367 182.27 56.9688C182.27 56.2344 182.33 55.5859 182.451 55.0234C182.576 54.4609 182.758 53.9902 182.996 53.6113C183.234 53.2285 183.529 52.9414 183.881 52.75C184.236 52.5547 184.643 52.457 185.1 52.457C186.861 52.457 187.742 53.8926 187.742 56.7637ZM186.758 56.8574C186.758 54.4668 186.189 53.2715 185.053 53.2715C183.854 53.2715 183.254 54.4883 183.254 56.9219C183.254 59.1914 183.842 60.3262 185.018 60.3262C186.178 60.3262 186.758 59.1699 186.758 56.8574Z" fill="#242424"/>
<path d="M296.289 54.8008C296.289 54.543 296.248 54.3184 296.166 54.127C296.088 53.9355 295.979 53.7773 295.838 53.6523C295.701 53.5234 295.539 53.4277 295.352 53.3652C295.164 53.3027 294.961 53.2715 294.742 53.2715C294.555 53.2715 294.371 53.2969 294.191 53.3477C294.012 53.3984 293.836 53.4688 293.664 53.5586C293.496 53.6484 293.332 53.7559 293.172 53.8809C293.016 54.0059 292.869 54.1445 292.732 54.2969V53.2656C293.002 53.0039 293.303 52.8047 293.635 52.668C293.971 52.5273 294.379 52.457 294.859 52.457C295.203 52.457 295.521 52.5078 295.814 52.6094C296.107 52.707 296.361 52.8516 296.576 53.043C296.791 53.2344 296.959 53.4707 297.08 53.752C297.205 54.0332 297.268 54.3555 297.268 54.7188C297.268 55.0508 297.229 55.3516 297.15 55.6211C297.076 55.8906 296.961 56.1445 296.805 56.3828C296.652 56.6211 296.459 56.8496 296.225 57.0684C295.99 57.2871 295.715 57.5098 295.398 57.7363C295.004 58.0176 294.678 58.2578 294.42 58.457C294.166 58.6562 293.963 58.8438 293.811 59.0195C293.662 59.1914 293.557 59.3652 293.494 59.541C293.436 59.7129 293.406 59.9121 293.406 60.1387H297.59V61H292.404V60.584C292.404 60.2246 292.443 59.9082 292.521 59.6348C292.6 59.3613 292.729 59.1016 292.908 58.8555C293.088 58.6094 293.322 58.3633 293.611 58.1172C293.904 57.8711 294.262 57.5938 294.684 57.2852C294.988 57.0664 295.242 56.8574 295.445 56.6582C295.652 56.459 295.818 56.2598 295.943 56.0605C296.068 55.8613 296.156 55.6602 296.207 55.457C296.262 55.25 296.289 55.0312 296.289 54.8008Z" fill="#242424"/>
<path d="M406.746 52.5977V58.1465H407.824V59.0254H406.746V61H405.797V59.0254H401.848V58.1934C402.215 57.7793 402.586 57.3379 402.961 56.8691C403.336 56.3965 403.693 55.918 404.033 55.4336C404.377 54.9492 404.693 54.4668 404.982 53.9863C405.275 53.502 405.521 53.0391 405.721 52.5977H406.746ZM402.932 58.1465H405.797V54.0332C405.504 54.5449 405.227 55.002 404.965 55.4043C404.703 55.8066 404.453 56.1719 404.215 56.5C403.98 56.8281 403.756 57.125 403.541 57.3906C403.326 57.6562 403.123 57.9082 402.932 58.1465Z" fill="#242424"/>
<path d="M517.754 58.334C517.754 58.7441 517.688 59.1211 517.555 59.4648C517.422 59.8086 517.238 60.1055 517.004 60.3555C516.77 60.6055 516.49 60.8008 516.166 60.9414C515.842 61.0781 515.49 61.1465 515.111 61.1465C514.689 61.1465 514.311 61.0586 513.975 60.8828C513.643 60.707 513.359 60.4551 513.125 60.127C512.895 59.7949 512.719 59.3906 512.598 58.9141C512.477 58.4375 512.416 57.9004 512.416 57.3027C512.416 56.5723 512.496 55.9102 512.656 55.3164C512.82 54.7188 513.051 54.209 513.348 53.7871C513.648 53.3613 514.01 53.0332 514.432 52.8027C514.854 52.5723 515.324 52.457 515.844 52.457C516.422 52.457 516.887 52.5371 517.238 52.6973V53.6055C516.805 53.3828 516.348 53.2715 515.867 53.2715C515.492 53.2715 515.154 53.3555 514.854 53.5234C514.553 53.6914 514.295 53.9297 514.08 54.2383C513.865 54.543 513.699 54.9121 513.582 55.3457C513.469 55.7793 513.412 56.2617 513.412 56.793H513.436C513.822 56.0938 514.461 55.7441 515.352 55.7441C515.719 55.7441 516.049 55.8066 516.342 55.9316C516.639 56.0566 516.891 56.2344 517.098 56.4648C517.309 56.6914 517.471 56.9629 517.584 57.2793C517.697 57.5957 517.754 57.9473 517.754 58.334ZM516.77 58.457C516.77 58.1641 516.732 57.9004 516.658 57.666C516.584 57.4316 516.477 57.2324 516.336 57.0684C516.199 56.9043 516.029 56.7793 515.826 56.6934C515.623 56.6035 515.393 56.5586 515.135 56.5586C514.896 56.5586 514.676 56.6035 514.473 56.6934C514.27 56.7832 514.094 56.9062 513.945 57.0625C513.797 57.2148 513.68 57.3945 513.594 57.6016C513.512 57.8047 513.471 58.0215 513.471 58.252C513.471 58.541 513.512 58.8125 513.594 59.0664C513.676 59.3164 513.791 59.5352 513.939 59.7227C514.088 59.9102 514.264 60.0586 514.467 60.168C514.674 60.2734 514.902 60.3262 515.152 60.3262C515.395 60.3262 515.615 60.2812 515.814 60.1914C516.014 60.0977 516.184 59.9688 516.324 59.8047C516.465 59.6406 516.574 59.4453 516.652 59.2188C516.73 58.9883 516.77 58.7344 516.77 58.457Z" fill="#242424"/>
<rect x="24" y="80" width="16" height="16" rx="2" fill="#0F6CBD"/>
<path d="M35.765 85.2047C36.0661 85.4892 36.0797 85.9638 35.7953 86.265L31.5453 90.765C31.4061 90.9123 31.2133 90.997 31.0107 90.9999C30.8081 91.0028 30.6129 90.9236 30.4697 90.7803L28.2197 88.5303C27.9268 88.2374 27.9268 87.7626 28.2197 87.4697C28.5126 87.1768 28.9874 87.1768 29.2803 87.4697L30.9846 89.174L34.7047 85.235C34.9891 84.9339 35.4638 84.9203 35.765 85.2047Z" fill="white"/>
<path d="M56.8936 83.1973L53.373 93H51.5547L48.0957 83.1973H49.873L52.293 90.6348C52.3704 90.8717 52.4297 91.1475 52.4707 91.4619H52.498C52.5299 91.2021 52.596 90.9219 52.6963 90.6211L55.1709 83.1973H56.8936ZM58.8145 84.5303C58.5547 84.5303 58.3314 84.446 58.1445 84.2773C57.9622 84.1087 57.8711 83.8945 57.8711 83.6348C57.8711 83.375 57.9622 83.1585 58.1445 82.9854C58.3314 82.8122 58.5547 82.7256 58.8145 82.7256C59.0833 82.7256 59.3112 82.8122 59.498 82.9854C59.6849 83.1585 59.7783 83.375 59.7783 83.6348C59.7783 83.8809 59.6849 84.0928 59.498 84.2705C59.3112 84.4437 59.0833 84.5303 58.8145 84.5303ZM59.6006 93H58.0146V86H59.6006V93ZM64.7822 93.1641C63.7021 93.1641 62.8385 92.8382 62.1914 92.1865C61.5488 91.5303 61.2275 90.6621 61.2275 89.582C61.2275 88.4062 61.5625 87.488 62.2324 86.8271C62.9069 86.1663 63.8138 85.8359 64.9531 85.8359C66.0469 85.8359 66.8991 86.1572 67.5098 86.7998C68.1204 87.4424 68.4258 88.3333 68.4258 89.4727C68.4258 90.5892 68.0954 91.4847 67.4346 92.1592C66.7783 92.8291 65.8942 93.1641 64.7822 93.1641ZM64.8574 87.1006C64.2376 87.1006 63.7477 87.3171 63.3877 87.75C63.0277 88.1829 62.8477 88.7799 62.8477 89.541C62.8477 90.2747 63.0299 90.8535 63.3945 91.2773C63.7591 91.6966 64.2467 91.9062 64.8574 91.9062C65.4818 91.9062 65.9603 91.6989 66.293 91.2842C66.6302 90.8695 66.7988 90.2793 66.7988 89.5137C66.7988 88.7435 66.6302 88.1488 66.293 87.7295C65.9603 87.3102 65.4818 87.1006 64.8574 87.1006ZM71.6387 93H70.0459V82.6367H71.6387V93ZM79.6367 89.9307H74.8652C74.8835 90.5778 75.0817 91.0768 75.46 91.4277C75.8428 91.7786 76.3669 91.9541 77.0322 91.9541C77.7796 91.9541 78.4655 91.7308 79.0898 91.2842V92.5625C78.4518 92.9635 77.6087 93.1641 76.5605 93.1641C75.5306 93.1641 74.7217 92.8473 74.1338 92.2139C73.5505 91.5758 73.2588 90.6803 73.2588 89.5273C73.2588 88.4382 73.5801 87.5518 74.2227 86.8682C74.8698 86.18 75.6719 85.8359 76.6289 85.8359C77.5859 85.8359 78.3265 86.1436 78.8506 86.7588C79.3747 87.374 79.6367 88.2285 79.6367 89.3223V89.9307ZM78.1055 88.8096C78.1009 88.2399 77.9665 87.7979 77.7021 87.4834C77.4378 87.1644 77.0732 87.0049 76.6084 87.0049C76.1527 87.0049 75.7653 87.1712 75.4463 87.5039C75.1318 87.8366 74.9382 88.2718 74.8652 88.8096H78.1055ZM87.3818 93H85.7959V89.0557C85.7959 87.7477 85.3333 87.0938 84.4082 87.0938C83.9251 87.0938 83.5264 87.276 83.2119 87.6406C82.8975 88.0007 82.7402 88.4564 82.7402 89.0078V93H81.1475V86H82.7402V87.1621H82.7676C83.2917 86.278 84.0482 85.8359 85.0371 85.8359C85.7982 85.8359 86.3792 86.0843 86.7803 86.5811C87.1813 87.0732 87.3818 87.7865 87.3818 88.7207V93ZM94.334 92.6787C93.7734 93.0023 93.1104 93.1641 92.3447 93.1641C91.3057 93.1641 90.4671 92.8405 89.8291 92.1934C89.1911 91.5417 88.8721 90.6986 88.8721 89.6641C88.8721 88.5111 89.2139 87.5859 89.8975 86.8887C90.5856 86.1868 91.5039 85.8359 92.6523 85.8359C93.2904 85.8359 93.8532 85.9476 94.3408 86.1709V87.6475C93.8532 87.2829 93.3337 87.1006 92.7822 87.1006C92.1123 87.1006 91.5632 87.3285 91.1348 87.7842C90.7064 88.2354 90.4922 88.8278 90.4922 89.5615C90.4922 90.2861 90.6927 90.8581 91.0938 91.2773C91.4993 91.6966 92.0417 91.9062 92.7207 91.9062C93.2904 91.9062 93.8281 91.7035 94.334 91.2979V92.6787ZM101.84 89.9307H97.0684C97.0866 90.5778 97.2848 91.0768 97.6631 91.4277C98.0459 91.7786 98.57 91.9541 99.2354 91.9541C99.9827 91.9541 100.669 91.7308 101.293 91.2842V92.5625C100.655 92.9635 99.8118 93.1641 98.7637 93.1641C97.7337 93.1641 96.9248 92.8473 96.3369 92.2139C95.7536 91.5758 95.4619 90.6803 95.4619 89.5273C95.4619 88.4382 95.7832 87.5518 96.4258 86.8682C97.0729 86.18 97.875 85.8359 98.832 85.8359C99.7891 85.8359 100.53 86.1436 101.054 86.7588C101.578 87.374 101.84 88.2285 101.84 89.3223V89.9307ZM100.309 88.8096C100.304 88.2399 100.17 87.7979 99.9053 87.4834C99.641 87.1644 99.2764 87.0049 98.8115 87.0049C98.3558 87.0049 97.9684 87.1712 97.6494 87.5039C97.335 87.8366 97.1413 88.2718 97.0684 88.8096H100.309Z" fill="#242424"/>
<g clip-path="url(#clip1_4265_31552)">
<path d="M112.5 88.5C112.5 88.2239 112.724 88 113 88C113.276 88 113.5 88.2239 113.5 88.5V90C113.5 90.2761 113.276 90.5 113 90.5C112.724 90.5 112.5 90.2761 112.5 90V88.5ZM113 85.75C112.586 85.75 112.25 86.0858 112.25 86.5C112.25 86.9142 112.586 87.25 113 87.25C113.414 87.25 113.75 86.9142 113.75 86.5C113.75 86.0858 113.414 85.75 113 85.75ZM108 88C108 85.2386 110.239 83 113 83C115.761 83 118 85.2386 118 88C118 90.7614 115.761 93 113 93C110.239 93 108 90.7614 108 88ZM113 84C110.791 84 109 85.7909 109 88C109 90.2091 110.791 92 113 92C115.209 92 117 90.2091 117 88C117 85.7909 115.209 84 113 84Z" fill="#424242"/>
</g>
<rect x="295.833" y="71.5" width="33" height="2" rx="1" transform="rotate(90 295.833 71.5)" fill="#E0E0E0" stroke="white"/>
<rect x="406.167" y="71.5" width="33" height="2" rx="1" transform="rotate(90 406.167 71.5)" fill="#E0E0E0" stroke="white"/>
<rect x="184.5" y="78.5" width="331" height="19" rx="3.5" fill="#EBEBEB"/>
<rect x="184.5" y="78.5" width="331" height="19" rx="3.5" stroke="#E0E0E0"/>
<rect width="0.892473" height="20" transform="translate(184 78)" fill="white"/>
<rect x="175.5" y="78.5" width="19" height="19" rx="9.5" fill="white"/>
<rect x="175.5" y="78.5" width="19" height="19" rx="9.5" stroke="#D1D1D1"/>
<rect x="179" y="82" width="12" height="12" rx="6" fill="#0F6CBD"/>
<path d="M198.918 92L198.918 84.998L200.91 84.998C201.516 84.998 201.996 85.1462 202.351 85.4424C202.705 85.7386 202.883 86.1243 202.883 86.5996C202.883 86.9967 202.775 87.3418 202.561 87.6348C202.346 87.9277 202.049 88.1361 201.672 88.2598L201.672 88.2793C202.144 88.3346 202.521 88.5137 202.805 88.8164C203.088 89.1159 203.229 89.5065 203.229 89.9883C203.229 90.5872 203.015 91.0723 202.585 91.4434C202.155 91.8145 201.613 92 200.959 92L198.918 92ZM199.738 85.7402L199.738 88.001L200.578 88.001C201.027 88.001 201.381 87.8936 201.638 87.6787C201.895 87.4606 202.023 87.1546 202.023 86.7607C202.023 86.0804 201.576 85.7402 200.681 85.7402L199.738 85.7402ZM199.738 88.7383L199.738 91.2578L200.852 91.2578C201.333 91.2578 201.706 91.1439 201.97 90.916C202.237 90.6882 202.37 90.3757 202.37 89.9785C202.37 89.1517 201.807 88.7383 200.681 88.7383L199.738 88.7383ZM205.344 92L204.543 92L204.543 84.5977L205.344 84.5977L205.344 92ZM209.055 92.1172C208.316 92.1172 207.725 91.8844 207.282 91.4189C206.843 90.9502 206.623 90.3301 206.623 89.5586C206.623 88.7187 206.853 88.0628 207.312 87.5908C207.771 87.1188 208.391 86.8828 209.172 86.8828C209.917 86.8828 210.498 87.1123 210.915 87.5713C211.335 88.0303 211.545 88.6667 211.545 89.4805C211.545 90.278 211.319 90.9176 210.866 91.3994C210.417 91.8779 209.813 92.1172 209.055 92.1172ZM209.113 87.5566C208.599 87.5566 208.192 87.7324 207.893 88.084C207.593 88.4323 207.443 88.9141 207.443 89.5293C207.443 90.1217 207.595 90.5889 207.897 90.9307C208.2 91.2725 208.605 91.4434 209.113 91.4434C209.631 91.4434 210.028 91.2757 210.305 90.9404C210.585 90.6051 210.725 90.1283 210.725 89.5098C210.725 88.8848 210.585 88.403 210.305 88.0645C210.028 87.7259 209.631 87.5566 209.113 87.5566ZM216.232 91.7705C215.848 92.0016 215.393 92.1172 214.865 92.1172C214.152 92.1172 213.576 91.8861 213.137 91.4238C212.701 90.9583 212.482 90.3561 212.482 89.6172C212.482 88.7936 212.718 88.1328 213.19 87.6348C213.662 87.1335 214.292 86.8828 215.08 86.8828C215.52 86.8828 215.907 86.9642 216.242 87.127L216.242 87.9473C215.871 87.6868 215.474 87.5566 215.051 87.5566C214.54 87.5566 214.12 87.7406 213.791 88.1084C213.465 88.473 213.303 88.9531 213.303 89.5488C213.303 90.1348 213.456 90.597 213.762 90.9355C214.071 91.2741 214.484 91.4434 215.002 91.4434C215.438 91.4434 215.848 91.2985 216.232 91.0088L216.232 91.7705ZM221.594 92L220.471 92L218.264 89.5977L218.244 89.5977L218.244 92L217.443 92L217.443 84.5977L218.244 84.5977L218.244 89.29L218.264 89.29L220.363 87L221.413 87L219.094 89.4121L221.594 92ZM229.035 92L224.816 92L224.816 91.2871L226.857 89.2412C227.378 88.7204 227.749 88.2874 227.971 87.9424C228.195 87.5941 228.308 87.223 228.308 86.8291C228.308 86.4255 228.192 86.113 227.961 85.8916C227.73 85.6702 227.401 85.5596 226.975 85.5596C226.35 85.5596 225.751 85.8265 225.178 86.3604L225.178 85.5205C225.725 85.0941 226.361 84.8809 227.087 84.8809C227.712 84.8809 228.203 85.0501 228.562 85.3887C228.92 85.7272 229.099 86.1813 229.099 86.751C229.099 87.2002 228.975 87.6396 228.728 88.0693C228.48 88.4958 228.036 89.0264 227.395 89.6611L225.778 91.2578L225.778 91.2773L229.035 91.2773L229.035 92ZM238.313 88.3379C238.29 88.8197 238.158 89.1924 237.917 89.4561C237.679 89.7197 237.355 89.8516 236.945 89.8516C236.59 89.8516 236.159 89.6742 235.651 89.3193C235.336 89.1012 235.077 88.9922 234.875 88.9922C234.419 88.9922 234.182 89.2786 234.162 89.8516L233.503 89.8516C233.519 89.3861 233.648 89.0182 233.889 88.748C234.133 88.4746 234.462 88.3379 234.875 88.3379C235.22 88.3379 235.603 88.4811 236.022 88.7676C236.452 89.0605 236.773 89.207 236.984 89.207C237.183 89.207 237.342 89.1273 237.463 88.9678C237.583 88.8083 237.647 88.5983 237.653 88.3379L238.313 88.3379ZM246.633 85.0811L246.633 85.8379C246.271 85.6523 245.891 85.5596 245.49 85.5596C244.868 85.5596 244.37 85.8363 243.996 86.3896C243.625 86.943 243.439 87.6836 243.439 88.6113L243.459 88.6113C243.785 87.9505 244.318 87.6201 245.061 87.6201C245.673 87.6201 246.159 87.8171 246.521 88.2109C246.882 88.6016 247.063 89.1257 247.063 89.7832C247.063 90.4701 246.856 91.0316 246.442 91.4678C246.029 91.9007 245.503 92.1172 244.865 92.1172C244.162 92.1172 243.61 91.8372 243.21 91.2773C242.81 90.7174 242.609 89.9313 242.609 88.9189C242.609 87.6917 242.871 86.7119 243.396 85.9795C243.92 85.2471 244.611 84.8809 245.471 84.8809C245.959 84.8809 246.346 84.9476 246.633 85.0811ZM244.885 88.2988C244.471 88.2988 244.136 88.4388 243.879 88.7187C243.622 88.9987 243.493 89.3291 243.493 89.71C243.493 90.1885 243.62 90.597 243.874 90.9355C244.131 91.2741 244.471 91.4434 244.895 91.4434C245.298 91.4434 245.624 91.2969 245.871 91.0039C246.118 90.7077 246.242 90.3333 246.242 89.8809C246.242 89.3861 246.123 88.9987 245.886 88.7187C245.648 88.4388 245.314 88.2988 244.885 88.2988Z" fill="#616161"/>
<path d="M187.152 119.141C186.32 119.141 185.67 118.783 185.201 118.068C184.736 117.354 184.504 116.32 184.504 114.969C184.504 113.484 184.746 112.361 185.23 111.6C185.719 110.838 186.422 110.457 187.34 110.457C189.098 110.457 189.977 111.893 189.977 114.764C189.977 116.186 189.729 117.271 189.232 118.021C188.736 118.768 188.043 119.141 187.152 119.141ZM187.287 111.271C186.088 111.271 185.488 112.488 185.488 114.922C185.488 117.195 186.076 118.332 187.252 118.332C188.412 118.332 188.992 117.176 188.992 114.863C188.992 112.469 188.424 111.271 187.287 111.271ZM194.471 118.66V117.5C194.604 117.617 194.762 117.723 194.945 117.816C195.133 117.91 195.328 117.99 195.531 118.057C195.738 118.119 195.945 118.168 196.152 118.203C196.359 118.238 196.551 118.256 196.727 118.256C197.332 118.256 197.783 118.145 198.08 117.922C198.381 117.695 198.531 117.371 198.531 116.949C198.531 116.723 198.48 116.525 198.379 116.357C198.281 116.189 198.145 116.037 197.969 115.9C197.793 115.76 197.584 115.627 197.342 115.502C197.104 115.373 196.846 115.238 196.568 115.098C196.275 114.949 196.002 114.799 195.748 114.646C195.494 114.494 195.273 114.326 195.086 114.143C194.898 113.959 194.75 113.752 194.641 113.521C194.535 113.287 194.482 113.014 194.482 112.701C194.482 112.318 194.566 111.986 194.734 111.705C194.902 111.42 195.123 111.186 195.396 111.002C195.67 110.818 195.98 110.682 196.328 110.592C196.68 110.502 197.037 110.457 197.4 110.457C198.229 110.457 198.832 110.557 199.211 110.756V111.863C198.715 111.52 198.078 111.348 197.301 111.348C197.086 111.348 196.871 111.371 196.656 111.418C196.441 111.461 196.25 111.533 196.082 111.635C195.914 111.736 195.777 111.867 195.672 112.027C195.566 112.188 195.514 112.383 195.514 112.613C195.514 112.828 195.553 113.014 195.631 113.17C195.713 113.326 195.832 113.469 195.988 113.598C196.145 113.727 196.334 113.852 196.557 113.973C196.783 114.094 197.043 114.227 197.336 114.371C197.637 114.52 197.922 114.676 198.191 114.84C198.461 115.004 198.697 115.186 198.9 115.385C199.104 115.584 199.264 115.805 199.381 116.047C199.502 116.289 199.562 116.566 199.562 116.879C199.562 117.293 199.48 117.645 199.316 117.934C199.156 118.219 198.938 118.451 198.66 118.631C198.387 118.811 198.07 118.939 197.711 119.018C197.352 119.1 196.973 119.141 196.574 119.141C196.441 119.141 196.277 119.129 196.082 119.105C195.887 119.086 195.688 119.055 195.484 119.012C195.281 118.973 195.088 118.924 194.904 118.865C194.725 118.803 194.58 118.734 194.471 118.66ZM205.404 119H204.443V118.062H204.42C204.002 118.781 203.387 119.141 202.574 119.141C201.977 119.141 201.508 118.982 201.168 118.666C200.832 118.35 200.664 117.93 200.664 117.406C200.664 116.285 201.324 115.633 202.645 115.449L204.443 115.197C204.443 114.178 204.031 113.668 203.207 113.668C202.484 113.668 201.832 113.914 201.25 114.406V113.422C201.84 113.047 202.52 112.859 203.289 112.859C204.699 112.859 205.404 113.605 205.404 115.098V119ZM204.443 115.965L202.996 116.164C202.551 116.227 202.215 116.338 201.988 116.498C201.762 116.654 201.648 116.934 201.648 117.336C201.648 117.629 201.752 117.869 201.959 118.057C202.17 118.24 202.449 118.332 202.797 118.332C203.273 118.332 203.666 118.166 203.975 117.834C204.287 117.498 204.443 117.074 204.443 116.562V115.965ZM210.18 110.961C209.992 110.855 209.779 110.803 209.541 110.803C208.869 110.803 208.533 111.227 208.533 112.074V113H209.939V113.82H208.533V119H207.578V113.82H206.553V113H207.578V112.027C207.578 111.398 207.76 110.902 208.123 110.539C208.486 110.172 208.939 109.988 209.482 109.988C209.775 109.988 210.008 110.023 210.18 110.094V110.961ZM215.799 116.24H211.562C211.578 116.908 211.758 117.424 212.102 117.787C212.445 118.15 212.918 118.332 213.52 118.332C214.195 118.332 214.816 118.109 215.383 117.664V118.566C214.855 118.949 214.158 119.141 213.291 119.141C212.443 119.141 211.777 118.869 211.293 118.326C210.809 117.779 210.566 117.012 210.566 116.023C210.566 115.09 210.83 114.33 211.357 113.744C211.889 113.154 212.547 112.859 213.332 112.859C214.117 112.859 214.725 113.113 215.154 113.621C215.584 114.129 215.799 114.834 215.799 115.736V116.24ZM214.814 115.426C214.811 114.871 214.676 114.439 214.41 114.131C214.148 113.822 213.783 113.668 213.314 113.668C212.861 113.668 212.477 113.83 212.16 114.154C211.844 114.479 211.648 114.902 211.574 115.426H214.814Z" fill="#242424"/>
<rect x="24" y="150" width="16" height="16" rx="2" fill="#0F6CBD"/>
<path d="M35.765 155.205C36.0661 155.489 36.0797 155.964 35.7953 156.265L31.5453 160.765C31.4061 160.912 31.2133 160.997 31.0107 161C30.8081 161.003 30.6129 160.924 30.4697 160.78L28.2197 158.53C27.9268 158.237 27.9268 157.763 28.2197 157.47C28.5126 157.177 28.9874 157.177 29.2803 157.47L30.9846 159.174L34.7047 155.235C34.9891 154.934 35.4638 154.92 35.765 155.205Z" fill="white"/>
<path d="M57.085 164H55.4512V159.748H50.8369V164H49.21V154.197H50.8369V158.319H55.4512V154.197H57.085V164ZM64.7002 164H63.1621V162.906H63.1348C62.6517 163.745 61.943 164.164 61.0088 164.164C60.3206 164.164 59.7806 163.977 59.3887 163.604C59.0013 163.23 58.8076 162.735 58.8076 162.12C58.8076 160.799 59.5687 160.028 61.0908 159.81L63.1689 159.516C63.1689 158.518 62.695 158.019 61.7471 158.019C60.9131 158.019 60.1611 158.306 59.4912 158.88V157.492C60.2295 157.055 61.0817 156.836 62.0479 156.836C63.8161 156.836 64.7002 157.706 64.7002 159.447V164ZM63.1689 160.562L61.6992 160.767C61.2435 160.826 60.8994 160.938 60.667 161.102C60.4391 161.261 60.3252 161.544 60.3252 161.949C60.3252 162.245 60.43 162.489 60.6396 162.681C60.8538 162.868 61.1387 162.961 61.4941 162.961C61.9772 162.961 62.376 162.792 62.6904 162.455C63.0094 162.113 63.1689 161.685 63.1689 161.17V160.562ZM70.333 163.925C70.0231 164.08 69.6152 164.157 69.1094 164.157C67.7513 164.157 67.0723 163.506 67.0723 162.202V158.244H65.9033V157H67.0723V155.38L68.6582 154.929V157H70.333V158.244H68.6582V161.744C68.6582 162.159 68.7334 162.455 68.8838 162.633C69.0342 162.811 69.2848 162.899 69.6357 162.899C69.9046 162.899 70.137 162.822 70.333 162.667V163.925ZM77.5449 160.931H72.7734C72.7917 161.578 72.9899 162.077 73.3682 162.428C73.751 162.779 74.2751 162.954 74.9404 162.954C75.6878 162.954 76.3737 162.731 76.998 162.284V163.562C76.36 163.964 75.5169 164.164 74.4688 164.164C73.4388 164.164 72.6299 163.847 72.042 163.214C71.4587 162.576 71.167 161.68 71.167 160.527C71.167 159.438 71.4883 158.552 72.1309 157.868C72.778 157.18 73.5801 156.836 74.5371 156.836C75.4941 156.836 76.2347 157.144 76.7588 157.759C77.2829 158.374 77.5449 159.229 77.5449 160.322V160.931ZM76.0137 159.81C76.0091 159.24 75.8747 158.798 75.6104 158.483C75.346 158.164 74.9814 158.005 74.5166 158.005C74.0609 158.005 73.6735 158.171 73.3545 158.504C73.04 158.837 72.8464 159.272 72.7734 159.81H76.0137Z" fill="#242424"/>
<g clip-path="url(#clip2_4265_31552)">
<path d="M88.5 158.5C88.5 158.224 88.7239 158 89 158C89.2761 158 89.5 158.224 89.5 158.5V160C89.5 160.276 89.2761 160.5 89 160.5C88.7239 160.5 88.5 160.276 88.5 160V158.5ZM89 155.75C88.5858 155.75 88.25 156.086 88.25 156.5C88.25 156.914 88.5858 157.25 89 157.25C89.4142 157.25 89.75 156.914 89.75 156.5C89.75 156.086 89.4142 155.75 89 155.75ZM84 158C84 155.239 86.2386 153 89 153C91.7614 153 94 155.239 94 158C94 160.761 91.7614 163 89 163C86.2386 163 84 160.761 84 158ZM89 154C86.7909 154 85 155.791 85 158C85 160.209 86.7909 162 89 162C91.2091 162 93 160.209 93 158C93 155.791 91.2091 154 89 154Z" fill="#424242"/>
</g>
<rect x="295.833" y="141.5" width="33" height="2" rx="1" transform="rotate(90 295.833 141.5)" fill="#E0E0E0" stroke="white"/>
<rect x="406.167" y="141.5" width="33" height="2" rx="1" transform="rotate(90 406.167 141.5)" fill="#E0E0E0" stroke="white"/>
<rect x="184.5" y="148.5" width="331" height="19" rx="3.5" fill="#EBEBEB"/>
<rect x="184.5" y="148.5" width="331" height="19" rx="3.5" stroke="#E0E0E0"/>
<rect width="221.648" height="20" transform="translate(184 148)" fill="#0F6CBD"/>
<rect x="396.5" y="148.5" width="19" height="19" rx="9.5" fill="white"/>
<rect x="396.5" y="148.5" width="19" height="19" rx="9.5" stroke="#D1D1D1"/>
<rect x="400" y="152" width="12" height="12" rx="6" fill="#0F6CBD"/>
<path d="M349.094 162L348.186 162L347.443 160.037L344.475 160.037L343.776 162L342.863 162L345.549 154.998L346.398 154.998L349.094 162ZM347.175 159.3L346.076 156.316C346.04 156.219 346.005 156.062 345.969 155.848L345.949 155.848C345.917 156.046 345.879 156.202 345.837 156.316L344.748 159.3L347.175 159.3ZM350.822 162L350.021 162L350.021 154.598L350.822 154.598L350.822 162ZM353.244 162L352.443 162L352.443 154.598L353.244 154.598L353.244 162ZM356.955 162.117C356.216 162.117 355.625 161.884 355.183 161.419C354.743 160.95 354.523 160.33 354.523 159.559C354.523 158.719 354.753 158.063 355.212 157.591C355.671 157.119 356.291 156.883 357.072 156.883C357.818 156.883 358.399 157.112 358.815 157.571C359.235 158.03 359.445 158.667 359.445 159.48C359.445 160.278 359.219 160.918 358.767 161.399C358.317 161.878 357.714 162.117 356.955 162.117ZM357.014 157.557C356.499 157.557 356.092 157.732 355.793 158.084C355.493 158.432 355.344 158.914 355.344 159.529C355.344 160.122 355.495 160.589 355.798 160.931C356.101 161.272 356.506 161.443 357.014 161.443C357.531 161.443 357.928 161.276 358.205 160.94C358.485 160.605 358.625 160.128 358.625 159.51C358.625 158.885 358.485 158.403 358.205 158.064C357.928 157.726 357.531 157.557 357.014 157.557ZM367.023 157L365.524 162L364.694 162L363.664 158.421C363.625 158.284 363.599 158.13 363.586 157.957L363.566 157.957C363.557 158.074 363.522 158.226 363.464 158.411L362.346 162L361.545 162L360.031 157L360.871 157L361.906 160.76C361.939 160.874 361.962 161.023 361.975 161.209L362.014 161.209C362.023 161.066 362.053 160.913 362.102 160.75L363.254 157L363.986 157L365.021 160.77C365.054 160.89 365.078 161.04 365.095 161.219L365.134 161.219C365.14 161.092 365.168 160.942 365.217 160.77L366.232 157L367.023 157ZM372.512 162.117C371.818 162.117 371.276 161.819 370.886 161.224C370.498 160.628 370.305 159.767 370.305 158.641C370.305 157.404 370.507 156.468 370.91 155.833C371.317 155.198 371.903 154.881 372.668 154.881C374.133 154.881 374.865 156.077 374.865 158.47C374.865 159.655 374.659 160.56 374.245 161.185C373.832 161.806 373.254 162.117 372.512 162.117ZM372.624 155.56C371.625 155.56 371.125 156.574 371.125 158.602C371.125 160.496 371.615 161.443 372.595 161.443C373.562 161.443 374.045 160.48 374.045 158.553C374.045 156.557 373.571 155.56 372.624 155.56ZM383.85 158.338C383.827 158.82 383.695 159.192 383.454 159.456C383.216 159.72 382.893 159.852 382.482 159.852C382.128 159.852 381.696 159.674 381.188 159.319C380.873 159.101 380.614 158.992 380.412 158.992C379.956 158.992 379.719 159.279 379.699 159.852L379.04 159.852C379.056 159.386 379.185 159.018 379.426 158.748C379.67 158.475 379.999 158.338 380.412 158.338C380.757 158.338 381.14 158.481 381.56 158.768C381.989 159.061 382.31 159.207 382.521 159.207C382.72 159.207 382.88 159.127 383 158.968C383.12 158.808 383.184 158.598 383.19 158.338L383.85 158.338ZM392.658 160.14L391.76 160.14L391.76 162L390.969 162L390.969 160.14L387.678 160.14L387.678 159.617L390.793 154.998L391.76 154.998L391.76 159.49L392.658 159.49L392.658 160.14ZM390.969 159.49L390.969 156.463C390.969 156.248 390.975 156.007 390.988 155.74L390.969 155.74C390.923 155.857 390.834 156.036 390.7 156.277L388.547 159.49L390.969 159.49Z" fill="white"/>
<path d="M419.918 162L419.918 154.998L421.91 154.998C422.516 154.998 422.996 155.146 423.351 155.442C423.705 155.739 423.883 156.124 423.883 156.6C423.883 156.997 423.775 157.342 423.561 157.635C423.346 157.928 423.049 158.136 422.672 158.26L422.672 158.279C423.144 158.335 423.521 158.514 423.805 158.816C424.088 159.116 424.229 159.507 424.229 159.988C424.229 160.587 424.015 161.072 423.585 161.443C423.155 161.814 422.613 162 421.959 162L419.918 162ZM420.738 155.74L420.738 158.001L421.578 158.001C422.027 158.001 422.381 157.894 422.638 157.679C422.895 157.461 423.023 157.155 423.023 156.761C423.023 156.08 422.576 155.74 421.681 155.74L420.738 155.74ZM420.738 158.738L420.738 161.258L421.852 161.258C422.333 161.258 422.706 161.144 422.97 160.916C423.237 160.688 423.37 160.376 423.37 159.979C423.37 159.152 422.807 158.738 421.681 158.738L420.738 158.738ZM426.344 162L425.543 162L425.543 154.598L426.344 154.598L426.344 162ZM430.055 162.117C429.316 162.117 428.725 161.884 428.282 161.419C427.843 160.95 427.623 160.33 427.623 159.559C427.623 158.719 427.853 158.063 428.312 157.591C428.771 157.119 429.391 156.883 430.172 156.883C430.917 156.883 431.498 157.112 431.915 157.571C432.335 158.03 432.545 158.667 432.545 159.48C432.545 160.278 432.319 160.918 431.866 161.399C431.417 161.878 430.813 162.117 430.055 162.117ZM430.113 157.557C429.599 157.557 429.192 157.732 428.893 158.084C428.593 158.432 428.443 158.914 428.443 159.529C428.443 160.122 428.595 160.589 428.897 160.931C429.2 161.272 429.605 161.443 430.113 161.443C430.631 161.443 431.028 161.276 431.305 160.94C431.585 160.605 431.725 160.128 431.725 159.51C431.725 158.885 431.585 158.403 431.305 158.064C431.028 157.726 430.631 157.557 430.113 157.557ZM437.232 161.771C436.848 162.002 436.393 162.117 435.865 162.117C435.152 162.117 434.576 161.886 434.137 161.424C433.701 160.958 433.482 160.356 433.482 159.617C433.482 158.794 433.718 158.133 434.19 157.635C434.662 157.133 435.292 156.883 436.08 156.883C436.52 156.883 436.907 156.964 437.242 157.127L437.242 157.947C436.871 157.687 436.474 157.557 436.051 157.557C435.54 157.557 435.12 157.741 434.791 158.108C434.465 158.473 434.303 158.953 434.303 159.549C434.303 160.135 434.456 160.597 434.762 160.936C435.071 161.274 435.484 161.443 436.002 161.443C436.438 161.443 436.848 161.299 437.232 161.009L437.232 161.771ZM442.594 162L441.471 162L439.264 159.598L439.244 159.598L439.244 162L438.443 162L438.443 154.598L439.244 154.598L439.244 159.29L439.264 159.29L441.363 157L442.413 157L440.094 159.412L442.594 162ZM449.908 155.081L449.908 155.838C449.547 155.652 449.166 155.56 448.766 155.56C448.144 155.56 447.646 155.836 447.271 156.39C446.9 156.943 446.715 157.684 446.715 158.611L446.734 158.611C447.06 157.951 447.594 157.62 448.336 157.62C448.948 157.62 449.435 157.817 449.796 158.211C450.157 158.602 450.338 159.126 450.338 159.783C450.338 160.47 450.131 161.032 449.718 161.468C449.304 161.901 448.779 162.117 448.141 162.117C447.438 162.117 446.886 161.837 446.485 161.277C446.085 160.717 445.885 159.931 445.885 158.919C445.885 157.692 446.147 156.712 446.671 155.979C447.195 155.247 447.887 154.881 448.746 154.881C449.234 154.881 449.622 154.948 449.908 155.081ZM448.16 158.299C447.747 158.299 447.411 158.439 447.154 158.719C446.897 158.999 446.769 159.329 446.769 159.71C446.769 160.188 446.896 160.597 447.149 160.936C447.407 161.274 447.747 161.443 448.17 161.443C448.574 161.443 448.899 161.297 449.146 161.004C449.394 160.708 449.518 160.333 449.518 159.881C449.518 159.386 449.399 158.999 449.161 158.719C448.924 158.439 448.59 158.299 448.16 158.299Z" fill="#616161"/>
<path d="M385.094 186.768H384.016V189H383.066V186.768H379.117V186.141L382.855 180.598H384.016V185.988H385.094V186.768ZM383.066 185.988V182.355C383.066 182.098 383.074 181.809 383.09 181.488H383.066C383.012 181.629 382.904 181.844 382.744 182.133L380.16 185.988H383.066ZM398.465 189H397.486V183.363C397.486 182.918 397.514 182.373 397.568 181.729H397.545C397.451 182.107 397.367 182.379 397.293 182.543L394.422 189H393.941L391.076 182.59C390.994 182.402 390.91 182.115 390.824 181.729H390.801C390.832 182.064 390.848 182.613 390.848 183.375V189H389.898V180.598H391.199L393.777 186.457C393.977 186.906 394.105 187.242 394.164 187.465H394.199C394.367 187.004 394.502 186.66 394.604 186.434L397.234 180.598H398.465V189ZM405.373 186.24H401.137C401.152 186.908 401.332 187.424 401.676 187.787C402.02 188.15 402.492 188.332 403.094 188.332C403.77 188.332 404.391 188.109 404.957 187.664V188.566C404.43 188.949 403.732 189.141 402.865 189.141C402.018 189.141 401.352 188.869 400.867 188.326C400.383 187.779 400.141 187.012 400.141 186.023C400.141 185.09 400.404 184.33 400.932 183.744C401.463 183.154 402.121 182.859 402.906 182.859C403.691 182.859 404.299 183.113 404.729 183.621C405.158 184.129 405.373 184.834 405.373 185.736V186.24ZM404.389 185.426C404.385 184.871 404.25 184.439 403.984 184.131C403.723 183.822 403.357 183.668 402.889 183.668C402.436 183.668 402.051 183.83 401.734 184.154C401.418 184.479 401.223 184.902 401.148 185.426H404.389ZM411.953 189H410.992V187.98H410.969C410.523 188.754 409.836 189.141 408.906 189.141C408.152 189.141 407.549 188.873 407.096 188.338C406.646 187.799 406.422 187.066 406.422 186.141C406.422 185.148 406.672 184.354 407.172 183.756C407.672 183.158 408.338 182.859 409.17 182.859C409.994 182.859 410.594 183.184 410.969 183.832H410.992V180.117H411.953V189ZM410.992 186.287V185.402C410.992 184.918 410.832 184.508 410.512 184.172C410.191 183.836 409.785 183.668 409.293 183.668C408.707 183.668 408.246 183.883 407.91 184.312C407.574 184.742 407.406 185.336 407.406 186.094C407.406 186.785 407.566 187.332 407.887 187.734C408.211 188.133 408.645 188.332 409.188 188.332C409.723 188.332 410.156 188.139 410.488 187.752C410.824 187.365 410.992 186.877 410.992 186.287ZM414.391 181.477C414.219 181.477 414.072 181.418 413.951 181.301C413.83 181.184 413.77 181.035 413.77 180.855C413.77 180.676 413.83 180.527 413.951 180.41C414.072 180.289 414.219 180.229 414.391 180.229C414.566 180.229 414.715 180.289 414.836 180.41C414.961 180.527 415.023 180.676 415.023 180.855C415.023 181.027 414.961 181.174 414.836 181.295C414.715 181.416 414.566 181.477 414.391 181.477ZM414.859 189H413.898V183H414.859V189ZM421.656 189H420.695V188.051H420.672C420.273 188.777 419.656 189.141 418.82 189.141C417.391 189.141 416.676 188.289 416.676 186.586V183H417.631V186.434C417.631 187.699 418.115 188.332 419.084 188.332C419.553 188.332 419.938 188.16 420.238 187.816C420.543 187.469 420.695 187.016 420.695 186.457V183H421.656V189ZM432.121 189H431.16V185.555C431.16 184.891 431.057 184.41 430.85 184.113C430.646 183.816 430.303 183.668 429.818 183.668C429.408 183.668 429.059 183.855 428.77 184.23C428.484 184.605 428.342 185.055 428.342 185.578V189H427.381V185.438C427.381 184.258 426.926 183.668 426.016 183.668C425.594 183.668 425.246 183.846 424.973 184.201C424.699 184.553 424.562 185.012 424.562 185.578V189H423.602V183H424.562V183.949H424.586C425.012 183.223 425.633 182.859 426.449 182.859C426.859 182.859 427.217 182.975 427.521 183.205C427.826 183.432 428.035 183.73 428.148 184.102C428.594 183.273 429.258 182.859 430.141 182.859C431.461 182.859 432.121 183.674 432.121 185.303V189Z" fill="#242424"/>
<rect x="24" y="220" width="16" height="16" rx="2" fill="#0F6CBD"/>
<path d="M35.765 225.205C36.0661 225.489 36.0797 225.964 35.7953 226.265L31.5453 230.765C31.4061 230.912 31.2133 230.997 31.0107 231C30.8081 231.003 30.6129 230.924 30.4697 230.78L28.2197 228.53C27.9268 228.237 27.9268 227.763 28.2197 227.47C28.5126 227.177 28.9874 227.177 29.2803 227.47L30.9846 229.174L34.7047 225.235C34.9891 224.934 35.4638 224.92 35.765 225.205Z" fill="white"/>
<path d="M48.7588 232.61V230.936C48.9092 231.072 49.0869 231.195 49.292 231.305C49.5016 231.414 49.7227 231.507 49.9551 231.585C50.1875 231.658 50.4199 231.715 50.6523 231.756C50.8848 231.797 51.099 231.817 51.2949 231.817C51.9785 231.817 52.4867 231.703 52.8193 231.476C53.1566 231.248 53.3252 230.917 53.3252 230.484C53.3252 230.252 53.2682 230.051 53.1543 229.883C53.0449 229.71 52.89 229.552 52.6895 229.411C52.4889 229.27 52.252 229.135 51.9785 229.008C51.7096 228.876 51.4202 228.739 51.1104 228.598C50.7777 228.42 50.4678 228.24 50.1807 228.058C49.8936 227.875 49.6429 227.675 49.4287 227.456C49.2191 227.233 49.0527 226.982 48.9297 226.704C48.8112 226.426 48.752 226.1 48.752 225.727C48.752 225.266 48.8545 224.868 49.0596 224.53C49.2692 224.188 49.5426 223.908 49.8799 223.689C50.2217 223.466 50.609 223.302 51.042 223.197C51.4749 223.088 51.917 223.033 52.3682 223.033C53.3936 223.033 54.141 223.149 54.6104 223.382V224.988C54.0544 224.587 53.3389 224.387 52.4639 224.387C52.2223 224.387 51.9808 224.41 51.7393 224.455C51.5023 224.501 51.2881 224.576 51.0967 224.681C50.9098 224.785 50.7572 224.92 50.6387 225.084C50.5202 225.248 50.4609 225.446 50.4609 225.679C50.4609 225.897 50.5065 226.087 50.5977 226.246C50.6888 226.406 50.821 226.551 50.9941 226.684C51.1719 226.816 51.3861 226.946 51.6367 227.073C51.8919 227.196 52.1859 227.331 52.5186 227.477C52.8604 227.654 53.1816 227.841 53.4824 228.037C53.7878 228.233 54.0544 228.45 54.2822 228.687C54.5146 228.924 54.6969 229.188 54.8291 229.479C54.9658 229.767 55.0342 230.095 55.0342 230.464C55.0342 230.961 54.9339 231.38 54.7334 231.722C54.5329 232.063 54.2617 232.341 53.9199 232.556C53.5827 232.77 53.193 232.925 52.751 233.021C52.3089 233.116 51.8418 233.164 51.3496 233.164C51.1855 233.164 50.9827 233.15 50.7412 233.123C50.5042 233.1 50.2604 233.064 50.0098 233.014C49.7591 232.968 49.5221 232.911 49.2988 232.843C49.0755 232.774 48.8955 232.697 48.7588 232.61ZM62.5879 229.931H57.8164C57.8346 230.578 58.0329 231.077 58.4111 231.428C58.7939 231.779 59.318 231.954 59.9834 231.954C60.7308 231.954 61.4167 231.731 62.041 231.284V232.562C61.403 232.964 60.5599 233.164 59.5117 233.164C58.4818 233.164 57.6729 232.847 57.085 232.214C56.5016 231.576 56.21 230.68 56.21 229.527C56.21 228.438 56.5312 227.552 57.1738 226.868C57.821 226.18 58.623 225.836 59.5801 225.836C60.5371 225.836 61.2777 226.144 61.8018 226.759C62.3258 227.374 62.5879 228.229 62.5879 229.322V229.931ZM61.0566 228.81C61.0521 228.24 60.9176 227.798 60.6533 227.483C60.389 227.164 60.0244 227.005 59.5596 227.005C59.1038 227.005 58.7165 227.171 58.3975 227.504C58.083 227.837 57.8893 228.272 57.8164 228.81H61.0566ZM69.9502 226L67.6191 229.541L69.9229 233H68.084L66.8535 230.833C66.776 230.701 66.6849 230.532 66.5801 230.327H66.5527C66.5345 230.368 66.4388 230.537 66.2656 230.833L65.0146 233H63.1826L65.5615 229.568L63.3057 226H65.1514L66.3613 228.276C66.4525 228.445 66.5413 228.618 66.6279 228.796H66.6484L68.2139 226H69.9502ZM77.2168 233H75.6309V231.893H75.6035C75.1432 232.74 74.4277 233.164 73.457 233.164C71.8027 233.164 70.9756 232.171 70.9756 230.184V226H72.5615V230.02C72.5615 231.277 73.0469 231.906 74.0176 231.906C74.487 231.906 74.8721 231.733 75.1729 231.387C75.4782 231.04 75.6309 230.587 75.6309 230.026V226H77.2168V233ZM84.6611 233H83.123V231.906H83.0957C82.6126 232.745 81.904 233.164 80.9697 233.164C80.2816 233.164 79.7415 232.977 79.3496 232.604C78.9622 232.23 78.7686 231.735 78.7686 231.12C78.7686 229.799 79.5296 229.028 81.0518 228.81L83.1299 228.516C83.1299 227.518 82.6559 227.019 81.708 227.019C80.874 227.019 80.1221 227.306 79.4521 227.88V226.492C80.1904 226.055 81.0426 225.836 82.0088 225.836C83.777 225.836 84.6611 226.706 84.6611 228.447V233ZM83.1299 229.562L81.6602 229.767C81.2044 229.826 80.8604 229.938 80.6279 230.102C80.4001 230.261 80.2861 230.544 80.2861 230.949C80.2861 231.245 80.391 231.489 80.6006 231.681C80.8148 231.868 81.0996 231.961 81.4551 231.961C81.9382 231.961 82.3369 231.792 82.6514 231.455C82.9704 231.113 83.1299 230.685 83.1299 230.17V229.562ZM88.1953 233H86.6025V222.637H88.1953V233Z" fill="#242424"/>
<g clip-path="url(#clip3_4265_31552)">
<path d="M99.5 228.5C99.5 228.224 99.7239 228 100 228C100.276 228 100.5 228.224 100.5 228.5V230C100.5 230.276 100.276 230.5 100 230.5C99.7239 230.5 99.5 230.276 99.5 230V228.5ZM100 225.75C99.5858 225.75 99.25 226.086 99.25 226.5C99.25 226.914 99.5858 227.25 100 227.25C100.414 227.25 100.75 226.914 100.75 226.5C100.75 226.086 100.414 225.75 100 225.75ZM95 228C95 225.239 97.2386 223 100 223C102.761 223 105 225.239 105 228C105 230.761 102.761 233 100 233C97.2386 233 95 230.761 95 228ZM100 224C97.7909 224 96 225.791 96 228C96 230.209 97.7909 232 100 232C102.209 232 104 230.209 104 228C104 225.791 102.209 224 100 224Z" fill="#424242"/>
</g>
<rect x="295.833" y="211.5" width="33" height="2" rx="1" transform="rotate(90 295.833 211.5)" fill="#E0E0E0" stroke="white"/>
<rect x="406.167" y="211.5" width="33" height="2" rx="1" transform="rotate(90 406.167 211.5)" fill="#E0E0E0" stroke="white"/>
<rect x="184.5" y="218.5" width="331" height="19" rx="3.5" fill="#EBEBEB"/>
<rect x="184.5" y="218.5" width="331" height="19" rx="3.5" stroke="#E0E0E0"/>
<rect width="111.295" height="20" transform="translate(184 218)" fill="#0F6CBD"/>
<rect x="285.5" y="218.5" width="19" height="19" rx="9.5" fill="white"/>
<rect x="285.5" y="218.5" width="19" height="19" rx="9.5" stroke="#D1D1D1"/>
<rect x="289" y="222" width="12" height="12" rx="6" fill="#0F6CBD"/>
<path d="M243.582 232L242.674 232L241.932 230.037L238.963 230.037L238.265 232L237.352 232L240.037 224.998L240.887 224.998L243.582 232ZM241.663 229.3L240.564 226.316C240.529 226.219 240.493 226.062 240.457 225.848L240.438 225.848C240.405 226.046 240.368 226.202 240.325 226.316L239.236 229.3L241.663 229.3ZM245.311 232L244.51 232L244.51 224.598L245.311 224.598L245.311 232ZM247.732 232L246.932 232L246.932 224.598L247.732 224.598L247.732 232ZM251.443 232.117C250.704 232.117 250.114 231.884 249.671 231.419C249.231 230.95 249.012 230.33 249.012 229.559C249.012 228.719 249.241 228.063 249.7 227.591C250.159 227.119 250.779 226.883 251.561 226.883C252.306 226.883 252.887 227.112 253.304 227.571C253.724 228.03 253.934 228.667 253.934 229.48C253.934 230.278 253.707 230.918 253.255 231.399C252.806 231.878 252.202 232.117 251.443 232.117ZM251.502 227.557C250.988 227.557 250.581 227.732 250.281 228.084C249.982 228.432 249.832 228.914 249.832 229.529C249.832 230.122 249.983 230.589 250.286 230.931C250.589 231.272 250.994 231.443 251.502 231.443C252.02 231.443 252.417 231.276 252.693 230.94C252.973 230.605 253.113 230.128 253.113 229.51C253.113 228.885 252.973 228.403 252.693 228.064C252.417 227.726 252.02 227.557 251.502 227.557ZM261.512 227L260.013 232L259.183 232L258.152 228.421C258.113 228.284 258.087 228.13 258.074 227.957L258.055 227.957C258.045 228.074 258.011 228.226 257.952 228.411L256.834 232L256.033 232L254.52 227L255.359 227L256.395 230.76C256.427 230.874 256.45 231.023 256.463 231.209L256.502 231.209C256.512 231.066 256.541 230.913 256.59 230.75L257.742 227L258.475 227L259.51 230.77C259.542 230.89 259.567 231.04 259.583 231.219L259.622 231.219C259.629 231.092 259.656 230.942 259.705 230.77L260.721 227L261.512 227ZM267 232.117C266.307 232.117 265.765 231.819 265.374 231.224C264.987 230.628 264.793 229.767 264.793 228.641C264.793 227.404 264.995 226.468 265.398 225.833C265.805 225.198 266.391 224.881 267.156 224.881C268.621 224.881 269.354 226.077 269.354 228.47C269.354 229.655 269.147 230.56 268.733 231.185C268.32 231.806 267.742 232.117 267 232.117ZM267.112 225.56C266.113 225.56 265.613 226.574 265.613 228.602C265.613 230.496 266.103 231.443 267.083 231.443C268.05 231.443 268.533 230.48 268.533 228.553C268.533 226.557 268.06 225.56 267.112 225.56ZM275.594 228.338C275.571 228.82 275.439 229.192 275.198 229.456C274.961 229.72 274.637 229.852 274.227 229.852C273.872 229.852 273.44 229.674 272.933 229.319C272.617 229.101 272.358 228.992 272.156 228.992C271.701 228.992 271.463 229.279 271.443 229.852L270.784 229.852C270.8 229.386 270.929 229.018 271.17 228.748C271.414 228.475 271.743 228.338 272.156 228.338C272.501 228.338 272.884 228.481 273.304 228.768C273.733 229.061 274.054 229.207 274.266 229.207C274.464 229.207 274.624 229.127 274.744 228.968C274.865 228.808 274.928 228.598 274.935 228.338L275.594 228.338ZM281.297 232L277.078 232L277.078 231.287L279.119 229.241C279.64 228.72 280.011 228.287 280.232 227.942C280.457 227.594 280.569 227.223 280.569 226.829C280.569 226.425 280.454 226.113 280.223 225.892C279.992 225.67 279.663 225.56 279.236 225.56C278.611 225.56 278.012 225.826 277.439 226.36L277.439 225.521C277.986 225.094 278.623 224.881 279.349 224.881C279.974 224.881 280.465 225.05 280.823 225.389C281.181 225.727 281.36 226.181 281.36 226.751C281.36 227.2 281.237 227.64 280.989 228.069C280.742 228.496 280.298 229.026 279.656 229.661L278.04 231.258L278.04 231.277L281.297 231.277L281.297 232Z" fill="white"/>
<path d="M308.918 232L308.918 224.998L310.91 224.998C311.516 224.998 311.996 225.146 312.351 225.442C312.705 225.739 312.883 226.124 312.883 226.6C312.883 226.997 312.775 227.342 312.561 227.635C312.346 227.928 312.049 228.136 311.672 228.26L311.672 228.279C312.144 228.335 312.521 228.514 312.805 228.816C313.088 229.116 313.229 229.507 313.229 229.988C313.229 230.587 313.015 231.072 312.585 231.443C312.155 231.814 311.613 232 310.959 232L308.918 232ZM309.738 225.74L309.738 228.001L310.578 228.001C311.027 228.001 311.381 227.894 311.638 227.679C311.895 227.461 312.023 227.155 312.023 226.761C312.023 226.08 311.576 225.74 310.681 225.74L309.738 225.74ZM309.738 228.738L309.738 231.258L310.852 231.258C311.333 231.258 311.706 231.144 311.97 230.916C312.237 230.688 312.37 230.376 312.37 229.979C312.37 229.152 311.807 228.738 310.681 228.738L309.738 228.738ZM315.344 232L314.543 232L314.543 224.598L315.344 224.598L315.344 232ZM319.055 232.117C318.316 232.117 317.725 231.884 317.282 231.419C316.843 230.95 316.623 230.33 316.623 229.559C316.623 228.719 316.853 228.063 317.312 227.591C317.771 227.119 318.391 226.883 319.172 226.883C319.917 226.883 320.498 227.112 320.915 227.571C321.335 228.03 321.545 228.667 321.545 229.48C321.545 230.278 321.319 230.918 320.866 231.399C320.417 231.878 319.813 232.117 319.055 232.117ZM319.113 227.557C318.599 227.557 318.192 227.732 317.893 228.084C317.593 228.432 317.443 228.914 317.443 229.529C317.443 230.122 317.595 230.589 317.897 230.931C318.2 231.272 318.605 231.443 319.113 231.443C319.631 231.443 320.028 231.276 320.305 230.94C320.585 230.605 320.725 230.128 320.725 229.51C320.725 228.885 320.585 228.403 320.305 228.064C320.028 227.726 319.631 227.557 319.113 227.557ZM326.232 231.771C325.848 232.002 325.393 232.117 324.865 232.117C324.152 232.117 323.576 231.886 323.137 231.424C322.701 230.958 322.482 230.356 322.482 229.617C322.482 228.794 322.718 228.133 323.19 227.635C323.662 227.133 324.292 226.883 325.08 226.883C325.52 226.883 325.907 226.964 326.242 227.127L326.242 227.947C325.871 227.687 325.474 227.557 325.051 227.557C324.54 227.557 324.12 227.741 323.791 228.108C323.465 228.473 323.303 228.953 323.303 229.549C323.303 230.135 323.456 230.597 323.762 230.936C324.071 231.274 324.484 231.443 325.002 231.443C325.438 231.443 325.848 231.299 326.232 231.009L326.232 231.771ZM331.594 232L330.471 232L328.264 229.598L328.244 229.598L328.244 232L327.443 232L327.443 224.598L328.244 224.598L328.244 229.29L328.264 229.29L330.363 227L331.413 227L329.094 229.412L331.594 232ZM339.396 230.14L338.498 230.14L338.498 232L337.707 232L337.707 230.14L334.416 230.14L334.416 229.617L337.531 224.998L338.498 224.998L338.498 229.49L339.396 229.49L339.396 230.14ZM337.707 229.49L337.707 226.463C337.707 226.248 337.714 226.007 337.727 225.74L337.707 225.74C337.661 225.857 337.572 226.036 337.438 226.277L335.285 229.49L337.707 229.49ZM348.313 228.338C348.29 228.82 348.158 229.192 347.917 229.456C347.679 229.72 347.355 229.852 346.945 229.852C346.59 229.852 346.159 229.674 345.651 229.319C345.336 229.101 345.077 228.992 344.875 228.992C344.419 228.992 344.182 229.279 344.162 229.852L343.503 229.852C343.519 229.386 343.648 229.018 343.889 228.748C344.133 228.475 344.462 228.338 344.875 228.338C345.22 228.338 345.603 228.481 346.022 228.768C346.452 229.061 346.773 229.207 346.984 229.207C347.183 229.207 347.342 229.127 347.463 228.968C347.583 228.808 347.647 228.598 347.653 228.338L348.313 228.338ZM356.633 225.081L356.633 225.838C356.271 225.652 355.891 225.56 355.49 225.56C354.868 225.56 354.37 225.836 353.996 226.39C353.625 226.943 353.439 227.684 353.439 228.611L353.459 228.611C353.785 227.951 354.318 227.62 355.061 227.62C355.673 227.62 356.159 227.817 356.521 228.211C356.882 228.602 357.063 229.126 357.063 229.783C357.063 230.47 356.856 231.032 356.442 231.468C356.029 231.901 355.503 232.117 354.865 232.117C354.162 232.117 353.61 231.837 353.21 231.277C352.81 230.717 352.609 229.931 352.609 228.919C352.609 227.692 352.871 226.712 353.396 225.979C353.92 225.247 354.611 224.881 355.471 224.881C355.959 224.881 356.346 224.948 356.633 225.081ZM354.885 228.299C354.471 228.299 354.136 228.439 353.879 228.719C353.622 228.999 353.493 229.329 353.493 229.71C353.493 230.188 353.62 230.597 353.874 230.936C354.131 231.274 354.471 231.443 354.895 231.443C355.298 231.443 355.624 231.297 355.871 231.004C356.118 230.708 356.242 230.333 356.242 229.881C356.242 229.386 356.123 228.999 355.886 228.719C355.648 228.439 355.314 228.299 354.885 228.299Z" fill="#616161"/>
<path d="M285.068 259H280.006V258.145L282.455 255.689C283.08 255.064 283.525 254.545 283.791 254.131C284.061 253.713 284.195 253.268 284.195 252.795C284.195 252.311 284.057 251.936 283.779 251.67C283.502 251.404 283.107 251.271 282.596 251.271C281.846 251.271 281.127 251.592 280.439 252.232V251.225C281.096 250.713 281.859 250.457 282.73 250.457C283.48 250.457 284.07 250.66 284.5 251.066C284.93 251.473 285.145 252.018 285.145 252.701C285.145 253.24 284.996 253.768 284.699 254.283C284.402 254.795 283.869 255.432 283.1 256.193L281.16 258.109V258.133H285.068V259ZM294.666 259H290.307V250.598H291.291V258.109H294.666V259ZM298.334 259.141C297.447 259.141 296.738 258.861 296.207 258.303C295.68 257.74 295.416 256.996 295.416 256.07C295.416 255.062 295.691 254.275 296.242 253.709C296.793 253.143 297.537 252.859 298.475 252.859C299.369 252.859 300.066 253.135 300.566 253.686C301.07 254.236 301.322 255 301.322 255.977C301.322 256.934 301.051 257.701 300.508 258.279C299.969 258.854 299.244 259.141 298.334 259.141ZM298.404 253.668C297.787 253.668 297.299 253.879 296.939 254.301C296.58 254.719 296.4 255.297 296.4 256.035C296.4 256.746 296.582 257.307 296.945 257.717C297.309 258.127 297.795 258.332 298.404 258.332C299.025 258.332 299.502 258.131 299.834 257.729C300.17 257.326 300.338 256.754 300.338 256.012C300.338 255.262 300.17 254.684 299.834 254.277C299.502 253.871 299.025 253.668 298.404 253.668ZM310.416 253L308.617 259H307.621L306.385 254.705C306.338 254.541 306.307 254.355 306.291 254.148H306.268C306.256 254.289 306.215 254.471 306.145 254.693L304.803 259H303.842L302.025 253H303.033L304.275 257.512C304.314 257.648 304.342 257.828 304.357 258.051H304.404C304.416 257.879 304.451 257.695 304.51 257.5L305.893 253H306.771L308.014 257.523C308.053 257.668 308.082 257.848 308.102 258.062H308.148C308.156 257.91 308.189 257.73 308.248 257.523L309.467 253H310.416Z" fill="#242424"/>
<rect x="24" y="290" width="16" height="16" rx="2" fill="#0F6CBD"/>
<path d="M35.765 295.205C36.0661 295.489 36.0797 295.964 35.7953 296.265L31.5453 300.765C31.4061 300.912 31.2133 300.997 31.0107 301C30.8081 301.003 30.6129 300.924 30.4697 300.78L28.2197 298.53C27.9268 298.237 27.9268 297.763 28.2197 297.47C28.5126 297.177 28.9874 297.177 29.2803 297.47L30.9846 299.174L34.7047 295.235C34.9891 294.934 35.4638 294.92 35.765 295.205Z" fill="white"/>
<path d="M48.7588 303.61V301.936C48.9092 302.072 49.0869 302.195 49.292 302.305C49.5016 302.414 49.7227 302.507 49.9551 302.585C50.1875 302.658 50.4199 302.715 50.6523 302.756C50.8848 302.797 51.099 302.817 51.2949 302.817C51.9785 302.817 52.4867 302.703 52.8193 302.476C53.1566 302.248 53.3252 301.917 53.3252 301.484C53.3252 301.252 53.2682 301.051 53.1543 300.883C53.0449 300.71 52.89 300.552 52.6895 300.411C52.4889 300.27 52.252 300.135 51.9785 300.008C51.7096 299.876 51.4202 299.739 51.1104 299.598C50.7777 299.42 50.4678 299.24 50.1807 299.058C49.8936 298.875 49.6429 298.675 49.4287 298.456C49.2191 298.233 49.0527 297.982 48.9297 297.704C48.8112 297.426 48.752 297.1 48.752 296.727C48.752 296.266 48.8545 295.868 49.0596 295.53C49.2692 295.188 49.5426 294.908 49.8799 294.689C50.2217 294.466 50.609 294.302 51.042 294.197C51.4749 294.088 51.917 294.033 52.3682 294.033C53.3936 294.033 54.141 294.149 54.6104 294.382V295.988C54.0544 295.587 53.3389 295.387 52.4639 295.387C52.2223 295.387 51.9808 295.41 51.7393 295.455C51.5023 295.501 51.2881 295.576 51.0967 295.681C50.9098 295.785 50.7572 295.92 50.6387 296.084C50.5202 296.248 50.4609 296.446 50.4609 296.679C50.4609 296.897 50.5065 297.087 50.5977 297.246C50.6888 297.406 50.821 297.551 50.9941 297.684C51.1719 297.816 51.3861 297.946 51.6367 298.073C51.8919 298.196 52.1859 298.331 52.5186 298.477C52.8604 298.654 53.1816 298.841 53.4824 299.037C53.7878 299.233 54.0544 299.45 54.2822 299.687C54.5146 299.924 54.6969 300.188 54.8291 300.479C54.9658 300.767 55.0342 301.095 55.0342 301.464C55.0342 301.961 54.9339 302.38 54.7334 302.722C54.5329 303.063 54.2617 303.341 53.9199 303.556C53.5827 303.77 53.193 303.925 52.751 304.021C52.3089 304.116 51.8418 304.164 51.3496 304.164C51.1855 304.164 50.9827 304.15 50.7412 304.123C50.5042 304.1 50.2604 304.064 50.0098 304.014C49.7591 303.968 49.5221 303.911 49.2988 303.843C49.0755 303.774 48.8955 303.697 48.7588 303.61ZM62.5879 300.931H57.8164C57.8346 301.578 58.0329 302.077 58.4111 302.428C58.7939 302.779 59.318 302.954 59.9834 302.954C60.7308 302.954 61.4167 302.731 62.041 302.284V303.562C61.403 303.964 60.5599 304.164 59.5117 304.164C58.4818 304.164 57.6729 303.847 57.085 303.214C56.5016 302.576 56.21 301.68 56.21 300.527C56.21 299.438 56.5312 298.552 57.1738 297.868C57.821 297.18 58.623 296.836 59.5801 296.836C60.5371 296.836 61.2777 297.144 61.8018 297.759C62.3258 298.374 62.5879 299.229 62.5879 300.322V300.931ZM61.0566 299.81C61.0521 299.24 60.9176 298.798 60.6533 298.483C60.389 298.164 60.0244 298.005 59.5596 298.005C59.1038 298.005 58.7165 298.171 58.3975 298.504C58.083 298.837 57.8893 299.272 57.8164 299.81H61.0566ZM65.6914 304H64.0986V293.637H65.6914V304ZM71.7207 294.929C71.5065 294.806 71.2627 294.744 70.9893 294.744C70.2191 294.744 69.834 295.179 69.834 296.05V297H71.4609V298.244H69.8408V304H68.2549V298.244H67.0586V297H68.2549V295.865C68.2549 295.127 68.4964 294.546 68.9795 294.122C69.4626 293.694 70.0664 293.479 70.791 293.479C71.1829 293.479 71.4928 293.523 71.7207 293.609V294.929ZM75.6309 300.76H71.8984V299.591H75.6309V300.76ZM83.7998 304H82.2139V300.172C82.2139 298.786 81.7513 298.094 80.8262 298.094C80.3613 298.094 79.9694 298.294 79.6504 298.695C79.3314 299.096 79.1719 299.609 79.1719 300.233V304H77.5791V293.637H79.1719V298.162H79.1992C79.7279 297.278 80.4844 296.836 81.4688 296.836C83.0228 296.836 83.7998 297.786 83.7998 299.687V304ZM91.1006 304H89.5625V302.906H89.5352C89.0521 303.745 88.3434 304.164 87.4092 304.164C86.721 304.164 86.181 303.977 85.7891 303.604C85.4017 303.23 85.208 302.735 85.208 302.12C85.208 300.799 85.9691 300.028 87.4912 299.81L89.5693 299.516C89.5693 298.518 89.0954 298.019 88.1475 298.019C87.3135 298.019 86.5615 298.306 85.8916 298.88V297.492C86.6299 297.055 87.4821 296.836 88.4482 296.836C90.2165 296.836 91.1006 297.706 91.1006 299.447V304ZM89.5693 300.562L88.0996 300.767C87.6439 300.826 87.2998 300.938 87.0674 301.102C86.8395 301.261 86.7256 301.544 86.7256 301.949C86.7256 302.245 86.8304 302.489 87.04 302.681C87.2542 302.868 87.5391 302.961 87.8945 302.961C88.3776 302.961 88.7764 302.792 89.0908 302.455C89.4098 302.113 89.5693 301.685 89.5693 301.17V300.562ZM97.1025 298.511C96.9111 298.36 96.6354 298.285 96.2754 298.285C95.806 298.285 95.4141 298.497 95.0996 298.921C94.7852 299.345 94.6279 299.921 94.6279 300.65V304H93.042V297H94.6279V298.442H94.6553C94.8102 297.95 95.0472 297.567 95.3662 297.294C95.6898 297.016 96.0498 296.877 96.4463 296.877C96.7334 296.877 96.9521 296.92 97.1025 297.007V298.511ZM108.689 304H107.104V300.186C107.104 299.452 106.999 298.921 106.789 298.593C106.584 298.265 106.235 298.101 105.743 298.101C105.328 298.101 104.975 298.308 104.684 298.723C104.396 299.137 104.253 299.634 104.253 300.213V304H102.66V300.056C102.66 298.752 102.2 298.101 101.279 298.101C100.851 298.101 100.498 298.297 100.22 298.688C99.9463 299.08 99.8096 299.589 99.8096 300.213V304H98.2236V297H99.8096V298.107H99.8369C100.343 297.26 101.079 296.836 102.045 296.836C102.528 296.836 102.95 296.97 103.31 297.239C103.674 297.504 103.923 297.852 104.055 298.285C104.574 297.319 105.349 296.836 106.379 296.836C107.919 296.836 108.689 297.786 108.689 299.687V304Z" fill="#242424"/>
<g clip-path="url(#clip4_4265_31552)">
<path d="M119.5 298.5C119.5 298.224 119.724 298 120 298C120.276 298 120.5 298.224 120.5 298.5V300C120.5 300.276 120.276 300.5 120 300.5C119.724 300.5 119.5 300.276 119.5 300V298.5ZM120 295.75C119.586 295.75 119.25 296.086 119.25 296.5C119.25 296.914 119.586 297.25 120 297.25C120.414 297.25 120.75 296.914 120.75 296.5C120.75 296.086 120.414 295.75 120 295.75ZM115 298C115 295.239 117.239 293 120 293C122.761 293 125 295.239 125 298C125 300.761 122.761 303 120 303C117.239 303 115 300.761 115 298ZM120 294C117.791 294 116 295.791 116 298C116 300.209 117.791 302 120 302C122.209 302 124 300.209 124 298C124 295.791 122.209 294 120 294Z" fill="#424242"/>
</g>
<rect x="295.833" y="281.5" width="33" height="2" rx="1" transform="rotate(90 295.833 281.5)" fill="#E0E0E0" stroke="white"/>
<rect x="406.167" y="281.5" width="33" height="2" rx="1" transform="rotate(90 406.167 281.5)" fill="#E0E0E0" stroke="white"/>
<g clip-path="url(#clip5_4265_31552)">
<rect x="184" y="288" width="332" height="20" rx="4" fill="#EBEBEB"/>
<rect width="331.108" height="20" transform="translate(184 288)" fill="#0F6CBD"/>
</g>
<rect x="184.5" y="288.5" width="331" height="19" rx="3.5" stroke="#E0E0E0"/>
<rect x="504.5" y="288.5" width="19" height="19" rx="9.5" fill="white"/>
<rect x="504.5" y="288.5" width="19" height="19" rx="9.5" stroke="#D1D1D1"/>
<rect x="508" y="292" width="12" height="12" rx="6" fill="#0F6CBD"/>
<path d="M470.277 302L469.369 302L468.627 300.037L465.658 300.037L464.96 302L464.047 302L466.732 294.998L467.582 294.998L470.277 302ZM468.358 299.3L467.26 296.316C467.224 296.219 467.188 296.062 467.152 295.848L467.133 295.848C467.1 296.046 467.063 296.202 467.021 296.316L465.932 299.3L468.358 299.3ZM472.006 302L471.205 302L471.205 294.598L472.006 294.598L472.006 302ZM474.428 302L473.627 302L473.627 294.598L474.428 294.598L474.428 302ZM478.139 302.117C477.4 302.117 476.809 301.884 476.366 301.419C475.927 300.95 475.707 300.33 475.707 299.559C475.707 298.719 475.937 298.063 476.396 297.591C476.854 297.119 477.475 296.883 478.256 296.883C479.001 296.883 479.582 297.112 479.999 297.571C480.419 298.03 480.629 298.667 480.629 299.48C480.629 300.278 480.403 300.918 479.95 301.399C479.501 301.878 478.897 302.117 478.139 302.117ZM478.197 297.557C477.683 297.557 477.276 297.732 476.977 298.084C476.677 298.432 476.527 298.914 476.527 299.529C476.527 300.122 476.679 300.589 476.981 300.931C477.284 301.272 477.689 301.443 478.197 301.443C478.715 301.443 479.112 301.276 479.389 300.94C479.669 300.605 479.809 300.128 479.809 299.51C479.809 298.885 479.669 298.403 479.389 298.064C479.112 297.726 478.715 297.557 478.197 297.557ZM488.207 297L486.708 302L485.878 302L484.848 298.421C484.809 298.284 484.783 298.13 484.77 297.957L484.75 297.957C484.74 298.074 484.706 298.226 484.647 298.411L483.529 302L482.729 302L481.215 297L482.055 297L483.09 300.76C483.122 300.874 483.145 301.023 483.158 301.209L483.197 301.209C483.207 301.066 483.236 300.913 483.285 300.75L484.438 297L485.17 297L486.205 300.77C486.238 300.89 486.262 301.04 486.278 301.219L486.317 301.219C486.324 301.092 486.352 300.942 486.4 300.77L487.416 297L488.207 297ZM495.458 302L494.657 302L494.657 301.219L494.638 301.219C494.289 301.818 493.777 302.117 493.1 302.117C492.602 302.117 492.211 301.985 491.928 301.722C491.648 301.458 491.508 301.108 491.508 300.672C491.508 299.738 492.058 299.194 493.158 299.041L494.657 298.831C494.657 297.981 494.314 297.557 493.627 297.557C493.025 297.557 492.481 297.762 491.996 298.172L491.996 297.352C492.488 297.039 493.054 296.883 493.695 296.883C494.87 296.883 495.458 297.505 495.458 298.748L495.458 302ZM494.657 299.471L493.451 299.637C493.08 299.689 492.8 299.782 492.611 299.915C492.423 300.045 492.328 300.278 492.328 300.613C492.328 300.857 492.414 301.058 492.587 301.214C492.763 301.367 492.995 301.443 493.285 301.443C493.682 301.443 494.009 301.305 494.267 301.028C494.527 300.748 494.657 300.395 494.657 299.969L494.657 299.471ZM497.768 302L496.967 302L496.967 294.598L497.768 294.598L497.768 302ZM500.189 302L499.389 302L499.389 294.598L500.189 294.598L500.189 302Z" fill="white"/>
<path d="M486.422 320.697V321.605C485.988 321.383 485.531 321.271 485.051 321.271C484.305 321.271 483.707 321.604 483.258 322.268C482.812 322.932 482.59 323.82 482.59 324.934H482.613C483.004 324.141 483.645 323.744 484.535 323.744C485.27 323.744 485.854 323.98 486.287 324.453C486.721 324.922 486.938 325.551 486.938 326.34C486.938 327.164 486.689 327.838 486.193 328.361C485.697 328.881 485.066 329.141 484.301 329.141C483.457 329.141 482.795 328.805 482.314 328.133C481.834 327.461 481.594 326.518 481.594 325.303C481.594 323.83 481.908 322.654 482.537 321.775C483.166 320.896 483.996 320.457 485.027 320.457C485.613 320.457 486.078 320.537 486.422 320.697ZM484.324 324.559C483.828 324.559 483.426 324.727 483.117 325.062C482.809 325.398 482.654 325.795 482.654 326.252C482.654 326.826 482.807 327.316 483.111 327.723C483.42 328.129 483.828 328.332 484.336 328.332C484.82 328.332 485.211 328.156 485.508 327.805C485.805 327.449 485.953 327 485.953 326.457C485.953 325.863 485.811 325.398 485.525 325.062C485.24 324.727 484.84 324.559 484.324 324.559ZM498.129 329H497.145V325.168H492.797V329H491.812V320.598H492.797V324.283H497.145V320.598H498.129V329ZM500.695 321.477C500.523 321.477 500.377 321.418 500.256 321.301C500.135 321.184 500.074 321.035 500.074 320.855C500.074 320.676 500.135 320.527 500.256 320.41C500.377 320.289 500.523 320.229 500.695 320.229C500.871 320.229 501.02 320.289 501.141 320.41C501.266 320.527 501.328 320.676 501.328 320.855C501.328 321.027 501.266 321.174 501.141 321.295C501.02 321.416 500.871 321.477 500.695 321.477ZM501.164 329H500.203V323H501.164V329ZM508.23 328.52C508.23 330.723 507.176 331.824 505.066 331.824C504.324 331.824 503.676 331.684 503.121 331.402V330.441C503.797 330.816 504.441 331.004 505.055 331.004C506.531 331.004 507.27 330.219 507.27 328.648V327.992H507.246C506.789 328.758 506.102 329.141 505.184 329.141C504.438 329.141 503.836 328.875 503.379 328.344C502.926 327.809 502.699 327.092 502.699 326.193C502.699 325.174 502.943 324.363 503.432 323.762C503.924 323.16 504.596 322.859 505.447 322.859C506.256 322.859 506.855 323.184 507.246 323.832H507.27V323H508.23V328.52ZM507.27 326.287V325.402C507.27 324.926 507.107 324.518 506.783 324.178C506.463 323.838 506.062 323.668 505.582 323.668C504.988 323.668 504.523 323.885 504.188 324.318C503.852 324.748 503.684 325.352 503.684 326.129C503.684 326.797 503.844 327.332 504.164 327.734C504.488 328.133 504.916 328.332 505.447 328.332C505.986 328.332 506.424 328.141 506.76 327.758C507.1 327.375 507.27 326.885 507.27 326.287ZM515.156 329H514.195V325.543C514.195 324.293 513.73 323.668 512.801 323.668C512.332 323.668 511.938 323.85 511.617 324.213C511.297 324.572 511.137 325.035 511.137 325.602V329H510.176V320.117H511.137V323.996H511.16C511.621 323.238 512.277 322.859 513.129 322.859C514.48 322.859 515.156 323.674 515.156 325.303V329Z" fill="#242424"/>
<defs>
<clipPath id="clip0_4265_31552">
<path d="M289 20C289 17.7909 290.791 16 293 16H305C307.209 16 309 17.7909 309 20V32C309 34.2091 307.209 36 305 36H293C290.791 36 289 34.2091 289 32V20Z" fill="white"/>
</clipPath>
<clipPath id="clip1_4265_31552">
<path d="M103 82C103 79.7909 104.791 78 107 78H119C121.209 78 123 79.7909 123 82V94C123 96.2091 121.209 98 119 98H107C104.791 98 103 96.2091 103 94V82Z" fill="white"/>
</clipPath>
<clipPath id="clip2_4265_31552">
<path d="M79 152C79 149.791 80.7909 148 83 148H95C97.2091 148 99 149.791 99 152V164C99 166.209 97.2091 168 95 168H83C80.7909 168 79 166.209 79 164V152Z" fill="white"/>
</clipPath>
<clipPath id="clip3_4265_31552">
<path d="M90 222C90 219.791 91.7909 218 94 218H106C108.209 218 110 219.791 110 222V234C110 236.209 108.209 238 106 238H94C91.7909 238 90 236.209 90 234V222Z" fill="white"/>
</clipPath>
<clipPath id="clip4_4265_31552">
<path d="M110 292C110 289.791 111.791 288 114 288H126C128.209 288 130 289.791 130 292V304C130 306.209 128.209 308 126 308H114C111.791 308 110 306.209 110 304V292Z" fill="white"/>
</clipPath>
<clipPath id="clip5_4265_31552">
<rect x="184" y="288" width="332" height="20" rx="4" fill="white"/>
</clipPath>
</defs>
</svg>
