<svg width="768" height="300" viewBox="0 0 768 300" fill="none" xmlns="http://www.w3.org/2000/svg">
<rect width="768" height="300" fill="black"/>
<rect x="37.5" y="54.5" width="199" height="99" stroke="white"/>
<path d="M49.0511 77.14C48.7525 77.14 48.4538 77.126 48.1551 77.098C47.8658 77.0793 47.5905 77.0513 47.3291 77.014C47.0771 76.9767 46.8485 76.9393 46.6431 76.902C46.4471 76.8553 46.2885 76.8087 46.1671 76.762V75.6C46.3071 75.656 46.4845 75.712 46.6991 75.768C46.9138 75.8147 47.1471 75.8613 47.3991 75.908C47.6511 75.9453 47.9171 75.978 48.1971 76.006C48.4771 76.0247 48.7618 76.034 49.0511 76.034C49.7791 76.034 50.3298 75.9127 50.7031 75.67C51.0765 75.4273 51.2631 75.0027 51.2631 74.396C51.2631 74.0973 51.2305 73.85 51.1651 73.654C51.1091 73.4487 50.9971 73.276 50.8291 73.136C50.6611 72.996 50.4325 72.8747 50.1431 72.772C49.8538 72.6693 49.4805 72.562 49.0231 72.45C48.5285 72.3287 48.1085 72.2027 47.7631 72.072C47.4178 71.9413 47.1378 71.778 46.9231 71.582C46.7085 71.3767 46.5498 71.1293 46.4471 70.84C46.3538 70.5507 46.3071 70.1913 46.3071 69.762C46.3071 68.8753 46.5685 68.2173 47.0911 67.788C47.6231 67.3493 48.4398 67.13 49.5411 67.13C49.7745 67.13 50.0078 67.1393 50.2411 67.158C50.4838 67.1767 50.7125 67.2047 50.9271 67.242C51.1511 67.27 51.3518 67.3073 51.5291 67.354C51.7158 67.3913 51.8651 67.4333 51.9771 67.48V68.628C51.6971 68.5253 51.3331 68.4367 50.8851 68.362C50.4371 68.278 49.9938 68.236 49.5551 68.236C49.2191 68.236 48.9251 68.2593 48.6731 68.306C48.4211 68.3433 48.2111 68.418 48.0431 68.53C47.8751 68.642 47.7491 68.796 47.6651 68.992C47.5905 69.188 47.5531 69.4447 47.5531 69.762C47.5531 69.986 47.5718 70.182 47.6091 70.35C47.6558 70.5087 47.7491 70.6487 47.8891 70.77C48.0291 70.8913 48.2298 71.0033 48.4911 71.106C48.7525 71.1993 49.1025 71.2973 49.5411 71.4C50.0825 71.5307 50.5398 71.6707 50.9131 71.82C51.2958 71.96 51.6038 72.142 51.8371 72.366C52.0705 72.59 52.2385 72.8653 52.3411 73.192C52.4438 73.5093 52.4951 73.906 52.4951 74.382C52.4951 75.334 52.2011 76.034 51.6131 76.482C51.0345 76.9207 50.1805 77.14 49.0511 77.14ZM56.9112 76.076C57.0792 76.076 57.2238 76.0713 57.3452 76.062C57.4758 76.0433 57.6065 76.02 57.7372 75.992V77.014C57.5878 77.0327 57.4478 77.0467 57.3172 77.056C57.1865 77.0747 57.0418 77.084 56.8832 77.084C56.4632 77.084 56.1085 77.056 55.8192 77C55.5392 76.9347 55.3058 76.8133 55.1192 76.636C54.9418 76.4587 54.8112 76.216 54.7272 75.908C54.6525 75.5907 54.6152 75.1847 54.6152 74.69V70.448H53.4952V69.44H54.6152V67.648H55.8192V69.44H57.6952V70.448H55.8192V74.62C55.8192 74.9187 55.8332 75.1613 55.8612 75.348C55.8892 75.5347 55.9405 75.684 56.0152 75.796C56.0992 75.8987 56.2112 75.9733 56.3512 76.02C56.4912 76.0573 56.6778 76.076 56.9112 76.076ZM65.282 72.464C65.282 72.5667 65.2726 72.6973 65.254 72.856C65.2446 73.0053 65.2306 73.1687 65.212 73.346L60.088 73.668C60.088 74.0787 60.13 74.438 60.214 74.746C60.298 75.0447 60.4333 75.292 60.62 75.488C60.8066 75.684 61.054 75.8333 61.362 75.936C61.67 76.0293 62.0526 76.076 62.51 76.076C62.93 76.076 63.3546 76.0293 63.784 75.936C64.2226 75.8427 64.5866 75.726 64.876 75.586V76.692C64.764 76.748 64.6193 76.804 64.442 76.86C64.2646 76.916 64.064 76.9627 63.84 77C63.616 77.0467 63.3733 77.0793 63.112 77.098C62.86 77.126 62.5986 77.14 62.328 77.14C61.768 77.14 61.2686 77.0793 60.83 76.958C60.4006 76.8273 60.0366 76.6127 59.738 76.314C59.4393 76.006 59.2106 75.6047 59.052 75.11C58.9026 74.606 58.828 73.976 58.828 73.22C58.828 72.464 58.9026 71.8387 59.052 71.344C59.2106 70.84 59.4346 70.4387 59.724 70.14C60.0226 69.832 60.382 69.6173 60.802 69.496C61.2313 69.3653 61.7166 69.3 62.258 69.3C62.902 69.3 63.42 69.398 63.812 69.594C64.2133 69.7807 64.5213 70.028 64.736 70.336C64.9506 70.6347 65.0953 70.9753 65.17 71.358C65.2446 71.7313 65.282 72.1 65.282 72.464ZM64.092 72.478C64.092 72.1887 64.0733 71.9133 64.036 71.652C63.9986 71.3813 63.9146 71.148 63.784 70.952C63.6626 70.7467 63.4806 70.588 63.238 70.476C62.9953 70.3547 62.6686 70.294 62.258 70.294C61.8193 70.294 61.46 70.35 61.18 70.462C60.9093 70.574 60.6946 70.7373 60.536 70.952C60.3773 71.1667 60.2653 71.428 60.2 71.736C60.1346 72.044 60.0973 72.3893 60.088 72.772L64.092 72.478ZM71.0237 69.3C71.6584 69.3 72.1764 69.398 72.5777 69.594C72.9884 69.7807 73.3057 70.0467 73.5297 70.392C73.763 70.7373 73.9217 71.1527 74.0057 71.638C74.099 72.114 74.1457 72.6413 74.1457 73.22C74.1457 73.7427 74.099 74.242 74.0057 74.718C73.9217 75.1847 73.763 75.6 73.5297 75.964C73.3057 76.3187 72.9884 76.6033 72.5777 76.818C72.1764 77.0327 71.6584 77.14 71.0237 77.14C70.2864 77.14 69.731 77.0093 69.3577 76.748C68.9937 76.4867 68.7324 76.132 68.5737 75.684V79.8H67.3697V69.44H68.5737V70.798C68.7324 70.35 68.9984 69.9907 69.3717 69.72C69.745 69.44 70.2957 69.3 71.0237 69.3ZM70.8697 76.118C71.3177 76.118 71.6724 76.0387 71.9337 75.88C72.2044 75.712 72.4097 75.4927 72.5497 75.222C72.6897 74.9513 72.7784 74.6433 72.8157 74.298C72.8624 73.9433 72.8857 73.584 72.8857 73.22C72.8857 72.8187 72.8624 72.4453 72.8157 72.1C72.769 71.7453 72.6757 71.4373 72.5357 71.176C72.3957 70.9053 72.1904 70.6953 71.9197 70.546C71.6584 70.3873 71.3084 70.308 70.8697 70.308C70.4124 70.308 70.0344 70.378 69.7357 70.518C69.437 70.6487 69.1944 70.84 69.0077 71.092C68.8304 71.344 68.7044 71.652 68.6297 72.016C68.555 72.3707 68.5177 72.772 68.5177 73.22C68.5177 73.6587 68.555 74.0553 68.6297 74.41C68.7044 74.7647 68.8304 75.068 69.0077 75.32C69.1944 75.572 69.437 75.768 69.7357 75.908C70.0344 76.048 70.4124 76.118 70.8697 76.118ZM82.4001 68.432L79.9921 68.894V67.872L82.8341 67.284H83.6601V77H82.4001V68.432Z" fill="white"/>
<rect x="127.5" y="62.5" width="101" height="83" stroke="white"/>
<path d="M139.326 113.14C138.766 113.14 138.267 113.079 137.828 112.958C137.399 112.827 137.035 112.613 136.736 112.314C136.437 112.006 136.209 111.605 136.05 111.11C135.901 110.606 135.826 109.976 135.826 109.22C135.826 108.464 135.901 107.839 136.05 107.344C136.209 106.84 136.437 106.439 136.736 106.14C137.035 105.832 137.399 105.617 137.828 105.496C138.267 105.365 138.766 105.3 139.326 105.3C139.746 105.3 140.124 105.328 140.46 105.384C140.805 105.44 141.085 105.505 141.3 105.58V106.686C141.02 106.583 140.721 106.504 140.404 106.448C140.087 106.383 139.732 106.35 139.34 106.35C138.92 106.35 138.57 106.397 138.29 106.49C138.01 106.583 137.781 106.742 137.604 106.966C137.427 107.181 137.301 107.475 137.226 107.848C137.151 108.212 137.114 108.674 137.114 109.234C137.114 109.785 137.151 110.242 137.226 110.606C137.301 110.97 137.427 111.264 137.604 111.488C137.781 111.703 138.01 111.857 138.29 111.95C138.579 112.034 138.934 112.076 139.354 112.076C139.709 112.076 140.059 112.053 140.404 112.006C140.749 111.95 141.057 111.866 141.328 111.754V112.86C141.225 112.897 141.095 112.935 140.936 112.972C140.787 113 140.619 113.028 140.432 113.056C140.255 113.084 140.068 113.103 139.872 113.112C139.685 113.131 139.503 113.14 139.326 113.14ZM149.267 105.44V113H148.245L148.091 111.908C147.979 112.16 147.834 112.365 147.657 112.524C147.48 112.683 147.284 112.809 147.069 112.902C146.864 112.986 146.644 113.047 146.411 113.084C146.178 113.121 145.944 113.14 145.711 113.14C145.216 113.14 144.806 113.079 144.479 112.958C144.152 112.837 143.891 112.669 143.695 112.454C143.508 112.239 143.373 111.983 143.289 111.684C143.214 111.376 143.177 111.04 143.177 110.676V105.44H144.381V110.228C144.381 110.517 144.4 110.779 144.437 111.012C144.474 111.236 144.544 111.427 144.647 111.586C144.759 111.745 144.908 111.866 145.095 111.95C145.291 112.034 145.538 112.076 145.837 112.076C146.07 112.076 146.299 112.062 146.523 112.034C146.747 111.997 146.952 111.927 147.139 111.824C147.335 111.712 147.508 111.558 147.657 111.362C147.816 111.166 147.951 110.905 148.063 110.578V105.44H149.267ZM153.569 113.084C153.382 113.084 153.182 113.075 152.967 113.056C152.762 113.047 152.556 113.033 152.351 113.014C152.146 112.995 151.954 112.972 151.777 112.944C151.609 112.907 151.474 112.874 151.371 112.846V111.81C151.502 111.847 151.656 111.885 151.833 111.922C152.02 111.959 152.211 111.992 152.407 112.02C152.603 112.048 152.799 112.071 152.995 112.09C153.2 112.099 153.387 112.104 153.555 112.104C154.134 112.104 154.568 112.025 154.857 111.866C155.156 111.698 155.305 111.39 155.305 110.942C155.305 110.718 155.282 110.536 155.235 110.396C155.198 110.247 155.118 110.125 154.997 110.032C154.876 109.929 154.703 109.841 154.479 109.766C154.264 109.691 153.975 109.612 153.611 109.528C153.191 109.435 152.846 109.327 152.575 109.206C152.304 109.085 152.09 108.94 151.931 108.772C151.772 108.604 151.66 108.403 151.595 108.17C151.53 107.937 151.497 107.661 151.497 107.344C151.497 106.728 151.721 106.233 152.169 105.86C152.626 105.487 153.308 105.3 154.213 105.3C154.577 105.3 154.936 105.323 155.291 105.37C155.655 105.417 155.93 105.477 156.117 105.552L156.033 106.574C155.818 106.49 155.552 106.42 155.235 106.364C154.918 106.308 154.582 106.28 154.227 106.28C153.695 106.28 153.294 106.355 153.023 106.504C152.762 106.653 152.631 106.943 152.631 107.372C152.631 107.568 152.65 107.727 152.687 107.848C152.734 107.969 152.808 108.077 152.911 108.17C153.014 108.254 153.158 108.329 153.345 108.394C153.532 108.45 153.774 108.511 154.073 108.576C154.502 108.679 154.866 108.791 155.165 108.912C155.473 109.024 155.72 109.169 155.907 109.346C156.094 109.514 156.229 109.724 156.313 109.976C156.397 110.228 156.439 110.536 156.439 110.9C156.439 111.656 156.192 112.211 155.697 112.566C155.212 112.911 154.502 113.084 153.569 113.084ZM160.87 112.076C161.038 112.076 161.183 112.071 161.304 112.062C161.435 112.043 161.565 112.02 161.696 111.992V113.014C161.547 113.033 161.407 113.047 161.276 113.056C161.145 113.075 161.001 113.084 160.842 113.084C160.422 113.084 160.067 113.056 159.778 113C159.498 112.935 159.265 112.813 159.078 112.636C158.901 112.459 158.77 112.216 158.686 111.908C158.611 111.591 158.574 111.185 158.574 110.69V106.448H157.454V105.44H158.574V103.648H159.778V105.44H161.654V106.448H159.778V110.62C159.778 110.919 159.792 111.161 159.82 111.348C159.848 111.535 159.899 111.684 159.974 111.796C160.058 111.899 160.17 111.973 160.31 112.02C160.45 112.057 160.637 112.076 160.87 112.076ZM166.287 113.14C165.727 113.14 165.228 113.079 164.789 112.958C164.36 112.827 163.996 112.613 163.697 112.314C163.398 112.006 163.17 111.605 163.011 111.11C162.862 110.606 162.787 109.976 162.787 109.22C162.787 108.464 162.862 107.839 163.011 107.344C163.17 106.84 163.398 106.439 163.697 106.14C163.996 105.832 164.36 105.617 164.789 105.496C165.228 105.365 165.727 105.3 166.287 105.3C166.847 105.3 167.342 105.365 167.771 105.496C168.21 105.617 168.574 105.832 168.863 106.14C169.162 106.439 169.386 106.84 169.535 107.344C169.694 107.839 169.773 108.464 169.773 109.22C169.773 109.976 169.694 110.606 169.535 111.11C169.386 111.605 169.162 112.006 168.863 112.314C168.574 112.613 168.21 112.827 167.771 112.958C167.342 113.079 166.847 113.14 166.287 113.14ZM166.287 112.118C166.716 112.118 167.071 112.071 167.351 111.978C167.64 111.885 167.869 111.726 168.037 111.502C168.205 111.278 168.322 110.979 168.387 110.606C168.462 110.233 168.499 109.771 168.499 109.22C168.499 108.669 168.462 108.207 168.387 107.834C168.312 107.461 168.186 107.162 168.009 106.938C167.841 106.714 167.612 106.555 167.323 106.462C167.043 106.359 166.698 106.308 166.287 106.308C165.867 106.308 165.512 106.359 165.223 106.462C164.943 106.555 164.714 106.714 164.537 106.938C164.369 107.162 164.248 107.461 164.173 107.834C164.108 108.207 164.075 108.669 164.075 109.22C164.075 109.771 164.112 110.233 164.187 110.606C164.262 110.979 164.388 111.278 164.565 111.502C164.742 111.726 164.971 111.885 165.251 111.978C165.531 112.071 165.876 112.118 166.287 112.118ZM179.827 105.3C180.266 105.3 180.639 105.361 180.947 105.482C181.265 105.603 181.521 105.776 181.717 106C181.923 106.215 182.072 106.476 182.165 106.784C182.259 107.083 182.305 107.414 182.305 107.778V113H181.101V108.212C181.101 107.624 180.999 107.171 180.793 106.854C180.597 106.537 180.215 106.378 179.645 106.378C179.421 106.378 179.207 106.397 179.001 106.434C178.805 106.471 178.623 106.541 178.455 106.644C178.287 106.737 178.138 106.873 178.007 107.05C177.877 107.218 177.769 107.437 177.685 107.708V107.764V113H176.481V108.212C176.481 107.633 176.388 107.185 176.201 106.868C176.015 106.541 175.646 106.378 175.095 106.378C174.862 106.378 174.643 106.397 174.437 106.434C174.232 106.462 174.045 106.527 173.877 106.63C173.709 106.723 173.56 106.863 173.429 107.05C173.299 107.227 173.187 107.461 173.093 107.75V113H171.889V105.44H173.093V106.434C173.327 105.986 173.635 105.687 174.017 105.538C174.4 105.379 174.82 105.3 175.277 105.3C175.875 105.3 176.351 105.412 176.705 105.636C177.06 105.851 177.317 106.149 177.475 106.532C177.587 106.289 177.727 106.089 177.895 105.93C178.073 105.771 178.264 105.645 178.469 105.552C178.684 105.459 178.903 105.393 179.127 105.356C179.361 105.319 179.594 105.3 179.827 105.3ZM185.398 104.054C185.127 104.054 184.936 104.012 184.824 103.928C184.721 103.844 184.67 103.648 184.67 103.34C184.67 103.023 184.721 102.827 184.824 102.752C184.936 102.668 185.127 102.626 185.398 102.626C185.65 102.626 185.832 102.668 185.944 102.752C186.056 102.827 186.112 103.023 186.112 103.34C186.112 103.648 186.056 103.844 185.944 103.928C185.832 104.012 185.65 104.054 185.398 104.054ZM184.782 105.44H185.986V113H184.782V105.44ZM187.87 112.02L192.126 106.518V106.434H188.206V105.44H193.596V106.35L189.312 111.88V111.964H193.834V113H187.87V112.02ZM201.616 108.464C201.616 108.567 201.607 108.697 201.588 108.856C201.579 109.005 201.565 109.169 201.546 109.346L196.422 109.668C196.422 110.079 196.464 110.438 196.548 110.746C196.632 111.045 196.767 111.292 196.954 111.488C197.141 111.684 197.388 111.833 197.696 111.936C198.004 112.029 198.387 112.076 198.844 112.076C199.264 112.076 199.689 112.029 200.118 111.936C200.557 111.843 200.921 111.726 201.21 111.586V112.692C201.098 112.748 200.953 112.804 200.776 112.86C200.599 112.916 200.398 112.963 200.174 113C199.95 113.047 199.707 113.079 199.446 113.098C199.194 113.126 198.933 113.14 198.662 113.14C198.102 113.14 197.603 113.079 197.164 112.958C196.735 112.827 196.371 112.613 196.072 112.314C195.773 112.006 195.545 111.605 195.386 111.11C195.237 110.606 195.162 109.976 195.162 109.22C195.162 108.464 195.237 107.839 195.386 107.344C195.545 106.84 195.769 106.439 196.058 106.14C196.357 105.832 196.716 105.617 197.136 105.496C197.565 105.365 198.051 105.3 198.592 105.3C199.236 105.3 199.754 105.398 200.146 105.594C200.547 105.781 200.855 106.028 201.07 106.336C201.285 106.635 201.429 106.975 201.504 107.358C201.579 107.731 201.616 108.1 201.616 108.464ZM200.426 108.478C200.426 108.189 200.407 107.913 200.37 107.652C200.333 107.381 200.249 107.148 200.118 106.952C199.997 106.747 199.815 106.588 199.572 106.476C199.329 106.355 199.003 106.294 198.592 106.294C198.153 106.294 197.794 106.35 197.514 106.462C197.243 106.574 197.029 106.737 196.87 106.952C196.711 107.167 196.599 107.428 196.534 107.736C196.469 108.044 196.431 108.389 196.422 108.772L200.426 108.478ZM210.06 102.36V113H209.038L208.856 111.754C208.706 112.155 208.431 112.487 208.03 112.748C207.628 113.009 207.082 113.14 206.392 113.14C205.766 113.14 205.248 113.047 204.838 112.86C204.436 112.664 204.119 112.393 203.886 112.048C203.652 111.703 203.489 111.292 203.396 110.816C203.312 110.331 203.27 109.799 203.27 109.22C203.27 108.707 203.312 108.212 203.396 107.736C203.489 107.26 203.652 106.845 203.886 106.49C204.119 106.126 204.436 105.837 204.838 105.622C205.248 105.407 205.766 105.3 206.392 105.3C206.765 105.3 207.087 105.337 207.358 105.412C207.628 105.477 207.862 105.575 208.058 105.706C208.254 105.827 208.417 105.977 208.548 106.154C208.678 106.331 208.781 106.532 208.856 106.756V102.36H210.06ZM206.574 112.118C207.031 112.118 207.409 112.053 207.708 111.922C208.006 111.791 208.244 111.6 208.422 111.348C208.599 111.096 208.72 110.793 208.786 110.438C208.86 110.074 208.898 109.668 208.898 109.22C208.898 108.791 208.86 108.399 208.786 108.044C208.72 107.68 208.599 107.372 208.422 107.12C208.244 106.859 208.006 106.658 207.708 106.518C207.409 106.378 207.031 106.308 206.574 106.308C206.116 106.308 205.752 106.392 205.482 106.56C205.22 106.719 205.02 106.938 204.88 107.218C204.74 107.489 204.651 107.801 204.614 108.156C204.576 108.501 204.558 108.856 204.558 109.22C204.558 109.612 204.576 109.985 204.614 110.34C204.66 110.695 204.754 111.003 204.894 111.264C205.034 111.525 205.234 111.735 205.496 111.894C205.766 112.043 206.126 112.118 206.574 112.118ZM139.326 133.14C138.766 133.14 138.267 133.079 137.828 132.958C137.399 132.827 137.035 132.613 136.736 132.314C136.437 132.006 136.209 131.605 136.05 131.11C135.901 130.606 135.826 129.976 135.826 129.22C135.826 128.464 135.901 127.839 136.05 127.344C136.209 126.84 136.437 126.439 136.736 126.14C137.035 125.832 137.399 125.617 137.828 125.496C138.267 125.365 138.766 125.3 139.326 125.3C139.746 125.3 140.124 125.328 140.46 125.384C140.805 125.44 141.085 125.505 141.3 125.58V126.686C141.02 126.583 140.721 126.504 140.404 126.448C140.087 126.383 139.732 126.35 139.34 126.35C138.92 126.35 138.57 126.397 138.29 126.49C138.01 126.583 137.781 126.742 137.604 126.966C137.427 127.181 137.301 127.475 137.226 127.848C137.151 128.212 137.114 128.674 137.114 129.234C137.114 129.785 137.151 130.242 137.226 130.606C137.301 130.97 137.427 131.264 137.604 131.488C137.781 131.703 138.01 131.857 138.29 131.95C138.579 132.034 138.934 132.076 139.354 132.076C139.709 132.076 140.059 132.053 140.404 132.006C140.749 131.95 141.057 131.866 141.328 131.754V132.86C141.225 132.897 141.095 132.935 140.936 132.972C140.787 133 140.619 133.028 140.432 133.056C140.255 133.084 140.068 133.103 139.872 133.112C139.685 133.131 139.503 133.14 139.326 133.14ZM146.285 133.14C145.725 133.14 145.226 133.079 144.787 132.958C144.358 132.827 143.994 132.613 143.695 132.314C143.396 132.006 143.168 131.605 143.009 131.11C142.86 130.606 142.785 129.976 142.785 129.22C142.785 128.464 142.86 127.839 143.009 127.344C143.168 126.84 143.396 126.439 143.695 126.14C143.994 125.832 144.358 125.617 144.787 125.496C145.226 125.365 145.725 125.3 146.285 125.3C146.845 125.3 147.34 125.365 147.769 125.496C148.208 125.617 148.572 125.832 148.861 126.14C149.16 126.439 149.384 126.84 149.533 127.344C149.692 127.839 149.771 128.464 149.771 129.22C149.771 129.976 149.692 130.606 149.533 131.11C149.384 131.605 149.16 132.006 148.861 132.314C148.572 132.613 148.208 132.827 147.769 132.958C147.34 133.079 146.845 133.14 146.285 133.14ZM146.285 132.118C146.714 132.118 147.069 132.071 147.349 131.978C147.638 131.885 147.867 131.726 148.035 131.502C148.203 131.278 148.32 130.979 148.385 130.606C148.46 130.233 148.497 129.771 148.497 129.22C148.497 128.669 148.46 128.207 148.385 127.834C148.31 127.461 148.184 127.162 148.007 126.938C147.839 126.714 147.61 126.555 147.321 126.462C147.041 126.359 146.696 126.308 146.285 126.308C145.865 126.308 145.51 126.359 145.221 126.462C144.941 126.555 144.712 126.714 144.535 126.938C144.367 127.162 144.246 127.461 144.171 127.834C144.106 128.207 144.073 128.669 144.073 129.22C144.073 129.771 144.11 130.233 144.185 130.606C144.26 130.979 144.386 131.278 144.563 131.502C144.74 131.726 144.969 131.885 145.249 131.978C145.529 132.071 145.874 132.118 146.285 132.118ZM159.825 125.3C160.264 125.3 160.637 125.361 160.945 125.482C161.263 125.603 161.519 125.776 161.715 126C161.921 126.215 162.07 126.476 162.163 126.784C162.257 127.083 162.303 127.414 162.303 127.778V133H161.099V128.212C161.099 127.624 160.997 127.171 160.791 126.854C160.595 126.537 160.213 126.378 159.643 126.378C159.419 126.378 159.205 126.397 158.999 126.434C158.803 126.471 158.621 126.541 158.453 126.644C158.285 126.737 158.136 126.873 158.005 127.05C157.875 127.218 157.767 127.437 157.683 127.708V127.764V133H156.479V128.212C156.479 127.633 156.386 127.185 156.199 126.868C156.013 126.541 155.644 126.378 155.093 126.378C154.86 126.378 154.641 126.397 154.435 126.434C154.23 126.462 154.043 126.527 153.875 126.63C153.707 126.723 153.558 126.863 153.427 127.05C153.297 127.227 153.185 127.461 153.091 127.75V133H151.887V125.44H153.091V126.434C153.325 125.986 153.633 125.687 154.015 125.538C154.398 125.379 154.818 125.3 155.275 125.3C155.873 125.3 156.349 125.412 156.703 125.636C157.058 125.851 157.315 126.149 157.473 126.532C157.585 126.289 157.725 126.089 157.893 125.93C158.071 125.771 158.262 125.645 158.467 125.552C158.682 125.459 158.901 125.393 159.125 125.356C159.359 125.319 159.592 125.3 159.825 125.3ZM168.434 125.3C169.069 125.3 169.587 125.398 169.988 125.594C170.399 125.781 170.716 126.047 170.94 126.392C171.173 126.737 171.332 127.153 171.416 127.638C171.509 128.114 171.556 128.641 171.556 129.22C171.556 129.743 171.509 130.242 171.416 130.718C171.332 131.185 171.173 131.6 170.94 131.964C170.716 132.319 170.399 132.603 169.988 132.818C169.587 133.033 169.069 133.14 168.434 133.14C167.697 133.14 167.141 133.009 166.768 132.748C166.404 132.487 166.143 132.132 165.984 131.684V135.8H164.78V125.44H165.984V126.798C166.143 126.35 166.409 125.991 166.782 125.72C167.155 125.44 167.706 125.3 168.434 125.3ZM168.28 132.118C168.728 132.118 169.083 132.039 169.344 131.88C169.615 131.712 169.82 131.493 169.96 131.222C170.1 130.951 170.189 130.643 170.226 130.298C170.273 129.943 170.296 129.584 170.296 129.22C170.296 128.819 170.273 128.445 170.226 128.1C170.179 127.745 170.086 127.437 169.946 127.176C169.806 126.905 169.601 126.695 169.33 126.546C169.069 126.387 168.719 126.308 168.28 126.308C167.823 126.308 167.445 126.378 167.146 126.518C166.847 126.649 166.605 126.84 166.418 127.092C166.241 127.344 166.115 127.652 166.04 128.016C165.965 128.371 165.928 128.772 165.928 129.22C165.928 129.659 165.965 130.055 166.04 130.41C166.115 130.765 166.241 131.068 166.418 131.32C166.605 131.572 166.847 131.768 167.146 131.908C167.445 132.048 167.823 132.118 168.28 132.118ZM176.719 133.14C176.159 133.14 175.659 133.079 175.221 132.958C174.791 132.827 174.427 132.613 174.129 132.314C173.83 132.006 173.601 131.605 173.443 131.11C173.293 130.606 173.219 129.976 173.219 129.22C173.219 128.464 173.293 127.839 173.443 127.344C173.601 126.84 173.83 126.439 174.129 126.14C174.427 125.832 174.791 125.617 175.221 125.496C175.659 125.365 176.159 125.3 176.719 125.3C177.279 125.3 177.773 125.365 178.203 125.496C178.641 125.617 179.005 125.832 179.295 126.14C179.593 126.439 179.817 126.84 179.967 127.344C180.125 127.839 180.205 128.464 180.205 129.22C180.205 129.976 180.125 130.606 179.967 131.11C179.817 131.605 179.593 132.006 179.295 132.314C179.005 132.613 178.641 132.827 178.203 132.958C177.773 133.079 177.279 133.14 176.719 133.14ZM176.719 132.118C177.148 132.118 177.503 132.071 177.783 131.978C178.072 131.885 178.301 131.726 178.469 131.502C178.637 131.278 178.753 130.979 178.819 130.606C178.893 130.233 178.931 129.771 178.931 129.22C178.931 128.669 178.893 128.207 178.819 127.834C178.744 127.461 178.618 127.162 178.441 126.938C178.273 126.714 178.044 126.555 177.755 126.462C177.475 126.359 177.129 126.308 176.719 126.308C176.299 126.308 175.944 126.359 175.655 126.462C175.375 126.555 175.146 126.714 174.969 126.938C174.801 127.162 174.679 127.461 174.605 127.834C174.539 128.207 174.507 128.669 174.507 129.22C174.507 129.771 174.544 130.233 174.619 130.606C174.693 130.979 174.819 131.278 174.997 131.502C175.174 131.726 175.403 131.885 175.683 131.978C175.963 132.071 176.308 132.118 176.719 132.118ZM185.947 125.3C186.442 125.3 186.852 125.361 187.179 125.482C187.506 125.603 187.762 125.776 187.949 126C188.145 126.215 188.28 126.471 188.355 126.77C188.439 127.069 188.481 127.4 188.481 127.764V133H187.263V128.212C187.263 127.923 187.244 127.666 187.207 127.442C187.17 127.209 187.095 127.017 186.983 126.868C186.88 126.709 186.736 126.588 186.549 126.504C186.362 126.42 186.12 126.378 185.821 126.378C185.578 126.378 185.34 126.397 185.107 126.434C184.883 126.462 184.668 126.532 184.463 126.644C184.267 126.747 184.085 126.896 183.917 127.092C183.758 127.288 183.628 127.554 183.525 127.89V133H182.321V125.44H183.525V126.518C183.637 126.275 183.782 126.075 183.959 125.916C184.146 125.757 184.346 125.636 184.561 125.552C184.776 125.459 185 125.393 185.233 125.356C185.476 125.319 185.714 125.3 185.947 125.3ZM196.981 128.464C196.981 128.567 196.972 128.697 196.953 128.856C196.944 129.005 196.93 129.169 196.911 129.346L191.787 129.668C191.787 130.079 191.829 130.438 191.913 130.746C191.997 131.045 192.133 131.292 192.319 131.488C192.506 131.684 192.753 131.833 193.061 131.936C193.369 132.029 193.752 132.076 194.209 132.076C194.629 132.076 195.054 132.029 195.483 131.936C195.922 131.843 196.286 131.726 196.575 131.586V132.692C196.463 132.748 196.319 132.804 196.141 132.86C195.964 132.916 195.763 132.963 195.539 133C195.315 133.047 195.073 133.079 194.811 133.098C194.559 133.126 194.298 133.14 194.027 133.14C193.467 133.14 192.968 133.079 192.529 132.958C192.1 132.827 191.736 132.613 191.437 132.314C191.139 132.006 190.91 131.605 190.751 131.11C190.602 130.606 190.527 129.976 190.527 129.22C190.527 128.464 190.602 127.839 190.751 127.344C190.91 126.84 191.134 126.439 191.423 126.14C191.722 125.832 192.081 125.617 192.501 125.496C192.931 125.365 193.416 125.3 193.957 125.3C194.601 125.3 195.119 125.398 195.511 125.594C195.913 125.781 196.221 126.028 196.435 126.336C196.65 126.635 196.795 126.975 196.869 127.358C196.944 127.731 196.981 128.1 196.981 128.464ZM195.791 128.478C195.791 128.189 195.773 127.913 195.735 127.652C195.698 127.381 195.614 127.148 195.483 126.952C195.362 126.747 195.18 126.588 194.937 126.476C194.695 126.355 194.368 126.294 193.957 126.294C193.519 126.294 193.159 126.35 192.879 126.462C192.609 126.574 192.394 126.737 192.235 126.952C192.077 127.167 191.965 127.428 191.899 127.736C191.834 128.044 191.797 128.389 191.787 128.772L195.791 128.478ZM202.695 125.3C203.19 125.3 203.6 125.361 203.927 125.482C204.254 125.603 204.51 125.776 204.697 126C204.893 126.215 205.028 126.471 205.103 126.77C205.187 127.069 205.229 127.4 205.229 127.764V133H204.011V128.212C204.011 127.923 203.992 127.666 203.955 127.442C203.918 127.209 203.843 127.017 203.731 126.868C203.628 126.709 203.484 126.588 203.297 126.504C203.11 126.42 202.868 126.378 202.569 126.378C202.326 126.378 202.088 126.397 201.855 126.434C201.631 126.462 201.416 126.532 201.211 126.644C201.015 126.747 200.833 126.896 200.665 127.092C200.506 127.288 200.376 127.554 200.273 127.89V133H199.069V125.44H200.273V126.518C200.385 126.275 200.53 126.075 200.707 125.916C200.894 125.757 201.094 125.636 201.309 125.552C201.524 125.459 201.748 125.393 201.981 125.356C202.224 125.319 202.462 125.3 202.695 125.3ZM210.075 132.076C210.243 132.076 210.388 132.071 210.509 132.062C210.64 132.043 210.771 132.02 210.901 131.992V133.014C210.752 133.033 210.612 133.047 210.481 133.056C210.351 133.075 210.206 133.084 210.047 133.084C209.627 133.084 209.273 133.056 208.983 133C208.703 132.935 208.47 132.813 208.283 132.636C208.106 132.459 207.975 132.216 207.891 131.908C207.817 131.591 207.779 131.185 207.779 130.69V126.448H206.659V125.44H207.779V123.648H208.983V125.44H210.859V126.448H208.983V130.62C208.983 130.919 208.997 131.161 209.025 131.348C209.053 131.535 209.105 131.684 209.179 131.796C209.263 131.899 209.375 131.973 209.515 132.02C209.655 132.057 209.842 132.076 210.075 132.076Z" fill="white"/>
<rect x="239.5" y="190.5" width="237" height="51" stroke="white" stroke-dasharray="4 4"/>
<rect x="247.5" y="198.5" width="61" height="35" stroke="white"/>
<path d="M264.079 211.284V221H262.805V216.296H258.003V221H256.743V211.284H258.003V215.246H262.805V211.284H264.079ZM269.693 221.14C269.133 221.14 268.634 221.079 268.195 220.958C267.766 220.827 267.402 220.613 267.103 220.314C266.805 220.006 266.576 219.605 266.417 219.11C266.268 218.606 266.193 217.976 266.193 217.22C266.193 216.464 266.268 215.839 266.417 215.344C266.576 214.84 266.805 214.439 267.103 214.14C267.402 213.832 267.766 213.617 268.195 213.496C268.634 213.365 269.133 213.3 269.693 213.3C270.253 213.3 270.748 213.365 271.177 213.496C271.616 213.617 271.98 213.832 272.269 214.14C272.568 214.439 272.792 214.84 272.941 215.344C273.1 215.839 273.179 216.464 273.179 217.22C273.179 217.976 273.1 218.606 272.941 219.11C272.792 219.605 272.568 220.006 272.269 220.314C271.98 220.613 271.616 220.827 271.177 220.958C270.748 221.079 270.253 221.14 269.693 221.14ZM269.693 220.118C270.123 220.118 270.477 220.071 270.757 219.978C271.047 219.885 271.275 219.726 271.443 219.502C271.611 219.278 271.728 218.979 271.793 218.606C271.868 218.233 271.905 217.771 271.905 217.22C271.905 216.669 271.868 216.207 271.793 215.834C271.719 215.461 271.593 215.162 271.415 214.938C271.247 214.714 271.019 214.555 270.729 214.462C270.449 214.359 270.104 214.308 269.693 214.308C269.273 214.308 268.919 214.359 268.629 214.462C268.349 214.555 268.121 214.714 267.943 214.938C267.775 215.162 267.654 215.461 267.579 215.834C267.514 216.207 267.481 216.669 267.481 217.22C267.481 217.771 267.519 218.233 267.593 218.606C267.668 218.979 267.794 219.278 267.971 219.502C268.149 219.726 268.377 219.885 268.657 219.978C268.937 220.071 269.283 220.118 269.693 220.118ZM274.025 213.44H275.243L277.539 219.796H277.623L279.835 213.44H281.109L278.281 221H276.853L274.025 213.44ZM288.397 216.464C288.397 216.567 288.388 216.697 288.369 216.856C288.36 217.005 288.346 217.169 288.327 217.346L283.203 217.668C283.203 218.079 283.245 218.438 283.329 218.746C283.413 219.045 283.549 219.292 283.735 219.488C283.922 219.684 284.169 219.833 284.477 219.936C284.785 220.029 285.168 220.076 285.625 220.076C286.045 220.076 286.47 220.029 286.899 219.936C287.338 219.843 287.702 219.726 287.991 219.586V220.692C287.879 220.748 287.735 220.804 287.557 220.86C287.38 220.916 287.179 220.963 286.955 221C286.731 221.047 286.489 221.079 286.227 221.098C285.975 221.126 285.714 221.14 285.443 221.14C284.883 221.14 284.384 221.079 283.945 220.958C283.516 220.827 283.152 220.613 282.853 220.314C282.555 220.006 282.326 219.605 282.167 219.11C282.018 218.606 281.943 217.976 281.943 217.22C281.943 216.464 282.018 215.839 282.167 215.344C282.326 214.84 282.55 214.439 282.839 214.14C283.138 213.832 283.497 213.617 283.917 213.496C284.347 213.365 284.832 213.3 285.373 213.3C286.017 213.3 286.535 213.398 286.927 213.594C287.329 213.781 287.637 214.028 287.851 214.336C288.066 214.635 288.211 214.975 288.285 215.358C288.36 215.731 288.397 216.1 288.397 216.464ZM287.207 216.478C287.207 216.189 287.189 215.913 287.151 215.652C287.114 215.381 287.03 215.148 286.899 214.952C286.778 214.747 286.596 214.588 286.353 214.476C286.111 214.355 285.784 214.294 285.373 214.294C284.935 214.294 284.575 214.35 284.295 214.462C284.025 214.574 283.81 214.737 283.651 214.952C283.493 215.167 283.381 215.428 283.315 215.736C283.25 216.044 283.213 216.389 283.203 216.772L287.207 216.478ZM294.237 213.3L294.195 214.392H294.027C293.784 214.392 293.546 214.415 293.313 214.462C293.08 214.509 292.86 214.597 292.655 214.728C292.45 214.849 292.263 215.017 292.095 215.232C291.927 215.447 291.792 215.722 291.689 216.058V221H290.485V213.44H291.689V214.812C291.81 214.495 291.96 214.238 292.137 214.042C292.314 213.846 292.51 213.692 292.725 213.58C292.94 213.468 293.164 213.393 293.397 213.356C293.64 213.319 293.873 213.3 294.097 213.3H294.237ZM296.644 217.598C296.644 217.421 296.662 217.253 296.7 217.094C296.737 216.935 296.802 216.777 296.896 216.618C296.989 216.459 297.115 216.296 297.274 216.128C297.442 215.951 297.652 215.759 297.904 215.554C298.118 215.386 298.291 215.237 298.422 215.106C298.562 214.975 298.669 214.845 298.744 214.714C298.818 214.574 298.87 214.429 298.898 214.28C298.926 214.131 298.94 213.953 298.94 213.748C298.94 213.459 298.907 213.221 298.842 213.034C298.786 212.838 298.688 212.689 298.548 212.586C298.408 212.474 298.221 212.399 297.988 212.362C297.754 212.315 297.465 212.292 297.12 212.292C296.793 212.292 296.443 212.32 296.07 212.376C295.696 212.423 295.374 212.497 295.104 212.6V211.48C295.328 211.405 295.617 211.335 295.972 211.27C296.336 211.205 296.76 211.172 297.246 211.172C297.75 211.172 298.188 211.209 298.562 211.284C298.935 211.359 299.248 211.489 299.5 211.676C299.752 211.863 299.938 212.115 300.06 212.432C300.181 212.749 300.242 213.146 300.242 213.622C300.242 214.005 300.209 214.327 300.144 214.588C300.078 214.84 299.985 215.064 299.864 215.26C299.742 215.447 299.593 215.615 299.416 215.764C299.248 215.913 299.052 216.067 298.828 216.226C298.622 216.375 298.45 216.515 298.31 216.646C298.17 216.767 298.058 216.889 297.974 217.01C297.89 217.122 297.829 217.243 297.792 217.374C297.764 217.495 297.75 217.635 297.75 217.794V218.214H296.644V217.598ZM297.204 221.084C297.045 221.084 296.91 221.075 296.798 221.056C296.686 221.037 296.592 220.995 296.518 220.93C296.452 220.865 296.401 220.776 296.364 220.664C296.336 220.552 296.322 220.398 296.322 220.202C296.322 220.015 296.336 219.866 296.364 219.754C296.401 219.633 296.452 219.544 296.518 219.488C296.592 219.423 296.686 219.381 296.798 219.362C296.91 219.334 297.045 219.32 297.204 219.32C297.521 219.32 297.75 219.376 297.89 219.488C298.03 219.591 298.1 219.829 298.1 220.202C298.1 220.585 298.03 220.827 297.89 220.93C297.75 221.033 297.521 221.084 297.204 221.084Z" fill="white"/>
<rect x="313.5" y="198.5" width="73" height="35" stroke="white"/>
<path d="M322.338 211.284H325.04C325.721 211.284 326.29 211.345 326.748 211.466C327.205 211.587 327.569 211.774 327.84 212.026C328.12 212.278 328.316 212.6 328.428 212.992C328.54 213.384 328.596 213.851 328.596 214.392C328.596 214.961 328.526 215.447 328.386 215.848C328.255 216.249 328.045 216.576 327.756 216.828C327.476 217.08 327.107 217.267 326.65 217.388C326.202 217.5 325.665 217.556 325.04 217.556H323.598V221H322.338V211.284ZM324.928 216.506C325.376 216.506 325.754 216.473 326.062 216.408C326.37 216.343 326.612 216.231 326.79 216.072C326.976 215.904 327.107 215.685 327.182 215.414C327.266 215.143 327.308 214.803 327.308 214.392C327.308 214.019 327.266 213.706 327.182 213.454C327.107 213.193 326.976 212.983 326.79 212.824C326.612 212.665 326.37 212.553 326.062 212.488C325.754 212.413 325.376 212.376 324.928 212.376H323.598V216.506H324.928ZM334.429 213.3L334.387 214.392H334.219C333.977 214.392 333.739 214.415 333.505 214.462C333.272 214.509 333.053 214.597 332.847 214.728C332.642 214.849 332.455 215.017 332.287 215.232C332.119 215.447 331.984 215.722 331.881 216.058V221H330.677V213.44H331.881V214.812C332.003 214.495 332.152 214.238 332.329 214.042C332.507 213.846 332.703 213.692 332.917 213.58C333.132 213.468 333.356 213.393 333.589 213.356C333.832 213.319 334.065 213.3 334.289 213.3H334.429ZM341.728 216.464C341.728 216.567 341.719 216.697 341.7 216.856C341.691 217.005 341.677 217.169 341.658 217.346L336.534 217.668C336.534 218.079 336.576 218.438 336.66 218.746C336.744 219.045 336.88 219.292 337.066 219.488C337.253 219.684 337.5 219.833 337.808 219.936C338.116 220.029 338.499 220.076 338.956 220.076C339.376 220.076 339.801 220.029 340.23 219.936C340.669 219.843 341.033 219.726 341.322 219.586V220.692C341.21 220.748 341.066 220.804 340.888 220.86C340.711 220.916 340.51 220.963 340.286 221C340.062 221.047 339.82 221.079 339.558 221.098C339.306 221.126 339.045 221.14 338.774 221.14C338.214 221.14 337.715 221.079 337.276 220.958C336.847 220.827 336.483 220.613 336.184 220.314C335.886 220.006 335.657 219.605 335.498 219.11C335.349 218.606 335.274 217.976 335.274 217.22C335.274 216.464 335.349 215.839 335.498 215.344C335.657 214.84 335.881 214.439 336.17 214.14C336.469 213.832 336.828 213.617 337.248 213.496C337.678 213.365 338.163 213.3 338.704 213.3C339.348 213.3 339.866 213.398 340.258 213.594C340.66 213.781 340.968 214.028 341.182 214.336C341.397 214.635 341.542 214.975 341.616 215.358C341.691 215.731 341.728 216.1 341.728 216.464ZM340.538 216.478C340.538 216.189 340.52 215.913 340.482 215.652C340.445 215.381 340.361 215.148 340.23 214.952C340.109 214.747 339.927 214.588 339.684 214.476C339.442 214.355 339.115 214.294 338.704 214.294C338.266 214.294 337.906 214.35 337.626 214.462C337.356 214.574 337.141 214.737 336.982 214.952C336.824 215.167 336.712 215.428 336.646 215.736C336.581 216.044 336.544 216.389 336.534 216.772L340.538 216.478ZM345.566 221.084C345.379 221.084 345.179 221.075 344.964 221.056C344.759 221.047 344.553 221.033 344.348 221.014C344.143 220.995 343.951 220.972 343.774 220.944C343.606 220.907 343.471 220.874 343.368 220.846V219.81C343.499 219.847 343.653 219.885 343.83 219.922C344.017 219.959 344.208 219.992 344.404 220.02C344.6 220.048 344.796 220.071 344.992 220.09C345.197 220.099 345.384 220.104 345.552 220.104C346.131 220.104 346.565 220.025 346.854 219.866C347.153 219.698 347.302 219.39 347.302 218.942C347.302 218.718 347.279 218.536 347.232 218.396C347.195 218.247 347.115 218.125 346.994 218.032C346.873 217.929 346.7 217.841 346.476 217.766C346.261 217.691 345.972 217.612 345.608 217.528C345.188 217.435 344.843 217.327 344.572 217.206C344.301 217.085 344.087 216.94 343.928 216.772C343.769 216.604 343.657 216.403 343.592 216.17C343.527 215.937 343.494 215.661 343.494 215.344C343.494 214.728 343.718 214.233 344.166 213.86C344.623 213.487 345.305 213.3 346.21 213.3C346.574 213.3 346.933 213.323 347.288 213.37C347.652 213.417 347.927 213.477 348.114 213.552L348.03 214.574C347.815 214.49 347.549 214.42 347.232 214.364C346.915 214.308 346.579 214.28 346.224 214.28C345.692 214.28 345.291 214.355 345.02 214.504C344.759 214.653 344.628 214.943 344.628 215.372C344.628 215.568 344.647 215.727 344.684 215.848C344.731 215.969 344.805 216.077 344.908 216.17C345.011 216.254 345.155 216.329 345.342 216.394C345.529 216.45 345.771 216.511 346.07 216.576C346.499 216.679 346.863 216.791 347.162 216.912C347.47 217.024 347.717 217.169 347.904 217.346C348.091 217.514 348.226 217.724 348.31 217.976C348.394 218.228 348.436 218.536 348.436 218.9C348.436 219.656 348.189 220.211 347.694 220.566C347.209 220.911 346.499 221.084 345.566 221.084ZM352.265 221.084C352.079 221.084 351.878 221.075 351.663 221.056C351.458 221.047 351.253 221.033 351.047 221.014C350.842 220.995 350.651 220.972 350.473 220.944C350.305 220.907 350.17 220.874 350.067 220.846V219.81C350.198 219.847 350.352 219.885 350.529 219.922C350.716 219.959 350.907 219.992 351.103 220.02C351.299 220.048 351.495 220.071 351.691 220.09C351.897 220.099 352.083 220.104 352.251 220.104C352.83 220.104 353.264 220.025 353.553 219.866C353.852 219.698 354.001 219.39 354.001 218.942C354.001 218.718 353.978 218.536 353.931 218.396C353.894 218.247 353.815 218.125 353.693 218.032C353.572 217.929 353.399 217.841 353.175 217.766C352.961 217.691 352.671 217.612 352.307 217.528C351.887 217.435 351.542 217.327 351.271 217.206C351.001 217.085 350.786 216.94 350.627 216.772C350.469 216.604 350.357 216.403 350.291 216.17C350.226 215.937 350.193 215.661 350.193 215.344C350.193 214.728 350.417 214.233 350.865 213.86C351.323 213.487 352.004 213.3 352.909 213.3C353.273 213.3 353.633 213.323 353.987 213.37C354.351 213.417 354.627 213.477 354.813 213.552L354.729 214.574C354.515 214.49 354.249 214.42 353.931 214.364C353.614 214.308 353.278 214.28 352.923 214.28C352.391 214.28 351.99 214.355 351.719 214.504C351.458 214.653 351.327 214.943 351.327 215.372C351.327 215.568 351.346 215.727 351.383 215.848C351.43 215.969 351.505 216.077 351.607 216.17C351.71 216.254 351.855 216.329 352.041 216.394C352.228 216.45 352.471 216.511 352.769 216.576C353.199 216.679 353.563 216.791 353.861 216.912C354.169 217.024 354.417 217.169 354.603 217.346C354.79 217.514 354.925 217.724 355.009 217.976C355.093 218.228 355.135 218.536 355.135 218.9C355.135 219.656 354.888 220.211 354.393 220.566C353.908 220.911 353.199 221.084 352.265 221.084ZM363.22 216.464C363.22 216.567 363.211 216.697 363.192 216.856C363.183 217.005 363.169 217.169 363.15 217.346L358.026 217.668C358.026 218.079 358.068 218.438 358.152 218.746C358.236 219.045 358.372 219.292 358.558 219.488C358.745 219.684 358.992 219.833 359.3 219.936C359.608 220.029 359.991 220.076 360.448 220.076C360.868 220.076 361.293 220.029 361.722 219.936C362.161 219.843 362.525 219.726 362.814 219.586V220.692C362.702 220.748 362.558 220.804 362.38 220.86C362.203 220.916 362.002 220.963 361.778 221C361.554 221.047 361.312 221.079 361.05 221.098C360.798 221.126 360.537 221.14 360.266 221.14C359.706 221.14 359.207 221.079 358.768 220.958C358.339 220.827 357.975 220.613 357.676 220.314C357.378 220.006 357.149 219.605 356.99 219.11C356.841 218.606 356.766 217.976 356.766 217.22C356.766 216.464 356.841 215.839 356.99 215.344C357.149 214.84 357.373 214.439 357.662 214.14C357.961 213.832 358.32 213.617 358.74 213.496C359.17 213.365 359.655 213.3 360.196 213.3C360.84 213.3 361.358 213.398 361.75 213.594C362.152 213.781 362.46 214.028 362.674 214.336C362.889 214.635 363.034 214.975 363.108 215.358C363.183 215.731 363.22 216.1 363.22 216.464ZM362.03 216.478C362.03 216.189 362.012 215.913 361.974 215.652C361.937 215.381 361.853 215.148 361.722 214.952C361.601 214.747 361.419 214.588 361.176 214.476C360.934 214.355 360.607 214.294 360.196 214.294C359.758 214.294 359.398 214.35 359.118 214.462C358.848 214.574 358.633 214.737 358.474 214.952C358.316 215.167 358.204 215.428 358.138 215.736C358.073 216.044 358.036 216.389 358.026 216.772L362.03 216.478ZM371.664 210.36V221H370.642L370.46 219.754C370.311 220.155 370.036 220.487 369.634 220.748C369.233 221.009 368.687 221.14 367.996 221.14C367.371 221.14 366.853 221.047 366.442 220.86C366.041 220.664 365.724 220.393 365.49 220.048C365.257 219.703 365.094 219.292 365 218.816C364.916 218.331 364.874 217.799 364.874 217.22C364.874 216.707 364.916 216.212 365 215.736C365.094 215.26 365.257 214.845 365.49 214.49C365.724 214.126 366.041 213.837 366.442 213.622C366.853 213.407 367.371 213.3 367.996 213.3C368.37 213.3 368.692 213.337 368.962 213.412C369.233 213.477 369.466 213.575 369.662 213.706C369.858 213.827 370.022 213.977 370.152 214.154C370.283 214.331 370.386 214.532 370.46 214.756V210.36H371.664ZM368.178 220.118C368.636 220.118 369.014 220.053 369.312 219.922C369.611 219.791 369.849 219.6 370.026 219.348C370.204 219.096 370.325 218.793 370.39 218.438C370.465 218.074 370.502 217.668 370.502 217.22C370.502 216.791 370.465 216.399 370.39 216.044C370.325 215.68 370.204 215.372 370.026 215.12C369.849 214.859 369.611 214.658 369.312 214.518C369.014 214.378 368.636 214.308 368.178 214.308C367.721 214.308 367.357 214.392 367.086 214.56C366.825 214.719 366.624 214.938 366.484 215.218C366.344 215.489 366.256 215.801 366.218 216.156C366.181 216.501 366.162 216.856 366.162 217.22C366.162 217.612 366.181 217.985 366.218 218.34C366.265 218.695 366.358 219.003 366.498 219.264C366.638 219.525 366.839 219.735 367.1 219.894C367.371 220.043 367.73 220.118 368.178 220.118ZM375.049 217.598C375.049 217.421 375.068 217.253 375.105 217.094C375.142 216.935 375.208 216.777 375.301 216.618C375.394 216.459 375.52 216.296 375.679 216.128C375.847 215.951 376.057 215.759 376.309 215.554C376.524 215.386 376.696 215.237 376.827 215.106C376.967 214.975 377.074 214.845 377.149 214.714C377.224 214.574 377.275 214.429 377.303 214.28C377.331 214.131 377.345 213.953 377.345 213.748C377.345 213.459 377.312 213.221 377.247 213.034C377.191 212.838 377.093 212.689 376.953 212.586C376.813 212.474 376.626 212.399 376.393 212.362C376.16 212.315 375.87 212.292 375.525 212.292C375.198 212.292 374.848 212.32 374.475 212.376C374.102 212.423 373.78 212.497 373.509 212.6V211.48C373.733 211.405 374.022 211.335 374.377 211.27C374.741 211.205 375.166 211.172 375.651 211.172C376.155 211.172 376.594 211.209 376.967 211.284C377.34 211.359 377.653 211.489 377.905 211.676C378.157 211.863 378.344 212.115 378.465 212.432C378.586 212.749 378.647 213.146 378.647 213.622C378.647 214.005 378.614 214.327 378.549 214.588C378.484 214.84 378.39 215.064 378.269 215.26C378.148 215.447 377.998 215.615 377.821 215.764C377.653 215.913 377.457 216.067 377.233 216.226C377.028 216.375 376.855 216.515 376.715 216.646C376.575 216.767 376.463 216.889 376.379 217.01C376.295 217.122 376.234 217.243 376.197 217.374C376.169 217.495 376.155 217.635 376.155 217.794V218.214H375.049V217.598ZM375.609 221.084C375.45 221.084 375.315 221.075 375.203 221.056C375.091 221.037 374.998 220.995 374.923 220.93C374.858 220.865 374.806 220.776 374.769 220.664C374.741 220.552 374.727 220.398 374.727 220.202C374.727 220.015 374.741 219.866 374.769 219.754C374.806 219.633 374.858 219.544 374.923 219.488C374.998 219.423 375.091 219.381 375.203 219.362C375.315 219.334 375.45 219.32 375.609 219.32C375.926 219.32 376.155 219.376 376.295 219.488C376.435 219.591 376.505 219.829 376.505 220.202C376.505 220.585 376.435 220.827 376.295 220.93C376.155 221.033 375.926 221.084 375.609 221.084Z" fill="white"/>
<rect x="391.5" y="198.5" width="77" height="35" stroke="white"/>
<path d="M401.902 212.404V215.554H405.766V216.674H401.902V221H400.642V211.284H406.046V212.404H401.902ZM411.063 221.14C410.503 221.14 410.004 221.079 409.565 220.958C409.136 220.827 408.772 220.613 408.473 220.314C408.175 220.006 407.946 219.605 407.787 219.11C407.638 218.606 407.563 217.976 407.563 217.22C407.563 216.464 407.638 215.839 407.787 215.344C407.946 214.84 408.175 214.439 408.473 214.14C408.772 213.832 409.136 213.617 409.565 213.496C410.004 213.365 410.503 213.3 411.063 213.3C411.623 213.3 412.118 213.365 412.547 213.496C412.986 213.617 413.35 213.832 413.639 214.14C413.938 214.439 414.162 214.84 414.311 215.344C414.47 215.839 414.549 216.464 414.549 217.22C414.549 217.976 414.47 218.606 414.311 219.11C414.162 219.605 413.938 220.006 413.639 220.314C413.35 220.613 412.986 220.827 412.547 220.958C412.118 221.079 411.623 221.14 411.063 221.14ZM411.063 220.118C411.493 220.118 411.847 220.071 412.127 219.978C412.417 219.885 412.645 219.726 412.813 219.502C412.981 219.278 413.098 218.979 413.163 218.606C413.238 218.233 413.275 217.771 413.275 217.22C413.275 216.669 413.238 216.207 413.163 215.834C413.089 215.461 412.963 215.162 412.785 214.938C412.617 214.714 412.389 214.555 412.099 214.462C411.819 214.359 411.474 214.308 411.063 214.308C410.643 214.308 410.289 214.359 409.999 214.462C409.719 214.555 409.491 214.714 409.313 214.938C409.145 215.162 409.024 215.461 408.949 215.834C408.884 216.207 408.851 216.669 408.851 217.22C408.851 217.771 408.889 218.233 408.963 218.606C409.038 218.979 409.164 219.278 409.341 219.502C409.519 219.726 409.747 219.885 410.027 219.978C410.307 220.071 410.653 220.118 411.063 220.118ZM419.718 221.14C419.158 221.14 418.658 221.079 418.22 220.958C417.79 220.827 417.426 220.613 417.128 220.314C416.829 220.006 416.6 219.605 416.442 219.11C416.292 218.606 416.218 217.976 416.218 217.22C416.218 216.464 416.292 215.839 416.442 215.344C416.6 214.84 416.829 214.439 417.128 214.14C417.426 213.832 417.79 213.617 418.22 213.496C418.658 213.365 419.158 213.3 419.718 213.3C420.138 213.3 420.516 213.328 420.852 213.384C421.197 213.44 421.477 213.505 421.692 213.58V214.686C421.412 214.583 421.113 214.504 420.796 214.448C420.478 214.383 420.124 214.35 419.732 214.35C419.312 214.35 418.962 214.397 418.682 214.49C418.402 214.583 418.173 214.742 417.996 214.966C417.818 215.181 417.692 215.475 417.618 215.848C417.543 216.212 417.506 216.674 417.506 217.234C417.506 217.785 417.543 218.242 417.618 218.606C417.692 218.97 417.818 219.264 417.996 219.488C418.173 219.703 418.402 219.857 418.682 219.95C418.971 220.034 419.326 220.076 419.746 220.076C420.1 220.076 420.45 220.053 420.796 220.006C421.141 219.95 421.449 219.866 421.72 219.754V220.86C421.617 220.897 421.486 220.935 421.328 220.972C421.178 221 421.01 221.028 420.824 221.056C420.646 221.084 420.46 221.103 420.264 221.112C420.077 221.131 419.895 221.14 419.718 221.14ZM429.659 213.44V221H428.637L428.483 219.908C428.371 220.16 428.226 220.365 428.049 220.524C427.871 220.683 427.675 220.809 427.461 220.902C427.255 220.986 427.036 221.047 426.803 221.084C426.569 221.121 426.336 221.14 426.103 221.14C425.608 221.14 425.197 221.079 424.871 220.958C424.544 220.837 424.283 220.669 424.087 220.454C423.9 220.239 423.765 219.983 423.681 219.684C423.606 219.376 423.569 219.04 423.569 218.676V213.44H424.773V218.228C424.773 218.517 424.791 218.779 424.829 219.012C424.866 219.236 424.936 219.427 425.039 219.586C425.151 219.745 425.3 219.866 425.487 219.95C425.683 220.034 425.93 220.076 426.229 220.076C426.462 220.076 426.691 220.062 426.915 220.034C427.139 219.997 427.344 219.927 427.531 219.824C427.727 219.712 427.899 219.558 428.049 219.362C428.207 219.166 428.343 218.905 428.455 218.578V213.44H429.659ZM433.961 221.084C433.774 221.084 433.573 221.075 433.359 221.056C433.153 221.047 432.948 221.033 432.743 221.014C432.537 220.995 432.346 220.972 432.169 220.944C432.001 220.907 431.865 220.874 431.763 220.846V219.81C431.893 219.847 432.047 219.885 432.225 219.922C432.411 219.959 432.603 219.992 432.799 220.02C432.995 220.048 433.191 220.071 433.387 220.09C433.592 220.099 433.779 220.104 433.947 220.104C434.525 220.104 434.959 220.025 435.249 219.866C435.547 219.698 435.697 219.39 435.697 218.942C435.697 218.718 435.673 218.536 435.627 218.396C435.589 218.247 435.51 218.125 435.389 218.032C435.267 217.929 435.095 217.841 434.871 217.766C434.656 217.691 434.367 217.612 434.003 217.528C433.583 217.435 433.237 217.327 432.967 217.206C432.696 217.085 432.481 216.94 432.323 216.772C432.164 216.604 432.052 216.403 431.987 216.17C431.921 215.937 431.889 215.661 431.889 215.344C431.889 214.728 432.113 214.233 432.561 213.86C433.018 213.487 433.699 213.3 434.605 213.3C434.969 213.3 435.328 213.323 435.683 213.37C436.047 213.417 436.322 213.477 436.509 213.552L436.425 214.574C436.21 214.49 435.944 214.42 435.627 214.364C435.309 214.308 434.973 214.28 434.619 214.28C434.087 214.28 433.685 214.355 433.415 214.504C433.153 214.653 433.023 214.943 433.023 215.372C433.023 215.568 433.041 215.727 433.079 215.848C433.125 215.969 433.2 216.077 433.303 216.17C433.405 216.254 433.55 216.329 433.737 216.394C433.923 216.45 434.166 216.511 434.465 216.576C434.894 216.679 435.258 216.791 435.557 216.912C435.865 217.024 436.112 217.169 436.299 217.346C436.485 217.514 436.621 217.724 436.705 217.976C436.789 218.228 436.831 218.536 436.831 218.9C436.831 219.656 436.583 220.211 436.089 220.566C435.603 220.911 434.894 221.084 433.961 221.084ZM444.916 216.464C444.916 216.567 444.906 216.697 444.888 216.856C444.878 217.005 444.864 217.169 444.846 217.346L439.722 217.668C439.722 218.079 439.764 218.438 439.848 218.746C439.932 219.045 440.067 219.292 440.254 219.488C440.44 219.684 440.688 219.833 440.996 219.936C441.304 220.029 441.686 220.076 442.144 220.076C442.564 220.076 442.988 220.029 443.418 219.936C443.856 219.843 444.22 219.726 444.51 219.586V220.692C444.398 220.748 444.253 220.804 444.076 220.86C443.898 220.916 443.698 220.963 443.474 221C443.25 221.047 443.007 221.079 442.746 221.098C442.494 221.126 442.232 221.14 441.962 221.14C441.402 221.14 440.902 221.079 440.464 220.958C440.034 220.827 439.67 220.613 439.372 220.314C439.073 220.006 438.844 219.605 438.686 219.11C438.536 218.606 438.462 217.976 438.462 217.22C438.462 216.464 438.536 215.839 438.686 215.344C438.844 214.84 439.068 214.439 439.358 214.14C439.656 213.832 440.016 213.617 440.436 213.496C440.865 213.365 441.35 213.3 441.892 213.3C442.536 213.3 443.054 213.398 443.446 213.594C443.847 213.781 444.155 214.028 444.37 214.336C444.584 214.635 444.729 214.975 444.804 215.358C444.878 215.731 444.916 216.1 444.916 216.464ZM443.726 216.478C443.726 216.189 443.707 215.913 443.67 215.652C443.632 215.381 443.548 215.148 443.418 214.952C443.296 214.747 443.114 214.588 442.872 214.476C442.629 214.355 442.302 214.294 441.892 214.294C441.453 214.294 441.094 214.35 440.814 214.462C440.543 214.574 440.328 214.737 440.17 214.952C440.011 215.167 439.899 215.428 439.834 215.736C439.768 216.044 439.731 216.389 439.722 216.772L443.726 216.478ZM453.359 210.36V221H452.337L452.155 219.754C452.006 220.155 451.731 220.487 451.329 220.748C450.928 221.009 450.382 221.14 449.691 221.14C449.066 221.14 448.548 221.047 448.137 220.86C447.736 220.664 447.419 220.393 447.185 220.048C446.952 219.703 446.789 219.292 446.695 218.816C446.611 218.331 446.569 217.799 446.569 217.22C446.569 216.707 446.611 216.212 446.695 215.736C446.789 215.26 446.952 214.845 447.185 214.49C447.419 214.126 447.736 213.837 448.137 213.622C448.548 213.407 449.066 213.3 449.691 213.3C450.065 213.3 450.387 213.337 450.657 213.412C450.928 213.477 451.161 213.575 451.357 213.706C451.553 213.827 451.717 213.977 451.847 214.154C451.978 214.331 452.081 214.532 452.155 214.756V210.36H453.359ZM449.873 220.118C450.331 220.118 450.709 220.053 451.007 219.922C451.306 219.791 451.544 219.6 451.721 219.348C451.899 219.096 452.02 218.793 452.085 218.438C452.16 218.074 452.197 217.668 452.197 217.22C452.197 216.791 452.16 216.399 452.085 216.044C452.02 215.68 451.899 215.372 451.721 215.12C451.544 214.859 451.306 214.658 451.007 214.518C450.709 214.378 450.331 214.308 449.873 214.308C449.416 214.308 449.052 214.392 448.781 214.56C448.52 214.719 448.319 214.938 448.179 215.218C448.039 215.489 447.951 215.801 447.913 216.156C447.876 216.501 447.857 216.856 447.857 217.22C447.857 217.612 447.876 217.985 447.913 218.34C447.96 218.695 448.053 219.003 448.193 219.264C448.333 219.525 448.534 219.735 448.795 219.894C449.066 220.043 449.425 220.118 449.873 220.118ZM456.744 217.598C456.744 217.421 456.763 217.253 456.8 217.094C456.838 216.935 456.903 216.777 456.996 216.618C457.09 216.459 457.216 216.296 457.374 216.128C457.542 215.951 457.752 215.759 458.004 215.554C458.219 215.386 458.392 215.237 458.522 215.106C458.662 214.975 458.77 214.845 458.844 214.714C458.919 214.574 458.97 214.429 458.998 214.28C459.026 214.131 459.04 213.953 459.04 213.748C459.04 213.459 459.008 213.221 458.942 213.034C458.886 212.838 458.788 212.689 458.648 212.586C458.508 212.474 458.322 212.399 458.088 212.362C457.855 212.315 457.566 212.292 457.22 212.292C456.894 212.292 456.544 212.32 456.17 212.376C455.797 212.423 455.475 212.497 455.204 212.6V211.48C455.428 211.405 455.718 211.335 456.072 211.27C456.436 211.205 456.861 211.172 457.346 211.172C457.85 211.172 458.289 211.209 458.662 211.284C459.036 211.359 459.348 211.489 459.6 211.676C459.852 211.863 460.039 212.115 460.16 212.432C460.282 212.749 460.342 213.146 460.342 213.622C460.342 214.005 460.31 214.327 460.244 214.588C460.179 214.84 460.086 215.064 459.964 215.26C459.843 215.447 459.694 215.615 459.516 215.764C459.348 215.913 459.152 216.067 458.928 216.226C458.723 216.375 458.55 216.515 458.41 216.646C458.27 216.767 458.158 216.889 458.074 217.01C457.99 217.122 457.93 217.243 457.892 217.374C457.864 217.495 457.85 217.635 457.85 217.794V218.214H456.744V217.598ZM457.304 221.084C457.146 221.084 457.01 221.075 456.898 221.056C456.786 221.037 456.693 220.995 456.618 220.93C456.553 220.865 456.502 220.776 456.464 220.664C456.436 220.552 456.422 220.398 456.422 220.202C456.422 220.015 456.436 219.866 456.464 219.754C456.502 219.633 456.553 219.544 456.618 219.488C456.693 219.423 456.786 219.381 456.898 219.362C457.01 219.334 457.146 219.32 457.304 219.32C457.622 219.32 457.85 219.376 457.99 219.488C458.13 219.591 458.2 219.829 458.2 220.202C458.2 220.585 458.13 220.827 457.99 220.93C457.85 221.033 457.622 221.084 457.304 221.084Z" fill="white"/>
<rect x="487.5" y="54.5" width="199" height="99" stroke="white"/>
<path d="M499.051 77.14C498.752 77.14 498.454 77.126 498.155 77.098C497.866 77.0793 497.59 77.0513 497.329 77.014C497.077 76.9767 496.848 76.9393 496.643 76.902C496.447 76.8553 496.288 76.8087 496.167 76.762V75.6C496.307 75.656 496.484 75.712 496.699 75.768C496.914 75.8147 497.147 75.8613 497.399 75.908C497.651 75.9453 497.917 75.978 498.197 76.006C498.477 76.0247 498.762 76.034 499.051 76.034C499.779 76.034 500.33 75.9127 500.703 75.67C501.076 75.4273 501.263 75.0027 501.263 74.396C501.263 74.0973 501.23 73.85 501.165 73.654C501.109 73.4487 500.997 73.276 500.829 73.136C500.661 72.996 500.432 72.8747 500.143 72.772C499.854 72.6693 499.48 72.562 499.023 72.45C498.528 72.3287 498.108 72.2027 497.763 72.072C497.418 71.9413 497.138 71.778 496.923 71.582C496.708 71.3767 496.55 71.1293 496.447 70.84C496.354 70.5507 496.307 70.1913 496.307 69.762C496.307 68.8753 496.568 68.2173 497.091 67.788C497.623 67.3493 498.44 67.13 499.541 67.13C499.774 67.13 500.008 67.1393 500.241 67.158C500.484 67.1767 500.712 67.2047 500.927 67.242C501.151 67.27 501.352 67.3073 501.529 67.354C501.716 67.3913 501.865 67.4333 501.977 67.48V68.628C501.697 68.5253 501.333 68.4367 500.885 68.362C500.437 68.278 499.994 68.236 499.555 68.236C499.219 68.236 498.925 68.2593 498.673 68.306C498.421 68.3433 498.211 68.418 498.043 68.53C497.875 68.642 497.749 68.796 497.665 68.992C497.59 69.188 497.553 69.4447 497.553 69.762C497.553 69.986 497.572 70.182 497.609 70.35C497.656 70.5087 497.749 70.6487 497.889 70.77C498.029 70.8913 498.23 71.0033 498.491 71.106C498.752 71.1993 499.102 71.2973 499.541 71.4C500.082 71.5307 500.54 71.6707 500.913 71.82C501.296 71.96 501.604 72.142 501.837 72.366C502.07 72.59 502.238 72.8653 502.341 73.192C502.444 73.5093 502.495 73.906 502.495 74.382C502.495 75.334 502.201 76.034 501.613 76.482C501.034 76.9207 500.18 77.14 499.051 77.14ZM506.911 76.076C507.079 76.076 507.224 76.0713 507.345 76.062C507.476 76.0433 507.606 76.02 507.737 75.992V77.014C507.588 77.0327 507.448 77.0467 507.317 77.056C507.186 77.0747 507.042 77.084 506.883 77.084C506.463 77.084 506.108 77.056 505.819 77C505.539 76.9347 505.306 76.8133 505.119 76.636C504.942 76.4587 504.811 76.216 504.727 75.908C504.652 75.5907 504.615 75.1847 504.615 74.69V70.448H503.495V69.44H504.615V67.648H505.819V69.44H507.695V70.448H505.819V74.62C505.819 74.9187 505.833 75.1613 505.861 75.348C505.889 75.5347 505.94 75.684 506.015 75.796C506.099 75.8987 506.211 75.9733 506.351 76.02C506.491 76.0573 506.678 76.076 506.911 76.076ZM515.282 72.464C515.282 72.5667 515.273 72.6973 515.254 72.856C515.245 73.0053 515.231 73.1687 515.212 73.346L510.088 73.668C510.088 74.0787 510.13 74.438 510.214 74.746C510.298 75.0447 510.433 75.292 510.62 75.488C510.807 75.684 511.054 75.8333 511.362 75.936C511.67 76.0293 512.053 76.076 512.51 76.076C512.93 76.076 513.355 76.0293 513.784 75.936C514.223 75.8427 514.587 75.726 514.876 75.586V76.692C514.764 76.748 514.619 76.804 514.442 76.86C514.265 76.916 514.064 76.9627 513.84 77C513.616 77.0467 513.373 77.0793 513.112 77.098C512.86 77.126 512.599 77.14 512.328 77.14C511.768 77.14 511.269 77.0793 510.83 76.958C510.401 76.8273 510.037 76.6127 509.738 76.314C509.439 76.006 509.211 75.6047 509.052 75.11C508.903 74.606 508.828 73.976 508.828 73.22C508.828 72.464 508.903 71.8387 509.052 71.344C509.211 70.84 509.435 70.4387 509.724 70.14C510.023 69.832 510.382 69.6173 510.802 69.496C511.231 69.3653 511.717 69.3 512.258 69.3C512.902 69.3 513.42 69.398 513.812 69.594C514.213 69.7807 514.521 70.028 514.736 70.336C514.951 70.6347 515.095 70.9753 515.17 71.358C515.245 71.7313 515.282 72.1 515.282 72.464ZM514.092 72.478C514.092 72.1887 514.073 71.9133 514.036 71.652C513.999 71.3813 513.915 71.148 513.784 70.952C513.663 70.7467 513.481 70.588 513.238 70.476C512.995 70.3547 512.669 70.294 512.258 70.294C511.819 70.294 511.46 70.35 511.18 70.462C510.909 70.574 510.695 70.7373 510.536 70.952C510.377 71.1667 510.265 71.428 510.2 71.736C510.135 72.044 510.097 72.3893 510.088 72.772L514.092 72.478ZM521.024 69.3C521.658 69.3 522.176 69.398 522.578 69.594C522.988 69.7807 523.306 70.0467 523.53 70.392C523.763 70.7373 523.922 71.1527 524.006 71.638C524.099 72.114 524.146 72.6413 524.146 73.22C524.146 73.7427 524.099 74.242 524.006 74.718C523.922 75.1847 523.763 75.6 523.53 75.964C523.306 76.3187 522.988 76.6033 522.578 76.818C522.176 77.0327 521.658 77.14 521.024 77.14C520.286 77.14 519.731 77.0093 519.358 76.748C518.994 76.4867 518.732 76.132 518.574 75.684V79.8H517.37V69.44H518.574V70.798C518.732 70.35 518.998 69.9907 519.372 69.72C519.745 69.44 520.296 69.3 521.024 69.3ZM520.87 76.118C521.318 76.118 521.672 76.0387 521.934 75.88C522.204 75.712 522.41 75.4927 522.55 75.222C522.69 74.9513 522.778 74.6433 522.816 74.298C522.862 73.9433 522.886 73.584 522.886 73.22C522.886 72.8187 522.862 72.4453 522.816 72.1C522.769 71.7453 522.676 71.4373 522.536 71.176C522.396 70.9053 522.19 70.6953 521.92 70.546C521.658 70.3873 521.308 70.308 520.87 70.308C520.412 70.308 520.034 70.378 519.736 70.518C519.437 70.6487 519.194 70.84 519.008 71.092C518.83 71.344 518.704 71.652 518.63 72.016C518.555 72.3707 518.518 72.772 518.518 73.22C518.518 73.6587 518.555 74.0553 518.63 74.41C518.704 74.7647 518.83 75.068 519.008 75.32C519.194 75.572 519.437 75.768 519.736 75.908C520.034 76.048 520.412 76.118 520.87 76.118ZM529.376 75.67C530.412 74.858 531.243 74.1673 531.868 73.598C532.493 73.0287 532.979 72.5293 533.324 72.1C533.669 71.6707 533.898 71.288 534.01 70.952C534.122 70.6067 534.178 70.2613 534.178 69.916C534.178 69.5707 534.113 69.286 533.982 69.062C533.861 68.838 533.702 68.6607 533.506 68.53C533.31 68.3993 533.086 68.3107 532.834 68.264C532.591 68.2173 532.353 68.194 532.12 68.194C531.812 68.194 531.485 68.2127 531.14 68.25C530.795 68.278 530.431 68.3433 530.048 68.446V67.368C530.375 67.2933 530.72 67.2373 531.084 67.2C531.457 67.1627 531.849 67.144 532.26 67.144C532.736 67.144 533.165 67.1953 533.548 67.298C533.931 67.4007 534.257 67.564 534.528 67.788C534.808 68.012 535.018 68.3013 535.158 68.656C535.307 69.0107 535.382 69.4353 535.382 69.93C535.382 70.3687 535.317 70.784 535.186 71.176C535.055 71.5587 534.836 71.96 534.528 72.38C534.22 72.7907 533.805 73.2387 533.282 73.724C532.759 74.2 532.106 74.7507 531.322 75.376L530.762 75.81V75.936H535.774V77H529.376V75.67Z" fill="white"/>
<path d="M233 103.5C232.724 103.5 232.5 103.724 232.5 104C232.5 104.276 232.724 104.5 233 104.5V103.5ZM483.354 104.354C483.549 104.158 483.549 103.842 483.354 103.646L480.172 100.464C479.976 100.269 479.66 100.269 479.464 100.464C479.269 100.66 479.269 100.976 479.464 101.172L482.293 104L479.464 106.828C479.269 107.024 479.269 107.34 479.464 107.536C479.66 107.731 479.976 107.731 480.172 107.536L483.354 104.354ZM233 104.5H331.105V103.5H233V104.5ZM382.105 104.5H483V103.5H382.105V104.5Z" fill="white"/>
<path d="M344.26 110.176C343.415 110.176 342.688 109.985 342.078 109.602C341.472 109.216 341.006 108.684 340.68 108.006C340.355 107.328 340.192 106.551 340.192 105.676C340.192 104.79 340.359 104.008 340.692 103.33C341.025 102.648 341.495 102.116 342.101 101.733C342.707 101.35 343.421 101.159 344.243 101.159C344.906 101.159 345.497 101.282 346.016 101.528C346.535 101.771 346.953 102.112 347.271 102.551C347.593 102.991 347.785 103.504 347.845 104.091H346.192C346.101 103.682 345.893 103.33 345.567 103.034C345.245 102.739 344.813 102.591 344.271 102.591C343.798 102.591 343.383 102.716 343.027 102.966C342.675 103.212 342.4 103.564 342.203 104.023C342.006 104.477 341.908 105.015 341.908 105.636C341.908 106.273 342.004 106.822 342.198 107.284C342.391 107.746 342.663 108.104 343.016 108.358C343.372 108.612 343.79 108.739 344.271 108.739C344.593 108.739 344.885 108.68 345.146 108.562C345.412 108.441 345.633 108.269 345.811 108.045C345.993 107.822 346.12 107.553 346.192 107.239H347.845C347.785 107.803 347.601 108.307 347.294 108.75C346.987 109.193 346.576 109.542 346.061 109.795C345.55 110.049 344.949 110.176 344.26 110.176ZM351.185 98.3636V110H349.486V98.3636H351.185ZM353.294 110V101.273H354.993V110H353.294ZM354.152 99.9261C353.857 99.9261 353.603 99.8277 353.391 99.6307C353.183 99.4299 353.078 99.1913 353.078 98.9148C353.078 98.6345 353.183 98.3958 353.391 98.1989C353.603 97.9981 353.857 97.8977 354.152 97.8977C354.448 97.8977 354.7 97.9981 354.908 98.1989C355.12 98.3958 355.226 98.6345 355.226 98.9148C355.226 99.1913 355.12 99.4299 354.908 99.6307C354.7 99.8277 354.448 99.9261 354.152 99.9261ZM360.779 110.176C359.934 110.176 359.207 109.985 358.597 109.602C357.991 109.216 357.525 108.684 357.199 108.006C356.874 107.328 356.711 106.551 356.711 105.676C356.711 104.79 356.877 104.008 357.211 103.33C357.544 102.648 358.014 102.116 358.62 101.733C359.226 101.35 359.94 101.159 360.762 101.159C361.425 101.159 362.016 101.282 362.535 101.528C363.054 101.771 363.472 102.112 363.79 102.551C364.112 102.991 364.304 103.504 364.364 104.091H362.711C362.62 103.682 362.411 103.33 362.086 103.034C361.764 102.739 361.332 102.591 360.79 102.591C360.317 102.591 359.902 102.716 359.546 102.966C359.194 103.212 358.919 103.564 358.722 104.023C358.525 104.477 358.427 105.015 358.427 105.636C358.427 106.273 358.523 106.822 358.716 107.284C358.91 107.746 359.182 108.104 359.535 108.358C359.891 108.612 360.309 108.739 360.79 108.739C361.112 108.739 361.404 108.68 361.665 108.562C361.93 108.441 362.152 108.269 362.33 108.045C362.512 107.822 362.639 107.553 362.711 107.239H364.364C364.304 107.803 364.12 108.307 363.813 108.75C363.506 109.193 363.095 109.542 362.58 109.795C362.069 110.049 361.468 110.176 360.779 110.176ZM367.567 107.04L367.556 104.966H367.851L371.329 101.273H373.363L369.397 105.477H369.13L367.567 107.04ZM366.005 110V98.3636H367.704V110H366.005ZM371.516 110L368.391 105.852L369.562 104.665L373.601 110H371.516Z" fill="white"/>
<path d="M178.5 150C178.5 149.724 178.276 149.5 178 149.5C177.724 149.5 177.5 149.724 177.5 150H178.5ZM235.354 216.354C235.549 216.158 235.549 215.842 235.354 215.646L232.172 212.464C231.976 212.269 231.66 212.269 231.464 212.464C231.269 212.66 231.269 212.976 231.464 213.172L234.293 216L231.464 218.828C231.269 219.024 231.269 219.34 231.464 219.536C231.66 219.731 231.976 219.731 232.172 219.536L235.354 216.354ZM177.5 150V192H178.5V150H177.5ZM202 216.5H235V215.5H202V216.5ZM177.5 192C177.5 205.531 188.469 216.5 202 216.5V215.5C189.021 215.5 178.5 204.979 178.5 192H177.5Z" fill="white"/>
<path d="M481 215.5C480.724 215.5 480.5 215.724 480.5 216C480.5 216.276 480.724 216.5 481 216.5V215.5ZM587.354 157.646C587.158 157.451 586.842 157.451 586.646 157.646L583.464 160.828C583.269 161.024 583.269 161.34 583.464 161.536C583.66 161.731 583.976 161.731 584.172 161.536L587 158.707L589.828 161.536C590.024 161.731 590.34 161.731 590.536 161.536C590.731 161.34 590.731 161.024 590.536 160.828L587.354 157.646ZM481 216.5H563V215.5H481V216.5ZM587.5 192V158H586.5V192H587.5ZM563 216.5C576.531 216.5 587.5 205.531 587.5 192H586.5C586.5 204.979 575.979 215.5 563 215.5V216.5Z" fill="white"/>
</svg>
