<svg width="797" height="657" viewBox="0 0 797 657" fill="none" xmlns="http://www.w3.org/2000/svg">
<path d="M366.448 70.752H362.864L359.92 81.504H345.52C345.392 74.848 345.392 68.064 345.392 60.96V60.768H354.16L355.056 67.552H358.256V51.36H355.056L354.096 58.464H345.392C345.392 51.68 345.392 45.088 345.52 38.688H358.512L361.456 48.928H365.168L365.232 36.192H328.624V38.368L334.384 38.88C334.576 45.472 334.576 52.064 334.576 58.72V61.536C334.576 68.192 334.576 74.784 334.384 81.248L328.624 81.824V84H366.576L366.448 70.752ZM409.648 81.248L396.144 55.968L406.768 39.2L413.232 38.368V36.192H397.936V38.368L403.504 39.136L394.992 53.856L386.992 38.944L392.816 38.368V36.192H369.904V38.368L375.28 38.88L387.76 62.24L375.856 80.928L370.288 81.824V84H385.2V81.888L379.504 80.992L388.912 64.416L397.936 81.248L392.112 81.824V84H414.96V81.824L409.648 81.248ZM438.016 38.624C444.8 38.624 448.512 42.592 448.512 50.336C448.512 57.504 444.928 62.496 437.504 62.496H435.392V58.72C435.392 51.936 435.392 45.216 435.52 38.624H438.016ZM437.824 64.864C453.056 64.864 458.496 58.4 458.496 50.4C458.496 41.376 452.672 36.192 438.144 36.192H418.624V38.368L424.384 38.88C424.576 45.472 424.576 52.064 424.576 58.72V61.536C424.576 68.192 424.576 74.784 424.384 81.248L418.624 81.824V84H442.368V81.824L435.52 81.12C435.392 75.36 435.392 69.664 435.392 64.864H437.824ZM498.988 69.664H495.532L492.332 81.504H479.02C478.892 74.848 478.892 68.192 478.892 61.856V57.696C478.892 51.936 478.892 45.408 479.02 38.944L485.292 38.368V36.192H462.124V38.368L467.884 38.88C468.076 45.472 468.076 52.064 468.076 58.72V63.264C468.076 68.384 468.076 74.848 467.884 81.248L462.188 81.824L462.124 84H499.116L498.988 69.664ZM514.643 60.064C514.643 47.008 518.163 37.344 526.035 37.344C533.843 37.344 537.427 47.008 537.427 60.064C537.427 73.248 533.843 82.848 526.035 82.848C518.163 82.848 514.643 73.248 514.643 60.064ZM526.035 34.912C514.067 34.912 503.315 43.552 503.315 60.064C503.315 76.768 514.003 85.28 526.035 85.28C538.131 85.28 548.691 76.704 548.691 60.064C548.691 43.488 538.067 34.912 526.035 34.912ZM571.662 54.048C567.182 52 564.75 49.632 564.75 45.216C564.75 40.416 568.333 37.6 573.902 37.6C575.502 37.6 576.782 37.792 578.062 38.368L581.326 48.992H585.038L585.614 38.56C582.094 36.256 577.614 34.912 572.622 34.912C562.19 34.912 555.214 39.84 555.214 48.48C555.214 56.16 559.758 60.448 568.333 64.288L571.406 65.632C576.526 67.872 578.382 70.176 578.382 74.528C578.382 79.52 574.862 82.528 568.526 82.528C566.094 82.528 564.174 82.272 562.254 81.568L558.862 70.432H555.15L554.702 81.44C558.542 83.936 564.366 85.28 569.614 85.28C581.646 85.28 588.11 79.456 588.11 70.944C588.11 63.712 584.59 59.872 575.054 55.584L571.662 54.048ZM615.841 38.368V36.192H593.249V38.368L599.009 38.88C599.201 45.472 599.201 52.064 599.201 58.72V61.536C599.201 68.192 599.201 74.784 599.009 81.248L593.249 81.824V84H615.841V81.824L610.145 81.248C610.017 74.656 610.017 68.064 610.017 61.472V58.72C610.017 52.064 610.017 45.408 610.145 38.88L615.841 38.368ZM631.705 60.064C631.705 47.008 635.225 37.344 643.097 37.344C650.905 37.344 654.489 47.008 654.489 60.064C654.489 73.248 650.905 82.848 643.097 82.848C635.225 82.848 631.705 73.248 631.705 60.064ZM643.097 34.912C631.129 34.912 620.377 43.552 620.377 60.064C620.377 76.768 631.065 85.28 643.097 85.28C655.193 85.28 665.753 76.704 665.753 60.064C665.753 43.488 655.129 34.912 643.097 34.912ZM718.063 36.192H700.399V38.368L708.911 39.264L709.231 69.728L684.975 36.192H669.551V38.368L674.095 38.88L675.311 40.672L674.927 80.928L669.039 81.824V84H686.831V81.824L678.255 80.864L677.871 44.32L706.095 84.128H711.727L712.175 39.2L718.063 38.368V36.192Z" fill="white"/>
<path d="M366.448 70.752L367.448 70.7423L367.438 69.752H366.448V70.752ZM362.864 70.752V69.752H362.101L361.9 70.4879L362.864 70.752ZM359.92 81.504V82.504H360.683L360.884 81.7681L359.92 81.504ZM345.52 81.504L344.52 81.5232L344.539 82.504H345.52V81.504ZM345.392 60.768V59.768H344.392V60.768H345.392ZM354.16 60.768L355.151 60.6371L355.037 59.768H354.16V60.768ZM355.056 67.552L354.065 67.6829L354.179 68.552H355.056V67.552ZM358.256 67.552V68.552H359.256V67.552H358.256ZM358.256 51.36H359.256V50.36H358.256V51.36ZM355.056 51.36V50.36H354.182L354.065 51.2261L355.056 51.36ZM354.096 58.464V59.464H354.97L355.087 58.5979L354.096 58.464ZM345.392 58.464H344.392V59.464H345.392V58.464ZM345.52 38.688V37.688H344.54L344.52 38.668L345.52 38.688ZM358.512 38.688L359.473 38.4117L359.265 37.688H358.512V38.688ZM361.456 48.928L360.495 49.2043L360.703 49.928H361.456V48.928ZM365.168 48.928V49.928H366.163L366.168 48.933L365.168 48.928ZM365.232 36.192L366.232 36.197L366.237 35.192H365.232V36.192ZM328.624 36.192V35.192H327.624V36.192H328.624ZM328.624 38.368H327.624V39.2831L328.535 39.3641L328.624 38.368ZM334.384 38.88L335.384 38.8509L335.358 37.9626L334.473 37.8839L334.384 38.88ZM334.384 81.248L334.484 82.243L335.357 82.1556L335.384 81.2777L334.384 81.248ZM328.624 81.824L328.524 80.829L327.624 80.919V81.824H328.624ZM328.624 84H327.624V85H328.624V84ZM366.576 84V85H367.586L367.576 83.9903L366.576 84ZM366.448 69.752H362.864V71.752H366.448V69.752ZM361.9 70.4879L358.956 81.2399L360.884 81.7681L363.828 71.0161L361.9 70.4879ZM359.92 80.504H345.52V82.504H359.92V80.504ZM346.52 81.4848C346.392 74.8401 346.392 68.0658 346.392 60.96H344.392C344.392 68.0621 344.392 74.8559 344.52 81.5232L346.52 81.4848ZM346.392 60.96V60.768H344.392V60.96H346.392ZM345.392 61.768H354.16V59.768H345.392V61.768ZM353.169 60.8989L354.065 67.6829L356.047 67.4211L355.151 60.6371L353.169 60.8989ZM355.056 68.552H358.256V66.552H355.056V68.552ZM359.256 67.552V51.36H357.256V67.552H359.256ZM358.256 50.36H355.056V52.36H358.256V50.36ZM354.065 51.2261L353.105 58.3301L355.087 58.5979L356.047 51.4939L354.065 51.2261ZM354.096 57.464H345.392V59.464H354.096V57.464ZM346.392 58.464C346.392 51.678 346.392 45.0962 346.52 38.708L344.52 38.668C344.392 45.0798 344.392 51.682 344.392 58.464H346.392ZM345.52 39.688H358.512V37.688H345.52V39.688ZM357.551 38.9643L360.495 49.2043L362.417 48.6517L359.473 38.4117L357.551 38.9643ZM361.456 49.928H365.168V47.928H361.456V49.928ZM366.168 48.933L366.232 36.197L364.232 36.187L364.168 48.923L366.168 48.933ZM365.232 35.192H328.624V37.192H365.232V35.192ZM327.624 36.192V38.368H329.624V36.192H327.624ZM328.535 39.3641L334.295 39.8761L334.473 37.8839L328.713 37.3719L328.535 39.3641ZM333.384 38.9091C333.576 45.4841 333.576 52.0615 333.576 58.72H335.576C335.576 52.0665 335.576 45.4599 335.384 38.8509L333.384 38.9091ZM333.576 58.72V61.536H335.576V58.72H333.576ZM333.576 61.536C333.576 68.1947 333.576 74.7717 333.384 81.2183L335.384 81.2777C335.576 74.7963 335.576 68.1893 335.576 61.536H333.576ZM334.284 80.253L328.524 80.829L328.724 82.819L334.484 82.243L334.284 80.253ZM327.624 81.824V84H329.624V81.824H327.624ZM328.624 85H366.576V83H328.624V85ZM367.576 83.9903L367.448 70.7423L365.448 70.7617L365.576 84.0097L367.576 83.9903ZM409.648 81.248L408.765 81.7192L409.014 82.1852L409.54 82.2422L409.648 81.248ZM396.144 55.968L395.299 55.4328L394.987 55.9251L395.261 56.4392L396.144 55.968ZM406.768 39.2L406.64 38.2082L406.174 38.2681L405.923 38.6648L406.768 39.2ZM413.232 38.368L413.359 39.3598L414.232 39.2475V38.368H413.232ZM413.232 36.192H414.232V35.192H413.232V36.192ZM397.936 36.192V35.192H396.936V36.192H397.936ZM397.936 38.368H396.936V39.2395L397.799 39.3586L397.936 38.368ZM403.504 39.136L404.369 39.6366L405.114 38.3487L403.64 38.1454L403.504 39.136ZM394.992 53.856L394.11 54.3287L394.959 55.9103L395.857 54.3566L394.992 53.856ZM386.992 38.944L386.893 37.9489L385.402 38.0963L386.11 39.4167L386.992 38.944ZM392.815 38.368L392.914 39.3631L393.815 39.274V38.368H392.815ZM392.815 36.192H393.815V35.192H392.815V36.192ZM369.903 36.192V35.192H368.903V36.192H369.903ZM369.903 38.368H368.903V39.2773L369.809 39.3635L369.903 38.368ZM375.279 38.88L376.162 38.4088L375.909 37.9354L375.374 37.8845L375.279 38.88ZM387.759 62.24L388.603 62.7772L388.917 62.2843L388.642 61.7688L387.759 62.24ZM375.855 80.928L376.014 81.9153L376.458 81.844L376.699 81.4652L375.855 80.928ZM370.287 81.824L370.129 80.8367L369.287 80.9721V81.824H370.287ZM370.287 84H369.287V85H370.287V84ZM385.2 84V85H386.2V84H385.2ZM385.2 81.888H386.2V81.033L385.355 80.9001L385.2 81.888ZM379.504 80.992L378.634 80.4984L377.92 81.7553L379.348 81.9799L379.504 80.992ZM388.911 64.416L389.793 63.9435L388.936 62.3461L388.042 63.9224L388.911 64.416ZM397.936 81.248L398.034 82.2431L399.525 82.0957L398.817 80.7755L397.936 81.248ZM392.112 81.824L392.013 80.8289L391.112 80.918V81.824H392.112ZM392.112 84H391.112V85H392.112V84ZM414.96 84V85H415.96V84H414.96ZM414.96 81.824H415.96V80.9266L415.067 80.8298L414.96 81.824ZM410.53 80.7768L397.026 55.4968L395.261 56.4392L408.765 81.7192L410.53 80.7768ZM396.988 56.5032L407.612 39.7352L405.923 38.6648L395.299 55.4328L396.988 56.5032ZM406.895 40.1918L413.359 39.3598L413.104 37.3762L406.64 38.2082L406.895 40.1918ZM414.232 38.368V36.192H412.232V38.368H414.232ZM413.232 35.192H397.936V37.192H413.232V35.192ZM396.936 36.192V38.368H398.936V36.192H396.936ZM397.799 39.3586L403.367 40.1266L403.64 38.1454L398.072 37.3774L397.799 39.3586ZM402.638 38.6354L394.126 53.3554L395.857 54.3566L404.369 39.6366L402.638 38.6354ZM395.873 53.3833L387.873 38.4713L386.11 39.4167L394.11 54.3287L395.873 53.3833ZM387.09 39.9391L392.914 39.3631L392.717 37.3729L386.893 37.9489L387.09 39.9391ZM393.815 38.368V36.192H391.815V38.368H393.815ZM392.815 35.192H369.903V37.192H392.815V35.192ZM368.903 36.192V38.368H370.903V36.192H368.903ZM369.809 39.3635L375.185 39.8755L375.374 37.8845L369.998 37.3725L369.809 39.3635ZM374.397 39.3512L386.877 62.7112L388.642 61.7688L376.162 38.4088L374.397 39.3512ZM386.916 61.7028L375.012 80.3907L376.699 81.4652L388.603 62.7772L386.916 61.7028ZM375.697 79.9407L370.129 80.8367L370.446 82.8113L376.014 81.9153L375.697 79.9407ZM369.287 81.824V84H371.287V81.824H369.287ZM370.287 85H385.2V83H370.287V85ZM386.2 84V81.888H384.2V84H386.2ZM385.355 80.9001L379.659 80.0042L379.348 81.9799L385.044 82.8759L385.355 80.9001ZM380.373 81.4856L389.781 64.9096L388.042 63.9224L378.634 80.4984L380.373 81.4856ZM388.03 64.8885L397.054 81.7205L398.817 80.7755L389.793 63.9435L388.03 64.8885ZM397.837 80.2529L392.013 80.8289L392.21 82.8191L398.034 82.2431L397.837 80.2529ZM391.112 81.824V84H393.112V81.824H391.112ZM392.112 85H414.96V83H392.112V85ZM415.96 84V81.824H413.96V84H415.96ZM415.067 80.8298L409.755 80.2538L409.54 82.2422L414.852 82.8182L415.067 80.8298ZM435.392 62.496H434.392V63.496H435.392V62.496ZM435.52 38.624V37.624H434.539L434.52 38.6046L435.52 38.624ZM418.624 36.192V35.192H417.624V36.192H418.624ZM418.624 38.368H417.624V39.2831L418.535 39.3641L418.624 38.368ZM424.384 38.88L425.384 38.8509L425.358 37.9626L424.473 37.8839L424.384 38.88ZM424.384 81.248L424.484 82.243L425.357 82.1556L425.384 81.2777L424.384 81.248ZM418.624 81.824L418.524 80.829L417.624 80.919V81.824H418.624ZM418.624 84H417.624V85H418.624V84ZM442.368 84V85H443.368V84H442.368ZM442.368 81.824H443.368V80.9215L442.47 80.8292L442.368 81.824ZM435.52 81.12L434.52 81.1422L434.54 82.0245L435.418 82.1148L435.52 81.12ZM435.392 64.864V63.864H434.392V64.864H435.392ZM438.016 39.624C441.211 39.624 443.531 40.5527 445.067 42.2475C446.618 43.959 447.512 46.6085 447.512 50.336H449.512C449.512 46.3195 448.55 43.113 446.549 40.9045C444.533 38.6793 441.605 37.624 438.016 37.624V39.624ZM447.512 50.336C447.512 53.767 446.653 56.5482 445.03 58.456C443.428 60.339 440.976 61.496 437.504 61.496V63.496C441.456 63.496 444.508 62.157 446.554 59.752C448.579 57.3718 449.512 54.073 449.512 50.336H447.512ZM437.504 61.496H435.392V63.496H437.504V61.496ZM436.392 62.496V58.72H434.392V62.496H436.392ZM436.392 58.72C436.392 51.9342 436.392 45.224 436.52 38.6434L434.52 38.6046C434.392 45.208 434.392 51.9378 434.392 58.72H436.392ZM435.52 39.624H438.016V37.624H435.52V39.624ZM437.824 65.864C445.561 65.864 450.988 64.2254 454.497 61.4123C458.042 58.5713 459.496 54.6423 459.496 50.4H457.496C457.496 54.1576 456.23 57.4607 453.247 59.8517C450.228 62.2706 445.319 63.864 437.824 63.864V65.864ZM459.496 50.4C459.496 45.6523 457.949 41.7647 454.363 39.1085C450.839 36.4974 445.494 35.192 438.144 35.192V37.192C445.322 37.192 450.153 38.4786 453.173 40.7155C456.131 42.9073 457.496 46.1237 457.496 50.4H459.496ZM438.144 35.192H418.624V37.192H438.144V35.192ZM417.624 36.192V38.368H419.624V36.192H417.624ZM418.535 39.3641L424.295 39.8761L424.473 37.8839L418.713 37.3719L418.535 39.3641ZM423.384 38.9091C423.576 45.4841 423.576 52.0615 423.576 58.72H425.576C425.576 52.0665 425.576 45.4599 425.384 38.8509L423.384 38.9091ZM423.576 58.72V61.536H425.576V58.72H423.576ZM423.576 61.536C423.576 68.1947 423.576 74.7717 423.384 81.2183L425.384 81.2777C425.576 74.7963 425.576 68.1893 425.576 61.536H423.576ZM424.285 80.253L418.524 80.829L418.724 82.819L424.484 82.243L424.285 80.253ZM417.624 81.824V84H419.624V81.824H417.624ZM418.624 85H442.368V83H418.624V85ZM443.368 84V81.824H441.368V84H443.368ZM442.47 80.8292L435.622 80.1252L435.418 82.1148L442.266 82.8188L442.47 80.8292ZM436.52 81.0978C436.392 75.3506 436.392 69.6653 436.392 64.864H434.392C434.392 69.6627 434.392 75.3694 434.52 81.1422L436.52 81.0978ZM435.392 65.864H437.824V63.864H435.392V65.864ZM498.988 69.664L499.988 69.6551L499.979 68.664H498.988V69.664ZM495.532 69.664V68.664H494.766L494.567 69.4031L495.532 69.664ZM492.332 81.504V82.504H493.098L493.297 81.7649L492.332 81.504ZM479.02 81.504L478.02 81.5232L478.039 82.504H479.02V81.504ZM479.02 38.944L478.929 37.9482L478.038 38.03L478.02 38.9242L479.02 38.944ZM485.292 38.368L485.383 39.3638L486.292 39.2804V38.368H485.292ZM485.292 36.192H486.292V35.192H485.292V36.192ZM462.124 36.192V35.192H461.124V36.192H462.124ZM462.124 38.368H461.124V39.2831L462.035 39.3641L462.124 38.368ZM467.884 38.88L468.884 38.8509L468.858 37.9626L467.973 37.8839L467.884 38.88ZM467.884 81.248L467.985 82.2429L468.857 82.1547L468.884 81.278L467.884 81.248ZM462.188 81.824L462.087 80.8291L461.214 80.9174L461.188 81.7946L462.188 81.824ZM462.124 84L461.124 83.9706L461.094 85H462.124V84ZM499.116 84V85H500.125L500.116 83.9911L499.116 84ZM498.988 68.664H495.532V70.664H498.988V68.664ZM494.567 69.4031L491.367 81.2431L493.297 81.7649L496.497 69.9249L494.567 69.4031ZM492.332 80.504H479.02V82.504H492.332V80.504ZM480.02 81.4848C479.892 74.84 479.892 68.1935 479.892 61.856H477.892C477.892 68.1905 477.892 74.856 478.02 81.5232L480.02 81.4848ZM479.892 61.856V57.696H477.892V61.856H479.892ZM479.892 57.696C479.892 51.9346 479.892 45.4163 480.02 38.9638L478.02 38.9242C477.892 45.3997 477.892 51.9374 477.892 57.696H479.892ZM479.111 39.9398L485.383 39.3638L485.201 37.3722L478.929 37.9482L479.111 39.9398ZM486.292 38.368V36.192H484.292V38.368H486.292ZM485.292 35.192H462.124V37.192H485.292V35.192ZM461.124 36.192V38.368H463.124V36.192H461.124ZM462.035 39.3641L467.795 39.8761L467.973 37.8839L462.213 37.3719L462.035 39.3641ZM466.884 38.9091C467.076 45.4841 467.076 52.0615 467.076 58.72H469.076C469.076 52.0665 469.076 45.4599 468.884 38.8509L466.884 38.9091ZM467.076 58.72V63.264H469.076V58.72H467.076ZM467.076 63.264C467.076 68.3858 467.076 74.8353 466.884 81.218L468.884 81.278C469.076 74.8607 469.076 68.3822 469.076 63.264H467.076ZM467.783 80.2531L462.087 80.8291L462.289 82.8189L467.985 82.2429L467.783 80.2531ZM461.188 81.7946L461.124 83.9706L463.124 84.0294L463.188 81.8534L461.188 81.7946ZM462.124 85H499.116V83H462.124V85ZM500.116 83.9911L499.988 69.6551L497.988 69.6729L498.116 84.0089L500.116 83.9911ZM515.643 60.064C515.643 53.601 516.517 48.0863 518.295 44.2263C520.058 40.3976 522.619 38.344 526.035 38.344V36.344C521.578 36.344 518.443 39.1224 516.478 43.3897C514.528 47.6257 513.643 53.471 513.643 60.064H515.643ZM526.035 38.344C529.417 38.344 531.979 40.3955 533.751 44.2277C535.536 48.0883 536.426 53.6032 536.426 60.064H538.426C538.426 53.4688 537.525 47.6237 535.566 43.3883C533.594 39.1245 530.46 36.344 526.035 36.344V38.344ZM536.426 60.064C536.426 66.59 535.536 72.1204 533.751 75.9803C531.98 79.8097 529.419 81.848 526.035 81.848V83.848C530.458 83.848 533.593 81.0863 535.566 76.8197C537.525 72.5836 538.426 66.722 538.426 60.064H536.426ZM526.035 81.848C522.616 81.848 520.057 79.8075 518.295 75.9817C516.518 72.1224 515.643 66.5922 515.643 60.064H513.643C513.643 66.7198 514.527 72.5816 516.478 76.8183C518.445 81.0885 521.581 83.848 526.035 83.848V81.848ZM526.035 33.912C519.809 33.912 513.865 36.1613 509.476 40.5923C505.081 45.0291 502.314 51.5828 502.314 60.064H504.314C504.314 52.0332 506.924 46.0109 510.897 41.9997C514.876 37.9827 520.292 35.912 526.035 35.912V33.912ZM502.314 60.064C502.314 68.6366 505.062 75.208 509.452 79.6397C513.836 84.0659 519.782 86.28 526.035 86.28V84.28C520.255 84.28 514.841 82.2381 510.873 78.2323C506.911 74.232 504.314 68.1954 504.314 60.064H502.314ZM526.035 86.28C532.32 86.28 538.251 84.0489 542.612 79.613C546.976 75.1726 549.691 68.602 549.691 60.064H547.691C547.691 68.166 545.125 74.2034 541.185 78.211C537.242 82.2231 531.845 84.28 526.035 84.28V86.28ZM549.691 60.064C549.691 51.5552 546.959 45.0007 542.586 40.5696C538.219 36.1437 532.289 33.912 526.035 33.912V35.912C531.812 35.912 537.21 37.9683 541.163 41.9744C545.11 45.9753 547.691 51.9968 547.691 60.064H549.691ZM571.661 54.048L571.246 54.9575L571.249 54.959L571.661 54.048ZM578.061 38.368L579.017 38.0743L578.885 37.6418L578.472 37.4561L578.061 38.368ZM581.326 48.992L580.37 49.2857L580.587 49.992H581.326V48.992ZM585.038 48.992V49.992H585.984L586.036 49.0471L585.038 48.992ZM585.613 38.56L586.612 38.6151L586.644 38.0392L586.161 37.7233L585.613 38.56ZM568.333 64.288L567.925 65.2007L567.933 65.2042L568.333 64.288ZM571.406 65.632L571.005 66.5482L571.406 65.632ZM562.253 81.568L561.297 81.8594L561.442 82.3355L561.909 82.5069L562.253 81.568ZM558.861 70.432L559.818 70.1406L559.602 69.432H558.861V70.432ZM555.15 70.432V69.432H554.189L554.15 70.3913L555.15 70.432ZM554.702 81.44L553.702 81.3993L553.679 81.9682L554.157 82.2784L554.702 81.44ZM575.053 55.584L574.641 56.495L574.643 56.496L575.053 55.584ZM572.077 53.1385C569.891 52.1392 568.321 51.1111 567.293 49.8794C566.292 48.6797 565.749 47.2181 565.749 45.216H563.749C563.749 47.6299 564.423 49.5603 565.758 51.1606C567.066 52.7289 568.952 53.9088 571.246 54.9575L572.077 53.1385ZM565.749 45.216C565.749 43.0871 566.532 41.4783 567.871 40.3816C569.234 39.2649 571.274 38.6 573.902 38.6V36.6C570.961 36.6 568.425 37.3431 566.604 38.8344C564.759 40.3457 563.749 42.5449 563.749 45.216H565.749ZM573.902 38.6C575.414 38.6 576.542 38.7808 577.651 39.2799L578.472 37.4561C577.021 36.8032 575.589 36.6 573.902 36.6V38.6ZM577.106 38.6617L580.37 49.2857L582.281 48.6983L579.017 38.0743L577.106 38.6617ZM581.326 49.992H585.038V47.992H581.326V49.992ZM586.036 49.0471L586.612 38.6151L584.615 38.5049L584.039 48.9369L586.036 49.0471ZM586.161 37.7233C582.465 35.3042 577.792 33.912 572.622 33.912V35.912C577.435 35.912 581.722 37.2078 585.066 39.3967L586.161 37.7233ZM572.622 33.912C567.263 33.912 562.675 35.176 559.401 37.6593C556.095 40.1671 554.214 43.8585 554.214 48.48H556.214C556.214 44.4615 557.82 41.3689 560.61 39.2527C563.432 37.112 567.548 35.912 572.622 35.912V33.912ZM554.214 48.48C554.214 52.5454 555.427 55.7769 557.806 58.4842C560.155 61.1558 563.588 63.259 567.925 65.2007L568.742 63.3753C564.503 61.477 561.376 59.5162 559.309 57.1638C557.272 54.8471 556.214 52.0946 556.214 48.48H554.214ZM567.933 65.2042L571.005 66.5482L571.806 64.7158L568.734 63.3718L567.933 65.2042ZM571.005 66.5482C573.51 67.6444 575.076 68.6992 576.028 69.9072C576.954 71.0817 577.382 72.5049 577.382 74.528H579.382C579.382 72.1991 578.881 70.2943 577.599 68.6688C576.343 67.0768 574.421 65.8596 571.806 64.7158L571.005 66.5482ZM577.382 74.528C577.382 76.7707 576.602 78.469 575.194 79.6279C573.759 80.8089 571.55 81.528 568.525 81.528V83.528C571.837 83.528 574.556 82.7431 576.465 81.1721C578.401 79.579 579.382 77.2773 579.382 74.528H577.382ZM568.525 81.528C566.169 81.528 564.374 81.2805 562.598 80.6291L561.909 82.5069C563.973 83.2635 566.018 83.528 568.525 83.528V81.528ZM563.21 81.2766L559.818 70.1406L557.905 70.7234L561.297 81.8594L563.21 81.2766ZM558.861 69.432H555.15V71.432H558.861V69.432ZM554.15 70.3913L553.702 81.3993L555.701 81.4807L556.149 70.4727L554.15 70.3913ZM554.157 82.2784C558.205 84.9102 564.236 86.28 569.613 86.28V84.28C564.495 84.28 558.878 82.9618 555.246 80.6016L554.157 82.2784ZM569.613 86.28C575.779 86.28 580.651 84.7887 584.002 82.0819C587.377 79.3555 589.109 75.4747 589.109 70.944H587.109C587.109 74.9253 585.61 78.2125 582.745 80.5261C579.856 82.8593 575.48 84.28 569.613 84.28V86.28ZM589.109 70.944C589.109 67.1414 588.175 64.1248 585.914 61.5065C583.695 58.9362 580.266 56.8315 575.464 54.672L574.643 56.496C579.377 58.6245 582.476 60.5838 584.401 62.8135C586.284 64.9952 587.109 67.5146 587.109 70.944H589.109ZM575.466 54.673L572.074 53.137L571.249 54.959L574.641 56.495L575.466 54.673ZM615.841 38.368L615.931 39.364L616.841 39.2821V38.368H615.841ZM615.841 36.192H616.841V35.192H615.841V36.192ZM593.249 36.192V35.192H592.249V36.192H593.249ZM593.249 38.368H592.249V39.2831L593.16 39.3641L593.249 38.368ZM599.009 38.88L600.009 38.8509L599.983 37.9626L599.098 37.8839L599.009 38.88ZM599.009 81.248L599.108 82.243L599.982 82.1556L600.009 81.2777L599.009 81.248ZM593.249 81.824L593.15 80.829L592.249 80.919V81.824H593.249ZM593.249 84H592.249V85H593.249V84ZM615.841 84V85H616.841V84H615.841ZM615.841 81.824H616.841V80.92L615.942 80.8291L615.841 81.824ZM610.145 81.248L609.145 81.2674L609.162 82.1537L610.044 82.2429L610.145 81.248ZM610.145 38.88L610.055 37.884L609.163 37.9643L609.145 38.8604L610.145 38.88ZM616.841 38.368V36.192H614.841V38.368H616.841ZM615.841 35.192H593.249V37.192H615.841V35.192ZM592.249 36.192V38.368H594.249V36.192H592.249ZM593.16 39.3641L598.92 39.8761L599.098 37.8839L593.338 37.3719L593.16 39.3641ZM598.009 38.9091C598.201 45.4841 598.201 52.0615 598.201 58.72H600.201C600.201 52.0665 600.201 45.4599 600.009 38.8509L598.009 38.9091ZM598.201 58.72V61.536H600.201V58.72H598.201ZM598.201 61.536C598.201 68.1947 598.201 74.7717 598.009 81.2183L600.009 81.2777C600.201 74.7963 600.201 68.1893 600.201 61.536H598.201ZM598.909 80.253L593.15 80.829L593.349 82.819L599.108 82.243L598.909 80.253ZM592.249 81.824V84H594.249V81.824H592.249ZM593.249 85H615.841V83H593.249V85ZM616.841 84V81.824H614.841V84H616.841ZM615.942 80.8291L610.246 80.2531L610.044 82.2429L615.74 82.8189L615.942 80.8291ZM611.145 81.2286C611.017 74.6479 611.017 68.0656 611.017 61.472H609.017C609.017 68.0624 609.017 74.6641 609.145 81.2674L611.145 81.2286ZM611.017 61.472V58.72H609.017V61.472H611.017ZM611.017 58.72C611.017 52.0622 611.017 45.4161 611.145 38.8996L609.145 38.8604C609.017 45.3999 609.017 52.0658 609.017 58.72H611.017ZM610.235 39.876L615.931 39.364L615.751 37.372L610.055 37.884L610.235 39.876ZM632.705 60.064C632.705 53.601 633.58 48.0863 635.357 44.2263C637.12 40.3976 639.681 38.344 643.097 38.344V36.344C638.641 36.344 635.506 39.1224 633.541 43.3897C631.59 47.6257 630.705 53.471 630.705 60.064H632.705ZM643.097 38.344C646.479 38.344 649.041 40.3955 650.813 44.2277C652.599 48.0883 653.489 53.6032 653.489 60.064H655.489C655.489 53.4688 654.587 47.6237 652.629 43.3883C650.657 39.1245 647.523 36.344 643.097 36.344V38.344ZM653.489 60.064C653.489 66.59 652.598 72.1204 650.813 75.9803C649.042 79.8097 646.482 81.848 643.097 81.848V83.848C647.521 83.848 650.656 81.0863 652.629 76.8197C654.588 72.5836 655.489 66.722 655.489 60.064H653.489ZM643.097 81.848C639.679 81.848 637.119 79.8075 635.357 75.9817C633.58 72.1224 632.705 66.5922 632.705 60.064H630.705C630.705 66.7198 631.59 72.5816 633.541 76.8183C635.507 81.0885 638.643 83.848 643.097 83.848V81.848ZM643.097 33.912C636.872 33.912 630.928 36.1613 626.539 40.5923C622.144 45.0291 619.377 51.5828 619.377 60.064H621.377C621.377 52.0332 623.986 46.0109 627.959 41.9997C631.938 37.9827 637.354 35.912 643.097 35.912V33.912ZM619.377 60.064C619.377 68.6366 622.125 75.208 626.515 79.6397C630.899 84.0659 636.845 86.28 643.097 86.28V84.28C637.317 84.28 631.903 82.2381 627.935 78.2323C623.973 74.232 621.377 68.1954 621.377 60.064H619.377ZM643.097 86.28C649.383 86.28 655.314 84.0489 659.674 79.613C664.039 75.1726 666.753 68.602 666.753 60.064H664.753C664.753 68.166 662.187 74.2034 658.248 78.211C654.304 82.2231 648.907 84.28 643.097 84.28V86.28ZM666.753 60.064C666.753 51.5552 664.021 45.0007 659.649 40.5696C655.282 36.1437 649.352 33.912 643.097 33.912V35.912C648.874 35.912 654.272 37.9683 658.225 41.9744C662.173 45.9753 664.753 51.9968 664.753 60.064H666.753ZM718.063 36.192H719.063V35.192H718.063V36.192ZM700.399 36.192V35.192H699.399V36.192H700.399ZM700.399 38.368H699.399V39.2683L700.294 39.3625L700.399 38.368ZM708.911 39.264L709.911 39.2535L709.902 38.3627L709.016 38.2695L708.911 39.264ZM709.231 69.728L708.421 70.3141L710.264 72.8625L710.231 69.7175L709.231 69.728ZM684.975 36.192L685.785 35.6059L685.486 35.192H684.975V36.192ZM669.551 36.192V35.192H668.551V36.192H669.551ZM669.551 38.368H668.551V39.2616L669.439 39.3617L669.551 38.368ZM674.095 38.88L674.922 38.3185L674.664 37.9378L674.207 37.8863L674.095 38.88ZM675.311 40.672L676.311 40.6815L676.314 40.3691L676.138 40.1105L675.311 40.672ZM674.927 80.928L675.077 81.9166L675.919 81.7886L675.927 80.9375L674.927 80.928ZM669.039 81.824L668.889 80.8354L668.039 80.9647V81.824H669.039ZM669.039 84H668.039V85H669.039V84ZM686.831 84V85H687.831V84H686.831ZM686.831 81.824H687.831V80.9297L686.942 80.8302L686.831 81.824ZM678.255 80.864L677.255 80.8745L677.264 81.7594L678.144 81.8578L678.255 80.864ZM677.871 44.32L678.687 43.7416L676.837 41.1333L676.871 44.3305L677.871 44.32ZM706.095 84.128L705.279 84.7064L705.578 85.128H706.095V84.128ZM711.727 84.128V85.128H712.717L712.727 84.138L711.727 84.128ZM712.175 39.2L712.035 38.2098L711.184 38.3301L711.175 39.19L712.175 39.2ZM718.063 38.368L718.203 39.3582L719.063 39.2366V38.368H718.063ZM718.063 35.192H700.399V37.192H718.063V35.192ZM699.399 36.192V38.368H701.399V36.192H699.399ZM700.294 39.3625L708.806 40.2585L709.016 38.2695L700.504 37.3735L700.294 39.3625ZM707.911 39.2745L708.231 69.7385L710.231 69.7175L709.911 39.2535L707.911 39.2745ZM710.041 69.1419L685.785 35.6059L684.165 36.7781L708.421 70.3141L710.041 69.1419ZM684.975 35.192H669.551V37.192H684.975V35.192ZM668.551 36.192V38.368H670.551V36.192H668.551ZM669.439 39.3617L673.983 39.8737L674.207 37.8863L669.663 37.3743L669.439 39.3617ZM673.268 39.4415L674.484 41.2335L676.138 40.1105L674.922 38.3185L673.268 39.4415ZM674.311 40.6625L673.927 80.9185L675.927 80.9375L676.311 40.6815L674.311 40.6625ZM674.777 79.9394L668.889 80.8354L669.189 82.8126L675.077 81.9166L674.777 79.9394ZM668.039 81.824V84H670.039V81.824H668.039ZM669.039 85H686.831V83H669.039V85ZM687.831 84V81.824H685.831V84H687.831ZM686.942 80.8302L678.366 79.8702L678.144 81.8578L686.72 82.8178L686.942 80.8302ZM679.255 80.8535L678.871 44.3095L676.871 44.3305L677.255 80.8745L679.255 80.8535ZM677.055 44.8984L705.279 84.7064L706.911 83.5496L678.687 43.7416L677.055 44.8984ZM706.095 85.128H711.727V83.128H706.095V85.128ZM712.727 84.138L713.175 39.21L711.175 39.19L710.727 84.118L712.727 84.138ZM712.315 40.1902L718.203 39.3582L717.923 37.3778L712.035 38.2098L712.315 40.1902ZM719.063 38.368V36.192H717.063V38.368H719.063Z" fill="white"/>
<path d="M478 66C257 103.5 67.4998 -150.5 109 149C150.5 448.5 849.5 507.5 705 330.5C551.634 142.64 384 322 384 656M384 656L337 609M384 656L431 609" stroke="white"/>
<path d="M42.496 225.984H38.72L35.328 237.952C33.728 238.528 32.128 238.784 30.336 238.784C21.056 238.784 14.08 231.936 14.08 216.128C14.08 200.384 21.12 193.344 30.08 193.344C31.744 193.344 33.28 193.536 34.752 193.984L38.272 206.208H42.048L42.304 194.56C38.144 192.256 34.24 190.912 28.736 190.912C14.848 190.912 2.752 198.976 2.752 216.064C2.752 232.96 14.08 241.28 28.224 241.28C34.176 241.28 38.848 239.808 42.752 237.504L42.496 225.984ZM98.3685 194.368V192.192H76.2245V194.368L81.6005 194.88C81.7925 201.344 81.7925 207.936 81.7925 214.464H64.5765C64.5765 207.872 64.5765 201.28 64.7685 194.88L70.0805 194.368V192.192H47.9365V194.368L53.6325 194.944C53.6965 201.472 53.6965 208.064 53.6965 214.72V217.536C53.6965 224.192 53.6965 230.784 53.6325 237.248L47.9365 237.824V240H70.0805V237.824L64.7685 237.312C64.5765 230.784 64.5765 224.128 64.5765 216.896H81.7925C81.7925 224.256 81.7925 230.912 81.6005 237.248L76.2245 237.824V240H98.3685V237.824L92.7365 237.248C92.6085 230.656 92.6085 224.064 92.6085 217.536V214.72C92.6085 208.064 92.6085 201.408 92.7365 194.88L98.3685 194.368ZM114.824 222.592L121.224 200.704L128.2 222.592H114.824ZM143.816 237.248L128.456 192H121.8L107.336 237.056L102.024 237.824V240H116.68V237.824L110.664 236.992L114.184 224.832H128.904L132.808 237.184L127.112 237.824V240H148.936V237.824L143.816 237.248ZM162.08 216.064C162.08 203.008 165.6 193.344 173.472 193.344C181.28 193.344 184.864 203.008 184.864 216.064C184.864 229.248 181.28 238.848 173.472 238.848C165.6 238.848 162.08 229.248 162.08 216.064ZM173.472 190.912C161.504 190.912 150.752 199.552 150.752 216.064C150.752 232.768 161.44 241.28 173.472 241.28C185.568 241.28 196.128 232.704 196.128 216.064C196.128 199.488 185.504 190.912 173.472 190.912ZM219.099 210.048C214.619 208 212.187 205.632 212.187 201.216C212.187 196.416 215.771 193.6 221.339 193.6C222.939 193.6 224.219 193.792 225.499 194.368L228.763 204.992H232.475L233.051 194.56C229.531 192.256 225.051 190.912 220.059 190.912C209.627 190.912 202.651 195.84 202.651 204.48C202.651 212.16 207.195 216.448 215.771 220.288L218.843 221.632C223.963 223.872 225.819 226.176 225.819 230.528C225.819 235.52 222.299 238.528 215.963 238.528C213.531 238.528 211.611 238.272 209.691 237.568L206.299 226.432H202.587L202.139 237.44C205.979 239.936 211.803 241.28 217.051 241.28C229.083 241.28 235.547 235.456 235.547 226.944C235.547 219.712 232.027 215.872 222.491 211.584L219.099 210.048Z" fill="white"/>
<path d="M42.496 225.984L43.4958 225.962L43.474 224.984H42.496V225.984ZM38.72 225.984V224.984H37.964L37.7579 225.711L38.72 225.984ZM35.328 237.952L35.6667 238.893L36.15 238.719L36.2901 238.225L35.328 237.952ZM34.752 193.984L35.713 193.707L35.5627 193.185L35.0432 193.027L34.752 193.984ZM38.272 206.208L37.3111 206.485L37.5193 207.208H38.272V206.208ZM42.048 206.208V207.208H43.0263L43.0478 206.23L42.048 206.208ZM42.304 194.56L43.3038 194.582L43.317 193.978L42.7885 193.685L42.304 194.56ZM42.752 237.504L43.2603 238.365L43.7648 238.067L43.7518 237.482L42.752 237.504ZM42.496 224.984H38.72V226.984H42.496V224.984ZM37.7579 225.711L34.3659 237.679L36.2901 238.225L39.6821 226.257L37.7579 225.711ZM34.9893 237.011C33.5093 237.544 32.0253 237.784 30.336 237.784V239.784C32.2307 239.784 33.9467 239.512 35.6667 238.893L34.9893 237.011ZM30.336 237.784C25.9631 237.784 22.205 236.183 19.5137 232.765C16.7974 229.316 15.08 223.902 15.08 216.128H13.08C13.08 224.162 14.8506 230.076 17.9423 234.003C21.059 237.961 25.4289 239.784 30.336 239.784V237.784ZM15.08 216.128C15.08 208.39 16.8119 202.938 19.5114 199.443C22.188 195.979 25.8862 194.344 30.08 194.344V192.344C25.3138 192.344 21.012 194.229 17.9286 198.221C14.8681 202.182 13.08 208.122 13.08 216.128H15.08ZM30.08 194.344C31.6658 194.344 33.101 194.527 34.4608 194.941L35.0432 193.027C33.459 192.545 31.8222 192.344 30.08 192.344V194.344ZM33.791 194.261L37.3111 206.485L39.233 205.931L35.713 193.707L33.791 194.261ZM38.272 207.208H42.048V205.208H38.272V207.208ZM43.0478 206.23L43.3038 194.582L41.3042 194.538L41.0482 206.186L43.0478 206.23ZM42.7885 193.685C38.5123 191.317 34.4428 189.912 28.736 189.912V191.912C34.0372 191.912 37.7757 193.195 41.8195 195.435L42.7885 193.685ZM28.736 189.912C21.6082 189.912 14.8601 191.981 9.87866 196.326C4.87659 200.69 1.752 207.265 1.752 216.064H3.752C3.752 207.775 6.67541 201.774 11.1933 197.834C15.7319 193.875 21.9758 191.912 28.736 191.912V189.912ZM1.752 216.064C1.752 224.748 4.67152 231.337 9.51043 235.747C14.3345 240.143 20.9627 242.28 28.224 242.28V240.28C21.3413 240.28 15.2335 238.257 10.8576 234.269C6.49648 230.295 3.752 224.276 3.752 216.064H1.752ZM28.224 242.28C34.3551 242.28 39.2026 240.76 43.2603 238.365L42.2437 236.643C38.4934 238.856 33.9969 240.28 28.224 240.28V242.28ZM43.7518 237.482L43.4958 225.962L41.4963 226.006L41.7523 237.526L43.7518 237.482ZM98.3685 194.368L98.459 195.364L99.3685 195.281V194.368H98.3685ZM98.3685 192.192H99.3685V191.192H98.3685V192.192ZM76.2245 192.192V191.192H75.2245V192.192H76.2245ZM76.2245 194.368H75.2245V195.277L76.1297 195.363L76.2245 194.368ZM81.6005 194.88L82.6001 194.85L82.5739 193.968L81.6953 193.885L81.6005 194.88ZM81.7925 214.464V215.464H82.7925V214.464H81.7925ZM64.5765 214.464H63.5765V215.464H64.5765V214.464ZM64.7685 194.88L64.6726 193.885L63.7954 193.969L63.769 194.85L64.7685 194.88ZM70.0805 194.368L70.1764 195.363L71.0805 195.276V194.368H70.0805ZM70.0805 192.192H71.0805V191.192H70.0805V192.192ZM47.9365 192.192V191.192H46.9365V192.192H47.9365ZM47.9365 194.368H46.9365V195.272L47.8359 195.363L47.9365 194.368ZM53.6325 194.944L54.6325 194.934L54.6237 194.039L53.7331 193.949L53.6325 194.944ZM53.6325 237.248L53.7331 238.243L54.6236 238.153L54.6325 237.258L53.6325 237.248ZM47.9365 237.824L47.8359 236.829L46.9365 236.92V237.824H47.9365ZM47.9365 240H46.9365V241H47.9365V240ZM70.0805 240V241H71.0805V240H70.0805ZM70.0805 237.824H71.0805V236.916L70.1764 236.829L70.0805 237.824ZM64.7685 237.312L63.7689 237.341L63.7949 238.223L64.6726 238.307L64.7685 237.312ZM64.5765 216.896V215.896H63.5765V216.896H64.5765ZM81.7925 216.896H82.7925V215.896H81.7925V216.896ZM81.6005 237.248L81.707 238.242L82.5736 238.149L82.6 237.278L81.6005 237.248ZM76.2245 237.824L76.118 236.83L75.2245 236.925V237.824H76.2245ZM76.2245 240H75.2245V241H76.2245V240ZM98.3685 240V241H99.3685V240H98.3685ZM98.3685 237.824H99.3685V236.921L98.4702 236.829L98.3685 237.824ZM92.7365 237.248L91.7367 237.267L91.7539 238.153L92.6348 238.243L92.7365 237.248ZM92.7365 194.88L92.646 193.884L91.7542 193.965L91.7367 194.86L92.7365 194.88ZM99.3685 194.368V192.192H97.3685V194.368H99.3685ZM98.3685 191.192H76.2245V193.192H98.3685V191.192ZM75.2245 192.192V194.368H77.2245V192.192H75.2245ZM76.1297 195.363L81.5057 195.875L81.6953 193.885L76.3193 193.373L76.1297 195.363ZM80.6009 194.91C80.7924 201.356 80.7925 207.933 80.7925 214.464H82.7925C82.7925 207.939 82.7926 201.332 82.6001 194.85L80.6009 194.91ZM81.7925 213.464H64.5765V215.464H81.7925V213.464ZM65.5765 214.464C65.5765 207.869 65.5766 201.292 65.7681 194.91L63.769 194.85C63.5764 201.268 63.5765 207.875 63.5765 214.464H65.5765ZM64.8644 195.875L70.1764 195.363L69.9846 193.373L64.6726 193.885L64.8644 195.875ZM71.0805 194.368V192.192H69.0805V194.368H71.0805ZM70.0805 191.192H47.9365V193.192H70.0805V191.192ZM46.9365 192.192V194.368H48.9365V192.192H46.9365ZM47.8359 195.363L53.5319 195.939L53.7331 193.949L48.0371 193.373L47.8359 195.363ZM52.6325 194.954C52.6965 201.476 52.6965 208.063 52.6965 214.72H54.6965C54.6965 208.065 54.6965 201.468 54.6325 194.934L52.6325 194.954ZM52.6965 214.72V217.536H54.6965V214.72H52.6965ZM52.6965 217.536C52.6965 224.193 52.6965 230.78 52.6325 237.238L54.6325 237.258C54.6965 230.788 54.6965 224.191 54.6965 217.536H52.6965ZM53.5319 236.253L47.8359 236.829L48.0371 238.819L53.7331 238.243L53.5319 236.253ZM46.9365 237.824V240H48.9365V237.824H46.9365ZM47.9365 241H70.0805V239H47.9365V241ZM71.0805 240V237.824H69.0805V240H71.0805ZM70.1764 236.829L64.8644 236.317L64.6726 238.307L69.9846 238.819L70.1764 236.829ZM65.7681 237.283C65.5766 230.772 65.5765 224.131 65.5765 216.896H63.5765C63.5765 224.125 63.5764 230.796 63.7689 237.341L65.7681 237.283ZM64.5765 217.896H81.7925V215.896H64.5765V217.896ZM80.7925 216.896C80.7925 224.259 80.7924 230.9 80.601 237.218L82.6 237.278C82.7926 230.924 82.7925 224.253 82.7925 216.896H80.7925ZM81.494 236.254L76.118 236.83L76.331 238.818L81.707 238.242L81.494 236.254ZM75.2245 237.824V240H77.2245V237.824H75.2245ZM76.2245 241H98.3685V239H76.2245V241ZM99.3685 240V237.824H97.3685V240H99.3685ZM98.4702 236.829L92.8382 236.253L92.6348 238.243L98.2668 238.819L98.4702 236.829ZM93.7363 237.229C93.6085 230.648 93.6085 224.066 93.6085 217.536H91.6085C91.6085 224.062 91.6085 230.664 91.7367 237.267L93.7363 237.229ZM93.6085 217.536V214.72H91.6085V217.536H93.6085ZM93.6085 214.72C93.6085 208.062 93.6085 201.416 93.7363 194.9L91.7367 194.86C91.6085 201.4 91.6085 208.066 91.6085 214.72H93.6085ZM92.827 195.876L98.459 195.364L98.278 193.372L92.646 193.884L92.827 195.876ZM114.824 222.592L113.864 222.311L113.49 223.592H114.824V222.592ZM121.224 200.704L122.177 200.4L121.183 197.282L120.264 200.423L121.224 200.704ZM128.2 222.592V223.592H129.568L129.153 222.288L128.2 222.592ZM143.816 237.248L142.869 237.569L143.073 238.171L143.704 238.242L143.816 237.248ZM128.456 192L129.403 191.679L129.173 191H128.456V192ZM121.8 192V191H121.071L120.848 191.694L121.8 192ZM107.336 237.056L107.479 238.046L108.097 237.956L108.288 237.362L107.336 237.056ZM102.024 237.824L101.881 236.834L101.024 236.958V237.824H102.024ZM102.024 240H101.024V241H102.024V240ZM116.68 240V241H117.68V240H116.68ZM116.68 237.824H117.68V236.953L116.817 236.833L116.68 237.824ZM110.664 236.992L109.703 236.714L109.382 237.824L110.527 237.983L110.664 236.992ZM114.184 224.832V223.832H113.432L113.223 224.554L114.184 224.832ZM128.904 224.832L129.858 224.531L129.637 223.832H128.904V224.832ZM132.808 237.184L132.92 238.178L134.128 238.042L133.762 236.883L132.808 237.184ZM127.112 237.824L127 236.83L126.112 236.93V237.824H127.112ZM127.112 240H126.112V241H127.112V240ZM148.936 240V241H149.936V240H148.936ZM148.936 237.824H149.936V236.93L149.048 236.83L148.936 237.824ZM115.784 222.873L122.184 200.985L120.264 200.423L113.864 222.311L115.784 222.873ZM120.271 201.008L127.247 222.896L129.153 222.288L122.177 200.4L120.271 201.008ZM128.2 221.592H114.824V223.592H128.2V221.592ZM144.763 236.927L129.403 191.679L127.509 192.321L142.869 237.569L144.763 236.927ZM128.456 191H121.8V193H128.456V191ZM120.848 191.694L106.384 236.75L108.288 237.362L122.752 192.306L120.848 191.694ZM107.193 236.066L101.881 236.834L102.167 238.814L107.479 238.046L107.193 236.066ZM101.024 237.824V240H103.024V237.824H101.024ZM102.024 241H116.68V239H102.024V241ZM117.68 240V237.824H115.68V240H117.68ZM116.817 236.833L110.801 236.001L110.527 237.983L116.543 238.815L116.817 236.833ZM111.625 237.27L115.145 225.11L113.223 224.554L109.703 236.714L111.625 237.27ZM114.184 225.832H128.904V223.832H114.184V225.832ZM127.95 225.133L131.854 237.485L133.762 236.883L129.858 224.531L127.95 225.133ZM132.696 236.19L127 236.83L127.224 238.818L132.92 238.178L132.696 236.19ZM126.112 237.824V240H128.112V237.824H126.112ZM127.112 241H148.936V239H127.112V241ZM149.936 240V237.824H147.936V240H149.936ZM149.048 236.83L143.928 236.254L143.704 238.242L148.824 238.818L149.048 236.83ZM163.08 216.064C163.08 209.601 163.955 204.086 165.732 200.226C167.495 196.398 170.056 194.344 173.472 194.344V192.344C169.016 192.344 165.881 195.122 163.916 199.39C161.965 203.626 161.08 209.471 161.08 216.064H163.08ZM173.472 194.344C176.854 194.344 179.416 196.395 181.188 200.228C182.974 204.088 183.864 209.603 183.864 216.064H185.864C185.864 209.469 184.962 203.624 183.004 199.388C181.032 195.125 177.898 192.344 173.472 192.344V194.344ZM183.864 216.064C183.864 222.59 182.973 228.12 181.188 231.98C179.417 235.81 176.857 237.848 173.472 237.848V239.848C177.895 239.848 181.031 237.086 183.004 232.82C184.963 228.584 185.864 222.722 185.864 216.064H183.864ZM173.472 237.848C170.054 237.848 167.494 235.808 165.732 231.982C163.955 228.122 163.08 222.592 163.08 216.064H161.08C161.08 222.72 161.965 228.582 163.916 232.818C165.882 237.088 169.018 239.848 173.472 239.848V237.848ZM173.472 189.912C167.247 189.912 161.303 192.161 156.914 196.592C152.519 201.029 149.752 207.583 149.752 216.064H151.752C151.752 208.033 154.361 202.011 158.334 198C162.313 193.983 167.729 191.912 173.472 191.912V189.912ZM149.752 216.064C149.752 224.637 152.5 231.208 156.89 235.64C161.274 240.066 167.22 242.28 173.472 242.28V240.28C167.692 240.28 162.278 238.238 158.31 234.232C154.348 230.232 151.752 224.195 151.752 216.064H149.752ZM173.472 242.28C179.758 242.28 185.689 240.049 190.049 235.613C194.414 231.173 197.128 224.602 197.128 216.064H195.128C195.128 224.166 192.562 230.203 188.623 234.211C184.679 238.223 179.282 240.28 173.472 240.28V242.28ZM197.128 216.064C197.128 207.555 194.396 201.001 190.024 196.57C185.657 192.144 179.727 189.912 173.472 189.912V191.912C179.249 191.912 184.647 193.968 188.6 197.974C192.548 201.975 195.128 207.997 195.128 216.064H197.128ZM219.099 210.048L218.683 210.957L218.686 210.959L219.099 210.048ZM225.499 194.368L226.455 194.074L226.322 193.642L225.909 193.456L225.499 194.368ZM228.763 204.992L227.807 205.286L228.024 205.992H228.763V204.992ZM232.475 204.992V205.992H233.421L233.473 205.047L232.475 204.992ZM233.051 194.56L234.049 194.615L234.081 194.039L233.599 193.723L233.051 194.56ZM215.771 220.288L215.362 221.201L215.37 221.204L215.771 220.288ZM218.843 221.632L218.442 222.548L218.843 221.632ZM209.691 237.568L208.734 237.859L208.879 238.336L209.347 238.507L209.691 237.568ZM206.299 226.432L207.256 226.141L207.04 225.432H206.299V226.432ZM202.587 226.432V225.432H201.627L201.588 226.391L202.587 226.432ZM202.139 237.44L201.14 237.399L201.117 237.968L201.594 238.278L202.139 237.44ZM222.491 211.584L222.078 212.495L222.081 212.496L222.491 211.584ZM219.515 209.139C217.329 208.139 215.758 207.111 214.731 205.879C213.73 204.68 213.187 203.218 213.187 201.216H211.187C211.187 203.63 211.86 205.56 213.195 207.161C214.504 208.729 216.389 209.909 218.683 210.957L219.515 209.139ZM213.187 201.216C213.187 199.087 213.97 197.478 215.309 196.382C216.672 195.265 218.712 194.6 221.339 194.6V192.6C218.398 192.6 215.862 193.343 214.041 194.834C212.196 196.346 211.187 198.545 211.187 201.216H213.187ZM221.339 194.6C222.852 194.6 223.979 194.781 225.089 195.28L225.909 193.456C224.459 192.803 223.026 192.6 221.339 192.6V194.6ZM224.543 194.662L227.807 205.286L229.719 204.698L226.455 194.074L224.543 194.662ZM228.763 205.992H232.475V203.992H228.763V205.992ZM233.473 205.047L234.049 194.615L232.053 194.505L231.477 204.937L233.473 205.047ZM233.599 193.723C229.903 191.304 225.229 189.912 220.059 189.912V191.912C224.873 191.912 229.159 193.208 232.503 195.397L233.599 193.723ZM220.059 189.912C214.7 189.912 210.112 191.176 206.839 193.659C203.532 196.167 201.651 199.859 201.651 204.48H203.651C203.651 200.461 205.258 197.369 208.047 195.253C210.87 193.112 214.986 191.912 220.059 191.912V189.912ZM201.651 204.48C201.651 208.545 202.864 211.777 205.244 214.484C207.592 217.156 211.026 219.259 215.362 221.201L216.18 219.375C211.94 217.477 208.814 215.516 206.746 213.164C204.71 210.847 203.651 208.095 203.651 204.48H201.651ZM215.37 221.204L218.442 222.548L219.244 220.716L216.172 219.372L215.37 221.204ZM218.442 222.548C220.948 223.644 222.513 224.699 223.466 225.907C224.392 227.082 224.819 228.505 224.819 230.528H226.819C226.819 228.199 226.318 226.294 225.036 224.669C223.781 223.077 221.858 221.86 219.244 220.716L218.442 222.548ZM224.819 230.528C224.819 232.771 224.04 234.469 222.632 235.628C221.196 236.809 218.987 237.528 215.963 237.528V239.528C219.275 239.528 221.994 238.743 223.902 237.172C225.838 235.579 226.819 233.277 226.819 230.528H224.819ZM215.963 237.528C213.607 237.528 211.812 237.281 210.035 236.629L209.347 238.507C211.41 239.263 213.455 239.528 215.963 239.528V237.528ZM210.648 237.277L207.256 226.141L205.342 226.723L208.734 237.859L210.648 237.277ZM206.299 225.432H202.587V227.432H206.299V225.432ZM201.588 226.391L201.14 237.399L203.138 237.481L203.586 226.473L201.588 226.391ZM201.594 238.278C205.643 240.91 211.674 242.28 217.051 242.28V240.28C211.932 240.28 206.315 238.962 202.684 236.602L201.594 238.278ZM217.051 242.28C223.216 242.28 228.088 240.789 231.439 238.082C234.815 235.355 236.547 231.475 236.547 226.944H234.547C234.547 230.925 233.047 234.213 230.183 236.526C227.294 238.859 222.918 240.28 217.051 240.28V242.28ZM236.547 226.944C236.547 223.141 235.612 220.125 233.352 217.507C231.133 214.936 227.704 212.832 222.901 210.672L222.081 212.496C226.814 214.624 229.913 216.584 231.838 218.813C233.722 220.995 234.547 223.515 234.547 226.944H236.547ZM222.904 210.673L219.512 209.137L218.686 210.959L222.078 212.495L222.904 210.673Z" fill="white"/>
<path d="M617.488 338.664H614.032L610.832 350.504H597.52C597.392 343.848 597.392 337.192 597.392 330.856V326.696C597.392 320.936 597.392 314.408 597.52 307.944L603.792 307.368V305.192H580.624V307.368L586.384 307.88C586.576 314.472 586.576 321.064 586.576 327.72V332.264C586.576 337.384 586.576 343.848 586.384 350.248L580.688 350.824L580.624 353H617.616L617.488 338.664ZM644.591 307.368V305.192H621.999V307.368L627.759 307.88C627.951 314.472 627.951 321.064 627.951 327.72V330.536C627.951 337.192 627.951 343.784 627.759 350.248L621.999 350.824V353H644.591V350.824L638.895 350.248C638.767 343.656 638.767 337.064 638.767 330.472V327.72C638.767 321.064 638.767 314.408 638.895 307.88L644.591 307.368ZM694.375 329.512H672.999V331.688L679.847 332.52C679.975 337.32 680.039 341.864 680.039 346.6V351.4C678.695 351.72 677.287 351.848 675.815 351.848C667.239 351.848 660.455 343.336 660.455 329.064C660.455 313.704 667.431 306.344 676.455 306.344C678.311 306.344 679.847 306.6 681.383 307.24L684.711 319.08H688.679L688.935 307.368C684.967 305.128 680.551 303.912 675.047 303.912C659.623 303.912 649.127 313.512 649.127 329C649.127 344.872 659.431 354.28 674.599 354.28C680.679 354.28 685.223 353 690.215 350.056V346.92C690.215 341.672 690.279 336.872 690.407 332.2L694.375 331.688V329.512ZM747.869 307.368V305.192H725.725V307.368L731.101 307.88C731.293 314.344 731.293 320.936 731.293 327.464H714.077C714.077 320.872 714.077 314.28 714.269 307.88L719.581 307.368V305.192H697.437V307.368L703.133 307.944C703.197 314.472 703.197 321.064 703.197 327.72V330.536C703.197 337.192 703.197 343.784 703.133 350.248L697.437 350.824V353H719.581V350.824L714.269 350.312C714.077 343.784 714.077 337.128 714.077 329.896H731.293C731.293 337.256 731.293 343.912 731.101 350.248L725.725 350.824V353H747.869V350.824L742.237 350.248C742.109 343.656 742.109 337.064 742.109 330.536V327.72C742.109 321.064 742.109 314.408 742.237 307.88L747.869 307.368ZM787.748 307.688L791.012 318.888H794.724L794.468 305.192H752.228L751.972 318.888H755.748L758.948 307.688H767.78C767.908 314.28 767.908 321 767.908 327.72V330.536C767.908 337.192 767.908 343.784 767.78 350.184L761.316 350.824V353H785.38V350.824L778.852 350.184C778.724 343.656 778.724 337 778.724 330.472V327.72C778.724 320.936 778.724 314.28 778.852 307.688H787.748Z" fill="white"/>
<path d="M617.488 338.664L618.488 338.655L618.479 337.664H617.488V338.664ZM614.032 338.664V337.664H613.266L613.067 338.403L614.032 338.664ZM610.832 350.504V351.504H611.598L611.797 350.765L610.832 350.504ZM597.52 350.504L596.52 350.523L596.539 351.504H597.52V350.504ZM597.52 307.944L597.429 306.948L596.538 307.03L596.52 307.924L597.52 307.944ZM603.792 307.368L603.883 308.364L604.792 308.28V307.368H603.792ZM603.792 305.192H604.792V304.192H603.792V305.192ZM580.624 305.192V304.192H579.624V305.192H580.624ZM580.624 307.368H579.624V308.283L580.535 308.364L580.624 307.368ZM586.384 307.88L587.384 307.851L587.358 306.963L586.473 306.884L586.384 307.88ZM586.384 350.248L586.485 351.243L587.357 351.155L587.384 350.278L586.384 350.248ZM580.688 350.824L580.587 349.829L579.714 349.917L579.688 350.795L580.688 350.824ZM580.624 353L579.624 352.971L579.594 354H580.624V353ZM617.616 353V354H618.625L618.616 352.991L617.616 353ZM617.488 337.664H614.032V339.664H617.488V337.664ZM613.067 338.403L609.867 350.243L611.797 350.765L614.997 338.925L613.067 338.403ZM610.832 349.504H597.52V351.504H610.832V349.504ZM598.52 350.485C598.392 343.84 598.392 337.193 598.392 330.856H596.392C596.392 337.191 596.392 343.856 596.52 350.523L598.52 350.485ZM598.392 330.856V326.696H596.392V330.856H598.392ZM598.392 326.696C598.392 320.935 598.392 314.416 598.52 307.964L596.52 307.924C596.392 314.4 596.392 320.937 596.392 326.696H598.392ZM597.611 308.94L603.883 308.364L603.701 306.372L597.429 306.948L597.611 308.94ZM604.792 307.368V305.192H602.792V307.368H604.792ZM603.792 304.192H580.624V306.192H603.792V304.192ZM579.624 305.192V307.368H581.624V305.192H579.624ZM580.535 308.364L586.295 308.876L586.473 306.884L580.713 306.372L580.535 308.364ZM585.384 307.909C585.576 314.484 585.576 321.062 585.576 327.72H587.576C587.576 321.066 587.576 314.46 587.384 307.851L585.384 307.909ZM585.576 327.72V332.264H587.576V327.72H585.576ZM585.576 332.264C585.576 337.386 585.576 343.835 585.384 350.218L587.384 350.278C587.576 343.861 587.576 337.382 587.576 332.264H585.576ZM586.283 349.253L580.587 349.829L580.789 351.819L586.485 351.243L586.283 349.253ZM579.688 350.795L579.624 352.971L581.624 353.029L581.688 350.853L579.688 350.795ZM580.624 354H617.616V352H580.624V354ZM618.616 352.991L618.488 338.655L616.488 338.673L616.616 353.009L618.616 352.991ZM644.591 307.368L644.681 308.364L645.591 308.282V307.368H644.591ZM644.591 305.192H645.591V304.192H644.591V305.192ZM621.999 305.192V304.192H620.999V305.192H621.999ZM621.999 307.368H620.999V308.283L621.91 308.364L621.999 307.368ZM627.759 307.88L628.759 307.851L628.733 306.963L627.848 306.884L627.759 307.88ZM627.759 350.248L627.859 351.243L628.732 351.156L628.759 350.278L627.759 350.248ZM621.999 350.824L621.899 349.829L620.999 349.919V350.824H621.999ZM621.999 353H620.999V354H621.999V353ZM644.591 353V354H645.591V353H644.591ZM644.591 350.824H645.591V349.92L644.692 349.829L644.591 350.824ZM638.895 350.248L637.895 350.267L637.912 351.154L638.794 351.243L638.895 350.248ZM638.895 307.88L638.805 306.884L637.913 306.964L637.895 307.86L638.895 307.88ZM645.591 307.368V305.192H643.591V307.368H645.591ZM644.591 304.192H621.999V306.192H644.591V304.192ZM620.999 305.192V307.368H622.999V305.192H620.999ZM621.91 308.364L627.67 308.876L627.848 306.884L622.088 306.372L621.91 308.364ZM626.759 307.909C626.951 314.484 626.951 321.062 626.951 327.72H628.951C628.951 321.066 628.951 314.46 628.759 307.851L626.759 307.909ZM626.951 327.72V330.536H628.951V327.72H626.951ZM626.951 330.536C626.951 337.195 626.951 343.772 626.759 350.218L628.759 350.278C628.951 343.796 628.951 337.189 628.951 330.536H626.951ZM627.659 349.253L621.899 349.829L622.099 351.819L627.859 351.243L627.659 349.253ZM620.999 350.824V353H622.999V350.824H620.999ZM621.999 354H644.591V352H621.999V354ZM645.591 353V350.824H643.591V353H645.591ZM644.692 349.829L638.996 349.253L638.794 351.243L644.49 351.819L644.692 349.829ZM639.895 350.229C639.767 343.648 639.767 337.066 639.767 330.472H637.767C637.767 337.062 637.767 343.664 637.895 350.267L639.895 350.229ZM639.767 330.472V327.72H637.767V330.472H639.767ZM639.767 327.72C639.767 321.062 639.767 314.416 639.895 307.9L637.895 307.86C637.767 314.4 637.767 321.066 637.767 327.72H639.767ZM638.985 308.876L644.681 308.364L644.501 306.372L638.805 306.884L638.985 308.876ZM694.375 329.512H695.375V328.512H694.375V329.512ZM672.999 329.512V328.512H671.999V329.512H672.999ZM672.999 331.688H671.999V332.574L672.878 332.681L672.999 331.688ZM679.847 332.52L680.847 332.493L680.824 331.631L679.968 331.527L679.847 332.52ZM680.039 351.4L680.271 352.373L681.039 352.19V351.4H680.039ZM681.383 307.24L682.346 306.969L682.215 306.503L681.768 306.317L681.383 307.24ZM684.711 319.08L683.748 319.351L683.953 320.08H684.711V319.08ZM688.679 319.08V320.08H689.657L689.679 319.102L688.679 319.08ZM688.935 307.368L689.935 307.39L689.948 306.791L689.427 306.497L688.935 307.368ZM690.215 350.056L690.723 350.917L691.215 350.627V350.056H690.215ZM690.407 332.2L690.279 331.208L689.431 331.318L689.407 332.173L690.407 332.2ZM694.375 331.688L694.503 332.68L695.375 332.567V331.688H694.375ZM694.375 328.512H672.999V330.512H694.375V328.512ZM671.999 329.512V331.688H673.999V329.512H671.999ZM672.878 332.681L679.726 333.513L679.968 331.527L673.12 330.695L672.878 332.681ZM678.847 332.547C678.975 337.338 679.039 341.873 679.039 346.6H681.039C681.039 341.855 680.975 337.302 680.847 332.493L678.847 332.547ZM679.039 346.6V351.4H681.039V346.6H679.039ZM679.807 350.427C678.558 350.725 677.23 350.848 675.815 350.848V352.848C677.344 352.848 678.832 352.715 680.271 352.373L679.807 350.427ZM675.815 350.848C671.893 350.848 668.341 348.914 665.735 345.23C663.117 341.53 661.455 336.053 661.455 329.064H659.455C659.455 336.347 661.185 342.262 664.103 346.386C667.033 350.526 671.161 352.848 675.815 352.848V350.848ZM661.455 329.064C661.455 321.521 663.169 316.081 665.866 312.551C668.541 309.049 672.241 307.344 676.455 307.344V305.344C671.645 305.344 667.345 307.319 664.276 311.337C661.229 315.327 659.455 321.247 659.455 329.064H661.455ZM676.455 307.344C678.209 307.344 679.609 307.584 680.998 308.163L681.768 306.317C680.085 305.616 678.413 305.344 676.455 305.344V307.344ZM680.42 307.511L683.748 319.351L685.674 318.809L682.346 306.969L680.42 307.511ZM684.711 320.08H688.679V318.08H684.711V320.08ZM689.679 319.102L689.935 307.39L687.935 307.346L687.679 319.058L689.679 319.102ZM689.427 306.497C685.3 304.168 680.713 302.912 675.047 302.912V304.912C680.389 304.912 684.634 306.088 688.443 308.239L689.427 306.497ZM675.047 302.912C667.128 302.912 660.384 305.379 655.613 309.924C650.837 314.474 648.127 321.021 648.127 329H650.127C650.127 321.491 652.665 315.494 656.993 311.372C661.326 307.245 667.542 304.912 675.047 304.912V302.912ZM648.127 329C648.127 337.159 650.781 343.755 655.479 348.31C660.172 352.861 666.808 355.28 674.599 355.28V353.28C667.222 353.28 661.122 350.995 656.871 346.874C652.625 342.757 650.127 336.713 650.127 329H648.127ZM674.599 355.28C680.858 355.28 685.577 353.952 690.723 350.917L689.707 349.195C684.869 352.048 680.5 353.28 674.599 353.28V355.28ZM691.215 350.056V346.92H689.215V350.056H691.215ZM691.215 346.92C691.215 341.68 691.279 336.889 691.407 332.227L689.407 332.173C689.279 336.854 689.215 341.664 689.215 346.92H691.215ZM690.535 333.192L694.503 332.68L694.247 330.696L690.279 331.208L690.535 333.192ZM695.375 331.688V329.512H693.375V331.688H695.375ZM747.868 307.368L747.959 308.364L748.868 308.281V307.368H747.868ZM747.868 305.192H748.868V304.192H747.868V305.192ZM725.725 305.192V304.192H724.725V305.192H725.725ZM725.725 307.368H724.725V308.277L725.63 308.363L725.725 307.368ZM731.1 307.88L732.1 307.85L732.074 306.968L731.195 306.885L731.1 307.88ZM731.293 327.464V328.464H732.293V327.464H731.293ZM714.077 327.464H713.077V328.464H714.077V327.464ZM714.268 307.88L714.173 306.885L713.295 306.969L713.269 307.85L714.268 307.88ZM719.581 307.368L719.676 308.363L720.581 308.276V307.368H719.581ZM719.581 305.192H720.581V304.192H719.581V305.192ZM697.437 305.192V304.192H696.437V305.192H697.437ZM697.437 307.368H696.437V308.272L697.336 308.363L697.437 307.368ZM703.132 307.944L704.132 307.934L704.124 307.039L703.233 306.949L703.132 307.944ZM703.132 350.248L703.233 351.243L704.124 351.153L704.132 350.258L703.132 350.248ZM697.437 350.824L697.336 349.829L696.437 349.92V350.824H697.437ZM697.437 353H696.437V354H697.437V353ZM719.581 353V354H720.581V353H719.581ZM719.581 350.824H720.581V349.916L719.676 349.829L719.581 350.824ZM714.268 350.312L713.269 350.341L713.295 351.223L714.173 351.307L714.268 350.312ZM714.077 329.896V328.896H713.077V329.896H714.077ZM731.293 329.896H732.293V328.896H731.293V329.896ZM731.1 350.248L731.207 351.242L732.074 351.149L732.1 350.278L731.1 350.248ZM725.725 350.824L725.618 349.83L724.725 349.925V350.824H725.725ZM725.725 353H724.725V354H725.725V353ZM747.868 353V354H748.868V353H747.868ZM747.868 350.824H748.868V349.921L747.97 349.829L747.868 350.824ZM742.237 350.248L741.237 350.267L741.254 351.153L742.135 351.243L742.237 350.248ZM742.237 307.88L742.146 306.884L741.254 306.965L741.237 307.86L742.237 307.88ZM748.868 307.368V305.192H746.868V307.368H748.868ZM747.868 304.192H725.725V306.192H747.868V304.192ZM724.725 305.192V307.368H726.725V305.192H724.725ZM725.63 308.363L731.006 308.875L731.195 306.885L725.819 306.373L725.63 308.363ZM730.101 307.91C730.292 314.356 730.293 320.933 730.293 327.464H732.293C732.293 320.939 732.293 314.332 732.1 307.85L730.101 307.91ZM731.293 326.464H714.077V328.464H731.293V326.464ZM715.077 327.464C715.077 320.869 715.077 314.292 715.268 307.91L713.269 307.85C713.076 314.268 713.077 320.875 713.077 327.464H715.077ZM714.364 308.875L719.676 308.363L719.485 306.373L714.173 306.885L714.364 308.875ZM720.581 307.368V305.192H718.581V307.368H720.581ZM719.581 304.192H697.437V306.192H719.581V304.192ZM696.437 305.192V307.368H698.437V305.192H696.437ZM697.336 308.363L703.032 308.939L703.233 306.949L697.537 306.373L697.336 308.363ZM702.133 307.954C702.196 314.476 702.197 321.063 702.197 327.72H704.197C704.197 321.065 704.197 314.468 704.132 307.934L702.133 307.954ZM702.197 327.72V330.536H704.197V327.72H702.197ZM702.197 330.536C702.197 337.193 702.196 343.78 702.133 350.238L704.132 350.258C704.197 343.788 704.197 337.191 704.197 330.536H702.197ZM703.032 349.253L697.336 349.829L697.537 351.819L703.233 351.243L703.032 349.253ZM696.437 350.824V353H698.437V350.824H696.437ZM697.437 354H719.581V352H697.437V354ZM720.581 353V350.824H718.581V353H720.581ZM719.676 349.829L714.364 349.317L714.173 351.307L719.485 351.819L719.676 349.829ZM715.268 350.283C715.077 343.772 715.077 337.131 715.077 329.896H713.077C713.077 337.125 713.076 343.796 713.269 350.341L715.268 350.283ZM714.077 330.896H731.293V328.896H714.077V330.896ZM730.293 329.896C730.293 337.259 730.292 343.9 730.101 350.218L732.1 350.278C732.293 343.924 732.293 337.253 732.293 329.896H730.293ZM730.994 349.254L725.618 349.83L725.831 351.818L731.207 351.242L730.994 349.254ZM724.725 350.824V353H726.725V350.824H724.725ZM725.725 354H747.868V352H725.725V354ZM748.868 353V350.824H746.868V353H748.868ZM747.97 349.829L742.338 349.253L742.135 351.243L747.767 351.819L747.97 349.829ZM743.236 350.229C743.109 343.648 743.109 337.066 743.109 330.536H741.109C741.109 337.062 741.108 343.664 741.237 350.267L743.236 350.229ZM743.109 330.536V327.72H741.109V330.536H743.109ZM743.109 327.72C743.109 321.062 743.109 314.416 743.236 307.9L741.237 307.86C741.108 314.4 741.109 321.066 741.109 327.72H743.109ZM742.327 308.876L747.959 308.364L747.778 306.372L742.146 306.884L742.327 308.876ZM787.748 307.688L788.708 307.408L788.498 306.688H787.748V307.688ZM791.012 318.888L790.052 319.168L790.262 319.888H791.012V318.888ZM794.724 318.888V319.888H795.743L795.724 318.869L794.724 318.888ZM794.468 305.192L795.468 305.173L795.449 304.192H794.468V305.192ZM752.228 305.192V304.192H751.247L751.228 305.173L752.228 305.192ZM751.972 318.888L750.972 318.869L750.953 319.888H751.972V318.888ZM755.748 318.888V319.888H756.502L756.71 319.163L755.748 318.888ZM758.948 307.688V306.688H758.194L757.986 307.413L758.948 307.688ZM767.78 307.688L768.78 307.669L768.761 306.688H767.78V307.688ZM767.78 350.184L767.879 351.179L768.762 351.092L768.78 350.204L767.78 350.184ZM761.316 350.824L761.217 349.829L760.316 349.918V350.824H761.316ZM761.316 353H760.316V354H761.316V353ZM785.38 353V354H786.38V353H785.38ZM785.38 350.824H786.38V349.917L785.478 349.829L785.38 350.824ZM778.852 350.184L777.852 350.204L777.87 351.092L778.754 351.179L778.852 350.184ZM778.852 307.688V306.688H777.871L777.852 307.669L778.852 307.688ZM786.788 307.968L790.052 319.168L791.972 318.608L788.708 307.408L786.788 307.968ZM791.012 319.888H794.724V317.888H791.012V319.888ZM795.724 318.869L795.468 305.173L793.468 305.211L793.724 318.907L795.724 318.869ZM794.468 304.192H752.228V306.192H794.468V304.192ZM751.228 305.173L750.972 318.869L752.972 318.907L753.228 305.211L751.228 305.173ZM751.972 319.888H755.748V317.888H751.972V319.888ZM756.71 319.163L759.91 307.963L757.986 307.413L754.786 318.613L756.71 319.163ZM758.948 308.688H767.78V306.688H758.948V308.688ZM766.78 307.707C766.908 314.288 766.908 320.998 766.908 327.72H768.908C768.908 321.002 768.908 314.272 768.78 307.669L766.78 307.707ZM766.908 327.72V330.536H768.908V327.72H766.908ZM766.908 330.536C766.908 337.194 766.908 343.776 766.78 350.164L768.78 350.204C768.908 343.792 768.908 337.19 768.908 330.536H766.908ZM767.681 349.189L761.217 349.829L761.415 351.819L767.879 351.179L767.681 349.189ZM760.316 350.824V353H762.316V350.824H760.316ZM761.316 354H785.38V352H761.316V354ZM786.38 353V350.824H784.38V353H786.38ZM785.478 349.829L778.95 349.189L778.754 351.179L785.282 351.819L785.478 349.829ZM779.852 350.164C779.724 343.648 779.724 337.002 779.724 330.472H777.724C777.724 336.998 777.724 343.664 777.852 350.204L779.852 350.164ZM779.724 330.472V327.72H777.724V330.472H779.724ZM779.724 327.72C779.724 320.934 779.724 314.288 779.852 307.707L777.852 307.669C777.724 314.272 777.724 320.938 777.724 327.72H779.724ZM778.852 308.688H787.748V306.688H778.852V308.688Z" fill="white"/>
</svg>
