<svg width="978" height="350" viewBox="0 0 978 350" fill="none" xmlns="http://www.w3.org/2000/svg">
<circle cx="175" cy="175" r="173" fill="black" stroke="#66B2FF" stroke-width="4"/>
<path d="M33.7475 134.864V152H35.7155V144.032H44.7155V142.328H35.7155V136.568H45.2195V134.864H33.7475ZM52.9031 139.256C51.0311 139.256 49.5671 139.88 48.4631 141.176C47.4071 142.4 46.8791 143.936 46.8791 145.808C46.8791 147.656 47.4071 149.192 48.4631 150.392C49.5671 151.688 51.0311 152.336 52.9031 152.336C54.7511 152.336 56.2391 151.688 57.3671 150.392C58.3991 149.192 58.9271 147.656 58.9271 145.808C58.9271 143.936 58.3991 142.4 57.3431 141.176C56.2391 139.88 54.7511 139.256 52.9031 139.256ZM52.9031 140.864C54.1991 140.864 55.2311 141.368 55.9991 142.376C56.6471 143.288 56.9831 144.416 56.9831 145.808C56.9831 147.152 56.6471 148.304 55.9991 149.216C55.2311 150.224 54.1991 150.728 52.9031 150.728C51.5831 150.728 50.5511 150.224 49.8311 149.216C49.1591 148.304 48.8471 147.176 48.8471 145.808C48.8471 144.416 49.1591 143.288 49.8311 142.376C50.5511 141.368 51.5831 140.864 52.9031 140.864ZM66.8696 139.256C66.0056 139.256 65.2616 139.52 64.6136 140.048C64.0856 140.456 63.6536 141.032 63.3176 141.752V139.592H61.4216V152H63.3176V145.424C63.3176 144.272 63.6296 143.288 64.3016 142.472C64.9496 141.608 65.7656 141.2 66.7256 141.2C67.3256 141.2 67.9496 141.272 68.5736 141.464V139.544C68.1176 139.352 67.5416 139.256 66.8696 139.256ZM75.6112 139.256C74.2192 139.256 73.0432 139.904 72.1072 141.248V139.592H70.1872V152H72.1072V144.44C72.1072 143.456 72.3952 142.616 72.9712 141.944C73.5472 141.224 74.2672 140.888 75.1552 140.888C77.0512 140.888 78.0112 141.968 78.0112 144.176V152H79.9312V144.224C79.9312 143.216 80.1952 142.424 80.7712 141.8C81.2992 141.176 81.9952 140.888 82.8112 140.888C83.8672 140.888 84.6352 141.152 85.1152 141.728C85.5712 142.256 85.8112 143.072 85.8112 144.176V152H87.7312V143.864C87.7312 142.448 87.3232 141.32 86.5552 140.48C85.7392 139.664 84.7072 139.256 83.4112 139.256C82.5472 139.256 81.8272 139.448 81.2272 139.832C80.5552 140.192 79.9792 140.792 79.4992 141.608C78.8032 140.024 77.5072 139.256 75.6112 139.256ZM90.7185 139.592V147.272C90.7185 150.632 92.2065 152.336 95.2305 152.336C96.9105 152.336 98.2545 151.568 99.2625 150.08V152H101.182V139.592H99.2625V147.152C99.1185 148.208 98.7105 149.072 98.0385 149.744C97.3905 150.368 96.6465 150.704 95.8305 150.704C94.7025 150.704 93.8865 150.392 93.3825 149.816C92.8785 149.24 92.6385 148.352 92.6385 147.176V139.592H90.7185ZM104.532 134.528V152H106.428V134.528H104.532ZM115.197 139.256C113.709 139.256 112.533 139.544 111.621 140.12C110.613 140.744 109.965 141.728 109.701 143.024L111.597 143.168C111.789 142.376 112.197 141.776 112.845 141.392C113.421 141.008 114.165 140.84 115.077 140.84C117.237 140.84 118.317 141.872 118.317 143.96V144.608L115.341 144.656C113.469 144.68 112.029 145.04 111.021 145.712C109.869 146.432 109.317 147.488 109.317 148.904C109.317 149.912 109.701 150.752 110.469 151.4C111.213 152.024 112.197 152.336 113.445 152.336C114.597 152.336 115.629 152.072 116.541 151.568C117.309 151.136 117.957 150.584 118.437 149.912V152H120.237V144.032C120.237 142.592 119.853 141.464 119.133 140.648C118.269 139.712 116.973 139.256 115.197 139.256ZM118.317 146.048V147.104C118.317 148.064 117.861 148.928 116.973 149.672C116.061 150.44 115.029 150.824 113.853 150.824C113.085 150.824 112.461 150.632 111.981 150.272C111.501 149.888 111.285 149.432 111.285 148.856C111.285 147.056 112.677 146.144 115.461 146.096L118.317 146.048ZM126.515 135.584L124.619 136.376V139.592H122.123V141.2H124.619V149.096C124.619 150.032 124.811 150.728 125.219 151.208C125.651 151.736 126.395 152 127.403 152H129.275V150.392H127.691C127.259 150.392 126.947 150.272 126.779 150.08C126.587 149.888 126.515 149.552 126.515 149.096V141.2H129.587V139.592H126.515V135.584ZM136.846 139.256C135.046 139.256 133.63 139.904 132.574 141.2C131.518 142.424 131.014 143.96 131.014 145.784C131.014 147.8 131.542 149.384 132.646 150.584C133.702 151.736 135.142 152.336 136.918 152.336C138.526 152.336 139.846 151.856 140.878 150.944C141.718 150.176 142.27 149.216 142.558 148.016H140.638C140.326 148.88 139.918 149.528 139.39 149.96C138.766 150.464 137.926 150.728 136.918 150.728C135.742 150.728 134.806 150.344 134.134 149.576C133.462 148.808 133.102 147.728 133.006 146.336H142.798C142.75 144.176 142.27 142.472 141.358 141.272C140.35 139.928 138.838 139.256 136.846 139.256ZM136.894 140.864C139.246 140.864 140.566 142.184 140.806 144.848H133.054C133.174 143.624 133.558 142.664 134.23 141.944C134.902 141.224 135.79 140.864 136.894 140.864ZM154.215 134.528V141.872C153.255 140.12 151.887 139.256 150.111 139.256C148.335 139.256 146.967 139.904 145.959 141.248C145.023 142.448 144.567 143.936 144.567 145.76C144.567 147.632 145.023 149.168 145.959 150.368C146.967 151.664 148.383 152.336 150.207 152.336C152.079 152.336 153.471 151.544 154.335 149.96V152H156.135V134.528H154.215ZM150.519 140.84C151.623 140.84 152.535 141.272 153.231 142.184C153.903 143.072 154.263 144.248 154.263 145.688V145.928C154.263 147.32 153.951 148.448 153.351 149.312C152.655 150.272 151.695 150.752 150.447 150.752C149.103 150.752 148.095 150.248 147.423 149.288C146.823 148.424 146.535 147.248 146.535 145.76C146.535 144.272 146.823 143.12 147.447 142.28C148.119 141.32 149.151 140.84 150.519 140.84ZM165.733 139.592L169.957 152H171.757L174.685 142.016L177.565 152H179.389L183.613 139.592H181.501L178.453 149.648L175.573 139.592H173.773L170.893 149.648L167.845 139.592H165.733ZM186.802 134.912C186.394 134.912 186.058 135.032 185.77 135.32C185.482 135.56 185.362 135.896 185.362 136.328C185.362 136.736 185.482 137.072 185.77 137.36C186.058 137.624 186.394 137.768 186.802 137.768C187.21 137.768 187.546 137.624 187.834 137.36C188.122 137.072 188.266 136.736 188.266 136.328C188.266 135.896 188.122 135.56 187.834 135.32C187.546 135.032 187.21 134.912 186.802 134.912ZM185.842 139.592V152H187.762V139.592H185.842ZM194.671 135.584L192.775 136.376V139.592H190.279V141.2H192.775V149.096C192.775 150.032 192.967 150.728 193.375 151.208C193.807 151.736 194.551 152 195.559 152H197.431V150.392H195.847C195.415 150.392 195.103 150.272 194.935 150.08C194.743 149.888 194.671 149.552 194.671 149.096V141.2H197.743V139.592H194.671V135.584ZM199.89 134.528V152H201.81V144.92C201.81 143.768 202.122 142.784 202.77 142.016C203.394 141.248 204.186 140.864 205.146 140.864C206.178 140.864 206.97 141.176 207.546 141.8C208.074 142.424 208.362 143.312 208.362 144.464V152H210.282V144.176C210.282 142.592 209.898 141.368 209.13 140.528C208.362 139.664 207.234 139.256 205.794 139.256C204.954 139.256 204.21 139.448 203.538 139.832C202.818 140.24 202.242 140.84 201.81 141.632V134.528H199.89ZM226.618 139.256C225.13 139.256 223.954 139.544 223.042 140.12C222.034 140.744 221.386 141.728 221.122 143.024L223.018 143.168C223.21 142.376 223.618 141.776 224.266 141.392C224.842 141.008 225.586 140.84 226.498 140.84C228.658 140.84 229.738 141.872 229.738 143.96V144.608L226.762 144.656C224.89 144.68 223.45 145.04 222.442 145.712C221.29 146.432 220.738 147.488 220.738 148.904C220.738 149.912 221.122 150.752 221.89 151.4C222.634 152.024 223.618 152.336 224.866 152.336C226.018 152.336 227.05 152.072 227.962 151.568C228.73 151.136 229.378 150.584 229.858 149.912V152H231.658V144.032C231.658 142.592 231.274 141.464 230.554 140.648C229.69 139.712 228.394 139.256 226.618 139.256ZM229.738 146.048V147.104C229.738 148.064 229.282 148.928 228.394 149.672C227.482 150.44 226.45 150.824 225.274 150.824C224.506 150.824 223.882 150.632 223.402 150.272C222.922 149.888 222.706 149.432 222.706 148.856C222.706 147.056 224.098 146.144 226.882 146.096L229.738 146.048ZM240.073 139.256C239.209 139.256 238.465 139.52 237.817 140.048C237.289 140.456 236.857 141.032 236.521 141.752V139.592H234.625V152H236.521V145.424C236.521 144.272 236.833 143.288 237.505 142.472C238.153 141.608 238.969 141.2 239.929 141.2C240.529 141.2 241.153 141.272 241.777 141.464V139.544C241.321 139.352 240.745 139.256 240.073 139.256ZM246.702 135.584L244.806 136.376V139.592H242.31V141.2H244.806V149.096C244.806 150.032 244.998 150.728 245.406 151.208C245.838 151.736 246.582 152 247.59 152H249.462V150.392H247.878C247.446 150.392 247.134 150.272 246.966 150.08C246.774 149.888 246.702 149.552 246.702 149.096V141.2H249.774V139.592H246.702V135.584ZM253.506 134.912C253.098 134.912 252.762 135.032 252.474 135.32C252.186 135.56 252.066 135.896 252.066 136.328C252.066 136.736 252.186 137.072 252.474 137.36C252.762 137.624 253.098 137.768 253.506 137.768C253.914 137.768 254.25 137.624 254.538 137.36C254.826 137.072 254.97 136.736 254.97 136.328C254.97 135.896 254.826 135.56 254.538 135.32C254.25 135.032 253.914 134.912 253.506 134.912ZM252.546 139.592V152H254.466V139.592H252.546ZM263.03 134.864C261.974 134.864 261.158 135.152 260.606 135.752C260.078 136.328 259.814 137.12 259.814 138.176V139.592H256.694V141.2H259.814V152H261.734V141.2H265.238V139.592H261.734V138.224C261.734 137.624 261.854 137.192 262.094 136.928C262.334 136.64 262.742 136.52 263.27 136.52H265.406V134.864H263.03ZM268.599 134.912C268.191 134.912 267.855 135.032 267.567 135.32C267.279 135.56 267.159 135.896 267.159 136.328C267.159 136.736 267.279 137.072 267.567 137.36C267.855 137.624 268.191 137.768 268.599 137.768C269.007 137.768 269.343 137.624 269.631 137.36C269.919 137.072 270.063 136.736 270.063 136.328C270.063 135.896 269.919 135.56 269.631 135.32C269.343 135.032 269.007 134.912 268.599 134.912ZM267.639 139.592V152H269.559V139.592H267.639ZM278.508 139.256C276.66 139.256 275.196 139.904 274.14 141.224C273.156 142.424 272.676 143.96 272.676 145.856C272.676 147.752 273.156 149.288 274.14 150.464C275.172 151.712 276.612 152.336 278.484 152.336C280.02 152.336 281.244 151.928 282.18 151.136C283.14 150.32 283.74 149.096 284.028 147.512H282.108C281.82 149.648 280.596 150.728 278.484 150.728C277.236 150.728 276.276 150.272 275.628 149.408C274.956 148.544 274.644 147.344 274.644 145.832C274.644 144.32 274.98 143.12 275.652 142.232C276.348 141.32 277.308 140.864 278.508 140.864C279.492 140.864 280.284 141.08 280.908 141.56C281.508 142.04 281.892 142.76 282.06 143.72H283.956C283.74 142.208 283.164 141.08 282.204 140.336C281.268 139.616 280.044 139.256 278.508 139.256ZM287.865 134.912C287.457 134.912 287.121 135.032 286.833 135.32C286.545 135.56 286.425 135.896 286.425 136.328C286.425 136.736 286.545 137.072 286.833 137.36C287.121 137.624 287.457 137.768 287.865 137.768C288.273 137.768 288.609 137.624 288.897 137.36C289.185 137.072 289.329 136.736 289.329 136.328C289.329 135.896 289.185 135.56 288.897 135.32C288.609 135.032 288.273 134.912 287.865 134.912ZM286.905 139.592V152H288.825V139.592H286.905ZM297.822 139.256C296.334 139.256 295.158 139.544 294.246 140.12C293.238 140.744 292.59 141.728 292.326 143.024L294.222 143.168C294.414 142.376 294.822 141.776 295.47 141.392C296.046 141.008 296.79 140.84 297.702 140.84C299.862 140.84 300.942 141.872 300.942 143.96V144.608L297.966 144.656C296.094 144.68 294.654 145.04 293.646 145.712C292.494 146.432 291.942 147.488 291.942 148.904C291.942 149.912 292.326 150.752 293.094 151.4C293.838 152.024 294.822 152.336 296.07 152.336C297.222 152.336 298.254 152.072 299.166 151.568C299.934 151.136 300.582 150.584 301.062 149.912V152H302.862V144.032C302.862 142.592 302.478 141.464 301.758 140.648C300.894 139.712 299.598 139.256 297.822 139.256ZM300.942 146.048V147.104C300.942 148.064 300.486 148.928 299.598 149.672C298.686 150.44 297.654 150.824 296.478 150.824C295.71 150.824 295.086 150.632 294.606 150.272C294.126 149.888 293.91 149.432 293.91 148.856C293.91 147.056 295.302 146.144 298.086 146.096L300.942 146.048ZM306.212 134.528V152H308.108V134.528H306.212ZM41.3611 166.912C40.9531 166.912 40.6171 167.032 40.3291 167.32C40.0411 167.56 39.9211 167.896 39.9211 168.328C39.9211 168.736 40.0411 169.072 40.3291 169.36C40.6171 169.624 40.9531 169.768 41.3611 169.768C41.7691 169.768 42.1051 169.624 42.3931 169.36C42.6811 169.072 42.8251 168.736 42.8251 168.328C42.8251 167.896 42.6811 167.56 42.3931 167.32C42.1051 167.032 41.7691 166.912 41.3611 166.912ZM40.4011 171.592V184H42.3211V171.592H40.4011ZM51.7257 171.256C50.9097 171.256 50.1657 171.448 49.4937 171.832C48.8217 172.192 48.2697 172.72 47.8377 173.416V171.592H45.9177V184H47.8377V176.512C47.9097 175.384 48.2697 174.496 48.9417 173.824C49.5657 173.2 50.3097 172.888 51.1737 172.888C53.3337 172.888 54.4377 174.088 54.4377 176.512V184H56.3577V176.368C56.3577 172.96 54.7977 171.256 51.7257 171.256ZM62.6359 167.584L60.7399 168.376V171.592H58.2439V173.2H60.7399V181.096C60.7399 182.032 60.9319 182.728 61.3399 183.208C61.7719 183.736 62.5159 184 63.5239 184H65.3959V182.392H63.8119C63.3799 182.392 63.0679 182.272 62.8999 182.08C62.7079 181.888 62.6359 181.552 62.6359 181.096V173.2H65.7079V171.592H62.6359V167.584ZM72.9672 171.256C71.1672 171.256 69.7512 171.904 68.6952 173.2C67.6392 174.424 67.1352 175.96 67.1352 177.784C67.1352 179.8 67.6632 181.384 68.7672 182.584C69.8232 183.736 71.2632 184.336 73.0392 184.336C74.6472 184.336 75.9672 183.856 76.9992 182.944C77.8392 182.176 78.3912 181.216 78.6792 180.016H76.7592C76.4472 180.88 76.0392 181.528 75.5112 181.96C74.8872 182.464 74.0472 182.728 73.0392 182.728C71.8632 182.728 70.9272 182.344 70.2552 181.576C69.5832 180.808 69.2232 179.728 69.1272 178.336H78.9192C78.8712 176.176 78.3912 174.472 77.4792 173.272C76.4712 171.928 74.9592 171.256 72.9672 171.256ZM73.0152 172.864C75.3672 172.864 76.6872 174.184 76.9272 176.848H69.1752C69.2952 175.624 69.6792 174.664 70.3512 173.944C71.0232 173.224 71.9112 172.864 73.0152 172.864ZM81.5517 166.528V184H83.4477V166.528H81.5517ZM87.2001 166.528V184H89.0961V166.528H87.2001ZM94.0486 166.912C93.6406 166.912 93.3046 167.032 93.0166 167.32C92.7286 167.56 92.6086 167.896 92.6086 168.328C92.6086 168.736 92.7286 169.072 93.0166 169.36C93.3046 169.624 93.6406 169.768 94.0486 169.768C94.4566 169.768 94.7926 169.624 95.0806 169.36C95.3686 169.072 95.5126 168.736 95.5126 168.328C95.5126 167.896 95.3686 167.56 95.0806 167.32C94.7926 167.032 94.4566 166.912 94.0486 166.912ZM93.0886 171.592V184H95.0086V171.592H93.0886ZM103.717 171.256C101.989 171.256 100.621 171.856 99.6132 173.08C98.6052 174.232 98.1252 175.696 98.1252 177.52C98.1252 179.32 98.6052 180.784 99.6132 181.936C100.621 183.112 101.989 183.712 103.717 183.712C105.589 183.712 106.981 182.872 107.893 181.216V183.4C107.893 186.136 106.645 187.528 104.149 187.528C103.021 187.528 102.181 187.312 101.629 186.904C101.077 186.52 100.717 185.896 100.573 185.056H98.6532C98.8692 186.4 99.4212 187.408 100.309 188.08C101.173 188.752 102.469 189.088 104.149 189.088C107.917 189.088 109.813 187.096 109.813 183.136V171.592H107.893V173.728C106.981 172.072 105.589 171.256 103.717 171.256ZM104.005 172.84C105.229 172.84 106.189 173.272 106.909 174.184C107.581 175 107.917 176.128 107.917 177.52C107.917 178.864 107.581 179.968 106.909 180.808C106.189 181.672 105.229 182.104 103.981 182.104C102.637 182.104 101.653 181.624 100.981 180.712C100.381 179.896 100.093 178.816 100.093 177.52C100.093 176.128 100.429 175 101.101 174.184C101.797 173.272 102.757 172.84 104.005 172.84ZM117.897 171.256C116.097 171.256 114.681 171.904 113.625 173.2C112.569 174.424 112.065 175.96 112.065 177.784C112.065 179.8 112.593 181.384 113.697 182.584C114.753 183.736 116.193 184.336 117.969 184.336C119.577 184.336 120.897 183.856 121.929 182.944C122.769 182.176 123.321 181.216 123.609 180.016H121.689C121.377 180.88 120.969 181.528 120.441 181.96C119.817 182.464 118.977 182.728 117.969 182.728C116.793 182.728 115.857 182.344 115.185 181.576C114.513 180.808 114.153 179.728 114.057 178.336H123.849C123.801 176.176 123.321 174.472 122.409 173.272C121.401 171.928 119.889 171.256 117.897 171.256ZM117.945 172.864C120.297 172.864 121.617 174.184 121.857 176.848H114.105C114.225 175.624 114.609 174.664 115.281 173.944C115.953 173.224 116.841 172.864 117.945 172.864ZM131.905 171.256C131.089 171.256 130.345 171.448 129.673 171.832C129.001 172.192 128.449 172.72 128.017 173.416V171.592H126.097V184H128.017V176.512C128.089 175.384 128.449 174.496 129.121 173.824C129.745 173.2 130.489 172.888 131.353 172.888C133.513 172.888 134.617 174.088 134.617 176.512V184H136.537V176.368C136.537 172.96 134.977 171.256 131.905 171.256ZM144.856 171.256C143.008 171.256 141.544 171.904 140.488 173.224C139.504 174.424 139.024 175.96 139.024 177.856C139.024 179.752 139.504 181.288 140.488 182.464C141.52 183.712 142.96 184.336 144.832 184.336C146.368 184.336 147.592 183.928 148.528 183.136C149.488 182.32 150.088 181.096 150.376 179.512H148.456C148.168 181.648 146.944 182.728 144.832 182.728C143.584 182.728 142.624 182.272 141.976 181.408C141.304 180.544 140.992 179.344 140.992 177.832C140.992 176.32 141.328 175.12 142 174.232C142.696 173.32 143.656 172.864 144.856 172.864C145.84 172.864 146.632 173.08 147.256 173.56C147.856 174.04 148.24 174.76 148.408 175.72H150.304C150.088 174.208 149.512 173.08 148.552 172.336C147.616 171.616 146.392 171.256 144.856 171.256ZM157.741 171.256C155.941 171.256 154.525 171.904 153.469 173.2C152.413 174.424 151.909 175.96 151.909 177.784C151.909 179.8 152.437 181.384 153.541 182.584C154.597 183.736 156.037 184.336 157.813 184.336C159.421 184.336 160.741 183.856 161.773 182.944C162.613 182.176 163.165 181.216 163.453 180.016H161.533C161.221 180.88 160.813 181.528 160.285 181.96C159.661 182.464 158.821 182.728 157.813 182.728C156.637 182.728 155.701 182.344 155.029 181.576C154.357 180.808 153.997 179.728 153.901 178.336H163.693C163.645 176.176 163.165 174.472 162.253 173.272C161.245 171.928 159.733 171.256 157.741 171.256ZM157.789 172.864C160.141 172.864 161.461 174.184 161.701 176.848H153.949C154.069 175.624 154.453 174.664 155.125 173.944C155.797 173.224 156.685 172.864 157.789 172.864ZM177.245 167.584L175.349 168.376V171.592H172.853V173.2H175.349V181.096C175.349 182.032 175.541 182.728 175.949 183.208C176.381 183.736 177.125 184 178.133 184H180.005V182.392H178.421C177.989 182.392 177.677 182.272 177.509 182.08C177.317 181.888 177.245 181.552 177.245 181.096V173.2H180.317V171.592H177.245V167.584ZM188.009 171.256C186.137 171.256 184.673 171.88 183.569 173.176C182.513 174.4 181.985 175.936 181.985 177.808C181.985 179.656 182.513 181.192 183.569 182.392C184.673 183.688 186.137 184.336 188.009 184.336C189.857 184.336 191.345 183.688 192.473 182.392C193.505 181.192 194.033 179.656 194.033 177.808C194.033 175.936 193.505 174.4 192.449 173.176C191.345 171.88 189.857 171.256 188.009 171.256ZM188.009 172.864C189.305 172.864 190.337 173.368 191.105 174.376C191.753 175.288 192.089 176.416 192.089 177.808C192.089 179.152 191.753 180.304 191.105 181.216C190.337 182.224 189.305 182.728 188.009 182.728C186.689 182.728 185.657 182.224 184.937 181.216C184.265 180.304 183.953 179.176 183.953 177.808C183.953 176.416 184.265 175.288 184.937 174.376C185.657 173.368 186.689 172.864 188.009 172.864ZM209.631 171.256C207.903 171.256 206.535 171.856 205.527 173.08C204.519 174.232 204.039 175.696 204.039 177.52C204.039 179.32 204.519 180.784 205.527 181.936C206.535 183.112 207.903 183.712 209.631 183.712C211.503 183.712 212.895 182.872 213.807 181.216V183.4C213.807 186.136 212.559 187.528 210.063 187.528C208.935 187.528 208.095 187.312 207.543 186.904C206.991 186.52 206.631 185.896 206.487 185.056H204.567C204.783 186.4 205.335 187.408 206.223 188.08C207.087 188.752 208.383 189.088 210.063 189.088C213.831 189.088 215.727 187.096 215.727 183.136V171.592H213.807V173.728C212.895 172.072 211.503 171.256 209.631 171.256ZM209.919 172.84C211.143 172.84 212.103 173.272 212.823 174.184C213.495 175 213.831 176.128 213.831 177.52C213.831 178.864 213.495 179.968 212.823 180.808C212.103 181.672 211.143 182.104 209.895 182.104C208.551 182.104 207.567 181.624 206.895 180.712C206.295 179.896 206.007 178.816 206.007 177.52C206.007 176.128 206.343 175 207.015 174.184C207.711 173.272 208.671 172.84 209.919 172.84ZM223.811 171.256C222.011 171.256 220.595 171.904 219.539 173.2C218.483 174.424 217.979 175.96 217.979 177.784C217.979 179.8 218.507 181.384 219.611 182.584C220.667 183.736 222.107 184.336 223.883 184.336C225.491 184.336 226.811 183.856 227.843 182.944C228.683 182.176 229.235 181.216 229.523 180.016H227.603C227.291 180.88 226.883 181.528 226.355 181.96C225.731 182.464 224.891 182.728 223.883 182.728C222.707 182.728 221.771 182.344 221.099 181.576C220.427 180.808 220.067 179.728 219.971 178.336H229.763C229.715 176.176 229.235 174.472 228.323 173.272C227.315 171.928 225.803 171.256 223.811 171.256ZM223.859 172.864C226.211 172.864 227.531 174.184 227.771 176.848H220.019C220.139 175.624 220.523 174.664 221.195 173.944C221.867 173.224 222.755 172.864 223.859 172.864ZM235.323 167.584L233.427 168.376V171.592H230.931V173.2H233.427V181.096C233.427 182.032 233.619 182.728 234.027 183.208C234.459 183.736 235.203 184 236.211 184H238.083V182.392H236.499C236.067 182.392 235.755 182.272 235.587 182.08C235.395 181.888 235.323 181.552 235.323 181.096V173.2H238.395V171.592H235.323V167.584ZM253.959 171.256C252.567 171.256 251.391 171.904 250.455 173.248V171.592H248.535V184H250.455V176.44C250.455 175.456 250.743 174.616 251.319 173.944C251.895 173.224 252.615 172.888 253.503 172.888C255.399 172.888 256.359 173.968 256.359 176.176V184H258.279V176.224C258.279 175.216 258.543 174.424 259.119 173.8C259.647 173.176 260.343 172.888 261.159 172.888C262.215 172.888 262.983 173.152 263.463 173.728C263.919 174.256 264.159 175.072 264.159 176.176V184H266.079V175.864C266.079 174.448 265.671 173.32 264.903 172.48C264.087 171.664 263.055 171.256 261.759 171.256C260.895 171.256 260.175 171.448 259.575 171.832C258.903 172.192 258.327 172.792 257.847 173.608C257.151 172.024 255.855 171.256 253.959 171.256ZM274.61 171.256C272.738 171.256 271.274 171.88 270.17 173.176C269.114 174.4 268.586 175.936 268.586 177.808C268.586 179.656 269.114 181.192 270.17 182.392C271.274 183.688 272.738 184.336 274.61 184.336C276.458 184.336 277.946 183.688 279.074 182.392C280.106 181.192 280.634 179.656 280.634 177.808C280.634 175.936 280.106 174.4 279.05 173.176C277.946 171.88 276.458 171.256 274.61 171.256ZM274.61 172.864C275.906 172.864 276.938 173.368 277.706 174.376C278.354 175.288 278.69 176.416 278.69 177.808C278.69 179.152 278.354 180.304 277.706 181.216C276.938 182.224 275.906 182.728 274.61 182.728C273.29 182.728 272.258 182.224 271.538 181.216C270.866 180.304 270.554 179.176 270.554 177.808C270.554 176.416 270.866 175.288 271.538 174.376C272.258 173.368 273.29 172.864 274.61 172.864ZM288.577 171.256C287.713 171.256 286.969 171.52 286.321 172.048C285.793 172.456 285.361 173.032 285.025 173.752V171.592H283.129V184H285.025V177.424C285.025 176.272 285.337 175.288 286.009 174.472C286.657 173.608 287.473 173.2 288.433 173.2C289.033 173.2 289.657 173.272 290.281 173.464V171.544C289.825 171.352 289.249 171.256 288.577 171.256ZM297.006 171.256C295.206 171.256 293.79 171.904 292.734 173.2C291.678 174.424 291.174 175.96 291.174 177.784C291.174 179.8 291.702 181.384 292.806 182.584C293.862 183.736 295.302 184.336 297.078 184.336C298.686 184.336 300.006 183.856 301.038 182.944C301.878 182.176 302.43 181.216 302.718 180.016H300.798C300.486 180.88 300.078 181.528 299.55 181.96C298.926 182.464 298.086 182.728 297.078 182.728C295.902 182.728 294.966 182.344 294.294 181.576C293.622 180.808 293.262 179.728 293.166 178.336H302.958C302.91 176.176 302.43 174.472 301.518 173.272C300.51 171.928 298.998 171.256 297.006 171.256ZM297.054 172.864C299.406 172.864 300.726 174.184 300.966 176.848H293.214C293.334 175.624 293.718 174.664 294.39 173.944C295.062 173.224 295.95 172.864 297.054 172.864ZM68.7558 203.256C66.8838 203.256 65.5158 204.048 64.6278 205.632V203.592H62.8278V220.752H64.7478V213.744C65.7078 215.472 67.0758 216.336 68.8518 216.336C70.6278 216.336 71.9958 215.664 73.0038 214.368C73.9158 213.168 74.3958 211.656 74.3958 209.832C74.3958 207.96 73.9158 206.448 72.9798 205.248C71.9478 203.904 70.5318 203.256 68.7558 203.256ZM68.5158 204.84C69.8358 204.84 70.8438 205.32 71.5398 206.328C72.1158 207.192 72.4278 208.368 72.4278 209.832C72.4278 211.32 72.1158 212.496 71.4918 213.36C70.7958 214.272 69.7878 214.752 68.4438 214.752C67.2918 214.752 66.4038 214.296 65.7318 213.432C65.0118 212.544 64.6758 211.392 64.6758 209.952V209.712C64.6758 208.32 64.9878 207.168 65.6118 206.304C66.2838 205.32 67.2678 204.84 68.5158 204.84ZM82.3383 203.256C81.4743 203.256 80.7303 203.52 80.0823 204.048C79.5543 204.456 79.1223 205.032 78.7863 205.752V203.592H76.8903V216H78.7863V209.424C78.7863 208.272 79.0983 207.288 79.7703 206.472C80.4183 205.608 81.2343 205.2 82.1943 205.2C82.7943 205.2 83.4183 205.272 84.0423 205.464V203.544C83.5863 203.352 83.0103 203.256 82.3383 203.256ZM90.768 203.256C88.968 203.256 87.552 203.904 86.496 205.2C85.44 206.424 84.936 207.96 84.936 209.784C84.936 211.8 85.464 213.384 86.568 214.584C87.624 215.736 89.064 216.336 90.84 216.336C92.448 216.336 93.768 215.856 94.8 214.944C95.64 214.176 96.192 213.216 96.48 212.016H94.56C94.248 212.88 93.84 213.528 93.312 213.96C92.688 214.464 91.848 214.728 90.84 214.728C89.664 214.728 88.728 214.344 88.056 213.576C87.384 212.808 87.024 211.728 86.928 210.336H96.72C96.672 208.176 96.192 206.472 95.28 205.272C94.272 203.928 92.76 203.256 90.768 203.256ZM90.816 204.864C93.168 204.864 94.488 206.184 94.728 208.848H86.976C87.096 207.624 87.48 206.664 88.152 205.944C88.824 205.224 89.712 204.864 90.816 204.864ZM104.32 203.256C102.472 203.256 101.008 203.904 99.9525 205.224C98.9685 206.424 98.4885 207.96 98.4885 209.856C98.4885 211.752 98.9685 213.288 99.9525 214.464C100.984 215.712 102.424 216.336 104.296 216.336C105.832 216.336 107.056 215.928 107.992 215.136C108.952 214.32 109.552 213.096 109.84 211.512H107.92C107.632 213.648 106.408 214.728 104.296 214.728C103.048 214.728 102.088 214.272 101.44 213.408C100.768 212.544 100.456 211.344 100.456 209.832C100.456 208.32 100.792 207.12 101.464 206.232C102.16 205.32 103.12 204.864 104.32 204.864C105.304 204.864 106.096 205.08 106.72 205.56C107.32 206.04 107.704 206.76 107.872 207.72H109.768C109.552 206.208 108.976 205.08 108.016 204.336C107.08 203.616 105.856 203.256 104.32 203.256ZM113.677 198.912C113.269 198.912 112.933 199.032 112.645 199.32C112.357 199.56 112.237 199.896 112.237 200.328C112.237 200.736 112.357 201.072 112.645 201.36C112.933 201.624 113.269 201.768 113.677 201.768C114.085 201.768 114.421 201.624 114.709 201.36C114.997 201.072 115.141 200.736 115.141 200.328C115.141 199.896 114.997 199.56 114.709 199.32C114.421 199.032 114.085 198.912 113.677 198.912ZM112.717 203.592V216H114.637V203.592H112.717ZM122.626 203.256C121.234 203.256 120.082 203.568 119.218 204.192C118.282 204.816 117.826 205.632 117.826 206.688C117.826 207.744 118.282 208.536 119.242 209.112C119.818 209.496 120.85 209.856 122.314 210.216C123.658 210.552 124.546 210.816 124.954 211.008C125.722 211.392 126.13 211.92 126.13 212.616C126.13 214.008 125.002 214.728 122.794 214.728C121.738 214.728 120.946 214.536 120.418 214.152C119.89 213.72 119.53 213.024 119.386 212.04H117.514C117.802 214.896 119.578 216.336 122.842 216.336C126.346 216.336 128.098 215.04 128.098 212.496C128.098 211.416 127.594 210.576 126.61 209.952C125.962 209.544 124.906 209.16 123.418 208.8C122.17 208.464 121.306 208.2 120.85 207.984C120.13 207.624 119.794 207.168 119.794 206.64C119.794 206.088 120.058 205.656 120.586 205.344C121.066 205.008 121.738 204.864 122.602 204.864C123.586 204.864 124.354 205.056 124.882 205.44C125.362 205.776 125.674 206.352 125.842 207.12H127.714C127.378 204.528 125.698 203.256 122.626 203.256ZM135.463 203.256C133.663 203.256 132.247 203.904 131.191 205.2C130.135 206.424 129.631 207.96 129.631 209.784C129.631 211.8 130.159 213.384 131.263 214.584C132.319 215.736 133.759 216.336 135.535 216.336C137.143 216.336 138.463 215.856 139.495 214.944C140.335 214.176 140.887 213.216 141.175 212.016H139.255C138.943 212.88 138.535 213.528 138.007 213.96C137.383 214.464 136.543 214.728 135.535 214.728C134.359 214.728 133.423 214.344 132.751 213.576C132.079 212.808 131.719 211.728 131.623 210.336H141.415C141.367 208.176 140.887 206.472 139.975 205.272C138.967 203.928 137.455 203.256 135.463 203.256ZM135.511 204.864C137.863 204.864 139.183 206.184 139.423 208.848H131.671C131.791 207.624 132.175 206.664 132.847 205.944C133.519 205.224 134.407 204.864 135.511 204.864ZM154.968 199.584L153.072 200.376V203.592H150.576V205.2H153.072V213.096C153.072 214.032 153.264 214.728 153.672 215.208C154.104 215.736 154.848 216 155.856 216H157.728V214.392H156.144C155.712 214.392 155.4 214.272 155.232 214.08C155.04 213.888 154.968 213.552 154.968 213.096V205.2H158.04V203.592H154.968V199.584ZM165.635 203.256C164.771 203.256 164.027 203.52 163.379 204.048C162.851 204.456 162.419 205.032 162.083 205.752V203.592H160.187V216H162.083V209.424C162.083 208.272 162.395 207.288 163.067 206.472C163.715 205.608 164.531 205.2 165.491 205.2C166.091 205.2 166.715 205.272 167.339 205.464V203.544C166.883 203.352 166.307 203.256 165.635 203.256ZM174.353 203.256C172.865 203.256 171.689 203.544 170.777 204.12C169.769 204.744 169.121 205.728 168.857 207.024L170.753 207.168C170.945 206.376 171.353 205.776 172.001 205.392C172.577 205.008 173.321 204.84 174.233 204.84C176.393 204.84 177.473 205.872 177.473 207.96V208.608L174.497 208.656C172.625 208.68 171.185 209.04 170.177 209.712C169.025 210.432 168.473 211.488 168.473 212.904C168.473 213.912 168.857 214.752 169.625 215.4C170.369 216.024 171.353 216.336 172.601 216.336C173.753 216.336 174.785 216.072 175.697 215.568C176.465 215.136 177.113 214.584 177.593 213.912V216H179.393V208.032C179.393 206.592 179.009 205.464 178.289 204.648C177.425 203.712 176.129 203.256 174.353 203.256ZM177.473 210.048V211.104C177.473 212.064 177.017 212.928 176.129 213.672C175.217 214.44 174.185 214.824 173.009 214.824C172.241 214.824 171.617 214.632 171.137 214.272C170.657 213.888 170.441 213.432 170.441 212.856C170.441 211.056 171.833 210.144 174.617 210.096L177.473 210.048ZM183.943 198.912C183.535 198.912 183.199 199.032 182.911 199.32C182.623 199.56 182.503 199.896 182.503 200.328C182.503 200.736 182.623 201.072 182.911 201.36C183.199 201.624 183.535 201.768 183.943 201.768C184.351 201.768 184.687 201.624 184.975 201.36C185.263 201.072 185.407 200.736 185.407 200.328C185.407 199.896 185.263 199.56 184.975 199.32C184.687 199.032 184.351 198.912 183.943 198.912ZM182.983 203.592V216H184.903V203.592H182.983ZM194.308 203.256C193.492 203.256 192.748 203.448 192.076 203.832C191.404 204.192 190.852 204.72 190.42 205.416V203.592H188.5V216H190.42V208.512C190.492 207.384 190.852 206.496 191.524 205.824C192.148 205.2 192.892 204.888 193.756 204.888C195.916 204.888 197.02 206.088 197.02 208.512V216H198.94V208.368C198.94 204.96 197.38 203.256 194.308 203.256ZM203.49 198.912C203.082 198.912 202.746 199.032 202.458 199.32C202.17 199.56 202.05 199.896 202.05 200.328C202.05 200.736 202.17 201.072 202.458 201.36C202.746 201.624 203.082 201.768 203.49 201.768C203.898 201.768 204.234 201.624 204.522 201.36C204.81 201.072 204.954 200.736 204.954 200.328C204.954 199.896 204.81 199.56 204.522 199.32C204.234 199.032 203.898 198.912 203.49 198.912ZM202.53 203.592V216H204.45V203.592H202.53ZM213.855 203.256C213.039 203.256 212.295 203.448 211.623 203.832C210.951 204.192 210.399 204.72 209.967 205.416V203.592H208.047V216H209.967V208.512C210.039 207.384 210.399 206.496 211.071 205.824C211.695 205.2 212.439 204.888 213.303 204.888C215.463 204.888 216.567 206.088 216.567 208.512V216H218.487V208.368C218.487 204.96 216.927 203.256 213.855 203.256ZM226.565 203.256C224.837 203.256 223.469 203.856 222.461 205.08C221.453 206.232 220.973 207.696 220.973 209.52C220.973 211.32 221.453 212.784 222.461 213.936C223.469 215.112 224.837 215.712 226.565 215.712C228.437 215.712 229.829 214.872 230.741 213.216V215.4C230.741 218.136 229.493 219.528 226.997 219.528C225.869 219.528 225.029 219.312 224.477 218.904C223.925 218.52 223.565 217.896 223.421 217.056H221.501C221.717 218.4 222.269 219.408 223.157 220.08C224.021 220.752 225.317 221.088 226.997 221.088C230.765 221.088 232.661 219.096 232.661 215.136V203.592H230.741V205.728C229.829 204.072 228.437 203.256 226.565 203.256ZM226.853 204.84C228.077 204.84 229.037 205.272 229.757 206.184C230.429 207 230.765 208.128 230.765 209.52C230.765 210.864 230.429 211.968 229.757 212.808C229.037 213.672 228.077 214.104 226.829 214.104C225.485 214.104 224.501 213.624 223.829 212.712C223.229 211.896 222.941 210.816 222.941 209.52C222.941 208.128 223.277 207 223.949 206.184C224.645 205.272 225.605 204.84 226.853 204.84ZM249.553 203.256C247.681 203.256 246.313 204.048 245.425 205.632V203.592H243.625V220.752H245.545V213.744C246.505 215.472 247.873 216.336 249.649 216.336C251.425 216.336 252.793 215.664 253.801 214.368C254.713 213.168 255.193 211.656 255.193 209.832C255.193 207.96 254.713 206.448 253.777 205.248C252.745 203.904 251.329 203.256 249.553 203.256ZM249.313 204.84C250.633 204.84 251.641 205.32 252.337 206.328C252.913 207.192 253.225 208.368 253.225 209.832C253.225 211.32 252.913 212.496 252.289 213.36C251.593 214.272 250.585 214.752 249.241 214.752C248.089 214.752 247.201 214.296 246.529 213.432C245.809 212.544 245.473 211.392 245.473 209.952V209.712C245.473 208.32 245.785 207.168 246.409 206.304C247.081 205.32 248.065 204.84 249.313 204.84ZM258.071 198.528V216H259.967V198.528H258.071ZM268.736 203.256C267.248 203.256 266.072 203.544 265.16 204.12C264.152 204.744 263.504 205.728 263.24 207.024L265.136 207.168C265.328 206.376 265.736 205.776 266.384 205.392C266.96 205.008 267.704 204.84 268.616 204.84C270.776 204.84 271.856 205.872 271.856 207.96V208.608L268.88 208.656C267.008 208.68 265.568 209.04 264.56 209.712C263.408 210.432 262.856 211.488 262.856 212.904C262.856 213.912 263.24 214.752 264.008 215.4C264.752 216.024 265.736 216.336 266.984 216.336C268.136 216.336 269.168 216.072 270.08 215.568C270.848 215.136 271.496 214.584 271.976 213.912V216H273.776V208.032C273.776 206.592 273.392 205.464 272.672 204.648C271.808 203.712 270.512 203.256 268.736 203.256ZM271.856 210.048V211.104C271.856 212.064 271.4 212.928 270.512 213.672C269.6 214.44 268.568 214.824 267.392 214.824C266.624 214.824 266 214.632 265.52 214.272C265.04 213.888 264.824 213.432 264.824 212.856C264.824 211.056 266.216 210.144 269 210.096L271.856 210.048ZM282.55 203.256C281.734 203.256 280.99 203.448 280.318 203.832C279.646 204.192 279.094 204.72 278.662 205.416V203.592H276.742V216H278.662V208.512C278.734 207.384 279.094 206.496 279.766 205.824C280.39 205.2 281.134 204.888 281.998 204.888C284.158 204.888 285.262 206.088 285.262 208.512V216H287.182V208.368C287.182 204.96 285.622 203.256 282.55 203.256Z" fill="#66B2FF"/>
<circle cx="489" cy="175" r="173" fill="black" stroke="#FF6666" stroke-width="4"/>
<path d="M374.495 134.528C371.855 134.528 369.791 135.416 368.351 137.24C367.031 138.872 366.383 140.96 366.383 143.504C366.383 146.048 367.007 148.112 368.303 149.696C369.719 151.448 371.759 152.336 374.423 152.336C376.247 152.336 377.831 151.808 379.151 150.776C380.567 149.672 381.455 148.112 381.839 146.12H379.943C379.607 147.608 378.911 148.736 377.903 149.504C376.943 150.224 375.791 150.584 374.423 150.584C372.407 150.584 370.895 149.912 369.839 148.592C368.831 147.344 368.351 145.64 368.351 143.504C368.351 141.368 368.855 139.664 369.863 138.368C370.943 136.976 372.479 136.28 374.471 136.28C375.815 136.28 376.943 136.592 377.879 137.24C378.839 137.912 379.463 138.872 379.703 140.12H381.599C381.359 138.416 380.591 137.048 379.295 136.04C377.999 135.032 376.391 134.528 374.495 134.528ZM389.868 139.256C387.996 139.256 386.532 139.88 385.428 141.176C384.372 142.4 383.844 143.936 383.844 145.808C383.844 147.656 384.372 149.192 385.428 150.392C386.532 151.688 387.996 152.336 389.868 152.336C391.716 152.336 393.204 151.688 394.332 150.392C395.364 149.192 395.892 147.656 395.892 145.808C395.892 143.936 395.364 142.4 394.308 141.176C393.204 139.88 391.716 139.256 389.868 139.256ZM389.868 140.864C391.164 140.864 392.196 141.368 392.964 142.376C393.612 143.288 393.948 144.416 393.948 145.808C393.948 147.152 393.612 148.304 392.964 149.216C392.196 150.224 391.164 150.728 389.868 150.728C388.548 150.728 387.516 150.224 386.796 149.216C386.124 148.304 385.812 147.176 385.812 145.808C385.812 144.416 386.124 143.288 386.796 142.376C387.516 141.368 388.548 140.864 389.868 140.864ZM404.194 139.256C403.378 139.256 402.634 139.448 401.962 139.832C401.29 140.192 400.738 140.72 400.306 141.416V139.592H398.386V152H400.306V144.512C400.378 143.384 400.738 142.496 401.41 141.824C402.034 141.2 402.778 140.888 403.642 140.888C405.802 140.888 406.906 142.088 406.906 144.512V152H408.826V144.368C408.826 140.96 407.266 139.256 404.194 139.256ZM417.601 139.256C416.785 139.256 416.041 139.448 415.369 139.832C414.697 140.192 414.145 140.72 413.713 141.416V139.592H411.793V152H413.713V144.512C413.785 143.384 414.145 142.496 414.817 141.824C415.441 141.2 416.185 140.888 417.049 140.888C419.209 140.888 420.313 142.088 420.313 144.512V152H422.233V144.368C422.233 140.96 420.673 139.256 417.601 139.256ZM430.311 139.256C428.511 139.256 427.095 139.904 426.039 141.2C424.983 142.424 424.479 143.96 424.479 145.784C424.479 147.8 425.007 149.384 426.111 150.584C427.167 151.736 428.607 152.336 430.383 152.336C431.991 152.336 433.311 151.856 434.343 150.944C435.183 150.176 435.735 149.216 436.023 148.016H434.103C433.791 148.88 433.383 149.528 432.855 149.96C432.231 150.464 431.391 150.728 430.383 150.728C429.207 150.728 428.271 150.344 427.599 149.576C426.927 148.808 426.567 147.728 426.471 146.336H436.263C436.215 144.176 435.735 142.472 434.823 141.272C433.815 139.928 432.303 139.256 430.311 139.256ZM430.359 140.864C432.711 140.864 434.031 142.184 434.271 144.848H426.519C426.639 143.624 427.023 142.664 427.695 141.944C428.367 141.224 429.255 140.864 430.359 140.864ZM443.863 139.256C442.015 139.256 440.551 139.904 439.495 141.224C438.511 142.424 438.031 143.96 438.031 145.856C438.031 147.752 438.511 149.288 439.495 150.464C440.527 151.712 441.967 152.336 443.839 152.336C445.375 152.336 446.599 151.928 447.535 151.136C448.495 150.32 449.095 149.096 449.383 147.512H447.463C447.175 149.648 445.951 150.728 443.839 150.728C442.591 150.728 441.631 150.272 440.983 149.408C440.311 148.544 439.999 147.344 439.999 145.832C439.999 144.32 440.335 143.12 441.007 142.232C441.703 141.32 442.663 140.864 443.863 140.864C444.847 140.864 445.639 141.08 446.263 141.56C446.863 142.04 447.247 142.76 447.415 143.72H449.311C449.095 142.208 448.519 141.08 447.559 140.336C446.623 139.616 445.399 139.256 443.863 139.256ZM454.948 135.584L453.052 136.376V139.592H450.556V141.2H453.052V149.096C453.052 150.032 453.244 150.728 453.652 151.208C454.084 151.736 454.828 152 455.836 152H457.708V150.392H456.124C455.692 150.392 455.38 150.272 455.212 150.08C455.02 149.888 454.948 149.552 454.948 149.096V141.2H458.02V139.592H454.948V135.584ZM473.416 134.864L466.672 152H468.784L470.608 147.2H478.48L480.304 152H482.44L475.696 134.864H473.416ZM471.232 145.544L474.52 136.976H474.616L477.856 145.544H471.232ZM484.317 134.864V152H486.261V134.864H484.317ZM491.309 149.144C490.829 149.144 490.469 149.264 490.205 149.552C489.893 149.816 489.749 150.176 489.749 150.632C489.749 151.04 489.893 151.4 490.181 151.688C490.469 151.976 490.805 152.12 491.213 152.12C491.453 152.12 491.621 152.072 491.741 152.024C491.741 152.6 491.573 153.128 491.213 153.632C490.829 154.112 490.301 154.472 489.677 154.688V155.864C490.709 155.6 491.549 155.072 492.173 154.304C492.797 153.488 493.109 152.552 493.109 151.496C493.109 150.8 492.941 150.248 492.629 149.816C492.293 149.36 491.837 149.144 491.309 149.144ZM503.949 134.528V152H505.869V144.92C505.869 143.768 506.181 142.784 506.829 142.016C507.453 141.248 508.245 140.864 509.205 140.864C510.237 140.864 511.029 141.176 511.605 141.8C512.133 142.424 512.421 143.312 512.421 144.464V152H514.341V144.176C514.341 142.592 513.957 141.368 513.189 140.528C512.421 139.664 511.293 139.256 509.853 139.256C509.013 139.256 508.269 139.448 507.597 139.832C506.877 140.24 506.301 140.84 505.869 141.632V134.528H503.949ZM522.685 139.256C521.197 139.256 520.021 139.544 519.109 140.12C518.101 140.744 517.453 141.728 517.189 143.024L519.085 143.168C519.277 142.376 519.685 141.776 520.333 141.392C520.909 141.008 521.653 140.84 522.565 140.84C524.725 140.84 525.805 141.872 525.805 143.96V144.608L522.829 144.656C520.957 144.68 519.517 145.04 518.509 145.712C517.357 146.432 516.805 147.488 516.805 148.904C516.805 149.912 517.189 150.752 517.957 151.4C518.701 152.024 519.685 152.336 520.933 152.336C522.085 152.336 523.117 152.072 524.029 151.568C524.797 151.136 525.445 150.584 525.925 149.912V152H527.725V144.032C527.725 142.592 527.341 141.464 526.621 140.648C525.757 139.712 524.461 139.256 522.685 139.256ZM525.805 146.048V147.104C525.805 148.064 525.349 148.928 524.461 149.672C523.549 150.44 522.517 150.824 521.341 150.824C520.573 150.824 519.949 150.632 519.469 150.272C518.989 149.888 518.773 149.432 518.773 148.856C518.773 147.056 520.165 146.144 522.949 146.096L525.805 146.048ZM536.139 139.256C535.275 139.256 534.531 139.52 533.883 140.048C533.355 140.456 532.923 141.032 532.587 141.752V139.592H530.691V152H532.587V145.424C532.587 144.272 532.899 143.288 533.571 142.472C534.219 141.608 535.035 141.2 535.995 141.2C536.595 141.2 537.219 141.272 537.843 141.464V139.544C537.387 139.352 536.811 139.256 536.139 139.256ZM548.625 134.528V141.872C547.665 140.12 546.297 139.256 544.521 139.256C542.745 139.256 541.377 139.904 540.369 141.248C539.433 142.448 538.977 143.936 538.977 145.76C538.977 147.632 539.433 149.168 540.369 150.368C541.377 151.664 542.793 152.336 544.617 152.336C546.489 152.336 547.881 151.544 548.745 149.96V152H550.545V134.528H548.625ZM544.929 140.84C546.033 140.84 546.945 141.272 547.641 142.184C548.313 143.072 548.673 144.248 548.673 145.688V145.928C548.673 147.32 548.361 148.448 547.761 149.312C547.065 150.272 546.105 150.752 544.857 150.752C543.513 150.752 542.505 150.248 541.833 149.288C541.233 148.424 540.945 147.248 540.945 145.76C540.945 144.272 541.233 143.12 541.857 142.28C542.529 141.32 543.561 140.84 544.929 140.84ZM552.151 139.592L556.375 152H558.175L561.103 142.016L563.983 152H565.807L570.031 139.592H567.919L564.871 149.648L561.991 139.592H560.191L557.311 149.648L554.263 139.592H552.151ZM577.036 139.256C575.548 139.256 574.372 139.544 573.46 140.12C572.452 140.744 571.804 141.728 571.54 143.024L573.436 143.168C573.628 142.376 574.036 141.776 574.684 141.392C575.26 141.008 576.004 140.84 576.916 140.84C579.076 140.84 580.156 141.872 580.156 143.96V144.608L577.18 144.656C575.308 144.68 573.868 145.04 572.86 145.712C571.708 146.432 571.156 147.488 571.156 148.904C571.156 149.912 571.54 150.752 572.308 151.4C573.052 152.024 574.036 152.336 575.284 152.336C576.436 152.336 577.468 152.072 578.38 151.568C579.148 151.136 579.796 150.584 580.276 149.912V152H582.076V144.032C582.076 142.592 581.692 141.464 580.972 140.648C580.108 139.712 578.812 139.256 577.036 139.256ZM580.156 146.048V147.104C580.156 148.064 579.7 148.928 578.812 149.672C577.9 150.44 576.868 150.824 575.692 150.824C574.924 150.824 574.3 150.632 573.82 150.272C573.34 149.888 573.124 149.432 573.124 148.856C573.124 147.056 574.516 146.144 577.3 146.096L580.156 146.048ZM590.491 139.256C589.627 139.256 588.883 139.52 588.235 140.048C587.707 140.456 587.275 141.032 586.939 141.752V139.592H585.043V152H586.939V145.424C586.939 144.272 587.251 143.288 587.923 142.472C588.571 141.608 589.387 141.2 590.347 141.2C590.947 141.2 591.571 141.272 592.195 141.464V139.544C591.739 139.352 591.163 139.256 590.491 139.256ZM598.92 139.256C597.12 139.256 595.704 139.904 594.648 141.2C593.592 142.424 593.088 143.96 593.088 145.784C593.088 147.8 593.616 149.384 594.72 150.584C595.776 151.736 597.216 152.336 598.992 152.336C600.6 152.336 601.92 151.856 602.952 150.944C603.792 150.176 604.344 149.216 604.632 148.016H602.712C602.4 148.88 601.992 149.528 601.464 149.96C600.84 150.464 600 150.728 598.992 150.728C597.816 150.728 596.88 150.344 596.208 149.576C595.536 148.808 595.176 147.728 595.08 146.336H604.872C604.824 144.176 604.344 142.472 603.432 141.272C602.424 139.928 600.912 139.256 598.92 139.256ZM598.968 140.864C601.32 140.864 602.64 142.184 602.88 144.848H595.128C595.248 143.624 595.632 142.664 596.304 141.944C596.976 141.224 597.864 140.864 598.968 140.864ZM442.083 171.256C440.595 171.256 439.419 171.544 438.507 172.12C437.499 172.744 436.851 173.728 436.587 175.024L438.483 175.168C438.675 174.376 439.083 173.776 439.731 173.392C440.307 173.008 441.051 172.84 441.963 172.84C444.123 172.84 445.203 173.872 445.203 175.96V176.608L442.227 176.656C440.355 176.68 438.915 177.04 437.907 177.712C436.755 178.432 436.203 179.488 436.203 180.904C436.203 181.912 436.587 182.752 437.355 183.4C438.099 184.024 439.083 184.336 440.331 184.336C441.483 184.336 442.515 184.072 443.427 183.568C444.195 183.136 444.843 182.584 445.323 181.912V184H447.123V176.032C447.123 174.592 446.739 173.464 446.019 172.648C445.155 171.712 443.859 171.256 442.083 171.256ZM445.203 178.048V179.104C445.203 180.064 444.747 180.928 443.859 181.672C442.947 182.44 441.915 182.824 440.739 182.824C439.971 182.824 439.347 182.632 438.867 182.272C438.387 181.888 438.171 181.432 438.171 180.856C438.171 179.056 439.563 178.144 442.347 178.096L445.203 178.048ZM455.898 171.256C455.082 171.256 454.338 171.448 453.666 171.832C452.994 172.192 452.442 172.72 452.01 173.416V171.592H450.09V184H452.01V176.512C452.082 175.384 452.442 174.496 453.114 173.824C453.738 173.2 454.482 172.888 455.346 172.888C457.506 172.888 458.61 174.088 458.61 176.512V184H460.53V176.368C460.53 172.96 458.97 171.256 455.898 171.256ZM472.664 166.528V173.872C471.704 172.12 470.336 171.256 468.56 171.256C466.784 171.256 465.416 171.904 464.408 173.248C463.472 174.448 463.016 175.936 463.016 177.76C463.016 179.632 463.472 181.168 464.408 182.368C465.416 183.664 466.832 184.336 468.656 184.336C470.528 184.336 471.92 183.544 472.784 181.96V184H474.584V166.528H472.664ZM468.968 172.84C470.072 172.84 470.984 173.272 471.68 174.184C472.352 175.072 472.712 176.248 472.712 177.688V177.928C472.712 179.32 472.4 180.448 471.8 181.312C471.104 182.272 470.144 182.752 468.896 182.752C467.552 182.752 466.544 182.248 465.872 181.288C465.272 180.424 464.984 179.248 464.984 177.76C464.984 176.272 465.272 175.12 465.896 174.28C466.568 173.32 467.6 172.84 468.968 172.84ZM485.551 171.592V179.272C485.551 182.632 487.039 184.336 490.062 184.336C491.743 184.336 493.087 183.568 494.095 182.08V184H496.015V171.592H494.095V179.152C493.951 180.208 493.543 181.072 492.871 181.744C492.223 182.368 491.479 182.704 490.663 182.704C489.535 182.704 488.719 182.392 488.215 181.816C487.711 181.24 487.471 180.352 487.471 179.176V171.592H485.551ZM503.372 171.256C501.98 171.256 500.828 171.568 499.964 172.192C499.028 172.816 498.572 173.632 498.572 174.688C498.572 175.744 499.028 176.536 499.988 177.112C500.564 177.496 501.596 177.856 503.06 178.216C504.404 178.552 505.292 178.816 505.7 179.008C506.468 179.392 506.876 179.92 506.876 180.616C506.876 182.008 505.748 182.728 503.54 182.728C502.484 182.728 501.692 182.536 501.164 182.152C500.636 181.72 500.276 181.024 500.132 180.04H498.26C498.548 182.896 500.324 184.336 503.588 184.336C507.092 184.336 508.844 183.04 508.844 180.496C508.844 179.416 508.34 178.576 507.356 177.952C506.708 177.544 505.652 177.16 504.164 176.8C502.916 176.464 502.052 176.2 501.596 175.984C500.876 175.624 500.54 175.168 500.54 174.64C500.54 174.088 500.804 173.656 501.332 173.344C501.812 173.008 502.484 172.864 503.348 172.864C504.332 172.864 505.1 173.056 505.628 173.44C506.108 173.776 506.42 174.352 506.588 175.12H508.46C508.124 172.528 506.444 171.256 503.372 171.256ZM516.209 171.256C514.409 171.256 512.993 171.904 511.937 173.2C510.881 174.424 510.377 175.96 510.377 177.784C510.377 179.8 510.905 181.384 512.009 182.584C513.065 183.736 514.505 184.336 516.281 184.336C517.889 184.336 519.209 183.856 520.241 182.944C521.081 182.176 521.633 181.216 521.921 180.016H520.001C519.689 180.88 519.281 181.528 518.753 181.96C518.129 182.464 517.289 182.728 516.281 182.728C515.105 182.728 514.169 182.344 513.497 181.576C512.825 180.808 512.465 179.728 512.369 178.336H522.161C522.113 176.176 521.633 174.472 520.721 173.272C519.713 171.928 518.201 171.256 516.209 171.256ZM516.257 172.864C518.609 172.864 519.929 174.184 520.169 176.848H512.417C512.537 175.624 512.921 174.664 513.593 173.944C514.265 173.224 515.153 172.864 516.257 172.864ZM529.858 171.256C528.994 171.256 528.25 171.52 527.602 172.048C527.074 172.456 526.642 173.032 526.306 173.752V171.592H524.41V184H526.306V177.424C526.306 176.272 526.618 175.288 527.29 174.472C527.938 173.608 528.754 173.2 529.714 173.2C530.314 173.2 530.938 173.272 531.562 173.464V171.544C531.106 171.352 530.53 171.256 529.858 171.256ZM537.568 171.256C536.176 171.256 535.024 171.568 534.16 172.192C533.224 172.816 532.768 173.632 532.768 174.688C532.768 175.744 533.224 176.536 534.184 177.112C534.76 177.496 535.792 177.856 537.256 178.216C538.6 178.552 539.488 178.816 539.896 179.008C540.664 179.392 541.072 179.92 541.072 180.616C541.072 182.008 539.944 182.728 537.736 182.728C536.68 182.728 535.888 182.536 535.36 182.152C534.832 181.72 534.472 181.024 534.328 180.04H532.456C532.744 182.896 534.52 184.336 537.784 184.336C541.288 184.336 543.04 183.04 543.04 180.496C543.04 179.416 542.536 178.576 541.552 177.952C540.904 177.544 539.848 177.16 538.36 176.8C537.112 176.464 536.248 176.2 535.792 175.984C535.072 175.624 534.736 175.168 534.736 174.64C534.736 174.088 535 173.656 535.528 173.344C536.008 173.008 536.68 172.864 537.544 172.864C538.528 172.864 539.296 173.056 539.824 173.44C540.304 173.776 540.616 174.352 540.784 175.12H542.656C542.32 172.528 540.64 171.256 537.568 171.256ZM406.546 198.864L412.882 216H415.306L421.642 198.864H419.482L414.13 213.864H414.058L408.706 198.864H406.546ZM424.826 198.912C424.418 198.912 424.082 199.032 423.794 199.32C423.506 199.56 423.386 199.896 423.386 200.328C423.386 200.736 423.506 201.072 423.794 201.36C424.082 201.624 424.418 201.768 424.826 201.768C425.234 201.768 425.57 201.624 425.858 201.36C426.146 201.072 426.29 200.736 426.29 200.328C426.29 199.896 426.146 199.56 425.858 199.32C425.57 199.032 425.234 198.912 424.826 198.912ZM423.866 203.592V216H425.786V203.592H423.866ZM434.783 203.256C433.295 203.256 432.119 203.544 431.207 204.12C430.199 204.744 429.551 205.728 429.287 207.024L431.183 207.168C431.375 206.376 431.783 205.776 432.431 205.392C433.007 205.008 433.751 204.84 434.663 204.84C436.823 204.84 437.903 205.872 437.903 207.96V208.608L434.927 208.656C433.055 208.68 431.615 209.04 430.607 209.712C429.455 210.432 428.903 211.488 428.903 212.904C428.903 213.912 429.287 214.752 430.055 215.4C430.799 216.024 431.783 216.336 433.031 216.336C434.183 216.336 435.215 216.072 436.127 215.568C436.895 215.136 437.543 214.584 438.023 213.912V216H439.823V208.032C439.823 206.592 439.439 205.464 438.719 204.648C437.855 203.712 436.559 203.256 434.783 203.256ZM437.903 210.048V211.104C437.903 212.064 437.447 212.928 436.559 213.672C435.647 214.44 434.615 214.824 433.439 214.824C432.671 214.824 432.047 214.632 431.567 214.272C431.087 213.888 430.871 213.432 430.871 212.856C430.871 211.056 432.263 210.144 435.047 210.096L437.903 210.048ZM456.205 203.256C454.813 203.256 453.637 203.904 452.701 205.248V203.592H450.781V216H452.701V208.44C452.701 207.456 452.989 206.616 453.565 205.944C454.141 205.224 454.861 204.888 455.749 204.888C457.645 204.888 458.605 205.968 458.605 208.176V216H460.525V208.224C460.525 207.216 460.789 206.424 461.365 205.8C461.893 205.176 462.589 204.888 463.405 204.888C464.461 204.888 465.229 205.152 465.709 205.728C466.165 206.256 466.405 207.072 466.405 208.176V216H468.325V207.864C468.325 206.448 467.917 205.32 467.149 204.48C466.333 203.664 465.301 203.256 464.005 203.256C463.141 203.256 462.421 203.448 461.821 203.832C461.149 204.192 460.573 204.792 460.093 205.608C459.397 204.024 458.101 203.256 456.205 203.256ZM476.856 203.256C474.984 203.256 473.52 203.88 472.416 205.176C471.36 206.4 470.832 207.936 470.832 209.808C470.832 211.656 471.36 213.192 472.416 214.392C473.52 215.688 474.984 216.336 476.856 216.336C478.704 216.336 480.192 215.688 481.32 214.392C482.352 213.192 482.88 211.656 482.88 209.808C482.88 207.936 482.352 206.4 481.296 205.176C480.192 203.88 478.704 203.256 476.856 203.256ZM476.856 204.864C478.152 204.864 479.184 205.368 479.952 206.376C480.6 207.288 480.936 208.416 480.936 209.808C480.936 211.152 480.6 212.304 479.952 213.216C479.184 214.224 478.152 214.728 476.856 214.728C475.536 214.728 474.504 214.224 473.784 213.216C473.112 212.304 472.8 211.176 472.8 209.808C472.8 208.416 473.112 207.288 473.784 206.376C474.504 205.368 475.536 204.864 476.856 204.864ZM485.375 198.528V216H487.175V213.96C488.015 215.544 489.383 216.336 491.303 216.336C493.103 216.336 494.519 215.664 495.551 214.368C496.463 213.168 496.943 211.632 496.943 209.76C496.943 207.936 496.463 206.448 495.551 205.248C494.543 203.904 493.151 203.256 491.399 203.256C489.623 203.256 488.255 204.12 487.295 205.872V198.528H485.375ZM490.991 204.84C492.335 204.84 493.343 205.32 494.039 206.28C494.663 207.12 494.975 208.272 494.975 209.76C494.975 211.248 494.663 212.424 494.087 213.288C493.415 214.248 492.407 214.752 491.063 214.752C489.815 214.752 488.831 214.272 488.159 213.312C487.535 212.448 487.223 211.32 487.223 209.928V209.688C487.223 208.248 487.559 207.072 488.279 206.184C488.951 205.272 489.863 204.84 490.991 204.84ZM501.021 198.912C500.613 198.912 500.277 199.032 499.989 199.32C499.701 199.56 499.581 199.896 499.581 200.328C499.581 200.736 499.701 201.072 499.989 201.36C500.277 201.624 500.613 201.768 501.021 201.768C501.429 201.768 501.765 201.624 502.053 201.36C502.341 201.072 502.485 200.736 502.485 200.328C502.485 199.896 502.341 199.56 502.053 199.32C501.765 199.032 501.429 198.912 501.021 198.912ZM500.061 203.592V216H501.981V203.592H500.061ZM505.962 198.528V216H507.858V198.528H505.962ZM516.338 203.256C514.538 203.256 513.122 203.904 512.066 205.2C511.01 206.424 510.506 207.96 510.506 209.784C510.506 211.8 511.034 213.384 512.138 214.584C513.194 215.736 514.634 216.336 516.41 216.336C518.018 216.336 519.338 215.856 520.37 214.944C521.21 214.176 521.762 213.216 522.05 212.016H520.13C519.818 212.88 519.41 213.528 518.882 213.96C518.258 214.464 517.418 214.728 516.41 214.728C515.234 214.728 514.298 214.344 513.626 213.576C512.954 212.808 512.594 211.728 512.498 210.336H522.29C522.242 208.176 521.762 206.472 520.85 205.272C519.842 203.928 518.33 203.256 516.338 203.256ZM516.386 204.864C518.738 204.864 520.058 206.184 520.298 208.848H512.546C512.666 207.624 513.05 206.664 513.722 205.944C514.394 205.224 515.282 204.864 516.386 204.864ZM537.931 203.256C536.443 203.256 535.267 203.544 534.355 204.12C533.347 204.744 532.699 205.728 532.435 207.024L534.331 207.168C534.523 206.376 534.931 205.776 535.579 205.392C536.155 205.008 536.899 204.84 537.811 204.84C539.971 204.84 541.051 205.872 541.051 207.96V208.608L538.075 208.656C536.203 208.68 534.763 209.04 533.755 209.712C532.603 210.432 532.051 211.488 532.051 212.904C532.051 213.912 532.435 214.752 533.203 215.4C533.947 216.024 534.931 216.336 536.179 216.336C537.331 216.336 538.363 216.072 539.275 215.568C540.043 215.136 540.691 214.584 541.171 213.912V216H542.971V208.032C542.971 206.592 542.587 205.464 541.867 204.648C541.003 203.712 539.707 203.256 537.931 203.256ZM541.051 210.048V211.104C541.051 212.064 540.595 212.928 539.707 213.672C538.795 214.44 537.763 214.824 536.587 214.824C535.819 214.824 535.195 214.632 534.715 214.272C534.235 213.888 534.019 213.432 534.019 212.856C534.019 211.056 535.411 210.144 538.195 210.096L541.051 210.048ZM551.865 203.256C549.993 203.256 548.625 204.048 547.737 205.632V203.592H545.937V220.752H547.857V213.744C548.817 215.472 550.185 216.336 551.961 216.336C553.737 216.336 555.105 215.664 556.113 214.368C557.025 213.168 557.505 211.656 557.505 209.832C557.505 207.96 557.025 206.448 556.089 205.248C555.057 203.904 553.641 203.256 551.865 203.256ZM551.625 204.84C552.945 204.84 553.953 205.32 554.649 206.328C555.225 207.192 555.537 208.368 555.537 209.832C555.537 211.32 555.225 212.496 554.601 213.36C553.905 214.272 552.897 214.752 551.553 214.752C550.401 214.752 549.513 214.296 548.841 213.432C548.121 212.544 547.785 211.392 547.785 209.952V209.712C547.785 208.32 548.097 207.168 548.721 206.304C549.393 205.32 550.377 204.84 551.625 204.84ZM565.928 203.256C564.056 203.256 562.688 204.048 561.8 205.632V203.592H560V220.752H561.92V213.744C562.88 215.472 564.248 216.336 566.024 216.336C567.8 216.336 569.168 215.664 570.176 214.368C571.088 213.168 571.568 211.656 571.568 209.832C571.568 207.96 571.088 206.448 570.152 205.248C569.12 203.904 567.704 203.256 565.928 203.256ZM565.688 204.84C567.008 204.84 568.016 205.32 568.712 206.328C569.288 207.192 569.6 208.368 569.6 209.832C569.6 211.32 569.288 212.496 568.664 213.36C567.968 214.272 566.96 214.752 565.616 214.752C564.464 214.752 563.576 214.296 562.904 213.432C562.184 212.544 561.848 211.392 561.848 209.952V209.712C561.848 208.32 562.16 207.168 562.784 206.304C563.456 205.32 564.44 204.84 565.688 204.84Z" fill="#FF6666"/>
<circle cx="803" cy="175" r="173" fill="black" stroke="#FF9933" stroke-width="4"/>
<path d="M701.163 150.528C698.523 150.528 696.459 151.416 695.019 153.24C693.699 154.872 693.051 156.96 693.051 159.504C693.051 162.048 693.675 164.112 694.971 165.696C696.387 167.448 698.427 168.336 701.091 168.336C702.915 168.336 704.499 167.808 705.819 166.776C707.235 165.672 708.123 164.112 708.507 162.12H706.611C706.275 163.608 705.579 164.736 704.571 165.504C703.611 166.224 702.459 166.584 701.091 166.584C699.075 166.584 697.563 165.912 696.507 164.592C695.499 163.344 695.019 161.64 695.019 159.504C695.019 157.368 695.523 155.664 696.531 154.368C697.611 152.976 699.147 152.28 701.139 152.28C702.483 152.28 703.611 152.592 704.547 153.24C705.507 153.912 706.131 154.872 706.371 156.12H708.267C708.027 154.416 707.259 153.048 705.963 152.04C704.667 151.032 703.059 150.528 701.163 150.528ZM716.536 155.256C714.664 155.256 713.2 155.88 712.096 157.176C711.04 158.4 710.512 159.936 710.512 161.808C710.512 163.656 711.04 165.192 712.096 166.392C713.2 167.688 714.664 168.336 716.536 168.336C718.384 168.336 719.872 167.688 721 166.392C722.032 165.192 722.56 163.656 722.56 161.808C722.56 159.936 722.032 158.4 720.976 157.176C719.872 155.88 718.384 155.256 716.536 155.256ZM716.536 156.864C717.832 156.864 718.864 157.368 719.632 158.376C720.28 159.288 720.616 160.416 720.616 161.808C720.616 163.152 720.28 164.304 719.632 165.216C718.864 166.224 717.832 166.728 716.536 166.728C715.216 166.728 714.184 166.224 713.464 165.216C712.792 164.304 712.48 163.176 712.48 161.808C712.48 160.416 712.792 159.288 713.464 158.376C714.184 157.368 715.216 156.864 716.536 156.864ZM725.438 150.528V168H727.334V150.528H725.438ZM731.087 150.528V168H732.983V150.528H731.087ZM741.463 155.256C739.663 155.256 738.247 155.904 737.191 157.2C736.135 158.424 735.631 159.96 735.631 161.784C735.631 163.8 736.159 165.384 737.263 166.584C738.319 167.736 739.759 168.336 741.535 168.336C743.143 168.336 744.463 167.856 745.495 166.944C746.335 166.176 746.887 165.216 747.175 164.016H745.255C744.943 164.88 744.535 165.528 744.007 165.96C743.383 166.464 742.543 166.728 741.535 166.728C740.359 166.728 739.423 166.344 738.751 165.576C738.079 164.808 737.719 163.728 737.623 162.336H747.415C747.367 160.176 746.887 158.472 745.975 157.272C744.967 155.928 743.455 155.256 741.463 155.256ZM741.511 156.864C743.863 156.864 745.183 158.184 745.423 160.848H737.671C737.791 159.624 738.175 158.664 738.847 157.944C739.519 157.224 740.407 156.864 741.511 156.864ZM755.016 155.256C753.168 155.256 751.704 155.904 750.648 157.224C749.664 158.424 749.184 159.96 749.184 161.856C749.184 163.752 749.664 165.288 750.648 166.464C751.68 167.712 753.12 168.336 754.992 168.336C756.528 168.336 757.752 167.928 758.688 167.136C759.648 166.32 760.248 165.096 760.536 163.512H758.616C758.328 165.648 757.104 166.728 754.992 166.728C753.744 166.728 752.784 166.272 752.136 165.408C751.464 164.544 751.152 163.344 751.152 161.832C751.152 160.32 751.488 159.12 752.16 158.232C752.856 157.32 753.816 156.864 755.016 156.864C756 156.864 756.792 157.08 757.416 157.56C758.016 158.04 758.4 158.76 758.568 159.72H760.464C760.248 158.208 759.672 157.08 758.712 156.336C757.776 155.616 756.552 155.256 755.016 155.256ZM766.101 151.584L764.205 152.376V155.592H761.709V157.2H764.205V165.096C764.205 166.032 764.397 166.728 764.805 167.208C765.237 167.736 765.981 168 766.989 168H768.861V166.392H767.277C766.845 166.392 766.533 166.272 766.365 166.08C766.173 165.888 766.101 165.552 766.101 165.096V157.2H769.173V155.592H766.101V151.584ZM779.312 150.528V168H781.112V165.96C781.952 167.544 783.32 168.336 785.24 168.336C787.04 168.336 788.456 167.664 789.488 166.368C790.4 165.168 790.88 163.632 790.88 161.76C790.88 159.936 790.4 158.448 789.488 157.248C788.48 155.904 787.088 155.256 785.336 155.256C783.56 155.256 782.192 156.12 781.232 157.872V150.528H779.312ZM784.928 156.84C786.272 156.84 787.28 157.32 787.976 158.28C788.6 159.12 788.912 160.272 788.912 161.76C788.912 163.248 788.6 164.424 788.024 165.288C787.352 166.248 786.344 166.752 785 166.752C783.752 166.752 782.768 166.272 782.096 165.312C781.472 164.448 781.16 163.32 781.16 161.928V161.688C781.16 160.248 781.496 159.072 782.216 158.184C782.888 157.272 783.8 156.84 784.928 156.84ZM792.007 155.592L796.927 167.712L794.791 172.752H796.879L803.671 155.592H801.559L797.887 165.384L794.095 155.592H792.007ZM813.273 150.528V168H815.193V160.92C815.193 159.768 815.505 158.784 816.153 158.016C816.777 157.248 817.569 156.864 818.529 156.864C819.561 156.864 820.353 157.176 820.929 157.8C821.457 158.424 821.745 159.312 821.745 160.464V168H823.665V160.176C823.665 158.592 823.281 157.368 822.513 156.528C821.745 155.664 820.617 155.256 819.177 155.256C818.337 155.256 817.593 155.448 816.921 155.832C816.201 156.24 815.625 156.84 815.193 157.632V150.528H813.273ZM832.009 155.256C830.521 155.256 829.345 155.544 828.433 156.12C827.425 156.744 826.777 157.728 826.513 159.024L828.409 159.168C828.601 158.376 829.009 157.776 829.657 157.392C830.233 157.008 830.977 156.84 831.889 156.84C834.049 156.84 835.129 157.872 835.129 159.96V160.608L832.153 160.656C830.281 160.68 828.841 161.04 827.833 161.712C826.681 162.432 826.129 163.488 826.129 164.904C826.129 165.912 826.513 166.752 827.281 167.4C828.025 168.024 829.009 168.336 830.257 168.336C831.409 168.336 832.441 168.072 833.353 167.568C834.121 167.136 834.769 166.584 835.249 165.912V168H837.049V160.032C837.049 158.592 836.665 157.464 835.945 156.648C835.081 155.712 833.785 155.256 832.009 155.256ZM835.129 162.048V163.104C835.129 164.064 834.673 164.928 833.785 165.672C832.873 166.44 831.841 166.824 830.665 166.824C829.897 166.824 829.273 166.632 828.793 166.272C828.313 165.888 828.097 165.432 828.097 164.856C828.097 163.056 829.489 162.144 832.273 162.096L835.129 162.048ZM845.463 155.256C844.599 155.256 843.855 155.52 843.207 156.048C842.679 156.456 842.247 157.032 841.911 157.752V155.592H840.015V168H841.911V161.424C841.911 160.272 842.223 159.288 842.895 158.472C843.543 157.608 844.359 157.2 845.319 157.2C845.919 157.2 846.543 157.272 847.167 157.464V155.544C846.711 155.352 846.135 155.256 845.463 155.256ZM857.949 150.528V157.872C856.989 156.12 855.621 155.256 853.845 155.256C852.069 155.256 850.701 155.904 849.693 157.248C848.757 158.448 848.301 159.936 848.301 161.76C848.301 163.632 848.757 165.168 849.693 166.368C850.701 167.664 852.117 168.336 853.941 168.336C855.813 168.336 857.205 167.544 858.069 165.96V168H859.869V150.528H857.949ZM854.253 156.84C855.357 156.84 856.269 157.272 856.965 158.184C857.637 159.072 857.997 160.248 857.997 161.688V161.928C857.997 163.32 857.685 164.448 857.085 165.312C856.389 166.272 855.429 166.752 854.181 166.752C852.837 166.752 851.829 166.248 851.157 165.288C850.557 164.424 850.269 163.248 850.269 161.76C850.269 160.272 850.557 159.12 851.181 158.28C851.853 157.32 852.885 156.84 854.253 156.84ZM861.475 155.592L865.699 168H867.499L870.427 158.016L873.307 168H875.131L879.355 155.592H877.243L874.195 165.648L871.315 155.592H869.515L866.635 165.648L863.587 155.592H861.475ZM886.361 155.256C884.873 155.256 883.697 155.544 882.785 156.12C881.777 156.744 881.129 157.728 880.865 159.024L882.761 159.168C882.953 158.376 883.361 157.776 884.009 157.392C884.585 157.008 885.329 156.84 886.241 156.84C888.401 156.84 889.481 157.872 889.481 159.96V160.608L886.505 160.656C884.633 160.68 883.193 161.04 882.185 161.712C881.033 162.432 880.481 163.488 880.481 164.904C880.481 165.912 880.865 166.752 881.633 167.4C882.377 168.024 883.361 168.336 884.609 168.336C885.761 168.336 886.793 168.072 887.705 167.568C888.473 167.136 889.121 166.584 889.601 165.912V168H891.401V160.032C891.401 158.592 891.017 157.464 890.297 156.648C889.433 155.712 888.137 155.256 886.361 155.256ZM889.481 162.048V163.104C889.481 164.064 889.025 164.928 888.137 165.672C887.225 166.44 886.193 166.824 885.017 166.824C884.249 166.824 883.625 166.632 883.145 166.272C882.665 165.888 882.449 165.432 882.449 164.856C882.449 163.056 883.841 162.144 886.625 162.096L889.481 162.048ZM899.815 155.256C898.951 155.256 898.207 155.52 897.559 156.048C897.031 156.456 896.599 157.032 896.263 157.752V155.592H894.367V168H896.263V161.424C896.263 160.272 896.575 159.288 897.247 158.472C897.895 157.608 898.711 157.2 899.671 157.2C900.271 157.2 900.895 157.272 901.519 157.464V155.544C901.063 155.352 900.487 155.256 899.815 155.256ZM908.245 155.256C906.445 155.256 905.029 155.904 903.973 157.2C902.917 158.424 902.413 159.96 902.413 161.784C902.413 163.8 902.941 165.384 904.045 166.584C905.101 167.736 906.541 168.336 908.317 168.336C909.925 168.336 911.245 167.856 912.277 166.944C913.117 166.176 913.669 165.216 913.957 164.016H912.037C911.725 164.88 911.317 165.528 910.789 165.96C910.165 166.464 909.325 166.728 908.317 166.728C907.141 166.728 906.205 166.344 905.533 165.576C904.861 164.808 904.501 163.728 904.405 162.336H914.197C914.149 160.176 913.669 158.472 912.757 157.272C911.749 155.928 910.237 155.256 908.245 155.256ZM908.293 156.864C910.645 156.864 911.965 158.184 912.205 160.848H904.453C904.573 159.624 904.957 158.664 905.629 157.944C906.301 157.224 907.189 156.864 908.293 156.864ZM704.88 182.864V193.424C704.88 195.656 705.456 197.36 706.608 198.56C707.76 199.736 709.464 200.336 711.72 200.336C713.976 200.336 715.68 199.736 716.856 198.536C717.984 197.36 718.56 195.656 718.56 193.424V182.864H716.592V193.448C716.592 195.128 716.208 196.4 715.464 197.264C714.648 198.152 713.4 198.608 711.72 198.608C710.016 198.608 708.768 198.152 707.976 197.264C707.208 196.4 706.848 195.128 706.848 193.448V182.864H704.88ZM726.165 187.256C724.773 187.256 723.621 187.568 722.757 188.192C721.821 188.816 721.365 189.632 721.365 190.688C721.365 191.744 721.821 192.536 722.781 193.112C723.357 193.496 724.389 193.856 725.853 194.216C727.197 194.552 728.085 194.816 728.493 195.008C729.261 195.392 729.669 195.92 729.669 196.616C729.669 198.008 728.541 198.728 726.333 198.728C725.277 198.728 724.485 198.536 723.957 198.152C723.429 197.72 723.069 197.024 722.925 196.04H721.053C721.341 198.896 723.117 200.336 726.381 200.336C729.885 200.336 731.637 199.04 731.637 196.496C731.637 195.416 731.133 194.576 730.149 193.952C729.501 193.544 728.445 193.16 726.957 192.8C725.709 192.464 724.845 192.2 724.389 191.984C723.669 191.624 723.333 191.168 723.333 190.64C723.333 190.088 723.597 189.656 724.125 189.344C724.605 189.008 725.277 188.864 726.141 188.864C727.125 188.864 727.893 189.056 728.421 189.44C728.901 189.776 729.213 190.352 729.381 191.12H731.253C730.917 188.528 729.237 187.256 726.165 187.256ZM739.002 187.256C737.202 187.256 735.786 187.904 734.73 189.2C733.674 190.424 733.17 191.96 733.17 193.784C733.17 195.8 733.698 197.384 734.802 198.584C735.858 199.736 737.298 200.336 739.074 200.336C740.682 200.336 742.002 199.856 743.034 198.944C743.874 198.176 744.426 197.216 744.714 196.016H742.794C742.482 196.88 742.074 197.528 741.546 197.96C740.922 198.464 740.082 198.728 739.074 198.728C737.898 198.728 736.962 198.344 736.29 197.576C735.618 196.808 735.258 195.728 735.162 194.336H744.954C744.906 192.176 744.426 190.472 743.514 189.272C742.506 187.928 740.994 187.256 739.002 187.256ZM739.05 188.864C741.402 188.864 742.722 190.184 742.962 192.848H735.21C735.33 191.624 735.714 190.664 736.386 189.944C737.058 189.224 737.946 188.864 739.05 188.864ZM752.651 187.256C751.787 187.256 751.043 187.52 750.395 188.048C749.867 188.456 749.435 189.032 749.099 189.752V187.592H747.203V200H749.099V193.424C749.099 192.272 749.411 191.288 750.083 190.472C750.731 189.608 751.547 189.2 752.507 189.2C753.107 189.2 753.731 189.272 754.355 189.464V187.544C753.899 187.352 753.323 187.256 752.651 187.256ZM767.273 183.584L765.377 184.376V187.592H762.881V189.2H765.377V197.096C765.377 198.032 765.569 198.728 765.977 199.208C766.409 199.736 767.153 200 768.161 200H770.033V198.392H768.449C768.017 198.392 767.705 198.272 767.537 198.08C767.345 197.888 767.273 197.552 767.273 197.096V189.2H770.345V187.592H767.273V183.584ZM777.94 187.256C777.076 187.256 776.332 187.52 775.684 188.048C775.156 188.456 774.724 189.032 774.388 189.752V187.592H772.492V200H774.388V193.424C774.388 192.272 774.7 191.288 775.372 190.472C776.02 189.608 776.836 189.2 777.796 189.2C778.396 189.2 779.02 189.272 779.644 189.464V187.544C779.188 187.352 778.612 187.256 777.94 187.256ZM786.658 187.256C785.17 187.256 783.994 187.544 783.082 188.12C782.074 188.744 781.426 189.728 781.162 191.024L783.058 191.168C783.25 190.376 783.658 189.776 784.306 189.392C784.882 189.008 785.626 188.84 786.538 188.84C788.698 188.84 789.778 189.872 789.778 191.96V192.608L786.802 192.656C784.93 192.68 783.49 193.04 782.482 193.712C781.33 194.432 780.778 195.488 780.778 196.904C780.778 197.912 781.162 198.752 781.93 199.4C782.674 200.024 783.658 200.336 784.906 200.336C786.058 200.336 787.09 200.072 788.002 199.568C788.77 199.136 789.418 198.584 789.898 197.912V200H791.698V192.032C791.698 190.592 791.314 189.464 790.594 188.648C789.73 187.712 788.434 187.256 786.658 187.256ZM789.778 194.048V195.104C789.778 196.064 789.322 196.928 788.434 197.672C787.522 198.44 786.49 198.824 785.314 198.824C784.546 198.824 783.922 198.632 783.442 198.272C782.962 197.888 782.746 197.432 782.746 196.856C782.746 195.056 784.138 194.144 786.922 194.096L789.778 194.048ZM796.248 182.912C795.84 182.912 795.504 183.032 795.216 183.32C794.928 183.56 794.808 183.896 794.808 184.328C794.808 184.736 794.928 185.072 795.216 185.36C795.504 185.624 795.84 185.768 796.248 185.768C796.656 185.768 796.992 185.624 797.28 185.36C797.568 185.072 797.712 184.736 797.712 184.328C797.712 183.896 797.568 183.56 797.28 183.32C796.992 183.032 796.656 182.912 796.248 182.912ZM795.288 187.592V200H797.208V187.592H795.288ZM806.612 187.256C805.796 187.256 805.052 187.448 804.38 187.832C803.708 188.192 803.156 188.72 802.724 189.416V187.592H800.804V200H802.724V192.512C802.796 191.384 803.156 190.496 803.828 189.824C804.452 189.2 805.196 188.888 806.06 188.888C808.22 188.888 809.324 190.088 809.324 192.512V200H811.244V192.368C811.244 188.96 809.684 187.256 806.612 187.256ZM815.795 182.912C815.387 182.912 815.051 183.032 814.763 183.32C814.475 183.56 814.355 183.896 814.355 184.328C814.355 184.736 814.475 185.072 814.763 185.36C815.051 185.624 815.387 185.768 815.795 185.768C816.203 185.768 816.539 185.624 816.827 185.36C817.115 185.072 817.259 184.736 817.259 184.328C817.259 183.896 817.115 183.56 816.827 183.32C816.539 183.032 816.203 182.912 815.795 182.912ZM814.835 187.592V200H816.755V187.592H814.835ZM826.159 187.256C825.343 187.256 824.599 187.448 823.927 187.832C823.255 188.192 822.703 188.72 822.271 189.416V187.592H820.351V200H822.271V192.512C822.343 191.384 822.703 190.496 823.375 189.824C823.999 189.2 824.743 188.888 825.607 188.888C827.767 188.888 828.871 190.088 828.871 192.512V200H830.791V192.368C830.791 188.96 829.231 187.256 826.159 187.256ZM838.87 187.256C837.142 187.256 835.774 187.856 834.766 189.08C833.758 190.232 833.278 191.696 833.278 193.52C833.278 195.32 833.758 196.784 834.766 197.936C835.774 199.112 837.142 199.712 838.87 199.712C840.742 199.712 842.134 198.872 843.046 197.216V199.4C843.046 202.136 841.798 203.528 839.302 203.528C838.174 203.528 837.334 203.312 836.782 202.904C836.23 202.52 835.87 201.896 835.726 201.056H833.806C834.022 202.4 834.574 203.408 835.462 204.08C836.326 204.752 837.622 205.088 839.302 205.088C843.07 205.088 844.966 203.096 844.966 199.136V187.592H843.046V189.728C842.134 188.072 840.742 187.256 838.87 187.256ZM839.158 188.84C840.382 188.84 841.342 189.272 842.062 190.184C842.734 191 843.07 192.128 843.07 193.52C843.07 194.864 842.734 195.968 842.062 196.808C841.342 197.672 840.382 198.104 839.134 198.104C837.79 198.104 836.806 197.624 836.134 196.712C835.534 195.896 835.246 194.816 835.246 193.52C835.246 192.128 835.582 191 836.254 190.184C836.95 189.272 837.91 188.84 839.158 188.84ZM865.097 182.528V189.872C864.137 188.12 862.769 187.256 860.993 187.256C859.217 187.256 857.849 187.904 856.841 189.248C855.905 190.448 855.449 191.936 855.449 193.76C855.449 195.632 855.905 197.168 856.841 198.368C857.849 199.664 859.265 200.336 861.089 200.336C862.961 200.336 864.353 199.544 865.217 197.96V200H867.017V182.528H865.097ZM861.401 188.84C862.505 188.84 863.417 189.272 864.113 190.184C864.785 191.072 865.145 192.248 865.145 193.688V193.928C865.145 195.32 864.833 196.448 864.233 197.312C863.537 198.272 862.577 198.752 861.329 198.752C859.985 198.752 858.977 198.248 858.305 197.288C857.705 196.424 857.417 195.248 857.417 193.76C857.417 192.272 857.705 191.12 858.329 190.28C859.001 189.32 860.033 188.84 861.401 188.84ZM875.392 187.256C873.904 187.256 872.728 187.544 871.816 188.12C870.808 188.744 870.16 189.728 869.896 191.024L871.792 191.168C871.984 190.376 872.392 189.776 873.04 189.392C873.616 189.008 874.36 188.84 875.272 188.84C877.432 188.84 878.512 189.872 878.512 191.96V192.608L875.536 192.656C873.664 192.68 872.224 193.04 871.216 193.712C870.064 194.432 869.512 195.488 869.512 196.904C869.512 197.912 869.896 198.752 870.664 199.4C871.408 200.024 872.392 200.336 873.64 200.336C874.792 200.336 875.824 200.072 876.736 199.568C877.504 199.136 878.152 198.584 878.632 197.912V200H880.432V192.032C880.432 190.592 880.048 189.464 879.328 188.648C878.464 187.712 877.168 187.256 875.392 187.256ZM878.512 194.048V195.104C878.512 196.064 878.056 196.928 877.168 197.672C876.256 198.44 875.224 198.824 874.048 198.824C873.28 198.824 872.656 198.632 872.176 198.272C871.696 197.888 871.48 197.432 871.48 196.856C871.48 195.056 872.872 194.144 875.656 194.096L878.512 194.048ZM886.71 183.584L884.814 184.376V187.592H882.318V189.2H884.814V197.096C884.814 198.032 885.006 198.728 885.414 199.208C885.846 199.736 886.59 200 887.598 200H889.47V198.392H887.886C887.454 198.392 887.142 198.272 886.974 198.08C886.782 197.888 886.71 197.552 886.71 197.096V189.2H889.782V187.592H886.71V183.584ZM897.329 187.256C895.841 187.256 894.665 187.544 893.753 188.12C892.745 188.744 892.097 189.728 891.833 191.024L893.729 191.168C893.921 190.376 894.329 189.776 894.977 189.392C895.553 189.008 896.297 188.84 897.209 188.84C899.369 188.84 900.449 189.872 900.449 191.96V192.608L897.473 192.656C895.601 192.68 894.161 193.04 893.153 193.712C892.001 194.432 891.449 195.488 891.449 196.904C891.449 197.912 891.833 198.752 892.601 199.4C893.345 200.024 894.329 200.336 895.577 200.336C896.729 200.336 897.761 200.072 898.673 199.568C899.441 199.136 900.089 198.584 900.569 197.912V200H902.369V192.032C902.369 190.592 901.985 189.464 901.265 188.648C900.401 187.712 899.105 187.256 897.329 187.256ZM900.449 194.048V195.104C900.449 196.064 899.993 196.928 899.105 197.672C898.193 198.44 897.161 198.824 895.985 198.824C895.217 198.824 894.593 198.632 894.113 198.272C893.633 197.888 893.417 197.432 893.417 196.856C893.417 195.056 894.809 194.144 897.593 194.096L900.449 194.048Z" fill="#FF9933"/>
</svg>
