<svg width="898" height="490" viewBox="0 0 898 490" fill="none" xmlns="http://www.w3.org/2000/svg">
<rect width="898" height="490" fill="black"/>
<rect width="866" height="458" transform="translate(16 16)" fill="black"/>
<rect x="194.5" y="80.5" width="127" height="47" rx="7.5" stroke="white"/>
<path d="M241.656 99.024V108.408H242.484V99.024H241.656ZM244.164 98.436V109.224H245.016V98.436H244.164ZM239.268 98.472V103.752C239.244 106.02 238.764 107.664 237.804 108.696L238.452 109.272C239.52 108.108 240.072 106.272 240.096 103.752V98.472H239.268ZM235.944 98.316L235.344 98.904C236.208 99.552 236.904 100.176 237.408 100.764L237.996 100.164C237.444 99.54 236.76 98.928 235.944 98.316ZM234.54 101.868V102.696H236.304V107.364C236.304 107.568 236.208 107.748 236.04 107.904L236.376 108.672C237.096 108.144 237.768 107.544 238.404 106.872L238.176 105.972C237.816 106.356 237.468 106.704 237.132 107.016V101.868H234.54ZM250.332 106.764C249.252 107.22 247.968 107.592 246.504 107.856L246.612 108.72C248.004 108.432 249.252 108.072 250.332 107.616V106.764ZM248.52 98.22C248.088 99.636 247.584 100.884 246.984 101.976C246.876 102.132 246.756 102.24 246.612 102.312L246.828 103.104C247.452 102.996 248.064 102.876 248.676 102.756C248.076 103.884 247.56 104.676 247.14 105.156C247.032 105.252 246.9 105.336 246.756 105.408L246.984 106.212C248.088 106.044 249.228 105.744 250.428 105.288V104.508C249.624 104.808 248.82 105.048 248.016 105.216C248.664 104.364 249.504 102.936 250.512 100.932L249.72 100.632C249.504 101.1 249.288 101.544 249.072 101.976C248.592 102.072 248.112 102.156 247.632 102.228C248.208 101.304 248.772 100.08 249.348 98.544L248.52 98.22ZM251.784 105.444C251.436 106.428 250.932 107.388 250.272 108.336L251.016 108.756C251.592 107.928 252.096 106.932 252.54 105.756L251.784 105.444ZM256.284 105.432L255.516 105.684C255.996 106.572 256.44 107.592 256.836 108.744L257.568 108.42C257.208 107.364 256.776 106.368 256.284 105.432ZM253.608 109.092C254.292 109.092 254.64 108.768 254.64 108.132V104.748H257.196V103.98H254.64V101.652H253.032C253.176 101.244 253.32 100.8 253.464 100.344H257.196V99.54H253.704C253.812 99.156 253.92 98.76 254.028 98.34L253.188 98.184C253.068 98.652 252.96 99.108 252.84 99.54H250.176V100.344H252.6C252.456 100.8 252.312 101.232 252.168 101.652H250.608V102.432H251.856C251.604 103.008 251.34 103.536 251.076 104.004L251.268 104.748H253.812V107.868C253.812 108.18 253.656 108.336 253.356 108.336L252.204 108.3L252.42 109.092H253.608ZM252.732 102.432H253.812V103.98H252.036C252.276 103.5 252.504 102.984 252.732 102.432ZM265.692 103.824C263.892 104.928 261.744 105.864 259.248 106.632L259.596 107.424C262.116 106.608 264.216 105.66 265.908 104.604L265.692 103.824ZM260.916 100.956L260.316 101.532C261.384 102.336 262.224 103.092 262.848 103.812L263.436 103.212C262.752 102.456 261.912 101.7 260.916 100.956ZM264.444 109.128C265.212 109.104 265.848 109.092 266.364 109.092C267.012 109.092 267.444 108.876 267.672 108.444C267.912 108.012 268.056 107.208 268.104 106.02C268.152 105.252 268.2 102.9 268.26 98.94H259.548V99.768H267.384C267.36 102.708 267.348 104.592 267.324 105.432C267.288 106.692 267.18 107.496 267 107.832C266.82 108.156 266.544 108.324 266.184 108.324C265.524 108.324 264.864 108.312 264.204 108.3L264.444 109.128ZM280.656 103.14H275.04V107.016H275.88V103.884H279.816V106.956H280.656V103.14ZM275.448 98.604L275.328 100.104H274.368V100.836H275.268L275.136 102.384H280.452L280.548 100.836H281.46V100.104H280.596L280.692 98.604H275.448ZM275.976 101.712L276.06 100.788H277.476L277.392 101.712H275.976ZM276.108 100.176L276.192 99.276H277.62L277.536 100.176H276.108ZM278.352 99.276H279.9L279.828 100.176H278.268L278.352 99.276ZM279.78 100.788L279.708 101.712H278.112L278.208 100.788H279.78ZM277.404 104.568V105.36C277.38 106.164 277.128 106.824 276.66 107.328C276.168 107.808 275.304 108.192 274.08 108.492L274.536 109.224C275.832 108.9 276.756 108.444 277.332 107.868C277.908 107.232 278.22 106.392 278.256 105.36V104.568H277.404ZM270.912 100.512C270.876 101.64 270.72 102.72 270.432 103.752L271.116 103.944C271.38 102.876 271.524 101.748 271.572 100.56L270.912 100.512ZM273.792 100.272L273.216 100.464C273.492 101.304 273.72 102.168 273.912 103.056L274.524 102.912C274.308 101.916 274.068 101.04 273.792 100.272ZM278.58 106.836L278.148 107.484C279.156 107.916 280.14 108.492 281.112 109.224L281.58 108.504C280.668 107.856 279.672 107.292 278.58 106.836ZM272.148 98.22V109.164H272.988V98.22H272.148Z" fill="white"/>
<rect x="754" y="144" width="128" height="48" rx="8" fill="white"/>
<path d="M769.556 165.748V173.188H770.444V165.748H769.556ZM769.616 162.208C768.404 164.008 766.676 165.484 764.432 166.624L764.948 167.404C766.988 166.372 768.668 164.908 770 163.012C771.104 164.74 772.796 166.18 775.052 167.356L775.568 166.576C773.12 165.316 771.392 163.864 770.384 162.208H769.616ZM776.888 164.512C776.852 165.664 776.708 166.756 776.456 167.788L777.164 167.992C777.404 166.912 777.548 165.76 777.572 164.56L776.888 164.512ZM779.9 164.26L779.264 164.464C779.54 165.136 779.768 165.844 779.948 166.576L780.548 166.42C780.44 166.66 780.32 166.912 780.188 167.176L780.824 167.752C781.244 167.008 781.568 166.192 781.784 165.316H783.656V168.22H780.908V169.072H783.656V172H780.224V172.84H787.472V172H784.544V169.072H786.98V168.22H784.544V165.316H787.16V164.488H784.544V162.244H783.656V164.488H781.94C782.012 164.032 782.06 163.552 782.084 163.048L781.304 162.94C781.244 164.128 781.004 165.244 780.596 166.288C780.392 165.52 780.164 164.848 779.9 164.26ZM778.184 162.232V173.152H779.06V162.232H778.184ZM792.164 162.112C791.396 164.008 790.16 165.688 788.456 167.152L788.732 168.052C789.368 167.524 789.956 166.96 790.496 166.372V173.224H791.36V165.316C792.008 164.428 792.548 163.492 792.968 162.484L792.164 162.112ZM797.696 173.008C798.272 173.008 798.668 172.864 798.884 172.576C799.088 172.288 799.232 171.448 799.316 170.068L798.512 169.804C798.464 170.992 798.38 171.688 798.248 171.88C798.104 172.072 797.864 172.18 797.552 172.18H795.608C795.2 172.18 795.008 171.988 795.008 171.616V167.56C796.496 166.624 797.804 165.556 798.92 164.356L798.32 163.672C797.372 164.74 796.268 165.7 795.008 166.54V162.256H794.144V167.068C793.532 167.428 792.884 167.752 792.212 168.064L792.596 168.88C793.124 168.628 793.64 168.364 794.144 168.076V171.736C794.144 172.576 794.564 173.008 795.404 173.008H797.696ZM802.22 163.84H803.444C803.42 164.248 803.384 164.632 803.312 165.004H800.684V165.796H803.096L802.976 166.084C802.58 166.9 801.764 167.584 800.516 168.136L801.092 168.844C802.28 168.292 803.12 167.596 803.6 166.756C804.416 167.236 805.064 167.692 805.568 168.148L806.18 167.536C805.556 167.056 804.788 166.588 803.876 166.132C803.9 166.024 803.936 165.916 803.972 165.796H806.408V165.004H804.152C804.2 164.644 804.236 164.248 804.26 163.84H806.072V163.072H802.64C802.748 162.832 802.856 162.568 802.964 162.28L802.184 162.112C801.788 163.072 801.308 163.816 800.732 164.344L801.248 164.992C801.608 164.668 801.932 164.284 802.22 163.84ZM806.912 163.012V167.404H810.86V163.012H806.912ZM810.02 166.636H807.752V163.78H810.02V166.636ZM810.008 168.268H802.328V173.224H803.192V172.684H809.132V173.224H810.008V168.268ZM803.192 171.916V170.884H809.132V171.916H803.192ZM803.192 170.128V169.036H809.132V170.128H803.192ZM814.148 169.084H816.92V170.2H814.148V169.084ZM816.92 168.364H814.148V167.2H816.92V168.364ZM814.148 170.932H816.92V171.904C816.92 172.204 816.764 172.36 816.464 172.36L815.564 172.324L815.78 173.14H816.74C817.412 173.14 817.748 172.78 817.748 172.084V166.444H813.32V173.224H814.148V170.932ZM821.96 167.44C822.38 167.44 822.692 167.344 822.884 167.164C823.1 166.948 823.256 166.348 823.34 165.364L822.536 165.112C822.488 165.856 822.416 166.3 822.296 166.468C822.2 166.588 822.032 166.66 821.792 166.66H820.22C819.896 166.66 819.74 166.468 819.74 166.084V164.584C821.06 164.392 822.224 164.164 823.232 163.912L822.956 163.156C822.128 163.372 821.06 163.588 819.74 163.792V162.232H818.888V166.264C818.888 167.044 819.248 167.44 819.98 167.44H821.96ZM819.74 170.152C820.988 170.044 822.152 169.84 823.232 169.528L822.956 168.76C822.008 169.048 820.94 169.252 819.74 169.372V167.896H818.888V172.06C818.888 172.696 819.236 173.02 819.956 173.02H821.996C822.428 173.02 822.74 172.924 822.932 172.744C823.16 172.528 823.316 171.94 823.388 170.968L822.608 170.728C822.56 171.46 822.476 171.904 822.344 172.072C822.248 172.18 822.068 172.24 821.828 172.24H820.196C819.884 172.24 819.74 172.108 819.74 171.868V170.152ZM816.884 163.048L816.212 163.468C816.5 163.876 816.776 164.284 817.028 164.668C815.9 164.812 814.832 164.908 813.824 164.968C814.496 164.356 815.096 163.516 815.648 162.448L814.832 162.196C814.352 163.156 813.728 164.02 812.984 164.788C812.876 164.884 812.744 164.968 812.588 165.016L812.828 165.736C814.604 165.64 816.14 165.496 817.424 165.292C817.58 165.556 817.724 165.82 817.856 166.084L818.564 165.58C818.168 164.86 817.604 164.02 816.884 163.048ZM831.656 163.024V172.408H832.484V163.024H831.656ZM834.164 162.436V173.224H835.016V162.436H834.164ZM829.268 162.472V167.752C829.244 170.02 828.764 171.664 827.804 172.696L828.452 173.272C829.52 172.108 830.072 170.272 830.096 167.752V162.472H829.268ZM825.944 162.316L825.344 162.904C826.208 163.552 826.904 164.176 827.408 164.764L827.996 164.164C827.444 163.54 826.76 162.928 825.944 162.316ZM824.54 165.868V166.696H826.304V171.364C826.304 171.568 826.208 171.748 826.04 171.904L826.376 172.672C827.096 172.144 827.768 171.544 828.404 170.872L828.176 169.972C827.816 170.356 827.468 170.704 827.132 171.016V165.868H824.54ZM840.332 170.764C839.252 171.22 837.968 171.592 836.504 171.856L836.612 172.72C838.004 172.432 839.252 172.072 840.332 171.616V170.764ZM838.52 162.22C838.088 163.636 837.584 164.884 836.984 165.976C836.876 166.132 836.756 166.24 836.612 166.312L836.828 167.104C837.452 166.996 838.064 166.876 838.676 166.756C838.076 167.884 837.56 168.676 837.14 169.156C837.032 169.252 836.9 169.336 836.756 169.408L836.984 170.212C838.088 170.044 839.228 169.744 840.428 169.288V168.508C839.624 168.808 838.82 169.048 838.016 169.216C838.664 168.364 839.504 166.936 840.512 164.932L839.72 164.632C839.504 165.1 839.288 165.544 839.072 165.976C838.592 166.072 838.112 166.156 837.632 166.228C838.208 165.304 838.772 164.08 839.348 162.544L838.52 162.22ZM841.784 169.444C841.436 170.428 840.932 171.388 840.272 172.336L841.016 172.756C841.592 171.928 842.096 170.932 842.54 169.756L841.784 169.444ZM846.284 169.432L845.516 169.684C845.996 170.572 846.44 171.592 846.836 172.744L847.568 172.42C847.208 171.364 846.776 170.368 846.284 169.432ZM843.608 173.092C844.292 173.092 844.64 172.768 844.64 172.132V168.748H847.196V167.98H844.64V165.652H843.032C843.176 165.244 843.32 164.8 843.464 164.344H847.196V163.54H843.704C843.812 163.156 843.92 162.76 844.028 162.34L843.188 162.184C843.068 162.652 842.96 163.108 842.84 163.54H840.176V164.344H842.6C842.456 164.8 842.312 165.232 842.168 165.652H840.608V166.432H841.856C841.604 167.008 841.34 167.536 841.076 168.004L841.268 168.748H843.812V171.868C843.812 172.18 843.656 172.336 843.356 172.336L842.204 172.3L842.42 173.092H843.608ZM842.732 166.432H843.812V167.98H842.036C842.276 167.5 842.504 166.984 842.732 166.432ZM852.296 165.796V166.66H855.548V173.224H856.436V166.66H859.52V165.796H856.436V162.184H855.548V165.796H852.296ZM849.944 162.316L849.344 162.904C850.208 163.552 850.904 164.176 851.408 164.764L851.996 164.164C851.444 163.54 850.76 162.928 849.944 162.316ZM848.54 165.868V166.696H850.304V171.484C850.304 171.676 850.208 171.844 850.028 171.988L850.364 172.768C851.216 172.204 852.02 171.568 852.764 170.848L852.548 169.96C852.044 170.44 851.564 170.848 851.132 171.208V165.868H848.54ZM867.716 163.24V170.728H868.556V163.24H867.716ZM869.852 173.092C870.596 173.092 870.98 172.72 870.98 171.976V162.232H870.116V171.76C870.116 172.132 869.924 172.324 869.552 172.324C869.048 172.324 868.508 172.3 867.932 172.264L868.124 173.092H869.852ZM866.516 164.872L863.096 165.4C863.024 164.452 862.988 163.396 862.988 162.22H862.1C862.1 163.444 862.148 164.548 862.244 165.532L860.636 165.784L860.768 166.624L862.328 166.384C862.424 167.224 862.544 167.956 862.712 168.58C862.844 169.108 862.988 169.588 863.156 170.032C862.376 170.752 861.476 171.304 860.468 171.7L860.984 172.48C861.908 172.096 862.748 171.568 863.516 170.92C863.696 171.316 863.9 171.664 864.116 171.976C864.668 172.744 865.22 173.128 865.772 173.128C866.072 173.128 866.348 172.864 866.588 172.36C866.78 171.94 866.96 171.424 867.128 170.8L866.396 170.332C866.156 171.556 865.94 172.18 865.724 172.216C865.364 172.204 864.956 171.844 864.512 171.136C864.38 170.896 864.248 170.632 864.128 170.332C865.004 169.42 865.748 168.28 866.348 166.936L865.592 166.54C865.1 167.632 864.5 168.58 863.792 169.384C863.66 168.976 863.54 168.52 863.432 168.004C863.324 167.476 863.24 166.9 863.168 166.252L866.648 165.712L866.516 164.872ZM864.572 162.172L863.864 162.52C864.308 163.048 864.728 163.636 865.124 164.296L865.856 163.936C865.448 163.3 865.028 162.712 864.572 162.172Z" fill="black"/>
<rect x="194.5" y="16.5" width="127" height="47" rx="7.5" stroke="white"/>
<path d="M239.556 37.748V45.188H240.444V37.748H239.556ZM239.616 34.208C238.404 36.008 236.676 37.484 234.432 38.624L234.948 39.404C236.988 38.372 238.668 36.908 240 35.012C241.104 36.74 242.796 38.18 245.052 39.356L245.568 38.576C243.12 37.316 241.392 35.864 240.384 34.208H239.616ZM252.432 34.22H251.556C251.556 34.676 251.544 35.312 251.532 36.128C251.424 39.584 249.72 42.332 246.42 44.36L246.948 45.128C249.612 43.412 251.316 41.252 252.036 38.636C252.888 41.348 254.544 43.508 256.992 45.116L257.556 44.36C254.76 42.644 253.02 40.148 252.348 36.884C252.396 36.14 252.432 35.252 252.432 34.22ZM259.416 34.448L258.996 35.096C259.656 35.312 260.304 35.6 260.952 35.984L261.408 35.288C260.808 34.952 260.136 34.676 259.416 34.448ZM263.28 34.16C262.992 35.012 262.464 35.732 261.672 36.308L262.176 36.98C262.632 36.62 263.028 36.224 263.364 35.792H264.9C264.756 36.464 264.456 36.992 264.024 37.388C263.496 37.844 262.644 38.192 261.468 38.444L261.792 39.212C263.136 38.9 264.096 38.456 264.684 37.904C264.864 37.712 265.02 37.508 265.164 37.292C265.908 38.252 267.156 38.9 268.908 39.26L269.22 38.492C267.372 38.144 266.136 37.508 265.512 36.584C265.608 36.344 265.68 36.08 265.728 35.792H267.768C267.624 36.26 267.456 36.68 267.252 37.052L268.08 37.304C268.32 36.728 268.512 36.14 268.656 35.552V35.036H263.82C263.94 34.796 264.036 34.532 264.132 34.268L263.28 34.16ZM267.84 39.536H260.124V43.196H260.988V40.34H266.976V43.1H267.84V39.536ZM263.64 40.796C263.544 42.032 263.22 42.908 262.68 43.424C262.068 43.976 260.808 44.3 258.9 44.408L259.236 45.176C261.396 45.008 262.788 44.588 263.412 43.94C263.976 43.412 264.336 42.392 264.504 40.868L263.64 40.796ZM261.084 36.704C260.46 37.304 259.692 37.868 258.78 38.384L259.356 39.056C260.244 38.504 260.988 37.916 261.588 37.292L261.084 36.704ZM264.78 43.064L264.336 43.724C265.788 44.096 267.204 44.612 268.572 45.26L269.04 44.54C267.756 43.964 266.34 43.472 264.78 43.064ZM271.476 35.192L270.756 35.42C271.044 36.2 271.272 37.016 271.464 37.868L272.136 37.676C271.944 36.74 271.716 35.912 271.476 35.192ZM274.74 35.036C274.668 35.984 274.512 36.824 274.248 37.544L274.908 37.76C275.208 36.992 275.4 36.116 275.472 35.132L274.74 35.036ZM270.648 38.408V39.248H272.748C272.28 40.352 271.524 41.408 270.48 42.416L270.828 43.304C271.608 42.452 272.268 41.456 272.796 40.328V45.164H273.672V40.316C274.032 40.772 274.464 41.384 274.968 42.14L275.484 41.384C274.872 40.712 274.272 40.1 273.672 39.56V39.248H275.46V38.408H273.672V34.244H272.796V38.408H270.648ZM279.252 34.256V41.192L275.664 41.732L275.784 42.596L279.252 42.068V45.164H280.104V41.936L281.568 41.72L281.424 40.856L280.104 41.06V34.256H279.252ZM276.828 35.108L276.252 35.66C277.092 36.296 277.752 36.896 278.232 37.46L278.82 36.872C278.28 36.296 277.62 35.708 276.828 35.108ZM276.54 37.916L275.964 38.468C276.78 39.128 277.428 39.752 277.908 40.34L278.496 39.74C277.968 39.14 277.308 38.528 276.54 37.916Z" fill="white"/>
<rect x="388" y="32" width="142" height="133" rx="16" fill="#FF6666"/>
<path d="M419.004 103.592C419.7 103.592 420.048 103.196 420.048 102.428V99.092C420.48 98.9 420.912 98.708 421.332 98.492V97.628C420.912 97.844 420.48 98.048 420.048 98.24V95.828H421.068V95H420.048V92.732H419.196V95H417.66V95.828H419.196V98.576C418.62 98.78 418.044 98.948 417.444 99.092L417.66 99.956C418.176 99.8 418.692 99.632 419.196 99.44V102.224C419.196 102.62 419.028 102.824 418.704 102.824C418.392 102.824 418.08 102.8 417.744 102.764L417.924 103.592H419.004ZM423.336 97.808C422.664 98.672 421.884 99.368 420.996 99.884L421.452 100.664C422.16 100.16 422.784 99.56 423.324 98.84C423.228 100.82 422.52 102.272 421.212 103.184L421.86 103.76C423.324 102.644 424.08 100.88 424.116 98.48V92.732H423.336V97.808ZM427.464 94.076C427.092 95.06 426.636 95.912 426.096 96.608L426.78 97.088C427.32 96.344 427.8 95.468 428.208 94.448L427.464 94.076ZM425.964 98.42C426.612 98.912 427.26 99.536 427.896 100.28L428.376 99.536C427.644 98.768 426.84 98.108 425.964 97.556V92.72H425.148V102.368C425.148 103.112 425.472 103.496 426.12 103.496H427.056C427.464 103.496 427.776 103.388 427.968 103.172C428.184 102.908 428.328 102.188 428.412 101.012L427.632 100.772C427.584 101.732 427.512 102.308 427.392 102.5C427.296 102.656 427.128 102.74 426.9 102.74H426.36C426.096 102.74 425.964 102.56 425.964 102.2V98.42ZM422.04 94.364L421.32 94.712C421.728 95.492 422.1 96.38 422.46 97.388L423.132 97.04C422.784 96.068 422.424 95.18 422.04 94.364ZM431.568 92.744V97.844H429.984V103.256H430.812V102.368H434.268V97.844H432.408V95.612H434.808V94.82H432.408V92.744H431.568ZM430.812 101.576V98.636H433.44V101.576H430.812ZM440.124 95.372L436.908 95.96C436.836 95.024 436.8 93.944 436.8 92.732H435.96C435.96 93.98 435.996 95.096 436.068 96.104L434.352 96.416L434.484 97.208L436.14 96.908C436.212 97.76 436.332 98.504 436.488 99.152C436.608 99.692 436.74 100.196 436.896 100.652C436.032 101.54 435.06 102.212 433.968 102.68L434.46 103.34C435.432 102.944 436.356 102.32 437.22 101.48C437.376 101.84 437.556 102.164 437.748 102.44C438.252 103.16 438.72 103.52 439.176 103.52C439.716 103.52 440.136 102.704 440.424 101.072L439.716 100.688C439.524 101.936 439.296 102.56 439.032 102.572C438.828 102.572 438.552 102.284 438.216 101.708C438.072 101.468 437.94 101.18 437.808 100.856C438.564 99.98 439.272 98.912 439.92 97.652L439.248 97.196C438.744 98.24 438.168 99.164 437.52 99.956C437.424 99.644 437.34 99.296 437.268 98.924C437.148 98.348 437.04 97.616 436.968 96.752L440.244 96.164L440.124 95.372ZM438.144 92.972L437.532 93.356C438.12 93.992 438.576 94.568 438.912 95.096L439.548 94.652C439.212 94.172 438.744 93.62 438.144 92.972ZM442.116 93.236V94.004H443.34V95.804H441.804V96.596H443.292C443.172 97.58 442.776 98.312 442.104 98.816L442.752 99.38C443.544 98.756 444 97.832 444.132 96.596H445.704V99.236H446.544V96.596H448.02V95.804H446.544V94.004H447.756V93.236H442.116ZM444.168 94.004H445.704V95.804H444.168V94.004ZM448.728 93.512V97.64H449.556V93.512H448.728ZM442.404 100.412V101.204H446.616V102.608H441.732V103.4H452.268V102.608H447.48V101.204H451.608V100.412H447.48V99.368H446.616V100.412H442.404ZM450.768 99.344C451.404 99.344 451.728 98.972 451.728 98.24V92.852H450.9V98.036C450.9 98.396 450.756 98.588 450.48 98.588C450 98.588 449.508 98.564 448.98 98.528L449.16 99.344H450.768ZM457.296 96.296V97.16H460.548V103.724H461.436V97.16H464.52V96.296H461.436V92.684H460.548V96.296H457.296ZM454.944 92.816L454.344 93.404C455.208 94.052 455.904 94.676 456.408 95.264L456.996 94.664C456.444 94.04 455.76 93.428 454.944 92.816ZM453.54 96.368V97.196H455.304V101.984C455.304 102.176 455.208 102.344 455.028 102.488L455.364 103.268C456.216 102.704 457.02 102.068 457.764 101.348L457.548 100.46C457.044 100.94 456.564 101.348 456.132 101.708V96.368H453.54ZM467.124 95.408V100.124H468.648V100.592C468.648 100.688 468.636 100.808 468.624 100.928H465.684V101.696H468.408C468.336 101.84 468.252 101.972 468.156 102.104C467.82 102.464 467.232 102.764 466.392 103.004L466.836 103.688C467.76 103.424 468.432 103.064 468.84 102.596C469.056 102.344 469.212 102.044 469.332 101.696H472.74V103.724H473.592V101.696H476.316V100.928H473.592V100.124H475.02V95.408H467.124ZM469.512 100.124H472.74V100.928H469.488C469.5 100.82 469.512 100.712 469.512 100.592V100.124ZM474.18 99.452H467.964V98.708H474.18V99.452ZM467.964 98.084V97.412H474.18V98.084H467.964ZM467.964 96.8V96.08H474.18V96.8H467.964ZM467.484 94.232H468.408C468.648 94.556 468.864 94.892 469.056 95.228L469.776 94.964C469.644 94.736 469.476 94.496 469.272 94.232H470.844V93.5H467.868C467.964 93.272 468.072 93.032 468.168 92.792L467.34 92.612C467.016 93.524 466.488 94.364 465.756 95.132L466.476 95.576C466.86 95.168 467.196 94.712 467.484 94.232ZM472.416 94.196H473.328C473.592 94.532 473.82 94.88 474.012 95.24L474.732 94.976C474.588 94.736 474.42 94.472 474.204 94.196H476.208V93.464H472.788L473.04 92.816L472.2 92.636C471.936 93.452 471.504 94.208 470.904 94.88L471.612 95.336C471.912 94.988 472.176 94.604 472.416 94.196ZM481.188 93.692V94.46H482.94V95.36H483.744V94.46H485.676V95.36H486.492V94.46H488.352V93.692H486.492V92.732H485.676V93.692H483.744V92.732H482.94V93.692H481.188ZM484.56 101.228C485.256 102.236 486.372 103.064 487.932 103.736L488.508 103.052C487.092 102.548 486.036 101.888 485.34 101.072H488.376V100.28H484.92C484.992 100.004 485.064 99.704 485.112 99.368H487.572V95.732H481.824V99.368H484.344C484.284 99.68 484.212 99.992 484.116 100.28H480.96V101.072H483.756C483.66 101.24 483.54 101.396 483.42 101.552C482.892 102.164 482.04 102.632 480.84 102.956L481.152 103.676C482.532 103.28 483.492 102.74 484.044 102.044C484.236 101.804 484.416 101.528 484.56 101.228ZM480.024 97.556C480.336 98.048 480.72 98.684 481.164 99.476L481.62 98.792C481.068 97.988 480.54 97.268 480.024 96.644V95.852H481.284V95.072H480.024V92.744H479.208V95.072H477.816V95.852H479.208V95.924C478.848 97.388 478.248 98.684 477.42 99.836L477.792 100.772C478.368 99.848 478.836 98.816 479.208 97.688V103.664H480.024V97.556ZM486.792 98.696H482.604V97.88H486.792V98.696ZM482.604 97.232V96.428H486.792V97.232H482.604ZM490.116 93.236V94.004H491.34V95.804H489.804V96.596H491.292C491.172 97.58 490.776 98.312 490.104 98.816L490.752 99.38C491.544 98.756 492 97.832 492.132 96.596H493.704V99.236H494.544V96.596H496.02V95.804H494.544V94.004H495.756V93.236H490.116ZM492.168 94.004H493.704V95.804H492.168V94.004ZM496.728 93.512V97.64H497.556V93.512H496.728ZM490.404 100.412V101.204H494.616V102.608H489.732V103.4H500.268V102.608H495.48V101.204H499.608V100.412H495.48V99.368H494.616V100.412H490.404ZM498.768 99.344C499.404 99.344 499.728 98.972 499.728 98.24V92.852H498.9V98.036C498.9 98.396 498.756 98.588 498.48 98.588C498 98.588 497.508 98.564 496.98 98.528L497.16 99.344H498.768Z" fill="white"/>
<rect x="546" y="32" width="142" height="133" rx="16" fill="#66B2FF"/>
<path d="M575.612 96.356V97.196H578.804C578.552 98.024 578.276 98.816 577.988 99.584H583.916C583.28 100.376 582.404 101.144 581.3 101.864C580.472 101.576 579.608 101.3 578.708 101.06L578.252 101.732C580.16 102.248 582.02 102.944 583.82 103.832L584.3 103.076C583.64 102.764 582.944 102.464 582.224 102.2C583.46 101.312 584.36 100.412 584.936 99.524V98.78H579.224C579.392 98.288 579.572 97.76 579.74 97.196H586.388V96.356H579.968C580.088 95.888 580.208 95.396 580.328 94.868H585.68V94.064H580.508C580.604 93.632 580.688 93.164 580.784 92.684L579.896 92.612C579.8 93.092 579.704 93.572 579.596 94.064H576.428V94.868H579.416C579.296 95.372 579.176 95.864 579.044 96.356H575.612ZM591.26 92.816V102.356H587.684V103.196H598.316V102.356H594.716V92.816H593.84V102.356H592.136V92.816H591.26ZM597.224 95C596.708 97.196 596.096 99.008 595.4 100.424L596.18 100.7C596.912 99.128 597.512 97.304 597.992 95.216L597.224 95ZM588.716 94.976L587.984 95.216C588.632 96.992 589.172 98.84 589.604 100.76L590.396 100.556C589.904 98.456 589.34 96.596 588.716 94.976ZM600.116 93.236V94.004H601.34V95.804H599.804V96.596H601.292C601.172 97.58 600.776 98.312 600.104 98.816L600.752 99.38C601.544 98.756 602 97.832 602.132 96.596H603.704V99.236H604.544V96.596H606.02V95.804H604.544V94.004H605.756V93.236H600.116ZM602.168 94.004H603.704V95.804H602.168V94.004ZM606.728 93.512V97.64H607.556V93.512H606.728ZM600.404 100.412V101.204H604.616V102.608H599.732V103.4H610.268V102.608H605.48V101.204H609.608V100.412H605.48V99.368H604.616V100.412H600.404ZM608.768 99.344C609.404 99.344 609.728 98.972 609.728 98.24V92.852H608.9V98.036C608.9 98.396 608.756 98.588 608.48 98.588C608 98.588 607.508 98.564 606.98 98.528L607.16 99.344H608.768ZM615.296 96.296V97.16H618.548V103.724H619.436V97.16H622.52V96.296H619.436V92.684H618.548V96.296H615.296ZM612.944 92.816L612.344 93.404C613.208 94.052 613.904 94.676 614.408 95.264L614.996 94.664C614.444 94.04 613.76 93.428 612.944 92.816ZM611.54 96.368V97.196H613.304V101.984C613.304 102.176 613.208 102.344 613.028 102.488L613.364 103.268C614.216 102.704 615.02 102.068 615.764 101.348L615.548 100.46C615.044 100.94 614.564 101.348 614.132 101.708V96.368H611.54ZM625.124 95.408V100.124H626.648V100.592C626.648 100.688 626.636 100.808 626.624 100.928H623.684V101.696H626.408C626.336 101.84 626.252 101.972 626.156 102.104C625.82 102.464 625.232 102.764 624.392 103.004L624.836 103.688C625.76 103.424 626.432 103.064 626.84 102.596C627.056 102.344 627.212 102.044 627.332 101.696H630.74V103.724H631.592V101.696H634.316V100.928H631.592V100.124H633.02V95.408H625.124ZM627.512 100.124H630.74V100.928H627.488C627.5 100.82 627.512 100.712 627.512 100.592V100.124ZM632.18 99.452H625.964V98.708H632.18V99.452ZM625.964 98.084V97.412H632.18V98.084H625.964ZM625.964 96.8V96.08H632.18V96.8H625.964ZM625.484 94.232H626.408C626.648 94.556 626.864 94.892 627.056 95.228L627.776 94.964C627.644 94.736 627.476 94.496 627.272 94.232H628.844V93.5H625.868C625.964 93.272 626.072 93.032 626.168 92.792L625.34 92.612C625.016 93.524 624.488 94.364 623.756 95.132L624.476 95.576C624.86 95.168 625.196 94.712 625.484 94.232ZM630.416 94.196H631.328C631.592 94.532 631.82 94.88 632.012 95.24L632.732 94.976C632.588 94.736 632.42 94.472 632.204 94.196H634.208V93.464H630.788L631.04 92.816L630.2 92.636C629.936 93.452 629.504 94.208 628.904 94.88L629.612 95.336C629.912 94.988 630.176 94.604 630.416 94.196ZM639.188 93.692V94.46H640.94V95.36H641.744V94.46H643.676V95.36H644.492V94.46H646.352V93.692H644.492V92.732H643.676V93.692H641.744V92.732H640.94V93.692H639.188ZM642.56 101.228C643.256 102.236 644.372 103.064 645.932 103.736L646.508 103.052C645.092 102.548 644.036 101.888 643.34 101.072H646.376V100.28H642.92C642.992 100.004 643.064 99.704 643.112 99.368H645.572V95.732H639.824V99.368H642.344C642.284 99.68 642.212 99.992 642.116 100.28H638.96V101.072H641.756C641.66 101.24 641.54 101.396 641.42 101.552C640.892 102.164 640.04 102.632 638.84 102.956L639.152 103.676C640.532 103.28 641.492 102.74 642.044 102.044C642.236 101.804 642.416 101.528 642.56 101.228ZM638.024 97.556C638.336 98.048 638.72 98.684 639.164 99.476L639.62 98.792C639.068 97.988 638.54 97.268 638.024 96.644V95.852H639.284V95.072H638.024V92.744H637.208V95.072H635.816V95.852H637.208V95.924C636.848 97.388 636.248 98.684 635.42 99.836L635.792 100.772C636.368 99.848 636.836 98.816 637.208 97.688V103.664H638.024V97.556ZM644.792 98.696H640.604V97.88H644.792V98.696ZM640.604 97.232V96.428H644.792V97.232H640.604ZM648.116 93.236V94.004H649.34V95.804H647.804V96.596H649.292C649.172 97.58 648.776 98.312 648.104 98.816L648.752 99.38C649.544 98.756 650 97.832 650.132 96.596H651.704V99.236H652.544V96.596H654.02V95.804H652.544V94.004H653.756V93.236H648.116ZM650.168 94.004H651.704V95.804H650.168V94.004ZM654.728 93.512V97.64H655.556V93.512H654.728ZM648.404 100.412V101.204H652.616V102.608H647.732V103.4H658.268V102.608H653.48V101.204H657.608V100.412H653.48V99.368H652.616V100.412H648.404ZM656.768 99.344C657.404 99.344 657.728 98.972 657.728 98.24V92.852H656.9V98.036C656.9 98.396 656.756 98.588 656.48 98.588C656 98.588 655.508 98.564 654.98 98.528L655.16 99.344H656.768Z" fill="white"/>
<rect x="388" y="181" width="142" height="133" rx="16" fill="#DF80FF"/>
<path d="M419.148 243.4V246.1H417.804V246.88H419.148V249.904C418.632 250.072 418.104 250.228 417.552 250.384L417.792 251.26C419.232 250.828 420.48 250.348 421.56 249.844V248.968C421.08 249.184 420.564 249.4 420.024 249.604V246.88H421.284V246.1H420.024V243.4H421.536V242.596H417.636V243.4H419.148ZM423.276 246.628V247.468C423.24 249.58 422.256 251.116 420.336 252.076L420.984 252.64C423.024 251.548 424.068 249.82 424.104 247.468V246.628H425.532V251.404C425.532 251.716 425.616 251.992 425.796 252.208C425.964 252.412 426.216 252.52 426.552 252.52H427.344C427.728 252.52 428.004 252.412 428.172 252.208C428.328 251.992 428.448 251.296 428.532 250.132L427.728 249.856C427.692 250.888 427.608 251.464 427.488 251.584C427.416 251.68 427.308 251.728 427.164 251.728H426.828C426.54 251.728 426.408 251.548 426.408 251.212V246.628H428.124V245.776H421.704V246.628H423.276ZM422.124 242.404V243.232H427.74V242.404H422.124ZM436.884 248.02C437.46 249.664 438.408 251.02 439.728 252.088L440.34 251.38C439.068 250.48 438.144 249.28 437.58 247.768C438.324 247.48 439.008 247.12 439.644 246.7L439.056 246.112C438.048 246.772 436.992 247.252 435.876 247.564C435.624 247.06 435.288 246.592 434.868 246.16C435.192 245.968 435.516 245.752 435.852 245.524H438.6V244.72H431.412V245.524H434.592C434.208 245.74 433.788 245.932 433.356 246.124C432.432 246.52 431.388 246.844 430.236 247.096L430.68 247.804C432.024 247.42 433.116 247.036 433.944 246.652C434.028 246.604 434.112 246.568 434.208 246.52C434.376 246.712 434.544 246.916 434.688 247.144C433.596 247.984 432.036 248.656 430.02 249.184L430.452 249.928C432.396 249.376 433.932 248.656 435.06 247.768C435.204 248.056 435.312 248.356 435.408 248.668C434.1 249.748 432.252 250.624 429.876 251.32L430.308 252.064C432.48 251.404 434.232 250.552 435.576 249.496C435.6 249.688 435.612 249.88 435.624 250.096C435.624 250.84 435.516 251.344 435.3 251.608C435.12 251.812 434.676 251.92 433.968 251.932H433.392L433.68 252.688H434.088C435.12 252.688 435.792 252.472 436.08 252.064C436.332 251.704 436.464 251.044 436.464 250.096C436.452 249.436 436.344 248.812 436.152 248.224C436.392 248.164 436.644 248.092 436.884 248.02ZM435.144 241.612L434.268 241.768C434.412 242.056 434.556 242.392 434.688 242.752H429.936V244.84H430.788V243.556H439.212V244.84H440.064V242.752H435.552C435.42 242.332 435.288 241.948 435.144 241.612ZM442.116 242.236V243.004H443.34V244.804H441.804V245.596H443.292C443.172 246.58 442.776 247.312 442.104 247.816L442.752 248.38C443.544 247.756 444 246.832 444.132 245.596H445.704V248.236H446.544V245.596H448.02V244.804H446.544V243.004H447.756V242.236H442.116ZM444.168 243.004H445.704V244.804H444.168V243.004ZM448.728 242.512V246.64H449.556V242.512H448.728ZM442.404 249.412V250.204H446.616V251.608H441.732V252.4H452.268V251.608H447.48V250.204H451.608V249.412H447.48V248.368H446.616V249.412H442.404ZM450.768 248.344C451.404 248.344 451.728 247.972 451.728 247.24V241.852H450.9V247.036C450.9 247.396 450.756 247.588 450.48 247.588C450 247.588 449.508 247.564 448.98 247.528L449.16 248.344H450.768ZM457.296 245.296V246.16H460.548V252.724H461.436V246.16H464.52V245.296H461.436V241.684H460.548V245.296H457.296ZM454.944 241.816L454.344 242.404C455.208 243.052 455.904 243.676 456.408 244.264L456.996 243.664C456.444 243.04 455.76 242.428 454.944 241.816ZM453.54 245.368V246.196H455.304V250.984C455.304 251.176 455.208 251.344 455.028 251.488L455.364 252.268C456.216 251.704 457.02 251.068 457.764 250.348L457.548 249.46C457.044 249.94 456.564 250.348 456.132 250.708V245.368H453.54ZM467.124 244.408V249.124H468.648V249.592C468.648 249.688 468.636 249.808 468.624 249.928H465.684V250.696H468.408C468.336 250.84 468.252 250.972 468.156 251.104C467.82 251.464 467.232 251.764 466.392 252.004L466.836 252.688C467.76 252.424 468.432 252.064 468.84 251.596C469.056 251.344 469.212 251.044 469.332 250.696H472.74V252.724H473.592V250.696H476.316V249.928H473.592V249.124H475.02V244.408H467.124ZM469.512 249.124H472.74V249.928H469.488C469.5 249.82 469.512 249.712 469.512 249.592V249.124ZM474.18 248.452H467.964V247.708H474.18V248.452ZM467.964 247.084V246.412H474.18V247.084H467.964ZM467.964 245.8V245.08H474.18V245.8H467.964ZM467.484 243.232H468.408C468.648 243.556 468.864 243.892 469.056 244.228L469.776 243.964C469.644 243.736 469.476 243.496 469.272 243.232H470.844V242.5H467.868C467.964 242.272 468.072 242.032 468.168 241.792L467.34 241.612C467.016 242.524 466.488 243.364 465.756 244.132L466.476 244.576C466.86 244.168 467.196 243.712 467.484 243.232ZM472.416 243.196H473.328C473.592 243.532 473.82 243.88 474.012 244.24L474.732 243.976C474.588 243.736 474.42 243.472 474.204 243.196H476.208V242.464H472.788L473.04 241.816L472.2 241.636C471.936 242.452 471.504 243.208 470.904 243.88L471.612 244.336C471.912 243.988 472.176 243.604 472.416 243.196ZM481.188 242.692V243.46H482.94V244.36H483.744V243.46H485.676V244.36H486.492V243.46H488.352V242.692H486.492V241.732H485.676V242.692H483.744V241.732H482.94V242.692H481.188ZM484.56 250.228C485.256 251.236 486.372 252.064 487.932 252.736L488.508 252.052C487.092 251.548 486.036 250.888 485.34 250.072H488.376V249.28H484.92C484.992 249.004 485.064 248.704 485.112 248.368H487.572V244.732H481.824V248.368H484.344C484.284 248.68 484.212 248.992 484.116 249.28H480.96V250.072H483.756C483.66 250.24 483.54 250.396 483.42 250.552C482.892 251.164 482.04 251.632 480.84 251.956L481.152 252.676C482.532 252.28 483.492 251.74 484.044 251.044C484.236 250.804 484.416 250.528 484.56 250.228ZM480.024 246.556C480.336 247.048 480.72 247.684 481.164 248.476L481.62 247.792C481.068 246.988 480.54 246.268 480.024 245.644V244.852H481.284V244.072H480.024V241.744H479.208V244.072H477.816V244.852H479.208V244.924C478.848 246.388 478.248 247.684 477.42 248.836L477.792 249.772C478.368 248.848 478.836 247.816 479.208 246.688V252.664H480.024V246.556ZM486.792 247.696H482.604V246.88H486.792V247.696ZM482.604 246.232V245.428H486.792V246.232H482.604ZM490.116 242.236V243.004H491.34V244.804H489.804V245.596H491.292C491.172 246.58 490.776 247.312 490.104 247.816L490.752 248.38C491.544 247.756 492 246.832 492.132 245.596H493.704V248.236H494.544V245.596H496.02V244.804H494.544V243.004H495.756V242.236H490.116ZM492.168 243.004H493.704V244.804H492.168V243.004ZM496.728 242.512V246.64H497.556V242.512H496.728ZM490.404 249.412V250.204H494.616V251.608H489.732V252.4H500.268V251.608H495.48V250.204H499.608V249.412H495.48V248.368H494.616V249.412H490.404ZM498.768 248.344C499.404 248.344 499.728 247.972 499.728 247.24V241.852H498.9V247.036C498.9 247.396 498.756 247.588 498.48 247.588C498 247.588 497.508 247.564 496.98 247.528L497.16 248.344H498.768Z" fill="white"/>
<rect x="546" y="181" width="142" height="133" rx="16" fill="#50E5C0"/>
<path d="M577.148 242.104V245.632H580.604V246.388H576.512V249.508H577.328V247.108H580.616V248.176C579.836 248.224 578.984 248.272 578.048 248.296L578.156 249.028C580.316 248.908 581.972 248.74 583.148 248.548C583.208 248.704 583.268 248.872 583.34 249.064L583.964 248.776C583.748 248.188 583.496 247.636 583.208 247.108H584.9V248.572C584.9 248.92 584.768 249.1 584.504 249.1L583.58 249.076L583.76 249.76H584.732C585.368 249.76 585.692 249.412 585.692 248.74V246.388H581.444V245.632H584.924V242.104H577.148ZM581.372 247.108H582.5C582.632 247.36 582.764 247.636 582.896 247.948C582.428 248.008 581.924 248.068 581.372 248.116V247.108ZM584.096 244.96H581.444V244.168H584.096V244.96ZM580.604 244.96H577.976V244.168H580.604V244.96ZM577.976 243.58V242.776H580.604V243.58H577.976ZM581.444 242.776H584.096V243.58H581.444V242.776ZM576.8 249.928C576.56 250.744 576.188 251.476 575.684 252.148L576.404 252.592C576.896 251.884 577.28 251.044 577.568 250.084L576.8 249.928ZM582.776 252.544C583.148 252.544 583.424 252.46 583.604 252.292C583.796 252.088 583.928 251.524 584 250.612L583.196 250.36C583.16 251.044 583.1 251.452 583.004 251.596C582.92 251.704 582.788 251.764 582.62 251.764H579.884C579.584 251.764 579.44 251.62 579.44 251.332V249.664H578.576V251.512C578.576 252.196 578.924 252.544 579.644 252.544H582.776ZM580.976 249.088L580.364 249.46C580.94 250.024 581.384 250.54 581.72 250.996L582.344 250.552C582.02 250.132 581.564 249.64 580.976 249.088ZM585.116 250L584.492 250.384C585.044 251.152 585.488 251.86 585.812 252.496L586.46 252.052C586.148 251.464 585.692 250.78 585.116 250ZM590.948 241.816C590.18 244.108 589.052 245.932 587.552 247.3L588.224 247.888C589.688 246.568 590.852 244.648 591.74 242.128L590.948 241.816ZM595.04 248.176L594.26 248.44C594.764 249.16 595.244 249.952 595.712 250.816C593.996 251.092 592.16 251.296 590.204 251.416C591.236 250.12 592.268 248.332 593.3 246.052L592.46 245.764C591.008 249.052 589.808 250.948 588.848 251.452L589.004 252.292C591.62 252.124 593.984 251.884 596.096 251.548C596.276 251.908 596.456 252.292 596.636 252.7L597.44 252.34C596.768 250.864 595.976 249.472 595.04 248.176ZM594.86 241.732L594.128 242.14C594.824 244.492 596.072 246.424 597.86 247.912L598.472 247.204C596.756 245.788 595.556 243.964 594.86 241.732ZM600.116 242.236V243.004H601.34V244.804H599.804V245.596H601.292C601.172 246.58 600.776 247.312 600.104 247.816L600.752 248.38C601.544 247.756 602 246.832 602.132 245.596H603.704V248.236H604.544V245.596H606.02V244.804H604.544V243.004H605.756V242.236H600.116ZM602.168 243.004H603.704V244.804H602.168V243.004ZM606.728 242.512V246.64H607.556V242.512H606.728ZM600.404 249.412V250.204H604.616V251.608H599.732V252.4H610.268V251.608H605.48V250.204H609.608V249.412H605.48V248.368H604.616V249.412H600.404ZM608.768 248.344C609.404 248.344 609.728 247.972 609.728 247.24V241.852H608.9V247.036C608.9 247.396 608.756 247.588 608.48 247.588C608 247.588 607.508 247.564 606.98 247.528L607.16 248.344H608.768ZM615.296 245.296V246.16H618.548V252.724H619.436V246.16H622.52V245.296H619.436V241.684H618.548V245.296H615.296ZM612.944 241.816L612.344 242.404C613.208 243.052 613.904 243.676 614.408 244.264L614.996 243.664C614.444 243.04 613.76 242.428 612.944 241.816ZM611.54 245.368V246.196H613.304V250.984C613.304 251.176 613.208 251.344 613.028 251.488L613.364 252.268C614.216 251.704 615.02 251.068 615.764 250.348L615.548 249.46C615.044 249.94 614.564 250.348 614.132 250.708V245.368H611.54ZM625.124 244.408V249.124H626.648V249.592C626.648 249.688 626.636 249.808 626.624 249.928H623.684V250.696H626.408C626.336 250.84 626.252 250.972 626.156 251.104C625.82 251.464 625.232 251.764 624.392 252.004L624.836 252.688C625.76 252.424 626.432 252.064 626.84 251.596C627.056 251.344 627.212 251.044 627.332 250.696H630.74V252.724H631.592V250.696H634.316V249.928H631.592V249.124H633.02V244.408H625.124ZM627.512 249.124H630.74V249.928H627.488C627.5 249.82 627.512 249.712 627.512 249.592V249.124ZM632.18 248.452H625.964V247.708H632.18V248.452ZM625.964 247.084V246.412H632.18V247.084H625.964ZM625.964 245.8V245.08H632.18V245.8H625.964ZM625.484 243.232H626.408C626.648 243.556 626.864 243.892 627.056 244.228L627.776 243.964C627.644 243.736 627.476 243.496 627.272 243.232H628.844V242.5H625.868C625.964 242.272 626.072 242.032 626.168 241.792L625.34 241.612C625.016 242.524 624.488 243.364 623.756 244.132L624.476 244.576C624.86 244.168 625.196 243.712 625.484 243.232ZM630.416 243.196H631.328C631.592 243.532 631.82 243.88 632.012 244.24L632.732 243.976C632.588 243.736 632.42 243.472 632.204 243.196H634.208V242.464H630.788L631.04 241.816L630.2 241.636C629.936 242.452 629.504 243.208 628.904 243.88L629.612 244.336C629.912 243.988 630.176 243.604 630.416 243.196ZM639.188 242.692V243.46H640.94V244.36H641.744V243.46H643.676V244.36H644.492V243.46H646.352V242.692H644.492V241.732H643.676V242.692H641.744V241.732H640.94V242.692H639.188ZM642.56 250.228C643.256 251.236 644.372 252.064 645.932 252.736L646.508 252.052C645.092 251.548 644.036 250.888 643.34 250.072H646.376V249.28H642.92C642.992 249.004 643.064 248.704 643.112 248.368H645.572V244.732H639.824V248.368H642.344C642.284 248.68 642.212 248.992 642.116 249.28H638.96V250.072H641.756C641.66 250.24 641.54 250.396 641.42 250.552C640.892 251.164 640.04 251.632 638.84 251.956L639.152 252.676C640.532 252.28 641.492 251.74 642.044 251.044C642.236 250.804 642.416 250.528 642.56 250.228ZM638.024 246.556C638.336 247.048 638.72 247.684 639.164 248.476L639.62 247.792C639.068 246.988 638.54 246.268 638.024 245.644V244.852H639.284V244.072H638.024V241.744H637.208V244.072H635.816V244.852H637.208V244.924C636.848 246.388 636.248 247.684 635.42 248.836L635.792 249.772C636.368 248.848 636.836 247.816 637.208 246.688V252.664H638.024V246.556ZM644.792 247.696H640.604V246.88H644.792V247.696ZM640.604 246.232V245.428H644.792V246.232H640.604ZM648.116 242.236V243.004H649.34V244.804H647.804V245.596H649.292C649.172 246.58 648.776 247.312 648.104 247.816L648.752 248.38C649.544 247.756 650 246.832 650.132 245.596H651.704V248.236H652.544V245.596H654.02V244.804H652.544V243.004H653.756V242.236H648.116ZM650.168 243.004H651.704V244.804H650.168V243.004ZM654.728 242.512V246.64H655.556V242.512H654.728ZM648.404 249.412V250.204H652.616V251.608H647.732V252.4H658.268V251.608H653.48V250.204H657.608V249.412H653.48V248.368H652.616V249.412H648.404ZM656.768 248.344C657.404 248.344 657.728 247.972 657.728 247.24V241.852H656.9V247.036C656.9 247.396 656.756 247.588 656.48 247.588C656 247.588 655.508 247.564 654.98 247.528L655.16 248.344H656.768Z" fill="white"/>
<rect x="372.5" y="16.5" width="331" height="313" rx="15.5" stroke="white"/>
<rect x="16.5" y="112.5" width="127" height="47" rx="23.5" stroke="white" stroke-dasharray="2 2"/>
<path d="M53.984 133.832H50.168C50.264 133.448 50.336 133.04 50.408 132.62H55.316V131.78H52.244C52.472 131.384 52.676 130.928 52.868 130.412L52.016 130.112C51.812 130.7 51.572 131.252 51.296 131.78H48.632C48.428 131.144 48.2 130.604 47.96 130.148L47.12 130.46C47.36 130.868 47.564 131.312 47.744 131.78H44.684V132.62H49.496C49.448 133.04 49.364 133.448 49.268 133.832H46.016V141.212H46.868V140.72H53.132V141.212H53.984V133.832ZM46.868 139.94V138.656H53.132V139.94H46.868ZM46.868 137.888V136.64H53.132V137.888H46.868ZM46.868 135.872V134.624H53.132V135.872H46.868ZM61.796 132.848H66.152C65.912 133.784 65.612 134.624 65.24 135.368L66.092 135.608C66.5 134.612 66.824 133.604 67.076 132.584V132.02H62.036C62.168 131.492 62.276 130.916 62.372 130.292L61.508 130.16C61.22 132.248 60.584 133.892 59.6 135.068L60.32 135.572C60.932 134.876 61.424 133.964 61.796 132.848ZM63.032 133.664C63.008 135.224 62.804 136.52 62.42 137.54C61.88 138.74 60.8 139.748 59.168 140.54L59.732 141.224C61.58 140.312 62.756 139.136 63.272 137.696C63.368 137.432 63.452 137.156 63.524 136.856C64.292 138.584 65.444 140.024 67.004 141.2L67.568 140.54C65.756 139.292 64.496 137.6 63.776 135.464C63.836 134.912 63.872 134.312 63.872 133.664H63.032ZM57.296 130.712L56.6 131.144C57.512 132.056 58.244 132.896 58.784 133.64L59.456 133.16C58.952 132.464 58.232 131.648 57.296 130.712ZM58.76 135.86C58.112 137.42 57.356 138.956 56.468 140.456L57.272 140.816C58.1 139.364 58.844 137.804 59.516 136.148L58.76 135.86ZM72.104 131.42V132.248H75.248V133.388H72.512V136.784H75.2C75.128 137.624 74.96 138.308 74.708 138.836C74.072 138.38 73.496 137.84 72.98 137.192L72.32 137.648C72.872 138.356 73.508 138.968 74.216 139.472C73.664 140 72.764 140.336 71.54 140.468L71.912 141.26C73.304 141.056 74.324 140.624 74.972 139.964C76.244 140.708 77.72 141.128 79.4 141.236L79.616 140.408C78.044 140.324 76.652 139.952 75.452 139.292C75.776 138.692 75.98 137.864 76.076 136.784H78.932V133.388H76.124V132.248H79.424V131.42H76.124V130.196H75.248V131.42H72.104ZM78.116 136.004H76.112C76.112 135.908 76.124 135.812 76.124 135.716V134.156H78.116V136.004ZM75.236 136.004H73.328V134.156H75.248V135.716C75.248 135.812 75.236 135.908 75.236 136.004ZM69.908 134.528V141.224H70.772V133.148C71.216 132.32 71.588 131.432 71.888 130.496L71.072 130.124C70.52 132.02 69.62 133.7 68.372 135.164L68.66 136.076C69.116 135.584 69.524 135.068 69.908 134.528ZM82.556 134.384H85.604V136.484H82.556V134.384ZM82.508 137.276H85.604V140.792H86.492V137.276H89.756V139.364C89.756 139.868 89.528 140.12 89.096 140.12C88.688 140.12 88.244 140.096 87.764 140.072L87.992 140.924H89.372C90.212 140.924 90.632 140.504 90.632 139.664V130.676H81.692V136.436C81.668 138.08 81.272 139.436 80.504 140.504L81.164 141.092C81.932 140.084 82.376 138.812 82.508 137.276ZM89.756 136.484H86.492V134.384H89.756V136.484ZM89.756 133.58H86.492V131.516H89.756V133.58ZM85.604 131.516V133.58H82.556V131.516H85.604ZM101.492 141.128C102.404 141.128 102.872 140.672 102.872 139.784V130.892H97.34V131.732H101.996V139.556C101.996 140.084 101.768 140.348 101.312 140.348L99.992 140.324L100.208 141.128H101.492ZM93.128 132.188V141.212H94.004V132.188H93.128ZM95.816 133.916V138.428H100.136V133.916H95.816ZM99.26 137.6H96.692V134.744H99.26V137.6ZM94.916 130.1L94.112 130.448C94.664 131.096 95.18 131.828 95.636 132.668L96.404 132.272C95.972 131.48 95.468 130.76 94.916 130.1ZM107.156 130.364L106.376 130.628C106.736 131.108 107.072 131.66 107.372 132.284L108.104 131.96C107.84 131.396 107.516 130.868 107.156 130.364ZM113.036 130.364C112.748 130.964 112.388 131.48 111.944 131.924L112.628 132.32C113.096 131.84 113.492 131.276 113.804 130.652L113.036 130.364ZM105.536 132.368V133.16H109.028C108.824 133.592 108.584 134 108.32 134.384H104.852V135.176H107.708C106.868 136.112 105.812 136.868 104.516 137.432L105.008 138.188C105.8 137.804 106.52 137.36 107.168 136.832V140.108C107.168 140.72 107.528 141.032 108.248 141.032H112.688C113.324 141.032 113.756 140.936 113.996 140.768C114.248 140.552 114.416 139.964 114.512 139.028L113.672 138.752C113.6 139.352 113.504 139.76 113.384 139.976C113.264 140.144 112.952 140.24 112.448 140.24H108.596C108.224 140.24 108.044 140.096 108.044 139.832V137.12H111.896V138.02C111.896 138.272 111.728 138.404 111.416 138.404C110.912 138.404 110.372 138.38 109.772 138.344L109.964 139.1C110.54 139.124 111.128 139.136 111.74 139.136C112.4 139.112 112.736 138.812 112.748 138.26V136.628C113.348 137.132 114.08 137.612 114.944 138.068L115.508 137.36C114.032 136.712 112.964 135.992 112.316 135.176H115.148V134.384H109.304C109.532 134 109.736 133.592 109.928 133.16H114.488V132.368H110.228C110.444 131.72 110.624 131.024 110.744 130.28L109.892 130.172C109.772 130.952 109.592 131.684 109.352 132.368H105.536ZM108.776 135.176H111.44C111.704 135.584 112.04 135.98 112.46 136.364H107.708C108.092 136.004 108.44 135.608 108.776 135.176Z" fill="white"/>
<rect x="16.5" y="282.5" width="127" height="47" rx="23.5" stroke="white" stroke-dasharray="2 2"/>
<path d="M53.984 303.832H50.168C50.264 303.448 50.336 303.04 50.408 302.62H55.316V301.78H52.244C52.472 301.384 52.676 300.928 52.868 300.412L52.016 300.112C51.812 300.7 51.572 301.252 51.296 301.78H48.632C48.428 301.144 48.2 300.604 47.96 300.148L47.12 300.46C47.36 300.868 47.564 301.312 47.744 301.78H44.684V302.62H49.496C49.448 303.04 49.364 303.448 49.268 303.832H46.016V311.212H46.868V310.72H53.132V311.212H53.984V303.832ZM46.868 309.94V308.656H53.132V309.94H46.868ZM46.868 307.888V306.64H53.132V307.888H46.868ZM46.868 305.872V304.624H53.132V305.872H46.868ZM61.796 302.848H66.152C65.912 303.784 65.612 304.624 65.24 305.368L66.092 305.608C66.5 304.612 66.824 303.604 67.076 302.584V302.02H62.036C62.168 301.492 62.276 300.916 62.372 300.292L61.508 300.16C61.22 302.248 60.584 303.892 59.6 305.068L60.32 305.572C60.932 304.876 61.424 303.964 61.796 302.848ZM63.032 303.664C63.008 305.224 62.804 306.52 62.42 307.54C61.88 308.74 60.8 309.748 59.168 310.54L59.732 311.224C61.58 310.312 62.756 309.136 63.272 307.696C63.368 307.432 63.452 307.156 63.524 306.856C64.292 308.584 65.444 310.024 67.004 311.2L67.568 310.54C65.756 309.292 64.496 307.6 63.776 305.464C63.836 304.912 63.872 304.312 63.872 303.664H63.032ZM57.296 300.712L56.6 301.144C57.512 302.056 58.244 302.896 58.784 303.64L59.456 303.16C58.952 302.464 58.232 301.648 57.296 300.712ZM58.76 305.86C58.112 307.42 57.356 308.956 56.468 310.456L57.272 310.816C58.1 309.364 58.844 307.804 59.516 306.148L58.76 305.86ZM69.932 304.732V311.212H70.784V303.34C71.252 302.452 71.636 301.504 71.948 300.508L71.168 300.148C70.616 302.128 69.716 303.88 68.468 305.416L68.72 306.28C69.152 305.788 69.56 305.272 69.932 304.732ZM71.744 302.248V303.088H74.084C73.508 305.296 72.56 307.096 71.216 308.488L71.66 309.232C73.136 307.636 74.18 305.584 74.78 303.088H74.924V307.9H73.088V308.728H74.924V311.2H75.776V308.728H77.636V307.9H75.776V303.088H75.92C76.472 305.308 77.492 307.312 78.956 309.088L79.52 308.38C78.128 306.832 77.156 305.068 76.604 303.088H79.052V302.248H75.776V300.184H74.924V302.248H71.744ZM82.148 307.084H84.92V308.2H82.148V307.084ZM84.92 306.364H82.148V305.2H84.92V306.364ZM82.148 308.932H84.92V309.904C84.92 310.204 84.764 310.36 84.464 310.36L83.564 310.324L83.78 311.14H84.74C85.412 311.14 85.748 310.78 85.748 310.084V304.444H81.32V311.224H82.148V308.932ZM89.96 305.44C90.38 305.44 90.692 305.344 90.884 305.164C91.1 304.948 91.256 304.348 91.34 303.364L90.536 303.112C90.488 303.856 90.416 304.3 90.296 304.468C90.2 304.588 90.032 304.66 89.792 304.66H88.22C87.896 304.66 87.74 304.468 87.74 304.084V302.584C89.06 302.392 90.224 302.164 91.232 301.912L90.956 301.156C90.128 301.372 89.06 301.588 87.74 301.792V300.232H86.888V304.264C86.888 305.044 87.248 305.44 87.98 305.44H89.96ZM87.74 308.152C88.988 308.044 90.152 307.84 91.232 307.528L90.956 306.76C90.008 307.048 88.94 307.252 87.74 307.372V305.896H86.888V310.06C86.888 310.696 87.236 311.02 87.956 311.02H89.996C90.428 311.02 90.74 310.924 90.932 310.744C91.16 310.528 91.316 309.94 91.388 308.968L90.608 308.728C90.56 309.46 90.476 309.904 90.344 310.072C90.248 310.18 90.068 310.24 89.828 310.24H88.196C87.884 310.24 87.74 310.108 87.74 309.868V308.152ZM84.884 301.048L84.212 301.468C84.5 301.876 84.776 302.284 85.028 302.668C83.9 302.812 82.832 302.908 81.824 302.968C82.496 302.356 83.096 301.516 83.648 300.448L82.832 300.196C82.352 301.156 81.728 302.02 80.984 302.788C80.876 302.884 80.744 302.968 80.588 303.016L80.828 303.736C82.604 303.64 84.14 303.496 85.424 303.292C85.58 303.556 85.724 303.82 85.856 304.084L86.564 303.58C86.168 302.86 85.604 302.02 84.884 301.048ZM93.296 300.448L92.708 301.012C93.44 301.576 94.016 302.116 94.424 302.62L94.988 302.044C94.532 301.516 93.968 300.976 93.296 300.448ZM93.104 303.4L92.516 303.952C93.224 304.564 93.776 305.14 94.184 305.68L94.748 305.116C94.304 304.54 93.752 303.976 93.104 303.4ZM94.16 306.628C93.704 308.02 93.176 309.388 92.576 310.72L93.368 311.056C93.92 309.76 94.436 308.38 94.892 306.916L94.16 306.628ZM99.488 300.784H95.468V308.176H96.236V301.528H98.72V308.104H99.488V300.784ZM98.204 308.668L97.676 309.172C98.444 309.892 99.032 310.564 99.464 311.2L100.04 310.624C99.548 309.976 98.936 309.316 98.204 308.668ZM97.124 302.356V306.16C97.1 307.276 96.92 308.176 96.608 308.872C96.272 309.544 95.672 310.084 94.808 310.492L95.264 311.212C96.152 310.78 96.8 310.18 97.196 309.436C97.604 308.62 97.82 307.528 97.844 306.16V302.356H97.124ZM102.08 311.104C102.704 311.104 103.028 310.756 103.028 310.084V300.268H102.212V309.88C102.212 310.192 102.068 310.36 101.792 310.36C101.408 310.36 101 310.336 100.58 310.3L100.76 311.104H102.08ZM100.436 301.252V308.74H101.192V301.252H100.436ZM109.64 305.884V309.304C109.256 309.376 108.86 309.436 108.464 309.484L108.68 310.3C109.88 310.096 111.008 309.844 112.052 309.544V308.74C111.548 308.884 111.02 309.016 110.492 309.136V305.884H111.62V305.08H108.512V305.884H109.64ZM114.188 311.02C114.74 311.02 115.208 310.156 115.604 308.428L114.92 307.876C114.68 309.304 114.428 310.036 114.188 310.084C113.828 310.036 113.516 309.34 113.252 307.972C113.06 306.844 112.928 305.26 112.868 303.196H115.244V302.356H112.856C112.832 301.672 112.832 300.94 112.832 300.16H111.992C111.992 300.928 111.992 301.66 112.016 302.356H108.236V303.196H112.04C112.088 304.768 112.172 306.088 112.304 307.144C112.472 308.392 112.736 309.364 113.096 310.084C113.408 310.708 113.78 311.02 114.188 311.02ZM113.864 300.148L113.252 300.52C113.756 301.096 114.164 301.612 114.464 302.08L115.064 301.66C114.776 301.228 114.38 300.724 113.864 300.148ZM105.944 300.316L105.344 300.904C106.16 301.552 106.808 302.176 107.288 302.764L107.876 302.164C107.348 301.54 106.712 300.928 105.944 300.316ZM104.504 303.868V304.696H106.184V309.508C106.184 309.688 106.088 309.856 105.92 310L106.256 310.768C107 310.216 107.696 309.58 108.356 308.86L108.128 307.948C107.744 308.368 107.384 308.752 107.024 309.1V303.868H104.504Z" fill="white"/>
<rect x="372.5" y="426.5" width="127" height="47" rx="23.5" stroke="white" stroke-dasharray="2 2"/>
<path d="M394.612 447.856V448.696H397.804C397.552 449.524 397.276 450.316 396.988 451.084H402.916C402.28 451.876 401.404 452.644 400.3 453.364C399.472 453.076 398.608 452.8 397.708 452.56L397.252 453.232C399.16 453.748 401.02 454.444 402.82 455.332L403.3 454.576C402.64 454.264 401.944 453.964 401.224 453.7C402.46 452.812 403.36 451.912 403.936 451.024V450.28H398.224C398.392 449.788 398.572 449.26 398.74 448.696H405.388V447.856H398.968C399.088 447.388 399.208 446.896 399.328 446.368H404.68V445.564H399.508C399.604 445.132 399.688 444.664 399.784 444.184L398.896 444.112C398.8 444.592 398.704 445.072 398.596 445.564H395.428V446.368H398.416C398.296 446.872 398.176 447.364 398.044 447.856H394.612ZM413.884 450.52C414.46 452.164 415.408 453.52 416.728 454.588L417.34 453.88C416.068 452.98 415.144 451.78 414.58 450.268C415.324 449.98 416.008 449.62 416.644 449.2L416.056 448.612C415.048 449.272 413.992 449.752 412.876 450.064C412.624 449.56 412.288 449.092 411.868 448.66C412.192 448.468 412.516 448.252 412.852 448.024H415.6V447.22H408.412V448.024H411.592C411.208 448.24 410.788 448.432 410.356 448.624C409.432 449.02 408.388 449.344 407.236 449.596L407.68 450.304C409.024 449.92 410.116 449.536 410.944 449.152C411.028 449.104 411.112 449.068 411.208 449.02C411.376 449.212 411.544 449.416 411.688 449.644C410.596 450.484 409.036 451.156 407.02 451.684L407.452 452.428C409.396 451.876 410.932 451.156 412.06 450.268C412.204 450.556 412.312 450.856 412.408 451.168C411.1 452.248 409.252 453.124 406.876 453.82L407.308 454.564C409.48 453.904 411.232 453.052 412.576 451.996C412.6 452.188 412.612 452.38 412.624 452.596C412.624 453.34 412.516 453.844 412.3 454.108C412.12 454.312 411.676 454.42 410.968 454.432H410.392L410.68 455.188H411.088C412.12 455.188 412.792 454.972 413.08 454.564C413.332 454.204 413.464 453.544 413.464 452.596C413.452 451.936 413.344 451.312 413.152 450.724C413.392 450.664 413.644 450.592 413.884 450.52ZM412.144 444.112L411.268 444.268C411.412 444.556 411.556 444.892 411.688 445.252H406.936V447.34H407.788V446.056H416.212V447.34H417.064V445.252H412.552C412.42 444.832 412.288 444.448 412.144 444.112ZM421.288 445.672L421.672 446.62H418.792V447.376H429.208V446.62H426.22L426.688 445.672H428.644V444.928H424.42C424.3 444.616 424.168 444.34 424.048 444.088L423.124 444.232C423.244 444.436 423.364 444.664 423.472 444.928H419.356V445.672H421.288ZM422.572 446.62L422.188 445.672H425.788L425.32 446.62H422.572ZM420.16 448.084V451.636H427.84V448.084H420.16ZM427 450.964H421V450.172H427V450.964ZM421 449.536V448.768H427V449.536H421ZM419.68 452.2C419.452 452.992 419.092 453.724 418.6 454.384L419.344 454.852C419.848 454.156 420.232 453.328 420.52 452.368L419.68 452.2ZM425.644 455.008C426.1 455.008 426.424 454.924 426.64 454.78C426.88 454.588 427.048 454.084 427.132 453.256L426.316 452.992C426.268 453.592 426.172 453.964 426.028 454.084C425.932 454.18 425.752 454.228 425.488 454.228H422.968C422.584 454.228 422.392 454.048 422.392 453.712V452.308H421.504V453.892C421.504 454.636 421.9 455.008 422.716 455.008H425.644ZM424.132 451.864L423.4 452.32C423.904 452.824 424.288 453.292 424.576 453.724L425.296 453.22C425.032 452.824 424.636 452.368 424.132 451.864ZM427.9 452.092L427.204 452.524C427.852 453.316 428.356 454.036 428.74 454.696L429.46 454.192C429.1 453.592 428.572 452.896 427.9 452.092ZM439.468 444.7H432.4V451.312H433.264V445.54H438.592V451.3H439.468V444.7ZM435.424 446.344V448.6C435.376 450.112 435.028 451.348 434.38 452.296C433.684 453.208 432.448 453.94 430.672 454.492L431.14 455.224C432.928 454.66 434.212 453.88 434.992 452.884C435.796 451.816 436.228 450.388 436.276 448.6V446.344H435.424ZM439.696 454.972C440.104 454.96 440.416 454.864 440.632 454.672C440.86 454.432 441.028 453.736 441.136 452.608L440.308 452.344C440.26 453.28 440.14 453.832 439.972 453.988C439.84 454.096 439.672 454.156 439.468 454.156H437.584C437.224 454.156 437.056 453.928 437.056 453.496V450.436H436.204V453.652C436.204 454.528 436.576 454.972 437.344 454.972H439.696ZM452.92 445.012H448.336V454.84H449.164V453.772H452.08V454.72H452.92V445.012ZM449.164 452.956V445.816H452.08V452.956H449.164ZM442.852 447.496V448.3H444.952V448.384C444.46 449.704 443.656 450.892 442.54 451.948L442.9 452.884C443.752 451.96 444.436 450.928 444.952 449.788V455.116H445.792V449.704C446.236 450.208 446.764 450.892 447.388 451.744L447.892 451C447.184 450.208 446.488 449.512 445.792 448.9V448.3H447.844V447.496H445.792V445.6C446.464 445.456 447.1 445.264 447.724 445.036L447.316 444.316C446.116 444.772 444.628 445.072 442.84 445.216L443.116 445.984C443.74 445.936 444.352 445.864 444.952 445.768V447.496H442.852ZM454.768 446.224V447.088H456.616C457.156 448.936 458.116 450.544 459.508 451.912C458.212 453.088 456.556 453.94 454.54 454.48L454.996 455.236C457.036 454.648 458.74 453.724 460.108 452.464C461.404 453.58 463.036 454.504 465.028 455.248L465.496 454.528C463.576 453.82 461.98 452.932 460.708 451.852C461.884 450.58 462.772 448.984 463.36 447.088H465.232V446.224H460.648C460.264 445.396 459.856 444.688 459.4 444.112L458.536 444.424C459.016 444.988 459.412 445.588 459.736 446.224H454.768ZM457.468 447.088H462.46C461.956 448.744 461.176 450.148 460.108 451.312C458.86 450.112 457.984 448.708 457.468 447.088ZM469.444 444.148C469.396 444.604 469.348 445.06 469.288 445.504H466.528V446.284H469.168C469.096 446.692 469.024 447.088 468.928 447.496H466.924V455.044H467.668V448.204H471.46V453.904C471.46 454.18 471.34 454.324 471.1 454.324L470.416 454.288L470.62 455.032H471.34C471.916 455.032 472.204 454.708 472.204 454.072V447.496H469.732C469.828 447.112 469.912 446.704 469.984 446.284H472.612V445.504H470.104C470.164 445.108 470.212 444.7 470.26 444.268L469.444 444.148ZM468.16 450.136V450.808H469.204V451.876H468.04V452.548H469.204V454.792H469.948V452.548H471.112V451.876H469.948V450.808H471.004V450.136H470.452C470.644 449.752 470.824 449.332 470.992 448.852L470.344 448.612C470.176 449.152 469.996 449.656 469.792 450.136H469.384C469.216 449.56 469.036 449.08 468.844 448.672L468.22 448.9C468.436 449.284 468.616 449.692 468.772 450.136H468.16ZM472.696 447.424V448.24H474.316C474.148 450.664 473.476 452.8 472.3 454.624L472.828 455.224C473.812 453.784 474.508 452.02 474.892 449.92C475.252 452.056 475.936 453.832 476.944 455.236L477.508 454.612C476.368 453.112 475.612 450.988 475.252 448.24H477.184V447.424H475.156C475.156 447.376 475.144 447.316 475.144 447.256C475.156 446.08 475.168 445.084 475.168 444.244H474.388C474.388 444.988 474.376 446.044 474.352 447.424H472.696ZM476.2 444.772L475.588 445.144C476.056 445.804 476.428 446.404 476.704 446.956L477.304 446.536C477.04 446.032 476.68 445.444 476.2 444.772Z" fill="white"/>
<rect x="372.5" y="354.5" width="127" height="47" rx="7.5" stroke="white"/>
<path d="M401.932 376.732V383.212H402.784V375.34C403.252 374.452 403.636 373.504 403.948 372.508L403.168 372.148C402.616 374.128 401.716 375.88 400.468 377.416L400.72 378.28C401.152 377.788 401.56 377.272 401.932 376.732ZM403.744 374.248V375.088H406.084C405.508 377.296 404.56 379.096 403.216 380.488L403.66 381.232C405.136 379.636 406.18 377.584 406.78 375.088H406.924V379.9H405.088V380.728H406.924V383.2H407.776V380.728H409.636V379.9H407.776V375.088H407.92C408.472 377.308 409.492 379.312 410.956 381.088L411.52 380.38C410.128 378.832 409.156 377.068 408.604 375.088H411.052V374.248H407.776V372.184H406.924V374.248H403.744ZM414.148 379.084H416.92V380.2H414.148V379.084ZM416.92 378.364H414.148V377.2H416.92V378.364ZM414.148 380.932H416.92V381.904C416.92 382.204 416.764 382.36 416.464 382.36L415.564 382.324L415.78 383.14H416.74C417.412 383.14 417.748 382.78 417.748 382.084V376.444H413.32V383.224H414.148V380.932ZM421.96 377.44C422.38 377.44 422.692 377.344 422.884 377.164C423.1 376.948 423.256 376.348 423.34 375.364L422.536 375.112C422.488 375.856 422.416 376.3 422.296 376.468C422.2 376.588 422.032 376.66 421.792 376.66H420.22C419.896 376.66 419.74 376.468 419.74 376.084V374.584C421.06 374.392 422.224 374.164 423.232 373.912L422.956 373.156C422.128 373.372 421.06 373.588 419.74 373.792V372.232H418.888V376.264C418.888 377.044 419.248 377.44 419.98 377.44H421.96ZM419.74 380.152C420.988 380.044 422.152 379.84 423.232 379.528L422.956 378.76C422.008 379.048 420.94 379.252 419.74 379.372V377.896H418.888V382.06C418.888 382.696 419.236 383.02 419.956 383.02H421.996C422.428 383.02 422.74 382.924 422.932 382.744C423.16 382.528 423.316 381.94 423.388 380.968L422.608 380.728C422.56 381.46 422.476 381.904 422.344 382.072C422.248 382.18 422.068 382.24 421.828 382.24H420.196C419.884 382.24 419.74 382.108 419.74 381.868V380.152ZM416.884 373.048L416.212 373.468C416.5 373.876 416.776 374.284 417.028 374.668C415.9 374.812 414.832 374.908 413.824 374.968C414.496 374.356 415.096 373.516 415.648 372.448L414.832 372.196C414.352 373.156 413.728 374.02 412.984 374.788C412.876 374.884 412.744 374.968 412.588 375.016L412.828 375.736C414.604 375.64 416.14 375.496 417.424 375.292C417.58 375.556 417.724 375.82 417.856 376.084L418.564 375.58C418.168 374.86 417.604 374.02 416.884 373.048ZM431.656 373.024V382.408H432.484V373.024H431.656ZM434.164 372.436V383.224H435.016V372.436H434.164ZM429.268 372.472V377.752C429.244 380.02 428.764 381.664 427.804 382.696L428.452 383.272C429.52 382.108 430.072 380.272 430.096 377.752V372.472H429.268ZM425.944 372.316L425.344 372.904C426.208 373.552 426.904 374.176 427.408 374.764L427.996 374.164C427.444 373.54 426.76 372.928 425.944 372.316ZM424.54 375.868V376.696H426.304V381.364C426.304 381.568 426.208 381.748 426.04 381.904L426.376 382.672C427.096 382.144 427.768 381.544 428.404 380.872L428.176 379.972C427.816 380.356 427.468 380.704 427.132 381.016V375.868H424.54ZM440.332 380.764C439.252 381.22 437.968 381.592 436.504 381.856L436.612 382.72C438.004 382.432 439.252 382.072 440.332 381.616V380.764ZM438.52 372.22C438.088 373.636 437.584 374.884 436.984 375.976C436.876 376.132 436.756 376.24 436.612 376.312L436.828 377.104C437.452 376.996 438.064 376.876 438.676 376.756C438.076 377.884 437.56 378.676 437.14 379.156C437.032 379.252 436.9 379.336 436.756 379.408L436.984 380.212C438.088 380.044 439.228 379.744 440.428 379.288V378.508C439.624 378.808 438.82 379.048 438.016 379.216C438.664 378.364 439.504 376.936 440.512 374.932L439.72 374.632C439.504 375.1 439.288 375.544 439.072 375.976C438.592 376.072 438.112 376.156 437.632 376.228C438.208 375.304 438.772 374.08 439.348 372.544L438.52 372.22ZM441.784 379.444C441.436 380.428 440.932 381.388 440.272 382.336L441.016 382.756C441.592 381.928 442.096 380.932 442.54 379.756L441.784 379.444ZM446.284 379.432L445.516 379.684C445.996 380.572 446.44 381.592 446.836 382.744L447.568 382.42C447.208 381.364 446.776 380.368 446.284 379.432ZM443.608 383.092C444.292 383.092 444.64 382.768 444.64 382.132V378.748H447.196V377.98H444.64V375.652H443.032C443.176 375.244 443.32 374.8 443.464 374.344H447.196V373.54H443.704C443.812 373.156 443.92 372.76 444.028 372.34L443.188 372.184C443.068 372.652 442.96 373.108 442.84 373.54H440.176V374.344H442.6C442.456 374.8 442.312 375.232 442.168 375.652H440.608V376.432H441.856C441.604 377.008 441.34 377.536 441.076 378.004L441.268 378.748H443.812V381.868C443.812 382.18 443.656 382.336 443.356 382.336L442.204 382.3L442.42 383.092H443.608ZM442.732 376.432H443.812V377.98H442.036C442.276 377.5 442.504 376.984 442.732 376.432ZM452.188 373.192V373.96H453.94V374.86H454.744V373.96H456.676V374.86H457.492V373.96H459.352V373.192H457.492V372.232H456.676V373.192H454.744V372.232H453.94V373.192H452.188ZM455.56 380.728C456.256 381.736 457.372 382.564 458.932 383.236L459.508 382.552C458.092 382.048 457.036 381.388 456.34 380.572H459.376V379.78H455.92C455.992 379.504 456.064 379.204 456.112 378.868H458.572V375.232H452.824V378.868H455.344C455.284 379.18 455.212 379.492 455.116 379.78H451.96V380.572H454.756C454.66 380.74 454.54 380.896 454.42 381.052C453.892 381.664 453.04 382.132 451.84 382.456L452.152 383.176C453.532 382.78 454.492 382.24 455.044 381.544C455.236 381.304 455.416 381.028 455.56 380.728ZM451.024 377.056C451.336 377.548 451.72 378.184 452.164 378.976L452.62 378.292C452.068 377.488 451.54 376.768 451.024 376.144V375.352H452.284V374.572H451.024V372.244H450.208V374.572H448.816V375.352H450.208V375.424C449.848 376.888 449.248 378.184 448.42 379.336L448.792 380.272C449.368 379.348 449.836 378.316 450.208 377.188V383.164H451.024V377.056ZM457.792 378.196H453.604V377.38H457.792V378.196ZM453.604 376.732V375.928H457.792V376.732H453.604ZM460.78 374.344V375.184H466.696C466.792 376.696 466.972 378.016 467.248 379.156C467.968 381.772 468.856 383.116 469.924 383.164C470.536 383.152 471.028 382.276 471.388 380.548L470.608 380.14C470.356 381.484 470.104 382.168 469.864 382.204C469.468 382.204 469.012 381.532 468.508 380.212C468.04 378.868 467.728 377.2 467.584 375.184H471.244V374.344H467.536C467.5 373.672 467.488 372.964 467.488 372.22H466.6C466.6 372.952 466.612 373.66 466.648 374.344H460.78ZM460.96 377.176V377.992H463.072V381.268C462.304 381.388 461.512 381.508 460.72 381.604L460.924 382.42C462.916 382.132 464.788 381.784 466.516 381.364V380.524C465.676 380.74 464.824 380.944 463.936 381.112V377.992H466.048V377.176H460.96ZM469.3 372.28L468.58 372.628C468.988 373.096 469.36 373.624 469.708 374.224L470.428 373.864C470.068 373.288 469.696 372.76 469.3 372.28Z" fill="white"/>
<rect x="194.5" y="144.5" width="127" height="47" rx="7.5" stroke="white"/>
<path d="M241.656 163.024V172.408H242.484V163.024H241.656ZM244.164 162.436V173.224H245.016V162.436H244.164ZM239.268 162.472V167.752C239.244 170.02 238.764 171.664 237.804 172.696L238.452 173.272C239.52 172.108 240.072 170.272 240.096 167.752V162.472H239.268ZM235.944 162.316L235.344 162.904C236.208 163.552 236.904 164.176 237.408 164.764L237.996 164.164C237.444 163.54 236.76 162.928 235.944 162.316ZM234.54 165.868V166.696H236.304V171.364C236.304 171.568 236.208 171.748 236.04 171.904L236.376 172.672C237.096 172.144 237.768 171.544 238.404 170.872L238.176 169.972C237.816 170.356 237.468 170.704 237.132 171.016V165.868H234.54ZM250.332 170.764C249.252 171.22 247.968 171.592 246.504 171.856L246.612 172.72C248.004 172.432 249.252 172.072 250.332 171.616V170.764ZM248.52 162.22C248.088 163.636 247.584 164.884 246.984 165.976C246.876 166.132 246.756 166.24 246.612 166.312L246.828 167.104C247.452 166.996 248.064 166.876 248.676 166.756C248.076 167.884 247.56 168.676 247.14 169.156C247.032 169.252 246.9 169.336 246.756 169.408L246.984 170.212C248.088 170.044 249.228 169.744 250.428 169.288V168.508C249.624 168.808 248.82 169.048 248.016 169.216C248.664 168.364 249.504 166.936 250.512 164.932L249.72 164.632C249.504 165.1 249.288 165.544 249.072 165.976C248.592 166.072 248.112 166.156 247.632 166.228C248.208 165.304 248.772 164.08 249.348 162.544L248.52 162.22ZM251.784 169.444C251.436 170.428 250.932 171.388 250.272 172.336L251.016 172.756C251.592 171.928 252.096 170.932 252.54 169.756L251.784 169.444ZM256.284 169.432L255.516 169.684C255.996 170.572 256.44 171.592 256.836 172.744L257.568 172.42C257.208 171.364 256.776 170.368 256.284 169.432ZM253.608 173.092C254.292 173.092 254.64 172.768 254.64 172.132V168.748H257.196V167.98H254.64V165.652H253.032C253.176 165.244 253.32 164.8 253.464 164.344H257.196V163.54H253.704C253.812 163.156 253.92 162.76 254.028 162.34L253.188 162.184C253.068 162.652 252.96 163.108 252.84 163.54H250.176V164.344H252.6C252.456 164.8 252.312 165.232 252.168 165.652H250.608V166.432H251.856C251.604 167.008 251.34 167.536 251.076 168.004L251.268 168.748H253.812V171.868C253.812 172.18 253.656 172.336 253.356 172.336L252.204 172.3L252.42 173.092H253.608ZM252.732 166.432H253.812V167.98H252.036C252.276 167.5 252.504 166.984 252.732 166.432ZM261.288 163.672L261.672 164.62H258.792V165.376H269.208V164.62H266.22L266.688 163.672H268.644V162.928H264.42C264.3 162.616 264.168 162.34 264.048 162.088L263.124 162.232C263.244 162.436 263.364 162.664 263.472 162.928H259.356V163.672H261.288ZM262.572 164.62L262.188 163.672H265.788L265.32 164.62H262.572ZM260.16 166.084V169.636H267.84V166.084H260.16ZM267 168.964H261V168.172H267V168.964ZM261 167.536V166.768H267V167.536H261ZM259.68 170.2C259.452 170.992 259.092 171.724 258.6 172.384L259.344 172.852C259.848 172.156 260.232 171.328 260.52 170.368L259.68 170.2ZM265.644 173.008C266.1 173.008 266.424 172.924 266.64 172.78C266.88 172.588 267.048 172.084 267.132 171.256L266.316 170.992C266.268 171.592 266.172 171.964 266.028 172.084C265.932 172.18 265.752 172.228 265.488 172.228H262.968C262.584 172.228 262.392 172.048 262.392 171.712V170.308H261.504V171.892C261.504 172.636 261.9 173.008 262.716 173.008H265.644ZM264.132 169.864L263.4 170.32C263.904 170.824 264.288 171.292 264.576 171.724L265.296 171.22C265.032 170.824 264.636 170.368 264.132 169.864ZM267.9 170.092L267.204 170.524C267.852 171.316 268.356 172.036 268.74 172.696L269.46 172.192C269.1 171.592 268.572 170.896 267.9 170.092ZM281.04 162.652H271.392V167.32C271.368 169.54 271.068 171.28 270.492 172.54L271.14 173.116C271.848 171.664 272.22 169.732 272.268 167.32V163.396H276.276C276.204 163.66 276.108 163.924 275.988 164.188H273.6V167.584H276.588V168.52C276.588 168.808 276.444 168.952 276.168 168.952C275.904 168.952 275.616 168.928 275.328 168.892L275.496 169.636H276.432C277.092 169.636 277.428 169.324 277.428 168.712V167.584H280.164V164.188H276.864C276.972 163.936 277.068 163.672 277.14 163.396H281.04V162.652ZM279.336 166.936H274.44V166.144H279.336V166.936ZM274.44 165.568V164.8H279.336V165.568H274.44ZM277.92 173.08C278.304 173.08 278.58 172.996 278.748 172.852C278.952 172.66 279.084 172.144 279.156 171.328L278.376 171.076C278.34 171.676 278.268 172.036 278.16 172.156C278.088 172.252 277.956 172.3 277.764 172.3H275.808C275.496 172.3 275.352 172.18 275.352 171.964V170.14H274.512V172.12C274.512 172.756 274.86 173.08 275.568 173.08H277.92ZM273.276 170.236C272.916 171.112 272.484 171.868 271.98 172.492L272.664 172.984C273.168 172.312 273.612 171.508 273.996 170.584L273.276 170.236ZM276.696 169.972L276.108 170.344C276.588 170.92 276.96 171.436 277.224 171.916L277.836 171.496C277.572 171.052 277.188 170.548 276.696 169.972ZM279.612 169.948L278.94 170.368C279.684 171.268 280.26 172.096 280.692 172.84L281.388 172.348C280.968 171.664 280.38 170.86 279.612 169.948ZM274.608 167.86C274.032 168.364 273.336 168.796 272.508 169.18L273.012 169.84C273.852 169.408 274.572 168.904 275.148 168.34L274.608 167.86ZM278.592 167.896L278.184 168.508C279.036 168.844 279.864 169.3 280.68 169.888L281.148 169.168C280.38 168.664 279.528 168.244 278.592 167.896Z" fill="white"/>
<rect x="194.5" y="208.5" width="127" height="47" rx="7.5" stroke="white"/>
<path d="M241.656 227.024V236.408H242.484V227.024H241.656ZM244.164 226.436V237.224H245.016V226.436H244.164ZM239.268 226.472V231.752C239.244 234.02 238.764 235.664 237.804 236.696L238.452 237.272C239.52 236.108 240.072 234.272 240.096 231.752V226.472H239.268ZM235.944 226.316L235.344 226.904C236.208 227.552 236.904 228.176 237.408 228.764L237.996 228.164C237.444 227.54 236.76 226.928 235.944 226.316ZM234.54 229.868V230.696H236.304V235.364C236.304 235.568 236.208 235.748 236.04 235.904L236.376 236.672C237.096 236.144 237.768 235.544 238.404 234.872L238.176 233.972C237.816 234.356 237.468 234.704 237.132 235.016V229.868H234.54ZM250.332 234.764C249.252 235.22 247.968 235.592 246.504 235.856L246.612 236.72C248.004 236.432 249.252 236.072 250.332 235.616V234.764ZM248.52 226.22C248.088 227.636 247.584 228.884 246.984 229.976C246.876 230.132 246.756 230.24 246.612 230.312L246.828 231.104C247.452 230.996 248.064 230.876 248.676 230.756C248.076 231.884 247.56 232.676 247.14 233.156C247.032 233.252 246.9 233.336 246.756 233.408L246.984 234.212C248.088 234.044 249.228 233.744 250.428 233.288V232.508C249.624 232.808 248.82 233.048 248.016 233.216C248.664 232.364 249.504 230.936 250.512 228.932L249.72 228.632C249.504 229.1 249.288 229.544 249.072 229.976C248.592 230.072 248.112 230.156 247.632 230.228C248.208 229.304 248.772 228.08 249.348 226.544L248.52 226.22ZM251.784 233.444C251.436 234.428 250.932 235.388 250.272 236.336L251.016 236.756C251.592 235.928 252.096 234.932 252.54 233.756L251.784 233.444ZM256.284 233.432L255.516 233.684C255.996 234.572 256.44 235.592 256.836 236.744L257.568 236.42C257.208 235.364 256.776 234.368 256.284 233.432ZM253.608 237.092C254.292 237.092 254.64 236.768 254.64 236.132V232.748H257.196V231.98H254.64V229.652H253.032C253.176 229.244 253.32 228.8 253.464 228.344H257.196V227.54H253.704C253.812 227.156 253.92 226.76 254.028 226.34L253.188 226.184C253.068 226.652 252.96 227.108 252.84 227.54H250.176V228.344H252.6C252.456 228.8 252.312 229.232 252.168 229.652H250.608V230.432H251.856C251.604 231.008 251.34 231.536 251.076 232.004L251.268 232.748H253.812V235.868C253.812 236.18 253.656 236.336 253.356 236.336L252.204 236.3L252.42 237.092H253.608ZM252.732 230.432H253.812V231.98H252.036C252.276 231.5 252.504 230.984 252.732 230.432ZM268.032 226.784H259.98V237.212H260.856V236.408H267.168V237.188H268.032V226.784ZM260.856 235.568V233.312H267.168V235.568H260.856ZM260.856 232.52V230.408H267.168V232.52H260.856ZM260.856 229.616V227.624H267.168V229.616H260.856ZM272.292 226.232V228.5H270.828V229.328H272.292C271.92 230.84 271.308 232.196 270.444 233.372L270.816 234.308C271.416 233.372 271.908 232.34 272.292 231.212V237.188H273.144V231.176C273.504 231.632 273.924 232.232 274.416 232.988L274.908 232.256C274.32 231.524 273.732 230.852 273.144 230.252V229.328H274.536V228.5H273.144V226.232H272.292ZM275.832 231.656C275.496 233.144 274.956 234.488 274.212 235.7L274.956 236.18C275.676 234.956 276.24 233.516 276.624 231.836L275.832 231.656ZM280.176 231.596L279.396 231.848C279.864 233.144 280.296 234.62 280.692 236.288L281.472 235.94C281.112 234.404 280.68 232.952 280.176 231.596ZM277.488 237.068C278.184 237.068 278.544 236.708 278.544 236V230.66H281.484V229.832H274.752V230.66H277.68V235.784C277.68 236.132 277.512 236.312 277.188 236.312C276.84 236.312 276.48 236.288 276.096 236.264L276.264 237.068H277.488ZM275.388 226.916V227.732H280.86V226.916H275.388Z" fill="white"/>
<rect x="194.5" y="282.5" width="127" height="47" rx="7.5" stroke="white"/>
<path d="M235.476 300.316L234.876 300.88C235.752 301.576 236.436 302.212 236.94 302.812L237.552 302.2C236.988 301.576 236.292 300.952 235.476 300.316ZM242.484 310.984H245.268L245.484 310.12C245.16 310.144 244.704 310.156 244.128 310.168C243.528 310.18 242.94 310.192 242.364 310.192C241.44 310.192 240.672 310.18 240.048 310.168C239.352 310.144 238.812 310.048 238.452 309.88C238.116 309.724 237.816 309.472 237.528 309.124C237.432 309.016 237.348 308.932 237.252 308.86V304.36H234.732V305.152H236.448V308.8C235.944 309.016 235.38 309.628 234.732 310.636L235.38 311.224C236.052 310.12 236.532 309.568 236.82 309.568C236.964 309.568 237.12 309.664 237.276 309.868C237.648 310.3 238.068 310.6 238.524 310.744C239.004 310.876 239.628 310.948 240.384 310.96C241.14 310.972 241.836 310.984 242.484 310.984ZM238.896 300.88V301.672H244.404V300.88H238.896ZM238.164 303.604V304.432H240.684C239.748 306.796 239.04 308.056 238.536 308.2L238.752 308.956C240.888 308.752 242.616 308.5 243.936 308.188C244.08 308.524 244.212 308.884 244.332 309.256L245.1 309.052C244.596 307.636 244.02 306.376 243.372 305.272L242.664 305.5C243.012 306.124 243.336 306.772 243.624 307.444C242.604 307.684 241.32 307.9 239.76 308.068C240.288 307.348 240.876 306.136 241.536 304.432H245.28V303.604H238.164ZM247.08 301.036V301.864H251.424V301.036H247.08ZM246.612 304.276V305.116H248.28C247.68 307.3 247.2 308.632 246.84 309.124C246.792 309.148 246.732 309.172 246.648 309.196L246.852 310.012C248.34 309.748 249.732 309.388 251.004 308.932C251.124 309.208 251.244 309.496 251.364 309.808L252.108 309.424C251.604 308.212 251.064 307.096 250.488 306.064L249.756 306.424C250.068 306.976 250.368 307.564 250.68 308.212C249.744 308.56 248.796 308.836 247.848 309.028C248.208 308.236 248.628 306.94 249.108 305.116H251.88V304.276H246.612ZM253.68 300.232V302.656H252.06V303.496H253.68V303.64C253.656 306.868 252.888 309.208 251.388 310.66L252.036 311.224C253.668 309.628 254.508 307.096 254.544 303.64V303.496H256.32C256.296 306.724 256.248 308.656 256.176 309.292C256.08 309.976 255.732 310.324 255.144 310.324C254.82 310.324 254.436 310.3 254.004 310.276L254.196 311.044C254.7 311.068 255.048 311.08 255.252 311.08C256.284 311.08 256.872 310.588 256.992 309.616C257.1 308.728 257.16 306.412 257.16 302.656H254.544V300.232H253.68ZM260.148 307.084H262.92V308.2H260.148V307.084ZM262.92 306.364H260.148V305.2H262.92V306.364ZM260.148 308.932H262.92V309.904C262.92 310.204 262.764 310.36 262.464 310.36L261.564 310.324L261.78 311.14H262.74C263.412 311.14 263.748 310.78 263.748 310.084V304.444H259.32V311.224H260.148V308.932ZM267.96 305.44C268.38 305.44 268.692 305.344 268.884 305.164C269.1 304.948 269.256 304.348 269.34 303.364L268.536 303.112C268.488 303.856 268.416 304.3 268.296 304.468C268.2 304.588 268.032 304.66 267.792 304.66H266.22C265.896 304.66 265.74 304.468 265.74 304.084V302.584C267.06 302.392 268.224 302.164 269.232 301.912L268.956 301.156C268.128 301.372 267.06 301.588 265.74 301.792V300.232H264.888V304.264C264.888 305.044 265.248 305.44 265.98 305.44H267.96ZM265.74 308.152C266.988 308.044 268.152 307.84 269.232 307.528L268.956 306.76C268.008 307.048 266.94 307.252 265.74 307.372V305.896H264.888V310.06C264.888 310.696 265.236 311.02 265.956 311.02H267.996C268.428 311.02 268.74 310.924 268.932 310.744C269.16 310.528 269.316 309.94 269.388 308.968L268.608 308.728C268.56 309.46 268.476 309.904 268.344 310.072C268.248 310.18 268.068 310.24 267.828 310.24H266.196C265.884 310.24 265.74 310.108 265.74 309.868V308.152ZM262.884 301.048L262.212 301.468C262.5 301.876 262.776 302.284 263.028 302.668C261.9 302.812 260.832 302.908 259.824 302.968C260.496 302.356 261.096 301.516 261.648 300.448L260.832 300.196C260.352 301.156 259.728 302.02 258.984 302.788C258.876 302.884 258.744 302.968 258.588 303.016L258.828 303.736C260.604 303.64 262.14 303.496 263.424 303.292C263.58 303.556 263.724 303.82 263.856 304.084L264.564 303.58C264.168 302.86 263.604 302.02 262.884 301.048ZM275.004 300.232V301.432C274.992 301.84 274.98 302.248 274.956 302.656H271.392V303.496H274.884C274.74 304.9 274.476 306.1 274.08 307.096C273.456 308.488 272.352 309.616 270.78 310.456L271.248 311.188C272.856 310.372 274.008 309.232 274.728 307.768C275.244 306.616 275.592 305.2 275.772 303.496H279.564C279.492 306.328 279.348 308.188 279.132 309.064C278.916 309.892 278.472 310.312 277.788 310.312C277.356 310.312 276.888 310.3 276.408 310.276L276.648 311.116H278.22C278.844 311.068 279.3 310.816 279.588 310.336C279.876 309.832 280.08 308.944 280.2 307.684C280.32 306.4 280.392 304.72 280.44 302.656H275.844C275.868 302.26 275.88 301.852 275.892 301.432V300.232H275.004Z" fill="white"/>
<path d="M194.354 306.354C194.549 306.158 194.549 305.842 194.354 305.646L191.172 302.464C190.976 302.269 190.66 302.269 190.464 302.464C190.269 302.66 190.269 302.976 190.464 303.172L193.293 306L190.464 308.828C190.269 309.024 190.269 309.34 190.464 309.536C190.66 309.731 190.976 309.731 191.172 309.536L194.354 306.354ZM144 306.5H194V305.5H144V306.5Z" fill="white"/>
<path d="M372.354 306.354C372.549 306.158 372.549 305.842 372.354 305.646L369.172 302.464C368.976 302.269 368.66 302.269 368.464 302.464C368.269 302.66 368.269 302.976 368.464 303.172L371.293 306L368.464 308.828C368.269 309.024 368.269 309.34 368.464 309.536C368.66 309.731 368.976 309.731 369.172 309.536L372.354 306.354ZM322 306.5H372V305.5H322V306.5Z" fill="white"/>
<path d="M436.354 329.646C436.158 329.451 435.842 329.451 435.646 329.646L432.464 332.828C432.269 333.024 432.269 333.34 432.464 333.536C432.66 333.731 432.976 333.731 433.172 333.536L436 330.707L438.828 333.536C439.024 333.731 439.34 333.731 439.536 333.536C439.731 333.34 439.731 333.024 439.536 332.828L436.354 329.646ZM436.5 354L436.5 330L435.5 330L435.5 354L436.5 354Z" fill="white"/>
<path d="M436.354 401.646C436.158 401.451 435.842 401.451 435.646 401.646L432.464 404.828C432.269 405.024 432.269 405.34 432.464 405.536C432.66 405.731 432.976 405.731 433.172 405.536L436 402.707L438.828 405.536C439.024 405.731 439.34 405.731 439.536 405.536C439.731 405.34 439.731 405.024 439.536 404.828L436.354 401.646ZM436.5 426L436.5 402L435.5 402L435.5 426L436.5 426Z" fill="white"/>
<path d="M372.354 232.354C372.549 232.158 372.549 231.842 372.354 231.646L369.172 228.464C368.976 228.269 368.66 228.269 368.464 228.464C368.269 228.66 368.269 228.976 368.464 229.172L371.293 232L368.464 234.828C368.269 235.024 368.269 235.34 368.464 235.536C368.66 235.731 368.976 235.731 369.172 235.536L372.354 232.354ZM322 232.5H372V231.5H322V232.5Z" fill="white"/>
<path d="M372.354 168.354C372.549 168.158 372.549 167.842 372.354 167.646L369.172 164.464C368.976 164.269 368.66 164.269 368.464 164.464C368.269 164.66 368.269 164.976 368.464 165.172L371.293 168L368.464 170.828C368.269 171.024 368.269 171.34 368.464 171.536C368.66 171.731 368.976 171.731 369.172 171.536L372.354 168.354ZM322 168.5H372V167.5H322V168.5Z" fill="white"/>
<path d="M754.354 168.354C754.549 168.158 754.549 167.842 754.354 167.646L751.172 164.464C750.976 164.269 750.66 164.269 750.464 164.464C750.269 164.66 750.269 164.976 750.464 165.172L753.293 168L750.464 170.828C750.269 171.024 750.269 171.34 750.464 171.536C750.66 171.731 750.976 171.731 751.172 171.536L754.354 168.354ZM704 168.5H754V167.5H704V168.5Z" fill="white"/>
<path d="M372.354 104.354C372.549 104.158 372.549 103.842 372.354 103.646L369.172 100.464C368.976 100.269 368.66 100.269 368.464 100.464C368.269 100.66 368.269 100.976 368.464 101.172L371.293 104L368.464 106.828C368.269 107.024 368.269 107.34 368.464 107.536C368.66 107.731 368.976 107.731 369.172 107.536L372.354 104.354ZM322 104.5H372V103.5H322V104.5Z" fill="white"/>
<path d="M372.354 40.3536C372.549 40.1583 372.549 39.8417 372.354 39.6464L369.172 36.4645C368.976 36.2692 368.66 36.2692 368.464 36.4645C368.269 36.6597 368.269 36.9763 368.464 37.1716L371.293 40L368.464 42.8284C368.269 43.0237 368.269 43.3403 368.464 43.5355C368.66 43.7308 368.976 43.7308 369.172 43.5355L372.354 40.3536ZM322 40.5H372V39.5H322V40.5Z" fill="white"/>
<path d="M194.354 104.354C194.549 104.158 194.549 103.842 194.354 103.646L191.172 100.464C190.976 100.269 190.66 100.269 190.464 100.464C190.269 100.66 190.269 100.976 190.464 101.172L193.293 104L190.464 106.828C190.269 107.024 190.269 107.34 190.464 107.536C190.66 107.731 190.976 107.731 191.172 107.536L194.354 104.354ZM155 168H154.5V168.5H155V168ZM194.354 168.354C194.549 168.158 194.549 167.842 194.354 167.646L191.172 164.464C190.976 164.269 190.66 164.269 190.464 164.464C190.269 164.66 190.269 164.976 190.464 165.172L193.293 168L190.464 170.828C190.269 171.024 190.269 171.34 190.464 171.536C190.66 171.731 190.976 171.731 191.172 171.536L194.354 168.354ZM155 232H154.5V232.5H155V232ZM194.354 232.354C194.549 232.158 194.549 231.842 194.354 231.646L191.172 228.464C190.976 228.269 190.66 228.269 190.464 228.464C190.269 228.66 190.269 228.976 190.464 229.172L193.293 232L190.464 234.828C190.269 235.024 190.269 235.34 190.464 235.536C190.66 235.731 190.976 235.731 191.172 235.536L194.354 232.354ZM155 40V39.5H154.5V40H155ZM194.354 40.3536C194.549 40.1583 194.549 39.8417 194.354 39.6464L191.172 36.4645C190.976 36.2692 190.66 36.2692 190.464 36.4645C190.269 36.6597 190.269 36.9763 190.464 37.1716L193.293 40L190.464 42.8284C190.269 43.0237 190.269 43.3403 190.464 43.5355C190.66 43.7308 190.976 43.7308 191.172 43.5355L194.354 40.3536ZM155 104.5H194V103.5H155V104.5ZM155 168.5H194V167.5H155V168.5ZM155 232.5H194V231.5H155V232.5ZM155.5 232V104H154.5V232H155.5ZM155 40.5H194V39.5H155V40.5ZM154.5 40V104H155.5V40H154.5ZM155.5 168V136H154.5V168H155.5ZM155.5 136V104H154.5V136H155.5ZM155 135.5H144V136.5H155V135.5Z" fill="white"/>
</svg>
