<svg width="271" height="386" viewBox="0 0 271 386" fill="none" xmlns="http://www.w3.org/2000/svg">
<rect x="76.1621" width="118" height="32" rx="3.99999" fill="#333333"/>
<path d="M93.8224 10.576H94.7984V17.584C94.7984 18.8 95.0544 19.728 95.5984 20.352C96.1744 21.008 97.0544 21.344 98.2704 21.344C99.4864 21.344 100.366 21.008 100.942 20.352C101.47 19.728 101.742 18.8 101.742 17.584V10.576H102.718V17.584C102.718 19.072 102.35 20.208 101.646 20.992C100.894 21.808 99.7744 22.224 98.2704 22.224C96.7664 22.224 95.6464 21.808 94.9104 21.008C94.1744 20.208 93.8224 19.072 93.8224 17.584V10.576ZM107.713 13.504C109.665 13.504 110.769 14.352 111.009 16.048H110.065C109.953 15.472 109.729 15.056 109.377 14.784C108.993 14.48 108.433 14.336 107.697 14.336C107.089 14.336 106.593 14.448 106.209 14.704C105.825 14.96 105.633 15.28 105.633 15.696C105.633 16.112 105.873 16.448 106.369 16.704C106.689 16.864 107.265 17.056 108.113 17.28C109.121 17.536 109.841 17.792 110.257 18.048C110.913 18.448 111.249 19.008 111.249 19.712C111.249 21.376 110.129 22.224 107.889 22.224C105.761 22.224 104.609 21.28 104.417 19.392H105.361C105.457 20.112 105.713 20.64 106.129 20.96C106.513 21.248 107.089 21.392 107.857 21.392C109.457 21.392 110.257 20.848 110.257 19.76C110.257 19.264 109.985 18.88 109.441 18.608C109.153 18.464 108.545 18.272 107.601 18.032C106.641 17.776 105.969 17.536 105.585 17.296C104.945 16.912 104.641 16.384 104.641 15.712C104.641 15.04 104.929 14.512 105.537 14.096C106.113 13.696 106.849 13.504 107.713 13.504ZM116.131 13.504C117.443 13.504 118.419 13.936 119.075 14.832C119.651 15.616 119.971 16.72 120.019 18.144H113.299C113.347 19.152 113.619 19.952 114.115 20.528C114.627 21.104 115.299 21.392 116.163 21.392C116.915 21.392 117.523 21.184 117.987 20.8C118.371 20.464 118.659 19.984 118.867 19.344H119.843C119.651 20.144 119.283 20.8 118.739 21.312C118.067 21.92 117.219 22.224 116.163 22.224C114.995 22.224 114.067 21.824 113.379 21.04C112.659 20.24 112.307 19.168 112.307 17.856C112.307 16.64 112.643 15.632 113.331 14.8C114.035 13.936 114.963 13.504 116.131 13.504ZM116.147 14.336C115.331 14.336 114.675 14.608 114.179 15.184C113.683 15.744 113.395 16.464 113.315 17.36H119.011C118.851 15.344 117.891 14.336 116.147 14.336ZM125.025 13.504C125.505 13.504 125.905 13.552 126.225 13.68V14.656C125.793 14.528 125.377 14.48 124.961 14.48C124.225 14.48 123.617 14.8 123.169 15.472C122.721 16.08 122.513 16.8 122.513 17.632V22H121.553V13.728H122.513V15.312C122.737 14.8 123.041 14.384 123.425 14.08C123.873 13.696 124.417 13.504 125.025 13.504ZM132.807 10.576H133.911L140.823 20.48H140.871V10.576H141.863V22H140.775L133.831 12.016H133.783V22H132.807V10.576ZM147.381 13.504C148.693 13.504 149.669 13.936 150.325 14.832C150.901 15.616 151.221 16.72 151.269 18.144H144.549C144.597 19.152 144.869 19.952 145.365 20.528C145.877 21.104 146.549 21.392 147.413 21.392C148.165 21.392 148.773 21.184 149.237 20.8C149.621 20.464 149.909 19.984 150.117 19.344H151.093C150.901 20.144 150.533 20.8 149.989 21.312C149.317 21.92 148.469 22.224 147.413 22.224C146.245 22.224 145.317 21.824 144.629 21.04C143.909 20.24 143.557 19.168 143.557 17.856C143.557 16.64 143.893 15.632 144.581 14.8C145.285 13.936 146.213 13.504 147.381 13.504ZM147.397 14.336C146.581 14.336 145.925 14.608 145.429 15.184C144.933 15.744 144.645 16.464 144.565 17.36H150.261C150.101 15.344 149.141 14.336 147.397 14.336ZM156.147 13.504C157.459 13.504 158.435 13.936 159.091 14.832C159.667 15.616 159.987 16.72 160.035 18.144H153.315C153.363 19.152 153.635 19.952 154.131 20.528C154.643 21.104 155.315 21.392 156.179 21.392C156.931 21.392 157.539 21.184 158.003 20.8C158.387 20.464 158.675 19.984 158.883 19.344H159.859C159.667 20.144 159.299 20.8 158.755 21.312C158.083 21.92 157.235 22.224 156.179 22.224C155.011 22.224 154.083 21.824 153.395 21.04C152.675 20.24 152.323 19.168 152.323 17.856C152.323 16.64 152.659 15.632 153.347 14.8C154.051 13.936 154.979 13.504 156.147 13.504ZM156.163 14.336C155.347 14.336 154.691 14.608 154.195 15.184C153.699 15.744 153.411 16.464 153.331 17.36H159.027C158.867 15.344 157.907 14.336 156.163 14.336ZM167.808 10.352H168.768V22H167.856V20.368C167.28 21.6 166.32 22.224 164.96 22.224C163.76 22.224 162.832 21.776 162.16 20.912C161.552 20.112 161.249 19.088 161.249 17.856C161.249 16.64 161.552 15.632 162.16 14.832C162.832 13.936 163.744 13.504 164.912 13.504C166.224 13.504 167.2 14.16 167.808 15.472V10.352ZM165.088 14.32C164.144 14.32 163.424 14.672 162.912 15.376C162.448 15.984 162.224 16.816 162.224 17.856C162.224 18.896 162.448 19.728 162.896 20.352C163.392 21.056 164.112 21.408 165.056 21.408C165.952 21.408 166.656 21.056 167.152 20.384C167.6 19.76 167.84 18.96 167.84 17.984V17.792C167.84 16.768 167.584 15.952 167.104 15.312C166.592 14.64 165.92 14.32 165.088 14.32ZM173.603 13.504C175.555 13.504 176.659 14.352 176.899 16.048H175.955C175.843 15.472 175.619 15.056 175.267 14.784C174.883 14.48 174.323 14.336 173.587 14.336C172.979 14.336 172.483 14.448 172.099 14.704C171.715 14.96 171.523 15.28 171.523 15.696C171.523 16.112 171.763 16.448 172.259 16.704C172.579 16.864 173.155 17.056 174.003 17.28C175.011 17.536 175.731 17.792 176.147 18.048C176.803 18.448 177.139 19.008 177.139 19.712C177.139 21.376 176.019 22.224 173.779 22.224C171.651 22.224 170.499 21.28 170.307 19.392H171.251C171.347 20.112 171.603 20.64 172.019 20.96C172.403 21.248 172.979 21.392 173.747 21.392C175.347 21.392 176.147 20.848 176.147 19.76C176.147 19.264 175.875 18.88 175.331 18.608C175.043 18.464 174.435 18.272 173.491 18.032C172.531 17.776 171.859 17.536 171.475 17.296C170.835 16.912 170.531 16.384 170.531 15.712C170.531 15.04 170.819 14.512 171.427 14.096C172.003 13.696 172.739 13.504 173.603 13.504Z" fill="white" fill-opacity="0.75"/>
<path d="M134.985 64.1768C135.083 64.2744 135.241 64.2744 135.339 64.1768L136.93 62.5858C137.028 62.4882 137.028 62.3299 136.93 62.2322C136.832 62.1346 136.674 62.1346 136.576 62.2322L135.162 63.6464L133.748 62.2322C133.65 62.1346 133.492 62.1346 133.394 62.2322C133.297 62.3299 133.297 62.4882 133.394 62.5858L134.985 64.1768ZM134.912 36V64H135.412V36H134.912Z" fill="white" fill-opacity="0.75"/>
<rect x="0.499999" y="68.5" width="269.324" height="246.325" stroke="white" stroke-opacity="0.5" stroke-width="0.999999" stroke-dasharray="2 2"/>
<ellipse cx="136.16" cy="124.162" rx="40.1624" ry="40.1625" fill="#333333"/>
<path d="M112.244 118.576H116.308C118.084 118.576 119.428 119.104 120.324 120.176C121.14 121.136 121.556 122.512 121.556 124.288C121.556 126.032 121.092 127.408 120.18 128.416C119.22 129.472 117.86 130 116.1 130H112.244V118.576ZM113.22 119.44V129.136H115.956C117.476 129.136 118.644 128.704 119.444 127.84C120.212 127.008 120.596 125.824 120.596 124.288C120.596 122.688 120.26 121.504 119.588 120.72C118.852 119.856 117.7 119.44 116.164 119.44H113.22ZM126.6 121.504C127.912 121.504 128.888 121.936 129.544 122.832C130.12 123.616 130.44 124.72 130.488 126.144H123.768C123.816 127.152 124.088 127.952 124.584 128.528C125.096 129.104 125.768 129.392 126.632 129.392C127.384 129.392 127.992 129.184 128.456 128.8C128.84 128.464 129.128 127.984 129.336 127.344H130.312C130.12 128.144 129.752 128.8 129.208 129.312C128.536 129.92 127.688 130.224 126.632 130.224C125.464 130.224 124.536 129.824 123.848 129.04C123.128 128.24 122.776 127.168 122.776 125.856C122.776 124.64 123.112 123.632 123.8 122.8C124.504 121.936 125.432 121.504 126.6 121.504ZM126.616 122.336C125.8 122.336 125.144 122.608 124.648 123.184C124.152 123.744 123.864 124.464 123.784 125.36H129.48C129.32 123.344 128.36 122.336 126.616 122.336ZM134.838 121.504C136.79 121.504 137.894 122.352 138.134 124.048H137.19C137.078 123.472 136.854 123.056 136.502 122.784C136.118 122.48 135.558 122.336 134.822 122.336C134.214 122.336 133.718 122.448 133.334 122.704C132.95 122.96 132.758 123.28 132.758 123.696C132.758 124.112 132.998 124.448 133.494 124.704C133.814 124.864 134.39 125.056 135.238 125.28C136.246 125.536 136.966 125.792 137.382 126.048C138.038 126.448 138.374 127.008 138.374 127.712C138.374 129.376 137.254 130.224 135.014 130.224C132.886 130.224 131.734 129.28 131.542 127.392H132.486C132.582 128.112 132.838 128.64 133.254 128.96C133.638 129.248 134.214 129.392 134.982 129.392C136.582 129.392 137.382 128.848 137.382 127.76C137.382 127.264 137.11 126.88 136.566 126.608C136.278 126.464 135.67 126.272 134.726 126.032C133.766 125.776 133.094 125.536 132.71 125.296C132.07 124.912 131.766 124.384 131.766 123.712C131.766 123.04 132.054 122.512 132.662 122.096C133.238 121.696 133.974 121.504 134.838 121.504ZM140.872 118.752C141.096 118.752 141.288 118.832 141.448 118.992C141.608 119.12 141.688 119.312 141.688 119.552C141.688 119.776 141.592 119.968 141.432 120.128C141.272 120.272 141.096 120.352 140.872 120.352C140.632 120.352 140.44 120.272 140.296 120.128C140.136 119.968 140.056 119.776 140.056 119.552C140.056 119.312 140.136 119.12 140.296 118.992C140.44 118.832 140.632 118.752 140.872 118.752ZM140.392 121.728H141.352V130H140.392V121.728ZM147.258 121.504C148.618 121.504 149.61 122.128 150.218 123.392V121.728H151.178V129.392C151.178 132.048 149.93 133.392 147.466 133.392C146.378 133.392 145.546 133.152 144.954 132.688C144.394 132.24 144.042 131.584 143.898 130.704H144.858C144.97 131.312 145.226 131.776 145.626 132.08C146.042 132.416 146.65 132.592 147.466 132.592C149.29 132.592 150.218 131.552 150.218 129.504V127.92C149.61 129.168 148.618 129.808 147.258 129.808C146.106 129.808 145.178 129.392 144.49 128.576C143.85 127.808 143.53 126.848 143.53 125.664C143.53 124.496 143.85 123.52 144.49 122.752C145.178 121.92 146.106 121.504 147.258 121.504ZM147.37 122.32C146.458 122.32 145.754 122.64 145.242 123.312C144.746 123.92 144.506 124.704 144.506 125.664C144.506 126.592 144.73 127.36 145.194 127.968C145.69 128.64 146.41 128.976 147.354 128.976C148.266 128.976 148.986 128.656 149.498 128.016C149.978 127.408 150.218 126.624 150.218 125.664C150.218 124.704 149.978 123.92 149.498 123.312C148.986 122.64 148.266 122.32 147.37 122.32ZM156.842 121.504C158.89 121.504 159.914 122.64 159.914 124.912V130H158.954V124.976C158.954 123.216 158.17 122.336 156.602 122.336C155.93 122.336 155.386 122.576 154.938 123.056C154.458 123.536 154.202 124.192 154.154 125.008V130H153.194V121.728H154.154V123.088C154.442 122.592 154.81 122.208 155.274 121.92C155.738 121.632 156.266 121.504 156.842 121.504Z" fill="white" fill-opacity="0.75"/>
<ellipse cx="56.1624" cy="259.163" rx="40.1624" ry="40.1625" fill="#333333"/>
<path d="M25.6229 253.576H26.7749L31.3509 265H30.2789L28.9509 261.592H23.4469L22.1189 265H21.0469L25.6229 253.576ZM23.7669 260.76H28.6309L26.2309 254.632H26.1829L23.7669 260.76ZM32.6558 253.352H33.6158V265H32.6558V253.352ZM39.3379 256.504C40.6979 256.504 41.6899 257.128 42.2979 258.392V256.728H43.2579V264.392C43.2579 267.048 42.0099 268.392 39.5459 268.392C38.4579 268.392 37.6259 268.152 37.0339 267.688C36.4739 267.24 36.1219 266.584 35.9779 265.704H36.9379C37.0499 266.312 37.3059 266.776 37.7059 267.08C38.1219 267.416 38.7299 267.592 39.5459 267.592C41.3699 267.592 42.2979 266.552 42.2979 264.504V262.92C41.6899 264.168 40.6979 264.808 39.3379 264.808C38.1859 264.808 37.2579 264.392 36.5699 263.576C35.9299 262.808 35.6099 261.848 35.6099 260.664C35.6099 259.496 35.9299 258.52 36.5699 257.752C37.2579 256.92 38.1859 256.504 39.3379 256.504ZM39.4499 257.32C38.5379 257.32 37.8339 257.64 37.3219 258.312C36.8259 258.92 36.5859 259.704 36.5859 260.664C36.5859 261.592 36.8099 262.36 37.2739 262.968C37.7699 263.64 38.4899 263.976 39.4339 263.976C40.3459 263.976 41.0659 263.656 41.5779 263.016C42.0579 262.408 42.2979 261.624 42.2979 260.664C42.2979 259.704 42.0579 258.92 41.5779 258.312C41.0659 257.64 40.3459 257.32 39.4499 257.32ZM48.8896 256.504C50.1056 256.504 51.0816 256.936 51.8176 257.816C52.4896 258.632 52.8256 259.656 52.8256 260.872C52.8256 262.088 52.4896 263.096 51.8176 263.912C51.0816 264.776 50.1056 265.224 48.8896 265.224C47.6736 265.224 46.6976 264.776 45.9616 263.912C45.2896 263.096 44.9536 262.088 44.9536 260.872C44.9536 259.656 45.2896 258.632 45.9776 257.816C46.6976 256.936 47.6736 256.504 48.8896 256.504ZM48.8896 257.336C47.9456 257.336 47.2096 257.688 46.6656 258.424C46.1696 259.064 45.9296 259.88 45.9296 260.872C45.9296 261.848 46.1696 262.664 46.6656 263.304C47.2096 264.024 47.9456 264.392 48.8896 264.392C49.8336 264.392 50.5856 264.024 51.1296 263.304C51.6096 262.648 51.8656 261.832 51.8656 260.872C51.8656 259.88 51.6096 259.064 51.1296 258.424C50.5856 257.688 49.8336 257.336 48.8896 257.336ZM57.9956 256.504C58.4756 256.504 58.8756 256.552 59.1956 256.68V257.656C58.7636 257.528 58.3476 257.48 57.9316 257.48C57.1956 257.48 56.5876 257.8 56.1396 258.472C55.6916 259.08 55.4836 259.8 55.4836 260.632V265H54.5236V256.728H55.4836V258.312C55.7076 257.8 56.0116 257.384 56.3956 257.08C56.8436 256.696 57.3876 256.504 57.9956 256.504ZM61.2492 253.752C61.4732 253.752 61.6652 253.832 61.8252 253.992C61.9852 254.12 62.0652 254.312 62.0652 254.552C62.0652 254.776 61.9692 254.968 61.8092 255.128C61.6492 255.272 61.4732 255.352 61.2492 255.352C61.0092 255.352 60.8172 255.272 60.6732 255.128C60.5132 254.968 60.4332 254.776 60.4332 254.552C60.4332 254.312 60.5132 254.12 60.6732 253.992C60.8172 253.832 61.0092 253.752 61.2492 253.752ZM60.7692 256.728H61.7292V265H60.7692V256.728ZM66.2267 254.056V256.728H68.3867V257.56H66.2267V263.16C66.2267 263.512 66.2907 263.784 66.4187 263.944C66.5467 264.088 66.7867 264.168 67.1387 264.168H68.1787V265H67.0107C66.3707 265 65.9067 264.824 65.6347 264.504C65.3787 264.216 65.2667 263.768 65.2667 263.16V257.56H63.5067V256.728H65.2667V254.456L66.2267 254.056ZM69.8361 253.352H70.8121V258.232C71.1001 257.672 71.4841 257.24 71.9641 256.936C72.4281 256.648 72.9561 256.504 73.5321 256.504C74.4761 256.504 75.2121 256.776 75.7401 257.336C76.2681 257.896 76.5401 258.696 76.5401 259.72V265H75.5801V259.848C75.5801 259.048 75.3721 258.424 74.9721 257.976C74.5561 257.544 73.9961 257.336 73.2601 257.336C72.5721 257.336 71.9961 257.608 71.5161 258.168C71.0361 258.712 70.8121 259.4 70.8121 260.216V265H69.8361V253.352ZM81.9148 256.504C83.2268 256.504 84.0908 257.064 84.5068 258.2C84.7948 257.64 85.1628 257.224 85.6108 256.936C86.0268 256.648 86.5388 256.504 87.1148 256.504C87.9788 256.504 88.6828 256.776 89.1948 257.32C89.6908 257.864 89.9468 258.616 89.9468 259.592V265H88.9868V259.72C88.9868 258.936 88.8268 258.344 88.5068 257.96C88.1548 257.544 87.5948 257.336 86.8588 257.336C86.2508 257.336 85.7548 257.56 85.3548 258.024C84.9388 258.472 84.7468 259.032 84.7468 259.736V265H83.7708V259.72C83.7708 258.12 83.0828 257.336 81.7068 257.336C81.0828 257.336 80.5708 257.576 80.1548 258.088C79.7228 258.584 79.5148 259.192 79.5148 259.912V265H78.5548V256.728H79.5148V257.976C80.1068 256.984 80.9068 256.504 81.9148 256.504Z" fill="white" fill-opacity="0.75"/>
<ellipse cx="214.16" cy="259.163" rx="40.1624" ry="40.1625" fill="#333333"/>
<path d="M185.91 253.352C187.158 253.352 188.15 253.656 188.886 254.264C189.638 254.872 190.07 255.768 190.166 256.952H189.19C189.062 256.056 188.726 255.384 188.182 254.92C187.638 254.456 186.87 254.232 185.878 254.232C184.95 254.232 184.23 254.392 183.702 254.712C183.094 255.064 182.806 255.608 182.806 256.328C182.806 256.968 183.158 257.464 183.878 257.848C184.214 258.008 184.95 258.264 186.07 258.584C187.526 259 188.502 259.352 189.014 259.672C189.958 260.232 190.438 261.032 190.438 262.072C190.438 263.048 190.022 263.832 189.206 264.408C188.422 264.952 187.382 265.224 186.086 265.224C184.774 265.224 183.734 264.92 182.982 264.328C182.118 263.64 181.638 262.6 181.542 261.224H182.502C182.614 262.296 182.982 263.096 183.622 263.624C184.198 264.088 185.014 264.328 186.07 264.328C187.078 264.328 187.894 264.12 188.518 263.736C189.126 263.336 189.446 262.792 189.446 262.12C189.446 261.336 189.046 260.728 188.278 260.296C187.894 260.072 187.062 259.768 185.766 259.416C184.406 259.032 183.526 258.728 183.142 258.504C182.262 258.008 181.83 257.288 181.83 256.36C181.83 255.368 182.23 254.616 183.062 254.088C183.798 253.592 184.758 253.352 185.91 253.352ZM195.591 256.504C196.807 256.504 197.783 256.936 198.519 257.816C199.191 258.632 199.527 259.656 199.527 260.872C199.527 262.088 199.191 263.096 198.519 263.912C197.783 264.776 196.807 265.224 195.591 265.224C194.375 265.224 193.399 264.776 192.663 263.912C191.991 263.096 191.655 262.088 191.655 260.872C191.655 259.656 191.991 258.632 192.679 257.816C193.399 256.936 194.375 256.504 195.591 256.504ZM195.591 257.336C194.647 257.336 193.911 257.688 193.367 258.424C192.871 259.064 192.631 259.88 192.631 260.872C192.631 261.848 192.871 262.664 193.367 263.304C193.911 264.024 194.647 264.392 195.591 264.392C196.535 264.392 197.287 264.024 197.831 263.304C198.311 262.648 198.567 261.832 198.567 260.872C198.567 259.88 198.311 259.064 197.831 258.424C197.287 257.688 196.535 257.336 195.591 257.336ZM204.585 253.576H206.057V254.424H204.665C204.249 254.424 203.945 254.52 203.753 254.744C203.561 254.952 203.465 255.288 203.465 255.768V256.728H205.945V257.56H203.465V265H202.505V257.56H200.297V256.728H202.505V255.752C202.505 255.064 202.665 254.536 203.017 254.168C203.369 253.768 203.881 253.576 204.585 253.576ZM209.147 254.056V256.728H211.307V257.56H209.147V263.16C209.147 263.512 209.211 263.784 209.339 263.944C209.467 264.088 209.707 264.168 210.059 264.168H211.099V265H209.931C209.291 265 208.827 264.824 208.555 264.504C208.299 264.216 208.187 263.768 208.187 263.16V257.56H206.427V256.728H208.187V254.456L209.147 254.056ZM211.828 256.728H212.9L215.14 263.768L217.22 256.728H218.148L220.228 263.768L222.484 256.728H223.54L220.708 265H219.78L217.7 257.976L215.588 265H214.676L211.828 256.728ZM228.135 256.504C229.287 256.504 230.151 256.808 230.711 257.448C231.191 257.976 231.447 258.712 231.447 259.672V265H230.535V263.416C230.199 263.896 229.751 264.312 229.207 264.632C228.535 265.016 227.815 265.224 227.031 265.224C226.231 265.224 225.575 265.016 225.095 264.616C224.567 264.2 224.311 263.64 224.311 262.968C224.311 262.008 224.695 261.304 225.479 260.856C226.151 260.424 227.127 260.2 228.375 260.2L230.487 260.168V259.672C230.487 258.104 229.687 257.32 228.087 257.32C227.415 257.32 226.871 257.448 226.439 257.736C225.959 258.04 225.655 258.472 225.527 259.048L224.583 258.984C224.743 258.152 225.159 257.512 225.831 257.096C226.423 256.696 227.191 256.504 228.135 256.504ZM230.487 260.92L228.423 260.952C226.327 260.968 225.287 261.64 225.287 262.952C225.287 263.4 225.463 263.752 225.815 264.024C226.167 264.296 226.647 264.44 227.223 264.44C228.055 264.44 228.823 264.152 229.495 263.576C230.151 263.032 230.487 262.424 230.487 261.784V260.92ZM236.931 256.504C237.411 256.504 237.811 256.552 238.131 256.68V257.656C237.699 257.528 237.283 257.48 236.867 257.48C236.131 257.48 235.523 257.8 235.075 258.472C234.627 259.08 234.419 259.8 234.419 260.632V265H233.459V256.728H234.419V258.312C234.643 257.8 234.947 257.384 235.331 257.08C235.779 256.696 236.323 256.504 236.931 256.504ZM242.569 256.504C243.881 256.504 244.857 256.936 245.513 257.832C246.089 258.616 246.409 259.72 246.457 261.144H239.737C239.785 262.152 240.057 262.952 240.553 263.528C241.065 264.104 241.737 264.392 242.601 264.392C243.353 264.392 243.961 264.184 244.425 263.8C244.809 263.464 245.097 262.984 245.305 262.344H246.281C246.089 263.144 245.721 263.8 245.177 264.312C244.505 264.92 243.657 265.224 242.601 265.224C241.433 265.224 240.505 264.824 239.817 264.04C239.097 263.24 238.745 262.168 238.745 260.856C238.745 259.64 239.081 258.632 239.769 257.8C240.473 256.936 241.401 256.504 242.569 256.504ZM242.585 257.336C241.769 257.336 241.113 257.608 240.617 258.184C240.121 258.744 239.833 259.464 239.753 260.36H245.449C245.289 258.344 244.329 257.336 242.585 257.336Z" fill="white" fill-opacity="0.75"/>
<path d="M192.935 222.241C193.068 222.277 193.205 222.199 193.241 222.065L193.829 219.894C193.865 219.76 193.787 219.623 193.653 219.587C193.52 219.551 193.383 219.63 193.347 219.763L192.824 221.693L190.893 221.171C190.76 221.134 190.623 221.213 190.587 221.346C190.551 221.48 190.63 221.617 190.763 221.653L192.935 222.241ZM157.783 161.124L192.783 222.124L193.217 221.876L158.217 160.876L157.783 161.124Z" fill="white" fill-opacity="0.75"/>
<path d="M102.823 260.823C102.726 260.921 102.726 261.079 102.823 261.177L104.414 262.768C104.512 262.865 104.67 262.865 104.768 262.768C104.865 262.67 104.865 262.512 104.768 262.414L103.354 261L104.768 259.586C104.865 259.488 104.865 259.33 104.768 259.232C104.67 259.135 104.512 259.135 104.414 259.232L102.823 260.823ZM168.177 261.177C168.274 261.079 168.274 260.921 168.177 260.823L166.586 259.232C166.488 259.135 166.33 259.135 166.232 259.232C166.134 259.33 166.134 259.488 166.232 259.586L167.646 261L166.232 262.414C166.134 262.512 166.134 262.67 166.232 262.768C166.33 262.865 166.488 262.865 166.586 262.768L168.177 261.177ZM103 261.25H168V260.75H103V261.25Z" fill="white" fill-opacity="0.75"/>
<path d="M77.0655 220.241C76.9322 220.277 76.7949 220.199 76.7588 220.065L76.1706 217.894C76.1345 217.76 76.2133 217.623 76.3466 217.587C76.4798 217.551 76.6171 217.63 76.6532 217.763L77.1761 219.693L79.1065 219.171C79.2398 219.134 79.3771 219.213 79.4132 219.346C79.4493 219.48 79.3705 219.617 79.2372 219.653L77.0655 220.241ZM112.217 159.124L77.2169 220.124L76.7833 219.876L111.783 158.876L112.217 159.124Z" fill="white" fill-opacity="0.75"/>
<path d="M116.935 161.759C117.068 161.723 117.205 161.801 117.241 161.935L117.829 164.106C117.866 164.24 117.787 164.377 117.654 164.413C117.52 164.449 117.383 164.37 117.347 164.237L116.824 162.307L114.894 162.829C114.76 162.866 114.623 162.787 114.587 162.654C114.551 162.52 114.63 162.383 114.763 162.347L116.935 161.759ZM117.217 162.124L82.2169 223.124L81.7833 222.876L116.783 161.876L117.217 162.124Z" fill="white" fill-opacity="0.75"/>
<path d="M181.624 165.288H182.272L182.272 171H181.624L181.624 165.288ZM185.33 166.752C186.354 166.752 186.874 167.32 186.874 168.456L186.874 171H186.234L186.234 168.504C186.234 167.696 185.866 167.296 185.146 167.296C184.858 167.296 184.61 167.4 184.402 167.608C184.178 167.832 184.058 168.128 184.034 168.504L184.034 171H183.394L183.394 166.864H184.034L184.034 167.472C184.178 167.24 184.362 167.064 184.586 166.944C184.81 166.816 185.058 166.752 185.33 166.752ZM188.967 165.528L188.967 166.864H189.991L189.991 167.4H188.967L188.967 170.032C188.967 170.184 188.991 170.296 189.055 170.36C189.111 170.424 189.215 170.464 189.359 170.464H189.887L189.887 171H189.263C188.927 171 188.679 170.912 188.535 170.736C188.399 170.576 188.335 170.344 188.335 170.032L188.335 167.4H187.503L187.503 166.864H188.335L188.335 165.792L188.967 165.528ZM192.411 166.752C193.075 166.752 193.579 166.976 193.915 167.424C194.219 167.824 194.379 168.392 194.395 169.112H191.131C191.163 169.576 191.283 169.936 191.507 170.192C191.731 170.448 192.043 170.576 192.435 170.576C192.771 170.576 193.051 170.488 193.259 170.32C193.435 170.176 193.571 169.96 193.675 169.672H194.315C194.219 170.072 194.035 170.392 193.755 170.648C193.411 170.952 192.971 171.112 192.435 171.112C191.843 171.112 191.363 170.912 191.011 170.528C190.643 170.128 190.467 169.6 190.467 168.928C190.467 168.32 190.635 167.808 190.987 167.4C191.339 166.968 191.811 166.752 192.411 166.752ZM192.427 167.288C192.059 167.288 191.763 167.408 191.539 167.648C191.315 167.888 191.187 168.208 191.147 168.616H193.731C193.651 167.728 193.211 167.288 192.427 167.288ZM196.96 166.752C197.184 166.752 197.376 166.784 197.528 166.848L197.528 167.488C197.32 167.424 197.112 167.4 196.912 167.4C196.592 167.4 196.32 167.536 196.104 167.824C195.88 168.096 195.776 168.424 195.776 168.808L195.776 171H195.144L195.144 166.864H195.776L195.776 167.584C195.888 167.344 196.032 167.152 196.208 167.016C196.424 166.84 196.672 166.752 196.96 166.752ZM199.866 166.752C200.458 166.752 200.89 166.904 201.178 167.216C201.418 167.488 201.546 167.864 201.546 168.344L201.546 171H200.946L200.946 170.304C200.786 170.528 200.57 170.712 200.314 170.856C200.01 171.024 199.666 171.112 199.282 171.112C198.866 171.112 198.538 171.008 198.29 170.8C198.034 170.584 197.906 170.304 197.906 169.968C197.906 169.496 198.09 169.144 198.474 168.904C198.81 168.68 199.29 168.56 199.914 168.552L200.906 168.536L200.906 168.32C200.906 167.624 200.546 167.28 199.826 167.28C199.522 167.28 199.274 167.336 199.082 167.464C198.866 167.592 198.73 167.792 198.666 168.056L198.034 168.008C198.122 167.576 198.338 167.248 198.674 167.04C198.978 166.848 199.37 166.752 199.866 166.752ZM200.906 169.016L199.954 169.032C199.026 169.048 198.562 169.352 198.562 169.952C198.562 170.144 198.634 170.296 198.794 170.424C198.954 170.544 199.162 170.608 199.418 170.608C199.81 170.608 200.154 170.48 200.458 170.224C200.754 169.976 200.906 169.688 200.906 169.368L200.906 169.016ZM204.319 166.752C204.831 166.752 205.239 166.872 205.551 167.112C205.871 167.36 206.063 167.736 206.135 168.24H205.503C205.447 167.92 205.319 167.68 205.119 167.52C204.911 167.36 204.647 167.288 204.319 167.288C203.919 167.288 203.599 167.44 203.367 167.744C203.143 168.04 203.031 168.44 203.031 168.944C203.031 169.448 203.135 169.848 203.359 170.136C203.575 170.424 203.895 170.576 204.311 170.576C205.015 170.576 205.423 170.216 205.519 169.504H206.159C206.063 170.032 205.863 170.44 205.543 170.712C205.231 170.976 204.823 171.112 204.311 171.112C203.687 171.112 203.207 170.904 202.863 170.488C202.535 170.096 202.375 169.584 202.375 168.952C202.375 168.32 202.535 167.808 202.863 167.408C203.215 166.968 203.703 166.752 204.319 166.752ZM208.014 165.528L208.014 166.864H209.038L209.038 167.4H208.014L208.014 170.032C208.014 170.184 208.038 170.296 208.102 170.36C208.158 170.424 208.262 170.464 208.406 170.464H208.934L208.934 171H208.31C207.974 171 207.726 170.912 207.582 170.736C207.446 170.576 207.382 170.344 207.382 170.032L207.382 167.4H206.55L206.55 166.864H207.382L207.382 165.792L208.014 165.528ZM210.282 165.304C210.418 165.304 210.53 165.344 210.626 165.44C210.722 165.52 210.77 165.632 210.77 165.776C210.77 165.912 210.722 166.024 210.626 166.12C210.53 166.208 210.418 166.256 210.282 166.256C210.146 166.256 210.034 166.208 209.938 166.12C209.842 166.024 209.802 165.912 209.802 165.776C209.802 165.632 209.842 165.52 209.938 165.44C210.034 165.344 210.146 165.304 210.282 165.304ZM209.962 166.864H210.602L210.602 171H209.962L209.962 166.864ZM213.649 166.752C214.265 166.752 214.761 166.96 215.129 167.392C215.481 167.8 215.657 168.312 215.657 168.936C215.657 169.552 215.481 170.064 215.137 170.464C214.761 170.896 214.265 171.112 213.649 171.112C213.025 171.112 212.537 170.896 212.169 170.464C211.817 170.064 211.641 169.552 211.641 168.936C211.641 168.312 211.817 167.8 212.169 167.392C212.537 166.96 213.025 166.752 213.649 166.752ZM213.649 167.288C213.209 167.288 212.865 167.456 212.625 167.792C212.401 168.096 212.297 168.472 212.297 168.936C212.297 169.392 212.401 169.768 212.625 170.072C212.865 170.408 213.209 170.576 213.649 170.576C214.081 170.576 214.425 170.408 214.681 170.072C214.897 169.768 215.009 169.384 215.009 168.936C215.009 168.472 214.897 168.096 214.681 167.792C214.425 167.456 214.081 167.288 213.649 167.288ZM218.424 166.752C219.448 166.752 219.968 167.32 219.968 168.456L219.968 171H219.328L219.328 168.504C219.328 167.696 218.96 167.296 218.24 167.296C217.952 167.296 217.704 167.4 217.496 167.608C217.272 167.832 217.152 168.128 217.128 168.504L217.128 171H216.488L216.488 166.864H217.128L217.128 167.472C217.272 167.24 217.456 167.064 217.68 166.944C217.904 166.816 218.152 166.752 218.424 166.752ZM223.701 165.288H224.349L224.349 170.432H227.653L227.653 171H223.701L223.701 165.288ZM230.172 166.752C230.788 166.752 231.284 166.96 231.652 167.392C232.004 167.8 232.18 168.312 232.18 168.936C232.18 169.552 232.004 170.064 231.66 170.464C231.284 170.896 230.788 171.112 230.172 171.112C229.548 171.112 229.06 170.896 228.692 170.464C228.34 170.064 228.164 169.552 228.164 168.936C228.164 168.312 228.34 167.8 228.692 167.392C229.06 166.96 229.548 166.752 230.172 166.752ZM230.172 167.288C229.732 167.288 229.388 167.456 229.148 167.792C228.924 168.096 228.82 168.472 228.82 168.936C228.82 169.392 228.924 169.768 229.148 170.072C229.388 170.408 229.732 170.576 230.172 170.576C230.604 170.576 230.948 170.408 231.204 170.072C231.42 169.768 231.532 169.384 231.532 168.936C231.532 168.472 231.42 168.096 231.204 167.792C230.948 167.456 230.604 167.288 230.172 167.288ZM234.716 166.752C235.34 166.752 235.804 167.024 236.108 167.576L236.108 166.864H236.748L236.748 170.712C236.748 172.032 236.116 172.696 234.86 172.696C234.3 172.696 233.868 172.584 233.58 172.36C233.284 172.136 233.1 171.8 233.028 171.352H233.668C233.716 171.632 233.836 171.84 234.02 171.968C234.204 172.104 234.484 172.176 234.86 172.176C235.692 172.176 236.108 171.712 236.108 170.8L236.108 170.072C235.804 170.624 235.34 170.904 234.716 170.904C234.14 170.904 233.684 170.704 233.348 170.312C233.012 169.928 232.852 169.44 232.852 168.84C232.852 168.232 233.012 167.744 233.348 167.36C233.684 166.952 234.14 166.752 234.716 166.752ZM234.812 167.28C234.396 167.28 234.076 167.424 233.844 167.728C233.62 168 233.508 168.376 233.508 168.84C233.508 169.272 233.604 169.632 233.804 169.904C234.028 170.208 234.356 170.368 234.804 170.368C235.22 170.368 235.54 170.224 235.78 169.936C236.004 169.656 236.116 169.288 236.116 168.84C236.116 168.376 236.004 168 235.78 167.728C235.54 167.424 235.22 167.28 234.812 167.28ZM238.266 165.304C238.402 165.304 238.514 165.344 238.61 165.44C238.706 165.52 238.754 165.632 238.754 165.776C238.754 165.912 238.706 166.024 238.61 166.12C238.514 166.208 238.402 166.256 238.266 166.256C238.13 166.256 238.018 166.208 237.922 166.12C237.826 166.024 237.786 165.912 237.786 165.776C237.786 165.632 237.826 165.52 237.922 165.44C238.018 165.344 238.13 165.304 238.266 165.304ZM237.946 166.864H238.586L238.586 171H237.946L237.946 166.864ZM241.569 166.752C242.081 166.752 242.489 166.872 242.801 167.112C243.121 167.36 243.313 167.736 243.385 168.24H242.753C242.697 167.92 242.569 167.68 242.369 167.52C242.161 167.36 241.897 167.288 241.569 167.288C241.169 167.288 240.849 167.44 240.617 167.744C240.393 168.04 240.281 168.44 240.281 168.944C240.281 169.448 240.385 169.848 240.609 170.136C240.825 170.424 241.145 170.576 241.561 170.576C242.265 170.576 242.673 170.216 242.769 169.504H243.409C243.313 170.032 243.113 170.44 242.793 170.712C242.481 170.976 242.073 171.112 241.561 171.112C240.937 171.112 240.457 170.904 240.113 170.488C239.785 170.096 239.625 169.584 239.625 168.952C239.625 168.32 239.785 167.808 240.113 167.408C240.465 166.968 240.953 166.752 241.569 166.752ZM244.72 170.048C244.896 170.048 245.048 170.12 245.16 170.272C245.264 170.416 245.32 170.6 245.32 170.832C245.32 171.184 245.216 171.496 245.008 171.768C244.8 172.024 244.52 172.2 244.176 172.288L244.176 171.896C244.384 171.824 244.56 171.704 244.688 171.544C244.8 171.376 244.864 171.2 244.864 171.008C244.824 171.024 244.768 171.04 244.688 171.04C244.552 171.04 244.44 170.992 244.344 170.896C244.248 170.8 244.2 170.68 244.2 170.544C244.2 170.392 244.248 170.272 244.352 170.184C244.44 170.088 244.56 170.048 244.72 170.048ZM181.624 177.288H182.272L182.272 183H181.624L181.624 177.288ZM185.33 178.752C186.354 178.752 186.874 179.32 186.874 180.456L186.874 183H186.234L186.234 180.504C186.234 179.696 185.866 179.296 185.146 179.296C184.858 179.296 184.61 179.4 184.402 179.608C184.178 179.832 184.058 180.128 184.034 180.504L184.034 183H183.394L183.394 178.864H184.034L184.034 179.472C184.178 179.24 184.362 179.064 184.586 178.944C184.81 178.816 185.058 178.752 185.33 178.752ZM188.967 177.528L188.967 178.864H189.991L189.991 179.4H188.967L188.967 182.032C188.967 182.184 188.991 182.296 189.055 182.36C189.111 182.424 189.215 182.464 189.359 182.464H189.887L189.887 183H189.263C188.927 183 188.679 182.912 188.535 182.736C188.399 182.576 188.335 182.344 188.335 182.032L188.335 179.4H187.503L187.503 178.864H188.335L188.335 177.792L188.967 177.528ZM192.411 178.752C193.075 178.752 193.579 178.976 193.915 179.424C194.219 179.824 194.379 180.392 194.395 181.112H191.131C191.163 181.576 191.283 181.936 191.507 182.192C191.731 182.448 192.043 182.576 192.435 182.576C192.771 182.576 193.051 182.488 193.259 182.32C193.435 182.176 193.571 181.96 193.675 181.672H194.315C194.219 182.072 194.035 182.392 193.755 182.648C193.411 182.952 192.971 183.112 192.435 183.112C191.843 183.112 191.363 182.912 191.011 182.528C190.643 182.128 190.467 181.6 190.467 180.928C190.467 180.32 190.635 179.808 190.987 179.4C191.339 178.968 191.811 178.752 192.411 178.752ZM192.427 179.288C192.059 179.288 191.763 179.408 191.539 179.648C191.315 179.888 191.187 180.208 191.147 180.616H193.731C193.651 179.728 193.211 179.288 192.427 179.288ZM196.96 178.752C197.184 178.752 197.376 178.784 197.528 178.848L197.528 179.488C197.32 179.424 197.112 179.4 196.912 179.4C196.592 179.4 196.32 179.536 196.104 179.824C195.88 180.096 195.776 180.424 195.776 180.808L195.776 183H195.144L195.144 178.864H195.776L195.776 179.584C195.888 179.344 196.032 179.152 196.208 179.016C196.424 178.84 196.672 178.752 196.96 178.752ZM199.722 177.288H200.514L200.514 177.84H199.802C199.626 177.84 199.49 177.88 199.41 177.976C199.33 178.064 199.29 178.208 199.29 178.408L199.29 178.864H200.458L200.458 179.4H199.29L199.29 183H198.65L198.65 179.4H197.61L197.61 178.864H198.65L198.65 178.392C198.65 178.04 198.738 177.776 198.914 177.584C199.098 177.384 199.37 177.288 199.722 177.288ZM202.851 178.752C203.443 178.752 203.875 178.904 204.163 179.216C204.403 179.488 204.531 179.864 204.531 180.344L204.531 183H203.931L203.931 182.304C203.771 182.528 203.555 182.712 203.299 182.856C202.995 183.024 202.651 183.112 202.267 183.112C201.851 183.112 201.523 183.008 201.275 182.8C201.019 182.584 200.891 182.304 200.891 181.968C200.891 181.496 201.075 181.144 201.459 180.904C201.795 180.68 202.275 180.56 202.899 180.552L203.891 180.536L203.891 180.32C203.891 179.624 203.531 179.28 202.811 179.28C202.507 179.28 202.259 179.336 202.067 179.464C201.851 179.592 201.715 179.792 201.651 180.056L201.019 180.008C201.107 179.576 201.323 179.248 201.659 179.04C201.963 178.848 202.355 178.752 202.851 178.752ZM203.891 181.016L202.939 181.032C202.011 181.048 201.547 181.352 201.547 181.952C201.547 182.144 201.619 182.296 201.779 182.424C201.939 182.544 202.147 182.608 202.403 182.608C202.795 182.608 203.139 182.48 203.443 182.224C203.739 181.976 203.891 181.688 203.891 181.368L203.891 181.016ZM207.303 178.752C207.815 178.752 208.223 178.872 208.535 179.112C208.855 179.36 209.047 179.736 209.119 180.24H208.487C208.431 179.92 208.303 179.68 208.103 179.52C207.895 179.36 207.631 179.288 207.303 179.288C206.903 179.288 206.583 179.44 206.351 179.744C206.127 180.04 206.015 180.44 206.015 180.944C206.015 181.448 206.119 181.848 206.343 182.136C206.559 182.424 206.879 182.576 207.295 182.576C207.999 182.576 208.407 182.216 208.503 181.504H209.143C209.047 182.032 208.847 182.44 208.527 182.712C208.215 182.976 207.807 183.112 207.295 183.112C206.671 183.112 206.191 182.904 205.847 182.488C205.519 182.096 205.359 181.584 205.359 180.952C205.359 180.32 205.519 179.808 205.847 179.408C206.199 178.968 206.687 178.752 207.303 178.752ZM211.598 178.752C212.262 178.752 212.766 178.976 213.102 179.424C213.406 179.824 213.566 180.392 213.582 181.112H210.318C210.35 181.576 210.47 181.936 210.694 182.192C210.918 182.448 211.23 182.576 211.622 182.576C211.958 182.576 212.238 182.488 212.446 182.32C212.622 182.176 212.758 181.96 212.862 181.672H213.502C213.406 182.072 213.222 182.392 212.942 182.648C212.598 182.952 212.158 183.112 211.622 183.112C211.03 183.112 210.55 182.912 210.198 182.528C209.83 182.128 209.654 181.6 209.654 180.928C209.654 180.32 209.822 179.808 210.174 179.4C210.526 178.968 210.998 178.752 211.598 178.752ZM211.614 179.288C211.246 179.288 210.95 179.408 210.726 179.648C210.502 179.888 210.374 180.208 210.334 180.616H212.918C212.838 179.728 212.398 179.288 211.614 179.288ZM217.076 177.288H219.124C220.028 177.288 220.708 177.544 221.172 178.072C221.596 178.552 221.812 179.248 221.812 180.144C221.812 181.024 221.58 181.72 221.124 182.216C220.644 182.736 219.956 183 219.06 183H217.076L217.076 177.288ZM217.732 177.856L217.732 182.432H218.948C219.692 182.432 220.252 182.232 220.628 181.84C220.98 181.456 221.164 180.888 221.164 180.144C221.164 179.376 220.996 178.808 220.668 178.44C220.316 178.048 219.772 177.856 219.02 177.856H217.732ZM224.348 178.752C225.012 178.752 225.516 178.976 225.852 179.424C226.156 179.824 226.316 180.392 226.332 181.112H223.068C223.1 181.576 223.22 181.936 223.444 182.192C223.668 182.448 223.98 182.576 224.372 182.576C224.708 182.576 224.988 182.488 225.196 182.32C225.372 182.176 225.508 181.96 225.612 181.672H226.252C226.156 182.072 225.972 182.392 225.692 182.648C225.348 182.952 224.908 183.112 224.372 183.112C223.78 183.112 223.3 182.912 222.948 182.528C222.58 182.128 222.404 181.6 222.404 180.928C222.404 180.32 222.572 179.808 222.924 179.4C223.276 178.968 223.748 178.752 224.348 178.752ZM224.364 179.288C223.996 179.288 223.7 179.408 223.476 179.648C223.252 179.888 223.124 180.208 223.084 180.616H225.668C225.588 179.728 225.148 179.288 224.364 179.288ZM228.546 178.752C229.57 178.752 230.13 179.176 230.242 180.04H229.618C229.562 179.784 229.458 179.592 229.298 179.48C229.122 179.352 228.866 179.288 228.538 179.288C228.25 179.288 228.026 179.336 227.866 179.448C227.69 179.552 227.602 179.696 227.602 179.88C227.602 180.056 227.714 180.208 227.954 180.328C228.106 180.4 228.394 180.488 228.81 180.6C229.306 180.72 229.658 180.848 229.874 180.984C230.202 181.192 230.37 181.472 230.37 181.832C230.37 182.68 229.786 183.112 228.618 183.112C227.53 183.112 226.938 182.632 226.842 181.68H227.466C227.514 182.008 227.634 182.24 227.81 182.384C227.986 182.512 228.25 182.576 228.602 182.576C229.338 182.576 229.714 182.336 229.714 181.872C229.714 181.64 229.578 181.464 229.322 181.336C229.186 181.272 228.89 181.184 228.442 181.072C227.954 180.952 227.61 180.832 227.418 180.704C227.098 180.512 226.946 180.248 226.946 179.896C226.946 179.544 227.098 179.272 227.41 179.064C227.698 178.856 228.082 178.752 228.546 178.752ZM231.649 177.304C231.785 177.304 231.897 177.344 231.993 177.44C232.089 177.52 232.137 177.632 232.137 177.776C232.137 177.912 232.089 178.024 231.993 178.12C231.897 178.208 231.785 178.256 231.649 178.256C231.513 178.256 231.401 178.208 231.305 178.12C231.209 178.024 231.169 177.912 231.169 177.776C231.169 177.632 231.209 177.52 231.305 177.44C231.401 177.344 231.513 177.304 231.649 177.304ZM231.329 178.864H231.969L231.969 183H231.329L231.329 178.864ZM234.872 178.752C235.496 178.752 235.96 179.024 236.264 179.576L236.264 178.864H236.904L236.904 182.712C236.904 184.032 236.272 184.696 235.016 184.696C234.456 184.696 234.024 184.584 233.736 184.36C233.44 184.136 233.256 183.8 233.184 183.352H233.824C233.872 183.632 233.992 183.84 234.176 183.968C234.36 184.104 234.64 184.176 235.016 184.176C235.848 184.176 236.264 183.712 236.264 182.8L236.264 182.072C235.96 182.624 235.496 182.904 234.872 182.904C234.296 182.904 233.84 182.704 233.504 182.312C233.168 181.928 233.008 181.44 233.008 180.84C233.008 180.232 233.168 179.744 233.504 179.36C233.84 178.952 234.296 178.752 234.872 178.752ZM234.968 179.28C234.552 179.28 234.232 179.424 234 179.728C233.776 180 233.664 180.376 233.664 180.84C233.664 181.272 233.76 181.632 233.96 181.904C234.184 182.208 234.512 182.368 234.96 182.368C235.376 182.368 235.696 182.224 235.936 181.936C236.16 181.656 236.272 181.288 236.272 180.84C236.272 180.376 236.16 180 235.936 179.728C235.696 179.424 235.376 179.28 234.968 179.28ZM239.83 178.752C240.854 178.752 241.374 179.32 241.374 180.456L241.374 183H240.734L240.734 180.504C240.734 179.696 240.366 179.296 239.646 179.296C239.358 179.296 239.11 179.4 238.902 179.608C238.678 179.832 238.558 180.128 238.534 180.504L238.534 183H237.894L237.894 178.864H238.534L238.534 179.472C238.678 179.24 238.862 179.064 239.086 178.944C239.31 178.816 239.558 178.752 239.83 178.752Z" fill="white" fill-opacity="0.75"/>
<path d="M114.04 271.176C114.672 271.176 115.208 271.344 115.64 271.68C116.072 272.016 116.328 272.472 116.408 273.04H115.776C115.696 272.624 115.488 272.304 115.168 272.08C114.856 271.864 114.48 271.76 114.032 271.76C113.368 271.76 112.856 271.992 112.496 272.456C112.16 272.888 111.992 273.456 111.992 274.168C111.992 274.88 112.152 275.448 112.488 275.864C112.84 276.304 113.344 276.528 114.016 276.528C114.472 276.528 114.856 276.408 115.176 276.168C115.512 275.912 115.744 275.536 115.856 275.04H116.488C116.36 275.704 116.064 276.224 115.592 276.592C115.152 276.936 114.624 277.112 114.016 277.112C113.128 277.112 112.448 276.816 111.976 276.232C111.544 275.704 111.336 275.016 111.336 274.168C111.336 273.32 111.552 272.624 111.992 272.08C112.472 271.472 113.16 271.176 114.04 271.176ZM119.164 272.752C119.78 272.752 120.276 272.96 120.644 273.392C120.996 273.8 121.172 274.312 121.172 274.936C121.172 275.552 120.996 276.064 120.652 276.464C120.276 276.896 119.78 277.112 119.164 277.112C118.54 277.112 118.052 276.896 117.684 276.464C117.332 276.064 117.156 275.552 117.156 274.936C117.156 274.312 117.332 273.8 117.684 273.392C118.052 272.96 118.54 272.752 119.164 272.752ZM119.164 273.288C118.724 273.288 118.38 273.456 118.14 273.792C117.916 274.096 117.812 274.472 117.812 274.936C117.812 275.392 117.916 275.768 118.14 276.072C118.38 276.408 118.724 276.576 119.164 276.576C119.596 276.576 119.94 276.408 120.196 276.072C120.412 275.768 120.524 275.384 120.524 274.936C120.524 274.472 120.412 274.096 120.196 273.792C119.94 273.456 119.596 273.288 119.164 273.288ZM122.132 271.176H122.764V277H122.132V271.176ZM124.015 271.176H124.647V277H124.015V271.176ZM127.569 272.752C128.161 272.752 128.593 272.904 128.881 273.216C129.121 273.488 129.249 273.864 129.249 274.344V277H128.649V276.304C128.489 276.528 128.273 276.712 128.017 276.856C127.713 277.024 127.369 277.112 126.985 277.112C126.569 277.112 126.241 277.008 125.993 276.8C125.737 276.584 125.609 276.304 125.609 275.968C125.609 275.496 125.793 275.144 126.177 274.904C126.513 274.68 126.993 274.56 127.617 274.552L128.609 274.536V274.32C128.609 273.624 128.249 273.28 127.529 273.28C127.225 273.28 126.977 273.336 126.785 273.464C126.569 273.592 126.433 273.792 126.369 274.056L125.737 274.008C125.825 273.576 126.041 273.248 126.377 273.04C126.681 272.848 127.073 272.752 127.569 272.752ZM128.609 275.016L127.657 275.032C126.729 275.048 126.265 275.352 126.265 275.952C126.265 276.144 126.337 276.296 126.497 276.424C126.657 276.544 126.865 276.608 127.121 276.608C127.513 276.608 127.857 276.48 128.161 276.224C128.457 275.976 128.609 275.688 128.609 275.368V275.016ZM130.238 271.176H130.878V273.624C131.198 273.04 131.654 272.752 132.246 272.752C132.83 272.752 133.294 272.968 133.63 273.416C133.934 273.816 134.094 274.312 134.094 274.92C134.094 275.544 133.934 276.056 133.63 276.456C133.286 276.888 132.814 277.112 132.214 277.112C131.574 277.112 131.118 276.848 130.838 276.32V277H130.238V271.176ZM132.11 273.28C131.734 273.28 131.43 273.424 131.206 273.728C130.966 274.024 130.854 274.416 130.854 274.896V274.976C130.854 275.44 130.958 275.816 131.166 276.104C131.39 276.424 131.718 276.584 132.134 276.584C132.582 276.584 132.918 276.416 133.142 276.096C133.334 275.808 133.438 275.416 133.438 274.92C133.438 274.424 133.334 274.04 133.126 273.76C132.894 273.44 132.558 273.28 132.11 273.28ZM136.774 272.752C137.39 272.752 137.886 272.96 138.254 273.392C138.606 273.8 138.782 274.312 138.782 274.936C138.782 275.552 138.606 276.064 138.262 276.464C137.886 276.896 137.39 277.112 136.774 277.112C136.15 277.112 135.662 276.896 135.294 276.464C134.942 276.064 134.766 275.552 134.766 274.936C134.766 274.312 134.942 273.8 135.294 273.392C135.662 272.96 136.15 272.752 136.774 272.752ZM136.774 273.288C136.334 273.288 135.99 273.456 135.75 273.792C135.526 274.096 135.422 274.472 135.422 274.936C135.422 275.392 135.526 275.768 135.75 276.072C135.99 276.408 136.334 276.576 136.774 276.576C137.206 276.576 137.55 276.408 137.806 276.072C138.022 275.768 138.134 275.384 138.134 274.936C138.134 274.472 138.022 274.096 137.806 273.792C137.55 273.456 137.206 273.288 136.774 273.288ZM141.429 272.752C141.653 272.752 141.845 272.784 141.997 272.848V273.488C141.789 273.424 141.581 273.4 141.381 273.4C141.061 273.4 140.789 273.536 140.573 273.824C140.349 274.096 140.245 274.424 140.245 274.808V277H139.613V272.864H140.245V273.584C140.357 273.344 140.501 273.152 140.677 273.016C140.893 272.84 141.141 272.752 141.429 272.752ZM144.335 272.752C144.927 272.752 145.359 272.904 145.647 273.216C145.887 273.488 146.015 273.864 146.015 274.344V277H145.415V276.304C145.255 276.528 145.039 276.712 144.783 276.856C144.479 277.024 144.135 277.112 143.751 277.112C143.335 277.112 143.007 277.008 142.759 276.8C142.503 276.584 142.375 276.304 142.375 275.968C142.375 275.496 142.559 275.144 142.943 274.904C143.279 274.68 143.759 274.56 144.383 274.552L145.375 274.536V274.32C145.375 273.624 145.015 273.28 144.295 273.28C143.991 273.28 143.743 273.336 143.551 273.464C143.335 273.592 143.199 273.792 143.135 274.056L142.503 274.008C142.591 273.576 142.807 273.248 143.143 273.04C143.447 272.848 143.839 272.752 144.335 272.752ZM145.375 275.016L144.423 275.032C143.495 275.048 143.031 275.352 143.031 275.952C143.031 276.144 143.103 276.296 143.263 276.424C143.423 276.544 143.631 276.608 143.887 276.608C144.279 276.608 144.623 276.48 144.927 276.224C145.223 275.976 145.375 275.688 145.375 275.368V275.016ZM148.108 271.528V272.864H149.132V273.4H148.108V276.032C148.108 276.184 148.132 276.296 148.196 276.36C148.252 276.424 148.356 276.464 148.5 276.464H149.028V277H148.404C148.068 277 147.82 276.912 147.676 276.736C147.54 276.576 147.476 276.344 147.476 276.032V273.4H146.644V272.864H147.476V271.792L148.108 271.528ZM150.376 271.304C150.512 271.304 150.624 271.344 150.72 271.44C150.816 271.52 150.864 271.632 150.864 271.776C150.864 271.912 150.816 272.024 150.72 272.12C150.624 272.208 150.512 272.256 150.376 272.256C150.24 272.256 150.128 272.208 150.032 272.12C149.936 272.024 149.896 271.912 149.896 271.776C149.896 271.632 149.936 271.52 150.032 271.44C150.128 271.344 150.24 271.304 150.376 271.304ZM150.056 272.864H150.696V277H150.056V272.864ZM151.438 272.864H152.142L153.326 276.2L154.51 272.864H155.214L153.646 277H152.998L151.438 272.864ZM157.458 272.752C158.122 272.752 158.626 272.976 158.962 273.424C159.266 273.824 159.426 274.392 159.442 275.112H156.178C156.21 275.576 156.33 275.936 156.554 276.192C156.778 276.448 157.09 276.576 157.482 276.576C157.818 276.576 158.098 276.488 158.306 276.32C158.482 276.176 158.618 275.96 158.722 275.672H159.362C159.266 276.072 159.082 276.392 158.802 276.648C158.458 276.952 158.018 277.112 157.482 277.112C156.89 277.112 156.41 276.912 156.058 276.528C155.69 276.128 155.514 275.6 155.514 274.928C155.514 274.32 155.682 273.808 156.034 273.4C156.386 272.968 156.858 272.752 157.458 272.752ZM157.474 273.288C157.106 273.288 156.81 273.408 156.586 273.648C156.362 273.888 156.234 274.208 156.194 274.616H158.778C158.698 273.728 158.258 273.288 157.474 273.288ZM111.576 283.288H113.624C114.528 283.288 115.208 283.544 115.672 284.072C116.096 284.552 116.312 285.248 116.312 286.144C116.312 287.024 116.08 287.72 115.624 288.216C115.144 288.736 114.456 289 113.56 289H111.576V283.288ZM112.232 283.856V288.432H113.448C114.192 288.432 114.752 288.232 115.128 287.84C115.48 287.456 115.664 286.888 115.664 286.144C115.664 285.376 115.496 284.808 115.168 284.44C114.816 284.048 114.272 283.856 113.52 283.856H112.232ZM118.848 284.752C119.512 284.752 120.016 284.976 120.352 285.424C120.656 285.824 120.816 286.392 120.832 287.112H117.568C117.6 287.576 117.72 287.936 117.944 288.192C118.168 288.448 118.48 288.576 118.872 288.576C119.208 288.576 119.488 288.488 119.696 288.32C119.872 288.176 120.008 287.96 120.112 287.672H120.752C120.656 288.072 120.472 288.392 120.192 288.648C119.848 288.952 119.408 289.112 118.872 289.112C118.28 289.112 117.8 288.912 117.448 288.528C117.08 288.128 116.904 287.6 116.904 286.928C116.904 286.32 117.072 285.808 117.424 285.4C117.776 284.968 118.248 284.752 118.848 284.752ZM118.864 285.288C118.496 285.288 118.2 285.408 117.976 285.648C117.752 285.888 117.624 286.208 117.584 286.616H120.168C120.088 285.728 119.648 285.288 118.864 285.288ZM121.126 284.864H121.83L123.014 288.2L124.198 284.864H124.902L123.334 289H122.686L121.126 284.864ZM127.145 284.752C127.809 284.752 128.313 284.976 128.649 285.424C128.953 285.824 129.113 286.392 129.129 287.112H125.865C125.897 287.576 126.017 287.936 126.241 288.192C126.465 288.448 126.777 288.576 127.169 288.576C127.505 288.576 127.785 288.488 127.993 288.32C128.169 288.176 128.305 287.96 128.409 287.672H129.049C128.953 288.072 128.769 288.392 128.489 288.648C128.145 288.952 127.705 289.112 127.169 289.112C126.577 289.112 126.097 288.912 125.745 288.528C125.377 288.128 125.201 287.6 125.201 286.928C125.201 286.32 125.369 285.808 125.721 285.4C126.073 284.968 126.545 284.752 127.145 284.752ZM127.161 285.288C126.793 285.288 126.497 285.408 126.273 285.648C126.049 285.888 125.921 286.208 125.881 286.616H128.465C128.385 285.728 127.945 285.288 127.161 285.288ZM130.007 283.176H130.639V289H130.007V283.176ZM133.61 284.752C134.226 284.752 134.722 284.96 135.09 285.392C135.442 285.8 135.618 286.312 135.618 286.936C135.618 287.552 135.442 288.064 135.098 288.464C134.722 288.896 134.226 289.112 133.61 289.112C132.986 289.112 132.498 288.896 132.13 288.464C131.778 288.064 131.602 287.552 131.602 286.936C131.602 286.312 131.778 285.8 132.13 285.392C132.498 284.96 132.986 284.752 133.61 284.752ZM133.61 285.288C133.17 285.288 132.826 285.456 132.586 285.792C132.362 286.096 132.258 286.472 132.258 286.936C132.258 287.392 132.362 287.768 132.586 288.072C132.826 288.408 133.17 288.576 133.61 288.576C134.042 288.576 134.386 288.408 134.642 288.072C134.858 287.768 134.97 287.384 134.97 286.936C134.97 286.472 134.858 286.096 134.642 285.792C134.386 285.456 134.042 285.288 133.61 285.288ZM138.425 284.752C139.017 284.752 139.489 284.968 139.833 285.416C140.145 285.816 140.305 286.32 140.305 286.944C140.305 287.552 140.145 288.056 139.841 288.456C139.505 288.888 139.049 289.112 138.457 289.112C137.865 289.112 137.409 288.824 137.089 288.248V290.584H136.449V284.864H137.049V285.544C137.345 285.016 137.801 284.752 138.425 284.752ZM138.345 285.28C137.929 285.28 137.601 285.44 137.377 285.768C137.169 286.056 137.065 286.44 137.065 286.904V286.984C137.065 287.464 137.177 287.848 137.417 288.144C137.641 288.432 137.937 288.584 138.321 288.584C138.769 288.584 139.105 288.424 139.337 288.12C139.545 287.832 139.649 287.44 139.649 286.944C139.649 286.456 139.545 286.064 139.353 285.776C139.121 285.44 138.785 285.28 138.345 285.28ZM142.945 284.752C143.577 284.752 144.009 285.008 144.241 285.536C144.401 285.264 144.593 285.064 144.817 284.944C145.017 284.816 145.257 284.752 145.545 284.752C145.977 284.752 146.321 284.888 146.593 285.16C146.849 285.44 146.985 285.816 146.985 286.288V289H146.345V286.392C146.345 286.024 146.265 285.752 146.113 285.576C145.953 285.384 145.697 285.296 145.345 285.296C145.073 285.296 144.841 285.392 144.665 285.6C144.473 285.808 144.385 286.072 144.385 286.408V289H143.745V286.392C143.745 285.656 143.425 285.296 142.793 285.296C142.497 285.296 142.257 285.408 142.065 285.648C141.873 285.872 141.777 286.152 141.777 286.48V289H141.137V284.864H141.777V285.416C142.089 284.968 142.481 284.752 142.945 284.752ZM149.684 284.752C150.348 284.752 150.852 284.976 151.188 285.424C151.492 285.824 151.652 286.392 151.668 287.112H148.404C148.436 287.576 148.556 287.936 148.78 288.192C149.004 288.448 149.316 288.576 149.708 288.576C150.044 288.576 150.324 288.488 150.532 288.32C150.708 288.176 150.844 287.96 150.948 287.672H151.588C151.492 288.072 151.308 288.392 151.028 288.648C150.684 288.952 150.244 289.112 149.708 289.112C149.116 289.112 148.636 288.912 148.284 288.528C147.916 288.128 147.74 287.6 147.74 286.928C147.74 286.32 147.908 285.808 148.26 285.4C148.612 284.968 149.084 284.752 149.684 284.752ZM149.7 285.288C149.332 285.288 149.036 285.408 148.812 285.648C148.588 285.888 148.46 286.208 148.42 286.616H151.004C150.924 285.728 150.484 285.288 149.7 285.288ZM154.354 284.752C155.378 284.752 155.898 285.32 155.898 286.456V289H155.258V286.504C155.258 285.696 154.89 285.296 154.17 285.296C153.882 285.296 153.634 285.4 153.426 285.608C153.202 285.832 153.082 286.128 153.058 286.504V289H152.418V284.864H153.058V285.472C153.202 285.24 153.386 285.064 153.61 284.944C153.834 284.816 154.082 284.752 154.354 284.752ZM157.991 283.528V284.864H159.015V285.4H157.991V288.032C157.991 288.184 158.015 288.296 158.079 288.36C158.135 288.424 158.239 288.464 158.383 288.464H158.911V289H158.287C157.951 289 157.703 288.912 157.559 288.736C157.423 288.576 157.359 288.344 157.359 288.032V285.4H156.527V284.864H157.359V283.792L157.991 283.528Z" fill="white" fill-opacity="0.75"/>
<path d="M43.248 164.288H44.008L46.256 170H45.544L44.936 168.4H42.312L41.704 170H41L43.248 164.288ZM42.52 167.848H44.728L43.648 164.992H43.616L42.52 167.848ZM46.8818 164.176H47.5138L47.5138 170H46.8818L46.8818 164.176ZM50.3406 165.752C50.9646 165.752 51.4286 166.024 51.7326 166.576L51.7326 165.864H52.3726L52.3726 169.712C52.3726 171.032 51.7406 171.696 50.4846 171.696C49.9246 171.696 49.4926 171.584 49.2046 171.36C48.9086 171.136 48.7246 170.8 48.6526 170.352H49.2926C49.3406 170.632 49.4606 170.84 49.6446 170.968C49.8286 171.104 50.1086 171.176 50.4846 171.176C51.3166 171.176 51.7326 170.712 51.7326 169.8L51.7326 169.072C51.4286 169.624 50.9646 169.904 50.3406 169.904C49.7646 169.904 49.3086 169.704 48.9726 169.312C48.6366 168.928 48.4766 168.44 48.4766 167.84C48.4766 167.232 48.6366 166.744 48.9726 166.36C49.3086 165.952 49.7646 165.752 50.3406 165.752ZM50.4366 166.28C50.0206 166.28 49.7006 166.424 49.4686 166.728C49.2446 167 49.1326 167.376 49.1326 167.84C49.1326 168.272 49.2286 168.632 49.4286 168.904C49.6526 169.208 49.9806 169.368 50.4286 169.368C50.8446 169.368 51.1646 169.224 51.4046 168.936C51.6286 168.656 51.7406 168.288 51.7406 167.84C51.7406 167.376 51.6286 167 51.4046 166.728C51.1646 166.424 50.8446 166.28 50.4366 166.28ZM55.2112 165.752C55.8272 165.752 56.3232 165.96 56.6912 166.392C57.0431 166.8 57.2191 167.312 57.2191 167.936C57.2191 168.552 57.0431 169.064 56.6991 169.464C56.3231 169.896 55.8271 170.112 55.2111 170.112C54.5871 170.112 54.0991 169.896 53.7311 169.464C53.3791 169.064 53.2032 168.552 53.2032 167.936C53.2032 167.312 53.3792 166.8 53.7312 166.392C54.0992 165.96 54.5872 165.752 55.2112 165.752ZM55.2112 166.288C54.7712 166.288 54.4272 166.456 54.1872 166.792C53.9632 167.096 53.8592 167.472 53.8592 167.936C53.8591 168.392 53.9631 168.768 54.1871 169.072C54.4271 169.408 54.7711 169.576 55.2111 169.576C55.6431 169.576 55.9871 169.408 56.2431 169.072C56.4591 168.768 56.5711 168.384 56.5711 167.936C56.5711 167.472 56.4591 167.096 56.2432 166.792C55.9872 166.456 55.6432 166.288 55.2112 166.288ZM59.8666 165.752C60.0906 165.752 60.2826 165.784 60.4346 165.848L60.4346 166.488C60.2266 166.424 60.0186 166.4 59.8186 166.4C59.4986 166.4 59.2266 166.536 59.0106 166.824C58.7866 167.096 58.6826 167.424 58.6826 167.808L58.6826 170H58.0506L58.0506 165.864H58.6826L58.6826 166.584C58.7946 166.344 58.9386 166.152 59.1146 166.016C59.3306 165.84 59.5786 165.752 59.8666 165.752ZM61.5005 164.304C61.6365 164.304 61.7485 164.344 61.8445 164.44C61.9405 164.52 61.9885 164.632 61.9885 164.776C61.9885 164.912 61.9405 165.024 61.8445 165.12C61.7485 165.208 61.6365 165.256 61.5005 165.256C61.3645 165.256 61.2525 165.208 61.1565 165.12C61.0605 165.024 61.0205 164.912 61.0205 164.776C61.0205 164.632 61.0605 164.52 61.1565 164.44C61.2525 164.344 61.3645 164.304 61.5005 164.304ZM61.1805 165.864H61.8205L61.8205 170H61.1805L61.1805 165.864ZM64.1234 164.528L64.1234 165.864H65.1474L65.1474 166.4H64.1234L64.1234 169.032C64.1234 169.184 64.1474 169.296 64.2114 169.36C64.2674 169.424 64.3714 169.464 64.5154 169.464H65.0434L65.0434 170H64.4194C64.0834 170 63.8354 169.912 63.6914 169.736C63.5554 169.576 63.4914 169.344 63.4914 169.032L63.4914 166.4H62.6594L62.6594 165.864H63.4914L63.4914 164.792L64.1234 164.528ZM65.8631 164.176H66.5031L66.5031 166.544C66.6471 166.28 66.8391 166.08 67.0791 165.944C67.3031 165.816 67.5511 165.752 67.8311 165.752C68.3111 165.752 68.6871 165.888 68.9431 166.176C69.1991 166.456 69.3271 166.864 69.3271 167.392L69.3271 170H68.6871L68.6871 167.488C68.6871 167.104 68.5911 166.808 68.4151 166.6C68.2231 166.392 67.9591 166.288 67.6151 166.288C67.2951 166.288 67.0311 166.416 66.8231 166.672C66.6071 166.928 66.5031 167.256 66.5031 167.64L66.5031 170H65.8631L65.8631 164.176ZM72.1164 165.752C72.7484 165.752 73.1804 166.008 73.4124 166.536C73.5724 166.264 73.7644 166.064 73.9884 165.944C74.1884 165.816 74.4284 165.752 74.7164 165.752C75.1484 165.752 75.4924 165.888 75.7644 166.16C76.0204 166.44 76.1564 166.816 76.1564 167.288L76.1564 170H75.5164L75.5164 167.392C75.5164 167.024 75.4364 166.752 75.2844 166.576C75.1244 166.384 74.8684 166.296 74.5164 166.296C74.2444 166.296 74.0124 166.392 73.8364 166.6C73.6444 166.808 73.5564 167.072 73.5564 167.408L73.5564 170H72.9164L72.9164 167.392C72.9164 166.656 72.5964 166.296 71.9644 166.296C71.6684 166.296 71.4284 166.408 71.2364 166.648C71.0444 166.872 70.9484 167.152 70.9484 167.48L70.9484 170H70.3084L70.3084 165.864H70.9484L70.9484 166.416C71.2604 165.968 71.6524 165.752 72.1164 165.752ZM77.6802 164.304C77.8162 164.304 77.9282 164.344 78.0242 164.44C78.1202 164.52 78.1682 164.632 78.1682 164.776C78.1682 164.912 78.1202 165.024 78.0242 165.12C77.9282 165.208 77.8162 165.256 77.6802 165.256C77.5442 165.256 77.4322 165.208 77.3362 165.12C77.2402 165.024 77.2002 164.912 77.2002 164.776C77.2002 164.632 77.2402 164.52 77.3362 164.44C77.4322 164.344 77.5442 164.304 77.6802 164.304ZM77.3602 165.864H78.0002L78.0002 170H77.3602L77.3602 165.864ZM80.9831 165.752C81.4951 165.752 81.9031 165.872 82.215 166.112C82.535 166.36 82.727 166.736 82.799 167.24H82.167C82.111 166.92 81.983 166.68 81.783 166.52C81.575 166.36 81.3111 166.288 80.9831 166.288C80.5831 166.288 80.2631 166.44 80.0311 166.744C79.8071 167.04 79.695 167.44 79.695 167.944C79.695 168.448 79.799 168.848 80.023 169.136C80.239 169.424 80.559 169.576 80.975 169.576C81.679 169.576 82.087 169.216 82.183 168.504H82.823C82.727 169.032 82.527 169.44 82.207 169.712C81.895 169.976 81.487 170.112 80.975 170.112C80.351 170.112 79.871 169.904 79.527 169.488C79.199 169.096 79.039 168.584 79.039 167.952C79.0391 167.32 79.1991 166.808 79.5271 166.408C79.8791 165.968 80.3671 165.752 80.9831 165.752ZM41.576 176.288H45.4L45.4 176.856H42.232L42.232 178.776H45.2319L45.2319 179.344H42.232L42.2319 182H41.5759L41.576 176.288ZM47.9291 177.752C48.1531 177.752 48.3451 177.784 48.4971 177.848L48.4971 178.488C48.2891 178.424 48.0811 178.4 47.8811 178.4C47.5611 178.4 47.2891 178.536 47.0731 178.824C46.8491 179.096 46.7451 179.424 46.7451 179.808L46.7451 182H46.1131L46.1131 177.864H46.7451L46.7451 178.584C46.8571 178.344 47.0011 178.152 47.1771 178.016C47.3931 177.84 47.6411 177.752 47.9291 177.752ZM50.835 177.752C51.427 177.752 51.859 177.904 52.147 178.216C52.387 178.488 52.515 178.864 52.515 179.344L52.515 182H51.915L51.915 181.304C51.755 181.528 51.539 181.712 51.283 181.856C50.979 182.024 50.635 182.112 50.251 182.112C49.835 182.112 49.507 182.008 49.259 181.8C49.003 181.584 48.875 181.304 48.875 180.968C48.875 180.496 49.059 180.144 49.443 179.904C49.779 179.68 50.259 179.56 50.883 179.552L51.875 179.536L51.875 179.32C51.875 178.624 51.515 178.28 50.795 178.28C50.491 178.28 50.243 178.336 50.051 178.464C49.835 178.592 49.699 178.792 49.635 179.056L49.003 179.008C49.091 178.576 49.307 178.248 49.643 178.04C49.947 177.848 50.339 177.752 50.835 177.752ZM51.875 180.016L50.923 180.032C49.995 180.048 49.531 180.352 49.531 180.952C49.531 181.144 49.603 181.296 49.763 181.424C49.923 181.544 50.131 181.608 50.387 181.608C50.779 181.608 51.123 181.48 51.427 181.224C51.723 180.976 51.875 180.688 51.875 180.368L51.875 180.016ZM55.3117 177.752C55.9437 177.752 56.3757 178.008 56.6077 178.536C56.7677 178.264 56.9597 178.064 57.1837 177.944C57.3837 177.816 57.6237 177.752 57.9117 177.752C58.3437 177.752 58.6877 177.888 58.9597 178.16C59.2157 178.44 59.3517 178.816 59.3517 179.288L59.3517 182H58.7117L58.7117 179.392C58.7117 179.024 58.6317 178.752 58.4797 178.576C58.3197 178.384 58.0637 178.296 57.7117 178.296C57.4397 178.296 57.2077 178.392 57.0317 178.6C56.8397 178.808 56.7517 179.072 56.7517 179.408L56.7517 182H56.1117L56.1117 179.392C56.1117 178.656 55.7917 178.296 55.1597 178.296C54.8637 178.296 54.6237 178.408 54.4317 178.648C54.2397 178.872 54.1437 179.152 54.1437 179.48L54.1437 182H53.5037L53.5038 177.864H54.1438L54.1437 178.416C54.4557 177.968 54.8477 177.752 55.3117 177.752ZM62.0515 177.752C62.7155 177.752 63.2195 177.976 63.5555 178.424C63.8595 178.824 64.0195 179.392 64.0355 180.112H60.7715C60.8035 180.576 60.9235 180.936 61.1475 181.192C61.3715 181.448 61.6835 181.576 62.0755 181.576C62.4115 181.576 62.6915 181.488 62.8995 181.32C63.0755 181.176 63.2115 180.96 63.3155 180.672H63.9555C63.8595 181.072 63.6755 181.392 63.3955 181.648C63.0515 181.952 62.6115 182.112 62.0755 182.112C61.4835 182.112 61.0035 181.912 60.6515 181.528C60.2835 181.128 60.1075 180.6 60.1075 179.928C60.1075 179.32 60.2755 178.808 60.6275 178.4C60.9795 177.968 61.4515 177.752 62.0515 177.752ZM62.0675 178.288C61.6995 178.288 61.4035 178.408 61.1795 178.648C60.9555 178.888 60.8275 179.208 60.7875 179.616H63.3715C63.2915 178.728 62.8515 178.288 62.0675 178.288ZM64.329 177.864H65.033L66.049 181.216L67.009 177.864H67.609L68.569 181.216L69.585 177.864H70.289L68.881 182H68.273L67.313 178.672L66.337 182H65.737L64.329 177.864ZM72.672 177.752C73.288 177.752 73.784 177.96 74.152 178.392C74.504 178.8 74.68 179.312 74.68 179.936C74.68 180.552 74.504 181.064 74.16 181.464C73.784 181.896 73.288 182.112 72.672 182.112C72.048 182.112 71.56 181.896 71.192 181.464C70.84 181.064 70.664 180.552 70.664 179.936C70.664 179.312 70.84 178.8 71.192 178.392C71.56 177.96 72.048 177.752 72.672 177.752ZM72.672 178.288C72.232 178.288 71.888 178.456 71.648 178.792C71.424 179.096 71.32 179.472 71.32 179.936C71.32 180.392 71.424 180.768 71.648 181.072C71.888 181.408 72.232 181.576 72.672 181.576C73.104 181.576 73.448 181.408 73.704 181.072C73.92 180.768 74.032 180.384 74.032 179.936C74.032 179.472 73.92 179.096 73.704 178.792C73.448 178.456 73.104 178.288 72.672 178.288ZM77.3275 177.752C77.5515 177.752 77.7435 177.784 77.8955 177.848L77.8955 178.488C77.6875 178.424 77.4795 178.4 77.2795 178.4C76.9595 178.4 76.6875 178.536 76.4715 178.824C76.2475 179.096 76.1435 179.424 76.1435 179.808L76.1435 182H75.5115L75.5115 177.864H76.1435L76.1435 178.584C76.2555 178.344 76.3995 178.152 76.5755 178.016C76.7915 177.84 77.0395 177.752 77.3275 177.752ZM78.4334 176.176H79.0734L79.0734 179.784L81.1454 177.864H81.9934L80.1694 179.528L82.1694 182H81.3454L79.7294 179.944L79.0734 180.536L79.0734 182H78.4334L78.4334 176.176ZM83.2278 181.048C83.4038 181.048 83.5558 181.12 83.6678 181.272C83.7718 181.416 83.8278 181.6 83.8278 181.832C83.8278 182.184 83.7238 182.496 83.5158 182.768C83.3078 183.024 83.0278 183.2 82.6838 183.288L82.6838 182.896C82.8918 182.824 83.0678 182.704 83.1958 182.544C83.3078 182.376 83.3718 182.2 83.3718 182.008C83.3318 182.024 83.2758 182.04 83.1958 182.04C83.0598 182.04 82.9478 181.992 82.8518 181.896C82.7558 181.8 82.7078 181.68 82.7078 181.544C82.7078 181.392 82.7558 181.272 82.8598 181.184C82.9478 181.088 83.0678 181.048 83.2278 181.048ZM41.0399 188.288H41.7599L43.5439 193.288H43.5679L45.3519 188.288H46.0719L43.9599 194H43.1519L41.0399 188.288ZM48.4053 189.752C48.9973 189.752 49.4293 189.904 49.7173 190.216C49.9573 190.488 50.0853 190.864 50.0853 191.344L50.0853 194H49.4853L49.4853 193.304C49.3253 193.528 49.1093 193.712 48.8533 193.856C48.5493 194.024 48.2053 194.112 47.8213 194.112C47.4053 194.112 47.0773 194.008 46.8293 193.8C46.5733 193.584 46.4453 193.304 46.4453 192.968C46.4453 192.496 46.6293 192.144 47.0133 191.904C47.3493 191.68 47.8293 191.56 48.4533 191.552L49.4453 191.536L49.4453 191.32C49.4453 190.624 49.0853 190.28 48.3653 190.28C48.0613 190.28 47.8133 190.336 47.6213 190.464C47.4053 190.592 47.2693 190.792 47.2053 191.056L46.5733 191.008C46.6613 190.576 46.8773 190.248 47.2133 190.04C47.5173 189.848 47.9093 189.752 48.4053 189.752ZM49.4453 192.016L48.4933 192.032C47.5653 192.048 47.1013 192.352 47.1013 192.952C47.1013 193.144 47.1733 193.296 47.3333 193.424C47.4933 193.544 47.7013 193.608 47.9573 193.608C48.3493 193.608 48.6933 193.48 48.9973 193.224C49.2933 192.976 49.4453 192.688 49.4453 192.368L49.4453 192.016ZM52.89 189.752C53.114 189.752 53.306 189.784 53.458 189.848L53.458 190.488C53.25 190.424 53.042 190.4 52.842 190.4C52.522 190.4 52.25 190.536 52.034 190.824C51.81 191.096 51.706 191.424 51.706 191.808L51.706 194H51.074L51.074 189.864H51.706L51.706 190.584C51.818 190.344 51.962 190.152 52.138 190.016C52.354 189.84 52.602 189.752 52.89 189.752ZM54.5239 188.304C54.6599 188.304 54.7719 188.344 54.8679 188.44C54.9639 188.52 55.0119 188.632 55.0119 188.776C55.0119 188.912 54.9639 189.024 54.8679 189.12C54.7719 189.208 54.6599 189.256 54.5239 189.256C54.3879 189.256 54.2759 189.208 54.1799 189.12C54.0839 189.024 54.0439 188.912 54.0439 188.776C54.0439 188.632 54.0839 188.52 54.1799 188.44C54.2759 188.344 54.3879 188.304 54.5239 188.304ZM54.2039 189.864H54.8439L54.8439 194H54.2039L54.2039 189.864ZM57.8428 189.752C58.4348 189.752 58.8668 189.904 59.1548 190.216C59.3948 190.488 59.5228 190.864 59.5228 191.344L59.5228 194H58.9228L58.9228 193.304C58.7628 193.528 58.5468 193.712 58.2908 193.856C57.9868 194.024 57.6428 194.112 57.2588 194.112C56.8428 194.112 56.5148 194.008 56.2668 193.8C56.0108 193.584 55.8828 193.304 55.8828 192.968C55.8828 192.496 56.0668 192.144 56.4508 191.904C56.7868 191.68 57.2668 191.56 57.8908 191.552L58.8828 191.536L58.8828 191.32C58.8828 190.624 58.5228 190.28 57.8028 190.28C57.4988 190.28 57.2508 190.336 57.0588 190.464C56.8428 190.592 56.7068 190.792 56.6428 191.056L56.0108 191.008C56.0988 190.576 56.3148 190.248 56.6508 190.04C56.9548 189.848 57.3468 189.752 57.8428 189.752ZM58.8828 192.016L57.9308 192.032C57.0028 192.048 56.5388 192.352 56.5388 192.952C56.5388 193.144 56.6108 193.296 56.7708 193.424C56.9308 193.544 57.1388 193.608 57.3948 193.608C57.7868 193.608 58.1308 193.48 58.4348 193.224C58.7308 192.976 58.8828 192.688 58.8828 192.368L58.8828 192.016ZM60.5115 188.176H61.1515L61.1515 190.624C61.4715 190.04 61.9275 189.752 62.5195 189.752C63.1035 189.752 63.5675 189.968 63.9035 190.416C64.2075 190.816 64.3675 191.312 64.3675 191.92C64.3675 192.544 64.2075 193.056 63.9035 193.456C63.5595 193.888 63.0875 194.112 62.4875 194.112C61.8475 194.112 61.3915 193.848 61.1115 193.32L61.1115 194H60.5115L60.5115 188.176ZM62.3835 190.28C62.0075 190.28 61.7035 190.424 61.4795 190.728C61.2395 191.024 61.1275 191.416 61.1275 191.896L61.1275 191.976C61.1275 192.44 61.2315 192.816 61.4395 193.104C61.6635 193.424 61.9915 193.584 62.4075 193.584C62.8555 193.584 63.1915 193.416 63.4155 193.096C63.6075 192.808 63.7115 192.416 63.7115 191.92C63.7115 191.424 63.6075 191.04 63.3995 190.76C63.1675 190.44 62.8315 190.28 62.3835 190.28ZM65.327 188.176H65.959L65.959 194H65.327L65.327 188.176ZM68.7858 189.752C69.4498 189.752 69.9538 189.976 70.2898 190.424C70.5938 190.824 70.7538 191.392 70.7698 192.112H67.5058C67.5378 192.576 67.6578 192.936 67.8818 193.192C68.1058 193.448 68.4178 193.576 68.8098 193.576C69.1458 193.576 69.4258 193.488 69.6338 193.32C69.8098 193.176 69.9458 192.96 70.0498 192.672H70.6898C70.5938 193.072 70.4098 193.392 70.1298 193.648C69.7858 193.952 69.3458 194.112 68.8098 194.112C68.2178 194.112 67.7378 193.912 67.3858 193.528C67.0178 193.128 66.8418 192.6 66.8418 191.928C66.8418 191.32 67.0098 190.808 67.3618 190.4C67.7138 189.968 68.1858 189.752 68.7858 189.752ZM68.8018 190.288C68.4338 190.288 68.1378 190.408 67.9138 190.648C67.6898 190.888 67.5618 191.208 67.5218 191.616H70.1058C70.0258 190.728 69.5858 190.288 68.8018 190.288ZM41.6239 200.288H42.2719L42.2719 206H41.6239L41.6239 200.288ZM45.3303 201.752C46.3543 201.752 46.8743 202.32 46.8743 203.456L46.8743 206H46.2343L46.2343 203.504C46.2343 202.696 45.8663 202.296 45.1463 202.296C44.8583 202.296 44.6103 202.4 44.4023 202.608C44.1783 202.832 44.0583 203.128 44.0343 203.504L44.0343 206H43.3943L43.3943 201.864H44.0343L44.0343 202.472C44.1783 202.24 44.3623 202.064 44.5863 201.944C44.8103 201.816 45.0583 201.752 45.3303 201.752ZM50.9191 200.176H51.5591L51.5591 206H50.9591L50.9591 205.32C50.6711 205.848 50.2071 206.112 49.5831 206.112C48.9751 206.112 48.5031 205.888 48.1671 205.456C47.8551 205.056 47.7031 204.544 47.7031 203.92C47.7031 203.312 47.8551 202.816 48.1671 202.416C48.5031 201.968 48.9591 201.752 49.5511 201.752C50.1431 201.752 50.5991 202.04 50.9191 202.624L50.9191 200.176ZM49.6871 202.28C49.2311 202.28 48.8871 202.44 48.6631 202.76C48.4551 203.04 48.3591 203.424 48.3591 203.92C48.3591 204.416 48.4551 204.808 48.6551 205.096C48.8791 205.416 49.2151 205.584 49.6631 205.584C50.0791 205.584 50.3991 205.424 50.6311 205.104C50.8311 204.816 50.9351 204.44 50.9351 203.976L50.9351 203.896C50.9351 203.416 50.8151 203.024 50.5911 202.728C50.3591 202.424 50.0551 202.28 49.6871 202.28ZM52.5506 201.864H53.1906L53.1906 204.392C53.1906 204.784 53.2706 205.08 53.4386 205.272C53.6066 205.464 53.8786 205.568 54.2546 205.568C54.5266 205.568 54.7746 205.456 54.9906 205.248C55.2146 205.024 55.3506 204.736 55.3986 204.384L55.3986 201.864H56.0386L56.0385 206H55.3986L55.3986 205.36C55.0626 205.856 54.6146 206.112 54.0546 206.112C53.0466 206.112 52.5506 205.544 52.5506 204.424L52.5506 201.864ZM58.8111 201.752C59.3231 201.752 59.7311 201.872 60.0431 202.112C60.3631 202.36 60.5551 202.736 60.6271 203.24H59.9951C59.9391 202.92 59.8111 202.68 59.6111 202.52C59.4031 202.36 59.1391 202.288 58.8111 202.288C58.4111 202.288 58.0911 202.44 57.8591 202.744C57.6351 203.04 57.5231 203.44 57.5231 203.944C57.5231 204.448 57.6271 204.848 57.8511 205.136C58.0671 205.424 58.3871 205.576 58.8031 205.576C59.5071 205.576 59.9151 205.216 60.0111 204.504H60.6511C60.5551 205.032 60.3551 205.44 60.0351 205.712C59.7231 205.976 59.3151 206.112 58.8031 206.112C58.1791 206.112 57.6991 205.904 57.3551 205.488C57.0271 205.096 56.8671 204.584 56.8671 203.952C56.8671 203.32 57.0271 202.808 57.3551 202.408C57.7071 201.968 58.1951 201.752 58.8111 201.752ZM62.5061 200.528L62.5061 201.864H63.5301L63.5301 202.4H62.5061L62.5061 205.032C62.5061 205.184 62.5301 205.296 62.5941 205.36C62.6501 205.424 62.7541 205.464 62.8981 205.464H63.4261L63.4261 206H62.8021C62.4661 206 62.2181 205.912 62.0741 205.736C61.9381 205.576 61.8741 205.344 61.8741 205.032L61.8741 202.4H61.0421L61.0421 201.864H61.8741L61.8741 200.792L62.5061 200.528ZM64.7739 200.304C64.9099 200.304 65.0219 200.344 65.1179 200.44C65.2139 200.52 65.2619 200.632 65.2619 200.776C65.2619 200.912 65.2139 201.024 65.1179 201.12C65.0219 201.208 64.9099 201.256 64.7739 201.256C64.6379 201.256 64.5259 201.208 64.4299 201.12C64.3339 201.024 64.2939 200.912 64.2939 200.776C64.2939 200.632 64.3339 200.52 64.4299 200.44C64.5259 200.344 64.6379 200.304 64.7739 200.304ZM64.4539 201.864H65.0939L65.0938 206H64.4538L64.4539 201.864ZM68.1407 201.752C68.7567 201.752 69.2527 201.96 69.6207 202.392C69.9727 202.8 70.1487 203.312 70.1487 203.936C70.1487 204.552 69.9727 205.064 69.6287 205.464C69.2527 205.896 68.7567 206.112 68.1407 206.112C67.5167 206.112 67.0287 205.896 66.6607 205.464C66.3087 205.064 66.1327 204.552 66.1327 203.936C66.1327 203.312 66.3087 202.8 66.6607 202.392C67.0287 201.96 67.5167 201.752 68.1407 201.752ZM68.1407 202.288C67.7007 202.288 67.3567 202.456 67.1167 202.792C66.8927 203.096 66.7887 203.472 66.7887 203.936C66.7887 204.392 66.8927 204.768 67.1167 205.072C67.3567 205.408 67.7007 205.576 68.1407 205.576C68.5727 205.576 68.9167 205.408 69.1727 205.072C69.3887 204.768 69.5007 204.384 69.5007 203.936C69.5007 203.472 69.3887 203.096 69.1727 202.792C68.9167 202.456 68.5727 202.288 68.1407 202.288ZM72.9162 201.752C73.9402 201.752 74.4602 202.32 74.4602 203.456L74.4602 206H73.8202L73.8202 203.504C73.8202 202.696 73.4522 202.296 72.7322 202.296C72.4442 202.296 72.1962 202.4 71.9882 202.608C71.7642 202.832 71.6442 203.128 71.6202 203.504L71.6202 206H70.9802L70.9802 201.864H71.6202L71.6202 202.472C71.7642 202.24 71.9482 202.064 72.1722 201.944C72.3962 201.816 72.6442 201.752 72.9162 201.752Z" fill="white" fill-opacity="0.75"/>
<path d="M95.576 209.288H97.624C98.528 209.288 99.208 209.544 99.672 210.072C100.096 210.552 100.312 211.248 100.312 212.144C100.312 213.024 100.08 213.72 99.624 214.216C99.144 214.736 98.456 215 97.56 215H95.576L95.576 209.288ZM96.232 209.856L96.232 214.432H97.448C98.192 214.432 98.752 214.232 99.128 213.84C99.48 213.456 99.664 212.888 99.664 212.144C99.664 211.376 99.496 210.808 99.168 210.44C98.816 210.048 98.272 209.856 97.52 209.856H96.232ZM102.944 210.752C103.536 210.752 103.968 210.904 104.256 211.216C104.496 211.488 104.624 211.864 104.624 212.344L104.624 215H104.024L104.024 214.304C103.864 214.528 103.648 214.712 103.392 214.856C103.088 215.024 102.744 215.112 102.36 215.112C101.944 215.112 101.616 215.008 101.368 214.8C101.112 214.584 100.984 214.304 100.984 213.968C100.984 213.496 101.168 213.144 101.552 212.904C101.888 212.68 102.368 212.56 102.992 212.552L103.984 212.536L103.984 212.32C103.984 211.624 103.624 211.28 102.904 211.28C102.6 211.28 102.352 211.336 102.16 211.464C101.944 211.592 101.808 211.792 101.744 212.056L101.112 212.008C101.2 211.576 101.416 211.248 101.752 211.04C102.056 210.848 102.448 210.752 102.944 210.752ZM103.984 213.016L103.032 213.032C102.104 213.048 101.64 213.352 101.64 213.952C101.64 214.144 101.712 214.296 101.872 214.424C102.032 214.544 102.24 214.608 102.496 214.608C102.888 214.608 103.232 214.48 103.536 214.224C103.832 213.976 103.984 213.688 103.984 213.368L103.984 213.016ZM106.717 209.528L106.717 210.864H107.741L107.741 211.4H106.717L106.717 214.032C106.717 214.184 106.741 214.296 106.805 214.36C106.861 214.424 106.965 214.464 107.109 214.464H107.637L107.637 215H107.013C106.677 215 106.429 214.912 106.285 214.736C106.149 214.576 106.085 214.344 106.085 214.032L106.085 211.4H105.253L105.253 210.864H106.085L106.085 209.792L106.717 209.528ZM110.257 210.752C110.849 210.752 111.281 210.904 111.569 211.216C111.809 211.488 111.937 211.864 111.937 212.344L111.937 215H111.337L111.337 214.304C111.177 214.528 110.961 214.712 110.705 214.856C110.401 215.024 110.057 215.112 109.673 215.112C109.257 215.112 108.929 215.008 108.681 214.8C108.425 214.584 108.297 214.304 108.297 213.968C108.297 213.496 108.481 213.144 108.865 212.904C109.201 212.68 109.681 212.56 110.305 212.552L111.297 212.536L111.297 212.32C111.297 211.624 110.937 211.28 110.217 211.28C109.913 211.28 109.665 211.336 109.473 211.464C109.257 211.592 109.121 211.792 109.057 212.056L108.425 212.008C108.513 211.576 108.729 211.248 109.065 211.04C109.369 210.848 109.761 210.752 110.257 210.752ZM111.297 213.016L110.345 213.032C109.417 213.048 108.953 213.352 108.953 213.952C108.953 214.144 109.025 214.296 109.185 214.424C109.345 214.544 109.553 214.608 109.809 214.608C110.201 214.608 110.545 214.48 110.849 214.224C111.145 213.976 111.297 213.688 111.297 213.368L111.297 213.016ZM117.406 210.752C117.63 210.752 117.822 210.784 117.974 210.848L117.974 211.488C117.766 211.424 117.558 211.4 117.358 211.4C117.038 211.4 116.766 211.536 116.55 211.824C116.326 212.096 116.222 212.424 116.222 212.808L116.222 215H115.59L115.59 210.864H116.222L116.222 211.584C116.334 211.344 116.478 211.152 116.654 211.016C116.87 210.84 117.118 210.752 117.406 210.752ZM120.216 210.752C120.88 210.752 121.384 210.976 121.72 211.424C122.024 211.824 122.184 212.392 122.2 213.112H118.936C118.968 213.576 119.088 213.936 119.312 214.192C119.536 214.448 119.848 214.576 120.24 214.576C120.576 214.576 120.856 214.488 121.064 214.32C121.24 214.176 121.376 213.96 121.48 213.672H122.12C122.024 214.072 121.84 214.392 121.56 214.648C121.216 214.952 120.776 215.112 120.24 215.112C119.648 215.112 119.168 214.912 118.816 214.528C118.448 214.128 118.272 213.6 118.272 212.928C118.272 212.32 118.44 211.808 118.792 211.4C119.144 210.968 119.616 210.752 120.216 210.752ZM120.232 211.288C119.864 211.288 119.568 211.408 119.344 211.648C119.12 211.888 118.992 212.208 118.952 212.616H121.536C121.456 211.728 121.016 211.288 120.232 211.288ZM124.669 210.752C125.285 210.752 125.741 211.016 126.045 211.544L126.045 210.864H126.645L126.645 216.584H126.005L126.005 214.248C125.685 214.824 125.229 215.112 124.637 215.112C124.045 215.112 123.581 214.888 123.245 214.456C122.941 214.056 122.789 213.552 122.789 212.944C122.789 212.32 122.941 211.816 123.253 211.416C123.589 210.968 124.061 210.752 124.669 210.752ZM124.749 211.28C124.301 211.28 123.965 211.44 123.741 211.776C123.541 212.064 123.445 212.456 123.445 212.944C123.445 213.44 123.549 213.832 123.757 214.12C123.981 214.424 124.325 214.584 124.773 214.584C125.141 214.584 125.445 214.432 125.677 214.144C125.901 213.848 126.021 213.464 126.021 212.984L126.021 212.904C126.021 212.44 125.917 212.056 125.717 211.768C125.485 211.44 125.165 211.28 124.749 211.28ZM127.637 210.864H128.277L128.277 213.392C128.277 213.784 128.357 214.08 128.525 214.272C128.693 214.464 128.965 214.568 129.341 214.568C129.613 214.568 129.861 214.456 130.077 214.248C130.301 214.024 130.437 213.736 130.485 213.384L130.485 210.864H131.125L131.125 215H130.485L130.485 214.36C130.149 214.856 129.701 215.112 129.141 215.112C128.133 215.112 127.637 214.544 127.637 213.424L127.637 210.864ZM132.641 209.304C132.777 209.304 132.889 209.344 132.985 209.44C133.081 209.52 133.129 209.632 133.129 209.776C133.129 209.912 133.081 210.024 132.985 210.12C132.889 210.208 132.777 210.256 132.641 210.256C132.505 210.256 132.393 210.208 132.297 210.12C132.201 210.024 132.161 209.912 132.161 209.776C132.161 209.632 132.201 209.52 132.297 209.44C132.393 209.344 132.505 209.304 132.641 209.304ZM132.321 210.864H132.961L132.961 215H132.321L132.321 210.864ZM135.976 210.752C136.2 210.752 136.392 210.784 136.544 210.848L136.544 211.488C136.336 211.424 136.128 211.4 135.928 211.4C135.608 211.4 135.336 211.536 135.12 211.824C134.896 212.096 134.792 212.424 134.792 212.808L134.792 215H134.16L134.16 210.864H134.792L134.792 211.584C134.904 211.344 135.048 211.152 135.224 211.016C135.44 210.84 135.688 210.752 135.976 210.752ZM138.786 210.752C139.45 210.752 139.954 210.976 140.29 211.424C140.594 211.824 140.754 212.392 140.77 213.112H137.506C137.538 213.576 137.658 213.936 137.882 214.192C138.106 214.448 138.418 214.576 138.81 214.576C139.146 214.576 139.426 214.488 139.634 214.32C139.81 214.176 139.946 213.96 140.05 213.672H140.69C140.594 214.072 140.41 214.392 140.13 214.648C139.786 214.952 139.346 215.112 138.81 215.112C138.218 215.112 137.738 214.912 137.386 214.528C137.018 214.128 136.842 213.6 136.842 212.928C136.842 212.32 137.01 211.808 137.362 211.4C137.714 210.968 138.186 210.752 138.786 210.752ZM138.802 211.288C138.434 211.288 138.138 211.408 137.914 211.648C137.69 211.888 137.562 212.208 137.522 212.616H140.106C140.026 211.728 139.586 211.288 138.802 211.288ZM143.327 210.752C143.959 210.752 144.391 211.008 144.623 211.536C144.783 211.264 144.975 211.064 145.199 210.944C145.399 210.816 145.639 210.752 145.927 210.752C146.359 210.752 146.703 210.888 146.975 211.16C147.231 211.44 147.367 211.816 147.367 212.288L147.367 215H146.727L146.727 212.392C146.727 212.024 146.647 211.752 146.495 211.576C146.335 211.384 146.079 211.296 145.727 211.296C145.455 211.296 145.223 211.392 145.047 211.6C144.855 211.808 144.767 212.072 144.767 212.408L144.767 215H144.127L144.127 212.392C144.127 211.656 143.807 211.296 143.175 211.296C142.879 211.296 142.639 211.408 142.447 211.648C142.255 211.872 142.159 212.152 142.159 212.48L142.159 215H141.519L141.519 210.864H142.159L142.159 211.416C142.471 210.968 142.863 210.752 143.327 210.752ZM150.067 210.752C150.731 210.752 151.235 210.976 151.571 211.424C151.875 211.824 152.035 212.392 152.051 213.112H148.787C148.819 213.576 148.939 213.936 149.163 214.192C149.387 214.448 149.699 214.576 150.091 214.576C150.427 214.576 150.707 214.488 150.915 214.32C151.091 214.176 151.227 213.96 151.331 213.672H151.971C151.875 214.072 151.691 214.392 151.411 214.648C151.067 214.952 150.627 215.112 150.091 215.112C149.499 215.112 149.019 214.912 148.667 214.528C148.299 214.128 148.123 213.6 148.123 212.928C148.123 212.32 148.291 211.808 148.643 211.4C148.995 210.968 149.467 210.752 150.067 210.752ZM150.083 211.288C149.715 211.288 149.419 211.408 149.195 211.648C148.971 211.888 148.843 212.208 148.803 212.616H151.387C151.307 211.728 150.867 211.288 150.083 211.288ZM154.737 210.752C155.761 210.752 156.281 211.32 156.281 212.456L156.281 215H155.641L155.641 212.504C155.641 211.696 155.273 211.296 154.553 211.296C154.265 211.296 154.017 211.4 153.809 211.608C153.585 211.832 153.465 212.128 153.441 212.504L153.441 215H152.801L152.801 210.864H153.441L153.441 211.472C153.585 211.24 153.769 211.064 153.993 210.944C154.217 210.816 154.465 210.752 154.737 210.752ZM158.373 209.528L158.373 210.864H159.397L159.397 211.4H158.373L158.373 214.032C158.373 214.184 158.397 214.296 158.461 214.36C158.517 214.424 158.621 214.464 158.765 214.464H159.293L159.293 215H158.669C158.333 215 158.085 214.912 157.941 214.736C157.805 214.576 157.741 214.344 157.741 214.032L157.741 211.4H156.909L156.909 210.864H157.741L157.741 209.792L158.373 209.528ZM161.577 210.752C162.601 210.752 163.161 211.176 163.273 212.04H162.649C162.593 211.784 162.489 211.592 162.329 211.48C162.153 211.352 161.897 211.288 161.569 211.288C161.281 211.288 161.057 211.336 160.897 211.448C160.721 211.552 160.633 211.696 160.633 211.88C160.633 212.056 160.745 212.208 160.985 212.328C161.137 212.4 161.425 212.488 161.841 212.6C162.337 212.72 162.689 212.848 162.905 212.984C163.233 213.192 163.401 213.472 163.401 213.832C163.401 214.68 162.817 215.112 161.649 215.112C160.561 215.112 159.969 214.632 159.873 213.68H160.497C160.545 214.008 160.665 214.24 160.841 214.384C161.017 214.512 161.281 214.576 161.633 214.576C162.369 214.576 162.745 214.336 162.745 213.872C162.745 213.64 162.609 213.464 162.353 213.336C162.217 213.272 161.921 213.184 161.473 213.072C160.985 212.952 160.641 212.832 160.449 212.704C160.129 212.512 159.977 212.248 159.977 211.896C159.977 211.544 160.129 211.272 160.441 211.064C160.729 210.856 161.113 210.752 161.577 210.752Z" fill="white" fill-opacity="0.75"/>
<path d="M134.985 349.502C135.083 349.6 135.241 349.6 135.339 349.502L136.93 347.911C137.028 347.813 137.028 347.655 136.93 347.557C136.832 347.46 136.674 347.46 136.576 347.557L135.162 348.972L133.748 347.557C133.65 347.46 133.492 347.46 133.394 347.557C133.297 347.655 133.297 347.813 133.394 347.911L134.985 349.502ZM134.912 319.325L134.912 349.325L135.412 349.325L135.412 319.325L134.912 319.325Z" fill="white" fill-opacity="0.75"/>
<rect x="90.1621" y="353.325" width="90" height="32" rx="3.99999" fill="#333333"/>
<path d="M107.658 363.901H112.298C114.826 363.901 116.106 364.989 116.106 367.181C116.106 369.373 114.826 370.477 112.282 370.477H108.634V375.325H107.658V363.901ZM108.634 364.765V369.613H112.234C113.226 369.613 113.946 369.405 114.426 369.005C114.874 368.605 115.114 367.997 115.114 367.181C115.114 366.365 114.874 365.773 114.426 365.389C113.946 364.973 113.21 364.765 112.234 364.765H108.634ZM121.111 366.829C121.591 366.829 121.991 366.877 122.311 367.005V367.981C121.879 367.853 121.463 367.805 121.047 367.805C120.311 367.805 119.703 368.125 119.255 368.797C118.807 369.405 118.599 370.125 118.599 370.957V375.325H117.639V367.053H118.599V368.637C118.823 368.125 119.127 367.709 119.511 367.405C119.959 367.021 120.503 366.829 121.111 366.829ZM127.02 366.829C128.236 366.829 129.212 367.261 129.948 368.141C130.62 368.957 130.956 369.981 130.956 371.197C130.956 372.413 130.62 373.421 129.948 374.237C129.212 375.101 128.236 375.549 127.02 375.549C125.804 375.549 124.828 375.101 124.093 374.237C123.421 373.421 123.085 372.413 123.085 371.197C123.085 369.981 123.421 368.957 124.109 368.141C124.828 367.261 125.804 366.829 127.02 366.829ZM127.02 367.661C126.076 367.661 125.34 368.013 124.796 368.749C124.301 369.389 124.061 370.205 124.061 371.197C124.061 372.173 124.301 372.989 124.796 373.629C125.34 374.349 126.076 374.717 127.02 374.717C127.964 374.717 128.716 374.349 129.26 373.629C129.74 372.973 129.996 372.157 129.996 371.197C129.996 370.205 129.74 369.389 129.26 368.749C128.716 368.013 127.964 367.661 127.02 367.661ZM138.894 363.677H139.854V375.325H138.942V373.693C138.366 374.925 137.406 375.549 136.046 375.549C134.846 375.549 133.918 375.101 133.246 374.237C132.638 373.437 132.334 372.413 132.334 371.181C132.334 369.965 132.638 368.957 133.246 368.157C133.918 367.261 134.83 366.829 135.998 366.829C137.31 366.829 138.286 367.485 138.894 368.797V363.677ZM136.174 367.645C135.23 367.645 134.51 367.997 133.998 368.701C133.534 369.309 133.31 370.141 133.31 371.181C133.31 372.221 133.534 373.053 133.982 373.677C134.478 374.381 135.198 374.733 136.142 374.733C137.038 374.733 137.742 374.381 138.238 373.709C138.686 373.085 138.926 372.285 138.926 371.309V371.117C138.926 370.093 138.67 369.277 138.19 368.637C137.678 367.965 137.006 367.645 136.174 367.645ZM141.873 367.053H142.833V372.109C142.833 372.973 143.009 373.613 143.377 374.045C143.761 374.493 144.353 374.717 145.153 374.717C145.793 374.717 146.353 374.461 146.833 373.981C147.313 373.501 147.585 372.861 147.649 372.077V367.053H148.609V375.325H147.649V373.933C147.009 375.005 146.081 375.549 144.897 375.549C142.881 375.549 141.873 374.413 141.873 372.157V367.053ZM154.111 366.829C155.103 366.829 155.903 367.069 156.527 367.549C157.151 368.029 157.535 368.765 157.663 369.757H156.703C156.591 369.053 156.319 368.541 155.871 368.189C155.423 367.837 154.831 367.661 154.111 367.661C153.247 367.661 152.543 367.997 152.031 368.669C151.519 369.309 151.279 370.173 151.279 371.245C151.279 372.301 151.519 373.149 151.999 373.773C152.479 374.397 153.183 374.717 154.095 374.717C155.631 374.717 156.511 373.933 156.751 372.365H157.695C157.535 373.405 157.135 374.205 156.511 374.749C155.903 375.277 155.087 375.549 154.095 375.549C152.879 375.549 151.919 375.133 151.247 374.301C150.607 373.533 150.303 372.509 150.303 371.245C150.303 369.997 150.623 368.957 151.279 368.141C151.967 367.261 152.911 366.829 154.111 366.829ZM161.233 364.381V367.053H163.393V367.885H161.233V373.485C161.233 373.837 161.297 374.109 161.425 374.269C161.553 374.413 161.793 374.493 162.145 374.493H163.185V375.325H162.017C161.377 375.325 160.913 375.149 160.641 374.829C160.385 374.541 160.273 374.093 160.273 373.485V367.885H158.513V367.053H160.273V364.781L161.233 364.381Z" fill="white" fill-opacity="0.75"/>
</svg>
