<svg width="768" height="340" viewBox="0 0 768 340" fill="none" xmlns="http://www.w3.org/2000/svg">
<circle cx="142" cy="26" r="16" fill="#66B2FF"/>
<circle cx="384" cy="26" r="16" fill="#FF6666"/>
<circle cx="626" cy="26" r="16" fill="#FF9933"/>
<path d="M140.586 330.414C141.367 331.195 142.633 331.195 143.414 330.414L156.142 317.686C156.923 316.905 156.923 315.639 156.142 314.858C155.361 314.077 154.095 314.077 153.314 314.858L142 326.172L130.686 314.858C129.905 314.077 128.639 314.077 127.858 314.858C127.077 315.639 127.077 316.905 127.858 317.686L140.586 330.414ZM140 42V329H144V42H140Z" fill="#66B2FF"/>
<path d="M382.586 248.414C383.367 249.195 384.633 249.195 385.414 248.414L398.142 235.686C398.923 234.905 398.923 233.639 398.142 232.858C397.361 232.077 396.095 232.077 395.314 232.858L384 244.172L372.686 232.858C371.905 232.077 370.639 232.077 369.858 232.858C369.077 233.639 369.077 234.905 369.858 235.686L382.586 248.414ZM382 42V247H386V42H382Z" fill="#FF6665"/>
<path d="M624.586 330.414C625.367 331.195 626.633 331.195 627.414 330.414L640.142 317.686C640.923 316.905 640.923 315.639 640.142 314.858C639.361 314.077 638.095 314.077 637.314 314.858L626 326.172L614.686 314.858C613.905 314.077 612.639 314.077 611.858 314.858C611.077 315.639 611.077 316.905 611.858 317.686L624.586 330.414ZM624 42V329H628V42H624Z" fill="#FF9933"/>
</svg>
