<svg width="1056" height="640" viewBox="0 0 1056 640" fill="none" xmlns="http://www.w3.org/2000/svg">
<rect width="1056" height="640" fill="black"/>
<path d="M472.707 208.707C473.098 208.317 473.098 207.683 472.707 207.293L466.343 200.929C465.953 200.538 465.319 200.538 464.929 200.929C464.538 201.319 464.538 201.953 464.929 202.343L470.586 208L464.929 213.657C464.538 214.047 464.538 214.681 464.929 215.071C465.319 215.462 465.953 215.462 466.343 215.071L472.707 208.707ZM360 209L472 209V207L360 207V209Z" fill="#BABABA"/>
<path d="M472.707 440.707C473.098 440.317 473.098 439.683 472.707 439.293L466.343 432.929C465.953 432.538 465.319 432.538 464.929 432.929C464.538 433.319 464.538 433.953 464.929 434.343L470.586 440L464.929 445.657C464.538 446.047 464.538 446.681 464.929 447.071C465.319 447.462 465.953 447.462 466.343 447.071L472.707 440.707ZM360 441H472V439H360V441Z" fill="#BABABA"/>
<path d="M800.707 208.707C801.098 208.317 801.098 207.683 800.707 207.293L794.343 200.929C793.953 200.538 793.319 200.538 792.929 200.929C792.538 201.319 792.538 201.953 792.929 202.343L798.586 208L792.929 213.657C792.538 214.047 792.538 214.681 792.929 215.071C793.319 215.462 793.953 215.462 794.343 215.071L800.707 208.707ZM688 209L800 209V207L688 207V209Z" fill="#BABABA"/>
<path d="M907.293 392.707C907.683 393.098 908.317 393.098 908.707 392.707L915.071 386.343C915.462 385.953 915.462 385.319 915.071 384.929C914.681 384.538 914.047 384.538 913.657 384.929L908 390.586L902.343 384.929C901.953 384.538 901.319 384.538 900.929 384.929C900.538 385.319 900.538 385.953 900.929 386.343L907.293 392.707ZM907 256L907 392L909 392L909 256L907 256Z" fill="#BABABA"/>
<path d="M251.293 392.707C251.683 393.098 252.317 393.098 252.707 392.707L259.071 386.343C259.462 385.953 259.462 385.319 259.071 384.929C258.681 384.538 258.047 384.538 257.657 384.929L252 390.586L246.343 384.929C245.953 384.538 245.319 384.538 244.929 384.929C244.538 385.319 244.538 385.953 244.929 386.343L251.293 392.707ZM251 256L251 392L253 392L253 256L251 256Z" fill="#BABABA"/>
<path d="M580.707 255.293C580.317 254.902 579.683 254.902 579.293 255.293L572.929 261.657C572.538 262.047 572.538 262.681 572.929 263.071C573.319 263.462 573.953 263.462 574.343 263.071L580 257.414L585.657 263.071C586.047 263.462 586.681 263.462 587.071 263.071C587.462 262.681 587.462 262.047 587.071 261.657L580.707 255.293ZM581 392L581 256L579 256L579 392L581 392Z" fill="#BABABA"/>
<path d="M908 552L908 553L909 553L909 552L908 552ZM252 552L251 552L251 553L252 553L252 552ZM252.707 487.293C252.317 486.902 251.683 486.902 251.293 487.293L244.929 493.657C244.538 494.047 244.538 494.681 244.929 495.071C245.319 495.462 245.953 495.462 246.343 495.071L252 489.414L257.657 495.071C258.047 495.462 258.681 495.462 259.071 495.071C259.462 494.681 259.462 494.047 259.071 493.657L252.707 487.293ZM907 488L907 552L909 552L909 488L907 488ZM908 551L252 551L252 553L908 553L908 551ZM253 552L253 488L251 488L251 552L253 552Z" fill="#BABABA"/>
<rect x="480" y="168" width="200" height="80" rx="24" fill="#919191"/>
<path d="M520.951 187.864V205H522.919V197.032H531.919V195.328H522.919V189.568H532.423V187.864H520.951ZM540.106 192.256C538.234 192.256 536.77 192.88 535.666 194.176C534.61 195.4 534.082 196.936 534.082 198.808C534.082 200.656 534.61 202.192 535.666 203.392C536.77 204.688 538.234 205.336 540.106 205.336C541.954 205.336 543.442 204.688 544.57 203.392C545.602 202.192 546.13 200.656 546.13 198.808C546.13 196.936 545.602 195.4 544.546 194.176C543.442 192.88 541.954 192.256 540.106 192.256ZM540.106 193.864C541.402 193.864 542.434 194.368 543.202 195.376C543.85 196.288 544.186 197.416 544.186 198.808C544.186 200.152 543.85 201.304 543.202 202.216C542.434 203.224 541.402 203.728 540.106 203.728C538.786 203.728 537.754 203.224 537.034 202.216C536.362 201.304 536.05 200.176 536.05 198.808C536.05 197.416 536.362 196.288 537.034 195.376C537.754 194.368 538.786 193.864 540.106 193.864ZM549.009 187.528V205H550.905V187.528H549.009ZM554.657 187.528V205H556.553V187.528H554.657ZM565.466 192.256C563.594 192.256 562.13 192.88 561.026 194.176C559.97 195.4 559.442 196.936 559.442 198.808C559.442 200.656 559.97 202.192 561.026 203.392C562.13 204.688 563.594 205.336 565.466 205.336C567.314 205.336 568.802 204.688 569.93 203.392C570.962 202.192 571.49 200.656 571.49 198.808C571.49 196.936 570.962 195.4 569.906 194.176C568.802 192.88 567.314 192.256 565.466 192.256ZM565.466 193.864C566.762 193.864 567.794 194.368 568.562 195.376C569.21 196.288 569.546 197.416 569.546 198.808C569.546 200.152 569.21 201.304 568.562 202.216C567.794 203.224 566.762 203.728 565.466 203.728C564.146 203.728 563.114 203.224 562.394 202.216C561.722 201.304 561.41 200.176 561.41 198.808C561.41 197.416 561.722 196.288 562.394 195.376C563.114 194.368 564.146 193.864 565.466 193.864ZM572.616 192.592L576.84 205H578.64L581.568 195.016L584.448 205H586.272L590.496 192.592H588.384L585.336 202.648L582.456 192.592H580.656L577.776 202.648L574.728 192.592H572.616ZM603.405 188.584L601.509 189.376V192.592H599.013V194.2H601.509V202.096C601.509 203.032 601.701 203.728 602.109 204.208C602.541 204.736 603.285 205 604.293 205H606.165V203.392H604.581C604.149 203.392 603.837 203.272 603.669 203.08C603.477 202.888 603.405 202.552 603.405 202.096V194.2H606.477V192.592H603.405V188.584ZM608.625 187.528V205H610.545V197.92C610.545 196.768 610.857 195.784 611.505 195.016C612.129 194.248 612.921 193.864 613.881 193.864C614.913 193.864 615.705 194.176 616.281 194.8C616.809 195.424 617.097 196.312 617.097 197.464V205H619.017V197.176C619.017 195.592 618.633 194.368 617.865 193.528C617.097 192.664 615.969 192.256 614.529 192.256C613.689 192.256 612.945 192.448 612.273 192.832C611.553 193.24 610.977 193.84 610.545 194.632V187.528H608.625ZM627.073 192.256C625.273 192.256 623.857 192.904 622.801 194.2C621.745 195.424 621.241 196.96 621.241 198.784C621.241 200.8 621.769 202.384 622.873 203.584C623.929 204.736 625.369 205.336 627.145 205.336C628.753 205.336 630.073 204.856 631.105 203.944C631.945 203.176 632.497 202.216 632.785 201.016H630.865C630.553 201.88 630.145 202.528 629.617 202.96C628.993 203.464 628.153 203.728 627.145 203.728C625.969 203.728 625.033 203.344 624.361 202.576C623.689 201.808 623.329 200.728 623.233 199.336H633.025C632.977 197.176 632.497 195.472 631.585 194.272C630.577 192.928 629.065 192.256 627.073 192.256ZM627.121 193.864C629.473 193.864 630.793 195.184 631.033 197.848H623.281C623.401 196.624 623.785 195.664 624.457 194.944C625.129 194.224 626.017 193.864 627.121 193.864ZM502.803 216.256C500.931 216.256 499.563 217.048 498.675 218.632V216.592H496.875V233.752H498.795V226.744C499.755 228.472 501.123 229.336 502.899 229.336C504.675 229.336 506.043 228.664 507.051 227.368C507.963 226.168 508.443 224.656 508.443 222.832C508.443 220.96 507.963 219.448 507.027 218.248C505.995 216.904 504.579 216.256 502.803 216.256ZM502.563 217.84C503.883 217.84 504.891 218.32 505.587 219.328C506.163 220.192 506.475 221.368 506.475 222.832C506.475 224.32 506.163 225.496 505.539 226.36C504.843 227.272 503.835 227.752 502.491 227.752C501.339 227.752 500.451 227.296 499.779 226.432C499.059 225.544 498.723 224.392 498.723 222.952V222.712C498.723 221.32 499.035 220.168 499.659 219.304C500.331 218.32 501.315 217.84 502.563 217.84ZM516.385 216.256C515.521 216.256 514.777 216.52 514.129 217.048C513.601 217.456 513.169 218.032 512.833 218.752V216.592H510.937V229H512.833V222.424C512.833 221.272 513.145 220.288 513.817 219.472C514.465 218.608 515.281 218.2 516.241 218.2C516.841 218.2 517.465 218.272 518.089 218.464V216.544C517.633 216.352 517.057 216.256 516.385 216.256ZM525.247 216.256C523.375 216.256 521.911 216.88 520.807 218.176C519.751 219.4 519.223 220.936 519.223 222.808C519.223 224.656 519.751 226.192 520.807 227.392C521.911 228.688 523.375 229.336 525.247 229.336C527.095 229.336 528.583 228.688 529.711 227.392C530.743 226.192 531.271 224.656 531.271 222.808C531.271 220.936 530.743 219.4 529.687 218.176C528.583 216.88 527.095 216.256 525.247 216.256ZM525.247 217.864C526.543 217.864 527.575 218.368 528.343 219.376C528.991 220.288 529.327 221.416 529.327 222.808C529.327 224.152 528.991 225.304 528.343 226.216C527.575 227.224 526.543 227.728 525.247 227.728C523.927 227.728 522.895 227.224 522.175 226.216C521.503 225.304 521.191 224.176 521.191 222.808C521.191 221.416 521.503 220.288 522.175 219.376C522.895 218.368 523.927 217.864 525.247 217.864ZM535.589 211.912C535.181 211.912 534.845 212.032 534.557 212.32C534.269 212.56 534.149 212.896 534.149 213.328C534.149 213.736 534.269 214.072 534.557 214.36C534.845 214.624 535.181 214.768 535.589 214.768C535.997 214.768 536.357 214.624 536.645 214.36C536.909 214.072 537.053 213.736 537.053 213.328C537.053 212.896 536.909 212.56 536.645 212.32C536.357 212.032 535.997 211.912 535.589 211.912ZM534.629 216.592V230.368C534.629 231.544 534.053 232.144 532.925 232.144H531.917V233.752H533.069C535.373 233.752 536.549 232.648 536.549 230.44V216.592H534.629ZM545.276 216.256C543.476 216.256 542.06 216.904 541.004 218.2C539.948 219.424 539.444 220.96 539.444 222.784C539.444 224.8 539.972 226.384 541.076 227.584C542.132 228.736 543.572 229.336 545.348 229.336C546.956 229.336 548.276 228.856 549.308 227.944C550.148 227.176 550.7 226.216 550.988 225.016H549.068C548.756 225.88 548.348 226.528 547.82 226.96C547.196 227.464 546.356 227.728 545.348 227.728C544.172 227.728 543.236 227.344 542.564 226.576C541.892 225.808 541.532 224.728 541.436 223.336H551.228C551.18 221.176 550.7 219.472 549.788 218.272C548.78 216.928 547.268 216.256 545.276 216.256ZM545.324 217.864C547.676 217.864 548.996 219.184 549.236 221.848H541.484C541.604 220.624 541.988 219.664 542.66 218.944C543.332 218.224 544.22 217.864 545.324 217.864ZM558.828 216.256C556.98 216.256 555.516 216.904 554.46 218.224C553.476 219.424 552.996 220.96 552.996 222.856C552.996 224.752 553.476 226.288 554.46 227.464C555.492 228.712 556.932 229.336 558.804 229.336C560.34 229.336 561.564 228.928 562.5 228.136C563.46 227.32 564.06 226.096 564.348 224.512H562.428C562.14 226.648 560.916 227.728 558.804 227.728C557.556 227.728 556.596 227.272 555.948 226.408C555.276 225.544 554.964 224.344 554.964 222.832C554.964 221.32 555.3 220.12 555.972 219.232C556.668 218.32 557.628 217.864 558.828 217.864C559.812 217.864 560.604 218.08 561.228 218.56C561.828 219.04 562.212 219.76 562.38 220.72H564.276C564.06 219.208 563.484 218.08 562.524 217.336C561.588 216.616 560.364 216.256 558.828 216.256ZM569.913 212.584L568.017 213.376V216.592H565.521V218.2H568.017V226.096C568.017 227.032 568.209 227.728 568.617 228.208C569.049 228.736 569.793 229 570.801 229H572.673V227.392H571.089C570.657 227.392 570.345 227.272 570.177 227.08C569.985 226.888 569.913 226.552 569.913 226.096V218.2H572.985V216.592H569.913V212.584ZM586.437 212.584L584.541 213.376V216.592H582.045V218.2H584.541V226.096C584.541 227.032 584.733 227.728 585.141 228.208C585.573 228.736 586.317 229 587.325 229H589.197V227.392H587.613C587.181 227.392 586.869 227.272 586.701 227.08C586.509 226.888 586.437 226.552 586.437 226.096V218.2H589.509V216.592H586.437V212.584ZM597.104 216.256C596.24 216.256 595.496 216.52 594.848 217.048C594.32 217.456 593.888 218.032 593.552 218.752V216.592H591.656V229H593.552V222.424C593.552 221.272 593.864 220.288 594.536 219.472C595.184 218.608 596 218.2 596.96 218.2C597.56 218.2 598.184 218.272 598.808 218.464V216.544C598.352 216.352 597.776 216.256 597.104 216.256ZM605.822 216.256C604.334 216.256 603.158 216.544 602.246 217.12C601.238 217.744 600.59 218.728 600.326 220.024L602.222 220.168C602.414 219.376 602.822 218.776 603.47 218.392C604.046 218.008 604.79 217.84 605.702 217.84C607.862 217.84 608.942 218.872 608.942 220.96V221.608L605.966 221.656C604.094 221.68 602.654 222.04 601.646 222.712C600.494 223.432 599.942 224.488 599.942 225.904C599.942 226.912 600.326 227.752 601.094 228.4C601.838 229.024 602.822 229.336 604.07 229.336C605.222 229.336 606.254 229.072 607.166 228.568C607.934 228.136 608.582 227.584 609.062 226.912V229H610.862V221.032C610.862 219.592 610.478 218.464 609.758 217.648C608.894 216.712 607.598 216.256 605.822 216.256ZM608.942 223.048V224.104C608.942 225.064 608.486 225.928 607.598 226.672C606.686 227.44 605.654 227.824 604.478 227.824C603.71 227.824 603.086 227.632 602.606 227.272C602.126 226.888 601.91 226.432 601.91 225.856C601.91 224.056 603.302 223.144 606.086 223.096L608.942 223.048ZM615.412 211.912C615.004 211.912 614.668 212.032 614.38 212.32C614.092 212.56 613.972 212.896 613.972 213.328C613.972 213.736 614.092 214.072 614.38 214.36C614.668 214.624 615.004 214.768 615.412 214.768C615.82 214.768 616.156 214.624 616.444 214.36C616.732 214.072 616.876 213.736 616.876 213.328C616.876 212.896 616.732 212.56 616.444 212.32C616.156 212.032 615.82 211.912 615.412 211.912ZM614.452 216.592V229H616.372V216.592H614.452ZM625.776 216.256C624.96 216.256 624.216 216.448 623.544 216.832C622.872 217.192 622.32 217.72 621.888 218.416V216.592H619.968V229H621.888V221.512C621.96 220.384 622.32 219.496 622.992 218.824C623.616 218.2 624.36 217.888 625.224 217.888C627.384 217.888 628.488 219.088 628.488 221.512V229H630.408V221.368C630.408 217.96 628.848 216.256 625.776 216.256ZM634.959 211.912C634.551 211.912 634.215 212.032 633.927 212.32C633.639 212.56 633.519 212.896 633.519 213.328C633.519 213.736 633.639 214.072 633.927 214.36C634.215 214.624 634.551 214.768 634.959 214.768C635.367 214.768 635.703 214.624 635.991 214.36C636.279 214.072 636.423 213.736 636.423 213.328C636.423 212.896 636.279 212.56 635.991 212.32C635.703 212.032 635.367 211.912 634.959 211.912ZM633.999 216.592V229H635.919V216.592H633.999ZM645.323 216.256C644.507 216.256 643.763 216.448 643.091 216.832C642.419 217.192 641.867 217.72 641.435 218.416V216.592H639.515V229H641.435V221.512C641.507 220.384 641.867 219.496 642.539 218.824C643.163 218.2 643.907 217.888 644.771 217.888C646.931 217.888 648.035 219.088 648.035 221.512V229H649.955V221.368C649.955 217.96 648.395 216.256 645.323 216.256ZM658.034 216.256C656.306 216.256 654.938 216.856 653.93 218.08C652.922 219.232 652.442 220.696 652.442 222.52C652.442 224.32 652.922 225.784 653.93 226.936C654.938 228.112 656.306 228.712 658.034 228.712C659.906 228.712 661.298 227.872 662.21 226.216V228.4C662.21 231.136 660.962 232.528 658.466 232.528C657.338 232.528 656.498 232.312 655.946 231.904C655.394 231.52 655.034 230.896 654.89 230.056H652.97C653.186 231.4 653.738 232.408 654.626 233.08C655.49 233.752 656.786 234.088 658.466 234.088C662.234 234.088 664.13 232.096 664.13 228.136V216.592H662.21V218.728C661.298 217.072 659.906 216.256 658.034 216.256ZM658.322 217.84C659.546 217.84 660.506 218.272 661.226 219.184C661.898 220 662.234 221.128 662.234 222.52C662.234 223.864 661.898 224.968 661.226 225.808C660.506 226.672 659.546 227.104 658.298 227.104C656.954 227.104 655.97 226.624 655.298 225.712C654.698 224.896 654.41 223.816 654.41 222.52C654.41 221.128 654.746 220 655.418 219.184C656.114 218.272 657.074 217.84 658.322 217.84Z" fill="black"/>
<rect x="480" y="400" width="200" height="80" rx="24" fill="#909090"/>
<path d="M535.81 419.864V437H537.778V429.992H542.794C546.73 429.992 548.722 428.288 548.722 424.904C548.722 421.544 546.754 419.864 542.818 419.864H535.81ZM537.778 421.568H542.698C544.066 421.568 545.074 421.832 545.746 422.408C546.418 422.912 546.754 423.752 546.754 424.904C546.754 426.056 546.418 426.896 545.77 427.448C545.098 428 544.09 428.288 542.698 428.288H537.778V421.568ZM556.416 424.256C555.552 424.256 554.808 424.52 554.16 425.048C553.632 425.456 553.2 426.032 552.864 426.752V424.592H550.968V437H552.864V430.424C552.864 429.272 553.176 428.288 553.848 427.472C554.496 426.608 555.312 426.2 556.272 426.2C556.872 426.2 557.496 426.272 558.12 426.464V424.544C557.664 424.352 557.088 424.256 556.416 424.256ZM564.846 424.256C563.046 424.256 561.63 424.904 560.574 426.2C559.518 427.424 559.014 428.96 559.014 430.784C559.014 432.8 559.542 434.384 560.646 435.584C561.702 436.736 563.142 437.336 564.918 437.336C566.526 437.336 567.846 436.856 568.878 435.944C569.718 435.176 570.27 434.216 570.558 433.016H568.638C568.326 433.88 567.918 434.528 567.39 434.96C566.766 435.464 565.926 435.728 564.918 435.728C563.742 435.728 562.806 435.344 562.134 434.576C561.462 433.808 561.102 432.728 561.006 431.336H570.798C570.75 429.176 570.27 427.472 569.358 426.272C568.35 424.928 566.838 424.256 564.846 424.256ZM564.894 425.864C567.246 425.864 568.566 427.184 568.806 429.848H561.054C561.174 428.624 561.558 427.664 562.23 426.944C562.902 426.224 563.79 425.864 564.894 425.864ZM577.439 424.256C576.047 424.256 574.895 424.568 574.031 425.192C573.095 425.816 572.639 426.632 572.639 427.688C572.639 428.744 573.095 429.536 574.055 430.112C574.631 430.496 575.663 430.856 577.127 431.216C578.471 431.552 579.359 431.816 579.767 432.008C580.535 432.392 580.943 432.92 580.943 433.616C580.943 435.008 579.815 435.728 577.607 435.728C576.551 435.728 575.759 435.536 575.231 435.152C574.703 434.72 574.343 434.024 574.199 433.04H572.327C572.615 435.896 574.391 437.336 577.655 437.336C581.159 437.336 582.911 436.04 582.911 433.496C582.911 432.416 582.407 431.576 581.423 430.952C580.775 430.544 579.719 430.16 578.231 429.8C576.983 429.464 576.119 429.2 575.663 428.984C574.943 428.624 574.607 428.168 574.607 427.64C574.607 427.088 574.871 426.656 575.399 426.344C575.879 426.008 576.551 425.864 577.415 425.864C578.399 425.864 579.167 426.056 579.695 426.44C580.175 426.776 580.487 427.352 580.655 428.12H582.527C582.191 425.528 580.511 424.256 577.439 424.256ZM590.276 424.256C588.476 424.256 587.06 424.904 586.004 426.2C584.948 427.424 584.444 428.96 584.444 430.784C584.444 432.8 584.972 434.384 586.076 435.584C587.132 436.736 588.572 437.336 590.348 437.336C591.956 437.336 593.276 436.856 594.308 435.944C595.148 435.176 595.7 434.216 595.988 433.016H594.068C593.756 433.88 593.348 434.528 592.82 434.96C592.196 435.464 591.356 435.728 590.348 435.728C589.172 435.728 588.236 435.344 587.564 434.576C586.892 433.808 586.532 432.728 586.436 431.336H596.228C596.18 429.176 595.7 427.472 594.788 426.272C593.78 424.928 592.268 424.256 590.276 424.256ZM590.324 425.864C592.676 425.864 593.996 427.184 594.236 429.848H586.484C586.604 428.624 586.988 427.664 587.66 426.944C588.332 426.224 589.22 425.864 590.324 425.864ZM604.284 424.256C603.468 424.256 602.724 424.448 602.052 424.832C601.38 425.192 600.828 425.72 600.396 426.416V424.592H598.476V437H600.396V429.512C600.468 428.384 600.828 427.496 601.5 426.824C602.124 426.2 602.868 425.888 603.732 425.888C605.892 425.888 606.996 427.088 606.996 429.512V437H608.916V429.368C608.916 425.96 607.356 424.256 604.284 424.256ZM615.195 420.584L613.299 421.376V424.592H610.803V426.2H613.299V434.096C613.299 435.032 613.491 435.728 613.899 436.208C614.331 436.736 615.075 437 616.083 437H617.955V435.392H616.371C615.939 435.392 615.627 435.272 615.459 435.08C615.267 434.888 615.195 434.552 615.195 434.096V426.2H618.267V424.592H615.195V420.584ZM497.128 444.584L495.232 445.376V448.592H492.736V450.2H495.232V458.096C495.232 459.032 495.424 459.728 495.832 460.208C496.264 460.736 497.008 461 498.016 461H499.888V459.392H498.304C497.872 459.392 497.56 459.272 497.392 459.08C497.2 458.888 497.128 458.552 497.128 458.096V450.2H500.2V448.592H497.128V444.584ZM507.795 448.256C506.931 448.256 506.187 448.52 505.539 449.048C505.011 449.456 504.579 450.032 504.243 450.752V448.592H502.347V461H504.243V454.424C504.243 453.272 504.555 452.288 505.227 451.472C505.875 450.608 506.691 450.2 507.651 450.2C508.251 450.2 508.875 450.272 509.499 450.464V448.544C509.043 448.352 508.467 448.256 507.795 448.256ZM516.513 448.256C515.025 448.256 513.849 448.544 512.937 449.12C511.929 449.744 511.281 450.728 511.017 452.024L512.913 452.168C513.105 451.376 513.513 450.776 514.161 450.392C514.737 450.008 515.481 449.84 516.393 449.84C518.553 449.84 519.633 450.872 519.633 452.96V453.608L516.657 453.656C514.785 453.68 513.345 454.04 512.337 454.712C511.185 455.432 510.633 456.488 510.633 457.904C510.633 458.912 511.017 459.752 511.785 460.4C512.529 461.024 513.513 461.336 514.761 461.336C515.913 461.336 516.945 461.072 517.857 460.568C518.625 460.136 519.273 459.584 519.753 458.912V461H521.553V453.032C521.553 451.592 521.169 450.464 520.449 449.648C519.585 448.712 518.289 448.256 516.513 448.256ZM519.633 455.048V456.104C519.633 457.064 519.177 457.928 518.289 458.672C517.377 459.44 516.345 459.824 515.169 459.824C514.401 459.824 513.777 459.632 513.297 459.272C512.817 458.888 512.601 458.432 512.601 457.856C512.601 456.056 513.993 455.144 516.777 455.096L519.633 455.048ZM526.103 443.912C525.695 443.912 525.359 444.032 525.071 444.32C524.783 444.56 524.663 444.896 524.663 445.328C524.663 445.736 524.783 446.072 525.071 446.36C525.359 446.624 525.695 446.768 526.103 446.768C526.511 446.768 526.847 446.624 527.135 446.36C527.423 446.072 527.567 445.736 527.567 445.328C527.567 444.896 527.423 444.56 527.135 444.32C526.847 444.032 526.511 443.912 526.103 443.912ZM525.143 448.592V461H527.063V448.592H525.143ZM536.468 448.256C535.652 448.256 534.908 448.448 534.236 448.832C533.564 449.192 533.012 449.72 532.58 450.416V448.592H530.66V461H532.58V453.512C532.652 452.384 533.012 451.496 533.684 450.824C534.308 450.2 535.052 449.888 535.916 449.888C538.076 449.888 539.18 451.088 539.18 453.512V461H541.1V453.368C541.1 449.96 539.54 448.256 536.468 448.256ZM545.65 443.912C545.242 443.912 544.906 444.032 544.618 444.32C544.33 444.56 544.21 444.896 544.21 445.328C544.21 445.736 544.33 446.072 544.618 446.36C544.906 446.624 545.242 446.768 545.65 446.768C546.058 446.768 546.394 446.624 546.682 446.36C546.97 446.072 547.114 445.736 547.114 445.328C547.114 444.896 546.97 444.56 546.682 444.32C546.394 444.032 546.058 443.912 545.65 443.912ZM544.69 448.592V461H546.61V448.592H544.69ZM556.015 448.256C555.199 448.256 554.455 448.448 553.783 448.832C553.111 449.192 552.559 449.72 552.127 450.416V448.592H550.207V461H552.127V453.512C552.199 452.384 552.559 451.496 553.231 450.824C553.855 450.2 554.599 449.888 555.463 449.888C557.623 449.888 558.727 451.088 558.727 453.512V461H560.647V453.368C560.647 449.96 559.087 448.256 556.015 448.256ZM568.725 448.256C566.997 448.256 565.629 448.856 564.621 450.08C563.613 451.232 563.133 452.696 563.133 454.52C563.133 456.32 563.613 457.784 564.621 458.936C565.629 460.112 566.997 460.712 568.725 460.712C570.597 460.712 571.989 459.872 572.901 458.216V460.4C572.901 463.136 571.653 464.528 569.157 464.528C568.029 464.528 567.189 464.312 566.637 463.904C566.085 463.52 565.725 462.896 565.581 462.056H563.661C563.877 463.4 564.429 464.408 565.317 465.08C566.181 465.752 567.477 466.088 569.157 466.088C572.925 466.088 574.821 464.096 574.821 460.136V448.592H572.901V450.728C571.989 449.072 570.597 448.256 568.725 448.256ZM569.013 449.84C570.237 449.84 571.197 450.272 571.917 451.184C572.589 452 572.925 453.128 572.925 454.52C572.925 455.864 572.589 456.968 571.917 457.808C571.197 458.672 570.237 459.104 568.989 459.104C567.645 459.104 566.661 458.624 565.989 457.712C565.389 456.896 565.101 455.816 565.101 454.52C565.101 453.128 565.437 452 566.109 451.184C566.805 450.272 567.765 449.84 569.013 449.84ZM591.137 448.256C589.289 448.256 587.825 448.904 586.769 450.224C585.785 451.424 585.305 452.96 585.305 454.856C585.305 456.752 585.785 458.288 586.769 459.464C587.801 460.712 589.241 461.336 591.113 461.336C592.649 461.336 593.873 460.928 594.809 460.136C595.769 459.32 596.369 458.096 596.657 456.512H594.737C594.449 458.648 593.225 459.728 591.113 459.728C589.865 459.728 588.905 459.272 588.257 458.408C587.585 457.544 587.273 456.344 587.273 454.832C587.273 453.32 587.609 452.12 588.281 451.232C588.977 450.32 589.937 449.864 591.137 449.864C592.121 449.864 592.913 450.08 593.537 450.56C594.137 451.04 594.521 451.76 594.689 452.72H596.585C596.369 451.208 595.793 450.08 594.833 449.336C593.897 448.616 592.673 448.256 591.137 448.256ZM604.454 448.256C602.582 448.256 601.118 448.88 600.014 450.176C598.958 451.4 598.43 452.936 598.43 454.808C598.43 456.656 598.958 458.192 600.014 459.392C601.118 460.688 602.582 461.336 604.454 461.336C606.302 461.336 607.79 460.688 608.918 459.392C609.95 458.192 610.478 456.656 610.478 454.808C610.478 452.936 609.95 451.4 608.894 450.176C607.79 448.88 606.302 448.256 604.454 448.256ZM604.454 449.864C605.75 449.864 606.782 450.368 607.55 451.376C608.198 452.288 608.534 453.416 608.534 454.808C608.534 456.152 608.198 457.304 607.55 458.216C606.782 459.224 605.75 459.728 604.454 459.728C603.134 459.728 602.102 459.224 601.382 458.216C600.71 457.304 600.398 456.176 600.398 454.808C600.398 453.416 600.71 452.288 601.382 451.376C602.102 450.368 603.134 449.864 604.454 449.864ZM618.78 448.256C617.964 448.256 617.22 448.448 616.548 448.832C615.876 449.192 615.324 449.72 614.892 450.416V448.592H612.972V461H614.892V453.512C614.964 452.384 615.324 451.496 615.996 450.824C616.62 450.2 617.364 449.888 618.228 449.888C620.388 449.888 621.492 451.088 621.492 453.512V461H623.412V453.368C623.412 449.96 621.852 448.256 618.78 448.256ZM629.691 444.584L627.795 445.376V448.592H625.299V450.2H627.795V458.096C627.795 459.032 627.987 459.728 628.395 460.208C628.827 460.736 629.571 461 630.579 461H632.451V459.392H630.867C630.435 459.392 630.123 459.272 629.955 459.08C629.763 458.888 629.691 458.552 629.691 458.096V450.2H632.763V448.592H629.691V444.584ZM640.022 448.256C638.222 448.256 636.806 448.904 635.75 450.2C634.694 451.424 634.19 452.96 634.19 454.784C634.19 456.8 634.718 458.384 635.822 459.584C636.878 460.736 638.318 461.336 640.094 461.336C641.702 461.336 643.022 460.856 644.054 459.944C644.894 459.176 645.446 458.216 645.734 457.016H643.814C643.502 457.88 643.094 458.528 642.566 458.96C641.942 459.464 641.102 459.728 640.094 459.728C638.918 459.728 637.982 459.344 637.31 458.576C636.638 457.808 636.278 456.728 636.182 455.336H645.974C645.926 453.176 645.446 451.472 644.534 450.272C643.526 448.928 642.014 448.256 640.022 448.256ZM640.07 449.864C642.422 449.864 643.742 451.184 643.982 453.848H636.23C636.35 452.624 636.734 451.664 637.406 450.944C638.078 450.224 638.966 449.864 640.07 449.864ZM654.03 448.256C653.214 448.256 652.47 448.448 651.798 448.832C651.126 449.192 650.574 449.72 650.142 450.416V448.592H648.222V461H650.142V453.512C650.214 452.384 650.574 451.496 651.246 450.824C651.87 450.2 652.614 449.888 653.478 449.888C655.638 449.888 656.742 451.088 656.742 453.512V461H658.662V453.368C658.662 449.96 657.102 448.256 654.03 448.256ZM664.941 444.584L663.045 445.376V448.592H660.549V450.2H663.045V458.096C663.045 459.032 663.237 459.728 663.645 460.208C664.077 460.736 664.821 461 665.829 461H667.701V459.392H666.117C665.685 459.392 665.373 459.272 665.205 459.08C665.013 458.888 664.941 458.552 664.941 458.096V450.2H668.013V448.592H664.941V444.584Z" fill="black"/>
<rect x="152" y="168" width="200" height="80" rx="24" fill="#919191"/>
<path d="M169.197 187.864V205H181.749V203.296H171.165V197.008H180.765V195.304H171.165V189.568H181.341V187.864H169.197ZM190.046 192.256C189.23 192.256 188.486 192.448 187.814 192.832C187.142 193.192 186.59 193.72 186.158 194.416V192.592H184.238V205H186.158V197.512C186.23 196.384 186.59 195.496 187.262 194.824C187.886 194.2 188.63 193.888 189.494 193.888C191.654 193.888 192.758 195.088 192.758 197.512V205H194.678V197.368C194.678 193.96 193.118 192.256 190.046 192.256ZM200.956 188.584L199.06 189.376V192.592H196.564V194.2H199.06V202.096C199.06 203.032 199.252 203.728 199.66 204.208C200.092 204.736 200.836 205 201.844 205H203.716V203.392H202.132C201.7 203.392 201.388 203.272 201.22 203.08C201.028 202.888 200.956 202.552 200.956 202.096V194.2H204.028V192.592H200.956V188.584ZM211.288 192.256C209.488 192.256 208.072 192.904 207.016 194.2C205.96 195.424 205.456 196.96 205.456 198.784C205.456 200.8 205.984 202.384 207.088 203.584C208.144 204.736 209.584 205.336 211.36 205.336C212.968 205.336 214.288 204.856 215.32 203.944C216.16 203.176 216.712 202.216 217 201.016H215.08C214.768 201.88 214.36 202.528 213.832 202.96C213.208 203.464 212.368 203.728 211.36 203.728C210.184 203.728 209.248 203.344 208.576 202.576C207.904 201.808 207.544 200.728 207.448 199.336H217.24C217.192 197.176 216.712 195.472 215.8 194.272C214.792 192.928 213.28 192.256 211.288 192.256ZM211.336 193.864C213.688 193.864 215.008 195.184 215.248 197.848H207.496C207.616 196.624 208 195.664 208.672 194.944C209.344 194.224 210.232 193.864 211.336 193.864ZM224.936 192.256C224.072 192.256 223.328 192.52 222.68 193.048C222.152 193.456 221.72 194.032 221.384 194.752V192.592H219.488V205H221.384V198.424C221.384 197.272 221.696 196.288 222.368 195.472C223.016 194.608 223.832 194.2 224.792 194.2C225.392 194.2 226.016 194.272 226.64 194.464V192.544C226.184 192.352 225.608 192.256 224.936 192.256ZM242.174 192.256C240.302 192.256 238.934 193.048 238.046 194.632V192.592H236.246V209.752H238.166V202.744C239.126 204.472 240.494 205.336 242.27 205.336C244.046 205.336 245.414 204.664 246.422 203.368C247.334 202.168 247.814 200.656 247.814 198.832C247.814 196.96 247.334 195.448 246.398 194.248C245.366 192.904 243.95 192.256 242.174 192.256ZM241.934 193.84C243.254 193.84 244.262 194.32 244.958 195.328C245.534 196.192 245.846 197.368 245.846 198.832C245.846 200.32 245.534 201.496 244.91 202.36C244.214 203.272 243.206 203.752 241.862 203.752C240.71 203.752 239.822 203.296 239.15 202.432C238.43 201.544 238.094 200.392 238.094 198.952V198.712C238.094 197.32 238.406 196.168 239.03 195.304C239.702 194.32 240.686 193.84 241.934 193.84ZM255.42 192.256C253.62 192.256 252.204 192.904 251.148 194.2C250.092 195.424 249.588 196.96 249.588 198.784C249.588 200.8 250.116 202.384 251.22 203.584C252.276 204.736 253.716 205.336 255.492 205.336C257.1 205.336 258.42 204.856 259.452 203.944C260.292 203.176 260.844 202.216 261.132 201.016H259.212C258.9 201.88 258.492 202.528 257.964 202.96C257.34 203.464 256.5 203.728 255.492 203.728C254.316 203.728 253.38 203.344 252.708 202.576C252.036 201.808 251.676 200.728 251.58 199.336H261.372C261.324 197.176 260.844 195.472 259.932 194.272C258.924 192.928 257.412 192.256 255.42 192.256ZM255.468 193.864C257.82 193.864 259.14 195.184 259.38 197.848H251.628C251.748 196.624 252.132 195.664 252.804 194.944C253.476 194.224 254.364 193.864 255.468 193.864ZM269.069 192.256C268.205 192.256 267.461 192.52 266.813 193.048C266.285 193.456 265.853 194.032 265.517 194.752V192.592H263.621V205H265.517V198.424C265.517 197.272 265.829 196.288 266.501 195.472C267.149 194.608 267.965 194.2 268.925 194.2C269.525 194.2 270.149 194.272 270.773 194.464V192.544C270.317 192.352 269.741 192.256 269.069 192.256ZM276.778 192.256C275.386 192.256 274.234 192.568 273.37 193.192C272.434 193.816 271.978 194.632 271.978 195.688C271.978 196.744 272.434 197.536 273.394 198.112C273.97 198.496 275.002 198.856 276.466 199.216C277.81 199.552 278.698 199.816 279.106 200.008C279.874 200.392 280.282 200.92 280.282 201.616C280.282 203.008 279.154 203.728 276.946 203.728C275.89 203.728 275.098 203.536 274.57 203.152C274.042 202.72 273.682 202.024 273.538 201.04H271.666C271.954 203.896 273.73 205.336 276.994 205.336C280.498 205.336 282.25 204.04 282.25 201.496C282.25 200.416 281.746 199.576 280.762 198.952C280.114 198.544 279.058 198.16 277.57 197.8C276.322 197.464 275.458 197.2 275.002 196.984C274.282 196.624 273.946 196.168 273.946 195.64C273.946 195.088 274.21 194.656 274.738 194.344C275.218 194.008 275.89 193.864 276.754 193.864C277.738 193.864 278.506 194.056 279.034 194.44C279.514 194.776 279.826 195.352 279.994 196.12H281.866C281.53 193.528 279.85 192.256 276.778 192.256ZM290.048 192.256C288.176 192.256 286.712 192.88 285.608 194.176C284.552 195.4 284.024 196.936 284.024 198.808C284.024 200.656 284.552 202.192 285.608 203.392C286.712 204.688 288.176 205.336 290.048 205.336C291.896 205.336 293.384 204.688 294.512 203.392C295.544 202.192 296.072 200.656 296.072 198.808C296.072 196.936 295.544 195.4 294.488 194.176C293.384 192.88 291.896 192.256 290.048 192.256ZM290.048 193.864C291.344 193.864 292.376 194.368 293.144 195.376C293.792 196.288 294.128 197.416 294.128 198.808C294.128 200.152 293.792 201.304 293.144 202.216C292.376 203.224 291.344 203.728 290.048 203.728C288.728 203.728 287.696 203.224 286.976 202.216C286.304 201.304 285.992 200.176 285.992 198.808C285.992 197.416 286.304 196.288 286.976 195.376C287.696 194.368 288.728 193.864 290.048 193.864ZM304.374 192.256C303.558 192.256 302.814 192.448 302.142 192.832C301.47 193.192 300.918 193.72 300.486 194.416V192.592H298.566V205H300.486V197.512C300.558 196.384 300.918 195.496 301.59 194.824C302.214 194.2 302.958 193.888 303.822 193.888C305.982 193.888 307.086 195.088 307.086 197.512V205H309.006V197.368C309.006 193.96 307.446 192.256 304.374 192.256ZM317.372 192.256C315.884 192.256 314.708 192.544 313.796 193.12C312.788 193.744 312.14 194.728 311.876 196.024L313.772 196.168C313.964 195.376 314.372 194.776 315.02 194.392C315.596 194.008 316.34 193.84 317.252 193.84C319.412 193.84 320.492 194.872 320.492 196.96V197.608L317.516 197.656C315.644 197.68 314.204 198.04 313.196 198.712C312.044 199.432 311.492 200.488 311.492 201.904C311.492 202.912 311.876 203.752 312.644 204.4C313.388 205.024 314.372 205.336 315.62 205.336C316.772 205.336 317.804 205.072 318.716 204.568C319.484 204.136 320.132 203.584 320.612 202.912V205H322.412V197.032C322.412 195.592 322.028 194.464 321.308 193.648C320.444 192.712 319.148 192.256 317.372 192.256ZM320.492 199.048V200.104C320.492 201.064 320.036 201.928 319.148 202.672C318.236 203.44 317.204 203.824 316.028 203.824C315.26 203.824 314.636 203.632 314.156 203.272C313.676 202.888 313.46 202.432 313.46 201.856C313.46 200.056 314.852 199.144 317.636 199.096L320.492 199.048ZM325.763 187.528V205H327.659V187.528H325.763ZM191.869 211.912C191.461 211.912 191.125 212.032 190.837 212.32C190.549 212.56 190.429 212.896 190.429 213.328C190.429 213.736 190.549 214.072 190.837 214.36C191.125 214.624 191.461 214.768 191.869 214.768C192.277 214.768 192.613 214.624 192.901 214.36C193.189 214.072 193.333 213.736 193.333 213.328C193.333 212.896 193.189 212.56 192.901 212.32C192.613 212.032 192.277 211.912 191.869 211.912ZM190.909 216.592V229H192.829V216.592H190.909ZM202.234 216.256C201.418 216.256 200.674 216.448 200.002 216.832C199.33 217.192 198.778 217.72 198.346 218.416V216.592H196.426V229H198.346V221.512C198.418 220.384 198.778 219.496 199.45 218.824C200.074 218.2 200.818 217.888 201.682 217.888C203.842 217.888 204.946 219.088 204.946 221.512V229H206.866V221.368C206.866 217.96 205.306 216.256 202.234 216.256ZM214.8 211.864C213.744 211.864 212.928 212.152 212.376 212.752C211.848 213.328 211.584 214.12 211.584 215.176V216.592H208.464V218.2H211.584V229H213.504V218.2H217.008V216.592H213.504V215.224C213.504 214.624 213.624 214.192 213.864 213.928C214.104 213.64 214.512 213.52 215.04 213.52H217.176V211.864H214.8ZM224.329 216.256C222.457 216.256 220.993 216.88 219.889 218.176C218.833 219.4 218.305 220.936 218.305 222.808C218.305 224.656 218.833 226.192 219.889 227.392C220.993 228.688 222.457 229.336 224.329 229.336C226.177 229.336 227.665 228.688 228.793 227.392C229.825 226.192 230.353 224.656 230.353 222.808C230.353 220.936 229.825 219.4 228.769 218.176C227.665 216.88 226.177 216.256 224.329 216.256ZM224.329 217.864C225.625 217.864 226.657 218.368 227.425 219.376C228.073 220.288 228.409 221.416 228.409 222.808C228.409 224.152 228.073 225.304 227.425 226.216C226.657 227.224 225.625 227.728 224.329 227.728C223.009 227.728 221.977 227.224 221.257 226.216C220.585 225.304 220.273 224.176 220.273 222.808C220.273 221.416 220.585 220.288 221.257 219.376C221.977 218.368 223.009 217.864 224.329 217.864ZM238.295 216.256C237.431 216.256 236.687 216.52 236.039 217.048C235.511 217.456 235.079 218.032 234.743 218.752V216.592H232.847V229H234.743V222.424C234.743 221.272 235.055 220.288 235.727 219.472C236.375 218.608 237.191 218.2 238.151 218.2C238.751 218.2 239.375 218.272 239.999 218.464V216.544C239.543 216.352 238.967 216.256 238.295 216.256ZM247.037 216.256C245.645 216.256 244.469 216.904 243.533 218.248V216.592H241.613V229H243.533V221.44C243.533 220.456 243.821 219.616 244.397 218.944C244.973 218.224 245.693 217.888 246.581 217.888C248.477 217.888 249.437 218.968 249.437 221.176V229H251.357V221.224C251.357 220.216 251.621 219.424 252.197 218.8C252.725 218.176 253.421 217.888 254.237 217.888C255.293 217.888 256.061 218.152 256.541 218.728C256.997 219.256 257.237 220.072 257.237 221.176V229H259.157V220.864C259.157 219.448 258.749 218.32 257.981 217.48C257.165 216.664 256.133 216.256 254.837 216.256C253.973 216.256 253.253 216.448 252.653 216.832C251.981 217.192 251.405 217.792 250.925 218.608C250.229 217.024 248.933 216.256 247.037 216.256ZM267.544 216.256C266.056 216.256 264.88 216.544 263.968 217.12C262.96 217.744 262.312 218.728 262.048 220.024L263.944 220.168C264.136 219.376 264.544 218.776 265.192 218.392C265.768 218.008 266.512 217.84 267.424 217.84C269.584 217.84 270.664 218.872 270.664 220.96V221.608L267.688 221.656C265.816 221.68 264.376 222.04 263.368 222.712C262.216 223.432 261.664 224.488 261.664 225.904C261.664 226.912 262.048 227.752 262.816 228.4C263.56 229.024 264.544 229.336 265.792 229.336C266.944 229.336 267.976 229.072 268.888 228.568C269.656 228.136 270.304 227.584 270.784 226.912V229H272.584V221.032C272.584 219.592 272.2 218.464 271.48 217.648C270.616 216.712 269.32 216.256 267.544 216.256ZM270.664 223.048V224.104C270.664 225.064 270.208 225.928 269.32 226.672C268.408 227.44 267.376 227.824 266.2 227.824C265.432 227.824 264.808 227.632 264.328 227.272C263.848 226.888 263.632 226.432 263.632 225.856C263.632 224.056 265.024 223.144 267.808 223.096L270.664 223.048ZM278.863 212.584L276.967 213.376V216.592H274.471V218.2H276.967V226.096C276.967 227.032 277.159 227.728 277.567 228.208C277.999 228.736 278.743 229 279.751 229H281.623V227.392H280.039C279.607 227.392 279.295 227.272 279.127 227.08C278.935 226.888 278.863 226.552 278.863 226.096V218.2H281.935V216.592H278.863V212.584ZM285.666 211.912C285.258 211.912 284.922 212.032 284.634 212.32C284.346 212.56 284.226 212.896 284.226 213.328C284.226 213.736 284.346 214.072 284.634 214.36C284.922 214.624 285.258 214.768 285.666 214.768C286.074 214.768 286.41 214.624 286.698 214.36C286.986 214.072 287.13 213.736 287.13 213.328C287.13 212.896 286.986 212.56 286.698 212.32C286.41 212.032 286.074 211.912 285.666 211.912ZM284.706 216.592V229H286.626V216.592H284.706ZM295.766 216.256C293.894 216.256 292.43 216.88 291.326 218.176C290.27 219.4 289.742 220.936 289.742 222.808C289.742 224.656 290.27 226.192 291.326 227.392C292.43 228.688 293.894 229.336 295.766 229.336C297.614 229.336 299.102 228.688 300.23 227.392C301.262 226.192 301.79 224.656 301.79 222.808C301.79 220.936 301.262 219.4 300.206 218.176C299.102 216.88 297.614 216.256 295.766 216.256ZM295.766 217.864C297.062 217.864 298.094 218.368 298.862 219.376C299.51 220.288 299.846 221.416 299.846 222.808C299.846 224.152 299.51 225.304 298.862 226.216C298.094 227.224 297.062 227.728 295.766 227.728C294.446 227.728 293.414 227.224 292.694 226.216C292.022 225.304 291.71 224.176 291.71 222.808C291.71 221.416 292.022 220.288 292.694 219.376C293.414 218.368 294.446 217.864 295.766 217.864ZM310.093 216.256C309.277 216.256 308.533 216.448 307.861 216.832C307.189 217.192 306.637 217.72 306.205 218.416V216.592H304.285V229H306.205V221.512C306.277 220.384 306.637 219.496 307.309 218.824C307.933 218.2 308.677 217.888 309.541 217.888C311.701 217.888 312.805 219.088 312.805 221.512V229H314.725V221.368C314.725 217.96 313.165 216.256 310.093 216.256Z" fill="black"/>
<rect x="152" y="400" width="200" height="80" rx="24" fill="#909090"/>
<path d="M175.923 419.864V437H177.891V429.032H186.891V427.328H177.891V421.568H187.395V419.864H175.923ZM191.119 419.912C190.711 419.912 190.375 420.032 190.087 420.32C189.799 420.56 189.679 420.896 189.679 421.328C189.679 421.736 189.799 422.072 190.087 422.36C190.375 422.624 190.711 422.768 191.119 422.768C191.527 422.768 191.863 422.624 192.151 422.36C192.439 422.072 192.583 421.736 192.583 421.328C192.583 420.896 192.439 420.56 192.151 420.32C191.863 420.032 191.527 419.912 191.119 419.912ZM190.159 424.592V437H192.079V424.592H190.159ZM196.06 419.528V437H197.956V419.528H196.06ZM204.636 420.584L202.74 421.376V424.592H200.244V426.2H202.74V434.096C202.74 435.032 202.932 435.728 203.34 436.208C203.772 436.736 204.516 437 205.524 437H207.396V435.392H205.812C205.38 435.392 205.068 435.272 204.9 435.08C204.708 434.888 204.636 434.552 204.636 434.096V426.2H207.708V424.592H204.636V420.584ZM214.967 424.256C213.167 424.256 211.751 424.904 210.695 426.2C209.639 427.424 209.135 428.96 209.135 430.784C209.135 432.8 209.663 434.384 210.767 435.584C211.823 436.736 213.263 437.336 215.039 437.336C216.647 437.336 217.967 436.856 218.999 435.944C219.839 435.176 220.391 434.216 220.679 433.016H218.759C218.447 433.88 218.039 434.528 217.511 434.96C216.887 435.464 216.047 435.728 215.039 435.728C213.863 435.728 212.927 435.344 212.255 434.576C211.583 433.808 211.223 432.728 211.127 431.336H220.919C220.871 429.176 220.391 427.472 219.479 426.272C218.471 424.928 216.959 424.256 214.967 424.256ZM215.015 425.864C217.367 425.864 218.687 427.184 218.927 429.848H211.175C211.295 428.624 211.679 427.664 212.351 426.944C213.023 426.224 213.911 425.864 215.015 425.864ZM228.616 424.256C227.752 424.256 227.008 424.52 226.36 425.048C225.832 425.456 225.4 426.032 225.064 426.752V424.592H223.168V437H225.064V430.424C225.064 429.272 225.376 428.288 226.048 427.472C226.696 426.608 227.512 426.2 228.472 426.2C229.072 426.2 229.696 426.272 230.32 426.464V424.544C229.864 424.352 229.288 424.256 228.616 424.256ZM245.278 424.256C243.43 424.256 241.965 424.904 240.91 426.224C239.926 427.424 239.446 428.96 239.446 430.856C239.446 432.752 239.926 434.288 240.91 435.464C241.942 436.712 243.382 437.336 245.254 437.336C246.79 437.336 248.014 436.928 248.95 436.136C249.91 435.32 250.51 434.096 250.798 432.512H248.878C248.59 434.648 247.366 435.728 245.254 435.728C244.006 435.728 243.046 435.272 242.398 434.408C241.726 433.544 241.414 432.344 241.414 430.832C241.414 429.32 241.75 428.12 242.422 427.232C243.118 426.32 244.078 425.864 245.278 425.864C246.262 425.864 247.054 426.08 247.678 426.56C248.278 427.04 248.662 427.76 248.83 428.72H250.726C250.51 427.208 249.934 426.08 248.974 425.336C248.038 424.616 246.814 424.256 245.278 424.256ZM258.595 424.256C256.723 424.256 255.259 424.88 254.155 426.176C253.099 427.4 252.571 428.936 252.571 430.808C252.571 432.656 253.099 434.192 254.155 435.392C255.259 436.688 256.723 437.336 258.595 437.336C260.443 437.336 261.931 436.688 263.059 435.392C264.091 434.192 264.619 432.656 264.619 430.808C264.619 428.936 264.091 427.4 263.035 426.176C261.931 424.88 260.443 424.256 258.595 424.256ZM258.595 425.864C259.891 425.864 260.923 426.368 261.691 427.376C262.339 428.288 262.675 429.416 262.675 430.808C262.675 432.152 262.339 433.304 261.691 434.216C260.923 435.224 259.891 435.728 258.595 435.728C257.275 435.728 256.243 435.224 255.523 434.216C254.851 433.304 254.539 432.176 254.539 430.808C254.539 429.416 254.851 428.288 255.523 427.376C256.243 426.368 257.275 425.864 258.595 425.864ZM272.921 424.256C272.105 424.256 271.361 424.448 270.689 424.832C270.017 425.192 269.465 425.72 269.033 426.416V424.592H267.113V437H269.033V429.512C269.105 428.384 269.465 427.496 270.137 426.824C270.761 426.2 271.505 425.888 272.369 425.888C274.529 425.888 275.633 427.088 275.633 429.512V437H277.553V429.368C277.553 425.96 275.993 424.256 272.921 424.256ZM283.831 420.584L281.935 421.376V424.592H279.439V426.2H281.935V434.096C281.935 435.032 282.127 435.728 282.535 436.208C282.967 436.736 283.711 437 284.719 437H286.591V435.392H285.007C284.575 435.392 284.263 435.272 284.095 435.08C283.903 434.888 283.831 434.552 283.831 434.096V426.2H286.903V424.592H283.831V420.584ZM294.163 424.256C292.363 424.256 290.947 424.904 289.891 426.2C288.835 427.424 288.331 428.96 288.331 430.784C288.331 432.8 288.859 434.384 289.963 435.584C291.019 436.736 292.459 437.336 294.235 437.336C295.843 437.336 297.163 436.856 298.195 435.944C299.035 435.176 299.587 434.216 299.875 433.016H297.955C297.643 433.88 297.235 434.528 296.707 434.96C296.083 435.464 295.243 435.728 294.235 435.728C293.059 435.728 292.123 435.344 291.451 434.576C290.779 433.808 290.419 432.728 290.323 431.336H300.115C300.067 429.176 299.587 427.472 298.675 426.272C297.667 424.928 296.155 424.256 294.163 424.256ZM294.211 425.864C296.563 425.864 297.883 427.184 298.123 429.848H290.371C290.491 428.624 290.875 427.664 291.547 426.944C292.219 426.224 293.107 425.864 294.211 425.864ZM308.171 424.256C307.355 424.256 306.611 424.448 305.939 424.832C305.267 425.192 304.715 425.72 304.283 426.416V424.592H302.363V437H304.283V429.512C304.355 428.384 304.715 427.496 305.387 426.824C306.011 426.2 306.755 425.888 307.619 425.888C309.779 425.888 310.883 427.088 310.883 429.512V437H312.803V429.368C312.803 425.96 311.243 424.256 308.171 424.256ZM319.081 420.584L317.185 421.376V424.592H314.689V426.2H317.185V434.096C317.185 435.032 317.377 435.728 317.785 436.208C318.217 436.736 318.961 437 319.969 437H321.841V435.392H320.257C319.825 435.392 319.513 435.272 319.345 435.08C319.153 434.888 319.081 434.552 319.081 434.096V426.2H322.153V424.592H319.081V420.584ZM172.87 443.864C171.814 443.864 170.998 444.152 170.446 444.752C169.918 445.328 169.654 446.12 169.654 447.176V448.592H166.534V450.2H169.654V461H171.574V450.2H175.078V448.592H171.574V447.224C171.574 446.624 171.694 446.192 171.934 445.928C172.174 445.64 172.582 445.52 173.11 445.52H175.246V443.864H172.87ZM182.303 448.256C181.439 448.256 180.695 448.52 180.047 449.048C179.519 449.456 179.087 450.032 178.751 450.752V448.592H176.855V461H178.751V454.424C178.751 453.272 179.063 452.288 179.735 451.472C180.383 450.608 181.199 450.2 182.159 450.2C182.759 450.2 183.383 450.272 184.007 450.464V448.544C183.551 448.352 182.975 448.256 182.303 448.256ZM191.165 448.256C189.293 448.256 187.829 448.88 186.725 450.176C185.669 451.4 185.141 452.936 185.141 454.808C185.141 456.656 185.669 458.192 186.725 459.392C187.829 460.688 189.293 461.336 191.165 461.336C193.013 461.336 194.501 460.688 195.629 459.392C196.661 458.192 197.189 456.656 197.189 454.808C197.189 452.936 196.661 451.4 195.605 450.176C194.501 448.88 193.013 448.256 191.165 448.256ZM191.165 449.864C192.461 449.864 193.493 450.368 194.261 451.376C194.909 452.288 195.245 453.416 195.245 454.808C195.245 456.152 194.909 457.304 194.261 458.216C193.493 459.224 192.461 459.728 191.165 459.728C189.845 459.728 188.813 459.224 188.093 458.216C187.421 457.304 187.109 456.176 187.109 454.808C187.109 453.416 187.421 452.288 188.093 451.376C188.813 450.368 189.845 449.864 191.165 449.864ZM205.107 448.256C203.715 448.256 202.539 448.904 201.603 450.248V448.592H199.683V461H201.603V453.44C201.603 452.456 201.891 451.616 202.467 450.944C203.043 450.224 203.763 449.888 204.651 449.888C206.547 449.888 207.507 450.968 207.507 453.176V461H209.427V453.224C209.427 452.216 209.691 451.424 210.267 450.8C210.795 450.176 211.491 449.888 212.307 449.888C213.363 449.888 214.131 450.152 214.611 450.728C215.067 451.256 215.307 452.072 215.307 453.176V461H217.227V452.864C217.227 451.448 216.819 450.32 216.051 449.48C215.235 448.664 214.203 448.256 212.907 448.256C212.043 448.256 211.323 448.448 210.723 448.832C210.051 449.192 209.475 449.792 208.995 450.608C208.299 449.024 207.003 448.256 205.107 448.256ZM231.519 444.584L229.623 445.376V448.592H227.127V450.2H229.623V458.096C229.623 459.032 229.815 459.728 230.223 460.208C230.655 460.736 231.399 461 232.407 461H234.279V459.392H232.695C232.263 459.392 231.951 459.272 231.783 459.08C231.591 458.888 231.519 458.552 231.519 458.096V450.2H234.591V448.592H231.519V444.584ZM236.738 443.528V461H238.658V453.92C238.658 452.768 238.97 451.784 239.618 451.016C240.242 450.248 241.034 449.864 241.994 449.864C243.026 449.864 243.818 450.176 244.394 450.8C244.922 451.424 245.21 452.312 245.21 453.464V461H247.13V453.176C247.13 451.592 246.746 450.368 245.978 449.528C245.21 448.664 244.082 448.256 242.642 448.256C241.802 448.256 241.058 448.448 240.386 448.832C239.666 449.24 239.09 449.84 238.658 450.632V443.528H236.738ZM255.186 448.256C253.386 448.256 251.97 448.904 250.914 450.2C249.858 451.424 249.354 452.96 249.354 454.784C249.354 456.8 249.882 458.384 250.986 459.584C252.042 460.736 253.482 461.336 255.258 461.336C256.866 461.336 258.186 460.856 259.218 459.944C260.058 459.176 260.61 458.216 260.898 457.016H258.978C258.666 457.88 258.258 458.528 257.73 458.96C257.106 459.464 256.266 459.728 255.258 459.728C254.082 459.728 253.146 459.344 252.474 458.576C251.802 457.808 251.442 456.728 251.346 455.336H261.138C261.09 453.176 260.61 451.472 259.698 450.272C258.69 448.928 257.178 448.256 255.186 448.256ZM255.234 449.864C257.586 449.864 258.906 451.184 259.146 453.848H251.394C251.514 452.624 251.898 451.664 252.57 450.944C253.242 450.224 254.13 449.864 255.234 449.864ZM271.763 443.528V461H273.659V443.528H271.763ZM278.611 443.912C278.203 443.912 277.867 444.032 277.579 444.32C277.291 444.56 277.171 444.896 277.171 445.328C277.171 445.736 277.291 446.072 277.579 446.36C277.867 446.624 278.203 446.768 278.611 446.768C279.019 446.768 279.355 446.624 279.643 446.36C279.931 446.072 280.075 445.736 280.075 445.328C280.075 444.896 279.931 444.56 279.643 444.32C279.355 444.032 279.019 443.912 278.611 443.912ZM277.651 448.592V461H279.571V448.592H277.651ZM283.168 443.528V461H284.968V458.96C285.808 460.544 287.176 461.336 289.096 461.336C290.896 461.336 292.312 460.664 293.344 459.368C294.256 458.168 294.736 456.632 294.736 454.76C294.736 452.936 294.256 451.448 293.344 450.248C292.336 448.904 290.944 448.256 289.192 448.256C287.416 448.256 286.048 449.12 285.088 450.872V443.528H283.168ZM288.784 449.84C290.128 449.84 291.136 450.32 291.832 451.28C292.456 452.12 292.768 453.272 292.768 454.76C292.768 456.248 292.456 457.424 291.88 458.288C291.208 459.248 290.2 459.752 288.856 459.752C287.608 459.752 286.624 459.272 285.952 458.312C285.328 457.448 285.016 456.32 285.016 454.928V454.688C285.016 453.248 285.352 452.072 286.072 451.184C286.744 450.272 287.656 449.84 288.784 449.84ZM302.678 448.256C301.814 448.256 301.07 448.52 300.422 449.048C299.894 449.456 299.462 450.032 299.126 450.752V448.592H297.23V461H299.126V454.424C299.126 453.272 299.438 452.288 300.11 451.472C300.758 450.608 301.574 450.2 302.534 450.2C303.134 450.2 303.758 450.272 304.382 450.464V448.544C303.926 448.352 303.35 448.256 302.678 448.256ZM311.396 448.256C309.908 448.256 308.732 448.544 307.82 449.12C306.812 449.744 306.164 450.728 305.9 452.024L307.796 452.168C307.988 451.376 308.396 450.776 309.044 450.392C309.62 450.008 310.364 449.84 311.276 449.84C313.436 449.84 314.516 450.872 314.516 452.96V453.608L311.54 453.656C309.668 453.68 308.228 454.04 307.22 454.712C306.068 455.432 305.516 456.488 305.516 457.904C305.516 458.912 305.9 459.752 306.668 460.4C307.412 461.024 308.396 461.336 309.644 461.336C310.796 461.336 311.828 461.072 312.74 460.568C313.508 460.136 314.156 459.584 314.636 458.912V461H316.436V453.032C316.436 451.592 316.052 450.464 315.332 449.648C314.468 448.712 313.172 448.256 311.396 448.256ZM314.516 455.048V456.104C314.516 457.064 314.06 457.928 313.172 458.672C312.26 459.44 311.228 459.824 310.052 459.824C309.284 459.824 308.66 459.632 308.18 459.272C307.7 458.888 307.484 458.432 307.484 457.856C307.484 456.056 308.876 455.144 311.66 455.096L314.516 455.048ZM324.85 448.256C323.986 448.256 323.242 448.52 322.594 449.048C322.066 449.456 321.634 450.032 321.298 450.752V448.592H319.402V461H321.298V454.424C321.298 453.272 321.61 452.288 322.282 451.472C322.93 450.608 323.746 450.2 324.706 450.2C325.306 450.2 325.93 450.272 326.554 450.464V448.544C326.098 448.352 325.522 448.256 324.85 448.256ZM326.8 448.592L331.72 460.712L329.584 465.752H331.672L338.464 448.592H336.352L332.68 458.384L328.888 448.592H326.8Z" fill="black"/>
<rect x="808" y="168" width="200" height="80" rx="24" fill="#919191"/>
<path d="M851.814 184.864V202H853.782V194.032H862.782V192.328H853.782V186.568H863.286V184.864H851.814ZM870.538 189.256C868.738 189.256 867.322 189.904 866.266 191.2C865.21 192.424 864.706 193.96 864.706 195.784C864.706 197.8 865.234 199.384 866.338 200.584C867.394 201.736 868.834 202.336 870.61 202.336C872.218 202.336 873.538 201.856 874.57 200.944C875.41 200.176 875.962 199.216 876.25 198.016H874.33C874.018 198.88 873.61 199.528 873.082 199.96C872.458 200.464 871.618 200.728 870.61 200.728C869.434 200.728 868.498 200.344 867.826 199.576C867.154 198.808 866.794 197.728 866.698 196.336H876.49C876.442 194.176 875.962 192.472 875.05 191.272C874.042 189.928 872.53 189.256 870.538 189.256ZM870.586 190.864C872.938 190.864 874.258 192.184 874.498 194.848H866.746C866.866 193.624 867.25 192.664 867.922 191.944C868.594 191.224 869.482 190.864 870.586 190.864ZM883.85 189.256C882.05 189.256 880.634 189.904 879.578 191.2C878.522 192.424 878.018 193.96 878.018 195.784C878.018 197.8 878.546 199.384 879.65 200.584C880.706 201.736 882.146 202.336 883.922 202.336C885.53 202.336 886.85 201.856 887.882 200.944C888.722 200.176 889.274 199.216 889.562 198.016H887.642C887.33 198.88 886.922 199.528 886.394 199.96C885.77 200.464 884.93 200.728 883.922 200.728C882.746 200.728 881.81 200.344 881.138 199.576C880.466 198.808 880.106 197.728 880.01 196.336H889.802C889.754 194.176 889.274 192.472 888.362 191.272C887.354 189.928 885.842 189.256 883.85 189.256ZM883.898 190.864C886.25 190.864 887.57 192.184 887.81 194.848H880.058C880.178 193.624 880.562 192.664 881.234 191.944C881.906 191.224 882.794 190.864 883.898 190.864ZM901.219 184.528V191.872C900.259 190.12 898.891 189.256 897.115 189.256C895.339 189.256 893.971 189.904 892.963 191.248C892.027 192.448 891.571 193.936 891.571 195.76C891.571 197.632 892.027 199.168 892.963 200.368C893.971 201.664 895.387 202.336 897.211 202.336C899.083 202.336 900.475 201.544 901.339 199.96V202H903.139V184.528H901.219ZM897.523 190.84C898.627 190.84 899.539 191.272 900.235 192.184C900.907 193.072 901.267 194.248 901.267 195.688V195.928C901.267 197.32 900.955 198.448 900.355 199.312C899.659 200.272 898.699 200.752 897.451 200.752C896.107 200.752 895.099 200.248 894.427 199.288C893.827 198.424 893.539 197.248 893.539 195.76C893.539 194.272 893.827 193.12 894.451 192.28C895.123 191.32 896.155 190.84 897.523 190.84ZM906.113 184.528V202H907.913V199.96C908.753 201.544 910.121 202.336 912.041 202.336C913.841 202.336 915.257 201.664 916.289 200.368C917.201 199.168 917.681 197.632 917.681 195.76C917.681 193.936 917.201 192.448 916.289 191.248C915.281 189.904 913.889 189.256 912.137 189.256C910.361 189.256 908.993 190.12 908.033 191.872V184.528H906.113ZM911.729 190.84C913.073 190.84 914.081 191.32 914.777 192.28C915.401 193.12 915.713 194.272 915.713 195.76C915.713 197.248 915.401 198.424 914.825 199.288C914.153 200.248 913.145 200.752 911.801 200.752C910.553 200.752 909.569 200.272 908.897 199.312C908.273 198.448 907.961 197.32 907.961 195.928V195.688C907.961 194.248 908.297 193.072 909.017 192.184C909.689 191.272 910.601 190.84 911.729 190.84ZM925.576 189.256C924.088 189.256 922.912 189.544 922 190.12C920.992 190.744 920.344 191.728 920.08 193.024L921.976 193.168C922.168 192.376 922.576 191.776 923.224 191.392C923.8 191.008 924.544 190.84 925.456 190.84C927.616 190.84 928.696 191.872 928.696 193.96V194.608L925.72 194.656C923.848 194.68 922.408 195.04 921.4 195.712C920.248 196.432 919.696 197.488 919.696 198.904C919.696 199.912 920.08 200.752 920.848 201.4C921.592 202.024 922.576 202.336 923.824 202.336C924.976 202.336 926.008 202.072 926.92 201.568C927.688 201.136 928.336 200.584 928.816 199.912V202H930.616V194.032C930.616 192.592 930.232 191.464 929.512 190.648C928.648 189.712 927.352 189.256 925.576 189.256ZM928.696 196.048V197.104C928.696 198.064 928.24 198.928 927.352 199.672C926.44 200.44 925.408 200.824 924.232 200.824C923.464 200.824 922.84 200.632 922.36 200.272C921.88 199.888 921.664 199.432 921.664 198.856C921.664 197.056 923.056 196.144 925.84 196.096L928.696 196.048ZM938.934 189.256C937.086 189.256 935.622 189.904 934.566 191.224C933.582 192.424 933.102 193.96 933.102 195.856C933.102 197.752 933.582 199.288 934.566 200.464C935.598 201.712 937.038 202.336 938.91 202.336C940.446 202.336 941.67 201.928 942.606 201.136C943.566 200.32 944.166 199.096 944.454 197.512H942.534C942.246 199.648 941.022 200.728 938.91 200.728C937.662 200.728 936.702 200.272 936.054 199.408C935.382 198.544 935.07 197.344 935.07 195.832C935.07 194.32 935.406 193.12 936.078 192.232C936.774 191.32 937.734 190.864 938.934 190.864C939.918 190.864 940.71 191.08 941.334 191.56C941.934 192.04 942.318 192.76 942.486 193.72H944.382C944.166 192.208 943.59 191.08 942.63 190.336C941.694 189.616 940.47 189.256 938.934 189.256ZM946.707 184.528V202H948.627V197.608L950.595 195.832L955.443 202H957.915L951.915 194.584L957.387 189.592H954.843L948.627 195.352V184.528H946.707ZM823.28 209.584L821.384 210.376V213.592H818.888V215.2H821.384V223.096C821.384 224.032 821.576 224.728 821.984 225.208C822.416 225.736 823.16 226 824.168 226H826.04V224.392H824.456C824.024 224.392 823.712 224.272 823.544 224.08C823.352 223.888 823.28 223.552 823.28 223.096V215.2H826.352V213.592H823.28V209.584ZM833.948 213.256C833.084 213.256 832.34 213.52 831.692 214.048C831.164 214.456 830.732 215.032 830.396 215.752V213.592H828.5V226H830.396V219.424C830.396 218.272 830.708 217.288 831.38 216.472C832.028 215.608 832.844 215.2 833.804 215.2C834.404 215.2 835.028 215.272 835.652 215.464V213.544C835.196 213.352 834.62 213.256 833.948 213.256ZM842.665 213.256C841.177 213.256 840.001 213.544 839.089 214.12C838.081 214.744 837.433 215.728 837.169 217.024L839.065 217.168C839.257 216.376 839.665 215.776 840.313 215.392C840.889 215.008 841.633 214.84 842.545 214.84C844.705 214.84 845.785 215.872 845.785 217.96V218.608L842.809 218.656C840.937 218.68 839.497 219.04 838.489 219.712C837.337 220.432 836.785 221.488 836.785 222.904C836.785 223.912 837.169 224.752 837.937 225.4C838.681 226.024 839.665 226.336 840.913 226.336C842.065 226.336 843.097 226.072 844.009 225.568C844.777 225.136 845.425 224.584 845.905 223.912V226H847.705V218.032C847.705 216.592 847.321 215.464 846.601 214.648C845.737 213.712 844.441 213.256 842.665 213.256ZM845.785 220.048V221.104C845.785 222.064 845.329 222.928 844.441 223.672C843.529 224.44 842.497 224.824 841.321 224.824C840.553 224.824 839.929 224.632 839.449 224.272C838.969 223.888 838.753 223.432 838.753 222.856C838.753 221.056 840.145 220.144 842.929 220.096L845.785 220.048ZM852.256 208.912C851.848 208.912 851.512 209.032 851.224 209.32C850.936 209.56 850.816 209.896 850.816 210.328C850.816 210.736 850.936 211.072 851.224 211.36C851.512 211.624 851.848 211.768 852.256 211.768C852.664 211.768 853 211.624 853.288 211.36C853.576 211.072 853.72 210.736 853.72 210.328C853.72 209.896 853.576 209.56 853.288 209.32C853 209.032 852.664 208.912 852.256 208.912ZM851.296 213.592V226H853.216V213.592H851.296ZM862.62 213.256C861.804 213.256 861.06 213.448 860.388 213.832C859.716 214.192 859.164 214.72 858.732 215.416V213.592H856.812V226H858.732V218.512C858.804 217.384 859.164 216.496 859.836 215.824C860.46 215.2 861.204 214.888 862.068 214.888C864.228 214.888 865.332 216.088 865.332 218.512V226H867.252V218.368C867.252 214.96 865.692 213.256 862.62 213.256ZM871.802 208.912C871.394 208.912 871.058 209.032 870.77 209.32C870.482 209.56 870.362 209.896 870.362 210.328C870.362 210.736 870.482 211.072 870.77 211.36C871.058 211.624 871.394 211.768 871.802 211.768C872.21 211.768 872.546 211.624 872.834 211.36C873.122 211.072 873.266 210.736 873.266 210.328C873.266 209.896 873.122 209.56 872.834 209.32C872.546 209.032 872.21 208.912 871.802 208.912ZM870.842 213.592V226H872.762V213.592H870.842ZM882.167 213.256C881.351 213.256 880.607 213.448 879.935 213.832C879.263 214.192 878.711 214.72 878.279 215.416V213.592H876.359V226H878.279V218.512C878.351 217.384 878.711 216.496 879.383 215.824C880.007 215.2 880.751 214.888 881.615 214.888C883.775 214.888 884.879 216.088 884.879 218.512V226H886.799V218.368C886.799 214.96 885.239 213.256 882.167 213.256ZM894.877 213.256C893.149 213.256 891.781 213.856 890.773 215.08C889.765 216.232 889.285 217.696 889.285 219.52C889.285 221.32 889.765 222.784 890.773 223.936C891.781 225.112 893.149 225.712 894.877 225.712C896.749 225.712 898.141 224.872 899.053 223.216V225.4C899.053 228.136 897.805 229.528 895.309 229.528C894.181 229.528 893.341 229.312 892.789 228.904C892.237 228.52 891.877 227.896 891.733 227.056H889.813C890.029 228.4 890.581 229.408 891.469 230.08C892.333 230.752 893.629 231.088 895.309 231.088C899.077 231.088 900.973 229.096 900.973 225.136V213.592H899.053V215.728C898.141 214.072 896.749 213.256 894.877 213.256ZM895.165 214.84C896.389 214.84 897.349 215.272 898.069 216.184C898.741 217 899.077 218.128 899.077 219.52C899.077 220.864 898.741 221.968 898.069 222.808C897.349 223.672 896.389 224.104 895.141 224.104C893.797 224.104 892.813 223.624 892.141 222.712C891.541 221.896 891.253 220.816 891.253 219.52C891.253 218.128 891.589 217 892.261 216.184C892.957 215.272 893.917 214.84 895.165 214.84ZM916.905 208.864C915.849 208.864 915.033 209.152 914.481 209.752C913.953 210.328 913.689 211.12 913.689 212.176V213.592H910.569V215.2H913.689V226H915.609V215.2H919.113V213.592H915.609V212.224C915.609 211.624 915.729 211.192 915.969 210.928C916.209 210.64 916.617 210.52 917.145 210.52H919.281V208.864H916.905ZM926.002 213.256C924.202 213.256 922.786 213.904 921.73 215.2C920.674 216.424 920.17 217.96 920.17 219.784C920.17 221.8 920.698 223.384 921.802 224.584C922.858 225.736 924.298 226.336 926.074 226.336C927.682 226.336 929.002 225.856 930.034 224.944C930.874 224.176 931.426 223.216 931.714 222.016H929.794C929.482 222.88 929.074 223.528 928.546 223.96C927.922 224.464 927.082 224.728 926.074 224.728C924.898 224.728 923.962 224.344 923.29 223.576C922.618 222.808 922.258 221.728 922.162 220.336H931.954C931.906 218.176 931.426 216.472 930.514 215.272C929.506 213.928 927.994 213.256 926.002 213.256ZM926.05 214.864C928.402 214.864 929.722 216.184 929.962 218.848H922.21C922.33 217.624 922.714 216.664 923.386 215.944C924.058 215.224 924.946 214.864 926.05 214.864ZM939.315 213.256C937.515 213.256 936.099 213.904 935.043 215.2C933.987 216.424 933.483 217.96 933.483 219.784C933.483 221.8 934.011 223.384 935.115 224.584C936.171 225.736 937.611 226.336 939.387 226.336C940.995 226.336 942.315 225.856 943.347 224.944C944.187 224.176 944.739 223.216 945.027 222.016H943.107C942.795 222.88 942.387 223.528 941.859 223.96C941.235 224.464 940.395 224.728 939.387 224.728C938.211 224.728 937.275 224.344 936.603 223.576C935.931 222.808 935.571 221.728 935.475 220.336H945.267C945.219 218.176 944.739 216.472 943.827 215.272C942.819 213.928 941.307 213.256 939.315 213.256ZM939.363 214.864C941.715 214.864 943.035 216.184 943.275 218.848H935.523C935.643 217.624 936.027 216.664 936.699 215.944C937.371 215.224 938.259 214.864 939.363 214.864ZM947.899 208.528V226H949.795V208.528H947.899ZM954.748 208.912C954.34 208.912 954.004 209.032 953.716 209.32C953.428 209.56 953.308 209.896 953.308 210.328C953.308 210.736 953.428 211.072 953.716 211.36C954.004 211.624 954.34 211.768 954.748 211.768C955.156 211.768 955.492 211.624 955.78 211.36C956.068 211.072 956.212 210.736 956.212 210.328C956.212 209.896 956.068 209.56 955.78 209.32C955.492 209.032 955.156 208.912 954.748 208.912ZM953.788 213.592V226H955.708V213.592H953.788ZM965.112 213.256C964.296 213.256 963.552 213.448 962.88 213.832C962.208 214.192 961.656 214.72 961.224 215.416V213.592H959.304V226H961.224V218.512C961.296 217.384 961.656 216.496 962.328 215.824C962.952 215.2 963.696 214.888 964.56 214.888C966.72 214.888 967.824 216.088 967.824 218.512V226H969.744V218.368C969.744 214.96 968.184 213.256 965.112 213.256ZM977.823 213.256C976.095 213.256 974.727 213.856 973.719 215.08C972.711 216.232 972.231 217.696 972.231 219.52C972.231 221.32 972.711 222.784 973.719 223.936C974.727 225.112 976.095 225.712 977.823 225.712C979.695 225.712 981.087 224.872 981.999 223.216V225.4C981.999 228.136 980.751 229.528 978.255 229.528C977.127 229.528 976.287 229.312 975.735 228.904C975.183 228.52 974.823 227.896 974.679 227.056H972.759C972.975 228.4 973.527 229.408 974.415 230.08C975.279 230.752 976.575 231.088 978.255 231.088C982.023 231.088 983.919 229.096 983.919 225.136V213.592H981.999V215.728C981.087 214.072 979.695 213.256 977.823 213.256ZM978.111 214.84C979.335 214.84 980.295 215.272 981.015 216.184C981.687 217 982.023 218.128 982.023 219.52C982.023 220.864 981.687 221.968 981.015 222.808C980.295 223.672 979.335 224.104 978.087 224.104C976.743 224.104 975.759 223.624 975.087 222.712C974.487 221.896 974.199 220.816 974.199 219.52C974.199 218.128 974.535 217 975.207 216.184C975.903 215.272 976.863 214.84 978.111 214.84ZM991.282 213.256C989.89 213.256 988.738 213.568 987.874 214.192C986.938 214.816 986.482 215.632 986.482 216.688C986.482 217.744 986.938 218.536 987.898 219.112C988.474 219.496 989.506 219.856 990.97 220.216C992.314 220.552 993.202 220.816 993.61 221.008C994.378 221.392 994.786 221.92 994.786 222.616C994.786 224.008 993.658 224.728 991.45 224.728C990.394 224.728 989.602 224.536 989.074 224.152C988.546 223.72 988.186 223.024 988.042 222.04H986.17C986.458 224.896 988.234 226.336 991.498 226.336C995.002 226.336 996.754 225.04 996.754 222.496C996.754 221.416 996.25 220.576 995.266 219.952C994.618 219.544 993.562 219.16 992.074 218.8C990.826 218.464 989.962 218.2 989.506 217.984C988.786 217.624 988.45 217.168 988.45 216.64C988.45 216.088 988.714 215.656 989.242 215.344C989.722 215.008 990.394 214.864 991.258 214.864C992.242 214.864 993.01 215.056 993.538 215.44C994.018 215.776 994.33 216.352 994.498 217.12H996.37C996.034 214.528 994.354 213.256 991.282 213.256Z" fill="black"/>
<rect x="808" y="400" width="200" height="80" rx="24" fill="#909090"/>
<path d="M830.744 431.864L824 449H826.112L827.936 444.2H835.808L837.632 449H839.768L833.024 431.864H830.744ZM828.56 442.544L831.848 433.976H831.944L835.184 442.544H828.56ZM850.429 431.528V438.872C849.469 437.12 848.101 436.256 846.325 436.256C844.549 436.256 843.181 436.904 842.173 438.248C841.237 439.448 840.781 440.936 840.781 442.76C840.781 444.632 841.237 446.168 842.173 447.368C843.181 448.664 844.597 449.336 846.421 449.336C848.293 449.336 849.685 448.544 850.549 446.96V449H852.349V431.528H850.429ZM846.733 437.84C847.837 437.84 848.749 438.272 849.445 439.184C850.117 440.072 850.477 441.248 850.477 442.688V442.928C850.477 444.32 850.165 445.448 849.565 446.312C848.869 447.272 847.909 447.752 846.661 447.752C845.317 447.752 844.309 447.248 843.637 446.288C843.037 445.424 842.749 444.248 842.749 442.76C842.749 441.272 843.037 440.12 843.661 439.28C844.333 438.32 845.365 437.84 846.733 437.84ZM857.148 431.912C856.74 431.912 856.404 432.032 856.116 432.32C855.828 432.56 855.708 432.896 855.708 433.328C855.708 433.736 855.828 434.072 856.116 434.36C856.404 434.624 856.74 434.768 857.148 434.768C857.556 434.768 857.916 434.624 858.204 434.36C858.468 434.072 858.612 433.736 858.612 433.328C858.612 432.896 858.468 432.56 858.204 432.32C857.916 432.032 857.556 431.912 857.148 431.912ZM856.188 436.592V450.368C856.188 451.544 855.612 452.144 854.484 452.144H853.476V453.752H854.628C856.932 453.752 858.108 452.648 858.108 450.44V436.592H856.188ZM861.722 436.592V444.272C861.722 447.632 863.21 449.336 866.234 449.336C867.914 449.336 869.258 448.568 870.266 447.08V449H872.186V436.592H870.266V444.152C870.122 445.208 869.714 446.072 869.042 446.744C868.394 447.368 867.65 447.704 866.834 447.704C865.706 447.704 864.89 447.392 864.386 446.816C863.882 446.24 863.642 445.352 863.642 444.176V436.592H861.722ZM879.544 436.256C878.152 436.256 877 436.568 876.136 437.192C875.2 437.816 874.744 438.632 874.744 439.688C874.744 440.744 875.2 441.536 876.16 442.112C876.736 442.496 877.768 442.856 879.232 443.216C880.576 443.552 881.464 443.816 881.872 444.008C882.64 444.392 883.048 444.92 883.048 445.616C883.048 447.008 881.92 447.728 879.712 447.728C878.656 447.728 877.864 447.536 877.336 447.152C876.808 446.72 876.448 446.024 876.304 445.04H874.432C874.72 447.896 876.496 449.336 879.76 449.336C883.264 449.336 885.016 448.04 885.016 445.496C885.016 444.416 884.512 443.576 883.528 442.952C882.88 442.544 881.824 442.16 880.336 441.8C879.088 441.464 878.224 441.2 877.768 440.984C877.048 440.624 876.712 440.168 876.712 439.64C876.712 439.088 876.976 438.656 877.504 438.344C877.984 438.008 878.656 437.864 879.52 437.864C880.504 437.864 881.272 438.056 881.8 438.44C882.28 438.776 882.592 439.352 882.76 440.12H884.632C884.296 437.528 882.616 436.256 879.544 436.256ZM890.581 432.584L888.685 433.376V436.592H886.189V438.2H888.685V446.096C888.685 447.032 888.877 447.728 889.285 448.208C889.717 448.736 890.461 449 891.469 449H893.341V447.392H891.757C891.325 447.392 891.013 447.272 890.845 447.08C890.653 446.888 890.581 446.552 890.581 446.096V438.2H893.653V436.592H890.581V432.584ZM907.105 432.584L905.209 433.376V436.592H902.713V438.2H905.209V446.096C905.209 447.032 905.401 447.728 905.809 448.208C906.241 448.736 906.985 449 907.993 449H909.865V447.392H908.281C907.849 447.392 907.537 447.272 907.369 447.08C907.177 446.888 907.105 446.552 907.105 446.096V438.2H910.177V436.592H907.105V432.584ZM912.324 431.528V449H914.244V441.92C914.244 440.768 914.556 439.784 915.204 439.016C915.828 438.248 916.62 437.864 917.58 437.864C918.612 437.864 919.404 438.176 919.98 438.8C920.508 439.424 920.796 440.312 920.796 441.464V449H922.716V441.176C922.716 439.592 922.332 438.368 921.564 437.528C920.796 436.664 919.668 436.256 918.228 436.256C917.388 436.256 916.644 436.448 915.972 436.832C915.252 437.24 914.676 437.84 914.244 438.632V431.528H912.324ZM930.772 436.256C928.972 436.256 927.556 436.904 926.5 438.2C925.444 439.424 924.94 440.96 924.94 442.784C924.94 444.8 925.468 446.384 926.572 447.584C927.628 448.736 929.068 449.336 930.844 449.336C932.452 449.336 933.772 448.856 934.804 447.944C935.644 447.176 936.196 446.216 936.484 445.016H934.564C934.252 445.88 933.844 446.528 933.316 446.96C932.692 447.464 931.852 447.728 930.844 447.728C929.668 447.728 928.732 447.344 928.06 446.576C927.388 445.808 927.028 444.728 926.932 443.336H936.724C936.676 441.176 936.196 439.472 935.284 438.272C934.276 436.928 932.764 436.256 930.772 436.256ZM930.82 437.864C933.172 437.864 934.492 439.184 934.732 441.848H926.98C927.1 440.624 927.484 439.664 928.156 438.944C928.828 438.224 929.716 437.864 930.82 437.864ZM952.893 436.256C951.021 436.256 949.653 437.048 948.765 438.632V436.592H946.965V453.752H948.885V446.744C949.845 448.472 951.213 449.336 952.989 449.336C954.765 449.336 956.133 448.664 957.141 447.368C958.053 446.168 958.533 444.656 958.533 442.832C958.533 440.96 958.053 439.448 957.117 438.248C956.085 436.904 954.669 436.256 952.893 436.256ZM952.653 437.84C953.973 437.84 954.981 438.32 955.677 439.328C956.253 440.192 956.565 441.368 956.565 442.832C956.565 444.32 956.253 445.496 955.629 446.36C954.933 447.272 953.925 447.752 952.581 447.752C951.429 447.752 950.541 447.296 949.869 446.432C949.149 445.544 948.813 444.392 948.813 442.952V442.712C948.813 441.32 949.125 440.168 949.749 439.304C950.421 438.32 951.405 437.84 952.653 437.84ZM961.411 431.528V449H963.307V431.528H961.411ZM972.076 436.256C970.588 436.256 969.412 436.544 968.5 437.12C967.492 437.744 966.844 438.728 966.58 440.024L968.476 440.168C968.668 439.376 969.076 438.776 969.724 438.392C970.3 438.008 971.044 437.84 971.956 437.84C974.116 437.84 975.196 438.872 975.196 440.96V441.608L972.22 441.656C970.348 441.68 968.908 442.04 967.9 442.712C966.748 443.432 966.196 444.488 966.196 445.904C966.196 446.912 966.58 447.752 967.348 448.4C968.092 449.024 969.076 449.336 970.324 449.336C971.476 449.336 972.508 449.072 973.42 448.568C974.188 448.136 974.836 447.584 975.316 446.912V449H977.116V441.032C977.116 439.592 976.732 438.464 976.012 437.648C975.148 436.712 973.852 436.256 972.076 436.256ZM975.196 443.048V444.104C975.196 445.064 974.74 445.928 973.852 446.672C972.94 447.44 971.908 447.824 970.732 447.824C969.964 447.824 969.34 447.632 968.86 447.272C968.38 446.888 968.164 446.432 968.164 445.856C968.164 444.056 969.556 443.144 972.34 443.096L975.196 443.048ZM985.89 436.256C985.074 436.256 984.33 436.448 983.658 436.832C982.986 437.192 982.434 437.72 982.002 438.416V436.592H980.082V449H982.002V441.512C982.074 440.384 982.434 439.496 983.106 438.824C983.73 438.2 984.474 437.888 985.338 437.888C987.498 437.888 988.602 439.088 988.602 441.512V449H990.522V441.368C990.522 437.96 988.962 436.256 985.89 436.256Z" fill="black"/>
<path d="M86.4472 219.963L86 219.068L86 219.068L86.4472 219.963ZM81.8235 222.275L81.3763 221.38L80.8897 221.624L80.8296 222.164L81.8235 222.275ZM79.0988 246.797L80.0927 246.907L80.0927 246.907L79.0988 246.797ZM62.9012 246.797L63.895 246.687L63.895 246.687L62.9012 246.797ZM60.1765 222.275L61.1704 222.164L61.1103 221.624L60.6237 221.38L60.1765 222.275ZM55.5528 219.963L56 219.068L56 219.068L55.5528 219.963ZM88 203.687C88 194.298 80.3888 186.687 71 186.687V188.687C79.2843 188.687 86 195.402 86 203.687H88ZM88 219.068L88 203.687H86L86 219.068H88ZM86.8944 220.857C87.572 220.519 88 219.826 88 219.068H86L86 219.068L86.8944 220.857ZM82.2707 223.169L86.8944 220.857L86 219.068L81.3763 221.38L82.2707 223.169ZM80.8296 222.164L78.105 246.687L80.0927 246.907L82.8174 222.385L80.8296 222.164ZM78.105 246.687L78.105 246.687V248.687C79.1241 248.687 79.9802 247.92 80.0927 246.907L78.105 246.687ZM78.105 246.687L63.895 246.687L63.895 248.687L78.105 248.687V246.687ZM63.895 246.687L63.895 246.687L61.9073 246.907C62.0198 247.92 62.8759 248.687 63.895 248.687L63.895 246.687ZM63.895 246.687L61.1704 222.164L59.1826 222.385L61.9073 246.907L63.895 246.687ZM55.1056 220.857L59.7293 223.169L60.6237 221.38L56 219.068L55.1056 220.857ZM54 219.068C54 219.826 54.428 220.519 55.1056 220.857L56 219.068L56 219.068H54ZM54 203.687L54 219.068H56L56 203.687H54ZM71 186.687C61.6112 186.687 54 194.298 54 203.687H56C56 195.402 62.7157 188.687 71 188.687V186.687Z" fill="#919191"/>
<circle cx="70.9999" cy="175.843" r="7.84314" stroke="#919191" stroke-width="2"/>
<path d="M75.7057 176.157C75.7057 178.582 73.5988 180.549 70.9998 180.549C68.4008 180.549 66.2939 178.582 66.2939 176.157" stroke="#919191" stroke-width="2"/>
<rect x="49" y="401" width="43.7143" height="78" rx="8" stroke="#909090" stroke-width="2"/>
<rect x="53.5713" y="409" width="34.5714" height="25.4286" rx="3" stroke="#909090" stroke-width="2"/>
<rect x="53.5713" y="438.714" width="15.1429" height="16.2857" rx="3" stroke="#909090" stroke-width="2"/>
<rect x="73" y="438.714" width="15.1429" height="16.2857" rx="3" stroke="#909090" stroke-width="2"/>
<path d="M48.12 51.864L53.04 69H55.224L59.136 54.72H59.208L63.096 69H65.28L70.2 51.864H67.992L64.224 66.24H64.128L60.24 51.864H58.104L54.192 66.24H54.096L50.328 51.864H48.12ZM71.8005 51.528V69H73.7205V61.92C73.7205 60.768 74.0325 59.784 74.6805 59.016C75.3045 58.248 76.0965 57.864 77.0565 57.864C78.0885 57.864 78.8805 58.176 79.4565 58.8C79.9845 59.424 80.2725 60.312 80.2725 61.464V69H82.1925V61.176C82.1925 59.592 81.8085 58.368 81.0405 57.528C80.2725 56.664 79.1445 56.256 77.7045 56.256C76.8645 56.256 76.1205 56.448 75.4485 56.832C74.7285 57.24 74.1525 57.84 73.7205 58.632V51.528H71.8005ZM90.5364 56.256C89.0484 56.256 87.8724 56.544 86.9604 57.12C85.9524 57.744 85.3044 58.728 85.0404 60.024L86.9364 60.168C87.1284 59.376 87.5364 58.776 88.1844 58.392C88.7604 58.008 89.5044 57.84 90.4164 57.84C92.5764 57.84 93.6564 58.872 93.6564 60.96V61.608L90.6804 61.656C88.8084 61.68 87.3684 62.04 86.3604 62.712C85.2084 63.432 84.6564 64.488 84.6564 65.904C84.6564 66.912 85.0404 67.752 85.8084 68.4C86.5524 69.024 87.5364 69.336 88.7844 69.336C89.9364 69.336 90.9684 69.072 91.8804 68.568C92.6484 68.136 93.2964 67.584 93.7764 66.912V69H95.5764V61.032C95.5764 59.592 95.1924 58.464 94.4724 57.648C93.6084 56.712 92.3124 56.256 90.5364 56.256ZM93.6564 63.048V64.104C93.6564 65.064 93.2004 65.928 92.3124 66.672C91.4004 67.44 90.3684 67.824 89.1924 67.824C88.4244 67.824 87.8004 67.632 87.3204 67.272C86.8404 66.888 86.6244 66.432 86.6244 65.856C86.6244 64.056 88.0164 63.144 90.8004 63.096L93.6564 63.048ZM101.855 52.584L99.9587 53.376V56.592H97.4627V58.2H99.9587V66.096C99.9587 67.032 100.151 67.728 100.559 68.208C100.991 68.736 101.735 69 102.743 69H104.615V67.392H103.031C102.599 67.392 102.287 67.272 102.119 67.08C101.927 66.888 101.855 66.552 101.855 66.096V58.2H104.927V56.592H101.855V52.584ZM116.65 51.912C116.242 51.912 115.906 52.032 115.618 52.32C115.33 52.56 115.21 52.896 115.21 53.328C115.21 53.736 115.33 54.072 115.618 54.36C115.906 54.624 116.242 54.768 116.65 54.768C117.058 54.768 117.394 54.624 117.682 54.36C117.97 54.072 118.114 53.736 118.114 53.328C118.114 52.896 117.97 52.56 117.682 52.32C117.394 52.032 117.058 51.912 116.65 51.912ZM115.69 56.592V69H117.61V56.592H115.69ZM125.599 56.256C124.207 56.256 123.055 56.568 122.191 57.192C121.255 57.816 120.799 58.632 120.799 59.688C120.799 60.744 121.255 61.536 122.215 62.112C122.791 62.496 123.823 62.856 125.287 63.216C126.631 63.552 127.519 63.816 127.927 64.008C128.695 64.392 129.103 64.92 129.103 65.616C129.103 67.008 127.975 67.728 125.767 67.728C124.711 67.728 123.919 67.536 123.391 67.152C122.863 66.72 122.503 66.024 122.359 65.04H120.487C120.775 67.896 122.551 69.336 125.815 69.336C129.319 69.336 131.071 68.04 131.071 65.496C131.071 64.416 130.567 63.576 129.583 62.952C128.935 62.544 127.879 62.16 126.391 61.8C125.143 61.464 124.279 61.2 123.823 60.984C123.103 60.624 122.767 60.168 122.767 59.64C122.767 59.088 123.031 58.656 123.559 58.344C124.039 58.008 124.711 57.864 125.575 57.864C126.559 57.864 127.327 58.056 127.855 58.44C128.335 58.776 128.647 59.352 128.815 60.12H130.687C130.351 57.528 128.671 56.256 125.599 56.256ZM144.628 52.584L142.732 53.376V56.592H140.236V58.2H142.732V66.096C142.732 67.032 142.924 67.728 143.332 68.208C143.764 68.736 144.508 69 145.516 69H147.388V67.392H145.804C145.372 67.392 145.06 67.272 144.892 67.08C144.7 66.888 144.628 66.552 144.628 66.096V58.2H147.7V56.592H144.628V52.584ZM149.847 51.528V69H151.767V61.92C151.767 60.768 152.079 59.784 152.727 59.016C153.351 58.248 154.143 57.864 155.103 57.864C156.135 57.864 156.927 58.176 157.503 58.8C158.031 59.424 158.319 60.312 158.319 61.464V69H160.239V61.176C160.239 59.592 159.855 58.368 159.087 57.528C158.319 56.664 157.191 56.256 155.751 56.256C154.911 56.256 154.167 56.448 153.495 56.832C152.775 57.24 152.199 57.84 151.767 58.632V51.528H149.847ZM168.295 56.256C166.495 56.256 165.079 56.904 164.023 58.2C162.967 59.424 162.463 60.96 162.463 62.784C162.463 64.8 162.991 66.384 164.095 67.584C165.151 68.736 166.591 69.336 168.367 69.336C169.975 69.336 171.295 68.856 172.327 67.944C173.167 67.176 173.719 66.216 174.007 65.016H172.087C171.775 65.88 171.367 66.528 170.839 66.96C170.215 67.464 169.375 67.728 168.367 67.728C167.191 67.728 166.255 67.344 165.583 66.576C164.911 65.808 164.551 64.728 164.455 63.336H174.247C174.199 61.176 173.719 59.472 172.807 58.272C171.799 56.928 170.287 56.256 168.295 56.256ZM168.343 57.864C170.695 57.864 172.015 59.184 172.255 61.848H164.503C164.623 60.624 165.007 59.664 165.679 58.944C166.351 58.224 167.239 57.864 168.343 57.864ZM188.88 56.256C187.488 56.256 186.336 56.568 185.472 57.192C184.536 57.816 184.08 58.632 184.08 59.688C184.08 60.744 184.536 61.536 185.496 62.112C186.072 62.496 187.104 62.856 188.568 63.216C189.912 63.552 190.8 63.816 191.208 64.008C191.976 64.392 192.384 64.92 192.384 65.616C192.384 67.008 191.256 67.728 189.048 67.728C187.992 67.728 187.2 67.536 186.672 67.152C186.144 66.72 185.784 66.024 185.64 65.04H183.768C184.056 67.896 185.832 69.336 189.096 69.336C192.6 69.336 194.352 68.04 194.352 65.496C194.352 64.416 193.848 63.576 192.864 62.952C192.216 62.544 191.16 62.16 189.672 61.8C188.424 61.464 187.56 61.2 187.104 60.984C186.384 60.624 186.048 60.168 186.048 59.64C186.048 59.088 186.312 58.656 186.84 58.344C187.32 58.008 187.992 57.864 188.856 57.864C189.84 57.864 190.608 58.056 191.136 58.44C191.616 58.776 191.928 59.352 192.096 60.12H193.968C193.632 57.528 191.952 56.256 188.88 56.256ZM198.189 51.912C197.781 51.912 197.445 52.032 197.157 52.32C196.869 52.56 196.749 52.896 196.749 53.328C196.749 53.736 196.869 54.072 197.157 54.36C197.445 54.624 197.781 54.768 198.189 54.768C198.597 54.768 198.933 54.624 199.221 54.36C199.509 54.072 199.653 53.736 199.653 53.328C199.653 52.896 199.509 52.56 199.221 52.32C198.933 52.032 198.597 51.912 198.189 51.912ZM197.229 56.592V69H199.149V56.592H197.229ZM206.058 52.584L204.162 53.376V56.592H201.666V58.2H204.162V66.096C204.162 67.032 204.354 67.728 204.762 68.208C205.194 68.736 205.938 69 206.946 69H208.818V67.392H207.234C206.802 67.392 206.49 67.272 206.322 67.08C206.13 66.888 206.058 66.552 206.058 66.096V58.2H209.13V56.592H206.058V52.584ZM211.277 56.592V64.272C211.277 67.632 212.765 69.336 215.789 69.336C217.469 69.336 218.813 68.568 219.821 67.08V69H221.741V56.592H219.821V64.152C219.677 65.208 219.269 66.072 218.597 66.744C217.949 67.368 217.205 67.704 216.389 67.704C215.261 67.704 214.445 67.392 213.941 66.816C213.437 66.24 213.197 65.352 213.197 64.176V56.592H211.277ZM230.107 56.256C228.619 56.256 227.443 56.544 226.531 57.12C225.523 57.744 224.875 58.728 224.611 60.024L226.507 60.168C226.699 59.376 227.107 58.776 227.755 58.392C228.331 58.008 229.075 57.84 229.987 57.84C232.147 57.84 233.227 58.872 233.227 60.96V61.608L230.251 61.656C228.379 61.68 226.939 62.04 225.931 62.712C224.779 63.432 224.227 64.488 224.227 65.904C224.227 66.912 224.611 67.752 225.379 68.4C226.123 69.024 227.107 69.336 228.355 69.336C229.507 69.336 230.539 69.072 231.451 68.568C232.219 68.136 232.867 67.584 233.347 66.912V69H235.147V61.032C235.147 59.592 234.763 58.464 234.043 57.648C233.179 56.712 231.883 56.256 230.107 56.256ZM233.227 63.048V64.104C233.227 65.064 232.771 65.928 231.883 66.672C230.971 67.44 229.939 67.824 228.763 67.824C227.995 67.824 227.371 67.632 226.891 67.272C226.411 66.888 226.195 66.432 226.195 65.856C226.195 64.056 227.587 63.144 230.371 63.096L233.227 63.048ZM241.425 52.584L239.529 53.376V56.592H237.033V58.2H239.529V66.096C239.529 67.032 239.721 67.728 240.129 68.208C240.561 68.736 241.305 69 242.313 69H244.185V67.392H242.601C242.169 67.392 241.857 67.272 241.689 67.08C241.497 66.888 241.425 66.552 241.425 66.096V58.2H244.497V56.592H241.425V52.584ZM248.228 51.912C247.82 51.912 247.484 52.032 247.196 52.32C246.908 52.56 246.788 52.896 246.788 53.328C246.788 53.736 246.908 54.072 247.196 54.36C247.484 54.624 247.82 54.768 248.228 54.768C248.636 54.768 248.972 54.624 249.26 54.36C249.548 54.072 249.692 53.736 249.692 53.328C249.692 52.896 249.548 52.56 249.26 52.32C248.972 52.032 248.636 51.912 248.228 51.912ZM247.268 56.592V69H249.188V56.592H247.268ZM258.329 56.256C256.457 56.256 254.993 56.88 253.889 58.176C252.833 59.4 252.305 60.936 252.305 62.808C252.305 64.656 252.833 66.192 253.889 67.392C254.993 68.688 256.457 69.336 258.329 69.336C260.177 69.336 261.665 68.688 262.793 67.392C263.825 66.192 264.353 64.656 264.353 62.808C264.353 60.936 263.825 59.4 262.769 58.176C261.665 56.88 260.177 56.256 258.329 56.256ZM258.329 57.864C259.625 57.864 260.657 58.368 261.425 59.376C262.073 60.288 262.409 61.416 262.409 62.808C262.409 64.152 262.073 65.304 261.425 66.216C260.657 67.224 259.625 67.728 258.329 67.728C257.009 67.728 255.977 67.224 255.257 66.216C254.585 65.304 254.273 64.176 254.273 62.808C254.273 61.416 254.585 60.288 255.257 59.376C255.977 58.368 257.009 57.864 258.329 57.864ZM272.655 56.256C271.839 56.256 271.095 56.448 270.423 56.832C269.751 57.192 269.199 57.72 268.767 58.416V56.592H266.847V69H268.767V61.512C268.839 60.384 269.199 59.496 269.871 58.824C270.495 58.2 271.239 57.888 272.103 57.888C274.263 57.888 275.367 59.088 275.367 61.512V69H277.287V61.368C277.287 57.96 275.727 56.256 272.655 56.256Z" fill="#909090"/>
<line x1="48" y1="87" x2="279" y2="87" stroke="#909090" stroke-width="2"/>
</svg>
