<svg width="978" height="350" viewBox="0 0 978 350" fill="none" xmlns="http://www.w3.org/2000/svg">
<circle cx="175" cy="175" r="173" fill="black" stroke="#66B2FF" stroke-width="4"/>
<path d="M82.024 148.776L80.848 149.904C82.6 151.248 83.968 152.52 84.976 153.72L86.2 152.52C85.072 151.272 83.68 150.024 82.024 148.776ZM96.064 169.968H101.512L101.92 168.24C101.296 168.288 100.408 168.312 99.256 168.336C98.08 168.36 96.928 168.384 95.824 168.384C93.928 168.384 92.344 168.36 91.072 168.336C89.632 168.288 88.552 168.096 87.784 167.76C87.112 167.448 86.488 166.944 85.912 166.248C85.696 166.008 85.504 165.84 85.312 165.696V156.72H80.296V158.304H83.704V165.6C82.72 166.032 81.592 167.256 80.32 169.272L81.616 170.448C82.936 168.24 83.896 167.136 84.472 167.136C84.76 167.136 85.072 167.328 85.408 167.736C86.152 168.6 87.016 169.2 87.976 169.488C88.936 169.752 90.208 169.896 91.768 169.92C93.304 169.944 94.744 169.968 96.064 169.968ZM91.768 151.08L90.712 152.112C91.888 152.736 92.944 153.384 93.856 154.032H87.856V166.8H89.488V162.6H93.496V166.728H95.104V162.6H99.136V164.4C99.136 164.928 98.848 165.216 98.272 165.216L96.376 165.144L96.76 166.608H98.752C100.096 166.608 100.768 165.984 100.768 164.76V154.032H96.016L95.632 153.72C97.312 152.808 98.872 151.728 100.312 150.48V149.232H87.328V150.696H97.984C96.928 151.512 95.776 152.232 94.528 152.88C93.712 152.28 92.776 151.68 91.768 151.08ZM89.488 159.072H93.496V161.184H89.488V159.072ZM95.104 159.072H99.136V161.184H95.104V159.072ZM99.136 157.632H95.104V155.472H99.136V157.632ZM93.496 157.632H89.488V155.472H93.496V157.632ZM105.952 148.728L104.752 149.856C106.48 151.248 107.824 152.568 108.808 153.792L110.056 152.52C108.952 151.272 107.584 150 105.952 148.728ZM120.544 169.968H125.608L126.04 168.216C125.464 168.264 124.624 168.288 123.544 168.312C122.44 168.312 121.384 168.336 120.328 168.336C118.36 168.336 116.704 168.312 115.384 168.288C113.896 168.24 112.744 168.072 111.976 167.76C111.28 167.424 110.632 166.92 110.008 166.248C109.792 166.008 109.576 165.84 109.384 165.696V156.696H104.272V158.328H107.728V165.6C106.72 166.032 105.592 167.28 104.296 169.344L105.592 170.496C106.936 168.24 107.92 167.136 108.496 167.136C108.808 167.136 109.144 167.328 109.48 167.736C110.248 168.6 111.136 169.2 112.144 169.488C113.128 169.752 114.448 169.896 116.08 169.92C117.688 169.944 119.176 169.968 120.544 169.968ZM119.824 166.752C121.264 166.752 122.008 166.032 122.008 164.64V154.032H125.56V152.328H122.008V148.44H120.256V152.328H111.184V154.032H120.256V164.232C120.256 164.88 119.896 165.216 119.224 165.216C118.216 165.216 117.136 165.168 116.032 165.096L116.416 166.752H119.824ZM113.8 156.168L112.456 157.032C113.92 158.784 115.072 160.368 115.936 161.808L117.328 160.848C116.512 159.504 115.336 157.944 113.8 156.168ZM139.864 148.44H138.112C138.112 149.352 138.088 150.624 138.064 152.256C137.848 159.168 134.44 164.664 127.84 168.72L128.896 170.256C134.224 166.824 137.632 162.504 139.072 157.272C140.776 162.696 144.088 167.016 148.984 170.232L150.112 168.72C144.52 165.288 141.04 160.296 139.696 153.768C139.792 152.28 139.864 150.504 139.864 148.44ZM162.136 151.896V167.088H152.296V168.744H173.728V167.088H163.912V151.896H172.168V150.24H153.904V151.896H162.136ZM179.44 151.68H181.888C181.84 152.496 181.768 153.264 181.624 154.008H176.368V155.592H181.192L180.952 156.168C180.16 157.8 178.528 159.168 176.032 160.272L177.184 161.688C179.56 160.584 181.24 159.192 182.2 157.512C183.832 158.472 185.128 159.384 186.136 160.296L187.36 159.072C186.112 158.112 184.576 157.176 182.752 156.264C182.8 156.048 182.872 155.832 182.944 155.592H187.816V154.008H183.304C183.4 153.288 183.472 152.496 183.52 151.68H187.144V150.144H180.28C180.496 149.664 180.712 149.136 180.928 148.56L179.368 148.224C178.576 150.144 177.616 151.632 176.464 152.688L177.496 153.984C178.216 153.336 178.864 152.568 179.44 151.68ZM188.824 150.024V158.808H196.72V150.024H188.824ZM195.04 157.272H190.504V151.56H195.04V157.272ZM195.016 160.536H179.656V170.448H181.384V169.368H193.264V170.448H195.016V160.536ZM181.384 167.832V165.768H193.264V167.832H181.384ZM181.384 164.256V162.072H193.264V164.256H181.384ZM203.296 162.168H208.84V164.4H203.296V162.168ZM208.84 160.728H203.296V158.4H208.84V160.728ZM203.296 165.864H208.84V167.808C208.84 168.408 208.528 168.72 207.928 168.72L206.128 168.648L206.56 170.28H208.48C209.824 170.28 210.496 169.56 210.496 168.168V156.888H201.64V170.448H203.296V165.864ZM218.92 158.88C219.76 158.88 220.384 158.688 220.768 158.328C221.2 157.896 221.512 156.696 221.68 154.728L220.072 154.224C219.976 155.712 219.832 156.6 219.592 156.936C219.4 157.176 219.064 157.32 218.584 157.32H215.44C214.792 157.32 214.48 156.936 214.48 156.168V153.168C217.12 152.784 219.448 152.328 221.464 151.824L220.912 150.312C219.256 150.744 217.12 151.176 214.48 151.584V148.464H212.776V156.528C212.776 158.088 213.496 158.88 214.96 158.88H218.92ZM214.48 164.304C216.976 164.088 219.304 163.68 221.464 163.056L220.912 161.52C219.016 162.096 216.88 162.504 214.48 162.744V159.792H212.776V168.12C212.776 169.392 213.472 170.04 214.912 170.04H218.992C219.856 170.04 220.48 169.848 220.864 169.488C221.32 169.056 221.632 167.88 221.776 165.936L220.216 165.456C220.12 166.92 219.952 167.808 219.688 168.144C219.496 168.36 219.136 168.48 218.656 168.48H215.392C214.768 168.48 214.48 168.216 214.48 167.736V164.304ZM208.768 150.096L207.424 150.936C208 151.752 208.552 152.568 209.056 153.336C206.8 153.624 204.664 153.816 202.648 153.936C203.992 152.712 205.192 151.032 206.296 148.896L204.664 148.392C203.704 150.312 202.456 152.04 200.968 153.576C200.752 153.768 200.488 153.936 200.176 154.032L200.656 155.472C204.208 155.28 207.28 154.992 209.848 154.584C210.16 155.112 210.448 155.64 210.712 156.168L212.128 155.16C211.336 153.72 210.208 152.04 208.768 150.096ZM226.744 153.048H230.104V156.144H224.296V157.752H230.104V160.272H225.376V168.912H227.056V161.88H230.104V170.424H231.832V161.88H234.856V166.248C234.856 166.872 234.496 167.184 233.824 167.184L232.648 167.112L233.08 168.744H234.352C235.792 168.744 236.512 168.024 236.512 166.608V160.272H231.832V157.752H237.016V156.144H231.832V153.048H236.32V151.44H231.832V148.464H230.104V151.44H227.32C227.512 150.792 227.656 150.096 227.776 149.328L226.144 149.064C225.808 151.344 225.04 153.12 223.84 154.416L225.232 155.424C225.808 154.8 226.312 154.008 226.744 153.048ZM238.432 150.624V165.456H240.112V150.624H238.432ZM242.824 170.184C244.288 170.184 245.032 169.416 245.032 167.928V148.464H243.328V167.496C243.328 168.264 242.944 168.648 242.224 168.648C241.168 168.648 240.064 168.6 238.912 168.528L239.296 170.184H242.824ZM251.968 155.52V157.152H258.256V167.616C258.016 167.568 257.776 167.496 257.56 167.424C255.832 166.872 254.392 165.576 253.24 163.512C253.672 162.264 254.056 160.896 254.344 159.408L252.664 159.12C251.848 163.248 250.312 166.536 248.008 168.984L249.112 170.352C250.48 168.96 251.632 167.232 252.568 165.168C253.552 166.728 254.848 167.88 256.432 168.624C258.544 169.512 262 169.968 266.848 169.968H269.536L269.848 168.24C268.552 168.336 267.304 168.384 266.08 168.384C263.68 168.36 261.664 168.216 259.984 167.976V163.008H267.136V161.376H259.984V157.152H266.08V155.52H251.968ZM268.816 150.84H260.104C259.768 149.856 259.384 148.968 259 148.176L257.152 148.464C257.584 149.184 257.992 149.976 258.352 150.84H249.184V156.072H250.864V152.424H267.136V155.952H268.816V150.84ZM80.728 181.352V182.96H90.136V185.048H82.792V194.552H89.824C89.584 195.8 89.152 196.832 88.576 197.648C87.232 196.952 85.984 196.136 84.856 195.2L83.536 196.112C84.712 197.12 86.008 198.008 87.4 198.776C85.864 199.88 83.416 200.552 80.08 200.816L80.824 202.4C84.64 201.968 87.4 201.056 89.08 199.616C92.656 201.248 96.856 202.184 101.68 202.376L102.112 200.72C97.504 200.576 93.52 199.784 90.16 198.368C90.832 197.408 91.288 196.136 91.576 194.552H99.304V185.048H91.864V182.96H101.296V181.352H80.728ZM97.6 193.04H91.792L91.864 191.336V190.496H97.6V193.04ZM90.064 193.04H84.496V190.496H90.136V191.336C90.136 191.912 90.112 192.488 90.064 193.04ZM84.496 189.056V186.536H90.136V189.056H84.496ZM91.864 186.536H97.6V189.056H91.864V186.536ZM104.296 188.912V190.472H107.632C106.864 192.92 105.568 195.128 103.792 197.072L104.536 198.944C105.88 197.216 106.936 195.272 107.728 193.16V202.4H109.384V192.728C110.104 193.784 110.968 195.152 111.976 196.856L112.96 195.392C111.76 193.88 110.584 192.488 109.384 191.24V190.472H112.264V188.912H109.384V180.44H107.728V188.912H104.296ZM111.352 182C111.208 183.968 110.872 185.696 110.368 187.184L111.544 187.568C112.12 185.984 112.504 184.184 112.648 182.168L111.352 182ZM105.64 182.408L104.368 182.816C104.8 184.4 105.16 186.032 105.448 187.736L106.648 187.448C106.336 185.552 106 183.872 105.64 182.408ZM118.72 180.368V181.952H113.584V183.368H118.72V184.976H114.256V186.368H118.72V188H113.032V189.44H125.992V188H120.376V186.368H124.696V184.976H120.376V183.368H125.368V181.952H120.376V180.368H118.72ZM115.984 195.488H122.968V197.192H115.984V195.488ZM122.968 194.144H115.984V192.368H122.968V194.144ZM115.984 198.512H122.968V199.952C122.968 200.504 122.704 200.792 122.2 200.792L120.568 200.696L121 202.232H122.68C123.976 202.232 124.648 201.584 124.648 200.312V190.952H114.352V202.352H115.984V198.512ZM139.576 192.08H142.672V195.152H139.552C139.552 194.936 139.576 194.72 139.576 194.528V192.08ZM139.432 196.664H142.672V201.968H144.232V196.664H147.448V199.88C147.448 200.36 147.208 200.624 146.728 200.624C146.2 200.624 145.648 200.576 145.048 200.528L145.456 202.088H147.232C148.456 202.088 149.08 201.536 149.08 200.456V186.08H145.048C145.768 185.36 146.488 184.448 147.208 183.392V182.168H141.424C141.664 181.688 141.928 181.208 142.168 180.704L140.512 180.344C139.288 182.84 137.728 184.88 135.832 186.44L136.912 187.712C137.248 187.424 137.608 187.088 137.968 186.752V194.624C137.92 197.264 137.32 199.472 136.12 201.2L137.368 202.328C138.472 200.792 139.144 198.92 139.432 196.664ZM143.176 186.08H138.616C139.288 185.336 139.936 184.52 140.536 183.632H145.216C144.544 184.544 143.872 185.36 143.176 186.08ZM147.448 195.152H144.232V192.08H147.448V195.152ZM147.448 190.544H144.232V187.616H147.448V190.544ZM142.672 187.616V190.544H139.576V187.616H142.672ZM128.608 181.736V183.416H131.32C130.768 186.896 129.64 189.992 127.912 192.704L128.92 194.312C129.352 193.64 129.784 192.944 130.192 192.2V201.608H131.824V199.784H136.024V188.864H131.656C132.232 187.184 132.688 185.36 133 183.416H136.624V181.736H128.608ZM131.824 198.224V190.448H134.44V198.224H131.824ZM160.696 184.544H156.832C157.312 183.344 157.672 182.024 157.96 180.608L156.232 180.368C156.016 181.808 155.68 183.2 155.2 184.544H152.968V201.608H154.648V199.544H159.016V200.912H160.696V184.544ZM154.648 197.936V192.68H159.016V197.936H154.648ZM154.648 191.12V186.176H159.016V191.12H154.648ZM164.872 190.112L163.48 190.976C165.136 192.944 166.456 194.72 167.44 196.304L168.808 195.344C167.896 193.856 166.6 192.104 164.872 190.112ZM173.104 184.568H165.448C165.88 183.32 166.216 181.976 166.504 180.56L164.8 180.344C164.176 183.752 163.048 186.632 161.368 188.984L162.4 190.352C163.336 189.128 164.128 187.76 164.8 186.248H171.4C171.352 193.16 171.256 197.312 171.112 198.656C170.92 199.88 170.272 200.504 169.144 200.504C168.4 200.504 167.536 200.48 166.528 200.432L166.936 202.016C168.088 202.064 168.904 202.112 169.384 202.112C171.4 202.112 172.504 201.176 172.744 199.352C172.984 197.48 173.104 192.536 173.104 184.568ZM190.312 182.048V200.816H191.968V182.048H190.312ZM195.328 180.872V202.448H197.032V180.872H195.328ZM185.536 180.944V191.504C185.488 196.04 184.528 199.328 182.608 201.392L183.904 202.544C186.04 200.216 187.144 196.544 187.192 191.504V180.944H185.536ZM178.888 180.632L177.688 181.808C179.416 183.104 180.808 184.352 181.816 185.528L182.992 184.328C181.888 183.08 180.52 181.856 178.888 180.632ZM176.08 187.736V189.392H179.608V198.728C179.608 199.136 179.416 199.496 179.08 199.808L179.752 201.344C181.192 200.288 182.536 199.088 183.808 197.744L183.352 195.944C182.632 196.712 181.936 197.408 181.264 198.032V187.736H176.08ZM207.664 197.528C205.504 198.44 202.936 199.184 200.008 199.712L200.224 201.44C203.008 200.864 205.504 200.144 207.664 199.232V197.528ZM204.04 180.44C203.176 183.272 202.168 185.768 200.968 187.952C200.752 188.264 200.512 188.48 200.224 188.624L200.656 190.208C201.904 189.992 203.128 189.752 204.352 189.512C203.152 191.768 202.12 193.352 201.28 194.312C201.064 194.504 200.8 194.672 200.512 194.816L200.968 196.424C203.176 196.088 205.456 195.488 207.856 194.576V193.016C206.248 193.616 204.64 194.096 203.032 194.432C204.328 192.728 206.008 189.872 208.024 185.864L206.44 185.264C206.008 186.2 205.576 187.088 205.144 187.952C204.184 188.144 203.224 188.312 202.264 188.456C203.416 186.608 204.544 184.16 205.696 181.088L204.04 180.44ZM210.568 194.888C209.872 196.856 208.864 198.776 207.544 200.672L209.032 201.512C210.184 199.856 211.192 197.864 212.08 195.512L210.568 194.888ZM219.568 194.864L218.032 195.368C218.992 197.144 219.88 199.184 220.672 201.488L222.136 200.84C221.416 198.728 220.552 196.736 219.568 194.864ZM214.216 202.184C215.584 202.184 216.28 201.536 216.28 200.264V193.496H221.392V191.96H216.28V187.304H213.064C213.352 186.488 213.64 185.6 213.928 184.688H221.392V183.08H214.408C214.624 182.312 214.84 181.52 215.056 180.68L213.376 180.368C213.136 181.304 212.92 182.216 212.68 183.08H207.352V184.688H212.2C211.912 185.6 211.624 186.464 211.336 187.304H208.216V188.864H210.712C210.208 190.016 209.68 191.072 209.152 192.008L209.536 193.496H214.624V199.736C214.624 200.36 214.312 200.672 213.712 200.672L211.408 200.6L211.84 202.184H214.216ZM212.464 188.864H214.624V191.96H211.072C211.552 191 212.008 189.968 212.464 188.864ZM231.592 187.592V189.32H238.096V202.448H239.872V189.32H246.04V187.592H239.872V180.368H238.096V187.592H231.592ZM226.888 180.632L225.688 181.808C227.416 183.104 228.808 184.352 229.816 185.528L230.992 184.328C229.888 183.08 228.52 181.856 226.888 180.632ZM224.08 187.736V189.392H227.608V198.968C227.608 199.352 227.416 199.688 227.056 199.976L227.728 201.536C229.432 200.408 231.04 199.136 232.528 197.696L232.096 195.92C231.088 196.88 230.128 197.696 229.264 198.416V187.736H224.08ZM262.432 182.48V197.456H264.112V182.48H262.432ZM266.704 202.184C268.192 202.184 268.96 201.44 268.96 199.952V180.464H267.232V199.52C267.232 200.264 266.848 200.648 266.104 200.648C265.096 200.648 264.016 200.6 262.864 200.528L263.248 202.184H266.704ZM260.032 185.744L253.192 186.8C253.048 184.904 252.976 182.792 252.976 180.44H251.2C251.2 182.888 251.296 185.096 251.488 187.064L248.272 187.568L248.536 189.248L251.656 188.768C251.848 190.448 252.088 191.912 252.424 193.16C252.688 194.216 252.976 195.176 253.312 196.064C251.752 197.504 249.952 198.608 247.936 199.4L248.968 200.96C250.816 200.192 252.496 199.136 254.032 197.84C254.392 198.632 254.8 199.328 255.232 199.952C256.336 201.488 257.44 202.256 258.544 202.256C259.144 202.256 259.696 201.728 260.176 200.72C260.56 199.88 260.92 198.848 261.256 197.6L259.792 196.664C259.312 199.112 258.88 200.36 258.448 200.432C257.728 200.408 256.912 199.688 256.024 198.272C255.76 197.792 255.496 197.264 255.256 196.664C257.008 194.84 258.496 192.56 259.696 189.872L258.184 189.08C257.2 191.264 256 193.16 254.584 194.768C254.32 193.952 254.08 193.04 253.864 192.008C253.648 190.952 253.48 189.8 253.336 188.504L260.296 187.424L260.032 185.744ZM256.144 180.344L254.728 181.04C255.616 182.096 256.456 183.272 257.248 184.592L258.712 183.872C257.896 182.6 257.056 181.424 256.144 180.344Z" fill="#66B2FF"/>
<circle cx="489" cy="175" r="173" fill="black" stroke="#FF6666" stroke-width="4"/>
<path d="M420.024 148.776L418.848 149.904C420.6 151.248 421.968 152.52 422.976 153.72L424.2 152.52C423.072 151.272 421.68 150.024 420.024 148.776ZM434.064 169.968H439.512L439.92 168.24C439.296 168.288 438.408 168.312 437.256 168.336C436.08 168.36 434.928 168.384 433.824 168.384C431.928 168.384 430.344 168.36 429.072 168.336C427.632 168.288 426.552 168.096 425.784 167.76C425.112 167.448 424.488 166.944 423.912 166.248C423.696 166.008 423.504 165.84 423.312 165.696V156.72H418.296V158.304H421.704V165.6C420.72 166.032 419.592 167.256 418.32 169.272L419.616 170.448C420.936 168.24 421.896 167.136 422.472 167.136C422.76 167.136 423.072 167.328 423.408 167.736C424.152 168.6 425.016 169.2 425.976 169.488C426.936 169.752 428.208 169.896 429.768 169.92C431.304 169.944 432.744 169.968 434.064 169.968ZM429.768 151.08L428.712 152.112C429.888 152.736 430.944 153.384 431.856 154.032H425.856V166.8H427.488V162.6H431.496V166.728H433.104V162.6H437.136V164.4C437.136 164.928 436.848 165.216 436.272 165.216L434.376 165.144L434.76 166.608H436.752C438.096 166.608 438.768 165.984 438.768 164.76V154.032H434.016L433.632 153.72C435.312 152.808 436.872 151.728 438.312 150.48V149.232H425.328V150.696H435.984C434.928 151.512 433.776 152.232 432.528 152.88C431.712 152.28 430.776 151.68 429.768 151.08ZM427.488 159.072H431.496V161.184H427.488V159.072ZM433.104 159.072H437.136V161.184H433.104V159.072ZM437.136 157.632H433.104V155.472H437.136V157.632ZM431.496 157.632H427.488V155.472H431.496V157.632ZM443.952 148.728L442.752 149.856C444.48 151.248 445.824 152.568 446.808 153.792L448.056 152.52C446.952 151.272 445.584 150 443.952 148.728ZM458.544 169.968H463.608L464.04 168.216C463.464 168.264 462.624 168.288 461.544 168.312C460.44 168.312 459.384 168.336 458.328 168.336C456.36 168.336 454.704 168.312 453.384 168.288C451.896 168.24 450.744 168.072 449.976 167.76C449.28 167.424 448.632 166.92 448.008 166.248C447.792 166.008 447.576 165.84 447.384 165.696V156.696H442.272V158.328H445.728V165.6C444.72 166.032 443.592 167.28 442.296 169.344L443.592 170.496C444.936 168.24 445.92 167.136 446.496 167.136C446.808 167.136 447.144 167.328 447.48 167.736C448.248 168.6 449.136 169.2 450.144 169.488C451.128 169.752 452.448 169.896 454.08 169.92C455.688 169.944 457.176 169.968 458.544 169.968ZM457.824 166.752C459.264 166.752 460.008 166.032 460.008 164.64V154.032H463.56V152.328H460.008V148.44H458.256V152.328H449.184V154.032H458.256V164.232C458.256 164.88 457.896 165.216 457.224 165.216C456.216 165.216 455.136 165.168 454.032 165.096L454.416 166.752H457.824ZM451.8 156.168L450.456 157.032C451.92 158.784 453.072 160.368 453.936 161.808L455.328 160.848C454.512 159.504 453.336 157.944 451.8 156.168ZM485.064 148.608C480.48 149.712 474.72 150.288 467.76 150.288L468.288 151.848C471.264 151.848 474.024 151.728 476.568 151.536V155.448H468.24V157.128H476.568V161.064H466.248V162.72H476.568V167.592C476.568 168.264 476.184 168.624 475.464 168.624C474.36 168.624 473.184 168.576 471.96 168.528L472.344 170.208H476.064C477.552 170.208 478.32 169.464 478.32 168.024V162.72H487.776V161.064H478.32V157.128H485.976V155.448H478.32V151.392C481.2 151.104 483.72 150.648 485.904 150.072L485.064 148.608ZM490.392 153.096V154.752H493.896C493.104 157.752 491.784 160.416 489.936 162.744L490.68 164.616C492.024 162.648 493.128 160.488 493.968 158.088V170.28H495.696V157.632C496.368 158.568 497.16 159.792 498.072 161.304L499.08 159.816C497.928 158.4 496.8 157.128 495.696 155.976V154.752H498.672V153.096H495.696V148.416H493.968V153.096H490.392ZM497.544 169.224L498.96 170.496C500.088 168.768 500.856 166.992 501.264 165.12C501.696 163.344 501.912 161.136 501.912 158.496V151.032H506.184V167.736C506.184 169.128 506.952 169.824 508.488 169.824H509.472C510.24 169.824 510.816 169.68 511.2 169.416C511.584 169.08 511.824 168.504 511.92 167.64C512.016 166.728 512.088 165.432 512.088 163.704L510.504 163.2C510.504 165.504 510.432 166.872 510.336 167.352C510.288 167.688 510.168 167.904 509.976 168.048C509.808 168.144 509.592 168.192 509.304 168.192H508.488C508.104 168.192 507.936 167.976 507.936 167.568V149.4H500.184V158.496C500.184 160.968 500.016 162.936 499.704 164.4C499.296 166.104 498.576 167.712 497.544 169.224ZM518.352 167.688V169.368H535.296V167.688H530.232C531.72 164.136 532.944 160.056 533.952 155.496L532.248 155.04C531.144 160.08 529.848 164.28 528.36 167.688H518.352ZM520.968 156.216L519.456 156.696C520.464 159.48 521.28 162.408 521.928 165.432L523.56 165.024C522.792 161.712 521.928 158.76 520.968 156.216ZM525.6 154.512L524.088 154.992C524.952 157.872 525.648 160.872 526.176 163.992L527.832 163.608C527.16 160.2 526.416 157.152 525.6 154.512ZM525.624 148.2L523.728 148.536C524.208 149.208 524.64 149.928 525.024 150.696H516.12V157.728C516.072 162.6 515.352 166.392 514.008 169.128L515.424 170.4C516.984 167.232 517.8 163.008 517.896 157.728V152.376H535.68V150.696H526.896C526.512 149.784 526.08 148.944 525.624 148.2ZM542.112 156.768H548.208V160.968H542.112V156.768ZM542.016 162.552H548.208V169.584H549.984V162.552H556.512V166.728C556.512 167.736 556.056 168.24 555.192 168.24C554.376 168.24 553.488 168.192 552.528 168.144L552.984 169.848H555.744C557.424 169.848 558.264 169.008 558.264 167.328V149.352H540.384V160.872C540.336 164.16 539.544 166.872 538.008 169.008L539.328 170.184C540.864 168.168 541.752 165.624 542.016 162.552ZM556.512 160.968H549.984V156.768H556.512V160.968ZM556.512 155.16H549.984V151.032H556.512V155.16ZM548.208 151.032V155.16H542.112V151.032H548.208ZM348.072 180.776L346.896 181.904C348.6 183.272 349.944 184.544 350.904 185.72L352.152 184.496C351.048 183.248 349.68 182.024 348.072 180.776ZM362.016 201.968H367.512L367.92 200.24C367.296 200.288 366.384 200.312 365.232 200.336C364.056 200.36 362.904 200.384 361.776 200.384C359.928 200.384 358.368 200.36 357.12 200.336C355.728 200.288 354.648 200.096 353.928 199.76C353.256 199.448 352.656 198.944 352.08 198.248C351.888 198.032 351.696 197.84 351.504 197.696V188.72H346.464V190.304H349.896V197.6C348.912 198.032 347.784 199.256 346.512 201.272L347.808 202.448C349.128 200.24 350.064 199.136 350.64 199.136C350.928 199.136 351.24 199.328 351.552 199.736C352.296 200.6 353.136 201.2 354.072 201.488C355.032 201.752 356.256 201.896 357.792 201.92C359.304 201.944 360.72 201.968 362.016 201.968ZM353.16 182.864V184.472H356.328C355.536 186.176 354.648 187.616 353.688 188.768L354.072 190.352H359.616V193.208H352.968V194.84H359.616V199.304H361.272V194.84H367.56V193.208H361.272V190.352H366.504V188.768H361.272V185.912H359.616V188.768H355.752C356.616 187.52 357.432 186.08 358.152 184.472H367.248V182.864H358.824C359.112 182.144 359.376 181.4 359.64 180.608L357.984 180.224C357.696 181.136 357.36 182.024 357.024 182.864H353.16ZM381.696 184.448L380.28 185.12C380.784 185.984 381.264 186.944 381.744 188H378.072V189.656H391.464V188H387.576C388.128 187.04 388.632 185.96 389.088 184.76L387.456 184.184C386.976 185.528 386.424 186.8 385.752 188H383.4C382.872 186.704 382.32 185.528 381.696 184.448ZM384.864 180.248L383.064 180.536C383.352 181.136 383.64 181.808 383.904 182.528H378.624V184.112H391.032V182.528H385.656C385.392 181.688 385.128 180.92 384.864 180.248ZM372.888 202.184C374.304 202.184 375.024 201.488 375.024 200.096V192.992C375.696 192.68 376.368 192.344 377.04 191.984V190.232C376.368 190.592 375.696 190.928 375.024 191.264V186.656H377.016V185H375.024V180.464H373.248V185H370.32V186.656H373.248V192.008C372.144 192.44 371.016 192.8 369.888 193.088L370.32 194.816C371.304 194.504 372.288 194.144 373.248 193.76V199.664C373.248 200.288 372.912 200.6 372.288 200.6C371.712 200.6 371.088 200.552 370.44 200.504L370.8 202.184H372.888ZM382.752 190.328C382.488 191 382.2 191.672 381.864 192.392H377.76V194.072H380.976C380.472 194.984 379.896 195.92 379.248 196.904C380.928 197.576 382.488 198.224 383.952 198.896C382.464 199.76 380.304 200.432 377.52 200.936L378.192 202.496C381.648 201.824 384.168 200.888 385.752 199.736C387.672 200.648 389.328 201.536 390.768 202.424L391.704 201.032C390.192 200.168 388.608 199.352 386.976 198.584C388.104 197.36 388.848 195.848 389.208 194.072H391.848V192.392H383.616C383.904 191.792 384.168 191.168 384.408 190.52L382.752 190.328ZM387.576 194.072C387.192 195.608 386.472 196.856 385.392 197.864C384.096 197.288 382.752 196.736 381.36 196.208C381.84 195.536 382.296 194.816 382.728 194.072H387.576ZM405.864 180.44H404.112C404.112 181.352 404.088 182.624 404.064 184.256C403.848 191.168 400.44 196.664 393.84 200.72L394.896 202.256C400.224 198.824 403.632 194.504 405.072 189.272C406.776 194.696 410.088 199.016 414.984 202.232L416.112 200.72C410.52 197.288 407.04 192.296 405.696 185.768C405.792 184.28 405.864 182.504 405.864 180.44ZM428.136 183.896V199.088H418.296V200.744H439.728V199.088H429.912V183.896H438.168V182.24H419.904V183.896H428.136ZM445.44 183.68H447.888C447.84 184.496 447.768 185.264 447.624 186.008H442.368V187.592H447.192L446.952 188.168C446.16 189.8 444.528 191.168 442.032 192.272L443.184 193.688C445.56 192.584 447.24 191.192 448.2 189.512C449.832 190.472 451.128 191.384 452.136 192.296L453.36 191.072C452.112 190.112 450.576 189.176 448.752 188.264C448.8 188.048 448.872 187.832 448.944 187.592H453.816V186.008H449.304C449.4 185.288 449.472 184.496 449.52 183.68H453.144V182.144H446.28C446.496 181.664 446.712 181.136 446.928 180.56L445.368 180.224C444.576 182.144 443.616 183.632 442.464 184.688L443.496 185.984C444.216 185.336 444.864 184.568 445.44 183.68ZM454.824 182.024V190.808H462.72V182.024H454.824ZM461.04 189.272H456.504V183.56H461.04V189.272ZM461.016 192.536H445.656V202.448H447.384V201.368H459.264V202.448H461.016V192.536ZM447.384 199.832V197.768H459.264V199.832H447.384ZM447.384 196.256V194.072H459.264V196.256H447.384ZM469.296 194.168H474.84V196.4H469.296V194.168ZM474.84 192.728H469.296V190.4H474.84V192.728ZM469.296 197.864H474.84V199.808C474.84 200.408 474.528 200.72 473.928 200.72L472.128 200.648L472.56 202.28H474.48C475.824 202.28 476.496 201.56 476.496 200.168V188.888H467.64V202.448H469.296V197.864ZM484.92 190.88C485.76 190.88 486.384 190.688 486.768 190.328C487.2 189.896 487.512 188.696 487.68 186.728L486.072 186.224C485.976 187.712 485.832 188.6 485.592 188.936C485.4 189.176 485.064 189.32 484.584 189.32H481.44C480.792 189.32 480.48 188.936 480.48 188.168V185.168C483.12 184.784 485.448 184.328 487.464 183.824L486.912 182.312C485.256 182.744 483.12 183.176 480.48 183.584V180.464H478.776V188.528C478.776 190.088 479.496 190.88 480.96 190.88H484.92ZM480.48 196.304C482.976 196.088 485.304 195.68 487.464 195.056L486.912 193.52C485.016 194.096 482.88 194.504 480.48 194.744V191.792H478.776V200.12C478.776 201.392 479.472 202.04 480.912 202.04H484.992C485.856 202.04 486.48 201.848 486.864 201.488C487.32 201.056 487.632 199.88 487.776 197.936L486.216 197.456C486.12 198.92 485.952 199.808 485.688 200.144C485.496 200.36 485.136 200.48 484.656 200.48H481.392C480.768 200.48 480.48 200.216 480.48 199.736V196.304ZM474.768 182.096L473.424 182.936C474 183.752 474.552 184.568 475.056 185.336C472.8 185.624 470.664 185.816 468.648 185.936C469.992 184.712 471.192 183.032 472.296 180.896L470.664 180.392C469.704 182.312 468.456 184.04 466.968 185.576C466.752 185.768 466.488 185.936 466.176 186.032L466.656 187.472C470.208 187.28 473.28 186.992 475.848 186.584C476.16 187.112 476.448 187.64 476.712 188.168L478.128 187.16C477.336 185.72 476.208 184.04 474.768 182.096ZM493.152 196.64L492.072 197.648C492.96 198.32 493.848 199.112 494.736 200.072C495.504 200.888 496.2 201.704 496.776 202.52L497.976 201.512C497.4 200.696 496.704 199.856 495.912 199.04C495 198.08 494.064 197.288 493.152 196.64ZM517.248 183.392C516.672 186.896 515.544 189.992 513.816 192.68L514.728 194.12C515.256 193.352 515.76 192.512 516.24 191.648V201.56H517.848V199.616H522.096V188.792H517.488C518.112 187.112 518.568 185.312 518.904 183.392H522.432V181.76H514.632V183.392H517.248ZM525.6 190.472H528.672V193.016H525.6V190.472ZM530.232 190.472H533.352V193.016H530.232V190.472ZM533.352 189.056H530.232V186.536H533.352V189.056ZM528.672 189.056H525.6V186.536H528.672V189.056ZM523.272 181.352V182.912H528.672V185.048H524.016V194.48H528.576C528.408 195.68 528.048 196.76 527.52 197.672C526.656 196.976 525.888 196.16 525.192 195.248L523.992 196.088C524.76 197.096 525.6 198.008 526.536 198.8C525.528 199.688 524.016 200.432 522.024 201.032L522.912 202.424C525.072 201.752 526.704 200.888 527.856 199.808C530.088 201.344 532.704 202.208 535.728 202.4L536.16 200.84C533.328 200.672 530.88 199.928 528.816 198.608C529.536 197.48 529.968 196.112 530.136 194.48H534.912V185.048H530.232V182.912H535.632V181.352H523.272ZM517.848 198.104V190.328H520.488V198.104H517.848ZM543.288 180.248C542.136 183.992 540.312 187.328 537.768 190.208L538.32 192.056C539.232 191.096 540.072 190.088 540.84 189.032V202.424H542.544V186.392C543.504 184.688 544.296 182.888 544.92 180.992L543.288 180.248ZM547.32 181.832C546.792 185.024 545.808 187.736 544.344 189.944L545.448 191.384C546.336 190.136 547.08 188.72 547.68 187.136H551.76V192.92H544.704V194.576H551.76V202.304H553.488V194.576H559.896V192.92H553.488V187.136H559.008V185.456H553.488V180.464H551.76V185.456H548.232C548.568 184.4 548.832 183.248 549.024 182.048L547.32 181.832ZM582.84 182.024H573.672V201.68H575.328V199.544H581.16V201.44H582.84V182.024ZM575.328 197.912V183.632H581.16V197.912H575.328ZM562.704 186.992V188.6H566.904V188.768C565.92 191.408 564.312 193.784 562.08 195.896L562.8 197.768C564.504 195.92 565.872 193.856 566.904 191.576V202.232H568.584V191.408C569.472 192.416 570.528 193.784 571.776 195.488L572.784 194C571.368 192.416 569.976 191.024 568.584 189.8V188.6H572.688V186.992H568.584V183.2C569.928 182.912 571.2 182.528 572.448 182.072L571.632 180.632C569.232 181.544 566.256 182.144 562.68 182.432L563.232 183.968C564.48 183.872 565.704 183.728 566.904 183.536V186.992H562.704ZM590.112 188.768H596.208V192.968H590.112V188.768ZM590.016 194.552H596.208V201.584H597.984V194.552H604.512V198.728C604.512 199.736 604.056 200.24 603.192 200.24C602.376 200.24 601.488 200.192 600.528 200.144L600.984 201.848H603.744C605.424 201.848 606.264 201.008 606.264 199.328V181.352H588.384V192.872C588.336 196.16 587.544 198.872 586.008 201.008L587.328 202.184C588.864 200.168 589.752 197.624 590.016 194.552ZM604.512 192.968H597.984V188.768H604.512V192.968ZM604.512 187.16H597.984V183.032H604.512V187.16ZM596.208 183.032V187.16H590.112V183.032H596.208ZM628.176 185.048V189.728H614.472V185.048H628.176ZM614.472 191.408H629.928V183.344H622.344C621.912 182.192 621.48 181.16 621.048 180.248L619.2 180.536C619.704 181.4 620.16 182.336 620.592 183.344H612.768V190.856C612.72 195.152 611.736 198.656 609.792 201.344L611.064 202.496C613.224 199.4 614.352 195.704 614.472 191.408Z" fill="#FF6666"/>
<circle cx="803" cy="175" r="173" fill="black" stroke="#FF9933" stroke-width="4"/>
<path d="M734.024 148.776L732.848 149.904C734.6 151.248 735.968 152.52 736.976 153.72L738.2 152.52C737.072 151.272 735.68 150.024 734.024 148.776ZM748.064 169.968H753.512L753.92 168.24C753.296 168.288 752.408 168.312 751.256 168.336C750.08 168.36 748.928 168.384 747.824 168.384C745.928 168.384 744.344 168.36 743.072 168.336C741.632 168.288 740.552 168.096 739.784 167.76C739.112 167.448 738.488 166.944 737.912 166.248C737.696 166.008 737.504 165.84 737.312 165.696V156.72H732.296V158.304H735.704V165.6C734.72 166.032 733.592 167.256 732.32 169.272L733.616 170.448C734.936 168.24 735.896 167.136 736.472 167.136C736.76 167.136 737.072 167.328 737.408 167.736C738.152 168.6 739.016 169.2 739.976 169.488C740.936 169.752 742.208 169.896 743.768 169.92C745.304 169.944 746.744 169.968 748.064 169.968ZM743.768 151.08L742.712 152.112C743.888 152.736 744.944 153.384 745.856 154.032H739.856V166.8H741.488V162.6H745.496V166.728H747.104V162.6H751.136V164.4C751.136 164.928 750.848 165.216 750.272 165.216L748.376 165.144L748.76 166.608H750.752C752.096 166.608 752.768 165.984 752.768 164.76V154.032H748.016L747.632 153.72C749.312 152.808 750.872 151.728 752.312 150.48V149.232H739.328V150.696H749.984C748.928 151.512 747.776 152.232 746.528 152.88C745.712 152.28 744.776 151.68 743.768 151.08ZM741.488 159.072H745.496V161.184H741.488V159.072ZM747.104 159.072H751.136V161.184H747.104V159.072ZM751.136 157.632H747.104V155.472H751.136V157.632ZM745.496 157.632H741.488V155.472H745.496V157.632ZM757.952 148.728L756.752 149.856C758.48 151.248 759.824 152.568 760.808 153.792L762.056 152.52C760.952 151.272 759.584 150 757.952 148.728ZM772.544 169.968H777.608L778.04 168.216C777.464 168.264 776.624 168.288 775.544 168.312C774.44 168.312 773.384 168.336 772.328 168.336C770.36 168.336 768.704 168.312 767.384 168.288C765.896 168.24 764.744 168.072 763.976 167.76C763.28 167.424 762.632 166.92 762.008 166.248C761.792 166.008 761.576 165.84 761.384 165.696V156.696H756.272V158.328H759.728V165.6C758.72 166.032 757.592 167.28 756.296 169.344L757.592 170.496C758.936 168.24 759.92 167.136 760.496 167.136C760.808 167.136 761.144 167.328 761.48 167.736C762.248 168.6 763.136 169.2 764.144 169.488C765.128 169.752 766.448 169.896 768.08 169.92C769.688 169.944 771.176 169.968 772.544 169.968ZM771.824 166.752C773.264 166.752 774.008 166.032 774.008 164.64V154.032H777.56V152.328H774.008V148.44H772.256V152.328H763.184V154.032H772.256V164.232C772.256 164.88 771.896 165.216 771.224 165.216C770.216 165.216 769.136 165.168 768.032 165.096L768.416 166.752H771.824ZM765.8 156.168L764.456 157.032C765.92 158.784 767.072 160.368 767.936 161.808L769.328 160.848C768.512 159.504 767.336 157.944 765.8 156.168ZM783.248 151.392C782.672 154.896 781.544 157.992 779.816 160.68L780.728 162.12C781.256 161.352 781.76 160.512 782.24 159.648V169.56H783.848V167.616H788.096V156.792H783.488C784.112 155.112 784.568 153.312 784.904 151.392H788.432V149.76H780.632V151.392H783.248ZM791.6 158.472H794.672V161.016H791.6V158.472ZM796.232 158.472H799.352V161.016H796.232V158.472ZM799.352 157.056H796.232V154.536H799.352V157.056ZM794.672 157.056H791.6V154.536H794.672V157.056ZM789.272 149.352V150.912H794.672V153.048H790.016V162.48H794.576C794.408 163.68 794.048 164.76 793.52 165.672C792.656 164.976 791.888 164.16 791.192 163.248L789.992 164.088C790.76 165.096 791.6 166.008 792.536 166.8C791.528 167.688 790.016 168.432 788.024 169.032L788.912 170.424C791.072 169.752 792.704 168.888 793.856 167.808C796.088 169.344 798.704 170.208 801.728 170.4L802.16 168.84C799.328 168.672 796.88 167.928 794.816 166.608C795.536 165.48 795.968 164.112 796.136 162.48H800.912V153.048H796.232V150.912H801.632V149.352H789.272ZM783.848 166.104V158.328H786.488V166.104H783.848ZM809.288 148.248C808.136 151.992 806.312 155.328 803.768 158.208L804.32 160.056C805.232 159.096 806.072 158.088 806.84 157.032V170.424H808.544V154.392C809.504 152.688 810.296 150.888 810.92 148.992L809.288 148.248ZM813.32 149.832C812.792 153.024 811.808 155.736 810.344 157.944L811.448 159.384C812.336 158.136 813.08 156.72 813.68 155.136H817.76V160.92H810.704V162.576H817.76V170.304H819.488V162.576H825.896V160.92H819.488V155.136H825.008V153.456H819.488V148.464H817.76V153.456H814.232C814.568 152.4 814.832 151.248 815.024 150.048L813.32 149.832ZM829.16 165.648C830.984 165.168 832.76 164.64 834.44 164.04V170.256H836.144V148.512H834.44V162.36C833.24 162.816 832.04 163.224 830.84 163.56V150.456H829.16V163.608C829.16 163.848 828.968 164.04 828.632 164.184L829.16 165.648ZM841.04 153.744H845.864C845.72 157.056 844.952 159.936 843.512 162.384C842.12 160.416 841.016 158.256 840.152 155.904C840.464 155.232 840.752 154.512 841.04 153.744ZM839.144 157.776C840.008 159.984 841.136 162.024 842.48 163.944C840.992 165.912 838.976 167.52 836.456 168.768L837.44 170.328C839.936 168.984 841.976 167.328 843.56 165.336C845.072 167.208 846.872 168.936 848.96 170.496L850.136 169.104C848.024 167.568 846.2 165.816 844.616 163.848C846.392 161.064 847.352 157.68 847.52 153.744H849.584V152.04H841.568C841.856 150.984 842.12 149.832 842.36 148.608L840.632 148.32C839.936 152.544 838.592 155.928 836.624 158.424L837.704 159.744C838.208 159.144 838.688 158.496 839.144 157.776ZM860.048 164.568C858.656 165.984 856.112 167.256 852.416 168.384L853.328 169.872C857.432 168.384 860.24 166.608 861.752 164.568H862.208V170.424H863.936V164.568H864.392C866.072 166.704 868.88 168.432 872.864 169.776L873.608 168.24C870.224 167.328 867.704 166.104 866.072 164.568H873.344V163.008H863.936V161.76H862.208V163.008H852.656V164.568H860.048ZM855.008 154.368V161.112H872.648V159.648H864.56V157.944H871.304V156.6H864.56V155.016H871.304V153.672H864.56V152.04H872.192V150.6H864.44C864.128 149.736 863.816 148.944 863.48 148.248L861.704 148.536C862.088 149.16 862.424 149.856 862.76 150.6H857.576C857.864 150 858.152 149.376 858.392 148.728L856.784 148.32C855.728 150.912 854.144 153.168 852.008 155.088L852.992 156.432C853.712 155.76 854.384 155.088 855.008 154.368ZM862.856 159.648H856.616V157.944H862.856V159.648ZM862.856 156.6H856.616V155.016H862.856V156.6ZM862.856 153.672H856.616V152.232L856.736 152.04H862.856V153.672ZM724.112 188.768H730.208V192.968H724.112V188.768ZM724.016 194.552H730.208V201.584H731.984V194.552H738.512V198.728C738.512 199.736 738.056 200.24 737.192 200.24C736.376 200.24 735.488 200.192 734.528 200.144L734.984 201.848H737.744C739.424 201.848 740.264 201.008 740.264 199.328V181.352H722.384V192.872C722.336 196.16 721.544 198.872 720.008 201.008L721.328 202.184C722.864 200.168 723.752 197.624 724.016 194.552ZM738.512 192.968H731.984V188.768H738.512V192.968ZM738.512 187.16H731.984V183.032H738.512V187.16ZM730.208 183.032V187.16H724.112V183.032H730.208ZM762.176 185.048V189.728H748.472V185.048H762.176ZM748.472 191.408H763.928V183.344H756.344C755.912 182.192 755.48 181.16 755.048 180.248L753.2 180.536C753.704 181.4 754.16 182.336 754.592 183.344H746.768V190.856C746.72 195.152 745.736 198.656 743.792 201.344L745.064 202.496C747.224 199.4 748.352 195.704 748.472 191.408ZM776.696 184.544H772.832C773.312 183.344 773.672 182.024 773.96 180.608L772.232 180.368C772.016 181.808 771.68 183.2 771.2 184.544H768.968V201.608H770.648V199.544H775.016V200.912H776.696V184.544ZM770.648 197.936V192.68H775.016V197.936H770.648ZM770.648 191.12V186.176H775.016V191.12H770.648ZM780.872 190.112L779.48 190.976C781.136 192.944 782.456 194.72 783.44 196.304L784.808 195.344C783.896 193.856 782.6 192.104 780.872 190.112ZM789.104 184.568H781.448C781.88 183.32 782.216 181.976 782.504 180.56L780.8 180.344C780.176 183.752 779.048 186.632 777.368 188.984L778.4 190.352C779.336 189.128 780.128 187.76 780.8 186.248H787.4C787.352 193.16 787.256 197.312 787.112 198.656C786.92 199.88 786.272 200.504 785.144 200.504C784.4 200.504 783.536 200.48 782.528 200.432L782.936 202.016C784.088 202.064 784.904 202.112 785.384 202.112C787.4 202.112 788.504 201.176 788.744 199.352C788.984 197.48 789.104 192.536 789.104 184.568ZM806.312 182.048V200.816H807.968V182.048H806.312ZM811.328 180.872V202.448H813.032V180.872H811.328ZM801.536 180.944V191.504C801.488 196.04 800.528 199.328 798.608 201.392L799.904 202.544C802.04 200.216 803.144 196.544 803.192 191.504V180.944H801.536ZM794.888 180.632L793.688 181.808C795.416 183.104 796.808 184.352 797.816 185.528L798.992 184.328C797.888 183.08 796.52 181.856 794.888 180.632ZM792.08 187.736V189.392H795.608V198.728C795.608 199.136 795.416 199.496 795.08 199.808L795.752 201.344C797.192 200.288 798.536 199.088 799.808 197.744L799.352 195.944C798.632 196.712 797.936 197.408 797.264 198.032V187.736H792.08ZM823.664 197.528C821.504 198.44 818.936 199.184 816.008 199.712L816.224 201.44C819.008 200.864 821.504 200.144 823.664 199.232V197.528ZM820.04 180.44C819.176 183.272 818.168 185.768 816.968 187.952C816.752 188.264 816.512 188.48 816.224 188.624L816.656 190.208C817.904 189.992 819.128 189.752 820.352 189.512C819.152 191.768 818.12 193.352 817.28 194.312C817.064 194.504 816.8 194.672 816.512 194.816L816.968 196.424C819.176 196.088 821.456 195.488 823.856 194.576V193.016C822.248 193.616 820.64 194.096 819.032 194.432C820.328 192.728 822.008 189.872 824.024 185.864L822.44 185.264C822.008 186.2 821.576 187.088 821.144 187.952C820.184 188.144 819.224 188.312 818.264 188.456C819.416 186.608 820.544 184.16 821.696 181.088L820.04 180.44ZM826.568 194.888C825.872 196.856 824.864 198.776 823.544 200.672L825.032 201.512C826.184 199.856 827.192 197.864 828.08 195.512L826.568 194.888ZM835.568 194.864L834.032 195.368C834.992 197.144 835.88 199.184 836.672 201.488L838.136 200.84C837.416 198.728 836.552 196.736 835.568 194.864ZM830.216 202.184C831.584 202.184 832.28 201.536 832.28 200.264V193.496H837.392V191.96H832.28V187.304H829.064C829.352 186.488 829.64 185.6 829.928 184.688H837.392V183.08H830.408C830.624 182.312 830.84 181.52 831.056 180.68L829.376 180.368C829.136 181.304 828.92 182.216 828.68 183.08H823.352V184.688H828.2C827.912 185.6 827.624 186.464 827.336 187.304H824.216V188.864H826.712C826.208 190.016 825.68 191.072 825.152 192.008L825.536 193.496H830.624V199.736C830.624 200.36 830.312 200.672 829.712 200.672L827.408 200.6L827.84 202.184H830.216ZM828.464 188.864H830.624V191.96H827.072C827.552 191 828.008 189.968 828.464 188.864ZM854.792 185.72H858.344C858.248 188.96 857.744 191.792 856.808 194.216C855.848 192.2 855.08 189.776 854.48 186.968L854.792 185.72ZM856.016 195.944C854.912 197.984 853.448 199.64 851.576 200.936L852.464 202.376C854.264 201.08 855.752 199.472 856.904 197.552C858.104 199.568 859.544 201.2 861.224 202.4L862.16 200.984C860.432 199.808 858.968 198.152 857.72 195.992C859.064 193.16 859.808 189.728 859.928 185.72H861.488V184.064H855.152C855.344 183.008 855.536 181.856 855.68 180.632L854 180.344C853.52 184.904 852.56 188.528 851.144 191.216L852.224 192.536C852.728 191.672 853.208 190.688 853.64 189.584C854.288 191.984 855.08 194.096 856.016 195.944ZM844.64 191.552C844.472 192.032 844.28 192.536 844.064 193.064H840.56V194.576H843.392C842.912 195.536 842.36 196.52 841.736 197.576C842.912 198.008 844.016 198.464 845.072 198.92C843.68 199.712 841.976 200.36 840.008 200.888L840.824 202.328C843.224 201.656 845.216 200.768 846.8 199.664C848.216 200.288 849.44 200.936 850.496 201.56L851.432 200.216C850.376 199.64 849.272 199.112 848.12 198.584C849.368 197.432 850.256 196.064 850.784 194.48V193.064H845.768C845.912 192.632 846.08 192.2 846.248 191.744L844.64 191.552ZM846.536 197.912C845.672 197.552 844.76 197.216 843.8 196.88C844.28 196.16 844.712 195.392 845.096 194.576H849.224C848.648 195.824 847.736 196.952 846.536 197.912ZM842.456 180.848L841.088 181.304C841.664 182.216 842.192 183.248 842.696 184.424L843.944 183.848C843.512 182.792 843.032 181.784 842.456 180.848ZM849.752 180.776C849.32 181.784 848.696 182.792 847.928 183.824L849.152 184.448C849.92 183.44 850.52 182.408 851 181.352L849.752 180.776ZM840.608 185V186.512H844.016C843.296 187.832 842 189.032 840.152 190.112L840.992 191.504C843.056 190.112 844.496 188.48 845.288 186.584V191.144H846.896V188.024C847.76 188.6 848.792 189.368 849.992 190.328L850.88 188.984C849.536 188.168 848.192 187.424 846.896 186.776V186.512H851.264V185H846.896V180.416H845.288V185H840.608ZM866.936 202.184C868.28 202.184 868.952 201.464 868.952 200.072V193.064C869.696 192.728 870.44 192.392 871.184 192.008V190.304C870.464 190.688 869.72 191.048 868.952 191.384V186.656H871.256V185H868.952V180.464H867.272V185H864.392V186.656H867.272V192.08C866.216 192.464 865.112 192.8 864.008 193.064L864.44 194.744C865.376 194.456 866.312 194.12 867.272 193.76V199.64C867.272 200.312 866.96 200.672 866.36 200.672C865.784 200.672 865.16 200.624 864.536 200.552L864.896 202.184H866.936ZM874.112 191.576H879.008V194.528H875V202.4H876.608V201.224H883.112V202.4H884.72V194.528H880.688V191.576H885.824V190.016H880.688V187.184H885.2V181.352H872.552V188.864C872.528 193.904 871.664 198.032 869.96 201.2L871.304 202.4C872.888 199.28 873.824 195.68 874.112 191.576ZM879.008 187.184V190.016H874.208C874.208 189.632 874.232 189.248 874.232 188.864V187.184H879.008ZM876.608 199.688V196.064H883.112V199.688H876.608ZM883.52 182.96V185.624H874.232V182.96H883.52Z" fill="#FF9933"/>
</svg>
