<svg width="1056" height="640" viewBox="0 0 1056 640" fill="none" xmlns="http://www.w3.org/2000/svg">
<rect width="1056" height="640" fill="black"/>
<path d="M472.707 208.707C473.098 208.317 473.098 207.683 472.707 207.293L466.343 200.929C465.953 200.538 465.319 200.538 464.929 200.929C464.538 201.319 464.538 201.953 464.929 202.343L470.586 208L464.929 213.657C464.538 214.047 464.538 214.681 464.929 215.071C465.319 215.462 465.953 215.462 466.343 215.071L472.707 208.707ZM360 209L472 209V207L360 207V209Z" fill="#BABABA"/>
<path d="M472.707 440.707C473.098 440.317 473.098 439.683 472.707 439.293L466.343 432.929C465.953 432.538 465.319 432.538 464.929 432.929C464.538 433.319 464.538 433.953 464.929 434.343L470.586 440L464.929 445.657C464.538 446.047 464.538 446.681 464.929 447.071C465.319 447.462 465.953 447.462 466.343 447.071L472.707 440.707ZM360 441H472V439H360V441Z" fill="#BABABA"/>
<path d="M800.707 208.707C801.098 208.317 801.098 207.683 800.707 207.293L794.343 200.929C793.953 200.538 793.319 200.538 792.929 200.929C792.538 201.319 792.538 201.953 792.929 202.343L798.586 208L792.929 213.657C792.538 214.047 792.538 214.681 792.929 215.071C793.319 215.462 793.953 215.462 794.343 215.071L800.707 208.707ZM688 209L800 209V207L688 207V209Z" fill="#BABABA"/>
<path d="M907.293 392.707C907.683 393.098 908.317 393.098 908.707 392.707L915.071 386.343C915.462 385.953 915.462 385.319 915.071 384.929C914.681 384.538 914.047 384.538 913.657 384.929L908 390.586L902.343 384.929C901.953 384.538 901.319 384.538 900.929 384.929C900.538 385.319 900.538 385.953 900.929 386.343L907.293 392.707ZM907 256L907 392L909 392L909 256L907 256Z" fill="#BABABA"/>
<path d="M251.293 392.707C251.683 393.098 252.317 393.098 252.707 392.707L259.071 386.343C259.462 385.953 259.462 385.319 259.071 384.929C258.681 384.538 258.047 384.538 257.657 384.929L252 390.586L246.343 384.929C245.953 384.538 245.319 384.538 244.929 384.929C244.538 385.319 244.538 385.953 244.929 386.343L251.293 392.707ZM251 256L251 392L253 392L253 256L251 256Z" fill="#BABABA"/>
<path d="M580.707 255.293C580.317 254.902 579.683 254.902 579.293 255.293L572.929 261.657C572.538 262.047 572.538 262.681 572.929 263.071C573.319 263.462 573.953 263.462 574.343 263.071L580 257.414L585.657 263.071C586.047 263.462 586.681 263.462 587.071 263.071C587.462 262.681 587.462 262.047 587.071 261.657L580.707 255.293ZM581 392L581 256L579 256L579 392L581 392Z" fill="#BABABA"/>
<path d="M908 552L908 553L909 553L909 552L908 552ZM252 552L251 552L251 553L252 553L252 552ZM252.707 487.293C252.317 486.902 251.683 486.902 251.293 487.293L244.929 493.657C244.538 494.047 244.538 494.681 244.929 495.071C245.319 495.462 245.953 495.462 246.343 495.071L252 489.414L257.657 495.071C258.047 495.462 258.681 495.462 259.071 495.071C259.462 494.681 259.462 494.047 259.071 493.657L252.707 487.293ZM907 488L907 552L909 552L909 488L907 488ZM908 551L252 551L252 553L908 553L908 551ZM253 552L253 488L251 488L251 552L253 552Z" fill="#BABABA"/>
<rect x="480" y="168" width="200" height="80" rx="24" fill="#919191"/>
<path d="M520.912 204.28H527.488V206.968H520.912V204.28ZM527.488 202.744H520.912V199.96H527.488V202.744ZM529.456 209.752C528.472 211 527.44 211.936 526.336 212.56C525.664 211.36 525.184 210.016 524.896 208.528H529.168V198.4H519.232V216.736C519.232 217.024 519.04 217.216 518.656 217.36L519.04 218.824C521.584 218.152 523.72 217.456 525.4 216.736L524.968 215.128C523.624 215.776 522.256 216.304 520.912 216.712V208.528H523.36C524.152 213.016 526.432 216.544 530.2 219.088L531.16 217.576C529.48 216.52 528.136 215.272 527.128 213.808C528.376 213.136 529.528 212.128 530.56 210.832L529.456 209.752ZM510.04 198.424V205.864H513.568V216.112C512.944 216.256 512.32 216.424 511.672 216.568V208.264H510.112V216.928L509.008 217.168L509.488 218.824C512.728 218.08 515.56 217.288 517.96 216.448V214.792C517.072 215.08 516.136 215.368 515.176 215.656V211.24H517.72V209.632H515.176V205.864H517.408V198.424H510.04ZM515.776 204.28H511.696V200.008H515.776V204.28ZM533.992 198.352V219.232H535.6V199.888H538.432C538.072 201.784 537.544 203.896 536.872 206.224C537.952 208.096 538.504 209.8 538.504 211.288C538.504 211.816 538.408 212.176 538.264 212.392C538.072 212.584 537.808 212.704 537.448 212.752C537.112 212.752 536.68 212.728 536.176 212.68L536.68 214.288C538.024 214.264 538.96 213.976 539.512 213.424C539.896 213.016 540.088 212.296 540.088 211.288C540.016 209.8 539.464 208.024 538.432 205.984C539.056 203.776 539.584 201.664 540.016 199.648V198.352H533.992ZM541.792 198.784L540.52 199.576C541.432 200.968 542.152 202.264 542.704 203.464L543.976 202.552C543.472 201.496 542.752 200.224 541.792 198.784ZM550.312 217.408C549.472 217.408 548.632 217.384 547.792 217.36C546.904 217.312 546.136 217.144 545.512 216.88C544.792 216.52 544.216 216.04 543.784 215.44C543.736 215.392 543.664 215.32 543.616 215.248V205.456H539.968V206.992H542.008V215.008C541.168 215.392 540.16 216.424 538.96 218.056L539.992 219.352C541.336 217.432 542.248 216.496 542.728 216.496C542.944 216.496 543.208 216.664 543.496 217.024C544.024 217.696 544.672 218.2 545.44 218.512C546.208 218.776 547.12 218.92 548.152 218.944C548.824 218.968 549.52 218.992 550.192 218.992H554.536L554.968 217.36C553.504 217.384 551.944 217.408 550.312 217.408ZM544.552 199.696V201.28H547.48C546.712 203.944 545.536 206.128 543.952 207.832L544.84 208.984C545.464 208.408 546.04 207.712 546.592 206.92V215.992H548.08V211.936H552.352V213.76C552.352 214.264 552.136 214.528 551.728 214.528C551.2 214.528 550.672 214.48 550.096 214.432L550.48 215.92H552.232C553.336 215.872 553.912 215.32 553.912 214.264V203.68H548.296C548.584 202.936 548.872 202.144 549.112 201.28H554.848V199.696H549.544C549.688 199.024 549.832 198.352 549.976 197.632L548.296 197.416C548.176 198.184 548.032 198.928 547.888 199.696H544.552ZM548.08 208.576H552.352V210.544H548.08V208.576ZM552.352 207.184H548.08V205.048H552.352V207.184ZM560.176 201.424V212.824C559.168 213.112 558.136 213.376 557.056 213.64L557.56 215.344C560.344 214.6 562.792 213.784 564.904 212.896V211.168C563.968 211.552 562.984 211.912 561.952 212.272V201.424H564.736V199.744H557.32V201.424H560.176ZM565.648 198.424V200.104H571.504C571.384 200.992 571.216 201.856 570.976 202.672H566.752V213.952H568.408V204.256H576.112V213.952H577.792V202.672H572.704C572.896 201.856 573.064 201.016 573.208 200.104H578.944V198.424H565.648ZM574.216 214L573.064 215.104C575.128 216.688 576.76 218.176 577.96 219.568L579.208 218.32C577.864 216.88 576.184 215.44 574.216 214ZM571.288 205.792V209.92C571.216 212.008 570.664 213.712 569.656 215.008C568.552 216.256 566.584 217.264 563.8 218.008L564.736 219.496C567.616 218.68 569.68 217.552 570.952 216.136C572.248 214.576 572.92 212.512 573.016 209.92V205.792H571.288ZM600.064 198.568H583.96V219.424H585.712V217.816H598.336V219.376H600.064V198.568ZM585.712 216.136V211.624H598.336V216.136H585.712ZM585.712 210.04V205.816H598.336V210.04H585.712ZM585.712 204.232V200.248H598.336V204.232H585.712ZM619.312 199.048V217.816H620.968V199.048H619.312ZM624.328 197.872V219.448H626.032V197.872H624.328ZM614.536 197.944V208.504C614.488 213.04 613.528 216.328 611.608 218.392L612.904 219.544C615.04 217.216 616.144 213.544 616.192 208.504V197.944H614.536ZM607.888 197.632L606.688 198.808C608.416 200.104 609.808 201.352 610.816 202.528L611.992 201.328C610.888 200.08 609.52 198.856 607.888 197.632ZM605.08 204.736V206.392H608.608V215.728C608.608 216.136 608.416 216.496 608.08 216.808L608.752 218.344C610.192 217.288 611.536 216.088 612.808 214.744L612.352 212.944C611.632 213.712 610.936 214.408 610.264 215.032V204.736H605.08ZM636.664 214.528C634.504 215.44 631.936 216.184 629.008 216.712L629.224 218.44C632.008 217.864 634.504 217.144 636.664 216.232V214.528ZM633.04 197.44C632.176 200.272 631.168 202.768 629.968 204.952C629.752 205.264 629.512 205.48 629.224 205.624L629.656 207.208C630.904 206.992 632.128 206.752 633.352 206.512C632.152 208.768 631.12 210.352 630.28 211.312C630.064 211.504 629.8 211.672 629.512 211.816L629.968 213.424C632.176 213.088 634.456 212.488 636.856 211.576V210.016C635.248 210.616 633.64 211.096 632.032 211.432C633.328 209.728 635.008 206.872 637.024 202.864L635.44 202.264C635.008 203.2 634.576 204.088 634.144 204.952C633.184 205.144 632.224 205.312 631.264 205.456C632.416 203.608 633.544 201.16 634.696 198.088L633.04 197.44ZM639.568 211.888C638.872 213.856 637.864 215.776 636.544 217.672L638.032 218.512C639.184 216.856 640.192 214.864 641.08 212.512L639.568 211.888ZM648.568 211.864L647.032 212.368C647.992 214.144 648.88 216.184 649.672 218.488L651.136 217.84C650.416 215.728 649.552 213.736 648.568 211.864ZM643.216 219.184C644.584 219.184 645.28 218.536 645.28 217.264V210.496H650.392V208.96H645.28V204.304H642.064C642.352 203.488 642.64 202.6 642.928 201.688H650.392V200.08H643.408C643.624 199.312 643.84 198.52 644.056 197.68L642.376 197.368C642.136 198.304 641.92 199.216 641.68 200.08H636.352V201.688H641.2C640.912 202.6 640.624 203.464 640.336 204.304H637.216V205.864H639.712C639.208 207.016 638.68 208.072 638.152 209.008L638.536 210.496H643.624V216.736C643.624 217.36 643.312 217.672 642.712 217.672L640.408 217.6L640.84 219.184H643.216ZM641.464 205.864H643.624V208.96H640.072C640.552 208 641.008 206.968 641.464 205.864Z" fill="black"/>
<rect x="480" y="400" width="200" height="80" rx="24" fill="#909090"/>
<path d="M510.664 439.616V441.248H519.208V444.272H512.032V445.856H519.208V448.928H509.344V450.608H530.656V448.928H520.936V445.856H528.184V444.272H520.936V441.248H529.36V439.616H510.664ZM512.248 430.28V437.576H527.752V430.28H512.248ZM526.048 435.944H513.952V431.912H526.048V435.944ZM553.072 430.352H542.416V443.624H544.12V432.008H551.32V443.624H553.072V430.352ZM552.544 451.016C553.312 451.016 553.888 450.824 554.272 450.464C554.68 450.032 554.968 448.808 555.112 446.84L553.504 446.336C553.408 447.824 553.264 448.736 553.072 449.048C552.904 449.288 552.616 449.432 552.232 449.432H550.552C550.048 449.432 549.808 449.168 549.808 448.664V443.528H548.08V449.024C548.08 450.344 548.728 451.016 550.048 451.016H552.544ZM546.808 433.712V439.568C546.76 442.256 546.232 444.44 545.272 446.12C544.24 447.704 542.416 449 539.824 450.008L540.76 451.472C543.448 450.464 545.368 449.048 546.52 447.272C547.72 445.352 548.368 442.784 548.464 439.568V433.712H546.808ZM533.512 438.272V439.952H536.272V445.928C535.216 446.216 534.16 446.456 533.08 446.648L533.488 448.304C536.2 447.656 538.744 446.864 541.12 445.904V444.248C540.112 444.656 539.104 445.04 538.048 445.4V439.952H540.736V438.272H538.048V432.656H541.072V431H533.2V432.656H536.272V438.272H533.512ZM571.312 431.048V449.816H572.968V431.048H571.312ZM576.328 429.872V451.448H578.032V429.872H576.328ZM566.536 429.944V440.504C566.488 445.04 565.528 448.328 563.608 450.392L564.904 451.544C567.04 449.216 568.144 445.544 568.192 440.504V429.944H566.536ZM559.888 429.632L558.688 430.808C560.416 432.104 561.808 433.352 562.816 434.528L563.992 433.328C562.888 432.08 561.52 430.856 559.888 429.632ZM557.08 436.736V438.392H560.608V447.728C560.608 448.136 560.416 448.496 560.08 448.808L560.752 450.344C562.192 449.288 563.536 448.088 564.808 446.744L564.352 444.944C563.632 445.712 562.936 446.408 562.264 447.032V436.736H557.08ZM588.664 446.528C586.504 447.44 583.936 448.184 581.008 448.712L581.224 450.44C584.008 449.864 586.504 449.144 588.664 448.232V446.528ZM585.04 429.44C584.176 432.272 583.168 434.768 581.968 436.952C581.752 437.264 581.512 437.48 581.224 437.624L581.656 439.208C582.904 438.992 584.128 438.752 585.352 438.512C584.152 440.768 583.12 442.352 582.28 443.312C582.064 443.504 581.8 443.672 581.512 443.816L581.968 445.424C584.176 445.088 586.456 444.488 588.856 443.576V442.016C587.248 442.616 585.64 443.096 584.032 443.432C585.328 441.728 587.008 438.872 589.024 434.864L587.44 434.264C587.008 435.2 586.576 436.088 586.144 436.952C585.184 437.144 584.224 437.312 583.264 437.456C584.416 435.608 585.544 433.16 586.696 430.088L585.04 429.44ZM591.568 443.888C590.872 445.856 589.864 447.776 588.544 449.672L590.032 450.512C591.184 448.856 592.192 446.864 593.08 444.512L591.568 443.888ZM600.568 443.864L599.032 444.368C599.992 446.144 600.88 448.184 601.672 450.488L603.136 449.84C602.416 447.728 601.552 445.736 600.568 443.864ZM595.216 451.184C596.584 451.184 597.28 450.536 597.28 449.264V442.496H602.392V440.96H597.28V436.304H594.064C594.352 435.488 594.64 434.6 594.928 433.688H602.392V432.08H595.408C595.624 431.312 595.84 430.52 596.056 429.68L594.376 429.368C594.136 430.304 593.92 431.216 593.68 432.08H588.352V433.688H593.2C592.912 434.6 592.624 435.464 592.336 436.304H589.216V437.864H591.712C591.208 439.016 590.68 440.072 590.152 441.008L590.536 442.496H595.624V448.736C595.624 449.36 595.312 449.672 594.712 449.672L592.408 449.6L592.84 451.184H595.216ZM593.464 437.864H595.624V440.96H592.072C592.552 440 593.008 438.968 593.464 437.864ZM615.928 439.232C618.184 441.536 620.032 443.72 621.424 445.784L622.72 444.464C621.016 442.184 618.928 439.856 616.432 437.504C616.624 436.712 616.768 435.848 616.888 434.936H623.752V448.328C623.752 449.096 623.368 449.504 622.6 449.504L618.928 449.408L619.408 451.136H623.176C624.712 451.136 625.504 450.32 625.504 448.712V433.256H617.08C617.176 432.056 617.248 430.736 617.248 429.32H615.496C615.496 430.712 615.424 432.032 615.304 433.256H606.52V451.376H608.272V434.936H615.112C614.944 436.04 614.728 437.048 614.464 437.984C613.6 440.648 611.824 442.856 609.136 444.632L610.288 446.048C613.072 444.224 614.944 441.968 615.928 439.232ZM640.288 429.272L638.44 429.584C638.728 430.136 639.016 430.736 639.304 431.408H630.184V435.8H631.864V433.016H648.136V435.68H649.816V431.408H641.104C640.84 430.616 640.576 429.896 640.288 429.272ZM639.376 436.952C636.976 439.592 633.592 441.704 629.2 443.336L630.112 444.752C631.12 444.368 632.104 443.96 633.088 443.48V451.424H634.768V450.416H645.496V451.424H647.152V443.576C647.968 443.96 648.856 444.344 649.816 444.728L650.752 443.312C646 441.488 642.64 439.376 640.696 436.952H639.376ZM634.768 448.832V444.992H645.496V448.832H634.768ZM633.136 443.456C635.8 442.136 638.104 440.48 640.024 438.464C641.656 440.336 643.96 442.016 646.888 443.456H633.136ZM642.808 434.024L641.704 435.104C644.752 436.712 647.152 438.224 648.904 439.664L650.104 438.488C648.136 437 645.688 435.512 642.808 434.024ZM637.12 434C635.104 435.68 632.656 437.12 629.728 438.368L630.76 439.712C633.736 438.368 636.232 436.808 638.272 435.032L637.12 434Z" fill="black"/>
<rect x="152" y="168" width="200" height="80" rx="24" fill="#919191"/>
<path d="M185.496 204.064V207.64H183.12C183.72 206.104 184.272 204.352 184.8 202.384H189.432V200.752H185.208C185.424 199.792 185.64 198.76 185.856 197.68L184.272 197.32C184.056 198.52 183.84 199.648 183.6 200.752H181.224V202.384H183.216C182.664 204.52 182.064 206.32 181.392 207.76L181.752 209.2H185.496V212.776C184.104 213.04 182.616 213.28 181.032 213.472L181.248 215.152C182.712 214.936 184.128 214.696 185.496 214.432V219.4H187.104V214.072L189.384 213.496V211.864C188.664 212.056 187.92 212.248 187.104 212.44V209.2H189.312V207.64H187.104V204.064H185.496ZM192.576 202.84V204.256H199.464V202.816H192.6C193.8 201.664 194.952 200.392 196.104 199C197.928 201.352 199.968 203.344 202.224 204.976L203.136 203.608C200.952 202.072 198.816 200.032 196.728 197.44H195.48C193.536 199.84 191.328 201.952 188.88 203.752L189.816 205.192C190.752 204.472 191.664 203.68 192.576 202.84ZM194.256 219.232C195.432 219.232 196.032 218.608 196.032 217.384V206.176H190.368V219.4H191.88V214.912H194.568V217.072C194.568 217.6 194.304 217.864 193.776 217.864L192.72 217.816L193.104 219.232H194.256ZM191.88 213.568V211.288H194.568V213.568H191.88ZM191.88 209.944V207.568H194.568V209.944H191.88ZM197.472 206.848V215.464H198.816V206.848H197.472ZM200.088 219.28C201.24 219.28 201.84 218.584 201.84 217.216V205.768H200.328V216.832C200.328 217.504 200.064 217.864 199.56 217.864C198.96 217.864 198.336 217.816 197.688 217.768L198.048 219.28H200.088ZM214.944 202.96C213.408 209.344 210.072 214.24 204.936 217.6L205.968 219.064C211.008 215.8 214.32 211.096 215.904 204.976C216.024 205.264 216.144 205.6 216.288 205.984C218.76 212.32 221.928 216.688 225.816 219.04L226.896 217.648C223.104 215.272 220.104 211.216 217.848 205.48C216.36 201.592 214.56 198.88 212.424 197.392L210.984 198.304C212.52 199.408 213.84 200.944 214.944 202.96ZM239.112 204.496V219.376H240.888V204.496H239.112ZM239.232 197.416C236.808 201.016 233.352 203.968 228.864 206.248L229.896 207.808C233.976 205.744 237.336 202.816 240 199.024C242.208 202.48 245.592 205.36 250.104 207.712L251.136 206.152C246.24 203.632 242.784 200.728 240.768 197.416H239.232ZM264.864 197.44H263.112C263.112 198.352 263.088 199.624 263.064 201.256C262.848 208.168 259.44 213.664 252.84 217.72L253.896 219.256C259.224 215.824 262.632 211.504 264.072 206.272C265.776 211.696 269.088 216.016 273.984 219.232L275.112 217.72C269.52 214.288 266.04 209.296 264.696 202.768C264.792 201.28 264.864 199.504 264.864 197.44ZM279.696 205.96V219.448H281.4V203.128C282.24 201.496 282.936 199.768 283.512 197.92L281.904 197.176C280.824 200.92 279.12 204.256 276.768 207.16L277.32 209.008C278.184 208.048 278.976 207.016 279.696 205.96ZM283.416 200.56V202.192H299.04V200.56H291.48L292.392 200.224C292.104 199.336 291.72 198.376 291.216 197.32L289.56 197.776C290.04 198.688 290.448 199.6 290.808 200.56H283.416ZM285.624 204.136V205.696H296.976V204.136H285.624ZM285.624 207.52V209.104H296.976V207.52H285.624ZM297.408 211.072H285.168V219.4H286.848V218.104H295.728V219.4H297.408V211.072ZM286.848 216.472V212.68H295.728V216.472H286.848ZM304.584 199.168V210.904H319.608V199.168H311.688C311.976 198.64 312.216 198.088 312.408 197.488L310.608 197.248C310.44 197.92 310.2 198.544 309.864 199.168H304.584ZM317.928 209.416H306.264V207.4H317.928V209.416ZM306.264 206.008V204.04H317.928V206.008H306.264ZM306.264 202.648V200.68H317.928V202.648H306.264ZM303.384 212.536C302.928 214.408 302.184 216.136 301.152 217.672L302.616 218.608C303.648 216.976 304.44 215.08 305.016 212.872L303.384 212.536ZM314.952 219.04C315.864 219.04 316.56 218.848 316.992 218.488C317.472 218.032 317.808 216.808 318 214.792L316.344 214.264C316.248 215.824 316.032 216.76 315.744 217.096C315.552 217.336 315.168 217.48 314.616 217.48H309.288C308.736 217.48 308.472 217.192 308.472 216.64V212.416H306.72V217C306.72 218.344 307.392 219.04 308.784 219.04H314.952ZM311.736 211.552L310.464 212.344C311.712 213.592 312.672 214.72 313.392 215.752L314.712 214.84C314.016 213.904 313.032 212.8 311.736 211.552ZM319.488 212.104L318.144 212.944C319.608 214.84 320.784 216.568 321.648 218.128L323.016 217.168C322.2 215.728 321.024 214.024 319.488 212.104Z" fill="black"/>
<rect x="152" y="400" width="200" height="80" rx="24" fill="#909090"/>
<path d="M174.144 429.56C174.144 434.168 173.856 437.96 173.28 440.936C172.56 444.464 171.048 447.392 168.792 449.72L169.992 451.184C172.584 448.592 174.24 445.304 174.984 441.272C176.52 443.12 177.792 444.872 178.752 446.552L180.048 445.232C178.752 443.264 177.192 441.272 175.32 439.28C175.704 436.52 175.896 433.28 175.896 429.56H174.144ZM183.528 429.536C183.504 434.192 183.192 438.008 182.616 441.008C181.848 444.56 180.264 447.512 177.888 449.864L179.088 451.328C181.824 448.664 183.6 445.28 184.368 441.152C184.416 440.912 184.44 440.672 184.488 440.432C185.736 444.68 187.536 448.256 189.888 451.16L191.136 449.672C188.208 446.384 186.144 441.896 184.992 436.184C185.16 434.168 185.256 431.936 185.256 429.536H183.528ZM204.816 429.2L202.896 429.536C203.328 430.112 203.76 430.784 204.144 431.528H195.12V438.68C195.072 443.576 194.376 447.392 193.056 450.128L194.472 451.4C196.008 448.232 196.8 443.984 196.896 438.68V433.208H214.68V431.528H206.04C205.656 430.664 205.248 429.896 204.816 429.2ZM203.256 433.88C202.992 434.672 202.728 435.44 202.464 436.184H198.216V437.696H201.84C201.096 439.352 200.256 440.744 199.344 441.872L199.704 443.36H205.992V446.048H197.328V447.632H205.992V451.424H207.72V447.632H214.896V446.048H207.72V443.36H213.072V441.8H207.72V438.896H205.992V441.8H201.504C202.272 440.6 202.992 439.232 203.664 437.696H213.624V436.184H204.264C204.48 435.56 204.696 434.936 204.912 434.264L203.256 433.88ZM227.112 429.296V433.616H218.52V444.896H220.248V443.384H227.112V451.568H228.888V443.384H235.776V444.896H237.504V433.616H228.888V429.296H227.112ZM220.248 441.704V435.296H227.112V441.704H220.248ZM228.888 441.704V435.296H235.776V441.704H228.888ZM244.872 432.752H246.936C247.536 433.568 248.064 434.384 248.496 435.248L250.08 434.648C249.744 434.072 249.336 433.424 248.808 432.752H251.976V431.192H245.616C245.832 430.688 246.048 430.16 246.24 429.584L244.584 429.224C243.888 431.288 242.784 433.16 241.272 434.888L242.76 435.8C243.552 434.888 244.248 433.856 244.872 432.752ZM255.312 432.752H257.304C257.928 433.568 258.48 434.408 258.96 435.272L260.544 434.672C260.184 434.072 259.728 433.424 259.176 432.752H262.824V431.192H256.056C256.248 430.712 256.416 430.232 256.584 429.728L254.904 429.368C254.328 431.24 253.392 432.968 252.096 434.504L253.56 435.44C254.208 434.624 254.784 433.712 255.312 432.752ZM246.48 435.8V441.992C246.432 445.784 245.208 448.544 242.832 450.272L244.104 451.376C246.744 449.408 248.088 446.264 248.136 441.992V435.8H246.48ZM242.448 437.888V445.736H244.104V437.888H242.448ZM255.24 437.744V440.024H250.704V449.192H252.264V441.536H255.24V451.472H256.872V441.536H259.944V446.552C259.944 447.176 259.656 447.488 259.08 447.488L257.88 447.44L258.312 448.976H259.608C260.904 448.976 261.552 448.28 261.552 446.912V440.024H256.872V437.744H262.584V436.184H249.576V437.744H255.24ZM267.024 429.776L265.848 430.904C267.552 432.248 268.896 433.52 269.88 434.72L271.08 433.52C269.976 432.272 268.632 431.024 267.024 429.776ZM280.968 450.968H286.536L286.968 449.24C286.32 449.288 285.408 449.312 284.256 449.336C283.056 449.36 281.88 449.384 280.728 449.384C278.856 449.384 277.272 449.36 276.024 449.336C274.584 449.288 273.504 449.096 272.76 448.76C272.088 448.448 271.464 447.944 270.888 447.248C270.696 447.032 270.504 446.84 270.312 446.696V437.72H265.296V439.304H268.704V446.6C267.696 447.032 266.568 448.28 265.272 450.32L266.568 451.496C267.912 449.24 268.872 448.136 269.472 448.136C269.76 448.136 270.072 448.328 270.408 448.736C271.152 449.6 271.992 450.2 272.928 450.488C273.888 450.752 275.16 450.896 276.696 450.92C278.232 450.944 279.672 450.968 280.968 450.968ZM278.904 429.32V432.392H275.736C276.024 431.624 276.288 430.832 276.528 429.992L274.872 429.656C274.296 431.816 273.36 433.808 272.064 435.608L273.576 436.544C274.104 435.776 274.584 434.96 275.016 434.048H278.904V437.48H272.664V439.16H276.528C276.456 440.648 276.216 441.944 275.808 443C275.184 444.44 273.912 445.64 271.968 446.6L273.096 447.968C275.352 446.792 276.816 445.28 277.44 443.456C277.848 442.256 278.088 440.816 278.16 439.16H280.584V445.976C280.584 446.504 280.728 446.936 281.064 447.272C281.376 447.608 281.832 447.776 282.456 447.776H284.184C285 447.752 285.576 447.56 285.912 447.224C286.272 446.84 286.536 445.664 286.68 443.672L285.168 443.168C285.072 444.872 284.88 445.832 284.592 446.048C284.4 446.192 284.16 446.264 283.824 446.264H282.96C282.432 446.264 282.192 446.024 282.192 445.592V439.16H286.224V437.48H280.584V434.048H285.384V432.392H280.584V429.32H278.904ZM299.928 439.232C302.184 441.536 304.032 443.72 305.424 445.784L306.72 444.464C305.016 442.184 302.928 439.856 300.432 437.504C300.624 436.712 300.768 435.848 300.888 434.936H307.752V448.328C307.752 449.096 307.368 449.504 306.6 449.504L302.928 449.408L303.408 451.136H307.176C308.712 451.136 309.504 450.32 309.504 448.712V433.256H301.08C301.176 432.056 301.248 430.736 301.248 429.32H299.496C299.496 430.712 299.424 432.032 299.304 433.256H290.52V451.376H292.272V434.936H299.112C298.944 436.04 298.728 437.048 298.464 437.984C297.6 440.648 295.824 442.856 293.136 444.632L294.288 446.048C297.072 444.224 298.944 441.968 299.928 439.232ZM324.288 429.272L322.44 429.584C322.728 430.136 323.016 430.736 323.304 431.408H314.184V435.8H315.864V433.016H332.136V435.68H333.816V431.408H325.104C324.84 430.616 324.576 429.896 324.288 429.272ZM323.376 436.952C320.976 439.592 317.592 441.704 313.2 443.336L314.112 444.752C315.12 444.368 316.104 443.96 317.088 443.48V451.424H318.768V450.416H329.496V451.424H331.152V443.576C331.968 443.96 332.856 444.344 333.816 444.728L334.752 443.312C330 441.488 326.64 439.376 324.696 436.952H323.376ZM318.768 448.832V444.992H329.496V448.832H318.768ZM317.136 443.456C319.8 442.136 322.104 440.48 324.024 438.464C325.656 440.336 327.96 442.016 330.888 443.456H317.136ZM326.808 434.024L325.704 435.104C328.752 436.712 331.152 438.224 332.904 439.664L334.104 438.488C332.136 437 329.688 435.512 326.808 434.024ZM321.12 434C319.104 435.68 316.656 437.12 313.728 438.368L314.76 439.712C317.736 438.368 320.232 436.808 322.272 435.032L321.12 434Z" fill="black"/>
<rect x="808" y="168" width="200" height="80" rx="24" fill="#919191"/>
<path d="M843.728 206.32C844.592 209.224 846.296 211.816 848.84 214.096C846.752 215.632 844.16 216.952 841.088 218.008L842.048 219.472C845.264 218.32 848 216.904 850.208 215.2C852.296 216.784 854.888 218.224 858.008 219.472L858.944 217.96C856.016 216.856 853.52 215.584 851.456 214.144C853.88 211.936 855.56 209.296 856.472 206.224V204.688H842.024V200.632C847.664 200.488 852.752 199.984 857.312 199.12L856.496 197.632C851.696 198.568 846.296 199.072 840.296 199.144V206.56C840.152 211.456 839.096 215.272 837.128 218.056L838.352 219.328C840.632 216.16 841.856 211.888 842.024 206.56V206.32H843.728ZM850.088 213.088C847.76 211.12 846.176 208.864 845.36 206.32H854.72C853.832 208.888 852.296 211.144 850.088 213.088ZM870.704 198.712V203.416H875.192V204.928H869.384V206.416H882.68V204.928H876.872V203.416H881.408V198.712H876.872V197.368H875.192V198.712H870.704ZM879.896 202.048H876.872V200.104H879.896V202.048ZM875.192 202.048H872.216V200.104H875.192V202.048ZM881.12 208H870.752V215.128H872.36V209.44H879.512V215.128H881.12V208ZM877.712 215.224L876.848 216.472C878.576 217.192 880.28 218.176 881.936 219.424L882.872 217.984C881.312 216.88 879.584 215.968 877.712 215.224ZM875 210.376V212.728C874.952 214.096 874.496 215.224 873.656 216.088C872.72 216.904 871.088 217.576 868.76 218.056L869.696 219.52C872.12 218.944 873.872 218.128 874.928 217.12C876.032 216.016 876.608 214.552 876.68 212.728V210.376H875ZM864.488 203.056H867.56C867.104 203.968 866.624 204.784 866.096 205.504L867.344 206.488C868.088 205.48 868.76 204.256 869.384 202.816V201.472H864.968C865.256 200.344 865.52 199.144 865.736 197.848L864.056 197.56C863.48 201.4 862.424 204.448 860.84 206.704L861.92 208.024C862.952 206.68 863.816 205.024 864.488 203.056ZM864.368 206.2V216.448C864.368 216.88 864.176 217.192 863.816 217.408L864.512 218.872C866.36 218.128 867.992 217.168 869.384 216.016L869.072 214.408C868.04 215.344 867.032 216.088 866.024 216.64V206.2H864.368ZM899.312 199.048V217.816H900.968V199.048H899.312ZM904.328 197.872V219.448H906.032V197.872H904.328ZM894.536 197.944V208.504C894.488 213.04 893.528 216.328 891.608 218.392L892.904 219.544C895.04 217.216 896.144 213.544 896.192 208.504V197.944H894.536ZM887.888 197.632L886.688 198.808C888.416 200.104 889.808 201.352 890.816 202.528L891.992 201.328C890.888 200.08 889.52 198.856 887.888 197.632ZM885.08 204.736V206.392H888.608V215.728C888.608 216.136 888.416 216.496 888.08 216.808L888.752 218.344C890.192 217.288 891.536 216.088 892.808 214.744L892.352 212.944C891.632 213.712 890.936 214.408 890.264 215.032V204.736H885.08ZM916.664 214.528C914.504 215.44 911.936 216.184 909.008 216.712L909.224 218.44C912.008 217.864 914.504 217.144 916.664 216.232V214.528ZM913.04 197.44C912.176 200.272 911.168 202.768 909.968 204.952C909.752 205.264 909.512 205.48 909.224 205.624L909.656 207.208C910.904 206.992 912.128 206.752 913.352 206.512C912.152 208.768 911.12 210.352 910.28 211.312C910.064 211.504 909.8 211.672 909.512 211.816L909.968 213.424C912.176 213.088 914.456 212.488 916.856 211.576V210.016C915.248 210.616 913.64 211.096 912.032 211.432C913.328 209.728 915.008 206.872 917.024 202.864L915.44 202.264C915.008 203.2 914.576 204.088 914.144 204.952C913.184 205.144 912.224 205.312 911.264 205.456C912.416 203.608 913.544 201.16 914.696 198.088L913.04 197.44ZM919.568 211.888C918.872 213.856 917.864 215.776 916.544 217.672L918.032 218.512C919.184 216.856 920.192 214.864 921.08 212.512L919.568 211.888ZM928.568 211.864L927.032 212.368C927.992 214.144 928.88 216.184 929.672 218.488L931.136 217.84C930.416 215.728 929.552 213.736 928.568 211.864ZM923.216 219.184C924.584 219.184 925.28 218.536 925.28 217.264V210.496H930.392V208.96H925.28V204.304H922.064C922.352 203.488 922.64 202.6 922.928 201.688H930.392V200.08H923.408C923.624 199.312 923.84 198.52 924.056 197.68L922.376 197.368C922.136 198.304 921.92 199.216 921.68 200.08H916.352V201.688H921.2C920.912 202.6 920.624 203.464 920.336 204.304H917.216V205.864H919.712C919.208 207.016 918.68 208.072 918.152 209.008L918.536 210.496H923.624V216.736C923.624 217.36 923.312 217.672 922.712 217.672L920.408 217.6L920.84 219.184H923.216ZM921.464 205.864H923.624V208.96H920.072C920.552 208 921.008 206.968 921.464 205.864ZM937.928 203.056V204.472H945.824V203.056H937.928ZM938.576 206.008V210.904H945.272V206.008H938.576ZM943.664 209.56H940.208V207.352H943.664V209.56ZM953.936 199.552H952.328C952.088 198.76 951.824 198.04 951.56 197.416L950.024 197.68C950.312 198.256 950.576 198.88 950.816 199.552H948.2C948.152 198.832 948.152 198.088 948.152 197.296H946.496C946.496 198.064 946.496 198.832 946.544 199.552H935.144V204.28C935.072 207.064 934.4 209.224 933.104 210.784L934.4 211.96C935.936 210.016 936.752 207.448 936.824 204.28V201.136H946.616C946.736 203.128 946.976 204.784 947.36 206.128C947.648 207.112 947.984 208 948.368 208.768C947.6 209.632 946.736 210.352 945.8 210.904L946.688 212.248C947.552 211.72 948.392 211.048 949.184 210.208C949.28 210.352 949.424 210.52 949.568 210.688C950.456 211.648 951.368 212.152 952.328 212.152C953.336 212.152 954.2 210.88 954.92 208.36L953.528 207.544C953.048 209.536 952.592 210.544 952.16 210.544C951.632 210.544 951.056 210.112 950.432 209.272L950.216 208.936C951.32 207.4 952.232 205.48 952.976 203.128L951.632 202.432C951.056 204.304 950.312 205.912 949.448 207.304C949.208 206.704 949.016 206.032 948.848 205.288C948.56 204.208 948.368 202.816 948.272 201.136H953.936V199.552ZM935.888 212.416C935.312 214.336 934.424 216.088 933.224 217.672L934.688 218.608C935.888 216.952 936.8 215.008 937.472 212.752L935.888 212.416ZM947.144 219.016C948.032 219.016 948.68 218.848 949.112 218.512C949.592 218.08 949.904 216.952 950.048 215.08L948.416 214.528C948.32 215.92 948.128 216.736 947.888 217.024C947.672 217.264 947.312 217.384 946.832 217.384H941.72C941.12 217.384 940.832 217.048 940.832 216.376V212.152H939.08V216.736C939.08 218.248 939.776 219.016 941.192 219.016H947.144ZM951.68 212.92L950.288 213.784C951.68 215.344 952.76 216.784 953.576 218.08L954.944 217.096C954.2 215.896 953.12 214.504 951.68 212.92ZM944 211.744L942.704 212.536C943.808 213.736 944.672 214.84 945.296 215.848L946.592 214.936C945.992 214.024 945.128 212.944 944 211.744ZM976.568 197.584C971.744 198.256 965.672 198.592 958.352 198.592L958.856 200.152C966.56 200.152 972.752 199.768 977.408 199.048L976.568 197.584ZM978.032 204.784H973.472C974.264 203.752 975.032 202.48 975.8 200.944L974.072 200.296C973.4 201.88 972.584 203.392 971.624 204.784H957.968V210.256H959.648V206.416H976.352V210.256H978.032V204.784ZM961.352 200.752L959.84 201.52C960.68 202.456 961.472 203.536 962.216 204.736L963.704 203.992C962.984 202.816 962.192 201.736 961.352 200.752ZM967.064 200.488L965.504 201.232C966.32 202.192 967.064 203.296 967.784 204.544L969.32 203.752C968.6 202.552 967.832 201.472 967.064 200.488ZM960.896 208.768V210.352H961.856C962.792 212.2 964.352 213.832 966.536 215.224C964.064 216.304 961.016 217.168 957.392 217.84L958.304 219.472C962.264 218.656 965.576 217.576 968.264 216.232C970.76 217.528 973.904 218.608 977.696 219.448L978.704 217.912C975.272 217.216 972.368 216.328 969.992 215.248C972.248 213.856 973.904 212.176 974.96 210.256V208.768H960.896ZM963.632 210.352H973.04C971.936 211.888 970.352 213.232 968.24 214.384C966.152 213.232 964.616 211.888 963.632 210.352Z" fill="black"/>
<rect x="808" y="400" width="200" height="80" rx="24" fill="#909090"/>
<path d="M872 434.744V436.16H874.76V438.416H871.616V439.856H879.584V438.416H876.392V436.16H879.176V434.744H876.392V432.848H874.76V434.744H872ZM872.384 441.56V447.68H878.768V441.56H872.384ZM877.28 446.264H873.872V443H877.28V446.264ZM882.104 430.352H869.12V443.6C869.072 446.264 868.496 448.472 867.344 450.224L868.616 451.4C870.008 449.384 870.704 446.744 870.752 443.504V431.912H880.472V448.568C880.472 449.36 880.112 449.768 879.44 449.768C878.768 449.768 878.024 449.744 877.232 449.696L877.64 451.28H879.944C881.384 451.28 882.104 450.56 882.104 449.144V430.352ZM863.936 429.68L862.736 430.856C864.344 432.128 865.616 433.328 866.576 434.48L867.752 433.28C866.72 432.08 865.448 430.88 863.936 429.68ZM861.008 436.736V438.392H864.344V447.464C864.344 447.848 864.152 448.16 863.816 448.448L864.488 449.984C865.832 449.024 867.08 447.944 868.256 446.744L867.824 445.04C867.2 445.664 866.6 446.216 866.024 446.744V436.736H861.008ZM886.16 433.208V437.384H890C888.296 438.656 886.616 439.592 884.936 440.168L885.68 441.56C887.168 440.816 888.608 439.856 890.024 438.656V441.392H891.56V438.92C892.472 439.4 893.624 440.12 894.968 441.056L895.856 439.736C894.416 438.992 892.976 438.344 891.56 437.768V437.384H895.424V433.208H891.56V431.864H896.024V430.52H891.56V429.392H890.024V430.52H885.296V431.864H890.024V433.208H886.16ZM894.032 436.208H891.56V434.408H894.032V436.208ZM890.024 436.208H887.552V434.408H890.024V436.208ZM899.192 432.848H903.392C903.104 434.648 902.48 436.088 901.544 437.168L901.424 437.288C900.32 436.328 899.408 435.176 898.712 433.784C898.856 433.496 899.024 433.184 899.192 432.848ZM900.224 438.248C899.216 438.896 897.92 439.448 896.288 439.88L896.888 441.296C898.76 440.768 900.296 440.072 901.472 439.256C902.72 440.168 904.16 440.888 905.84 441.416L906.728 440.048C905.192 439.592 903.848 438.968 902.672 438.2L902.768 438.104C903.872 436.76 904.592 435.008 904.928 432.848H906.32V431.36H899.768C899.96 430.76 900.152 430.136 900.296 429.464L898.76 429.272C898.232 431.624 897.224 433.64 895.736 435.272L896.744 436.544C897.104 436.136 897.464 435.704 897.8 435.248C898.448 436.352 899.264 437.36 900.224 438.248ZM894.968 443.72V449.336H890.768V444.824H889.184V449.336H885.344V450.872H906.656V449.336H896.696V447.248H904.04V445.76H896.696V443.72H905.504V442.208H886.544V443.72H894.968ZM916.592 436.592V438.32H923.096V451.448H924.872V438.32H931.04V436.592H924.872V429.368H923.096V436.592H916.592ZM911.888 429.632L910.688 430.808C912.416 432.104 913.808 433.352 914.816 434.528L915.992 433.328C914.888 432.08 913.52 430.856 911.888 429.632ZM909.08 436.736V438.392H912.608V447.968C912.608 448.352 912.416 448.688 912.056 448.976L912.728 450.536C914.432 449.408 916.04 448.136 917.528 446.696L917.096 444.92C916.088 445.88 915.128 446.696 914.264 447.416V436.736H909.08ZM947.432 431.48V446.456H949.112V431.48H947.432ZM951.704 451.184C953.192 451.184 953.96 450.44 953.96 448.952V429.464H952.232V448.52C952.232 449.264 951.848 449.648 951.104 449.648C950.096 449.648 949.016 449.6 947.864 449.528L948.248 451.184H951.704ZM945.032 434.744L938.192 435.8C938.048 433.904 937.976 431.792 937.976 429.44H936.2C936.2 431.888 936.296 434.096 936.488 436.064L933.272 436.568L933.536 438.248L936.656 437.768C936.848 439.448 937.088 440.912 937.424 442.16C937.688 443.216 937.976 444.176 938.312 445.064C936.752 446.504 934.952 447.608 932.936 448.4L933.968 449.96C935.816 449.192 937.496 448.136 939.032 446.84C939.392 447.632 939.8 448.328 940.232 448.952C941.336 450.488 942.44 451.256 943.544 451.256C944.144 451.256 944.696 450.728 945.176 449.72C945.56 448.88 945.92 447.848 946.256 446.6L944.792 445.664C944.312 448.112 943.88 449.36 943.448 449.432C942.728 449.408 941.912 448.688 941.024 447.272C940.76 446.792 940.496 446.264 940.256 445.664C942.008 443.84 943.496 441.56 944.696 438.872L943.184 438.08C942.2 440.264 941 442.16 939.584 443.768C939.32 442.952 939.08 442.04 938.864 441.008C938.648 439.952 938.48 438.8 938.336 437.504L945.296 436.424L945.032 434.744ZM941.144 429.344L939.728 430.04C940.616 431.096 941.456 432.272 942.248 433.592L943.712 432.872C942.896 431.6 942.056 430.424 941.144 429.344Z" fill="black"/>
<path d="M86.4472 219.963L86 219.068L86 219.068L86.4472 219.963ZM81.8235 222.275L81.3763 221.38L80.8897 221.624L80.8296 222.164L81.8235 222.275ZM79.0988 246.797L80.0927 246.907L80.0927 246.907L79.0988 246.797ZM62.9012 246.797L63.895 246.687L63.895 246.687L62.9012 246.797ZM60.1765 222.275L61.1704 222.164L61.1103 221.624L60.6237 221.38L60.1765 222.275ZM55.5528 219.963L56 219.068L56 219.068L55.5528 219.963ZM88 203.687C88 194.298 80.3888 186.687 71 186.687V188.687C79.2843 188.687 86 195.402 86 203.687H88ZM88 219.068L88 203.687H86L86 219.068H88ZM86.8944 220.857C87.572 220.519 88 219.826 88 219.068H86L86 219.068L86.8944 220.857ZM82.2707 223.169L86.8944 220.857L86 219.068L81.3763 221.38L82.2707 223.169ZM80.8296 222.164L78.105 246.687L80.0927 246.907L82.8174 222.385L80.8296 222.164ZM78.105 246.687L78.105 246.687V248.687C79.1241 248.687 79.9802 247.92 80.0927 246.907L78.105 246.687ZM78.105 246.687L63.895 246.687L63.895 248.687L78.105 248.687V246.687ZM63.895 246.687L63.895 246.687L61.9073 246.907C62.0198 247.92 62.8759 248.687 63.895 248.687L63.895 246.687ZM63.895 246.687L61.1704 222.164L59.1826 222.385L61.9073 246.907L63.895 246.687ZM55.1056 220.857L59.7293 223.169L60.6237 221.38L56 219.068L55.1056 220.857ZM54 219.068C54 219.826 54.428 220.519 55.1056 220.857L56 219.068L56 219.068H54ZM54 203.687L54 219.068H56L56 203.687H54ZM71 186.687C61.6112 186.687 54 194.298 54 203.687H56C56 195.402 62.7157 188.687 71 188.687V186.687Z" fill="#919191"/>
<circle cx="70.9999" cy="175.843" r="7.84314" stroke="#919191" stroke-width="2"/>
<path d="M75.7057 176.157C75.7057 178.582 73.5988 180.549 70.9998 180.549C68.4008 180.549 66.2939 178.582 66.2939 176.157" stroke="#919191" stroke-width="2"/>
<rect x="49" y="401" width="43.7143" height="78" rx="8" stroke="#909090" stroke-width="2"/>
<rect x="53.5713" y="409" width="34.5714" height="25.4286" rx="3" stroke="#909090" stroke-width="2"/>
<rect x="53.5713" y="438.714" width="15.1429" height="16.2857" rx="3" stroke="#909090" stroke-width="2"/>
<rect x="73" y="438.714" width="15.1429" height="16.2857" rx="3" stroke="#909090" stroke-width="2"/>
<path d="M69.072 50.352H58.416V63.624H60.12V52.008H67.32V63.624H69.072V50.352ZM68.544 71.016C69.312 71.016 69.888 70.824 70.272 70.464C70.68 70.032 70.968 68.808 71.112 66.84L69.504 66.336C69.408 67.824 69.264 68.736 69.072 69.048C68.904 69.288 68.616 69.432 68.232 69.432H66.552C66.048 69.432 65.808 69.168 65.808 68.664V63.528H64.08V69.024C64.08 70.344 64.728 71.016 66.048 71.016H68.544ZM62.808 53.712V59.568C62.76 62.256 62.232 64.44 61.272 66.12C60.24 67.704 58.416 69 55.824 70.008L56.76 71.472C59.448 70.464 61.368 69.048 62.52 67.272C63.72 65.352 64.368 62.784 64.464 59.568V53.712H62.808ZM49.512 58.272V59.952H52.272V65.928C51.216 66.216 50.16 66.456 49.08 66.648L49.488 68.304C52.2 67.656 54.744 66.864 57.12 65.904V64.248C56.112 64.656 55.104 65.04 54.048 65.4V59.952H56.736V58.272H54.048V52.656H57.072V51H49.2V52.656H52.272V58.272H49.512ZM78.456 60.936C76.824 62.664 75 64.2 73.008 65.52L73.536 67.32C75.36 65.976 77.016 64.512 78.456 62.976V71.328H80.16V49.536H78.456V60.936ZM74.952 51.912L73.32 52.44C74.232 54.264 75.072 56.376 75.816 58.776L77.328 58.08C76.656 55.896 75.864 53.832 74.952 51.912ZM91.152 49.872L89.808 50.712C91.056 52.128 92.064 53.424 92.784 54.624L94.128 53.664C93.432 52.584 92.448 51.312 91.152 49.872ZM88.488 49.464H86.784C86.784 50.928 86.736 53.064 86.664 55.848H81.744V57.504H86.568C86.088 62.256 84.24 66.456 81.024 70.056L82.176 71.352C84.912 68.424 86.808 64.776 87.816 60.432C88.872 64.8 90.912 68.424 93.936 71.28L95.112 69.984C91.8 67.056 89.64 62.88 88.608 57.504H94.272V55.848H88.416C88.464 53.352 88.488 51.24 88.488 49.464ZM100.8 50.208V58.536H115.392V50.208H100.8ZM113.688 57.072H102.504V55.104H113.688V57.072ZM102.504 53.688V51.696H113.688V53.688H102.504ZM107.4 61.896V69.072C106.896 68.976 106.464 68.856 106.08 68.736C104.832 68.28 103.68 67.224 102.672 65.544C102.984 64.752 103.248 63.912 103.488 63.024L101.856 62.736C101.064 65.736 99.552 68.136 97.344 69.912L98.472 71.328C99.912 70.152 101.112 68.688 102.048 66.912C103.008 68.496 104.112 69.552 105.336 70.104C106.752 70.704 109.44 71.016 113.4 71.016C114.768 71.04 116.304 71.064 118.032 71.064L118.512 69.432C117.096 69.48 115.344 69.504 113.28 69.504C111.696 69.504 110.304 69.432 109.152 69.336V66.144H116.064V64.608H109.152V61.896H118.632V60.312H97.392V61.896H107.4ZM126.576 53.52H128.184V62.88H129.936V60.984H140.184V59.424H129.936V57.288H139.488V55.776H129.936V53.52H141.264V51.912H127.44C127.776 51.192 128.088 50.448 128.424 49.656L126.768 49.272C125.448 52.488 123.744 55.08 121.68 57.072L122.856 58.44C124.248 57.048 125.496 55.392 126.576 53.52ZM123.984 63.792C123.408 65.808 122.496 67.656 121.224 69.336L122.712 70.248C123.984 68.544 124.968 66.504 125.664 64.128L123.984 63.792ZM132.888 62.808L131.352 63.312C132.144 64.464 132.888 65.808 133.56 67.344L135.072 66.672C134.448 65.28 133.704 64.008 132.888 62.808ZM139.488 63.384L137.928 63.888C139.176 65.52 140.28 67.416 141.288 69.552L142.824 68.88C141.864 66.936 140.76 65.112 139.488 63.384ZM135.432 70.992C136.344 70.992 136.992 70.8 137.424 70.464C137.904 70.056 138.24 68.904 138.384 66.984L136.752 66.456C136.656 67.824 136.488 68.664 136.2 68.952C135.984 69.192 135.624 69.312 135.12 69.312H130.248C129.528 69.312 129.192 69 129.192 68.4V63.84H127.44V68.76C127.44 70.248 128.184 70.992 129.696 70.992H135.432ZM159.096 55.368V58.896H154.416V60.528H159.096V64.152H153.12V65.808H159.096V71.472H160.824V65.808H166.92V64.152H160.824V60.528H165.576V58.896H160.824V55.368H166.296V53.736H162.768C163.464 52.632 164.112 51.36 164.688 49.92L163.032 49.344C162.456 50.904 161.808 52.368 161.064 53.736H157.296L158.664 53.064C157.992 51.768 157.296 50.568 156.576 49.464L155.136 50.136C155.856 51.192 156.552 52.392 157.224 53.736H153.672V55.368H159.096ZM150.288 59.184C150.912 60 151.608 61.032 152.424 62.304L153.36 60.912C152.304 59.568 151.296 58.344 150.288 57.264V55.752H152.688V54.096H150.288V49.416H148.632V54.096H145.632V55.752H148.512C147.768 58.752 146.544 61.392 144.864 63.696L145.752 65.136C146.928 63.336 147.888 61.344 148.632 59.16V71.424H150.288V59.184ZM177.696 53.544H173.832C174.312 52.344 174.672 51.024 174.96 49.608L173.232 49.368C173.016 50.808 172.68 52.2 172.2 53.544H169.968V70.608H171.648V68.544H176.016V69.912H177.696V53.544ZM171.648 66.936V61.68H176.016V66.936H171.648ZM171.648 60.12V55.176H176.016V60.12H171.648ZM181.872 59.112L180.48 59.976C182.136 61.944 183.456 63.72 184.44 65.304L185.808 64.344C184.896 62.856 183.6 61.104 181.872 59.112ZM190.104 53.568H182.448C182.88 52.32 183.216 50.976 183.504 49.56L181.8 49.344C181.176 52.752 180.048 55.632 178.368 57.984L179.4 59.352C180.336 58.128 181.128 56.76 181.8 55.248H188.4C188.352 62.16 188.256 66.312 188.112 67.656C187.92 68.88 187.272 69.504 186.144 69.504C185.4 69.504 184.536 69.48 183.528 69.432L183.936 71.016C185.088 71.064 185.904 71.112 186.384 71.112C188.4 71.112 189.504 70.176 189.744 68.352C189.984 66.48 190.104 61.536 190.104 53.568Z" fill="#909090"/>
<line x1="48" y1="87" x2="192" y2="87" stroke="#909090" stroke-width="2"/>
</svg>
