<svg width="618" height="244" viewBox="0 0 618 244" fill="none" xmlns="http://www.w3.org/2000/svg">
<path d="M460.263 242.325C516.717 246.078 601.06 244.245 614.801 228.605C628.542 212.965 597.135 193.062 485.619 192.843C374.102 192.623 314.714 232.651 460.263 242.325Z" fill="white" fill-opacity="0.25"/>
<ellipse cx="587.758" cy="222.409" rx="8.13511" ry="0.895339" fill="black" fill-opacity="0.25"/>
<path d="M427.103 222.796C427.103 223.781 421.358 224.579 414.271 224.579C407.184 224.579 401.244 223.781 401.244 222.796C401.244 221.811 407.184 221.013 414.271 221.013C421.358 221.013 427.103 221.811 427.103 222.796Z" fill="black" fill-opacity="0.25"/>
<path d="M402.155 222.583L424.4 222.583C426.32 222.58 425.989 218.091 424.976 217.634C420.059 215.417 416.696 219.818 411.369 219.767C403.9 219.695 401.893 221.006 402.155 222.583Z" fill="#FF9C7A"/>
<path d="M528.082 196.369L493.305 180.208L498.935 158.657L530.224 180.047C530.224 180.047 537.804 181.018 542.883 183.05C547.962 185.081 576.291 197.416 576.291 197.416L573.921 205.456L528.082 196.369Z" fill="#FF9C7A"/>
<path d="M573.74 205.984L576.461 197.024L577.718 197.489C580.425 198.488 583.37 198.648 586.169 197.948C588.855 197.275 591.422 199.404 591.244 202.167C590.697 210.633 589.938 220.636 589.308 221.253C587.931 222.601 582.251 223.565 580.455 221.506C579.929 220.904 579.892 220.458 580.136 220.083C581.994 217.231 583.334 215.09 581.75 212.078L578.897 206.653L573.74 205.984Z" fill="#2E2E99"/>
<path d="M543.394 209.865L533.027 197.5C532.402 196.755 531.332 196.567 530.491 197.055L529.206 197.801L525.836 189.777L530.467 187.85L537.694 183.655C538.832 182.994 540.288 183.595 540.629 184.866L546.858 208.061C547.414 210.129 544.77 211.506 543.394 209.865Z" fill="#2E2E99"/>
<path d="M496.636 185.357L477.085 175.913L479.23 143.045L505.912 163.056L496.636 185.357Z" fill="#2E2E99"/>
<path d="M475.157 212.676L468.014 187.661L488.579 185.418L490.234 200.347C490.234 200.347 491.664 197.968 496.046 196.336C500.428 194.703 525.886 189.976 525.886 189.976L529.079 197.497L488.579 218.484C483.302 221.742 476.395 218.752 475.157 212.676Z" fill="#FF9C7A"/>
<path d="M524.46 200.006L521.248 202.002L518.6 191.047L522.31 190.174L524.46 200.006Z" fill="#5252CC"/>
<path d="M518.696 197.37C518.406 195.87 519.521 194.275 521.185 193.807C522.85 193.339 524.435 194.176 524.725 195.676C525.015 197.175 523.9 198.771 522.236 199.238C520.571 199.706 518.986 198.87 518.696 197.37Z" fill="#84C2FF"/>
<path d="M519.27 197.209C519.04 196.019 519.945 194.748 521.291 194.369C522.638 193.991 523.917 194.648 524.147 195.838C524.377 197.028 523.472 198.299 522.125 198.678C520.778 199.056 519.5 198.399 519.27 197.209Z" fill="#4187CC"/>
<path d="M497.917 182.384L502.459 184.448C494.648 180.891 491.934 159 486.916 153.392L489.284 181.763L496.625 185.382L497.917 182.384Z" fill="black" fill-opacity="0.25"/>
<path d="M468.108 188.491L462.729 164.522L464.551 140.968L472.245 140.968C487.428 141.775 492.631 149.333 489.368 164.522C488.328 173.095 490.682 186.636 490.682 186.636L468.108 188.491Z" fill="#5252CC"/>
<path d="M422.482 168.094C409.282 168.498 407.412 153.721 408.074 147.471C409.416 134.796 410.89 134.826 419.546 135.001L419.605 135.002C425.419 135.12 464.2 140.28 467.519 140.97C470.838 141.66 462.001 173.713 458.937 173.939C455.873 174.166 435.682 167.69 422.482 168.094Z" fill="#9999FF"/>
<path d="M426.399 167.986C418.903 167.393 426.544 148.302 426.544 148.302C433.726 153.474 428.897 166.652 446.758 171.339C446.758 171.339 433.896 168.579 426.399 167.986Z" fill="black" fill-opacity="0.25"/>
<path d="M411.683 136.044L395.244 131.703L394.745 143.81L408.379 146.004C413.085 138.355 411.683 136.044 411.683 136.044Z" fill="#FF9C7A"/>
<path d="M405.304 145.51L403.077 145.157C401.845 144.146 399.615 141.588 401.81 141.917C404.005 142.246 405.194 144.638 405.304 145.51Z" fill="black" fill-opacity="0.25"/>
<path d="M383.176 149.965C376.132 149.297 374.121 146.582 375.075 137.284C376.463 123.763 385.029 125.319 390.483 127.117C397.043 129.278 402.796 140.377 404.035 145.489C405.222 150.384 403.944 151.214 402.763 151.975C401.583 152.736 390.22 150.633 383.176 149.965Z" fill="#FF9C7A"/>
<path d="M401.645 133.035C403.249 133.721 401.997 136.776 401.351 137.518C400.238 138.798 398.816 139.69 397.33 140.044C395.681 140.504 394.011 140.434 392.532 139.814C391.063 139.204 389.828 138.088 389.018 136.607C388.128 140.131 386.894 143.596 385.337 146.912C384.812 148.029 384.156 149.067 383.371 149.991L375.322 149.967C375.322 149.967 366.573 151.643 367.151 146.219C367.729 140.795 373.295 140.41 371.631 135.149C369.966 129.888 369.119 128.496 372.631 125.178C376.152 121.851 378.545 129.677 381.314 123.056C384.091 116.426 385.895 115.938 388.444 116.905C394.749 120.769 394.185 129.962 401.645 133.035Z" fill="#995612"/>
<path d="M394.932 142.627C393.071 141.898 392.153 139.794 392.881 137.927C393.61 136.061 395.709 135.14 397.57 135.869C399.431 136.598 400.349 138.702 399.621 140.568C398.892 142.435 396.793 143.356 394.932 142.627Z" fill="#FF9C7A"/>
<path d="M417.659 188.226L412.872 169.957C411.566 165.461 414.733 160.903 419.403 160.559C423.277 160.274 426.706 163.048 427.237 166.896L427.878 181.555C428.459 185.765 428.61 185.479 427.878 189.666L426.184 220.622V220.622C425.772 222.975 422.874 221.326 422.179 219.041L422.084 218.728L417.659 188.226Z" fill="#FF9C7A"/>
<path d="M421.348 215.402L420.859 211.807L426.877 211.844L426.637 215.544L421.348 215.402Z" fill="#5252CC"/>
<path d="M421.721 210.44C423.247 210.518 424.528 211.982 424.583 213.711C424.638 215.439 423.446 216.777 421.92 216.698C420.395 216.62 419.113 215.156 419.058 213.427C419.003 211.699 420.196 210.361 421.721 210.44Z" fill="#84C2FF"/>
<path d="M421.74 211.04C422.951 211.102 423.968 212.285 424.012 213.684C424.056 215.082 423.111 216.165 421.901 216.103C420.691 216.041 419.673 214.857 419.629 213.459C419.585 212.061 420.53 210.978 421.74 211.04Z" fill="#4187CC"/>
<path d="M412.558 169.684L409.029 157.501L425.938 142.333C425.938 142.333 428 159.821 427.711 169.45C426.771 171.602 414.888 171.977 412.558 169.684Z" fill="#9999FF"/>
<path d="M484.297 206L484 202.115C486.269 199.302 490 198 490 198C488.28 199.254 485.823 203.958 484.297 206Z" fill="black" fill-opacity="0.25"/>
<rect x="257.344" y="129" width="54" height="96" rx="7" fill="#5B93FF" stroke="#5B93FF" stroke-width="2"/>
<ellipse cx="284.344" cy="212" rx="6" ry="6" fill="#BED4FE"/>
<path d="M284.344 78.6919V119.461" stroke="url(#paint0_linear_2450_6116)" stroke-width="2" stroke-linecap="round"/>
<path d="M429.394 201.238C457.694 106.609 390.224 52.0024 342.617 52.0024" stroke="url(#paint1_linear_2450_6116)" stroke-width="2" stroke-linecap="round"/>
<path d="M71.7455 242.152C118.701 245.905 188.851 244.071 200.28 228.431C211.709 212.792 185.587 192.889 92.835 192.669C0.0835157 192.45 -49.3117 232.477 71.7455 242.152Z" fill="white" fill-opacity="0.25"/>
<path d="M141.738 222.757C141.738 223.761 122.342 224.576 98.4157 224.576C74.4896 224.576 55.0938 223.761 55.0938 222.757C55.0938 221.752 74.4896 220.937 98.4157 220.937C122.342 220.937 141.738 221.752 141.738 222.757Z" fill="black" fill-opacity="0.25"/>
<path d="M136.791 219.934L125.556 214.795C122.938 213.597 121.259 210.983 121.259 208.104H113.219C114.092 212.056 113.776 216.183 112.309 219.955C111.729 221.447 112.83 223.056 114.431 223.056H136.111C137.867 223.056 138.388 220.665 136.791 219.934Z" fill="#2E2E99"/>
<path d="M120.321 162.745L116.777 135.112H98.2148C98.2148 135.112 103.211 156.187 105.156 161.548C107.102 166.909 105.184 170.131 106.541 176.272C107.898 182.414 113.644 208.11 113.644 208.11H120.713L120.321 162.745Z" fill="#FF9C7A"/>
<path d="M115.744 90.8051L115.744 62.9356C115.744 60.4225 114.06 58.2215 111.634 57.5652C108.019 56.5872 104.49 59.3874 104.621 63.1298L105.61 91.4476C110.446 101.064 113.084 116.192 113.318 117.612C113.61 119.387 112.383 120.704 111.998 123.591C111.562 126.863 112.429 127.373 113.114 126.804C113.779 126.251 113.424 124.208 114.376 121.95C115.343 121.949 114.558 124.683 114.376 126.419C113.154 129.628 112.172 128.506 113.413 132.671C114.147 135.134 117.882 130.12 119.181 128.143C120.22 126.561 119.889 122.292 119.547 120.097L115.744 90.8051Z" fill="#FF9C7A"/>
<path d="M115.543 60.4824C115.037 58.6727 112.105 57.2126 107.07 55.376L112.277 77.6528L115.987 76.6575C116.017 73.1287 116.05 62.292 115.543 60.4824Z" fill="#9999FF"/>
<path d="M113.699 98.495C113.389 91.0625 113.029 65.4316 113.029 65.4316L107.906 95.9922L115.292 124.488C115.292 124.488 114.009 105.927 113.699 98.495Z" fill="black" fill-opacity="0.25"/>
<path d="M117.193 137.953L113.38 110.453L90.6797 105.913L92.1375 120.907L97.1504 142.9C97.1504 142.9 112.665 143.539 117.193 137.953Z" fill="#2E2E99"/>
<path d="M98.5349 107.132C101.988 107.118 101.608 107.099 103.416 107.132C96.047 110.763 95.5136 134.308 96.2536 137.761L90.3984 113.675L98.5349 107.132Z" fill="black" fill-opacity="0.25"/>
<path d="M79.2732 208.568L86.3217 209.206C86.3217 209.206 88.034 181.424 88.2618 175.843C88.4897 170.262 88.1711 163.955 88.2618 159.727C88.3526 155.499 95.1154 113.17 95.1154 113.17L73.2224 109.639C70.5751 122.228 70.5667 124.85 71.3963 134.749C73.2983 157.447 79.2732 208.568 79.2732 208.568Z" fill="#FF9C7A"/>
<path d="M79.0374 211.992V208.104H87.0775L86.9875 208.511C86.1681 212.221 86.3196 216.079 87.4276 219.712L87.4813 219.888C87.9618 221.464 86.7828 223.056 85.1352 223.056H76.2824C74.9856 223.056 74.2049 221.619 74.9106 220.531L77.8523 215.996C78.6258 214.804 79.0374 213.413 79.0374 211.992Z" fill="#2E2E99"/>
<path d="M78.2006 200.589L78.0977 203.581L86.6611 203.878L86.8285 200.895L78.2006 200.589Z" fill="#5252CC"/>
<path d="M78.8313 205.396C79.8911 205.437 80.7978 203.992 80.8565 202.169C80.9152 200.346 80.1036 198.836 79.0438 198.795C77.984 198.755 77.0773 200.199 77.0186 202.022C76.9599 203.845 77.7715 205.356 78.8313 205.396Z" fill="#84C2FF"/>
<path d="M78.1943 205.05C79.149 205.087 79.9658 203.785 80.0187 202.143C80.0715 200.501 79.3404 199.14 78.3857 199.104C77.431 199.067 76.6142 200.369 76.5613 202.011C76.5084 203.653 77.2395 205.014 78.1943 205.05Z" fill="#4187CC"/>
<path d="M73.2649 106.26L92.9747 109.169L101.068 109.685L97.3132 115.182C95.8475 117.328 94.9143 119.792 94.5909 122.37L91.9908 143.105C91.9908 143.105 78.3074 144.708 70.6106 142.357C68.432 121.673 69.5829 115.203 73.2649 106.26Z" fill="#5252CC"/>
<path d="M109.953 56.603C105.553 54.4279 98.5837 51.2368 94.1044 51.2368C85.5493 51.2368 78.4087 53.4812 73.7481 55.6576C70.6721 57.0939 69.2035 60.4294 69.503 63.8109L73.2633 106.26C96.9763 114.396 113.382 110.468 113.382 110.468C108.823 79.1734 117.596 60.3818 109.953 56.603Z" fill="#9999FF"/>
<path d="M73.0721 104.09C73.0721 98.8896 78.0262 96.9827 80.6283 87.5828C83.2305 78.183 80.6283 64.7076 80.6283 64.7076C81.016 63.0296 80.2461 61.2976 78.7406 60.4613C76.3224 59.1178 73.3173 60.6772 73.0236 63.4279L71.1717 80.7718C71.1345 81.1206 71.1307 81.4721 71.1603 81.8217L73.0721 104.09Z" fill="black" fill-opacity="0.25"/>
<path d="M81.7589 65.5113L70.1994 92.9604C69.0897 95.5955 65.996 96.7595 63.4246 95.5095C61.2133 94.4347 60.1157 91.9084 60.839 89.5585L69.5947 61.1128C70.6975 57.5205 74.6165 55.6182 78.1212 56.974C81.5203 58.289 83.165 62.1489 81.7589 65.5113Z" fill="#FF9C7A"/>
<path d="M64.7024 96.0108C63.5485 95.5699 63.174 95.5041 62.3279 94.6041L69.5622 87.7552C69.5622 87.7552 75.4017 89.731 78.4069 91.8167C81.4121 93.9024 96.6967 103.074 96.6967 103.074C100.817 101.458 104.825 102.291 106.344 103.377C106.171 104.48 105.618 104.472 103.566 104.076C102.578 103.885 100.781 104.569 100.623 105.41C101.843 105.97 103.634 106.245 104.701 105.883C106.311 105.336 107.52 103.259 109.988 104.392C110.659 104.7 111.561 106.443 111.274 107.069C110.986 107.695 106.879 110.563 106.372 110.468C105.864 110.372 102.532 110.427 101.132 110.025C100.012 109.704 96.4195 108.086 94.1462 107.26L64.7024 96.0108Z" fill="#FF9C7A"/>
<path d="M90.4929 106.032L92.8849 106.946L95.1648 102.005L92.8849 100.729L90.4929 106.032Z" fill="#5252CC"/>
<path d="M94.2297 107.066C95.0962 106.361 94.8612 105.132 93.7049 104.321C92.5486 103.511 90.9089 103.426 90.0425 104.131C89.1761 104.837 89.4111 106.066 90.5673 106.876C91.7236 107.687 93.3633 107.772 94.2297 107.066Z" fill="#84C2FF"/>
<path d="M93.6635 106.962C94.3238 106.424 94.1094 105.463 93.1845 104.815C92.2596 104.167 90.9745 104.077 90.3141 104.615C89.6538 105.152 89.8683 106.113 90.7932 106.761C91.7181 107.409 93.0032 107.499 93.6635 106.962Z" fill="#4187CC"/>
<g opacity="0.2">
<path d="M60.7044 92.4325C60.6042 91.2013 60.5019 90.835 60.9488 89.6834L70.2488 93.2545C70.2488 93.2545 70.986 99.375 70.4011 102.986C69.8162 106.597 68.1376 124.343 68.1376 124.343C71.373 127.362 72.3506 131.338 72.0269 133.176C70.9573 133.496 70.7256 132.994 70.1977 130.972C69.9435 129.999 68.551 128.673 67.7244 128.893C67.7454 130.235 68.2699 131.969 69.0572 132.776C70.245 133.992 72.641 134.187 72.6835 136.902C72.695 137.641 71.5117 139.206 70.823 139.217C70.1344 139.228 65.775 136.76 65.642 136.261C65.5089 135.762 64.022 132.78 63.7803 131.343C63.587 130.194 63.4967 126.255 63.2607 123.848L60.7044 92.4325Z" fill="#FF9C7A"/>
<path d="M62.7936 120.022L63.0017 122.574L68.4422 122.499L68.6101 119.892L62.7936 120.022Z" fill="#5252CC"/>
<path d="M63.4727 123.841C64.4831 124.318 65.4905 123.576 65.7228 122.183C65.9551 120.79 65.3244 119.274 64.3141 118.797C63.3037 118.32 62.2963 119.062 62.064 120.455C61.8317 121.848 62.4624 123.364 63.4727 123.841Z" fill="#84C2FF"/>
<path d="M63.3206 123.286C64.0904 123.65 64.8648 123.041 65.0504 121.927C65.236 120.813 64.7625 119.615 63.9928 119.252C63.223 118.888 62.4486 119.496 62.263 120.61C62.0774 121.724 62.5509 122.922 63.3206 123.286Z" fill="#4187CC"/>
</g>
<g opacity="0.4">
<path d="M62.6567 95.6498C61.9032 94.6709 61.6183 94.4191 61.3672 93.2095L71.1142 91.1506C71.1142 91.1506 75.0604 95.8867 76.5328 99.2354C78.0051 102.584 86.2441 118.391 86.2441 118.391C90.6012 119.166 93.5832 121.971 94.3109 123.69C93.5872 124.54 93.1195 124.245 91.5773 122.835C90.8347 122.156 88.9452 121.8 88.3709 122.434C89.1182 123.549 90.5014 124.72 91.6006 124.968C93.2591 125.344 95.3756 124.204 96.8874 126.46C97.2987 127.074 97.1568 129.031 96.5847 129.415C96.0126 129.798 91.0121 130.097 90.6292 129.751C90.2463 129.404 87.3769 127.71 86.3931 126.635C85.6061 125.776 83.3887 122.519 81.882 120.627L62.6567 95.6498Z" fill="#FF9C7A"/>
<path d="M79.4107 117.671L80.9727 119.699L85.4982 116.679L84.2215 114.399L79.4107 117.671Z" fill="#5252CC"/>
<path d="M82.0563 120.506C83.1637 120.357 83.6056 119.186 83.0434 117.891C82.4811 116.596 81.1276 115.666 80.0201 115.815C78.9127 115.964 78.4708 117.135 79.0331 118.43C79.5953 119.725 80.9489 120.655 82.0563 120.506Z" fill="#84C2FF"/>
<path d="M81.6277 120.121C82.4715 120.008 82.7908 119.077 82.3409 118.041C81.891 117.005 80.8423 116.257 79.9984 116.37C79.1546 116.483 78.8353 117.415 79.2852 118.45C79.7351 119.486 80.7838 120.234 81.6277 120.121Z" fill="#4187CC"/>
</g>
<path d="M65.6318 73.6468C65.6318 73.6468 68.8225 61.1515 70.0332 59.3569C71.2438 57.5623 74.2805 56.2894 74.2805 56.2894L80.9122 56.5189L85.12 60.7995L77.1802 78.7115L65.6318 73.6468Z" fill="#9999FF"/>
<path d="M95.346 42.4962L89.8324 41.7915L89.1367 51.6836C89.1367 51.6836 97.0671 53.2338 96.6955 51.6836C96.3239 50.1333 95.346 42.4962 95.346 42.4962Z" fill="#FF9C7A"/>
<path d="M96.0519 47.7253L96.3015 49.4474C95.3348 49.3703 93.4766 47.1714 93.4766 46.4507L96.0519 47.7253Z" fill="black" fill-opacity="0.25"/>
<path d="M94.6779 23.1895C89.368 23.4355 79.9445 22.9834 86.8801 34.9348C86.736 38.5304 92.8224 47.2682 96.4733 48.7752C100.124 50.2822 103.863 48.687 104.976 45.3986C106.09 42.1101 106.083 39.9512 106.704 33.9355C107.043 30.5443 110.351 22.4837 94.6779 23.1895Z" fill="#FF9C7A"/>
<path d="M87.2014 39.3703C88.1163 40.8189 89.0034 41.962 89.9079 43.0297C91.313 42.6704 93.0473 40.1626 93.888 39.1625C94.8727 38.0795 95.4602 36.7767 95.5545 35.4094C95.6523 34.052 95.2738 32.6799 94.4532 31.4928C97.4877 32.1657 100.608 32.5533 103.739 32.6368C104.795 32.6645 105.84 32.5621 106.847 32.3168L109.918 26.1577C109.918 26.1577 114.558 20.1171 110.192 18.4766C105.826 16.8361 103.395 20.9402 100.015 17.6492C96.6343 14.3581 95.8959 13.1762 92.0124 14.5854C88.1186 15.9981 93.1795 20.831 87.0579 20.4043C80.926 19.9811 79.8606 21.1721 79.6211 23.4903C80.1523 29.7912 85.0162 35.9103 87.2014 39.3703Z" fill="#995612"/>
<path d="M96.7788 38.3268C96.936 36.625 95.6811 35.1157 93.9757 34.9557C92.2704 34.7957 90.7604 36.0455 90.6032 37.7474C90.4459 39.4492 91.7008 40.9585 93.4062 41.1185C95.1115 41.2785 96.6215 40.0286 96.7788 38.3268Z" fill="#FF9C7A"/>
<path d="M96.7891 100.958C118.875 52.4308 174.134 34.8091 218.901 34.8091" stroke="url(#paint2_linear_2450_6116)" stroke-width="2" stroke-linecap="round"/>
<path d="M90.3672 209.469C154.251 209.47 173.347 49.3961 214.787 47.7386" stroke="url(#paint3_linear_2450_6116)" stroke-width="2" stroke-linecap="round"/>
<path d="M511.366 184.123C553.66 47.0558 411.861 33.9178 338.598 33.9185" stroke="url(#paint4_linear_2450_6116)" stroke-width="2" stroke-linecap="round"/>
<path d="M275.988 33.6719H284.407" stroke="#CEF9EE" stroke-width="2"/>
<path d="M256.344 56.1208L264.762 33.6719L273.18 56.1208" stroke="#CEF9EE" stroke-width="2" stroke-linecap="square"/>
<path d="M258.449 50.5088H271.077" stroke="#CEF9EE" stroke-width="2"/>
<path d="M275.988 56.1206H284.407" stroke="#CEF9EE" stroke-width="2"/>
<path d="M280.195 33.6719V56.1208" stroke="#CEF9EE" stroke-width="2"/>
<path d="M270 58L272.012 50.2857M281.478 58L279.801 50.2857M279.801 50.2857L276.261 34L272.012 50.2857M279.801 50.2857H272.012M286.696 34H290.348M294 34H290.348M290.348 34V58M290.348 58H286.696M290.348 58H294" stroke="white" stroke-opacity="0.75" stroke-width="2" stroke-linecap="round" stroke-linejoin="round"/>
<path fill-rule="evenodd" clip-rule="evenodd" d="M305.697 22.4C305.697 23.3482 305.639 24.2827 305.525 25.1999C305.583 25.1995 305.641 25.1992 305.699 25.1992C318.017 25.1992 328.002 35.2816 328.002 47.5992C328.002 59.9169 318.017 69.9992 305.699 69.9992C305.698 69.9992 305.698 69.9992 305.697 69.9992V69.9998L261.091 69.9998V69.9996C247.234 69.9989 236.002 58.6565 236.002 44.7996C236.002 30.9423 247.235 19.5996 261.092 19.5996C261.15 19.5996 261.207 19.5998 261.264 19.6002C262.636 8.55043 272.021 0 283.394 0C295.712 0 305.697 10.0288 305.697 22.4Z" fill="#30CDA6"/>
<defs>
<linearGradient id="paint0_linear_2450_6116" x1="284.172" y1="74.0005" x2="284.172" y2="120" gradientUnits="userSpaceOnUse">
<stop stop-color="white" stop-opacity="0"/>
<stop offset="1" stop-color="white"/>
</linearGradient>
<linearGradient id="paint1_linear_2450_6116" x1="436.1" y1="52.0024" x2="317.512" y2="177.519" gradientUnits="userSpaceOnUse">
<stop stop-color="white"/>
<stop offset="0.9999" stop-opacity="0.015625"/>
<stop offset="1" stop-color="white" stop-opacity="0"/>
</linearGradient>
<linearGradient id="paint2_linear_2450_6116" x1="218.901" y1="34.8091" x2="188.289" y2="130.293" gradientUnits="userSpaceOnUse">
<stop stop-color="white"/>
<stop offset="0.9999" stop-opacity="0.015625"/>
<stop offset="1" stop-color="white" stop-opacity="0"/>
</linearGradient>
<linearGradient id="paint3_linear_2450_6116" x1="214.787" y1="47.7388" x2="90.3672" y2="209.469" gradientUnits="userSpaceOnUse">
<stop stop-color="white"/>
<stop offset="0.9999" stop-opacity="0.015625"/>
<stop offset="1" stop-color="white" stop-opacity="0"/>
</linearGradient>
<linearGradient id="paint4_linear_2450_6116" x1="519.091" y1="33.9185" x2="424.319" y2="226.343" gradientUnits="userSpaceOnUse">
<stop stop-color="white"/>
<stop offset="0.9999" stop-opacity="0.015625"/>
<stop offset="1" stop-color="white" stop-opacity="0"/>
</linearGradient>
</defs>
</svg>
