<svg width="842" height="842" viewBox="0 0 842 842" fill="none" xmlns="http://www.w3.org/2000/svg">
<rect width="842" height="842" fill="black"/>
<path d="M421 779C223.282 779 63 618.718 63 421C63 223.282 223.282 63 421 63C618.718 63 779 223.282 779 421C779 482.323 763.582 540.045 736.41 590.5C675.975 702.724 557.395 779 421 779ZM421 779L421 723.5" stroke="#404040" stroke-width="8"/>
<path d="M603.5 112.945C708.573 175.328 779 289.939 779 421L678.5 421" stroke="#FF9933" stroke-width="8" stroke-linecap="round" stroke-linejoin="round"/>
<path d="M421 63C223.282 63 63 223.282 63 421M421 63C560.612 63 681.558 142.917 740.589 259.5M421 63L421 139" stroke="#FF6666" stroke-width="8" stroke-linecap="round" stroke-linejoin="round"/>
<path d="M119 421L63 421C63 276.648 148.436 152.25 271.5 95.6144" stroke="#66B2FF" stroke-width="8" stroke-linecap="round" stroke-linejoin="round"/>
<path d="M421 63C618.718 63 779 223.282 779 421C779 482.323 763.582 540.045 736.41 590.5C675.975 702.724 557.395 779 421 779C223.282 779 63 618.718 63 421C63 223.282 223.282 63 421 63Z" stroke="url(#paint0_angular_1613_11917)" stroke-width="8"/>
<path d="M419.5 636C454.786 636 488.082 627.48 517.443 612.384M205 421.5C205 337.884 252.844 265.442 322.65 230.058M517.217 230.5C487.912 215.477 454.696 207 419.5 207C384.651 207 351.743 215.31 322.65 230.058M517.217 230.5C586.552 266.043 634 338.231 634 421.5C634 504.679 586.655 576.8 517.443 612.384M517.217 230.5L525 230.5M517.443 612.384L526 612.384M322.65 230.058L316 230.058" stroke="#9E9E9E"/>
<path d="M219 421.5C219 387.803 227.313 356.047 242 328.171M513.259 598.773C548.857 579.906 578.093 550.63 596.91 515C596.983 514.862 597.055 514.724 597.128 514.586M597.128 514.586C611.735 486.769 620 455.1 620 421.5C620 388.255 611.909 356.899 597.588 329.296M597.128 514.586L589 514.586M597.588 329.296C564.209 264.957 496.988 221 419.5 221C342.464 221 275.576 264.446 242 328.171M597.588 329.296L590 329.296M242 328.171L250 328.171" stroke="#9E9E9E"/>
<circle cx="420" cy="635" r="100" fill="#777777"/>
<circle cx="420" cy="635" r="92" fill="#2F2F2F"/>
<path d="M445 623.875H444H445ZM445 648.757H446H445ZM444.447 649.651L444 648.757L444 648.757L444.447 649.651ZM436.75 653.5L436.303 652.606L435.816 652.849L435.756 653.39L436.75 653.5ZM432.349 693.11L433.343 693.221L433.343 693.221L432.349 693.11ZM406.651 693.11L407.645 693L407.645 693L406.651 693.11ZM402.25 653.5L403.244 653.39L403.184 652.849L402.697 652.606L402.25 653.5ZM394.553 649.651L395 648.757L395 648.757L394.553 649.651ZM394 648.757H395H394ZM394 623.875H393H394ZM446 623.875C446 609.239 434.136 597.375 419.5 597.375V599.375C433.031 599.375 444 610.344 444 623.875H446ZM446 648.757L446 623.875H444L444 648.757H446ZM444.894 650.546C445.572 650.207 446 649.515 446 648.757H444L444 648.757L444.894 650.546ZM437.197 654.394L444.894 650.546L444 648.757L436.303 652.606L437.197 654.394ZM435.756 653.39L431.355 693L433.343 693.221L437.744 653.61L435.756 653.39ZM431.355 693L431.355 693V695C432.374 695 433.23 694.234 433.343 693.221L431.355 693ZM431.355 693L407.645 693V695L431.355 695V693ZM407.645 693L407.645 693L405.657 693.221C405.77 694.234 406.626 695 407.645 695V693ZM407.645 693L403.244 653.39L401.256 653.61L405.657 693.221L407.645 693ZM394.106 650.546L401.803 654.394L402.697 652.606L395 648.757L394.106 650.546ZM393 648.757C393 649.515 393.428 650.207 394.106 650.546L395 648.757L395 648.757H393ZM393 623.875L393 648.757H395L395 623.875H393ZM419.5 597.375C404.864 597.375 393 609.239 393 623.875H395C395 610.344 405.969 599.375 419.5 599.375V597.375Z" fill="#777777"/>
<circle cx="419.5" cy="579.5" r="12.5" stroke="#777777" stroke-width="2"/>
<path d="M427 580C427 583.866 423.642 587 419.5 587C415.358 587 412 583.866 412 580" stroke="#777777" stroke-width="2"/>
<path d="M409 307L409 535L406 521.7" stroke="#9E9E9E"/>
<path d="M423 535L423 307L427 320.3" stroke="#9E9E9E"/>
<path d="M352.682 419.432V428H353.654V419.432H352.682ZM358.242 421.628C357.834 421.628 357.462 421.724 357.126 421.916C356.79 422.096 356.514 422.36 356.298 422.708V421.796H355.338V428H356.298V424.256C356.334 423.692 356.514 423.248 356.85 422.912C357.162 422.6 357.534 422.444 357.966 422.444C359.046 422.444 359.598 423.044 359.598 424.256V428H360.558V424.184C360.558 422.48 359.778 421.628 358.242 421.628ZM363.697 419.792L362.749 420.188V421.796H361.501V422.6H362.749V426.548C362.749 427.016 362.845 427.364 363.049 427.604C363.265 427.868 363.637 428 364.141 428H365.077V427.196H364.285C364.069 427.196 363.913 427.136 363.829 427.04C363.733 426.944 363.697 426.776 363.697 426.548V422.6H365.233V421.796H363.697V419.792ZM368.863 421.628C367.963 421.628 367.255 421.952 366.727 422.6C366.199 423.212 365.947 423.98 365.947 424.892C365.947 425.9 366.211 426.692 366.763 427.292C367.291 427.868 368.011 428.168 368.899 428.168C369.703 428.168 370.363 427.928 370.879 427.472C371.299 427.088 371.575 426.608 371.719 426.008H370.759C370.603 426.44 370.399 426.764 370.135 426.98C369.823 427.232 369.403 427.364 368.899 427.364C368.311 427.364 367.843 427.172 367.507 426.788C367.171 426.404 366.991 425.864 366.943 425.168H371.839C371.815 424.088 371.575 423.236 371.119 422.636C370.615 421.964 369.859 421.628 368.863 421.628ZM368.887 422.432C370.063 422.432 370.723 423.092 370.843 424.424H366.967C367.027 423.812 367.219 423.332 367.555 422.972C367.891 422.612 368.335 422.432 368.887 422.432ZM375.687 421.628C375.255 421.628 374.883 421.76 374.559 422.024C374.295 422.228 374.079 422.516 373.911 422.876V421.796H372.963V428H373.911V424.712C373.911 424.136 374.067 423.644 374.403 423.236C374.727 422.804 375.135 422.6 375.615 422.6C375.915 422.6 376.227 422.636 376.539 422.732V421.772C376.311 421.676 376.023 421.628 375.687 421.628ZM379.83 419.432C379.302 419.432 378.894 419.576 378.618 419.876C378.354 420.164 378.222 420.56 378.222 421.088V421.796H376.662V422.6H378.222V428H379.182V422.6H380.934V421.796H379.182V421.112C379.182 420.812 379.242 420.596 379.362 420.464C379.482 420.32 379.686 420.26 379.95 420.26H381.018V419.432H379.83ZM384.522 421.628C383.778 421.628 383.19 421.772 382.734 422.06C382.23 422.372 381.906 422.864 381.774 423.512L382.722 423.584C382.818 423.188 383.022 422.888 383.346 422.696C383.634 422.504 384.006 422.42 384.462 422.42C385.542 422.42 386.082 422.936 386.082 423.98V424.304L384.594 424.328C383.658 424.34 382.938 424.52 382.434 424.856C381.858 425.216 381.582 425.744 381.582 426.452C381.582 426.956 381.774 427.376 382.158 427.7C382.53 428.012 383.022 428.168 383.646 428.168C384.222 428.168 384.738 428.036 385.194 427.784C385.578 427.568 385.902 427.292 386.142 426.956V428H387.042V424.016C387.042 423.296 386.85 422.732 386.49 422.324C386.058 421.856 385.41 421.628 384.522 421.628ZM386.082 425.024V425.552C386.082 426.032 385.854 426.464 385.41 426.836C384.954 427.22 384.438 427.412 383.85 427.412C383.466 427.412 383.154 427.316 382.914 427.136C382.674 426.944 382.566 426.716 382.566 426.428C382.566 425.528 383.262 425.072 384.654 425.048L386.082 425.024ZM391.201 421.628C390.277 421.628 389.545 421.952 389.017 422.612C388.525 423.212 388.285 423.98 388.285 424.928C388.285 425.876 388.525 426.644 389.017 427.232C389.533 427.856 390.253 428.168 391.189 428.168C391.957 428.168 392.569 427.964 393.037 427.568C393.517 427.16 393.817 426.548 393.961 425.756H393.001C392.857 426.824 392.245 427.364 391.189 427.364C390.565 427.364 390.085 427.136 389.761 426.704C389.425 426.272 389.269 425.672 389.269 424.916C389.269 424.16 389.437 423.56 389.773 423.116C390.121 422.66 390.601 422.432 391.201 422.432C391.693 422.432 392.089 422.54 392.401 422.78C392.701 423.02 392.893 423.38 392.977 423.86H393.925C393.817 423.104 393.529 422.54 393.049 422.168C392.581 421.808 391.969 421.628 391.201 421.628ZM397.644 421.628C396.744 421.628 396.036 421.952 395.508 422.6C394.98 423.212 394.728 423.98 394.728 424.892C394.728 425.9 394.992 426.692 395.544 427.292C396.072 427.868 396.792 428.168 397.68 428.168C398.484 428.168 399.144 427.928 399.66 427.472C400.08 427.088 400.356 426.608 400.5 426.008H399.54C399.384 426.44 399.18 426.764 398.916 426.98C398.604 427.232 398.184 427.364 397.68 427.364C397.092 427.364 396.624 427.172 396.288 426.788C395.952 426.404 395.772 425.864 395.724 425.168H400.62C400.596 424.088 400.356 423.236 399.9 422.636C399.396 421.964 398.64 421.628 397.644 421.628ZM397.668 422.432C398.844 422.432 399.504 423.092 399.624 424.424H395.748C395.808 423.812 396 423.332 396.336 422.972C396.672 422.612 397.116 422.432 397.668 422.432ZM352.759 436.432C352.231 436.432 351.823 436.576 351.547 436.876C351.283 437.164 351.151 437.56 351.151 438.088V438.796H349.591V439.6H351.151V445H352.111V439.6H353.863V438.796H352.111V438.112C352.111 437.812 352.171 437.596 352.291 437.464C352.411 437.32 352.615 437.26 352.879 437.26H353.947V436.432H352.759ZM357.308 438.628C356.408 438.628 355.7 438.952 355.172 439.6C354.644 440.212 354.392 440.98 354.392 441.892C354.392 442.9 354.656 443.692 355.208 444.292C355.736 444.868 356.456 445.168 357.344 445.168C358.148 445.168 358.808 444.928 359.324 444.472C359.744 444.088 360.02 443.608 360.164 443.008H359.204C359.048 443.44 358.844 443.764 358.58 443.98C358.268 444.232 357.848 444.364 357.344 444.364C356.756 444.364 356.288 444.172 355.952 443.788C355.616 443.404 355.436 442.864 355.388 442.168H360.284C360.26 441.088 360.02 440.236 359.564 439.636C359.06 438.964 358.304 438.628 357.308 438.628ZM357.332 439.432C358.508 439.432 359.168 440.092 359.288 441.424H355.412C355.472 440.812 355.664 440.332 356 439.972C356.336 439.612 356.78 439.432 357.332 439.432ZM363.964 438.628C363.064 438.628 362.356 438.952 361.828 439.6C361.3 440.212 361.048 440.98 361.048 441.892C361.048 442.9 361.312 443.692 361.864 444.292C362.392 444.868 363.112 445.168 364 445.168C364.804 445.168 365.464 444.928 365.98 444.472C366.4 444.088 366.676 443.608 366.82 443.008H365.86C365.704 443.44 365.5 443.764 365.236 443.98C364.924 444.232 364.504 444.364 364 444.364C363.412 444.364 362.944 444.172 362.608 443.788C362.272 443.404 362.092 442.864 362.044 442.168H366.94C366.916 441.088 366.676 440.236 366.22 439.636C365.716 438.964 364.96 438.628 363.964 438.628ZM363.988 439.432C365.164 439.432 365.824 440.092 365.944 441.424H362.068C362.128 440.812 362.32 440.332 362.656 439.972C362.992 439.612 363.436 439.432 363.988 439.432ZM372.648 436.264V439.936C372.168 439.06 371.484 438.628 370.596 438.628C369.708 438.628 369.024 438.952 368.52 439.624C368.052 440.224 367.824 440.968 367.824 441.88C367.824 442.816 368.052 443.584 368.52 444.184C369.024 444.832 369.732 445.168 370.644 445.168C371.58 445.168 372.276 444.772 372.708 443.98V445H373.608V436.264H372.648ZM370.8 439.42C371.352 439.42 371.808 439.636 372.156 440.092C372.492 440.536 372.672 441.124 372.672 441.844V441.964C372.672 442.66 372.516 443.224 372.216 443.656C371.868 444.136 371.388 444.376 370.764 444.376C370.092 444.376 369.588 444.124 369.252 443.644C368.952 443.212 368.808 442.624 368.808 441.88C368.808 441.136 368.952 440.56 369.264 440.14C369.6 439.66 370.116 439.42 370.8 439.42ZM375.096 436.264V445H375.996V443.98C376.416 444.772 377.1 445.168 378.06 445.168C378.96 445.168 379.668 444.832 380.184 444.184C380.64 443.584 380.88 442.816 380.88 441.88C380.88 440.968 380.64 440.224 380.184 439.624C379.68 438.952 378.984 438.628 378.108 438.628C377.22 438.628 376.536 439.06 376.056 439.936V436.264H375.096ZM377.904 439.42C378.576 439.42 379.08 439.66 379.428 440.14C379.74 440.56 379.896 441.136 379.896 441.88C379.896 442.624 379.74 443.212 379.452 443.644C379.116 444.124 378.612 444.376 377.94 444.376C377.316 444.376 376.824 444.136 376.488 443.656C376.176 443.224 376.02 442.66 376.02 441.964V441.844C376.02 441.124 376.188 440.536 376.548 440.092C376.884 439.636 377.34 439.42 377.904 439.42ZM384.827 438.628C384.083 438.628 383.495 438.772 383.039 439.06C382.535 439.372 382.211 439.864 382.079 440.512L383.027 440.584C383.123 440.188 383.327 439.888 383.651 439.696C383.939 439.504 384.311 439.42 384.767 439.42C385.847 439.42 386.387 439.936 386.387 440.98V441.304L384.899 441.328C383.963 441.34 383.243 441.52 382.739 441.856C382.163 442.216 381.887 442.744 381.887 443.452C381.887 443.956 382.079 444.376 382.463 444.7C382.835 445.012 383.327 445.168 383.951 445.168C384.527 445.168 385.043 445.036 385.499 444.784C385.883 444.568 386.207 444.292 386.447 443.956V445H387.347V441.016C387.347 440.296 387.155 439.732 386.795 439.324C386.363 438.856 385.715 438.628 384.827 438.628ZM386.387 442.024V442.552C386.387 443.032 386.159 443.464 385.715 443.836C385.259 444.22 384.743 444.412 384.155 444.412C383.771 444.412 383.459 444.316 383.219 444.136C382.979 443.944 382.871 443.716 382.871 443.428C382.871 442.528 383.567 442.072 384.959 442.048L386.387 442.024ZM391.506 438.628C390.582 438.628 389.85 438.952 389.322 439.612C388.83 440.212 388.59 440.98 388.59 441.928C388.59 442.876 388.83 443.644 389.322 444.232C389.838 444.856 390.558 445.168 391.494 445.168C392.262 445.168 392.874 444.964 393.342 444.568C393.822 444.16 394.122 443.548 394.266 442.756H393.306C393.162 443.824 392.55 444.364 391.494 444.364C390.87 444.364 390.39 444.136 390.066 443.704C389.73 443.272 389.574 442.672 389.574 441.916C389.574 441.16 389.742 440.56 390.078 440.116C390.426 439.66 390.906 439.432 391.506 439.432C391.998 439.432 392.394 439.54 392.706 439.78C393.006 440.02 393.198 440.38 393.282 440.86H394.23C394.122 440.104 393.834 439.54 393.354 439.168C392.886 438.808 392.274 438.628 391.506 438.628ZM395.392 436.264V445H396.352V442.804L397.336 441.916L399.76 445H400.996L397.996 441.292L400.732 438.796H399.46L396.352 441.676V436.264H395.392Z" fill="#9E9E9E"/>
<path d="M432.034 419.432V424.712C432.034 425.828 432.322 426.68 432.898 427.28C433.474 427.868 434.326 428.168 435.454 428.168C436.582 428.168 437.434 427.868 438.022 427.268C438.586 426.68 438.874 425.828 438.874 424.712V419.432H437.89V424.724C437.89 425.564 437.698 426.2 437.326 426.632C436.918 427.076 436.294 427.304 435.454 427.304C434.602 427.304 433.978 427.076 433.582 426.632C433.198 426.2 433.018 425.564 433.018 424.724V419.432H432.034ZM442.676 421.628C441.98 421.628 441.404 421.784 440.972 422.096C440.504 422.408 440.276 422.816 440.276 423.344C440.276 423.872 440.504 424.268 440.984 424.556C441.272 424.748 441.788 424.928 442.52 425.108C443.192 425.276 443.636 425.408 443.84 425.504C444.224 425.696 444.428 425.96 444.428 426.308C444.428 427.004 443.864 427.364 442.76 427.364C442.232 427.364 441.836 427.268 441.572 427.076C441.308 426.86 441.128 426.512 441.056 426.02H440.12C440.264 427.448 441.152 428.168 442.784 428.168C444.536 428.168 445.412 427.52 445.412 426.248C445.412 425.708 445.16 425.288 444.668 424.976C444.344 424.772 443.816 424.58 443.072 424.4C442.448 424.232 442.016 424.1 441.788 423.992C441.428 423.812 441.26 423.584 441.26 423.32C441.26 423.044 441.392 422.828 441.656 422.672C441.896 422.504 442.232 422.432 442.664 422.432C443.156 422.432 443.54 422.528 443.804 422.72C444.044 422.888 444.2 423.176 444.284 423.56H445.22C445.052 422.264 444.212 421.628 442.676 421.628ZM449.095 421.628C448.195 421.628 447.487 421.952 446.959 422.6C446.431 423.212 446.179 423.98 446.179 424.892C446.179 425.9 446.443 426.692 446.995 427.292C447.523 427.868 448.243 428.168 449.131 428.168C449.935 428.168 450.595 427.928 451.111 427.472C451.531 427.088 451.807 426.608 451.951 426.008H450.991C450.835 426.44 450.631 426.764 450.367 426.98C450.055 427.232 449.635 427.364 449.131 427.364C448.543 427.364 448.075 427.172 447.739 426.788C447.403 426.404 447.223 425.864 447.175 425.168H452.071C452.047 424.088 451.807 423.236 451.351 422.636C450.847 421.964 450.091 421.628 449.095 421.628ZM449.119 422.432C450.295 422.432 450.955 423.092 451.075 424.424H447.199C447.259 423.812 447.451 423.332 447.787 422.972C448.123 422.612 448.567 422.432 449.119 422.432ZM455.919 421.628C455.487 421.628 455.115 421.76 454.791 422.024C454.527 422.228 454.311 422.516 454.143 422.876V421.796H453.195V428H454.143V424.712C454.143 424.136 454.299 423.644 454.635 423.236C454.959 422.804 455.367 422.6 455.847 422.6C456.147 422.6 456.459 422.636 456.771 422.732V421.772C456.543 421.676 456.255 421.628 455.919 421.628ZM433.643 436.456C433.439 436.456 433.271 436.516 433.127 436.66C432.983 436.78 432.923 436.948 432.923 437.164C432.923 437.368 432.983 437.536 433.127 437.68C433.271 437.812 433.439 437.884 433.643 437.884C433.847 437.884 434.015 437.812 434.159 437.68C434.303 437.536 434.375 437.368 434.375 437.164C434.375 436.948 434.303 436.78 434.159 436.66C434.015 436.516 433.847 436.456 433.643 436.456ZM433.163 438.796V445H434.123V438.796H433.163ZM438.826 438.628C438.418 438.628 438.046 438.724 437.71 438.916C437.374 439.096 437.098 439.36 436.882 439.708V438.796H435.922V445H436.882V441.256C436.918 440.692 437.098 440.248 437.434 439.912C437.746 439.6 438.118 439.444 438.55 439.444C439.63 439.444 440.182 440.044 440.182 441.256V445H441.142V441.184C441.142 439.48 440.362 438.628 438.826 438.628ZM445.589 438.628C444.653 438.628 443.969 439.024 443.525 439.816V438.796H442.625V447.376H443.585V443.872C444.065 444.736 444.749 445.168 445.637 445.168C446.525 445.168 447.209 444.832 447.713 444.184C448.169 443.584 448.409 442.828 448.409 441.916C448.409 440.98 448.169 440.224 447.701 439.624C447.185 438.952 446.477 438.628 445.589 438.628ZM445.469 439.42C446.129 439.42 446.633 439.66 446.981 440.164C447.269 440.596 447.425 441.184 447.425 441.916C447.425 442.66 447.269 443.248 446.957 443.68C446.609 444.136 446.105 444.376 445.433 444.376C444.857 444.376 444.413 444.148 444.077 443.716C443.717 443.272 443.549 442.696 443.549 441.976V441.856C443.549 441.16 443.705 440.584 444.017 440.152C444.353 439.66 444.845 439.42 445.469 439.42ZM449.656 438.796V442.636C449.656 444.316 450.4 445.168 451.912 445.168C452.752 445.168 453.424 444.784 453.928 444.04V445H454.888V438.796H453.928V442.576C453.856 443.104 453.652 443.536 453.316 443.872C452.992 444.184 452.62 444.352 452.212 444.352C451.648 444.352 451.24 444.196 450.988 443.908C450.736 443.62 450.616 443.176 450.616 442.588V438.796H449.656ZM458.027 436.792L457.079 437.188V438.796H455.831V439.6H457.079V443.548C457.079 444.016 457.175 444.364 457.379 444.604C457.595 444.868 457.967 445 458.471 445H459.407V444.196H458.615C458.399 444.196 458.243 444.136 458.159 444.04C458.063 443.944 458.027 443.776 458.027 443.548V439.6H459.563V438.796H458.027V436.792Z" fill="#9E9E9E"/>
<path d="M224.563 287.521C223.629 288.455 223.214 289.498 223.349 290.652C223.46 291.696 223.969 292.663 224.868 293.563C225.768 294.462 226.718 294.971 227.736 295.073C228.856 295.192 229.892 294.785 230.833 293.843C231.478 293.198 231.852 292.451 231.954 291.62C232.064 290.729 231.826 289.863 231.258 289.023L230.587 289.694C230.995 290.338 231.147 290.983 231.063 291.611C230.978 292.205 230.698 292.74 230.214 293.223C229.501 293.936 228.729 294.233 227.889 294.14C227.091 294.055 226.319 293.622 225.564 292.867C224.809 292.112 224.385 291.331 224.283 290.517C224.173 289.643 224.47 288.853 225.174 288.149C225.649 287.674 226.158 287.386 226.718 287.284C227.295 287.182 227.855 287.301 228.381 287.657L229.052 286.987C228.364 286.469 227.609 286.257 226.794 286.359C225.98 286.461 225.233 286.851 224.563 287.521ZM231.619 283.809C231.093 284.335 230.779 284.852 230.66 285.378C230.524 285.955 230.643 286.532 231.008 287.084L231.729 286.465C231.517 286.117 231.449 285.76 231.542 285.395C231.61 285.056 231.814 284.734 232.136 284.411C232.9 283.647 233.647 283.63 234.385 284.369L234.614 284.598L233.579 285.667C232.925 286.337 232.544 286.974 232.425 287.568C232.272 288.229 232.45 288.798 232.951 289.299C233.307 289.655 233.74 289.816 234.241 289.774C234.724 289.731 235.183 289.494 235.624 289.053C236.031 288.645 236.303 288.187 236.447 287.686C236.566 287.262 236.6 286.838 236.532 286.431L237.27 287.169L237.906 286.532L235.089 283.715C234.58 283.206 234.045 282.943 233.502 282.909C232.866 282.884 232.247 283.181 231.619 283.809ZM235.123 285.107L235.496 285.48C235.836 285.82 235.98 286.286 235.929 286.863C235.878 287.457 235.649 287.958 235.233 288.374C234.962 288.645 234.673 288.798 234.376 288.84C234.071 288.874 233.833 288.79 233.63 288.586C232.993 287.949 233.163 287.135 234.13 286.134L235.123 285.107ZM232.914 279.171L239.091 285.348L239.761 284.678L233.584 278.5L232.914 279.171ZM238.339 277.089C237.685 277.742 237.397 278.489 237.49 279.329C237.566 280.101 237.94 280.814 238.61 281.484C239.28 282.154 239.993 282.528 240.757 282.596C241.563 282.672 242.293 282.384 242.955 281.722C243.498 281.179 243.786 280.602 243.837 279.991C243.888 279.363 243.667 278.718 243.209 278.056L242.53 278.735C243.184 279.592 243.133 280.407 242.386 281.153C241.945 281.594 241.444 281.773 240.91 281.696C240.367 281.628 239.832 281.314 239.297 280.78C238.763 280.245 238.457 279.702 238.381 279.151C238.305 278.582 238.483 278.082 238.907 277.657C239.255 277.309 239.611 277.106 240.002 277.055C240.384 277.012 240.774 277.131 241.173 277.411L241.843 276.741C241.232 276.283 240.63 276.088 240.027 276.164C239.442 276.24 238.882 276.546 238.339 277.089ZM241.206 274.459L243.921 277.175C245.109 278.363 246.237 278.439 247.306 277.37C247.9 276.776 248.104 276.029 247.934 275.147L248.613 275.826L249.292 275.147L244.905 270.76L244.226 271.439L246.899 274.112C247.222 274.536 247.383 274.985 247.383 275.461C247.374 275.91 247.23 276.292 246.942 276.581C246.543 276.98 246.144 277.158 245.762 277.132C245.38 277.107 244.981 276.878 244.566 276.462L241.884 273.781L241.206 274.459ZM244.299 267.785L250.476 273.962L251.147 273.292L244.969 267.115L244.299 267.785ZM249.741 265.686C249.215 266.212 248.901 266.73 248.782 267.256C248.646 267.833 248.765 268.41 249.13 268.962L249.851 268.342C249.639 267.994 249.571 267.638 249.665 267.273C249.733 266.934 249.936 266.611 250.259 266.289C251.022 265.525 251.769 265.508 252.507 266.246L252.736 266.475L251.701 267.545C251.048 268.215 250.666 268.851 250.547 269.445C250.394 270.107 250.573 270.676 251.073 271.176C251.43 271.533 251.862 271.694 252.363 271.651C252.847 271.609 253.305 271.371 253.746 270.93C254.153 270.523 254.425 270.065 254.569 269.564C254.688 269.14 254.722 268.716 254.654 268.308L255.392 269.046L256.029 268.41L253.212 265.593C252.702 265.084 252.168 264.821 251.625 264.787C250.988 264.761 250.369 265.058 249.741 265.686ZM253.245 266.985L253.619 267.358C253.958 267.697 254.103 268.164 254.052 268.741C254.001 269.335 253.772 269.836 253.356 270.251C253.084 270.523 252.796 270.676 252.499 270.718C252.193 270.752 251.956 270.667 251.752 270.463C251.116 269.827 251.285 269.013 252.253 268.011L253.245 266.985ZM252.444 260.386L252.054 261.337L253.191 262.474L252.309 263.356L252.877 263.925L253.76 263.042L256.551 265.834C256.882 266.165 257.196 266.343 257.51 266.369C257.85 266.402 258.206 266.233 258.562 265.876L259.224 265.215L258.656 264.646L258.096 265.206C257.943 265.359 257.79 265.427 257.663 265.418C257.527 265.418 257.383 265.325 257.222 265.164L254.43 262.372L255.516 261.286L254.948 260.717L253.861 261.803L252.444 260.386ZM257.395 258.032C256.759 258.668 256.487 259.398 256.572 260.23C256.632 261.036 256.997 261.757 257.641 262.402C258.354 263.115 259.101 263.488 259.915 263.522C260.696 263.556 261.417 263.259 262.045 262.631C262.614 262.063 262.911 261.426 262.953 260.739C262.979 260.17 262.834 259.636 262.512 259.11L261.833 259.788C262.028 260.204 262.113 260.578 262.079 260.917C262.037 261.316 261.833 261.706 261.477 262.063C261.061 262.478 260.594 262.673 260.085 262.64C259.576 262.606 259.067 262.351 258.541 261.893L262.003 258.431C261.222 257.684 260.45 257.251 259.703 257.15C258.872 257.031 258.1 257.328 257.395 258.032ZM257.981 258.584C258.812 257.752 259.746 257.752 260.772 258.609L258.032 261.35C257.641 260.875 257.438 260.399 257.421 259.907C257.404 259.415 257.59 258.974 257.981 258.584ZM261.864 250.22L264.461 252.816C263.502 252.536 262.713 252.714 262.085 253.342C261.457 253.97 261.203 254.683 261.321 255.515C261.415 256.27 261.78 256.957 262.424 257.602C263.086 258.264 263.791 258.646 264.546 258.739C265.36 258.841 266.099 258.578 266.743 257.933C267.405 257.271 267.617 256.499 267.363 255.633L268.084 256.355L268.721 255.718L262.543 249.541L261.864 250.22ZM262.789 253.758C263.18 253.368 263.655 253.198 264.223 253.274C264.775 253.351 265.318 253.639 265.827 254.148L265.912 254.233C266.404 254.725 266.693 255.235 266.786 255.752C266.879 256.338 266.71 256.847 266.268 257.288C265.793 257.763 265.259 257.941 264.682 257.84C264.164 257.746 263.646 257.432 263.12 256.906C262.594 256.38 262.289 255.871 262.212 255.353C262.11 254.776 262.306 254.242 262.789 253.758ZM270.018 245.409C269.713 245.715 269.543 246.071 269.501 246.487C269.458 246.818 269.509 247.174 269.645 247.547L268.881 246.784L268.211 247.454L272.598 251.841L273.268 251.171L270.943 248.846C270.536 248.438 270.298 247.98 270.247 247.454C270.171 246.919 270.315 246.487 270.655 246.147C270.867 245.935 271.113 245.74 271.401 245.587L270.723 244.908C270.493 245.002 270.256 245.171 270.018 245.409ZM272.999 242.429C272.362 243.065 272.091 243.795 272.176 244.626C272.235 245.433 272.6 246.154 273.245 246.799C273.957 247.511 274.704 247.885 275.519 247.919C276.299 247.953 277.021 247.656 277.649 247.028C278.217 246.459 278.514 245.823 278.556 245.136C278.582 244.567 278.438 244.032 278.115 243.506L277.436 244.185C277.632 244.601 277.716 244.974 277.683 245.314C277.64 245.713 277.436 246.103 277.08 246.459C276.664 246.875 276.198 247.07 275.688 247.036C275.179 247.002 274.67 246.748 274.144 246.29L277.606 242.828C276.825 242.081 276.053 241.648 275.307 241.546C274.475 241.427 273.703 241.724 272.999 242.429ZM273.584 242.98C274.416 242.149 275.349 242.149 276.376 243.006L273.635 245.746C273.245 245.271 273.041 244.796 273.024 244.304C273.007 243.812 273.194 243.371 273.584 242.98ZM277.451 237.977C276.959 238.469 276.662 238.986 276.577 239.512C276.466 240.064 276.594 240.514 276.967 240.887C277.34 241.26 277.782 241.379 278.325 241.243C278.664 241.176 279.156 240.938 279.801 240.548C280.395 240.191 280.802 239.971 281.015 239.894C281.422 239.759 281.753 239.801 281.999 240.047C282.491 240.539 282.347 241.193 281.566 241.973C281.193 242.347 280.845 242.559 280.522 242.61C280.183 242.643 279.81 242.525 279.411 242.228L278.749 242.89C279.861 243.797 280.998 243.679 282.152 242.525C283.39 241.286 283.552 240.208 282.652 239.309C282.27 238.927 281.795 238.808 281.227 238.935C280.853 239.02 280.344 239.258 279.691 239.657C279.131 239.979 278.732 240.191 278.494 240.276C278.113 240.403 277.833 240.361 277.646 240.174C277.451 239.979 277.391 239.733 277.468 239.436C277.519 239.148 277.705 238.859 278.011 238.554C278.359 238.206 278.698 238.002 279.021 237.951C279.309 237.9 279.623 237.994 279.954 238.206L280.616 237.544C279.581 236.746 278.537 236.89 277.451 237.977ZM280.301 235.364L283.016 238.079C284.204 239.267 285.333 239.344 286.402 238.275C286.996 237.681 287.199 236.934 287.03 236.051L287.708 236.73L288.387 236.051L284 231.665L283.322 232.343L285.994 235.016C286.317 235.44 286.478 235.89 286.478 236.365C286.47 236.815 286.325 237.197 286.037 237.485C285.638 237.884 285.239 238.062 284.857 238.037C284.476 238.012 284.077 237.782 283.661 237.367L280.98 234.685L280.301 235.364ZM283.394 228.69L289.572 234.867L290.242 234.197L284.065 228.02L283.394 228.69ZM286.8 226.031L286.41 226.981L287.547 228.118L286.664 229.001L287.233 229.569L288.115 228.687L290.907 231.479C291.238 231.809 291.552 231.988 291.866 232.013C292.205 232.047 292.561 231.877 292.918 231.521L293.58 230.859L293.011 230.291L292.451 230.851C292.298 231.003 292.146 231.071 292.018 231.063C291.883 231.063 291.738 230.969 291.577 230.808L288.785 228.017L289.872 226.93L289.303 226.362L288.217 227.448L286.8 226.031Z" fill="#9E9E9E"/>
<path d="M261.404 320.261L265.137 323.995C265.926 324.784 266.732 325.183 267.564 325.199C268.387 325.208 269.202 324.818 269.999 324.02C270.797 323.222 271.187 322.408 271.179 321.568C271.162 320.753 270.763 319.947 269.974 319.158L266.24 315.424L265.545 316.12L269.287 319.862C269.881 320.456 270.194 321.042 270.237 321.61C270.262 322.213 269.982 322.815 269.388 323.409C268.786 324.012 268.183 324.292 267.589 324.258C267.012 324.224 266.436 323.901 265.842 323.307L262.1 319.565L261.404 320.261ZM270.482 314.289C269.99 314.781 269.693 315.298 269.608 315.824C269.498 316.376 269.625 316.826 269.998 317.199C270.372 317.572 270.813 317.691 271.356 317.555C271.695 317.487 272.187 317.25 272.832 316.86C273.426 316.503 273.834 316.283 274.046 316.206C274.453 316.07 274.784 316.113 275.03 316.359C275.522 316.851 275.378 317.504 274.597 318.285C274.224 318.658 273.876 318.871 273.554 318.921C273.214 318.955 272.841 318.837 272.442 318.54L271.78 319.202C272.892 320.109 274.029 319.991 275.183 318.837C276.422 317.598 276.583 316.52 275.683 315.621C275.301 315.239 274.826 315.12 274.258 315.247C273.884 315.332 273.375 315.57 272.722 315.969C272.162 316.291 271.763 316.503 271.526 316.588C271.144 316.715 270.864 316.673 270.677 316.486C270.482 316.291 270.422 316.045 270.499 315.748C270.55 315.459 270.736 315.171 271.042 314.866C271.39 314.518 271.729 314.314 272.052 314.263C272.34 314.212 272.654 314.305 272.985 314.518L273.647 313.856C272.612 313.058 271.568 313.202 270.482 314.289ZM275.02 309.75C274.384 310.386 274.113 311.116 274.197 311.948C274.257 312.754 274.622 313.475 275.267 314.12C275.979 314.833 276.726 315.206 277.541 315.24C278.321 315.274 279.043 314.977 279.67 314.349C280.239 313.78 280.536 313.144 280.578 312.457C280.604 311.888 280.46 311.354 280.137 310.828L279.458 311.506C279.653 311.922 279.738 312.295 279.704 312.635C279.662 313.034 279.458 313.424 279.102 313.78C278.686 314.196 278.219 314.391 277.71 314.357C277.201 314.323 276.692 314.069 276.166 313.611L279.628 310.149C278.847 309.402 278.075 308.969 277.328 308.867C276.497 308.749 275.725 309.046 275.02 309.75ZM275.606 310.301C276.438 309.47 277.371 309.47 278.398 310.327L275.657 313.068C275.267 312.592 275.063 312.117 275.046 311.625C275.029 311.133 275.216 310.692 275.606 310.301ZM279.846 304.924C279.54 305.23 279.371 305.586 279.328 306.002C279.286 306.333 279.337 306.689 279.473 307.063L278.709 306.299L278.039 306.969L282.425 311.356L283.096 310.686L280.771 308.361C280.364 307.954 280.126 307.495 280.075 306.969C279.999 306.435 280.143 306.002 280.482 305.663C280.694 305.451 280.941 305.255 281.229 305.103L280.55 304.424C280.321 304.517 280.084 304.687 279.846 304.924ZM279.619 302.046L281.817 304.074L282.368 303.522L280.332 301.333L279.619 302.046ZM284.643 300.127C284.151 300.619 283.854 301.137 283.769 301.663C283.659 302.214 283.786 302.664 284.16 303.038C284.533 303.411 284.974 303.53 285.517 303.394C285.857 303.326 286.349 303.088 286.994 302.698C287.588 302.342 287.995 302.121 288.207 302.045C288.614 301.909 288.945 301.951 289.191 302.197C289.684 302.69 289.539 303.343 288.759 304.124C288.385 304.497 288.037 304.709 287.715 304.76C287.376 304.794 287.002 304.675 286.603 304.378L285.942 305.04C287.053 305.948 288.19 305.829 289.344 304.675C290.583 303.436 290.744 302.359 289.845 301.459C289.463 301.077 288.988 300.959 288.419 301.086C288.046 301.171 287.537 301.408 286.883 301.807C286.323 302.13 285.925 302.342 285.687 302.427C285.305 302.554 285.025 302.511 284.838 302.325C284.643 302.13 284.584 301.884 284.66 301.587C284.711 301.298 284.898 301.01 285.203 300.704C285.551 300.356 285.891 300.153 286.213 300.102C286.502 300.051 286.816 300.144 287.146 300.356L287.808 299.694C286.773 298.897 285.729 299.041 284.643 300.127ZM292.008 292.763C291.371 293.399 291.1 294.129 291.185 294.96C291.244 295.767 291.609 296.488 292.254 297.133C292.966 297.845 293.713 298.219 294.528 298.253C295.308 298.287 296.03 297.99 296.658 297.362C297.226 296.793 297.523 296.157 297.565 295.47C297.591 294.901 297.447 294.366 297.124 293.84L296.445 294.519C296.641 294.935 296.725 295.308 296.691 295.648C296.649 296.047 296.445 296.437 296.089 296.793C295.673 297.209 295.207 297.404 294.697 297.37C294.188 297.336 293.679 297.082 293.153 296.624L296.615 293.162C295.834 292.415 295.062 291.982 294.316 291.88C293.484 291.761 292.712 292.058 292.008 292.763ZM292.593 293.314C293.425 292.483 294.358 292.483 295.385 293.34L292.644 296.081C292.254 295.605 292.05 295.13 292.033 294.638C292.016 294.146 292.203 293.705 292.593 293.314ZM294.729 290.279L298.343 290.788L298.929 294.853L299.735 294.047L299.226 290.907L302.357 291.425L303.163 290.619L299.099 290.033L298.59 286.418L297.792 287.216L298.225 289.906L295.526 289.482L294.729 290.279ZM301.032 283.739C300.395 284.375 300.124 285.105 300.208 285.937C300.268 286.743 300.633 287.464 301.278 288.109C301.99 288.822 302.737 289.195 303.552 289.229C304.332 289.263 305.054 288.966 305.681 288.338C306.25 287.769 306.547 287.133 306.589 286.446C306.615 285.877 306.471 285.343 306.148 284.816L305.469 285.495C305.664 285.911 305.749 286.284 305.715 286.624C305.673 287.023 305.469 287.413 305.113 287.769C304.697 288.185 304.23 288.38 303.721 288.346C303.212 288.312 302.703 288.058 302.177 287.6L305.639 284.138C304.858 283.391 304.086 282.958 303.34 282.856C302.508 282.738 301.736 283.035 301.032 283.739ZM301.617 284.29C302.449 283.459 303.382 283.459 304.409 284.316L301.668 287.057C301.278 286.581 301.074 286.106 301.057 285.614C301.04 285.122 301.227 284.681 301.617 284.29ZM305.857 278.913C305.552 279.219 305.382 279.575 305.339 279.991C305.297 280.322 305.348 280.678 305.484 281.052L304.72 280.288L304.05 280.958L308.437 285.345L309.107 284.675L306.782 282.35C306.375 281.943 306.137 281.484 306.086 280.958C306.01 280.424 306.154 279.991 306.493 279.652C306.706 279.439 306.952 279.244 307.24 279.092L306.561 278.413C306.332 278.506 306.095 278.676 305.857 278.913ZM308.922 275.848C308.269 276.502 307.98 277.248 308.074 278.088C308.15 278.86 308.523 279.573 309.194 280.244C309.864 280.914 310.577 281.287 311.34 281.355C312.147 281.432 312.876 281.143 313.538 280.481C314.081 279.938 314.37 279.361 314.421 278.75C314.472 278.122 314.251 277.477 313.793 276.816L313.114 277.494C313.767 278.351 313.716 279.166 312.97 279.913C312.528 280.354 312.028 280.532 311.493 280.456C310.95 280.388 310.416 280.074 309.881 279.539C309.346 279.005 309.041 278.462 308.965 277.91C308.888 277.342 309.066 276.841 309.491 276.417C309.839 276.069 310.195 275.865 310.585 275.814C310.967 275.772 311.357 275.891 311.756 276.171L312.427 275.5C311.816 275.042 311.213 274.847 310.611 274.923C310.025 275 309.465 275.305 308.922 275.848ZM310.695 271.004C310.55 271.148 310.474 271.31 310.474 271.513C310.457 271.7 310.533 271.861 310.686 272.014C310.83 272.158 310.992 272.235 311.195 272.235C311.39 272.226 311.56 272.158 311.704 272.014C311.849 271.87 311.916 271.7 311.925 271.505C311.925 271.301 311.857 271.131 311.713 270.987C311.56 270.834 311.39 270.767 311.204 270.784C311 270.784 310.839 270.86 310.695 271.004ZM312.01 272.998L316.397 277.385L317.075 276.706L312.689 272.319L312.01 272.998ZM315.394 269.376C314.902 269.868 314.605 270.386 314.52 270.912C314.41 271.464 314.537 271.913 314.911 272.287C315.284 272.66 315.725 272.779 316.268 272.643C316.608 272.575 317.1 272.338 317.745 271.947C318.339 271.591 318.746 271.37 318.958 271.294C319.365 271.158 319.696 271.201 319.942 271.447C320.434 271.939 320.29 272.592 319.51 273.373C319.136 273.746 318.788 273.958 318.466 274.009C318.126 274.043 317.753 273.924 317.354 273.627L316.692 274.289C317.804 275.197 318.941 275.078 320.095 273.924C321.334 272.685 321.495 271.608 320.596 270.708C320.214 270.327 319.739 270.208 319.17 270.335C318.797 270.42 318.288 270.657 317.634 271.056C317.074 271.379 316.675 271.591 316.438 271.676C316.056 271.803 315.776 271.761 315.589 271.574C315.394 271.379 315.335 271.133 315.411 270.836C315.462 270.547 315.649 270.259 315.954 269.953C316.302 269.605 316.642 269.402 316.964 269.351C317.252 269.3 317.566 269.393 317.897 269.605L318.559 268.943C317.524 268.146 316.48 268.29 315.394 269.376ZM319.933 264.838C319.296 265.474 319.025 266.204 319.11 267.035C319.169 267.841 319.534 268.563 320.179 269.207C320.892 269.92 321.638 270.294 322.453 270.328C323.234 270.361 323.955 270.065 324.583 269.437C325.151 268.868 325.448 268.232 325.491 267.544C325.516 266.976 325.372 266.441 325.049 265.915L324.371 266.594C324.566 267.01 324.651 267.383 324.617 267.723C324.574 268.121 324.371 268.512 324.014 268.868C323.598 269.284 323.132 269.479 322.623 269.445C322.114 269.411 321.604 269.157 321.078 268.698L324.54 265.236C323.76 264.49 322.988 264.057 322.241 263.955C321.409 263.836 320.637 264.133 319.933 264.838ZM320.518 265.389C321.35 264.558 322.283 264.558 323.31 265.415L320.569 268.155C320.179 267.68 319.975 267.205 319.958 266.713C319.941 266.221 320.128 265.779 320.518 265.389ZM299.121 306.347L301.718 308.944C300.759 308.664 299.97 308.842 299.342 309.47C298.714 310.098 298.46 310.811 298.578 311.642C298.672 312.397 299.037 313.085 299.681 313.73C300.343 314.391 301.048 314.773 301.803 314.867C302.617 314.968 303.356 314.705 304 314.06C304.662 313.399 304.874 312.626 304.62 311.761L305.341 312.482L305.978 311.846L299.8 305.669L299.121 306.347ZM300.046 309.886C300.437 309.495 300.912 309.326 301.48 309.402C302.032 309.478 302.575 309.767 303.084 310.276L303.169 310.361C303.661 310.853 303.95 311.362 304.043 311.88C304.136 312.465 303.967 312.974 303.525 313.416C303.05 313.891 302.516 314.069 301.939 313.967C301.421 313.874 300.903 313.56 300.377 313.034C299.851 312.508 299.546 311.999 299.469 311.481C299.368 310.904 299.563 310.369 300.046 309.886ZM304.433 304.379C303.907 304.905 303.593 305.423 303.474 305.949C303.338 306.526 303.457 307.103 303.822 307.655L304.543 307.035C304.331 306.687 304.263 306.331 304.356 305.966C304.424 305.627 304.628 305.304 304.95 304.982C305.714 304.218 306.461 304.201 307.199 304.939L307.428 305.168L306.393 306.238C305.739 306.908 305.358 307.544 305.239 308.138C305.086 308.8 305.264 309.369 305.765 309.869C306.121 310.226 306.554 310.387 307.055 310.344C307.538 310.302 307.997 310.064 308.438 309.623C308.845 309.216 309.117 308.758 309.261 308.257C309.38 307.833 309.414 307.409 309.346 307.001L310.084 307.739L310.72 307.103L307.903 304.286C307.394 303.777 306.86 303.514 306.316 303.48C305.68 303.454 305.061 303.751 304.433 304.379ZM307.937 305.678L308.31 306.051C308.65 306.39 308.794 306.857 308.743 307.434C308.692 308.028 308.463 308.529 308.047 308.944C307.776 309.216 307.487 309.369 307.19 309.411C306.885 309.445 306.647 309.36 306.444 309.157C305.807 308.52 305.977 307.706 306.944 306.704L307.937 305.678ZM307.136 299.079L306.746 300.03L307.883 301.167L307 302.049L307.569 302.618L308.451 301.735L311.243 304.527C311.574 304.858 311.888 305.036 312.202 305.062C312.541 305.096 312.898 304.926 313.254 304.569L313.916 303.908L313.347 303.339L312.787 303.899C312.635 304.052 312.482 304.12 312.355 304.111C312.219 304.111 312.075 304.018 311.913 303.857L309.122 301.065L310.208 299.979L309.639 299.41L308.553 300.496L307.136 299.079ZM312.189 296.623C311.663 297.149 311.349 297.667 311.23 298.193C311.094 298.77 311.213 299.347 311.578 299.899L312.299 299.279C312.087 298.931 312.019 298.575 312.112 298.21C312.18 297.871 312.384 297.548 312.706 297.226C313.47 296.462 314.217 296.445 314.955 297.183L315.184 297.412L314.149 298.481C313.496 299.152 313.114 299.788 312.995 300.382C312.842 301.044 313.02 301.613 313.521 302.113C313.877 302.47 314.31 302.631 314.811 302.588C315.294 302.546 315.753 302.308 316.194 301.867C316.601 301.46 316.873 301.002 317.017 300.501C317.136 300.077 317.17 299.652 317.102 299.245L317.84 299.983L318.476 299.347L315.659 296.53C315.15 296.021 314.616 295.758 314.073 295.724C313.436 295.698 312.817 295.995 312.189 296.623ZM315.693 297.921L316.067 298.295C316.406 298.634 316.55 299.101 316.499 299.678C316.448 300.272 316.219 300.773 315.804 301.188C315.532 301.46 315.243 301.613 314.947 301.655C314.641 301.689 314.403 301.604 314.2 301.4C313.563 300.764 313.733 299.949 314.7 298.948L315.693 297.921Z" fill="#9E9E9E"/>
<path d="M568.874 591.85L574.933 597.908L579.124 593.717L578.522 593.114L575.017 596.619L569.561 591.163L568.874 591.85ZM574.355 586.403C574.21 586.547 574.134 586.709 574.134 586.912C574.117 587.099 574.193 587.26 574.346 587.413C574.49 587.557 574.652 587.634 574.855 587.634C575.05 587.625 575.22 587.557 575.364 587.413C575.509 587.269 575.576 587.099 575.585 586.904C575.585 586.7 575.517 586.53 575.373 586.386C575.22 586.233 575.05 586.166 574.864 586.183C574.66 586.183 574.499 586.259 574.355 586.403ZM575.67 588.397L580.057 592.784L580.736 592.105L576.349 587.718L575.67 588.397ZM579.309 584.521C578.698 585.132 578.426 585.827 578.503 586.617C578.554 587.38 578.902 588.067 579.546 588.712C580.183 589.349 580.87 589.697 581.634 589.748C582.406 589.807 583.102 589.535 583.713 588.925C584.375 588.263 584.57 587.474 584.307 586.566L585.079 587.338C586.046 588.305 586.097 589.238 585.215 590.121C584.816 590.52 584.442 590.74 584.103 590.791C583.772 590.851 583.424 590.757 583.076 590.511L582.397 591.19C582.949 591.589 583.501 591.75 584.052 591.674C584.595 591.606 585.172 591.266 585.766 590.672C587.098 589.34 587.064 587.966 585.664 586.566L581.583 582.484L580.904 583.163L581.659 583.918C580.751 583.655 579.971 583.859 579.309 584.521ZM579.971 584.979C580.403 584.546 580.896 584.359 581.473 584.427C581.999 584.478 582.516 584.758 583.008 585.25C583.484 585.726 583.755 586.235 583.815 586.769C583.865 587.329 583.679 587.821 583.238 588.263C582.762 588.738 582.245 588.916 581.685 588.831C581.184 588.755 580.7 588.475 580.242 588.017C579.75 587.524 579.47 587.007 579.419 586.481C579.343 585.912 579.529 585.42 579.971 584.979ZM580.843 579.643L587.02 585.82L587.699 585.142L585.196 582.638C584.789 582.231 584.551 581.773 584.509 581.272C584.458 580.78 584.602 580.364 584.942 580.025C585.306 579.66 585.697 579.49 586.121 579.507C586.528 579.541 586.944 579.753 587.351 580.161L590.016 582.825L590.695 582.146L587.928 579.38C587.368 578.82 586.8 578.523 586.231 578.498C585.654 578.464 585.111 578.718 584.602 579.227C584.305 579.524 584.11 579.855 584.008 580.229C583.898 580.627 583.906 581.043 584.034 581.476L581.522 578.964L580.843 579.643ZM587.102 574.131L586.712 575.081L587.849 576.218L586.967 577.1L587.535 577.669L588.418 576.786L591.209 579.578C591.54 579.909 591.854 580.087 592.168 580.113C592.508 580.147 592.864 579.977 593.22 579.621L593.882 578.959L593.314 578.39L592.754 578.95C592.601 579.103 592.448 579.171 592.321 579.162C592.185 579.162 592.041 579.069 591.88 578.908L589.088 576.116L590.174 575.03L589.606 574.461L588.519 575.548L587.102 574.131Z" fill="#9E9E9E"/>
<path d="M545.944 212.191L542.211 215.925C541.422 216.714 541.023 217.52 541.006 218.352C540.997 219.175 541.388 219.989 542.185 220.787C542.983 221.584 543.798 221.975 544.638 221.966C545.452 221.949 546.258 221.55 547.047 220.761L550.781 217.028L550.085 216.332L546.343 220.074C545.749 220.668 545.164 220.982 544.595 221.024C543.993 221.05 543.39 220.77 542.796 220.176C542.194 219.573 541.914 218.971 541.948 218.377C541.982 217.8 542.304 217.223 542.898 216.629L546.64 212.887L545.944 212.191ZM551.917 221.269C551.425 220.777 550.907 220.48 550.381 220.395C549.83 220.285 549.38 220.412 549.006 220.786C548.633 221.159 548.514 221.6 548.65 222.143C548.718 222.483 548.956 222.975 549.346 223.62C549.702 224.214 549.923 224.621 549.999 224.833C550.135 225.24 550.093 225.571 549.847 225.817C549.354 226.31 548.701 226.165 547.92 225.385C547.547 225.011 547.335 224.663 547.284 224.341C547.25 224.002 547.369 223.628 547.666 223.229L547.004 222.568C546.096 223.679 546.215 224.816 547.369 225.97C548.608 227.209 549.685 227.37 550.585 226.471C550.967 226.089 551.085 225.614 550.958 225.045C550.873 224.672 550.636 224.163 550.237 223.509C549.914 222.949 549.702 222.551 549.617 222.313C549.49 221.931 549.533 221.651 549.719 221.464C549.914 221.269 550.16 221.21 550.457 221.286C550.746 221.337 551.034 221.524 551.34 221.829C551.688 222.177 551.891 222.517 551.942 222.839C551.993 223.128 551.9 223.442 551.688 223.772L552.35 224.434C553.147 223.399 553.003 222.355 551.917 221.269ZM556.456 225.808C555.819 225.172 555.089 224.9 554.258 224.985C553.452 225.044 552.731 225.409 552.086 226.054C551.373 226.767 551 227.513 550.966 228.328C550.932 229.109 551.229 229.83 551.857 230.458C552.425 231.026 553.061 231.323 553.749 231.366C554.317 231.391 554.852 231.247 555.378 230.925L554.699 230.246C554.283 230.441 553.91 230.526 553.571 230.492C553.172 230.449 552.781 230.246 552.425 229.889C552.009 229.474 551.814 229.007 551.848 228.498C551.882 227.989 552.137 227.48 552.595 226.953L556.057 230.415C556.803 229.635 557.236 228.863 557.338 228.116C557.457 227.284 557.16 226.512 556.456 225.808ZM555.904 226.393C556.736 227.225 556.736 228.158 555.879 229.185L553.138 226.444C553.613 226.054 554.088 225.85 554.58 225.833C555.072 225.816 555.514 226.003 555.904 226.393ZM561.281 230.633C560.976 230.328 560.619 230.158 560.203 230.116C559.872 230.073 559.516 230.124 559.143 230.26L559.906 229.496L559.236 228.826L554.849 233.213L555.52 233.883L557.844 231.558C558.252 231.151 558.71 230.913 559.236 230.863C559.771 230.786 560.203 230.93 560.543 231.27C560.755 231.482 560.95 231.728 561.103 232.017L561.782 231.338C561.688 231.109 561.519 230.871 561.281 230.633ZM567.197 236.55C566.705 236.058 566.06 235.871 565.254 236.015L565.84 235.43L565.161 234.751L560.774 239.138L561.453 239.817L564.126 237.144C564.474 236.796 564.872 236.601 565.314 236.567C565.772 236.516 566.145 236.652 566.459 236.966C567.129 237.636 567.087 238.357 566.306 239.138L563.54 241.904L564.219 242.583L566.968 239.834C567.325 239.477 567.698 239.29 568.122 239.274C568.53 239.24 568.877 239.384 569.166 239.672C569.539 240.046 569.717 240.411 569.684 240.784C569.658 241.132 569.454 241.505 569.064 241.895L566.298 244.662L566.977 245.34L569.853 242.464C570.354 241.963 570.608 241.42 570.634 240.852C570.634 240.275 570.413 239.766 569.955 239.307C569.65 239.002 569.327 238.815 568.979 238.739C568.614 238.629 568.199 238.637 567.74 238.756C568.054 237.95 567.868 237.22 567.197 236.55ZM574.499 243.851C573.837 243.189 573.099 242.892 572.25 242.96C571.444 243.019 570.714 243.376 570.052 244.038C569.399 244.691 569.043 245.421 568.992 246.218C568.924 247.067 569.212 247.814 569.874 248.476C570.528 249.129 571.283 249.426 572.14 249.366C572.929 249.307 573.659 248.951 574.312 248.297C574.974 247.635 575.33 246.906 575.39 246.1C575.457 245.251 575.152 244.504 574.499 243.851ZM573.93 244.42C574.388 244.878 574.575 245.421 574.49 246.049C574.397 246.6 574.117 247.118 573.625 247.61C573.149 248.085 572.623 248.374 572.072 248.467C571.444 248.552 570.901 248.365 570.443 247.907C569.976 247.44 569.789 246.897 569.891 246.286C569.976 245.726 570.264 245.217 570.748 244.734C571.24 244.241 571.749 243.953 572.309 243.868C572.92 243.766 573.463 243.953 573.93 244.42ZM576.908 246.498L574.176 252.539L574.863 253.227L580.913 250.503L580.166 249.756L575.372 252.039L577.655 247.245L576.908 246.498ZM583.411 252.764C582.775 252.127 582.045 251.856 581.214 251.941C580.407 252 579.686 252.365 579.041 253.01C578.329 253.722 577.955 254.469 577.921 255.284C577.887 256.064 578.184 256.786 578.812 257.414C579.381 257.982 580.017 258.279 580.704 258.321C581.273 258.347 581.808 258.203 582.334 257.88L581.655 257.201C581.239 257.397 580.866 257.481 580.526 257.448C580.127 257.405 579.737 257.201 579.381 256.845C578.965 256.429 578.77 255.963 578.804 255.453C578.838 254.944 579.092 254.435 579.55 253.909L583.012 257.371C583.759 256.591 584.192 255.818 584.294 255.072C584.412 254.24 584.116 253.468 583.411 252.764ZM582.86 253.349C583.691 254.181 583.691 255.114 582.834 256.141L580.093 253.4C580.569 253.01 581.044 252.806 581.536 252.789C582.028 252.772 582.469 252.959 582.86 253.349ZM588.228 257.581C587.736 257.088 587.091 256.902 586.285 257.046L586.871 256.461L586.192 255.782L581.805 260.169L582.484 260.847L585.157 258.175C585.504 257.827 585.903 257.632 586.344 257.598C586.803 257.547 587.176 257.682 587.49 257.996C588.16 258.667 588.118 259.388 587.337 260.169L584.571 262.935L585.25 263.614L587.999 260.864C588.355 260.508 588.729 260.321 589.153 260.304C589.56 260.27 589.908 260.415 590.197 260.703C590.57 261.077 590.748 261.441 590.714 261.815C590.689 262.163 590.485 262.536 590.095 262.926L587.329 265.693L588.008 266.371L590.884 263.495C591.385 262.994 591.639 262.451 591.665 261.883C591.665 261.306 591.444 260.797 590.986 260.338C590.68 260.033 590.358 259.846 590.01 259.77C589.645 259.66 589.229 259.668 588.771 259.787C589.085 258.981 588.899 258.251 588.228 257.581ZM595.377 264.729C594.74 264.093 594.011 263.821 593.179 263.906C592.373 263.966 591.652 264.33 591.007 264.975C590.294 265.688 589.921 266.435 589.887 267.249C589.853 268.03 590.15 268.751 590.778 269.379C591.346 269.948 591.983 270.245 592.67 270.287C593.239 270.313 593.773 270.168 594.299 269.846L593.62 269.167C593.205 269.362 592.831 269.447 592.492 269.413C592.093 269.371 591.703 269.167 591.346 268.811C590.931 268.395 590.735 267.928 590.769 267.419C590.803 266.91 591.058 266.401 591.516 265.875L594.978 269.337C595.725 268.556 596.157 267.784 596.259 267.037C596.378 266.206 596.081 265.433 595.377 264.729ZM594.825 265.315C595.657 266.146 595.657 267.08 594.8 268.106L592.059 265.366C592.534 264.975 593.009 264.772 593.502 264.755C593.994 264.738 594.435 264.924 594.825 265.315ZM600.33 269.682C600.041 269.393 599.71 269.198 599.337 269.096C598.972 268.986 598.59 268.978 598.191 269.071L598.836 268.426L598.157 267.747L593.77 272.134L594.449 272.813L597.097 270.166C597.521 269.792 597.962 269.606 598.437 269.606C598.879 269.606 599.252 269.758 599.557 270.064C600.321 270.827 600.287 271.642 599.43 272.499L596.783 275.146L597.462 275.825L600.16 273.127C601.365 271.922 601.416 270.768 600.33 269.682ZM605.485 272.241L604.535 271.851L603.398 272.988L602.515 272.105L601.947 272.674L602.829 273.556L600.038 276.348C599.707 276.679 599.528 276.993 599.503 277.307C599.469 277.646 599.639 278.003 599.995 278.359L600.657 279.021L601.226 278.452L600.666 277.892C600.513 277.74 600.445 277.587 600.453 277.46C600.453 277.324 600.547 277.18 600.708 277.018L603.5 274.227L604.586 275.313L605.154 274.744L604.068 273.658L605.485 272.241ZM613.771 279.78L611.174 282.377C611.454 281.418 611.276 280.629 610.648 280.001C610.02 279.373 609.308 279.118 608.476 279.237C607.721 279.33 607.034 279.695 606.389 280.34C605.727 281.002 605.345 281.706 605.252 282.461C605.15 283.276 605.413 284.014 606.058 284.659C606.72 285.321 607.492 285.533 608.357 285.279L607.636 286L608.272 286.636L614.45 280.459L613.771 279.78ZM610.232 280.705C610.623 281.095 610.793 281.57 610.716 282.139C610.64 282.69 610.351 283.234 609.842 283.743L609.757 283.828C609.265 284.32 608.756 284.608 608.238 284.702C607.653 284.795 607.144 284.625 606.703 284.184C606.227 283.709 606.049 283.174 606.151 282.597C606.244 282.08 606.558 281.562 607.084 281.036C607.611 280.51 608.12 280.204 608.637 280.128C609.214 280.026 609.749 280.221 610.232 280.705ZM615.739 285.091C615.213 284.565 614.695 284.251 614.169 284.132C613.592 283.997 613.015 284.115 612.464 284.48L613.083 285.202C613.431 284.989 613.787 284.922 614.152 285.015C614.492 285.083 614.814 285.286 615.136 285.609C615.9 286.373 615.917 287.119 615.179 287.858L614.95 288.087L613.881 287.051C613.21 286.398 612.574 286.016 611.98 285.897C611.318 285.745 610.75 285.923 610.249 286.423C609.893 286.78 609.731 287.213 609.774 287.713C609.816 288.197 610.054 288.655 610.495 289.096C610.902 289.504 611.36 289.775 611.861 289.919C612.285 290.038 612.71 290.072 613.117 290.004L612.379 290.742L613.015 291.379L615.832 288.562C616.341 288.053 616.604 287.518 616.638 286.975C616.664 286.339 616.367 285.719 615.739 285.091ZM614.441 288.596L614.067 288.969C613.728 289.308 613.261 289.453 612.684 289.402C612.09 289.351 611.59 289.122 611.174 288.706C610.902 288.435 610.75 288.146 610.707 287.849C610.673 287.544 610.758 287.306 610.962 287.102C611.598 286.466 612.413 286.636 613.414 287.603L614.441 288.596ZM621.039 287.795L620.088 287.404L618.951 288.541L618.069 287.659L617.5 288.227L618.383 289.11L615.591 291.902C615.26 292.232 615.082 292.546 615.057 292.86C615.023 293.2 615.192 293.556 615.549 293.913L616.211 294.574L616.779 294.006L616.219 293.446C616.066 293.293 615.998 293.14 616.007 293.013C616.007 292.877 616.1 292.733 616.262 292.572L619.053 289.78L620.139 290.866L620.708 290.298L619.622 289.212L621.039 287.795ZM623.495 292.847C622.969 292.321 622.451 292.007 621.925 291.889C621.348 291.753 620.771 291.872 620.22 292.236L620.839 292.958C621.187 292.746 621.543 292.678 621.908 292.771C622.248 292.839 622.57 293.043 622.893 293.365C623.656 294.129 623.673 294.875 622.935 295.614L622.706 295.843L621.637 294.807C620.966 294.154 620.33 293.772 619.736 293.653C619.074 293.501 618.506 293.679 618.005 294.18C617.649 294.536 617.487 294.969 617.53 295.469C617.572 295.953 617.81 296.411 618.251 296.852C618.658 297.26 619.117 297.531 619.617 297.676C620.041 297.794 620.466 297.828 620.873 297.76L620.135 298.499L620.771 299.135L623.588 296.318C624.097 295.809 624.36 295.274 624.394 294.731C624.42 294.095 624.123 293.475 623.495 292.847ZM622.197 296.352L621.823 296.725C621.484 297.065 621.017 297.209 620.44 297.158C619.846 297.107 619.346 296.878 618.93 296.462C618.658 296.191 618.506 295.902 618.463 295.605C618.429 295.3 618.514 295.062 618.718 294.858C619.354 294.222 620.169 294.392 621.17 295.359L622.197 296.352Z" fill="#9E9E9E"/>
<path d="M534.526 555.721L542.324 560.04L543.096 559.268L539.43 552.836L539.456 552.811L545.879 556.485L546.651 555.713L542.332 547.915L541.552 548.695L545.302 555.11L545.268 555.144L538.811 551.436L538.056 552.191L541.755 558.657L541.721 558.691L535.306 554.94L534.526 555.721ZM546.258 547.094C545.622 547.731 545.35 548.46 545.435 549.292C545.495 550.098 545.859 550.819 546.504 551.464C547.217 552.177 547.964 552.55 548.778 552.584C549.559 552.618 550.28 552.321 550.908 551.693C551.477 551.125 551.774 550.488 551.816 549.801C551.842 549.232 551.697 548.698 551.375 548.172L550.696 548.851C550.891 549.266 550.976 549.64 550.942 549.979C550.9 550.378 550.696 550.768 550.34 551.125C549.924 551.54 549.457 551.736 548.948 551.702C548.439 551.668 547.93 551.413 547.404 550.955L550.866 547.493C550.085 546.746 549.313 546.314 548.566 546.212C547.735 546.093 546.962 546.39 546.258 547.094ZM546.844 547.646C547.675 546.814 548.609 546.814 549.635 547.671L546.895 550.412C546.504 549.937 546.301 549.462 546.284 548.969C546.267 548.477 546.453 548.036 546.844 547.646ZM551.067 542.286C550.541 542.812 550.227 543.329 550.108 543.855C549.972 544.432 550.091 545.009 550.456 545.561L551.177 544.942C550.965 544.594 550.897 544.237 550.99 543.872C551.058 543.533 551.262 543.211 551.584 542.888C552.348 542.124 553.095 542.108 553.833 542.846L554.062 543.075L553.027 544.144C552.373 544.814 551.992 545.451 551.873 546.045C551.72 546.707 551.898 547.275 552.399 547.776C552.755 548.132 553.188 548.293 553.689 548.251C554.172 548.208 554.631 547.971 555.072 547.53C555.479 547.122 555.751 546.664 555.895 546.163C556.014 545.739 556.048 545.315 555.98 544.908L556.718 545.646L557.354 545.009L554.537 542.192C554.028 541.683 553.493 541.42 552.95 541.386C552.314 541.361 551.695 541.658 551.067 542.286ZM554.571 543.584L554.944 543.957C555.284 544.297 555.428 544.763 555.377 545.34C555.326 545.934 555.097 546.435 554.681 546.851C554.41 547.122 554.121 547.275 553.824 547.317C553.519 547.351 553.281 547.267 553.078 547.063C552.441 546.427 552.611 545.612 553.578 544.611L554.571 543.584ZM555.823 537.529C555.518 537.834 555.348 538.191 555.306 538.607C555.263 538.937 555.314 539.294 555.45 539.667L554.686 538.904L554.016 539.574L558.403 543.961L559.073 543.29L556.748 540.965C556.341 540.558 556.104 540.1 556.053 539.574C555.976 539.039 556.12 538.607 556.46 538.267C556.672 538.055 556.918 537.86 557.207 537.707L556.528 537.028C556.299 537.122 556.061 537.291 555.823 537.529Z" fill="#9E9E9E"/>
<path d="M537.896 279.459C536.963 278.525 535.919 278.109 534.765 278.245C533.722 278.355 532.754 278.865 531.855 279.764C530.955 280.663 530.446 281.614 530.344 282.632C530.226 283.752 530.633 284.787 531.575 285.729C532.22 286.374 532.966 286.747 533.798 286.849C534.689 286.96 535.554 286.722 536.394 286.153L535.724 285.483C535.079 285.89 534.434 286.043 533.806 285.958C533.212 285.873 532.678 285.593 532.194 285.11C531.481 284.397 531.184 283.625 531.278 282.785C531.363 281.987 531.795 281.215 532.551 280.46C533.306 279.705 534.086 279.28 534.901 279.179C535.775 279.068 536.564 279.365 537.268 280.069C537.744 280.545 538.032 281.054 538.134 281.614C538.236 282.191 538.117 282.751 537.761 283.277L538.431 283.947C538.949 283.26 539.161 282.505 539.059 281.69C538.957 280.876 538.567 280.129 537.896 279.459ZM541.66 286.565C540.998 285.903 540.26 285.606 539.411 285.674C538.605 285.734 537.875 286.09 537.214 286.752C536.56 287.405 536.204 288.135 536.153 288.933C536.085 289.781 536.374 290.528 537.035 291.19C537.689 291.843 538.444 292.14 539.301 292.081C540.09 292.021 540.82 291.665 541.473 291.012C542.135 290.35 542.491 289.62 542.551 288.814C542.619 287.965 542.313 287.219 541.66 286.565ZM541.091 287.134C541.55 287.592 541.736 288.135 541.651 288.763C541.558 289.315 541.278 289.832 540.786 290.324C540.311 290.799 539.785 291.088 539.233 291.181C538.605 291.266 538.062 291.079 537.604 290.621C537.137 290.155 536.951 289.611 537.052 289.001C537.137 288.441 537.426 287.931 537.909 287.448C538.402 286.956 538.911 286.667 539.471 286.582C540.082 286.48 540.625 286.667 541.091 287.134ZM546.725 291.63C546.437 291.342 546.106 291.147 545.732 291.045C545.367 290.935 544.986 290.926 544.587 291.02L545.232 290.375L544.553 289.696L540.166 294.083L540.845 294.762L543.492 292.114C543.916 291.741 544.358 291.554 544.833 291.554C545.274 291.554 545.647 291.707 545.953 292.012C546.717 292.776 546.683 293.591 545.826 294.448L543.178 297.095L543.857 297.774L546.555 295.075C547.76 293.871 547.811 292.717 546.725 291.63ZM551.881 294.19L550.93 293.799L549.793 294.936L548.911 294.054L548.342 294.622L549.225 295.505L546.433 298.296C546.102 298.627 545.924 298.941 545.899 299.255C545.865 299.595 546.034 299.951 546.391 300.307L547.053 300.969L547.621 300.401L547.061 299.841C546.908 299.688 546.84 299.535 546.849 299.408C546.849 299.272 546.942 299.128 547.103 298.967L549.895 296.175L550.981 297.261L551.55 296.693L550.464 295.607L551.881 294.19ZM554.354 299.259C554.048 298.954 553.692 298.784 553.276 298.742C552.945 298.699 552.589 298.75 552.216 298.886L552.979 298.122L552.309 297.452L547.922 301.839L548.592 302.509L550.917 300.184C551.325 299.777 551.783 299.539 552.309 299.488C552.843 299.412 553.276 299.556 553.616 299.896C553.828 300.108 554.023 300.354 554.176 300.642L554.854 299.964C554.761 299.734 554.591 299.497 554.354 299.259ZM557.487 302.392C556.825 301.73 556.087 301.433 555.238 301.501C554.432 301.561 553.702 301.917 553.041 302.579C552.387 303.232 552.031 303.962 551.98 304.76C551.912 305.608 552.201 306.355 552.862 307.017C553.516 307.67 554.271 307.967 555.128 307.908C555.917 307.848 556.647 307.492 557.3 306.839C557.962 306.177 558.318 305.447 558.378 304.641C558.446 303.792 558.14 303.046 557.487 302.392ZM556.918 302.961C557.377 303.419 557.563 303.962 557.478 304.59C557.385 305.142 557.105 305.659 556.613 306.151C556.138 306.626 555.612 306.915 555.06 307.008C554.432 307.093 553.889 306.906 553.431 306.448C552.964 305.982 552.778 305.439 552.879 304.828C552.964 304.268 553.253 303.758 553.736 303.275C554.229 302.783 554.738 302.494 555.298 302.409C555.909 302.307 556.452 302.494 556.918 302.961ZM562.306 303.868L556.129 310.046L556.799 310.716L562.976 304.539L562.306 303.868ZM518.7 284.575C518.556 284.431 518.395 284.355 518.191 284.355C518.004 284.338 517.843 284.414 517.69 284.567C517.546 284.711 517.47 284.872 517.47 285.076C517.478 285.271 517.546 285.441 517.69 285.585C517.835 285.729 518.004 285.797 518.199 285.806C518.403 285.806 518.573 285.738 518.717 285.594C518.87 285.441 518.938 285.271 518.921 285.085C518.921 284.881 518.844 284.72 518.7 284.575ZM516.706 285.891L512.319 290.277L512.998 290.956L517.385 286.569L516.706 285.891ZM520.829 289.776C520.54 289.487 520.209 289.292 519.836 289.19C519.471 289.08 519.089 289.071 518.69 289.165L519.335 288.52L518.656 287.841L514.27 292.228L514.948 292.907L517.596 290.259C518.02 289.886 518.461 289.699 518.936 289.699C519.378 289.699 519.751 289.852 520.056 290.158C520.82 290.921 520.786 291.736 519.929 292.593L517.282 295.24L517.961 295.919L520.659 293.221C521.864 292.016 521.915 290.862 520.829 289.776ZM525.068 294.015C524.576 293.523 524.058 293.226 523.532 293.141C522.98 293.031 522.531 293.158 522.157 293.531C521.784 293.905 521.665 294.346 521.801 294.889C521.869 295.228 522.106 295.72 522.497 296.365C522.853 296.959 523.074 297.367 523.15 297.579C523.286 297.986 523.243 298.317 522.997 298.563C522.505 299.055 521.852 298.911 521.071 298.13C520.698 297.757 520.486 297.409 520.435 297.087C520.401 296.747 520.52 296.374 520.817 295.975L520.155 295.313C519.247 296.425 519.366 297.562 520.52 298.716C521.759 299.955 522.836 300.116 523.736 299.216C524.117 298.835 524.236 298.359 524.109 297.791C524.024 297.417 523.787 296.908 523.388 296.255C523.065 295.695 522.853 295.296 522.768 295.059C522.641 294.677 522.683 294.397 522.87 294.21C523.065 294.015 523.311 293.955 523.608 294.032C523.897 294.083 524.185 294.269 524.491 294.575C524.839 294.923 525.042 295.262 525.093 295.585C525.144 295.873 525.051 296.187 524.839 296.518L525.501 297.18C526.298 296.145 526.154 295.101 525.068 294.015ZM530.268 296.619L529.318 296.229L528.181 297.366L527.298 296.483L526.73 297.052L527.612 297.934L524.821 300.726C524.49 301.057 524.312 301.371 524.286 301.685C524.252 302.024 524.422 302.38 524.778 302.737L525.44 303.399L526.009 302.83L525.449 302.27C525.296 302.117 525.228 301.965 525.237 301.837C525.237 301.702 525.33 301.557 525.491 301.396L528.283 298.604L529.369 299.691L529.937 299.122L528.851 298.036L530.268 296.619ZM532.742 301.689C532.436 301.383 532.08 301.213 531.664 301.171C531.333 301.129 530.977 301.179 530.603 301.315L531.367 300.552L530.697 299.881L526.31 304.268L526.98 304.938L529.305 302.613C529.712 302.206 530.17 301.969 530.697 301.918C531.231 301.841 531.664 301.986 532.003 302.325C532.215 302.537 532.411 302.783 532.563 303.072L533.242 302.393C533.149 302.164 532.979 301.926 532.742 301.689ZM533.796 302.98L531.08 305.696C529.892 306.884 529.816 308.012 530.885 309.081C531.479 309.675 532.226 309.879 533.108 309.709L532.43 310.388L533.108 311.067L537.495 306.68L536.816 306.001L534.144 308.674C533.719 308.996 533.27 309.158 532.794 309.158C532.345 309.149 531.963 309.005 531.674 308.716C531.276 308.318 531.097 307.919 531.123 307.537C531.148 307.155 531.377 306.756 531.793 306.34L534.474 303.659L533.796 302.98ZM540.555 309.502C539.901 308.848 539.155 308.56 538.315 308.653C537.543 308.73 536.83 309.103 536.159 309.773C535.489 310.444 535.116 311.156 535.048 311.92C534.971 312.726 535.26 313.456 535.922 314.118C536.465 314.661 537.042 314.949 537.653 315C538.281 315.051 538.926 314.831 539.587 314.372L538.909 313.694C538.052 314.347 537.237 314.296 536.49 313.549C536.049 313.108 535.871 312.607 535.947 312.073C536.015 311.53 536.329 310.995 536.864 310.461C537.398 309.926 537.941 309.621 538.493 309.544C539.061 309.468 539.562 309.646 539.986 310.07C540.334 310.418 540.538 310.775 540.589 311.165C540.631 311.547 540.512 311.937 540.232 312.336L540.903 313.006C541.361 312.395 541.556 311.793 541.48 311.19C541.403 310.605 541.098 310.045 540.555 309.502ZM545.772 312.123L544.822 311.732L543.685 312.869L542.802 311.987L542.234 312.555L543.116 313.438L540.325 316.23C539.994 316.561 539.816 316.874 539.79 317.188C539.756 317.528 539.926 317.884 540.282 318.241L540.944 318.902L541.513 318.334L540.953 317.774C540.8 317.621 540.732 317.468 540.74 317.341C540.74 317.205 540.834 317.061 540.995 316.9L543.787 314.108L544.873 315.194L545.441 314.626L544.355 313.54L545.772 312.123ZM548.415 314.29C548.271 314.146 548.11 314.07 547.906 314.07C547.719 314.053 547.558 314.129 547.405 314.282C547.261 314.426 547.185 314.587 547.185 314.791C547.193 314.986 547.261 315.156 547.405 315.3C547.55 315.444 547.719 315.512 547.914 315.521C548.118 315.521 548.288 315.453 548.432 315.309C548.585 315.156 548.653 314.986 548.636 314.8C548.636 314.596 548.559 314.435 548.415 314.29ZM546.421 315.606L542.034 319.993L542.713 320.671L547.1 316.284L546.421 315.606ZM550.45 319.397C549.789 318.736 549.05 318.439 548.202 318.506C547.396 318.566 546.666 318.922 546.004 319.584C545.351 320.237 544.994 320.967 544.943 321.765C544.876 322.613 545.164 323.36 545.826 324.022C546.479 324.675 547.234 324.972 548.091 324.913C548.881 324.853 549.61 324.497 550.264 323.844C550.926 323.182 551.282 322.452 551.341 321.646C551.409 320.797 551.104 320.051 550.45 319.397ZM549.882 319.966C550.34 320.424 550.527 320.967 550.442 321.595C550.349 322.147 550.069 322.664 549.576 323.156C549.101 323.632 548.575 323.92 548.024 324.013C547.396 324.098 546.853 323.912 546.394 323.453C545.928 322.987 545.741 322.444 545.843 321.833C545.928 321.273 546.216 320.764 546.7 320.28C547.192 319.788 547.701 319.499 548.261 319.414C548.872 319.313 549.415 319.499 549.882 319.966ZM555.516 324.463C555.227 324.174 554.896 323.979 554.523 323.877C554.158 323.767 553.776 323.758 553.377 323.852L554.022 323.207L553.343 322.528L548.956 326.915L549.635 327.594L552.283 324.946C552.707 324.573 553.148 324.386 553.623 324.386C554.065 324.386 554.438 324.539 554.743 324.844C555.507 325.608 555.473 326.423 554.616 327.28L551.969 329.927L552.648 330.606L555.346 327.908C556.551 326.703 556.602 325.549 555.516 324.463Z" fill="#9E9E9E"/>
<circle cx="635" cy="422" r="100" fill="#FF9933"/>
<circle cx="635" cy="422" r="92" fill="#2F2F2F"/>
<circle cx="635" cy="422" r="47" stroke="#FF9933" stroke-width="2"/>
<circle cx="635" cy="422" r="38.75" stroke="#FF9933" stroke-width="2"/>
<path fill-rule="evenodd" clip-rule="evenodd" d="M650.752 417.025C651.114 417.968 650.9 418.142 649.647 418.949C644.739 422.108 643.498 422.705 644.91 425.81C645.919 428.031 651.232 437 651.232 437H645.436L634.916 418.853C634.534 418.212 633.843 418.434 633.843 419.352V437H622.25V407.353C622.25 407.353 624.082 407.169 633.839 407.003C646.054 406.796 650.49 416.345 650.752 417.025Z" stroke="#FF9933" stroke-width="2"/>
<circle cx="420" cy="207" r="100" fill="#FF6666"/>
<circle cx="420" cy="207" r="92" fill="#2F2F2F"/>
<rect x="391" y="156" width="58" height="103" rx="15" stroke="#FF6666" stroke-width="2"/>
<rect x="397" y="166.5" width="46" height="34" rx="3" stroke="#FF6666" stroke-width="2"/>
<rect x="397" y="205.5" width="20.5" height="22" rx="3" stroke="#FF6666" stroke-width="2"/>
<rect x="422.5" y="205.5" width="20.5" height="22" rx="3" stroke="#FF6666" stroke-width="2"/>
<circle cx="207" cy="422" r="100" fill="#66B2FF"/>
<circle cx="207" cy="422" r="92" fill="#2F2F2F"/>
<mask id="path-36-inside-1_1613_11917" fill="white">
<path fill-rule="evenodd" clip-rule="evenodd" d="M232 401C232 402.016 231.937 403.018 231.814 404.001C231.876 404 231.938 404 232 404C245.255 404 256 414.745 256 428C256 441.255 245.255 452 232 452H184C169.088 452 157 439.912 157 425C157 410.088 169.088 398 184 398C184.062 398 184.124 398 184.186 398.001C185.662 386.161 195.761 377 208 377C221.255 377 232 387.745 232 401Z"/>
</mask>
<path d="M231.814 404.001L231.829 406.001L229.547 406.018L229.83 403.753L231.814 404.001ZM184.186 398.001L186.17 398.248L185.95 400.013L184.172 400.001L184.186 398.001ZM229.83 403.753C229.942 402.852 230 401.933 230 401H234C234 402.099 233.932 403.183 233.799 404.248L229.83 403.753ZM232 406C231.943 406 231.886 406 231.829 406.001L231.799 402.001C231.866 402 231.933 402 232 402V406ZM254 428C254 415.85 244.15 406 232 406V402C246.359 402 258 413.641 258 428H254ZM232 450C244.15 450 254 440.15 254 428H258C258 442.359 246.359 454 232 454V450ZM232 454H184V450H232V454ZM159 425C159 438.807 170.193 450 184 450V454C167.984 454 155 441.016 155 425H159ZM184 400C170.193 400 159 411.193 159 425H155C155 408.984 167.984 396 184 396V400ZM184.172 400.001C184.115 400 184.057 400 184 400V396C184.066 396 184.133 396 184.199 396.001L184.172 400.001ZM208 379C196.782 379 187.523 387.397 186.17 398.248L182.201 397.753C183.8 384.925 194.74 375 208 375V379ZM230 401C230 388.85 220.15 379 208 379V375C222.359 375 234 386.641 234 401H230Z" fill="#66B2FF" mask="url(#path-36-inside-1_1613_11917)"/>
<path d="M199.75 413H208.75" stroke="#66B2FF" stroke-width="2"/>
<path d="M178.75 437L187.75 413L196.75 437" stroke="#66B2FF" stroke-width="2" stroke-linecap="square"/>
<path d="M181 431H194.5" stroke="#66B2FF" stroke-width="2"/>
<path d="M199.75 437H208.75" stroke="#66B2FF" stroke-width="2"/>
<path d="M204.25 413V437" stroke="#66B2FF" stroke-width="2"/>
<defs>
<radialGradient id="paint0_angular_1613_11917" cx="0" cy="0" r="1" gradientUnits="userSpaceOnUse" gradientTransform="translate(421 421) rotate(26.4941) scale(360.902)">
<stop offset="0.438663" stop-color="white" stop-opacity="0"/>
<stop offset="0.438846" stop-color="#66B2FF"/>
<stop offset="0.608833" stop-color="#FF6666"/>
<stop offset="0.750575" stop-color="#FF6666"/>
<stop offset="0.852513" stop-color="#FF9933"/>
<stop offset="0.92472" stop-color="#FF9933"/>
<stop offset="0.925317" stop-color="white" stop-opacity="0"/>
</radialGradient>
</defs>
</svg>
