<svg width="768" height="256" viewBox="0 0 768 256" fill="none" xmlns="http://www.w3.org/2000/svg">
<circle cx="142" cy="25" r="16" fill="#66B2FF"/>
<circle cx="384" cy="25" r="16" fill="#FF6666"/>
<circle cx="626" cy="25" r="16" fill="#FF9933"/>
<path d="M140.586 247.414C141.367 248.195 142.633 248.195 143.414 247.414L156.142 234.686C156.923 233.905 156.923 232.639 156.142 231.858C155.361 231.077 154.095 231.077 153.314 231.858L142 243.172L130.686 231.858C129.905 231.077 128.639 231.077 127.858 231.858C127.077 232.639 127.077 233.905 127.858 234.686L140.586 247.414ZM140 41V246H144V41H140Z" fill="#66B2FF"/>
<path d="M382.586 247.414C383.367 248.195 384.633 248.195 385.414 247.414L398.142 234.686C398.923 233.905 398.923 232.639 398.142 231.858C397.361 231.077 396.095 231.077 395.314 231.858L384 243.172L372.686 231.858C371.905 231.077 370.639 231.077 369.858 231.858C369.077 232.639 369.077 233.905 369.858 234.686L382.586 247.414ZM382 41V246H386V41H382Z" fill="#FF6665"/>
<path d="M624.586 247.414C625.367 248.195 626.633 248.195 627.414 247.414L640.142 234.686C640.923 233.905 640.923 232.639 640.142 231.858C639.361 231.077 638.095 231.077 637.314 231.858L626 243.172L614.686 231.858C613.905 231.077 612.639 231.077 611.858 231.858C611.077 232.639 611.077 233.905 611.858 234.686L624.586 247.414ZM624 41V246H628V41H624Z" fill="#FF9933"/>
</svg>
