<svg width="842" height="842" viewBox="0 0 842 842" fill="none" xmlns="http://www.w3.org/2000/svg">
<rect width="842" height="842" fill="black"/>
<path d="M421 779C223.282 779 63 618.718 63 421C63 223.282 223.282 63 421 63C618.718 63 779 223.282 779 421C779 482.323 763.582 540.045 736.41 590.5C675.975 702.724 557.395 779 421 779ZM421 779L421 723.5" stroke="#404040" stroke-width="8"/>
<path d="M603.5 112.945C708.573 175.328 779 289.939 779 421L678.5 421" stroke="#FF9933" stroke-width="8" stroke-linecap="round" stroke-linejoin="round"/>
<path d="M421 63C223.282 63 63 223.282 63 421M421 63C560.612 63 681.558 142.917 740.589 259.5M421 63L421 139" stroke="#FF6666" stroke-width="8" stroke-linecap="round" stroke-linejoin="round"/>
<path d="M119 421L63 421C63 276.648 148.436 152.25 271.5 95.6144" stroke="#66B2FF" stroke-width="8" stroke-linecap="round" stroke-linejoin="round"/>
<path d="M421 63C618.718 63 779 223.282 779 421C779 482.323 763.582 540.045 736.41 590.5C675.975 702.724 557.395 779 421 779C223.282 779 63 618.718 63 421C63 223.282 223.282 63 421 63Z" stroke="url(#paint0_angular_1468_6530)" stroke-width="8"/>
<path d="M419.5 636C454.786 636 488.082 627.48 517.443 612.384M205 421.5C205 337.884 252.844 265.442 322.65 230.058M517.217 230.5C487.912 215.477 454.696 207 419.5 207C384.651 207 351.743 215.31 322.65 230.058M517.217 230.5C586.552 266.043 634 338.231 634 421.5C634 504.679 586.655 576.8 517.443 612.384M517.217 230.5L525 230.5M517.443 612.384L526 612.384M322.65 230.058L316 230.058" stroke="#9E9E9E"/>
<path d="M219 421.5C219 387.803 227.313 356.047 242 328.171M513.259 598.773C548.857 579.906 578.093 550.63 596.91 515C596.983 514.862 597.055 514.724 597.128 514.586M597.128 514.586C611.735 486.769 620 455.1 620 421.5C620 388.255 611.909 356.899 597.588 329.296M597.128 514.586L589 514.586M597.588 329.296C564.209 264.957 496.988 221 419.5 221C342.464 221 275.576 264.446 242 328.171M597.588 329.296L590 329.296M242 328.171L250 328.171" stroke="#9E9E9E"/>
<circle cx="420" cy="635" r="100" fill="#777777"/>
<circle cx="420" cy="635" r="92" fill="#2F2F2F"/>
<path d="M445 623.875H444H445ZM445 648.757H446H445ZM444.447 649.651L444 648.757H444L444.447 649.651ZM436.75 653.5L436.303 652.606L435.816 652.849L435.756 653.39L436.75 653.5ZM432.349 693.11L433.343 693.221V693.221L432.349 693.11ZM406.651 693.11L407.645 693L406.651 693.11ZM402.25 653.5L403.244 653.39L403.184 652.849L402.697 652.606L402.25 653.5ZM394.553 649.651L395 648.757H395L394.553 649.651ZM394 648.757H395H394ZM394 623.875H393H394ZM446 623.875C446 609.239 434.136 597.375 419.5 597.375V599.375C433.031 599.375 444 610.344 444 623.875H446ZM446 648.757L446 623.875H444L444 648.757H446ZM444.894 650.546C445.572 650.207 446 649.515 446 648.757H444H444L444.894 650.546ZM437.197 654.394L444.894 650.546L444 648.757L436.303 652.606L437.197 654.394ZM435.756 653.39L431.355 693L433.343 693.221L437.744 653.61L435.756 653.39ZM431.355 693V693V695C432.374 695 433.23 694.234 433.343 693.221L431.355 693ZM431.355 693L407.645 693V695L431.355 695V693ZM407.645 693H407.645L405.657 693.221C405.77 694.234 406.626 695 407.645 695V693ZM407.645 693L403.244 653.39L401.256 653.61L405.657 693.221L407.645 693ZM394.106 650.546L401.803 654.394L402.697 652.606L395 648.757L394.106 650.546ZM393 648.757C393 649.515 393.428 650.207 394.106 650.546L395 648.757H395H393ZM393 623.875L393 648.757H395L395 623.875H393ZM419.5 597.375C404.864 597.375 393 609.239 393 623.875H395C395 610.344 405.969 599.375 419.5 599.375V597.375Z" fill="#777777"/>
<circle cx="419.5" cy="579.5" r="12.5" stroke="#777777" stroke-width="2"/>
<path d="M427 580C427 583.866 423.642 587 419.5 587C415.358 587 412 583.866 412 580" stroke="#777777" stroke-width="2"/>
<path d="M409 307L409 535L406 521.7" stroke="#9E9E9E"/>
<path d="M423 535L423 307L427 320.3" stroke="#9E9E9E"/>
<path d="M355.384 414.164V418.928H357.628C356.836 419.78 355.6 420.476 353.932 421.028L354.388 421.784C356.308 421.028 357.688 420.08 358.528 418.928H360.46C360.76 419.372 361.156 419.804 361.66 420.212H360.952V424.724H361.816V420.344C362.56 420.932 363.52 421.448 364.684 421.88L365.056 421.124C363.388 420.584 362.152 419.852 361.36 418.928H363.664V414.164H355.384ZM362.836 418.16H359.92V416.888H362.836V418.16ZM359.08 418.16H356.212V416.888H359.08V418.16ZM356.212 416.168V414.932H359.08V416.168H356.212ZM359.92 414.932H362.836V416.168H359.92V414.932ZM357.376 420.2C357.364 421.076 357.22 421.796 356.956 422.372C356.596 423.044 355.864 423.596 354.784 424.04L355.36 424.736C356.632 424.184 357.46 423.476 357.82 422.612C358.096 421.952 358.24 421.148 358.24 420.2H357.376ZM366.16 414.176V415.016H371.152C371.056 415.544 370.9 416.048 370.708 416.552H366.844V424.736H367.672V424.136H375.364V424.736H376.192V416.552H371.584C371.776 416.06 371.932 415.544 372.028 415.016H376.84V414.176H366.16ZM367.672 423.344V417.332H369.328V423.344H367.672ZM370.132 423.344V421.808H372.868V423.344H370.132ZM373.672 423.344V417.332H375.364V423.344H373.672ZM370.132 421.052V419.588H372.868V421.052H370.132ZM370.132 418.82V417.332H372.868V418.82H370.132ZM381.364 418.16C381.796 419.612 382.648 420.908 383.92 422.048C382.876 422.816 381.58 423.476 380.044 424.004L380.524 424.736C382.132 424.16 383.5 423.452 384.604 422.6C385.648 423.392 386.944 424.112 388.504 424.736L388.972 423.98C387.508 423.428 386.26 422.792 385.228 422.072C386.44 420.968 387.28 419.648 387.736 418.112V417.344H380.512V415.316C383.332 415.244 385.876 414.992 388.156 414.56L387.748 413.816C385.348 414.284 382.648 414.536 379.648 414.572V418.28C379.576 420.728 379.048 422.636 378.064 424.028L378.676 424.664C379.816 423.08 380.428 420.944 380.512 418.28V418.16H381.364ZM384.544 421.544C383.38 420.56 382.588 419.432 382.18 418.16H386.86C386.416 419.444 385.648 420.572 384.544 421.544ZM394.852 414.356V416.708H397.096V417.464H394.192V418.208H400.84V417.464H397.936V416.708H400.204V414.356H397.936V413.684H397.096V414.356H394.852ZM399.448 416.024H397.936V415.052H399.448V416.024ZM397.096 416.024H395.608V415.052H397.096V416.024ZM400.06 419H394.876V422.564H395.68V419.72H399.256V422.564H400.06V419ZM398.356 422.612L397.924 423.236C398.788 423.596 399.64 424.088 400.468 424.712L400.936 423.992C400.156 423.44 399.292 422.984 398.356 422.612ZM397 420.188V421.364C396.976 422.048 396.748 422.612 396.328 423.044C395.86 423.452 395.044 423.788 393.88 424.028L394.348 424.76C395.56 424.472 396.436 424.064 396.964 423.56C397.516 423.008 397.804 422.276 397.84 421.364V420.188H397ZM391.744 416.528H393.28C393.052 416.984 392.812 417.392 392.548 417.752L393.172 418.244C393.544 417.74 393.88 417.128 394.192 416.408V415.736H391.984C392.128 415.172 392.26 414.572 392.368 413.924L391.528 413.78C391.24 415.7 390.712 417.224 389.92 418.352L390.46 419.012C390.976 418.34 391.408 417.512 391.744 416.528ZM391.684 418.1V423.224C391.684 423.44 391.588 423.596 391.408 423.704L391.756 424.436C392.68 424.064 393.496 423.584 394.192 423.008L394.036 422.204C393.52 422.672 393.016 423.044 392.512 423.32V418.1H391.684Z" fill="#9E9E9E"/>
<path d="M434.056 417.884H437.104V419.984H434.056V417.884ZM434.008 420.776H437.104V424.292H437.992V420.776H441.256V422.864C441.256 423.368 441.028 423.62 440.596 423.62C440.188 423.62 439.744 423.596 439.264 423.572L439.492 424.424H440.872C441.712 424.424 442.132 424.004 442.132 423.164V414.176H433.192V419.936C433.168 421.58 432.772 422.936 432.004 424.004L432.664 424.592C433.432 423.584 433.876 422.312 434.008 420.776ZM441.256 419.984H437.992V417.884H441.256V419.984ZM441.256 417.08H437.992V415.016H441.256V417.08ZM437.104 415.016V417.08H434.056V415.016H437.104ZM453.088 416.024V418.364H446.236V416.024H453.088ZM446.236 419.204H453.964V415.172H450.172C449.956 414.596 449.74 414.08 449.524 413.624L448.6 413.768C448.852 414.2 449.08 414.668 449.296 415.172H445.384V418.928C445.36 421.076 444.868 422.828 443.896 424.172L444.532 424.748C445.612 423.2 446.176 421.352 446.236 419.204ZM458.248 417.032V418.82H457.06C457.36 418.052 457.636 417.176 457.9 416.192H460.216V415.376H458.104C458.212 414.896 458.32 414.38 458.428 413.84L457.636 413.66C457.528 414.26 457.42 414.824 457.3 415.376H456.112V416.192H457.108C456.832 417.26 456.532 418.16 456.196 418.88L456.376 419.6H458.248V421.388C457.552 421.52 456.808 421.64 456.016 421.736L456.124 422.576C456.856 422.468 457.564 422.348 458.248 422.216V424.7H459.052V422.036L460.192 421.748V420.932C459.832 421.028 459.46 421.124 459.052 421.22V419.6H460.156V418.82H459.052V417.032H458.248ZM461.788 416.42V417.128H465.232V416.408H461.8C462.4 415.832 462.976 415.196 463.552 414.5C464.464 415.676 465.484 416.672 466.612 417.488L467.068 416.804C465.976 416.036 464.908 415.016 463.864 413.72H463.24C462.268 414.92 461.164 415.976 459.94 416.876L460.408 417.596C460.876 417.236 461.332 416.84 461.788 416.42ZM462.628 424.616C463.216 424.616 463.516 424.304 463.516 423.692V418.088H460.684V424.7H461.44V422.456H462.784V423.536C462.784 423.8 462.652 423.932 462.388 423.932L461.86 423.908L462.052 424.616H462.628ZM461.44 421.784V420.644H462.784V421.784H461.44ZM461.44 419.972V418.784H462.784V419.972H461.44ZM464.236 418.424V422.732H464.908V418.424H464.236ZM465.544 424.64C466.12 424.64 466.42 424.292 466.42 423.608V417.884H465.664V423.416C465.664 423.752 465.532 423.932 465.28 423.932C464.98 423.932 464.668 423.908 464.344 423.884L464.524 424.64H465.544ZM472.972 416.48C472.204 419.672 470.536 422.12 467.968 423.8L468.484 424.532C471.004 422.9 472.66 420.548 473.452 417.488C473.512 417.632 473.572 417.8 473.644 417.992C474.88 421.16 476.464 423.344 478.408 424.52L478.948 423.824C477.052 422.636 475.552 420.608 474.424 417.74C473.68 415.796 472.78 414.44 471.712 413.696L470.992 414.152C471.76 414.704 472.42 415.472 472.972 416.48Z" fill="#9E9E9E"/>
<path d="M233.843 281.679L234.454 282.29L236.754 279.991L241.395 284.632L242.023 284.004L237.382 279.363L239.562 277.182L238.951 276.571L236.771 278.752L234.217 276.198L233.589 276.826L236.143 279.38L233.843 281.679ZM229.719 280.882L229.711 281.722C230.78 281.569 231.713 281.518 232.486 281.578L232.477 280.738C231.646 280.687 230.729 280.738 229.719 280.882ZM231.238 284.386L231.824 284.972L233.071 283.724L236.457 287.11C236.592 287.246 236.643 287.432 236.618 287.662L237.407 287.975C237.611 286.974 237.729 285.956 237.746 284.921L236.966 284.446C236.949 285.141 236.898 285.769 236.847 286.329L233.071 282.553L231.238 284.386ZM240.165 274.102L243.499 277.437L244.577 276.359L244.908 276.69C244.976 276.758 245.052 276.851 245.129 276.945L243.05 279.023L243.593 279.567L245.519 277.64C245.57 277.793 245.604 277.946 245.629 278.107C245.646 278.599 245.443 279.227 245.018 279.991L245.816 280.161C246.283 279.32 246.503 278.591 246.461 277.971C246.435 277.64 246.334 277.318 246.172 276.987L248.582 274.577L250.016 276.011L250.619 275.409L249.185 273.975L251.111 272.049L250.568 271.506L248.642 273.432L248.073 272.863L249.083 271.853L245.748 268.519L240.165 274.102ZM245.188 275.748L247.471 273.466L248.039 274.034L245.74 276.334C245.672 276.249 245.604 276.164 245.519 276.079L245.188 275.748ZM248.014 271.972L243.618 276.368L243.092 275.842L247.488 271.446L248.014 271.972ZM242.651 275.4L242.176 274.925L246.571 270.53L247.046 271.005L242.651 275.4ZM241.743 274.492L241.234 273.983L245.629 269.588L246.138 270.097L241.743 274.492ZM239.588 273.016L240.241 272.363C240.64 272.422 241.03 272.507 241.404 272.609L241.726 271.913C241.471 271.845 241.183 271.794 240.852 271.752L241.964 270.64L241.446 270.122L239.342 272.227C239.248 271.998 239.155 271.752 239.053 271.514L238.34 271.972C238.756 272.846 238.977 273.814 239.002 274.874L239.825 274.679C239.808 274.119 239.724 273.559 239.588 273.016ZM243.05 269.503L243.695 268.858C244.119 268.909 244.526 268.994 244.917 269.113L245.239 268.417C244.967 268.349 244.662 268.281 244.314 268.239L245.731 266.822L245.214 266.304L242.795 268.722L242.515 268.086L241.794 268.553C242.184 269.316 242.413 270.156 242.464 271.056L243.287 270.878C243.253 270.419 243.169 269.961 243.05 269.503ZM250.16 266.262L256.27 260.152L255.676 259.558L249.566 265.668L248.379 264.48C250.398 262.358 252.078 260.305 253.402 258.302L252.545 258.056C251.162 260.169 249.397 262.324 247.233 264.539L249.779 267.085C251.459 268.867 252.485 270.555 252.85 272.159L253.767 272.176C253.351 270.335 252.231 268.434 250.381 266.482L250.16 266.262ZM256.787 262.011L252.129 266.669L255.727 270.267L256.338 269.656L255.939 269.257L259.375 265.82L259.774 266.219L260.385 265.608L256.787 262.011ZM255.345 268.663L253.325 266.643L256.762 263.207L258.781 265.226L255.345 268.663ZM258.612 254.756L257.246 256.122C256.991 255.528 256.652 254.934 256.253 254.331L255.557 254.857C255.99 255.443 256.363 256.054 256.669 256.699L255.879 257.488L261.913 263.521L262.507 262.927L261.777 262.197L263.321 260.653L263.805 261.137L264.399 260.543L258.612 254.756ZM261.208 261.629L259.35 259.77L260.894 258.226L262.753 260.084L261.208 261.629ZM258.798 259.219L257.05 257.471L258.595 255.927L260.343 257.675L258.798 259.219ZM262.057 255.248L261.87 256.045C263.151 256.156 264.246 256.317 265.154 256.529L265.298 255.706C264.45 255.502 263.372 255.341 262.057 255.248ZM263.007 250.377L260.3 253.084C260.012 252.49 259.655 251.896 259.257 251.294L258.578 251.82C259.562 253.245 260.182 254.662 260.419 256.088L261.268 256.207C261.166 255.443 260.962 254.679 260.665 253.907L262.999 251.574C265.425 254.034 266.859 255.536 267.284 256.062C267.649 256.563 267.64 257.013 267.241 257.411C266.978 257.675 266.664 257.972 266.291 258.311L266.995 258.727C267.419 258.336 267.725 258.065 267.895 257.895C268.607 257.182 268.667 256.461 268.107 255.731C267.53 254.985 265.824 253.194 263.007 250.377ZM271.781 250.818C271.229 251.998 270.483 253.254 269.515 254.594L270.186 255.112C271.085 253.805 271.806 252.575 272.358 251.395L271.781 250.818ZM264.102 246.279C264.772 247.628 265.256 248.926 265.561 250.182C265.595 250.369 265.587 250.53 265.536 250.666L266.249 251.073C266.673 250.513 267.089 249.961 267.496 249.401C267.818 250.674 267.98 251.633 267.988 252.286C267.98 252.431 267.946 252.583 267.886 252.745L268.599 253.135C269.337 252.176 270.007 251.081 270.61 249.851L270.067 249.308C269.651 250.148 269.184 250.954 268.667 251.726C268.573 250.598 268.2 248.935 267.538 246.729L266.809 247.068C266.961 247.56 267.106 248.044 267.25 248.51C266.91 248.986 266.571 249.444 266.223 249.894C266.002 248.79 265.561 247.467 264.891 245.931L264.102 246.279ZM266.647 245.888L267.241 246.482L269.269 244.454L270.525 245.71L268.777 247.458L269.371 248.052L273.512 243.911L272.918 243.317L271.145 245.091L269.889 243.835L271.908 241.816L271.314 241.222L269.295 243.241L268.268 242.214L267.649 242.834L268.675 243.86L266.647 245.888ZM274.114 245.006L270.491 248.629L273.902 252.04L274.505 251.438L274.097 251.031L276.524 248.604L276.931 249.011L277.525 248.417L274.114 245.006ZM273.52 250.454L271.671 248.604L274.097 246.177L275.947 248.027L273.52 250.454ZM272.417 238.693L275.701 241.977L278.238 239.44L279.01 240.212L275.633 243.589L276.21 244.166L279.036 241.34C279.231 242.774 278.9 244.446 278.043 246.355L278.951 246.567C279.757 244.421 279.952 242.511 279.553 240.823L279.587 240.789L282.388 243.589L283.015 242.961L280.215 240.161L280.258 240.118C281.802 240.475 283.694 240.297 285.943 239.592L285.824 238.642C283.822 239.457 282.124 239.779 280.758 239.618L283.592 236.784L283.015 236.207L279.638 239.584L278.866 238.812L281.361 236.317L278.077 233.033L272.417 238.693ZM280.224 236.385L278.332 238.277L277.508 237.454L279.401 235.562L280.224 236.385ZM277.704 238.905L275.777 240.831L274.954 240.008L276.881 238.082L277.704 238.905ZM274.42 239.474L273.571 238.625L275.497 236.699L276.346 237.547L274.42 239.474ZM276.125 236.071L278.018 234.179L278.866 235.027L276.974 236.92L276.125 236.071Z" fill="#9E9E9E"/>
<path d="M266.029 319.811L268.184 317.656L269.669 319.141L267.514 321.296L266.029 319.811ZM268.04 321.89L270.229 319.701L272.715 322.187L273.343 321.559L270.857 319.073L273.165 316.765L274.641 318.241C274.998 318.597 275.015 318.937 274.709 319.242C274.421 319.531 274.09 319.828 273.733 320.15L274.497 320.592L275.473 319.616C276.067 319.022 276.067 318.428 275.473 317.834L269.117 311.478L262.796 317.8L266.869 321.873C268.014 323.052 268.693 324.291 268.905 325.589L269.788 325.538C269.618 324.283 269.032 323.069 268.04 321.89ZM272.605 316.205L270.297 318.513L268.812 317.028L271.12 314.72L272.605 316.205ZM270.551 314.151L268.243 316.459L266.784 315L269.092 312.692L270.551 314.151ZM266.156 315.628L267.615 317.087L265.46 319.242L264.001 317.783L266.156 315.628ZM278.171 305.038L279.826 306.693L274.981 311.538L273.326 309.883L278.171 305.038ZM275.575 312.132L281.039 306.667L278.188 303.816L275.507 306.497C274.947 306.243 274.429 306.031 273.954 305.861L273.402 306.616C273.886 306.744 274.378 306.913 274.887 307.117L272.121 309.883L274.777 312.539C276.279 314.075 277.17 315.662 277.433 317.299L278.29 317.257C277.959 315.399 277.051 313.693 275.575 312.132ZM283.126 299.726L281.76 301.092C281.506 300.498 281.166 299.904 280.768 299.302L280.072 299.828C280.505 300.414 280.878 301.024 281.183 301.669L280.394 302.458L286.427 308.492L287.021 307.898L286.291 307.168L287.836 305.623L288.319 306.107L288.913 305.513L283.126 299.726ZM285.723 306.599L283.865 304.741L285.409 303.197L287.267 305.055L285.723 306.599ZM283.313 304.189L281.565 302.442L283.11 300.897L284.857 302.645L283.313 304.189ZM286.572 300.218L286.385 301.016C287.666 301.126 288.761 301.288 289.669 301.5L289.813 300.677C288.964 300.473 287.887 300.312 286.572 300.218ZM287.522 295.348L284.815 298.055C284.527 297.461 284.17 296.867 283.771 296.264L283.093 296.79C284.077 298.216 284.696 299.633 284.934 301.058L285.782 301.177C285.681 300.414 285.477 299.65 285.18 298.878L287.513 296.544C289.94 299.005 291.374 300.507 291.798 301.033C292.163 301.534 292.155 301.983 291.756 302.382C291.493 302.645 291.179 302.942 290.806 303.282L291.51 303.697C291.934 303.307 292.24 303.035 292.409 302.866C293.122 302.153 293.182 301.432 292.622 300.702C292.045 299.955 290.339 298.165 287.522 295.348ZM287.844 292.242L287.819 293.065C288.93 292.938 289.864 292.904 290.644 292.972L290.644 292.106C289.804 292.064 288.871 292.115 287.844 292.242ZM300.343 294.83L302.312 292.862L301.854 292.098C301.641 292.344 301.327 292.675 300.929 293.091C300.513 293.523 300.106 293.948 299.698 294.355C299.045 295.008 298.493 295.543 298.044 295.976C297.534 296.451 297.085 296.765 296.711 296.901C296.364 297.028 295.973 297.062 295.523 297.019C295.379 297.011 295.26 297.011 295.142 297.028L291.96 293.846L290.178 295.628L290.738 296.188L291.951 294.974L294.531 297.554C294.327 298.063 294.361 298.895 294.616 300.066L295.49 300.023C295.184 298.767 295.133 298.038 295.337 297.834C295.439 297.732 295.617 297.69 295.871 297.724C296.44 297.766 296.949 297.681 297.373 297.461C297.806 297.215 298.298 296.824 298.841 296.298C299.384 295.772 299.885 295.288 300.343 294.83ZM290.661 290.223L291.221 290.783L295.116 286.888L294.556 286.328L290.661 290.223ZM292.07 292.666L292.655 293.252L294.437 291.47C295.447 293.803 295.837 295.195 295.583 295.653L296.27 296.035C297.636 294.38 298.68 292.98 299.393 291.826C299.732 291.962 300.08 292.123 300.428 292.302L300.827 291.614C299.469 290.969 298.171 290.486 296.932 290.163L296.593 290.825C297.28 291.02 297.967 291.249 298.646 291.521C298.095 292.412 297.339 293.473 296.355 294.694C296.219 293.812 295.778 292.539 295.04 290.868L297.687 288.22L297.102 287.635L292.07 292.666ZM296.559 284.546L297.144 285.132L300.216 282.06L299.63 281.474L296.559 284.546ZM298.519 287.168L299.113 287.762L300.292 286.583C301.412 288.551 302.015 289.832 302.108 290.435C302.091 290.486 302.066 290.545 302.023 290.622L302.744 291.054C303.61 289.815 304.34 288.577 304.917 287.355C305.197 287.465 305.485 287.584 305.791 287.72L306.045 286.922C304.832 286.421 303.661 286.014 302.524 285.692L302.261 286.464C302.872 286.633 303.5 286.837 304.178 287.075C303.763 287.983 303.288 288.848 302.753 289.654C302.447 288.84 301.828 287.626 300.878 285.997L302.838 284.037L302.244 283.443L298.519 287.168ZM300.657 279.311L302.371 281.025L301.226 282.17L301.82 282.764L302.965 281.619L303.067 281.72C305.332 284.02 306.444 286.218 306.41 288.305L307.267 288.246C307.293 285.963 306.096 283.579 303.678 281.11L303.576 281.008L304.832 279.752C307.097 282.051 308.43 283.451 308.828 283.952C309.244 284.504 309.244 284.996 308.828 285.412C308.599 285.641 308.311 285.895 307.988 286.184L308.667 286.591C309.041 286.252 309.295 286.014 309.439 285.87C310.169 285.14 310.237 284.376 309.635 283.604C309.083 282.9 307.488 281.22 304.832 278.564L302.982 280.414L301.268 278.7L300.657 279.311ZM311.153 272.531L312.409 271.275C313.521 272.455 314.344 273.634 314.87 274.822C313.818 274.449 312.689 273.863 311.484 273.082L311.153 272.531ZM315.201 275.713C315.532 276.824 315.6 277.928 315.396 279.048L316.219 279.243C316.397 278.148 316.355 277.054 316.083 275.967C317.22 276.256 318.306 276.324 319.325 276.154L319.155 275.323C318.128 275.518 317.025 275.45 315.82 275.127C315.294 273.651 314.344 272.175 312.969 270.715L313.521 270.164L312.935 269.578L310.695 271.818C310.39 271.377 310.05 270.902 309.668 270.418L308.973 270.91C310.415 272.692 311.357 274.313 311.807 275.764L312.655 275.849C312.528 275.365 312.35 274.847 312.112 274.304C313.19 274.924 314.217 275.39 315.201 275.713ZM309.626 278.182C309.736 278.411 309.847 278.657 309.957 278.92L308.718 280.159L309.253 280.694L310.254 279.692C310.424 280.202 310.576 280.745 310.729 281.339C311.298 281.076 311.849 280.846 312.384 280.634C312.172 281.406 311.798 282.238 311.289 283.121L312.087 283.341C312.698 282.255 313.088 281.237 313.258 280.286C313.979 280.006 314.641 279.803 315.235 279.65L315.091 278.844C314.514 279.014 313.937 279.217 313.343 279.438C313.377 278.589 313.207 277.792 312.833 277.045L312.333 276.544L310.559 278.318C310.458 278.114 310.364 277.902 310.262 277.681L309.626 278.182ZM312.545 279.76C312.112 279.939 311.671 280.142 311.213 280.363C311.128 279.939 311.009 279.514 310.856 279.09L312.316 277.631C312.553 278.275 312.63 278.997 312.545 279.76ZM305.069 275.17L304.747 275.815C305.273 275.933 305.825 276.112 306.419 276.349L306.656 275.704C306.13 275.484 305.604 275.297 305.069 275.17ZM307.623 272.565C307.827 273.074 307.963 273.651 308.056 274.287L308.71 274.075C308.625 273.447 308.472 272.87 308.268 272.327L307.623 272.565ZM305.884 277.291L306.419 277.826L307.623 276.621C307.836 277.342 307.802 278.225 307.53 279.26L308.319 279.455C308.557 278.233 308.489 277.147 308.099 276.197L309.711 277.809L310.279 277.24L309.176 276.137C309.685 276.035 310.322 275.942 311.085 275.857L310.924 275.068C310.161 275.255 309.422 275.467 308.735 275.696L308.642 275.603L310.186 274.058L309.651 273.524L308.107 275.068L306.486 273.447L305.918 274.016L307.539 275.637L305.884 277.291ZM321.268 274.058C321.743 273.583 321.726 273.091 321.234 272.599L318.756 270.121C318.9 269.739 319.045 269.357 319.172 268.959L318.57 268.356C318.451 268.746 318.315 269.137 318.162 269.527L316.491 267.856L317.305 267.041L316.72 266.455L315.905 267.27L314.301 265.666L313.707 266.26L315.311 267.864L314.293 268.882L314.878 269.468L315.897 268.449L317.814 270.367C317.577 270.876 317.305 271.385 317.008 271.869L317.755 272.31C317.984 271.878 318.196 271.428 318.408 270.961L320.487 273.04C320.725 273.278 320.742 273.515 320.53 273.727C320.326 273.931 320.088 274.135 319.842 274.33L320.547 274.779L321.268 274.058ZM320.054 267.771L321.785 266.04L322.829 267.083L321.412 268.5L324.195 271.284L324.764 270.715L324.348 270.299L326.647 268L327.063 268.416L327.632 267.847L324.849 265.064L323.423 266.489L322.379 265.446L324.195 263.63L323.644 263.078L321.828 264.894L320.827 263.893L322.422 262.298L320.36 260.236L315.888 264.707L318.544 267.363C320.317 269.154 321.471 270.919 321.989 272.641L322.889 272.59C322.345 270.927 321.404 269.323 320.054 267.771ZM320.233 264.487L321.234 265.488L319.537 267.185C319.401 267.049 319.274 266.905 319.138 266.769L318.544 266.175L320.233 264.487ZM323.805 269.756L322.524 268.475L324.823 266.175L326.104 267.457L323.805 269.756ZM320.334 261.398L321.276 262.34L317.993 265.624L317.051 264.682L320.334 261.398Z" fill="#9E9E9E"/>
<path d="M570.759 591.237C571.54 592.069 572.185 592.951 572.703 593.893L573.373 593.528C572.83 592.544 572.143 591.619 571.336 590.745L570.759 591.237ZM573.127 588.242C573.271 588.963 573.33 589.719 573.305 590.525L570.963 588.183L570.369 588.777L573.509 591.916C575.384 593.825 576.317 595.641 576.292 597.381L577.149 597.321C577.149 596.066 576.716 594.784 575.851 593.461C576.538 593.52 577.471 593.673 578.634 593.919L578.456 593.028C577.344 592.867 576.3 592.773 575.341 592.748C574.977 592.281 574.569 591.806 574.103 591.322L573.95 591.17C574.069 590.134 574.06 589.193 573.924 588.344L573.127 588.242ZM572.787 587.241L573.373 587.826L575.562 585.637L581.256 591.331C581.493 591.568 581.493 591.823 581.256 592.061C580.908 592.408 580.526 592.756 580.119 593.113L580.84 593.562L582.011 592.391C582.512 591.891 582.512 591.382 582.011 590.881L576.165 585.035L577.709 583.49L577.123 582.905L572.787 587.241ZM580.925 578.068L584.073 581.216L580.687 584.602L581.29 585.204L583.598 582.896L583.657 582.956C584.514 583.847 585.04 584.746 585.244 585.629C585.397 586.528 585.167 587.589 584.557 588.845L585.447 589.04C586.075 587.75 586.313 586.596 586.143 585.578C585.931 584.5 585.312 583.423 584.276 582.336L584.217 582.277L585.651 580.843L588.621 583.813C589.173 584.364 589.707 584.39 590.233 583.864L591.557 582.54C591.896 582.201 592.058 581.87 592.041 581.547C592.024 581.191 591.599 580.529 590.759 579.57L589.987 579.969C590.683 580.733 591.048 581.233 591.099 581.488C591.133 581.692 591.056 581.887 590.87 582.073L589.843 583.1C589.605 583.338 589.359 583.329 589.105 583.075L586.262 580.232L588.697 577.797L588.095 577.194L584.701 580.588L581.553 577.44L580.925 578.068ZM584.149 575.658C584.531 576.6 584.837 577.653 585.049 578.798L585.88 578.527C585.694 577.406 585.397 576.346 584.989 575.362L584.149 575.658ZM579.245 580.716L578.939 581.564C579.932 581.725 580.976 581.972 582.079 582.328L582.367 581.479C581.29 581.148 580.254 580.894 579.245 580.716Z" fill="#9E9E9E"/>
<path d="M560.607 231.029L562.762 233.184L561.277 234.669L559.122 232.514L560.607 231.029ZM558.528 233.04L560.717 235.229L558.231 237.715L558.859 238.343L561.345 235.857L563.653 238.165L562.177 239.641C561.82 239.998 561.481 240.015 561.176 239.709C560.887 239.421 560.59 239.09 560.268 238.733L559.826 239.497L560.802 240.473C561.396 241.067 561.99 241.067 562.584 240.473L568.94 234.117L562.618 227.796L558.545 231.869C557.366 233.014 556.127 233.693 554.829 233.905L554.88 234.788C556.135 234.618 557.349 234.032 558.528 233.04ZM564.213 237.605L561.905 235.297L563.39 233.812L565.698 236.12L564.213 237.605ZM566.267 235.551L563.959 233.243L565.418 231.784L567.726 234.092L566.267 235.551ZM564.79 231.156L563.331 232.615L561.176 230.46L562.635 229.001L564.79 231.156ZM575.38 243.171L573.725 244.826L568.88 239.981L570.535 238.326L575.38 243.171ZM568.286 240.575L573.751 246.039L576.602 243.188L573.92 240.507C574.175 239.947 574.387 239.429 574.557 238.954L573.802 238.402C573.674 238.886 573.505 239.378 573.301 239.887L570.535 237.121L567.879 239.777C566.343 241.279 564.756 242.17 563.119 242.433L563.161 243.29C565.019 242.959 566.725 242.051 568.286 240.575ZM579.69 244.359L578.867 244.334C578.995 245.445 579.029 246.379 578.961 247.159L579.826 247.159C579.869 246.319 579.818 245.386 579.69 244.359ZM577.102 256.858L579.071 258.826L579.835 258.368C579.589 258.156 579.258 257.842 578.842 257.443C578.409 257.028 577.985 256.62 577.578 256.213C576.924 255.56 576.39 255.008 575.957 254.558C575.482 254.049 575.168 253.599 575.032 253.226C574.905 252.878 574.871 252.488 574.913 252.038C574.922 251.894 574.922 251.775 574.905 251.656L578.087 248.474L576.305 246.692L575.745 247.252L576.958 248.466L574.379 251.045C573.87 250.842 573.038 250.876 571.867 251.13L571.909 252.004C573.165 251.699 573.895 251.648 574.099 251.852C574.201 251.953 574.243 252.132 574.209 252.386C574.167 252.955 574.251 253.464 574.472 253.888C574.718 254.321 575.108 254.813 575.635 255.356C576.161 255.899 576.644 256.4 577.102 256.858ZM581.71 247.176L581.15 247.736L585.045 251.631L585.605 251.071L581.71 247.176ZM579.266 248.585L578.681 249.17L580.463 250.952C578.129 251.962 576.738 252.352 576.279 252.098L575.898 252.785C577.552 254.151 578.952 255.195 580.106 255.907C579.97 256.247 579.809 256.595 579.631 256.943L580.318 257.341C580.963 255.984 581.447 254.686 581.769 253.447L581.108 253.107C580.912 253.795 580.683 254.482 580.412 255.161C579.521 254.609 578.46 253.854 577.238 252.87C578.121 252.734 579.393 252.293 581.065 251.555L583.713 254.202L584.298 253.616L579.266 248.585ZM587.387 253.073L586.801 253.659L589.873 256.731L590.458 256.145L587.387 253.073ZM584.765 255.034L584.171 255.627L585.35 256.807C583.382 257.927 582.1 258.529 581.498 258.623C581.447 258.606 581.388 258.58 581.311 258.538L580.878 259.259C582.117 260.125 583.356 260.854 584.578 261.431C584.468 261.711 584.349 262 584.213 262.305L585.011 262.56C585.511 261.347 585.919 260.176 586.241 259.039L585.469 258.776C585.299 259.386 585.096 260.014 584.858 260.693C583.95 260.277 583.085 259.802 582.278 259.268C583.093 258.962 584.306 258.343 585.936 257.392L587.896 259.353L588.49 258.759L584.765 255.034ZM592.622 257.172L590.908 258.886L589.763 257.74L589.169 258.334L590.314 259.48L590.212 259.582C587.913 261.847 585.715 262.959 583.628 262.925L583.687 263.782C585.97 263.807 588.354 262.611 590.823 260.193L590.925 260.091L592.181 261.347C589.881 263.612 588.481 264.944 587.981 265.343C587.429 265.759 586.937 265.759 586.521 265.343C586.292 265.114 586.037 264.826 585.749 264.503L585.342 265.182C585.681 265.555 585.919 265.81 586.063 265.954C586.793 266.684 587.556 266.752 588.328 266.149C589.033 265.598 590.713 264.002 593.369 261.347L591.519 259.497L593.233 257.783L592.622 257.172ZM599.402 267.668L600.658 268.924C599.478 270.035 598.299 270.859 597.111 271.385C597.484 270.332 598.07 269.204 598.85 267.999L599.402 267.668ZM596.22 271.716C595.108 272.046 594.005 272.114 592.885 271.911L592.69 272.734C593.785 272.912 594.879 272.87 595.965 272.598C595.677 273.735 595.609 274.821 595.779 275.839L596.61 275.67C596.415 274.643 596.483 273.54 596.805 272.335C598.282 271.809 599.758 270.859 601.218 269.484L601.769 270.035L602.355 269.45L600.115 267.21C600.556 266.904 601.031 266.565 601.515 266.183L601.022 265.487C599.241 266.93 597.62 267.872 596.169 268.321L596.084 269.17C596.568 269.043 597.085 268.865 597.628 268.627C597.009 269.705 596.542 270.731 596.22 271.716ZM593.751 266.141C593.521 266.251 593.275 266.361 593.012 266.472L591.774 265.233L591.239 265.767L592.24 266.769C591.731 266.938 591.188 267.091 590.594 267.244C590.857 267.812 591.086 268.364 591.298 268.898C590.526 268.686 589.695 268.313 588.812 267.804L588.592 268.601C589.678 269.212 590.696 269.603 591.646 269.772C591.926 270.494 592.13 271.156 592.283 271.75L593.089 271.605C592.919 271.028 592.715 270.451 592.495 269.857C593.343 269.891 594.141 269.722 594.888 269.348L595.388 268.848L593.615 267.074C593.818 266.972 594.031 266.879 594.251 266.777L593.751 266.141ZM592.172 269.06C591.994 268.627 591.79 268.186 591.57 267.727C591.994 267.643 592.418 267.524 592.843 267.371L594.302 268.831C593.657 269.068 592.936 269.145 592.172 269.06ZM596.763 261.584L596.118 261.262C595.999 261.788 595.821 262.339 595.583 262.933L596.228 263.171C596.449 262.645 596.636 262.119 596.763 261.584ZM599.368 264.138C598.859 264.342 598.282 264.478 597.645 264.571L597.857 265.224C598.485 265.139 599.062 264.987 599.605 264.783L599.368 264.138ZM594.642 262.399L594.107 262.933L595.312 264.138C594.591 264.35 593.708 264.316 592.673 264.045L592.478 264.834C593.7 265.072 594.786 265.004 595.736 264.613L594.124 266.226L594.692 266.794L595.796 265.691C595.897 266.2 595.991 266.837 596.076 267.6L596.865 267.439C596.678 266.675 596.466 265.937 596.237 265.25L596.33 265.156L597.874 266.701L598.409 266.166L596.865 264.622L598.485 263.001L597.917 262.433L596.296 264.053L594.642 262.399ZM597.874 277.783C598.35 278.258 598.842 278.241 599.334 277.749L601.812 275.271C602.193 275.415 602.575 275.559 602.974 275.687L603.577 275.084C603.186 274.965 602.796 274.83 602.406 274.677L604.077 273.005L604.892 273.82L605.477 273.234L604.663 272.42L606.266 270.816L605.672 270.222L604.069 271.826L603.05 270.808L602.465 271.393L603.483 272.411L601.566 274.329C601.056 274.091 600.547 273.82 600.064 273.523L599.622 274.27C600.055 274.499 600.505 274.711 600.972 274.923L598.893 277.002C598.655 277.239 598.417 277.256 598.205 277.044C598.002 276.841 597.798 276.603 597.603 276.357L597.153 277.061L597.874 277.783ZM604.162 276.569L605.893 278.3L604.849 279.344L603.432 277.927L600.649 280.71L601.218 281.278L601.633 280.863L603.933 283.162L603.517 283.578L604.086 284.147L606.869 281.363L605.443 279.938L606.487 278.894L608.303 280.71L608.854 280.158L607.039 278.343L608.04 277.341L609.635 278.937L611.697 276.875L607.225 272.403L604.569 275.059C602.779 276.832 601.014 277.986 599.291 278.504L599.342 279.403C601.006 278.86 602.609 277.918 604.162 276.569ZM607.446 276.747L606.445 277.749L604.748 276.052C604.883 275.916 605.028 275.788 605.163 275.653L605.757 275.059L607.446 276.747ZM602.176 280.32L603.458 279.038L605.757 281.338L604.476 282.619L602.176 280.32ZM610.534 276.849L609.593 277.791L606.309 274.507L607.251 273.565L610.534 276.849Z" fill="#9E9E9E"/>
<path d="M539.332 555.548L539.9 556.116L544.16 551.857L545.246 552.943L541.742 556.447C541.597 556.116 541.428 555.76 541.216 555.361L540.554 555.921C540.859 556.43 541.156 557.067 541.47 557.822L544.805 554.487C544.729 556.023 544.05 557.924 542.768 560.172L543.625 560.384C544.983 557.771 545.62 555.573 545.518 553.774L545.798 553.494L547.291 554.988C547.52 555.217 547.529 555.446 547.325 555.65C546.96 556.015 546.553 556.388 546.112 556.778L546.824 557.219L548.063 555.981C548.547 555.497 548.547 555.005 548.055 554.513L546.417 552.875L548.267 551.025L547.715 550.474L545.866 552.323L544.779 551.237L546.103 549.914L545.535 549.345L539.332 555.548ZM539.264 549.082L538.729 549.82C539.026 549.897 539.34 550.007 539.654 550.134L536.294 553.494L537.584 554.784L538.178 554.19L537.431 553.443L543.396 547.478L544.101 548.183L544.695 547.589L543.447 546.341L540.274 549.515C539.909 549.337 539.578 549.192 539.264 549.082ZM541.334 550.083L541.487 550.83C542.59 550.219 543.77 549.718 545.017 549.337L544.847 548.573C543.693 548.946 542.522 549.438 541.334 550.083ZM539.926 551.475C539.705 552.527 539.23 553.664 538.5 554.903L539.23 555.158C539.968 553.842 540.469 552.629 540.715 551.517L539.926 551.475ZM546.969 546.553L549.005 548.59L549.871 547.724L550.337 548.191L549.336 549.192L549.794 549.651L550.796 548.649L551.313 549.167L550.142 550.338L550.617 550.813L554.919 546.511L554.444 546.036L553.248 547.232L552.73 546.715L553.714 545.73L553.256 545.272L552.272 546.256L551.805 545.79L552.654 544.941L550.617 542.905L546.969 546.553ZM551.831 548.649L551.313 548.132L552.213 547.232L552.73 547.75L551.831 548.649ZM551.754 546.774L550.855 547.674L550.388 547.207L551.288 546.307L551.754 546.774ZM551.763 545.052L550.685 546.129L550.252 545.696L551.33 544.619L551.763 545.052ZM550.193 546.621L549.115 547.699L548.683 547.266L549.76 546.189L550.193 546.621ZM548.309 546.893L547.843 546.426L548.92 545.349L549.387 545.815L548.309 546.893ZM549.412 544.856L550.49 543.779L550.957 544.245L549.879 545.323L549.412 544.856ZM553.401 548.217L553.519 548.861C554.181 548.573 554.894 548.369 555.666 548.242L555.522 547.555C554.818 547.682 554.113 547.911 553.401 548.217ZM552.102 549.532C552 550.211 551.737 550.932 551.313 551.712L552 551.942C552.408 551.093 552.662 550.312 552.756 549.574L552.102 549.532ZM544.958 544.644L545.458 545.145L547.113 543.49L547.681 544.059L545.577 546.163L546.086 546.672L550.897 541.861C551.916 542.777 552.84 543.499 553.655 544.042C554.266 544.449 554.843 544.772 555.369 545.026C555.581 545.849 555.641 546.604 555.539 547.3L556.345 547.461C556.455 546.842 556.43 546.155 556.286 545.399C556.472 545.467 556.659 545.518 556.837 545.561C557.669 545.747 558.246 545.696 558.534 545.408C558.89 545.052 558.594 544.212 557.643 542.888L556.871 543.117C557.652 544.135 557.966 544.721 557.83 544.873C557.703 545.001 557.312 544.967 556.676 544.772C556.481 544.712 556.277 544.627 556.048 544.534C555.658 543.329 554.953 541.963 553.927 540.444L553.188 540.724C554.003 541.895 554.614 542.981 555.021 543.999C554.716 543.83 554.385 543.618 554.045 543.38C553.35 542.905 552.493 542.2 551.474 541.284L553.562 539.197L553.053 538.688L550.94 540.8C550.422 540.317 549.862 539.791 549.268 539.197L548.7 539.765C549.277 540.342 549.828 540.877 550.363 541.377L548.275 543.465L547.707 542.896L549.268 541.335L548.768 540.834L547.206 542.396L546.638 541.827L546.044 542.421L546.612 542.99L544.958 544.644ZM550.193 538.374L550.032 539.078C550.804 539.086 551.466 539.137 552.009 539.239L552.128 538.509C551.636 538.425 550.982 538.382 550.193 538.374Z" fill="#9E9E9E"/>
<path d="M534.196 284.362L532.337 286.22L530.021 283.904L529.427 284.498L534.611 289.682L535.205 289.088L532.948 286.831L534.807 284.973L536.75 286.916L537.318 286.348L532.787 281.816L532.219 282.385L534.196 284.362ZM527.679 283.14C528.171 283.632 528.672 283.641 529.164 283.149L531.667 280.645C532.023 280.781 532.388 280.908 532.753 281.036L533.373 280.416C533.008 280.306 532.643 280.179 532.269 280.043L533.916 278.397L534.62 279.101L535.205 278.516L534.501 277.811L536.122 276.191L535.494 275.563L533.873 277.183L532.838 276.148L532.252 276.734L533.288 277.769L531.387 279.67C530.869 279.424 530.36 279.152 529.86 278.855L529.401 279.619C529.851 279.848 530.309 280.068 530.776 280.281L528.689 282.368C528.468 282.589 528.247 282.589 528.027 282.368C527.815 282.156 527.611 281.918 527.399 281.672L526.932 282.393L527.679 283.14ZM539.575 279.441L538.854 278.923C538.735 279.347 538.566 279.805 538.362 280.281L536.258 278.176L534.654 279.78L535.231 280.357L536.283 279.305L539.847 282.869L538.795 283.921L539.363 284.489L540.967 282.886L538.973 280.892C539.219 280.374 539.414 279.89 539.575 279.441ZM536.682 280.756C535.63 281.163 534.56 281.265 533.483 281.07L533.542 281.893C534.62 282.088 535.774 281.952 537.004 281.502L536.682 280.756ZM538.336 282.376L537.598 282.079C537.564 283.132 537.395 284.218 537.115 285.329L537.921 285.592C538.175 284.523 538.319 283.446 538.336 282.376ZM542.163 285.508L543.351 286.695L542.257 287.79L540.203 285.737L539.635 286.305L541.688 288.359L540.797 289.25L539.126 287.578L536.071 290.633L536.665 291.227L539.151 288.74L540.229 289.818L537.208 292.839L537.819 293.45L540.84 290.429L541.909 291.498L540.364 293.042C540.144 293.263 539.906 293.246 539.669 293.009L539.278 292.567L538.854 293.297L539.304 293.747C539.813 294.256 540.322 294.256 540.823 293.755L543.063 291.515L541.408 289.86L542.299 288.97L544.132 290.802L544.7 290.234L542.868 288.401L543.962 287.306L545.549 288.893L546.117 288.325L544.531 286.738L545.583 285.686L544.972 285.075L543.92 286.127L542.935 285.143C543.232 284.981 543.529 284.786 543.843 284.557L543.36 283.887C542.435 284.574 541.535 284.931 540.653 284.964L540.789 285.813C541.213 285.796 541.671 285.694 542.163 285.508ZM547.153 288.783L541.909 294.027L542.503 294.621L547.747 289.377L547.153 288.783ZM541.79 297.251C542.308 297.769 542.842 297.76 543.368 297.234L550.25 290.353L549.647 289.75L542.918 296.479C542.647 296.751 542.375 296.751 542.121 296.496C541.748 296.123 541.374 295.715 540.992 295.283L540.543 296.004L541.79 297.251ZM553.525 297.09C554.798 297.938 556.24 298.736 557.853 299.466L557.997 298.643C556.605 298.066 555.299 297.37 554.068 296.547L555.231 295.384L554.645 294.799L552.286 297.158C551.794 297.65 551.786 298.151 552.278 298.643L554.713 301.078C555.035 301.4 555.349 301.579 555.638 301.596C555.96 301.613 556.503 301.307 557.276 300.654L556.894 299.916C556.317 300.425 555.918 300.671 555.706 300.679C555.536 300.679 555.358 300.586 555.171 300.399L553.024 298.252C552.804 298.032 552.795 297.82 552.999 297.616L553.525 297.09ZM544.802 300.263C545.269 300.73 545.761 300.713 546.262 300.213L548.655 297.82C549.138 298.032 549.639 298.227 550.131 298.414L550.75 297.794C550.25 297.616 549.758 297.429 549.257 297.217L550.996 295.478L551.938 296.42L552.524 295.834L551.582 294.892L553.177 293.297L552.592 292.712L550.996 294.307L549.851 293.161L549.265 293.747L550.411 294.892L548.468 296.835C547.908 296.547 547.365 296.241 546.839 295.902L546.372 296.657C546.856 296.937 547.356 297.2 547.857 297.446L545.829 299.474C545.591 299.712 545.354 299.729 545.133 299.508C544.879 299.254 544.624 298.965 544.361 298.651L543.903 299.364L544.802 300.263ZM554.823 302.495L550.954 298.626L546.983 302.597L547.585 303.199L548.018 302.767L550.674 305.422L550.241 305.855L550.852 306.466L554.823 302.495ZM548.561 302.224L549.529 301.256L552.184 303.912L551.217 304.879L548.561 302.224ZM550.072 300.713L551.022 299.763L553.678 302.419L552.727 303.369L550.072 300.713ZM560.984 305.109L560.211 305.253C560.559 306.076 560.797 306.975 560.924 307.951L561.705 307.781C561.578 306.89 561.332 305.999 560.984 305.109ZM556.766 307.663L555.926 307.824C556.673 309.453 557.242 311.209 557.606 313.102L558.472 312.915C558.336 312.27 558.167 311.608 557.971 310.938C559.329 311.091 560.67 311.074 562.002 310.895L562.519 310.378L556.919 304.778L556.342 305.355L561.187 310.2C559.94 310.276 558.786 310.242 557.708 310.098C557.445 309.292 557.14 308.477 556.766 307.663ZM563.393 303.649C561.255 303.819 559.066 303.564 556.826 302.868L556.58 303.708C558.871 304.387 561.026 304.625 563.029 304.421C562.884 306.551 563.164 308.664 563.86 310.768L564.709 310.531C563.996 308.46 563.69 306.305 563.801 304.056L563.393 303.649Z" fill="#9E9E9E"/>
<circle cx="635" cy="422" r="100" fill="#FF9933"/>
<circle cx="635" cy="422" r="92" fill="#2F2F2F"/>
<circle cx="635" cy="422" r="47" stroke="#FF9933" stroke-width="2"/>
<circle cx="635" cy="422" r="38.75" stroke="#FF9933" stroke-width="2"/>
<path fill-rule="evenodd" clip-rule="evenodd" d="M650.752 417.025C651.114 417.968 650.9 418.142 649.647 418.949C644.739 422.108 643.498 422.705 644.91 425.81C645.919 428.031 651.232 437 651.232 437H645.436L634.916 418.853C634.534 418.212 633.843 418.434 633.843 419.352V437H622.25V407.353C622.25 407.353 624.082 407.169 633.839 407.003C646.054 406.796 650.49 416.345 650.752 417.025Z" stroke="#FF9933" stroke-width="2"/>
<circle cx="420" cy="207" r="100" fill="#FF6666"/>
<circle cx="420" cy="207" r="92" fill="#2F2F2F"/>
<rect x="391" y="156" width="58" height="103" rx="15" stroke="#FF6666" stroke-width="2"/>
<rect x="397" y="166.5" width="46" height="34" rx="3" stroke="#FF6666" stroke-width="2"/>
<rect x="397" y="205.5" width="20.5" height="22" rx="3" stroke="#FF6666" stroke-width="2"/>
<rect x="422.5" y="205.5" width="20.5" height="22" rx="3" stroke="#FF6666" stroke-width="2"/>
<circle cx="207" cy="422" r="100" fill="#66B2FF"/>
<circle cx="207" cy="422" r="92" fill="#2F2F2F"/>
<mask id="path-36-inside-1_1468_6530" fill="white">
<path fill-rule="evenodd" clip-rule="evenodd" d="M232 401C232 402.016 231.937 403.018 231.814 404.001C231.876 404 231.938 404 232 404C245.255 404 256 414.745 256 428C256 441.255 245.255 452 232 452H184C169.088 452 157 439.912 157 425C157 410.088 169.088 398 184 398C184.062 398 184.124 398 184.186 398.001C185.662 386.161 195.761 377 208 377C221.255 377 232 387.745 232 401Z"/>
</mask>
<path d="M231.814 404.001L231.829 406.001L229.547 406.018L229.83 403.753L231.814 404.001ZM184.186 398.001L186.17 398.248L185.95 400.013L184.172 400.001L184.186 398.001ZM229.83 403.753C229.942 402.852 230 401.933 230 401H234C234 402.099 233.932 403.183 233.799 404.248L229.83 403.753ZM232 406C231.943 406 231.886 406 231.829 406.001L231.799 402.001C231.866 402 231.933 402 232 402V406ZM254 428C254 415.85 244.15 406 232 406V402C246.359 402 258 413.641 258 428H254ZM232 450C244.15 450 254 440.15 254 428H258C258 442.359 246.359 454 232 454V450ZM232 454H184V450H232V454ZM159 425C159 438.807 170.193 450 184 450V454C167.984 454 155 441.016 155 425H159ZM184 400C170.193 400 159 411.193 159 425H155C155 408.984 167.984 396 184 396V400ZM184.172 400.001C184.115 400 184.057 400 184 400V396C184.066 396 184.133 396 184.199 396.001L184.172 400.001ZM208 379C196.782 379 187.523 387.397 186.17 398.248L182.201 397.753C183.8 384.925 194.74 375 208 375V379ZM230 401C230 388.85 220.15 379 208 379V375C222.359 375 234 386.641 234 401H230Z" fill="#66B2FF" mask="url(#path-36-inside-1_1468_6530)"/>
<path d="M199.75 413H208.75" stroke="#66B2FF" stroke-width="2"/>
<path d="M178.75 437L187.75 413L196.75 437" stroke="#66B2FF" stroke-width="2" stroke-linecap="square"/>
<path d="M181 431H194.5" stroke="#66B2FF" stroke-width="2"/>
<path d="M199.75 437H208.75" stroke="#66B2FF" stroke-width="2"/>
<path d="M204.25 413V437" stroke="#66B2FF" stroke-width="2"/>
<defs>
<radialGradient id="paint0_angular_1468_6530" cx="0" cy="0" r="1" gradientUnits="userSpaceOnUse" gradientTransform="translate(421 421) rotate(26.4941) scale(360.902)">
<stop offset="0.438663" stop-color="white" stop-opacity="0"/>
<stop offset="0.438846" stop-color="#66B2FF"/>
<stop offset="0.608833" stop-color="#FF6666"/>
<stop offset="0.750575" stop-color="#FF6666"/>
<stop offset="0.852513" stop-color="#FF9933"/>
<stop offset="0.92472" stop-color="#FF9933"/>
<stop offset="0.925317" stop-color="white" stop-opacity="0"/>
</radialGradient>
</defs>
</svg>
