<svg width="768" height="300" viewBox="0 0 768 300" fill="none" xmlns="http://www.w3.org/2000/svg">
<rect width="768" height="300" fill="black"/>
<rect x="155" y="101" width="147" height="96" stroke="white"/>
<path d="M155 87H187.232L196.566 101H155V87Z" stroke="white"/>
<path d="M182.761 122.364H184.523V130.017C184.523 130.831 184.331 131.553 183.949 132.182C183.566 132.807 183.028 133.299 182.335 133.659C181.642 134.015 180.83 134.193 179.898 134.193C178.97 134.193 178.159 134.015 177.466 133.659C176.773 133.299 176.235 132.807 175.852 132.182C175.47 131.553 175.278 130.831 175.278 130.017V122.364H177.034V129.875C177.034 130.402 177.15 130.869 177.381 131.278C177.616 131.688 177.947 132.009 178.375 132.244C178.803 132.475 179.311 132.591 179.898 132.591C180.489 132.591 180.998 132.475 181.426 132.244C181.858 132.009 182.188 131.688 182.415 131.278C182.646 130.869 182.761 130.402 182.761 129.875V122.364ZM186.939 137.273V125.273H188.598V126.688H188.74C188.839 126.506 188.981 126.295 189.166 126.057C189.352 125.818 189.609 125.61 189.939 125.432C190.268 125.25 190.704 125.159 191.246 125.159C191.95 125.159 192.579 125.337 193.132 125.693C193.685 126.049 194.119 126.562 194.433 127.233C194.751 127.903 194.911 128.71 194.911 129.653C194.911 130.597 194.753 131.405 194.439 132.08C194.125 132.75 193.693 133.267 193.143 133.631C192.594 133.991 191.967 134.17 191.263 134.17C190.732 134.17 190.299 134.081 189.962 133.903C189.628 133.725 189.367 133.517 189.178 133.278C188.988 133.04 188.842 132.828 188.74 132.642H188.638V137.273H186.939ZM188.604 129.636C188.604 130.25 188.693 130.788 188.871 131.25C189.049 131.712 189.306 132.074 189.643 132.335C189.981 132.593 190.393 132.722 190.882 132.722C191.39 132.722 191.814 132.587 192.155 132.318C192.496 132.045 192.753 131.676 192.928 131.21C193.106 130.744 193.195 130.22 193.195 129.636C193.195 129.061 193.107 128.544 192.933 128.085C192.763 127.627 192.505 127.265 192.161 127C191.82 126.735 191.393 126.602 190.882 126.602C190.39 126.602 189.973 126.729 189.632 126.983C189.295 127.237 189.039 127.591 188.865 128.045C188.691 128.5 188.604 129.03 188.604 129.636ZM200.081 134.17C199.376 134.17 198.748 133.991 198.195 133.631C197.645 133.267 197.214 132.75 196.899 132.08C196.589 131.405 196.433 130.597 196.433 129.653C196.433 128.71 196.59 127.903 196.905 127.233C197.223 126.562 197.659 126.049 198.212 125.693C198.765 125.337 199.392 125.159 200.092 125.159C200.634 125.159 201.07 125.25 201.399 125.432C201.732 125.61 201.99 125.818 202.172 126.057C202.357 126.295 202.501 126.506 202.604 126.688H202.706V122.364H204.405V134H202.746V132.642H202.604C202.501 132.828 202.354 133.04 202.161 133.278C201.971 133.517 201.71 133.725 201.376 133.903C201.043 134.081 200.611 134.17 200.081 134.17ZM200.456 132.722C200.945 132.722 201.357 132.593 201.695 132.335C202.036 132.074 202.293 131.712 202.467 131.25C202.645 130.788 202.734 130.25 202.734 129.636C202.734 129.03 202.647 128.5 202.473 128.045C202.299 127.591 202.043 127.237 201.706 126.983C201.369 126.729 200.952 126.602 200.456 126.602C199.945 126.602 199.518 126.735 199.178 127C198.837 127.265 198.579 127.627 198.405 128.085C198.234 128.544 198.149 129.061 198.149 129.636C198.149 130.22 198.236 130.744 198.411 131.21C198.585 131.676 198.842 132.045 199.183 132.318C199.528 132.587 199.952 132.722 200.456 132.722ZM209.369 134.193C208.816 134.193 208.316 134.091 207.869 133.886C207.422 133.678 207.068 133.377 206.807 132.983C206.549 132.589 206.42 132.106 206.42 131.534C206.42 131.042 206.515 130.636 206.705 130.318C206.894 130 207.15 129.748 207.472 129.562C207.794 129.377 208.153 129.237 208.551 129.142C208.949 129.047 209.354 128.975 209.767 128.926C210.29 128.866 210.714 128.816 211.04 128.778C211.366 128.737 211.602 128.67 211.75 128.58C211.898 128.489 211.972 128.341 211.972 128.136V128.097C211.972 127.6 211.831 127.216 211.551 126.943C211.275 126.67 210.862 126.534 210.312 126.534C209.741 126.534 209.29 126.661 208.96 126.915C208.634 127.165 208.409 127.443 208.284 127.75L206.688 127.386C206.877 126.856 207.153 126.428 207.517 126.102C207.884 125.773 208.307 125.534 208.784 125.386C209.261 125.235 209.763 125.159 210.29 125.159C210.638 125.159 211.008 125.201 211.398 125.284C211.792 125.364 212.159 125.511 212.5 125.727C212.845 125.943 213.127 126.252 213.347 126.653C213.566 127.051 213.676 127.568 213.676 128.205V134H212.017V132.807H211.949C211.839 133.027 211.674 133.242 211.455 133.455C211.235 133.667 210.953 133.843 210.608 133.983C210.263 134.123 209.85 134.193 209.369 134.193ZM209.739 132.83C210.208 132.83 210.61 132.737 210.943 132.551C211.28 132.366 211.536 132.123 211.71 131.824C211.888 131.521 211.977 131.197 211.977 130.852V129.727C211.917 129.788 211.799 129.845 211.625 129.898C211.455 129.947 211.259 129.991 211.04 130.028C210.82 130.062 210.606 130.095 210.398 130.125C210.189 130.152 210.015 130.174 209.875 130.193C209.545 130.235 209.244 130.305 208.972 130.403C208.703 130.502 208.487 130.644 208.324 130.83C208.165 131.011 208.085 131.254 208.085 131.557C208.085 131.977 208.241 132.295 208.551 132.511C208.862 132.723 209.258 132.83 209.739 132.83ZM220.013 125.273V126.636H215.246V125.273H220.013ZM216.524 123.182H218.223V131.438C218.223 131.767 218.272 132.015 218.371 132.182C218.469 132.345 218.596 132.456 218.751 132.517C218.911 132.574 219.083 132.602 219.268 132.602C219.405 132.602 219.524 132.593 219.626 132.574C219.729 132.555 219.808 132.54 219.865 132.528L220.172 133.932C220.073 133.97 219.933 134.008 219.751 134.045C219.57 134.087 219.342 134.11 219.07 134.114C218.623 134.121 218.206 134.042 217.82 133.875C217.433 133.708 217.121 133.451 216.882 133.102C216.643 132.754 216.524 132.316 216.524 131.79V123.182ZM225.56 134.176C224.7 134.176 223.959 133.992 223.338 133.625C222.721 133.254 222.243 132.733 221.906 132.062C221.573 131.388 221.406 130.598 221.406 129.693C221.406 128.799 221.573 128.011 221.906 127.33C222.243 126.648 222.713 126.116 223.315 125.733C223.921 125.35 224.63 125.159 225.44 125.159C225.933 125.159 226.41 125.241 226.872 125.403C227.334 125.566 227.749 125.822 228.116 126.17C228.484 126.519 228.774 126.972 228.986 127.528C229.198 128.081 229.304 128.754 229.304 129.545V130.148H222.366V128.875H227.639C227.639 128.428 227.548 128.032 227.366 127.688C227.185 127.339 226.929 127.064 226.599 126.864C226.274 126.663 225.891 126.562 225.452 126.562C224.974 126.562 224.558 126.68 224.202 126.915C223.849 127.146 223.577 127.449 223.384 127.824C223.194 128.195 223.099 128.598 223.099 129.034V130.028C223.099 130.612 223.202 131.108 223.406 131.517C223.615 131.926 223.904 132.239 224.276 132.455C224.647 132.667 225.08 132.773 225.577 132.773C225.899 132.773 226.192 132.727 226.457 132.636C226.723 132.542 226.952 132.402 227.145 132.216C227.338 132.03 227.486 131.801 227.588 131.528L229.196 131.818C229.067 132.292 228.836 132.706 228.503 133.062C228.173 133.415 227.759 133.689 227.259 133.886C226.762 134.08 226.196 134.176 225.56 134.176ZM237.729 127.403L236.189 127.676C236.125 127.479 236.022 127.292 235.882 127.114C235.746 126.936 235.56 126.79 235.325 126.676C235.09 126.562 234.797 126.506 234.445 126.506C233.964 126.506 233.562 126.614 233.24 126.83C232.918 127.042 232.757 127.316 232.757 127.653C232.757 127.945 232.865 128.18 233.081 128.358C233.297 128.536 233.645 128.682 234.126 128.795L235.513 129.114C236.316 129.299 236.914 129.585 237.308 129.972C237.702 130.358 237.899 130.86 237.899 131.477C237.899 132 237.748 132.466 237.445 132.875C237.145 133.28 236.727 133.598 236.189 133.83C235.655 134.061 235.036 134.176 234.331 134.176C233.354 134.176 232.556 133.968 231.939 133.551C231.321 133.131 230.943 132.534 230.803 131.761L232.445 131.511C232.547 131.939 232.757 132.263 233.075 132.483C233.393 132.699 233.808 132.807 234.32 132.807C234.876 132.807 235.321 132.691 235.655 132.46C235.988 132.225 236.155 131.939 236.155 131.602C236.155 131.33 236.053 131.1 235.848 130.915C235.647 130.729 235.339 130.589 234.922 130.494L233.445 130.17C232.63 129.985 232.028 129.689 231.638 129.284C231.251 128.879 231.058 128.366 231.058 127.744C231.058 127.229 231.202 126.778 231.49 126.392C231.778 126.006 232.176 125.705 232.683 125.489C233.191 125.269 233.772 125.159 234.428 125.159C235.371 125.159 236.113 125.364 236.655 125.773C237.196 126.178 237.554 126.722 237.729 127.403ZM184.943 150.148H183.17C183.102 149.769 182.975 149.436 182.79 149.148C182.604 148.86 182.377 148.616 182.108 148.415C181.839 148.214 181.538 148.062 181.205 147.96C180.875 147.858 180.525 147.807 180.153 147.807C179.483 147.807 178.883 147.975 178.352 148.312C177.826 148.65 177.409 149.144 177.102 149.795C176.799 150.447 176.648 151.242 176.648 152.182C176.648 153.129 176.799 153.928 177.102 154.58C177.409 155.231 177.828 155.723 178.358 156.057C178.888 156.39 179.485 156.557 180.148 156.557C180.515 156.557 180.864 156.508 181.193 156.409C181.527 156.307 181.828 156.157 182.097 155.96C182.366 155.763 182.593 155.523 182.778 155.239C182.968 154.951 183.098 154.621 183.17 154.25L184.943 154.256C184.848 154.828 184.665 155.354 184.392 155.835C184.123 156.312 183.777 156.725 183.352 157.074C182.932 157.419 182.451 157.686 181.909 157.875C181.367 158.064 180.777 158.159 180.136 158.159C179.129 158.159 178.231 157.92 177.443 157.443C176.655 156.962 176.034 156.275 175.58 155.381C175.129 154.487 174.903 153.42 174.903 152.182C174.903 150.939 175.131 149.873 175.585 148.983C176.04 148.089 176.661 147.403 177.449 146.926C178.237 146.445 179.133 146.205 180.136 146.205C180.754 146.205 181.33 146.294 181.864 146.472C182.402 146.646 182.884 146.903 183.312 147.244C183.741 147.581 184.095 147.994 184.375 148.483C184.655 148.968 184.845 149.523 184.943 150.148ZM190.584 158.176C189.766 158.176 189.052 157.989 188.442 157.614C187.832 157.239 187.358 156.714 187.021 156.04C186.684 155.366 186.516 154.578 186.516 153.676C186.516 152.771 186.684 151.979 187.021 151.301C187.358 150.623 187.832 150.097 188.442 149.722C189.052 149.347 189.766 149.159 190.584 149.159C191.402 149.159 192.116 149.347 192.726 149.722C193.336 150.097 193.809 150.623 194.146 151.301C194.483 151.979 194.652 152.771 194.652 153.676C194.652 154.578 194.483 155.366 194.146 156.04C193.809 156.714 193.336 157.239 192.726 157.614C192.116 157.989 191.402 158.176 190.584 158.176ZM190.589 156.75C191.12 156.75 191.559 156.61 191.908 156.33C192.256 156.049 192.514 155.676 192.68 155.21C192.851 154.744 192.936 154.231 192.936 153.67C192.936 153.114 192.851 152.602 192.68 152.136C192.514 151.667 192.256 151.29 191.908 151.006C191.559 150.722 191.12 150.58 190.589 150.58C190.055 150.58 189.612 150.722 189.26 151.006C188.911 151.29 188.652 151.667 188.482 152.136C188.315 152.602 188.232 153.114 188.232 153.67C188.232 154.231 188.315 154.744 188.482 155.21C188.652 155.676 188.911 156.049 189.26 156.33C189.612 156.61 190.055 156.75 190.589 156.75ZM196.548 158V149.273H198.179V150.693H198.287C198.469 150.212 198.766 149.837 199.179 149.568C199.592 149.295 200.086 149.159 200.662 149.159C201.245 149.159 201.734 149.295 202.128 149.568C202.526 149.841 202.819 150.216 203.009 150.693H203.099C203.308 150.227 203.639 149.856 204.094 149.58C204.548 149.299 205.09 149.159 205.719 149.159C206.51 149.159 207.156 149.407 207.656 149.903C208.16 150.4 208.412 151.148 208.412 152.148V158H206.713V152.307C206.713 151.716 206.552 151.288 206.23 151.023C205.908 150.758 205.524 150.625 205.077 150.625C204.524 150.625 204.094 150.795 203.787 151.136C203.48 151.473 203.327 151.907 203.327 152.438V158H201.634V152.199C201.634 151.725 201.486 151.345 201.19 151.057C200.895 150.769 200.51 150.625 200.037 150.625C199.715 150.625 199.418 150.71 199.145 150.881C198.876 151.047 198.658 151.28 198.491 151.58C198.329 151.879 198.247 152.225 198.247 152.619V158H196.548ZM210.689 161.273V149.273H212.348V150.688H212.49C212.589 150.506 212.731 150.295 212.916 150.057C213.102 149.818 213.359 149.61 213.689 149.432C214.018 149.25 214.454 149.159 214.996 149.159C215.7 149.159 216.329 149.337 216.882 149.693C217.435 150.049 217.869 150.562 218.183 151.233C218.501 151.903 218.661 152.71 218.661 153.653C218.661 154.597 218.503 155.405 218.189 156.08C217.875 156.75 217.443 157.267 216.893 157.631C216.344 157.991 215.717 158.17 215.013 158.17C214.482 158.17 214.049 158.081 213.712 157.903C213.378 157.725 213.117 157.517 212.928 157.278C212.738 157.04 212.592 156.828 212.49 156.642H212.388V161.273H210.689ZM212.354 153.636C212.354 154.25 212.443 154.788 212.621 155.25C212.799 155.712 213.056 156.074 213.393 156.335C213.731 156.593 214.143 156.722 214.632 156.722C215.14 156.722 215.564 156.587 215.905 156.318C216.246 156.045 216.503 155.676 216.678 155.21C216.856 154.744 216.945 154.22 216.945 153.636C216.945 153.061 216.857 152.544 216.683 152.085C216.513 151.627 216.255 151.265 215.911 151C215.57 150.735 215.143 150.602 214.632 150.602C214.14 150.602 213.723 150.729 213.382 150.983C213.045 151.237 212.789 151.591 212.615 152.045C212.441 152.5 212.354 153.03 212.354 153.636ZM224.24 158.176C223.422 158.176 222.708 157.989 222.098 157.614C221.488 157.239 221.015 156.714 220.678 156.04C220.34 155.366 220.172 154.578 220.172 153.676C220.172 152.771 220.34 151.979 220.678 151.301C221.015 150.623 221.488 150.097 222.098 149.722C222.708 149.347 223.422 149.159 224.24 149.159C225.058 149.159 225.772 149.347 226.382 149.722C226.992 150.097 227.465 150.623 227.803 151.301C228.14 151.979 228.308 152.771 228.308 153.676C228.308 154.578 228.14 155.366 227.803 156.04C227.465 156.714 226.992 157.239 226.382 157.614C225.772 157.989 225.058 158.176 224.24 158.176ZM224.246 156.75C224.776 156.75 225.215 156.61 225.564 156.33C225.912 156.049 226.17 155.676 226.337 155.21C226.507 154.744 226.592 154.231 226.592 153.67C226.592 153.114 226.507 152.602 226.337 152.136C226.17 151.667 225.912 151.29 225.564 151.006C225.215 150.722 224.776 150.58 224.246 150.58C223.712 150.58 223.268 150.722 222.916 151.006C222.568 151.29 222.308 151.667 222.138 152.136C221.971 152.602 221.888 153.114 221.888 153.67C221.888 154.231 221.971 154.744 222.138 155.21C222.308 155.676 222.568 156.049 222.916 156.33C223.268 156.61 223.712 156.75 224.246 156.75ZM231.903 152.818V158H230.205V149.273H231.835V150.693H231.943C232.144 150.231 232.458 149.86 232.886 149.58C233.318 149.299 233.862 149.159 234.517 149.159C235.112 149.159 235.633 149.284 236.08 149.534C236.527 149.78 236.873 150.148 237.119 150.636C237.366 151.125 237.489 151.729 237.489 152.449V158H235.79V152.653C235.79 152.021 235.625 151.527 235.295 151.17C234.966 150.811 234.513 150.631 233.938 150.631C233.544 150.631 233.193 150.716 232.886 150.886C232.583 151.057 232.343 151.307 232.165 151.636C231.991 151.962 231.903 152.356 231.903 152.818ZM243.528 158.176C242.669 158.176 241.928 157.992 241.307 157.625C240.689 157.254 240.212 156.733 239.875 156.062C239.542 155.388 239.375 154.598 239.375 153.693C239.375 152.799 239.542 152.011 239.875 151.33C240.212 150.648 240.682 150.116 241.284 149.733C241.89 149.35 242.598 149.159 243.409 149.159C243.902 149.159 244.379 149.241 244.841 149.403C245.303 149.566 245.718 149.822 246.085 150.17C246.453 150.519 246.742 150.972 246.955 151.528C247.167 152.081 247.273 152.754 247.273 153.545V154.148H240.335V152.875H245.608C245.608 152.428 245.517 152.032 245.335 151.688C245.153 151.339 244.898 151.064 244.568 150.864C244.242 150.663 243.86 150.562 243.42 150.562C242.943 150.562 242.527 150.68 242.17 150.915C241.818 151.146 241.545 151.449 241.352 151.824C241.163 152.195 241.068 152.598 241.068 153.034V154.028C241.068 154.612 241.17 155.108 241.375 155.517C241.583 155.926 241.873 156.239 242.244 156.455C242.616 156.667 243.049 156.773 243.545 156.773C243.867 156.773 244.161 156.727 244.426 156.636C244.691 156.542 244.92 156.402 245.114 156.216C245.307 156.03 245.455 155.801 245.557 155.528L247.165 155.818C247.036 156.292 246.805 156.706 246.472 157.062C246.142 157.415 245.727 157.689 245.227 157.886C244.731 158.08 244.165 158.176 243.528 158.176ZM250.857 152.818V158H249.158V149.273H250.788V150.693H250.896C251.097 150.231 251.411 149.86 251.839 149.58C252.271 149.299 252.815 149.159 253.47 149.159C254.065 149.159 254.586 149.284 255.033 149.534C255.48 149.78 255.826 150.148 256.072 150.636C256.319 151.125 256.442 151.729 256.442 152.449V158H254.743V152.653C254.743 152.021 254.578 151.527 254.249 151.17C253.919 150.811 253.466 150.631 252.891 150.631C252.497 150.631 252.146 150.716 251.839 150.886C251.536 151.057 251.296 151.307 251.118 151.636C250.944 151.962 250.857 152.356 250.857 152.818ZM262.794 149.273V150.636H258.027V149.273H262.794ZM259.305 147.182H261.004V155.438C261.004 155.767 261.054 156.015 261.152 156.182C261.25 156.345 261.377 156.456 261.533 156.517C261.692 156.574 261.864 156.602 262.05 156.602C262.186 156.602 262.305 156.593 262.408 156.574C262.51 156.555 262.589 156.54 262.646 156.528L262.953 157.932C262.855 157.97 262.714 158.008 262.533 158.045C262.351 158.087 262.124 158.11 261.851 158.114C261.404 158.121 260.987 158.042 260.601 157.875C260.214 157.708 259.902 157.451 259.663 157.102C259.425 156.754 259.305 156.316 259.305 155.79V147.182ZM271.072 151.403L269.533 151.676C269.468 151.479 269.366 151.292 269.226 151.114C269.089 150.936 268.904 150.79 268.669 150.676C268.434 150.562 268.141 150.506 267.788 150.506C267.307 150.506 266.906 150.614 266.584 150.83C266.262 151.042 266.101 151.316 266.101 151.653C266.101 151.945 266.209 152.18 266.425 152.358C266.641 152.536 266.989 152.682 267.47 152.795L268.857 153.114C269.66 153.299 270.258 153.585 270.652 153.972C271.046 154.358 271.243 154.86 271.243 155.477C271.243 156 271.091 156.466 270.788 156.875C270.489 157.28 270.071 157.598 269.533 157.83C268.999 158.061 268.379 158.176 267.675 158.176C266.697 158.176 265.9 157.968 265.283 157.551C264.665 157.131 264.286 156.534 264.146 155.761L265.788 155.511C265.891 155.939 266.101 156.263 266.419 156.483C266.737 156.699 267.152 156.807 267.663 156.807C268.22 156.807 268.665 156.691 268.999 156.46C269.332 156.225 269.499 155.939 269.499 155.602C269.499 155.33 269.396 155.1 269.192 154.915C268.991 154.729 268.682 154.589 268.266 154.494L266.788 154.17C265.974 153.985 265.372 153.689 264.982 153.284C264.595 152.879 264.402 152.366 264.402 151.744C264.402 151.229 264.546 150.778 264.834 150.392C265.122 150.006 265.519 149.705 266.027 149.489C266.535 149.269 267.116 149.159 267.771 149.159C268.714 149.159 269.457 149.364 269.999 149.773C270.54 150.178 270.898 150.722 271.072 151.403ZM175.278 182V170.364H177.034V180.489H182.307V182H175.278ZM184.173 182V173.273H185.872V182H184.173ZM185.031 171.926C184.736 171.926 184.482 171.828 184.27 171.631C184.062 171.43 183.957 171.191 183.957 170.915C183.957 170.634 184.062 170.396 184.27 170.199C184.482 169.998 184.736 169.898 185.031 169.898C185.327 169.898 185.579 169.998 185.787 170.199C185.999 170.396 186.105 170.634 186.105 170.915C186.105 171.191 185.999 171.43 185.787 171.631C185.579 171.828 185.327 171.926 185.031 171.926ZM188.294 182V170.364H189.993V174.688H190.095C190.194 174.506 190.336 174.295 190.521 174.057C190.707 173.818 190.964 173.61 191.294 173.432C191.624 173.25 192.059 173.159 192.601 173.159C193.305 173.159 193.934 173.337 194.487 173.693C195.04 174.049 195.474 174.562 195.788 175.233C196.107 175.903 196.266 176.71 196.266 177.653C196.266 178.597 196.108 179.405 195.794 180.08C195.48 180.75 195.048 181.267 194.499 181.631C193.949 181.991 193.322 182.17 192.618 182.17C192.088 182.17 191.654 182.081 191.317 181.903C190.983 181.725 190.722 181.517 190.533 181.278C190.343 181.04 190.197 180.828 190.095 180.642H189.953V182H188.294ZM189.959 177.636C189.959 178.25 190.048 178.788 190.226 179.25C190.404 179.712 190.661 180.074 190.999 180.335C191.336 180.593 191.749 180.722 192.237 180.722C192.745 180.722 193.169 180.587 193.51 180.318C193.851 180.045 194.108 179.676 194.283 179.21C194.461 178.744 194.55 178.22 194.55 177.636C194.55 177.061 194.463 176.544 194.288 176.085C194.118 175.627 193.86 175.265 193.516 175C193.175 174.735 192.749 174.602 192.237 174.602C191.745 174.602 191.328 174.729 190.987 174.983C190.65 175.237 190.394 175.591 190.22 176.045C190.046 176.5 189.959 177.03 189.959 177.636ZM198.173 182V173.273H199.815V174.659H199.906C200.065 174.189 200.346 173.82 200.747 173.551C201.152 173.278 201.611 173.142 202.122 173.142C202.228 173.142 202.353 173.146 202.497 173.153C202.645 173.161 202.76 173.17 202.844 173.182V174.807C202.776 174.788 202.654 174.767 202.48 174.744C202.306 174.718 202.132 174.705 201.957 174.705C201.556 174.705 201.198 174.79 200.884 174.96C200.573 175.127 200.327 175.36 200.145 175.659C199.963 175.955 199.872 176.292 199.872 176.67V182H198.173ZM206.776 182.193C206.223 182.193 205.723 182.091 205.276 181.886C204.829 181.678 204.474 181.377 204.213 180.983C203.955 180.589 203.827 180.106 203.827 179.534C203.827 179.042 203.921 178.636 204.111 178.318C204.3 178 204.556 177.748 204.878 177.562C205.2 177.377 205.56 177.237 205.957 177.142C206.355 177.047 206.76 176.975 207.173 176.926C207.696 176.866 208.12 176.816 208.446 176.778C208.772 176.737 209.009 176.67 209.156 176.58C209.304 176.489 209.378 176.341 209.378 176.136V176.097C209.378 175.6 209.238 175.216 208.957 174.943C208.681 174.67 208.268 174.534 207.719 174.534C207.147 174.534 206.696 174.661 206.366 174.915C206.041 175.165 205.815 175.443 205.69 175.75L204.094 175.386C204.283 174.856 204.56 174.428 204.923 174.102C205.291 173.773 205.713 173.534 206.19 173.386C206.668 173.235 207.17 173.159 207.696 173.159C208.045 173.159 208.414 173.201 208.804 173.284C209.198 173.364 209.565 173.511 209.906 173.727C210.251 173.943 210.533 174.252 210.753 174.653C210.973 175.051 211.082 175.568 211.082 176.205V182H209.423V180.807H209.355C209.245 181.027 209.08 181.242 208.861 181.455C208.641 181.667 208.359 181.843 208.014 181.983C207.67 182.123 207.257 182.193 206.776 182.193ZM207.145 180.83C207.615 180.83 208.016 180.737 208.349 180.551C208.687 180.366 208.942 180.123 209.116 179.824C209.295 179.521 209.384 179.197 209.384 178.852V177.727C209.323 177.788 209.205 177.845 209.031 177.898C208.861 177.947 208.666 177.991 208.446 178.028C208.226 178.062 208.012 178.095 207.804 178.125C207.596 178.152 207.421 178.174 207.281 178.193C206.952 178.235 206.651 178.305 206.378 178.403C206.109 178.502 205.893 178.644 205.73 178.83C205.571 179.011 205.491 179.254 205.491 179.557C205.491 179.977 205.647 180.295 205.957 180.511C206.268 180.723 206.664 180.83 207.145 180.83ZM213.345 182V173.273H214.987V174.659H215.078C215.237 174.189 215.518 173.82 215.919 173.551C216.324 173.278 216.783 173.142 217.294 173.142C217.4 173.142 217.525 173.146 217.669 173.153C217.817 173.161 217.932 173.17 218.016 173.182V174.807C217.947 174.788 217.826 174.767 217.652 174.744C217.478 174.718 217.304 174.705 217.129 174.705C216.728 174.705 216.37 174.79 216.055 174.96C215.745 175.127 215.499 175.36 215.317 175.659C215.135 175.955 215.044 176.292 215.044 176.67V182H213.345ZM220.825 185.273C220.571 185.273 220.34 185.252 220.132 185.21C219.924 185.172 219.768 185.131 219.666 185.085L220.075 183.693C220.386 183.777 220.662 183.813 220.905 183.801C221.147 183.79 221.361 183.699 221.547 183.528C221.736 183.358 221.903 183.08 222.047 182.693L222.257 182.114L219.064 173.273H220.882L223.092 180.045H223.183L225.393 173.273H227.217L223.621 183.165C223.454 183.619 223.242 184.004 222.984 184.318C222.727 184.636 222.42 184.875 222.064 185.034C221.708 185.193 221.295 185.273 220.825 185.273Z" fill="white"/>
<path d="M306 152C379.5 152 386 99 448 99" stroke="white" stroke-linecap="round" stroke-linejoin="round"/>
<path d="M306 152C379.5 152 386 204.5 448 204.5" stroke="white" stroke-linecap="round" stroke-linejoin="round"/>
<rect x="451" y="61" width="162" height="74" stroke="white"/>
<path d="M479.778 92.5V80.8636H486.994V82.375H481.534V85.9205H486.477V87.4261H481.534V92.5H479.778ZM489.017 92.5V83.7727H490.716V92.5H489.017ZM489.875 82.4261C489.58 82.4261 489.326 82.3277 489.114 82.1307C488.905 81.9299 488.801 81.6913 488.801 81.4148C488.801 81.1345 488.905 80.8958 489.114 80.6989C489.326 80.4981 489.58 80.3977 489.875 80.3977C490.17 80.3977 490.422 80.4981 490.631 80.6989C490.843 80.8958 490.949 81.1345 490.949 81.4148C490.949 81.6913 490.843 81.9299 490.631 82.1307C490.422 82.3277 490.17 82.4261 489.875 82.4261ZM494.7 87.3182V92.5H493.001V83.7727H494.632V85.1932H494.74C494.941 84.7311 495.255 84.3598 495.683 84.0795C496.115 83.7992 496.659 83.6591 497.314 83.6591C497.909 83.6591 498.429 83.7841 498.876 84.0341C499.323 84.2803 499.67 84.6477 499.916 85.1364C500.162 85.625 500.286 86.2292 500.286 86.9489V92.5H498.587V87.1534C498.587 86.5208 498.422 86.0265 498.092 85.6705C497.763 85.3106 497.31 85.1307 496.734 85.1307C496.34 85.1307 495.99 85.2159 495.683 85.3864C495.38 85.5568 495.14 85.8068 494.962 86.1364C494.787 86.4621 494.7 86.8561 494.7 87.3182ZM505.104 92.6932C504.551 92.6932 504.051 92.5909 503.604 92.3864C503.157 92.178 502.803 91.8769 502.541 91.483C502.284 91.089 502.155 90.6061 502.155 90.0341C502.155 89.5417 502.25 89.1364 502.439 88.8182C502.628 88.5 502.884 88.2481 503.206 88.0625C503.528 87.8769 503.888 87.7367 504.286 87.642C504.683 87.5473 505.089 87.4754 505.501 87.4261C506.024 87.3655 506.448 87.3163 506.774 87.2784C507.1 87.2367 507.337 87.1705 507.484 87.0795C507.632 86.9886 507.706 86.8409 507.706 86.6364V86.5966C507.706 86.1004 507.566 85.7159 507.286 85.4432C507.009 85.1705 506.596 85.0341 506.047 85.0341C505.475 85.0341 505.024 85.161 504.695 85.4148C504.369 85.6648 504.143 85.9432 504.018 86.25L502.422 85.8864C502.611 85.3561 502.888 84.928 503.251 84.6023C503.619 84.2727 504.041 84.0341 504.518 83.8864C504.996 83.7348 505.498 83.6591 506.024 83.6591C506.373 83.6591 506.742 83.7008 507.132 83.7841C507.526 83.8636 507.893 84.0114 508.234 84.2273C508.579 84.4432 508.861 84.7519 509.081 85.1534C509.301 85.5511 509.411 86.0682 509.411 86.7045V92.5H507.751V91.3068H507.683C507.573 91.5265 507.409 91.7424 507.189 91.9545C506.969 92.1667 506.687 92.3428 506.342 92.483C505.998 92.6231 505.585 92.6932 505.104 92.6932ZM505.473 91.3295C505.943 91.3295 506.344 91.2367 506.678 91.0511C507.015 90.8655 507.27 90.6231 507.445 90.3239C507.623 90.0208 507.712 89.697 507.712 89.3523V88.2273C507.651 88.2879 507.534 88.3447 507.359 88.3977C507.189 88.447 506.994 88.4905 506.774 88.5284C506.554 88.5625 506.34 88.5947 506.132 88.625C505.924 88.6515 505.75 88.6742 505.609 88.6932C505.28 88.7348 504.979 88.8049 504.706 88.9034C504.437 89.0019 504.221 89.1439 504.058 89.3295C503.899 89.5114 503.82 89.7538 503.82 90.0568C503.82 90.4773 503.975 90.7955 504.286 91.0114C504.596 91.2235 504.992 91.3295 505.473 91.3295ZM513.372 80.8636V92.5H511.673V80.8636H513.372ZM515.658 92.5V83.7727H517.357V92.5H515.658ZM516.516 82.4261C516.22 82.4261 515.966 82.3277 515.754 82.1307C515.546 81.9299 515.442 81.6913 515.442 81.4148C515.442 81.1345 515.546 80.8958 515.754 80.6989C515.966 80.4981 516.22 80.3977 516.516 80.3977C516.811 80.3977 517.063 80.4981 517.271 80.6989C517.483 80.8958 517.589 81.1345 517.589 81.4148C517.589 81.6913 517.483 81.9299 517.271 82.1307C517.063 82.3277 516.811 82.4261 516.516 82.4261ZM519.46 92.5V91.3352L524.188 85.3295V85.25H519.614V83.7727H526.307V85.0114L521.761 90.9432V91.0227H526.466V92.5H519.46ZM531.982 92.6761C531.122 92.6761 530.381 92.4924 529.76 92.125C529.143 91.7538 528.665 91.233 528.328 90.5625C527.995 89.8883 527.828 89.0985 527.828 88.1932C527.828 87.2992 527.995 86.5114 528.328 85.8295C528.665 85.1477 529.135 84.6155 529.737 84.233C530.343 83.8504 531.052 83.6591 531.862 83.6591C532.355 83.6591 532.832 83.7405 533.294 83.9034C533.756 84.0663 534.171 84.322 534.538 84.6705C534.906 85.0189 535.196 85.4716 535.408 86.0284C535.62 86.5814 535.726 87.2538 535.726 88.0455V88.6477H528.788V87.375H534.061C534.061 86.928 533.97 86.5322 533.788 86.1875C533.607 85.839 533.351 85.5644 533.021 85.3636C532.696 85.1629 532.313 85.0625 531.874 85.0625C531.396 85.0625 530.98 85.1799 530.624 85.4148C530.271 85.6458 529.999 85.9489 529.805 86.3239C529.616 86.6951 529.521 87.0985 529.521 87.5341V88.5284C529.521 89.1117 529.624 89.608 529.828 90.017C530.036 90.4261 530.326 90.7386 530.697 90.9545C531.069 91.1667 531.502 91.2727 531.999 91.2727C532.321 91.2727 532.614 91.2273 532.879 91.1364C533.144 91.0417 533.374 90.9015 533.567 90.7159C533.76 90.5303 533.908 90.3011 534.01 90.0284L535.618 90.3182C535.489 90.7917 535.258 91.2064 534.925 91.5625C534.595 91.9148 534.18 92.1894 533.68 92.3864C533.184 92.5795 532.618 92.6761 531.982 92.6761ZM540.878 92.6705C540.173 92.6705 539.545 92.4905 538.991 92.1307C538.442 91.767 538.01 91.25 537.696 90.5795C537.385 89.9053 537.23 89.0966 537.23 88.1534C537.23 87.2102 537.387 86.4034 537.702 85.733C538.02 85.0625 538.455 84.5492 539.009 84.1932C539.562 83.8371 540.188 83.6591 540.889 83.6591C541.431 83.6591 541.866 83.75 542.196 83.9318C542.529 84.1098 542.787 84.3182 542.969 84.5568C543.154 84.7955 543.298 85.0057 543.401 85.1875H543.503V80.8636H545.202V92.5H543.543V91.142H543.401C543.298 91.3277 543.151 91.5398 542.957 91.7784C542.768 92.017 542.507 92.2254 542.173 92.4034C541.84 92.5814 541.408 92.6705 540.878 92.6705ZM541.253 91.2216C541.741 91.2216 542.154 91.0928 542.491 90.8352C542.832 90.5739 543.09 90.2121 543.264 89.75C543.442 89.2879 543.531 88.75 543.531 88.1364C543.531 87.5303 543.444 87 543.27 86.5455C543.096 86.0909 542.84 85.7367 542.503 85.483C542.166 85.2292 541.749 85.1023 541.253 85.1023C540.741 85.1023 540.315 85.2348 539.974 85.5C539.634 85.7652 539.376 86.1269 539.202 86.5852C539.031 87.0436 538.946 87.5606 538.946 88.1364C538.946 88.7197 539.033 89.2443 539.207 89.7102C539.382 90.1761 539.639 90.5455 539.98 90.8182C540.325 91.0871 540.749 91.2216 541.253 91.2216ZM482.909 116.67C482.205 116.67 481.576 116.491 481.023 116.131C480.473 115.767 480.042 115.25 479.727 114.58C479.417 113.905 479.261 113.097 479.261 112.153C479.261 111.21 479.419 110.403 479.733 109.733C480.051 109.062 480.487 108.549 481.04 108.193C481.593 107.837 482.22 107.659 482.92 107.659C483.462 107.659 483.898 107.75 484.227 107.932C484.561 108.11 484.818 108.318 485 108.557C485.186 108.795 485.33 109.006 485.432 109.188H485.534V104.864H487.233V116.5H485.574V115.142H485.432C485.33 115.328 485.182 115.54 484.989 115.778C484.799 116.017 484.538 116.225 484.205 116.403C483.871 116.581 483.439 116.67 482.909 116.67ZM483.284 115.222C483.773 115.222 484.186 115.093 484.523 114.835C484.864 114.574 485.121 114.212 485.295 113.75C485.473 113.288 485.562 112.75 485.562 112.136C485.562 111.53 485.475 111 485.301 110.545C485.127 110.091 484.871 109.737 484.534 109.483C484.197 109.229 483.78 109.102 483.284 109.102C482.773 109.102 482.347 109.235 482.006 109.5C481.665 109.765 481.407 110.127 481.233 110.585C481.063 111.044 480.977 111.561 480.977 112.136C480.977 112.72 481.064 113.244 481.239 113.71C481.413 114.176 481.67 114.545 482.011 114.818C482.356 115.087 482.78 115.222 483.284 115.222ZM493.419 116.676C492.559 116.676 491.819 116.492 491.197 116.125C490.58 115.754 490.103 115.233 489.766 114.562C489.432 113.888 489.266 113.098 489.266 112.193C489.266 111.299 489.432 110.511 489.766 109.83C490.103 109.148 490.572 108.616 491.175 108.233C491.781 107.85 492.489 107.659 493.3 107.659C493.792 107.659 494.269 107.741 494.732 107.903C495.194 108.066 495.608 108.322 495.976 108.67C496.343 109.019 496.633 109.472 496.845 110.028C497.057 110.581 497.163 111.254 497.163 112.045V112.648H490.226V111.375H495.499C495.499 110.928 495.408 110.532 495.226 110.188C495.044 109.839 494.788 109.564 494.459 109.364C494.133 109.163 493.75 109.062 493.311 109.062C492.834 109.062 492.417 109.18 492.061 109.415C491.709 109.646 491.436 109.949 491.243 110.324C491.054 110.695 490.959 111.098 490.959 111.534V112.528C490.959 113.112 491.061 113.608 491.266 114.017C491.474 114.426 491.764 114.739 492.135 114.955C492.506 115.167 492.94 115.273 493.436 115.273C493.758 115.273 494.052 115.227 494.317 115.136C494.582 115.042 494.811 114.902 495.004 114.716C495.197 114.53 495.345 114.301 495.447 114.028L497.055 114.318C496.927 114.792 496.696 115.206 496.362 115.562C496.033 115.915 495.618 116.189 495.118 116.386C494.622 116.58 494.055 116.676 493.419 116.676ZM505.588 109.903L504.048 110.176C503.984 109.979 503.882 109.792 503.741 109.614C503.605 109.436 503.42 109.29 503.185 109.176C502.95 109.062 502.656 109.006 502.304 109.006C501.823 109.006 501.421 109.114 501.099 109.33C500.777 109.542 500.616 109.816 500.616 110.153C500.616 110.445 500.724 110.68 500.94 110.858C501.156 111.036 501.505 111.182 501.986 111.295L503.372 111.614C504.175 111.799 504.774 112.085 505.168 112.472C505.562 112.858 505.759 113.36 505.759 113.977C505.759 114.5 505.607 114.966 505.304 115.375C505.005 115.78 504.586 116.098 504.048 116.33C503.514 116.561 502.895 116.676 502.19 116.676C501.213 116.676 500.416 116.468 499.798 116.051C499.181 115.631 498.802 115.034 498.662 114.261L500.304 114.011C500.406 114.439 500.616 114.763 500.935 114.983C501.253 115.199 501.668 115.307 502.179 115.307C502.736 115.307 503.181 115.191 503.514 114.96C503.848 114.725 504.014 114.439 504.014 114.102C504.014 113.83 503.912 113.6 503.707 113.415C503.507 113.229 503.198 113.089 502.781 112.994L501.304 112.67C500.49 112.485 499.887 112.189 499.497 111.784C499.111 111.379 498.918 110.866 498.918 110.244C498.918 109.729 499.062 109.278 499.349 108.892C499.637 108.506 500.035 108.205 500.543 107.989C501.05 107.769 501.632 107.659 502.287 107.659C503.23 107.659 503.973 107.864 504.514 108.273C505.056 108.678 505.414 109.222 505.588 109.903ZM507.626 116.5V107.773H509.325V116.5H507.626ZM508.484 106.426C508.189 106.426 507.935 106.328 507.723 106.131C507.515 105.93 507.411 105.691 507.411 105.415C507.411 105.134 507.515 104.896 507.723 104.699C507.935 104.498 508.189 104.398 508.484 104.398C508.78 104.398 509.032 104.498 509.24 104.699C509.452 104.896 509.558 105.134 509.558 105.415C509.558 105.691 509.452 105.93 509.24 106.131C509.032 106.328 508.78 106.426 508.484 106.426ZM515.27 119.955C514.577 119.955 513.98 119.864 513.48 119.682C512.984 119.5 512.579 119.259 512.264 118.96C511.95 118.661 511.715 118.333 511.56 117.977L513.02 117.375C513.122 117.542 513.259 117.718 513.429 117.903C513.603 118.093 513.838 118.254 514.134 118.386C514.433 118.519 514.817 118.585 515.287 118.585C515.931 118.585 516.463 118.428 516.884 118.114C517.304 117.803 517.514 117.307 517.514 116.625V114.909H517.406C517.304 115.095 517.156 115.301 516.963 115.528C516.774 115.756 516.512 115.953 516.179 116.119C515.846 116.286 515.412 116.369 514.878 116.369C514.188 116.369 513.567 116.208 513.014 115.886C512.465 115.561 512.029 115.081 511.707 114.449C511.389 113.812 511.23 113.03 511.23 112.102C511.23 111.174 511.387 110.379 511.702 109.716C512.02 109.053 512.455 108.545 513.009 108.193C513.562 107.837 514.188 107.659 514.889 107.659C515.431 107.659 515.868 107.75 516.202 107.932C516.535 108.11 516.795 108.318 516.98 108.557C517.17 108.795 517.315 109.006 517.418 109.188H517.543V107.773H519.207V116.693C519.207 117.443 519.033 118.059 518.685 118.54C518.336 119.021 517.865 119.377 517.27 119.608C516.679 119.839 516.012 119.955 515.27 119.955ZM515.253 114.96C515.741 114.96 516.154 114.847 516.491 114.619C516.832 114.388 517.09 114.059 517.264 113.631C517.442 113.199 517.531 112.682 517.531 112.08C517.531 111.492 517.444 110.975 517.27 110.528C517.096 110.081 516.84 109.733 516.503 109.483C516.166 109.229 515.749 109.102 515.253 109.102C514.741 109.102 514.315 109.235 513.974 109.5C513.634 109.761 513.376 110.117 513.202 110.568C513.031 111.019 512.946 111.523 512.946 112.08C512.946 112.652 513.033 113.153 513.207 113.585C513.382 114.017 513.639 114.354 513.98 114.597C514.325 114.839 514.749 114.96 515.253 114.96ZM523.185 111.318V116.5H521.486V107.773H523.116V109.193H523.224C523.425 108.731 523.74 108.36 524.168 108.08C524.599 107.799 525.143 107.659 525.798 107.659C526.393 107.659 526.914 107.784 527.361 108.034C527.808 108.28 528.154 108.648 528.401 109.136C528.647 109.625 528.77 110.229 528.77 110.949V116.5H527.071V111.153C527.071 110.521 526.906 110.027 526.577 109.67C526.247 109.311 525.795 109.131 525.219 109.131C524.825 109.131 524.474 109.216 524.168 109.386C523.865 109.557 523.624 109.807 523.446 110.136C523.272 110.462 523.185 110.856 523.185 111.318Z" fill="white"/>
<rect x="451" y="165" width="162" height="74" stroke="white"/>
<path d="M480.534 184.864V196.5H478.778V184.864H480.534ZM484.653 191.318V196.5H482.955V187.773H484.585V189.193H484.693C484.894 188.731 485.208 188.36 485.636 188.08C486.068 187.799 486.612 187.659 487.267 187.659C487.862 187.659 488.383 187.784 488.83 188.034C489.277 188.28 489.623 188.648 489.869 189.136C490.116 189.625 490.239 190.229 490.239 190.949V196.5H488.54V191.153C488.54 190.521 488.375 190.027 488.045 189.67C487.716 189.311 487.263 189.131 486.688 189.131C486.294 189.131 485.943 189.216 485.636 189.386C485.333 189.557 485.093 189.807 484.915 190.136C484.741 190.462 484.653 190.856 484.653 191.318ZM496.591 187.773V189.136H491.824V187.773H496.591ZM493.102 185.682H494.801V193.938C494.801 194.267 494.85 194.515 494.949 194.682C495.047 194.845 495.174 194.956 495.33 195.017C495.489 195.074 495.661 195.102 495.847 195.102C495.983 195.102 496.102 195.093 496.205 195.074C496.307 195.055 496.386 195.04 496.443 195.028L496.75 196.432C496.652 196.47 496.511 196.508 496.33 196.545C496.148 196.587 495.92 196.61 495.648 196.614C495.201 196.621 494.784 196.542 494.398 196.375C494.011 196.208 493.699 195.951 493.46 195.602C493.222 195.254 493.102 194.816 493.102 194.29V185.682ZM502.138 196.676C501.278 196.676 500.537 196.492 499.916 196.125C499.299 195.754 498.821 195.233 498.484 194.562C498.151 193.888 497.984 193.098 497.984 192.193C497.984 191.299 498.151 190.511 498.484 189.83C498.821 189.148 499.291 188.616 499.893 188.233C500.5 187.85 501.208 187.659 502.018 187.659C502.511 187.659 502.988 187.741 503.45 187.903C503.912 188.066 504.327 188.322 504.695 188.67C505.062 189.019 505.352 189.472 505.564 190.028C505.776 190.581 505.882 191.254 505.882 192.045V192.648H498.945V191.375H504.217C504.217 190.928 504.126 190.532 503.945 190.188C503.763 189.839 503.507 189.564 503.178 189.364C502.852 189.163 502.469 189.062 502.03 189.062C501.553 189.062 501.136 189.18 500.78 189.415C500.428 189.646 500.155 189.949 499.962 190.324C499.772 190.695 499.678 191.098 499.678 191.534V192.528C499.678 193.112 499.78 193.608 499.984 194.017C500.193 194.426 500.482 194.739 500.854 194.955C501.225 195.167 501.659 195.273 502.155 195.273C502.477 195.273 502.77 195.227 503.036 195.136C503.301 195.042 503.53 194.902 503.723 194.716C503.916 194.53 504.064 194.301 504.166 194.028L505.774 194.318C505.645 194.792 505.414 195.206 505.081 195.562C504.751 195.915 504.337 196.189 503.837 196.386C503.34 196.58 502.774 196.676 502.138 196.676ZM507.767 196.5V187.773H509.409V189.159H509.5C509.659 188.689 509.939 188.32 510.341 188.051C510.746 187.778 511.205 187.642 511.716 187.642C511.822 187.642 511.947 187.646 512.091 187.653C512.239 187.661 512.354 187.67 512.438 187.682V189.307C512.369 189.288 512.248 189.267 512.074 189.244C511.9 189.218 511.725 189.205 511.551 189.205C511.15 189.205 510.792 189.29 510.477 189.46C510.167 189.627 509.92 189.86 509.739 190.159C509.557 190.455 509.466 190.792 509.466 191.17V196.5H507.767ZM516.369 196.693C515.816 196.693 515.316 196.591 514.869 196.386C514.422 196.178 514.068 195.877 513.807 195.483C513.549 195.089 513.42 194.606 513.42 194.034C513.42 193.542 513.515 193.136 513.705 192.818C513.894 192.5 514.15 192.248 514.472 192.062C514.794 191.877 515.153 191.737 515.551 191.642C515.949 191.547 516.354 191.475 516.767 191.426C517.29 191.366 517.714 191.316 518.04 191.278C518.366 191.237 518.602 191.17 518.75 191.08C518.898 190.989 518.972 190.841 518.972 190.636V190.597C518.972 190.1 518.831 189.716 518.551 189.443C518.275 189.17 517.862 189.034 517.312 189.034C516.741 189.034 516.29 189.161 515.96 189.415C515.634 189.665 515.409 189.943 515.284 190.25L513.688 189.886C513.877 189.356 514.153 188.928 514.517 188.602C514.884 188.273 515.307 188.034 515.784 187.886C516.261 187.735 516.763 187.659 517.29 187.659C517.638 187.659 518.008 187.701 518.398 187.784C518.792 187.864 519.159 188.011 519.5 188.227C519.845 188.443 520.127 188.752 520.347 189.153C520.566 189.551 520.676 190.068 520.676 190.705V196.5H519.017V195.307H518.949C518.839 195.527 518.674 195.742 518.455 195.955C518.235 196.167 517.953 196.343 517.608 196.483C517.263 196.623 516.85 196.693 516.369 196.693ZM516.739 195.33C517.208 195.33 517.61 195.237 517.943 195.051C518.28 194.866 518.536 194.623 518.71 194.324C518.888 194.021 518.977 193.697 518.977 193.352V192.227C518.917 192.288 518.799 192.345 518.625 192.398C518.455 192.447 518.259 192.491 518.04 192.528C517.82 192.562 517.606 192.595 517.398 192.625C517.189 192.652 517.015 192.674 516.875 192.693C516.545 192.735 516.244 192.805 515.972 192.903C515.703 193.002 515.487 193.144 515.324 193.33C515.165 193.511 515.085 193.754 515.085 194.057C515.085 194.477 515.241 194.795 515.551 195.011C515.862 195.223 516.258 195.33 516.739 195.33ZM526.615 196.676C525.77 196.676 525.043 196.485 524.433 196.102C523.827 195.716 523.361 195.184 523.036 194.506C522.71 193.828 522.547 193.051 522.547 192.176C522.547 191.29 522.714 190.508 523.047 189.83C523.38 189.148 523.85 188.616 524.456 188.233C525.062 187.85 525.776 187.659 526.598 187.659C527.261 187.659 527.852 187.782 528.371 188.028C528.89 188.271 529.308 188.612 529.626 189.051C529.948 189.491 530.14 190.004 530.2 190.591H528.547C528.456 190.182 528.248 189.83 527.922 189.534C527.6 189.239 527.168 189.091 526.626 189.091C526.153 189.091 525.738 189.216 525.382 189.466C525.03 189.712 524.755 190.064 524.558 190.523C524.361 190.977 524.263 191.515 524.263 192.136C524.263 192.773 524.359 193.322 524.553 193.784C524.746 194.246 525.018 194.604 525.371 194.858C525.727 195.112 526.145 195.239 526.626 195.239C526.948 195.239 527.24 195.18 527.501 195.062C527.767 194.941 527.988 194.769 528.166 194.545C528.348 194.322 528.475 194.053 528.547 193.739H530.2C530.14 194.303 529.956 194.807 529.649 195.25C529.342 195.693 528.931 196.042 528.416 196.295C527.905 196.549 527.304 196.676 526.615 196.676ZM536.091 187.773V189.136H531.324V187.773H536.091ZM532.602 185.682H534.301V193.938C534.301 194.267 534.35 194.515 534.449 194.682C534.547 194.845 534.674 194.956 534.83 195.017C534.989 195.074 535.161 195.102 535.347 195.102C535.483 195.102 535.602 195.093 535.705 195.074C535.807 195.055 535.886 195.04 535.943 195.028L536.25 196.432C536.152 196.47 536.011 196.508 535.83 196.545C535.648 196.587 535.42 196.61 535.148 196.614C534.701 196.621 534.284 196.542 533.898 196.375C533.511 196.208 533.199 195.951 532.96 195.602C532.722 195.254 532.602 194.816 532.602 194.29V185.682ZM537.97 196.5V187.773H539.669V196.5H537.97ZM538.828 186.426C538.533 186.426 538.279 186.328 538.067 186.131C537.858 185.93 537.754 185.691 537.754 185.415C537.754 185.134 537.858 184.896 538.067 184.699C538.279 184.498 538.533 184.398 538.828 184.398C539.124 184.398 539.375 184.498 539.584 184.699C539.796 184.896 539.902 185.134 539.902 185.415C539.902 185.691 539.796 185.93 539.584 186.131C539.375 186.328 539.124 186.426 538.828 186.426ZM549.42 187.773L546.256 196.5H544.438L541.267 187.773H543.091L545.301 194.489H545.392L547.597 187.773H549.42ZM554.482 196.676C553.622 196.676 552.881 196.492 552.26 196.125C551.643 195.754 551.165 195.233 550.828 194.562C550.495 193.888 550.328 193.098 550.328 192.193C550.328 191.299 550.495 190.511 550.828 189.83C551.165 189.148 551.635 188.616 552.237 188.233C552.843 187.85 553.552 187.659 554.362 187.659C554.855 187.659 555.332 187.741 555.794 187.903C556.256 188.066 556.671 188.322 557.038 188.67C557.406 189.019 557.696 189.472 557.908 190.028C558.12 190.581 558.226 191.254 558.226 192.045V192.648H551.288V191.375H556.561C556.561 190.928 556.47 190.532 556.288 190.188C556.107 189.839 555.851 189.564 555.521 189.364C555.196 189.163 554.813 189.062 554.374 189.062C553.896 189.062 553.48 189.18 553.124 189.415C552.771 189.646 552.499 189.949 552.305 190.324C552.116 190.695 552.021 191.098 552.021 191.534V192.528C552.021 193.112 552.124 193.608 552.328 194.017C552.536 194.426 552.826 194.739 553.197 194.955C553.569 195.167 554.002 195.273 554.499 195.273C554.821 195.273 555.114 195.227 555.379 195.136C555.644 195.042 555.874 194.902 556.067 194.716C556.26 194.53 556.408 194.301 556.51 194.028L558.118 194.318C557.989 194.792 557.758 195.206 557.425 195.562C557.095 195.915 556.68 196.189 556.18 196.386C555.684 196.58 555.118 196.676 554.482 196.676ZM488.443 212.648H486.67C486.602 212.269 486.475 211.936 486.29 211.648C486.104 211.36 485.877 211.116 485.608 210.915C485.339 210.714 485.038 210.562 484.705 210.46C484.375 210.358 484.025 210.307 483.653 210.307C482.983 210.307 482.383 210.475 481.852 210.812C481.326 211.15 480.909 211.644 480.602 212.295C480.299 212.947 480.148 213.742 480.148 214.682C480.148 215.629 480.299 216.428 480.602 217.08C480.909 217.731 481.328 218.223 481.858 218.557C482.388 218.89 482.985 219.057 483.648 219.057C484.015 219.057 484.364 219.008 484.693 218.909C485.027 218.807 485.328 218.657 485.597 218.46C485.866 218.263 486.093 218.023 486.278 217.739C486.468 217.451 486.598 217.121 486.67 216.75L488.443 216.756C488.348 217.328 488.165 217.854 487.892 218.335C487.623 218.812 487.277 219.225 486.852 219.574C486.432 219.919 485.951 220.186 485.409 220.375C484.867 220.564 484.277 220.659 483.636 220.659C482.629 220.659 481.731 220.42 480.943 219.943C480.155 219.462 479.534 218.775 479.08 217.881C478.629 216.987 478.403 215.92 478.403 214.682C478.403 213.439 478.631 212.373 479.085 211.483C479.54 210.589 480.161 209.903 480.949 209.426C481.737 208.945 482.633 208.705 483.636 208.705C484.254 208.705 484.83 208.794 485.364 208.972C485.902 209.146 486.384 209.403 486.812 209.744C487.241 210.081 487.595 210.494 487.875 210.983C488.155 211.468 488.345 212.023 488.443 212.648ZM494.084 220.676C493.266 220.676 492.552 220.489 491.942 220.114C491.332 219.739 490.858 219.214 490.521 218.54C490.184 217.866 490.016 217.078 490.016 216.176C490.016 215.271 490.184 214.479 490.521 213.801C490.858 213.123 491.332 212.597 491.942 212.222C492.552 211.847 493.266 211.659 494.084 211.659C494.902 211.659 495.616 211.847 496.226 212.222C496.836 212.597 497.309 213.123 497.646 213.801C497.983 214.479 498.152 215.271 498.152 216.176C498.152 217.078 497.983 217.866 497.646 218.54C497.309 219.214 496.836 219.739 496.226 220.114C495.616 220.489 494.902 220.676 494.084 220.676ZM494.089 219.25C494.62 219.25 495.059 219.11 495.408 218.83C495.756 218.549 496.014 218.176 496.18 217.71C496.351 217.244 496.436 216.731 496.436 216.17C496.436 215.614 496.351 215.102 496.18 214.636C496.014 214.167 495.756 213.79 495.408 213.506C495.059 213.222 494.62 213.08 494.089 213.08C493.555 213.08 493.112 213.222 492.76 213.506C492.411 213.79 492.152 214.167 491.982 214.636C491.815 215.102 491.732 215.614 491.732 216.17C491.732 216.731 491.815 217.244 491.982 217.71C492.152 218.176 492.411 218.549 492.76 218.83C493.112 219.11 493.555 219.25 494.089 219.25ZM500.048 220.5V211.773H501.679V213.193H501.787C501.969 212.712 502.266 212.337 502.679 212.068C503.092 211.795 503.586 211.659 504.162 211.659C504.745 211.659 505.234 211.795 505.628 212.068C506.026 212.341 506.319 212.716 506.509 213.193H506.599C506.808 212.727 507.139 212.356 507.594 212.08C508.048 211.799 508.59 211.659 509.219 211.659C510.01 211.659 510.656 211.907 511.156 212.403C511.66 212.9 511.912 213.648 511.912 214.648V220.5H510.213V214.807C510.213 214.216 510.052 213.788 509.73 213.523C509.408 213.258 509.024 213.125 508.577 213.125C508.024 213.125 507.594 213.295 507.287 213.636C506.98 213.973 506.827 214.407 506.827 214.938V220.5H505.134V214.699C505.134 214.225 504.986 213.845 504.69 213.557C504.395 213.269 504.01 213.125 503.537 213.125C503.215 213.125 502.918 213.21 502.645 213.381C502.376 213.547 502.158 213.78 501.991 214.08C501.829 214.379 501.747 214.725 501.747 215.119V220.5H500.048ZM514.189 223.773V211.773H515.848V213.188H515.99C516.089 213.006 516.231 212.795 516.416 212.557C516.602 212.318 516.859 212.11 517.189 211.932C517.518 211.75 517.954 211.659 518.496 211.659C519.2 211.659 519.829 211.837 520.382 212.193C520.935 212.549 521.369 213.062 521.683 213.733C522.001 214.403 522.161 215.21 522.161 216.153C522.161 217.097 522.003 217.905 521.689 218.58C521.375 219.25 520.943 219.767 520.393 220.131C519.844 220.491 519.217 220.67 518.513 220.67C517.982 220.67 517.549 220.581 517.212 220.403C516.878 220.225 516.617 220.017 516.428 219.778C516.238 219.54 516.092 219.328 515.99 219.142H515.888V223.773H514.189ZM515.854 216.136C515.854 216.75 515.943 217.288 516.121 217.75C516.299 218.212 516.556 218.574 516.893 218.835C517.231 219.093 517.643 219.222 518.132 219.222C518.64 219.222 519.064 219.087 519.405 218.818C519.746 218.545 520.003 218.176 520.178 217.71C520.356 217.244 520.445 216.72 520.445 216.136C520.445 215.561 520.357 215.044 520.183 214.585C520.013 214.127 519.755 213.765 519.411 213.5C519.07 213.235 518.643 213.102 518.132 213.102C517.64 213.102 517.223 213.229 516.882 213.483C516.545 213.737 516.289 214.091 516.115 214.545C515.941 215 515.854 215.53 515.854 216.136ZM527.74 220.676C526.922 220.676 526.208 220.489 525.598 220.114C524.988 219.739 524.515 219.214 524.178 218.54C523.84 217.866 523.672 217.078 523.672 216.176C523.672 215.271 523.84 214.479 524.178 213.801C524.515 213.123 524.988 212.597 525.598 212.222C526.208 211.847 526.922 211.659 527.74 211.659C528.558 211.659 529.272 211.847 529.882 212.222C530.492 212.597 530.965 213.123 531.303 213.801C531.64 214.479 531.808 215.271 531.808 216.176C531.808 217.078 531.64 217.866 531.303 218.54C530.965 219.214 530.492 219.739 529.882 220.114C529.272 220.489 528.558 220.676 527.74 220.676ZM527.746 219.25C528.276 219.25 528.715 219.11 529.064 218.83C529.412 218.549 529.67 218.176 529.837 217.71C530.007 217.244 530.092 216.731 530.092 216.17C530.092 215.614 530.007 215.102 529.837 214.636C529.67 214.167 529.412 213.79 529.064 213.506C528.715 213.222 528.276 213.08 527.746 213.08C527.212 213.08 526.768 213.222 526.416 213.506C526.068 213.79 525.808 214.167 525.638 214.636C525.471 215.102 525.388 215.614 525.388 216.17C525.388 216.731 525.471 217.244 525.638 217.71C525.808 218.176 526.068 218.549 526.416 218.83C526.768 219.11 527.212 219.25 527.746 219.25ZM535.403 215.318V220.5H533.705V211.773H535.335V213.193H535.443C535.644 212.731 535.958 212.36 536.386 212.08C536.818 211.799 537.362 211.659 538.017 211.659C538.612 211.659 539.133 211.784 539.58 212.034C540.027 212.28 540.373 212.648 540.619 213.136C540.866 213.625 540.989 214.229 540.989 214.949V220.5H539.29V215.153C539.29 214.521 539.125 214.027 538.795 213.67C538.466 213.311 538.013 213.131 537.438 213.131C537.044 213.131 536.693 213.216 536.386 213.386C536.083 213.557 535.843 213.807 535.665 214.136C535.491 214.462 535.403 214.856 535.403 215.318ZM547.028 220.676C546.169 220.676 545.428 220.492 544.807 220.125C544.189 219.754 543.712 219.233 543.375 218.562C543.042 217.888 542.875 217.098 542.875 216.193C542.875 215.299 543.042 214.511 543.375 213.83C543.712 213.148 544.182 212.616 544.784 212.233C545.39 211.85 546.098 211.659 546.909 211.659C547.402 211.659 547.879 211.741 548.341 211.903C548.803 212.066 549.218 212.322 549.585 212.67C549.953 213.019 550.242 213.472 550.455 214.028C550.667 214.581 550.773 215.254 550.773 216.045V216.648H543.835V215.375H549.108C549.108 214.928 549.017 214.532 548.835 214.188C548.653 213.839 548.398 213.564 548.068 213.364C547.742 213.163 547.36 213.062 546.92 213.062C546.443 213.062 546.027 213.18 545.67 213.415C545.318 213.646 545.045 213.949 544.852 214.324C544.663 214.695 544.568 215.098 544.568 215.534V216.528C544.568 217.112 544.67 217.608 544.875 218.017C545.083 218.426 545.373 218.739 545.744 218.955C546.116 219.167 546.549 219.273 547.045 219.273C547.367 219.273 547.661 219.227 547.926 219.136C548.191 219.042 548.42 218.902 548.614 218.716C548.807 218.53 548.955 218.301 549.057 218.028L550.665 218.318C550.536 218.792 550.305 219.206 549.972 219.562C549.642 219.915 549.227 220.189 548.727 220.386C548.231 220.58 547.665 220.676 547.028 220.676ZM554.357 215.318V220.5H552.658V211.773H554.288V213.193H554.396C554.597 212.731 554.911 212.36 555.339 212.08C555.771 211.799 556.315 211.659 556.97 211.659C557.565 211.659 558.086 211.784 558.533 212.034C558.98 212.28 559.326 212.648 559.572 213.136C559.819 213.625 559.942 214.229 559.942 214.949V220.5H558.243V215.153C558.243 214.521 558.078 214.027 557.749 213.67C557.419 213.311 556.966 213.131 556.391 213.131C555.997 213.131 555.646 213.216 555.339 213.386C555.036 213.557 554.796 213.807 554.618 214.136C554.444 214.462 554.357 214.856 554.357 215.318ZM566.294 211.773V213.136H561.527V211.773H566.294ZM562.805 209.682H564.504V217.938C564.504 218.267 564.554 218.515 564.652 218.682C564.75 218.845 564.877 218.956 565.033 219.017C565.192 219.074 565.364 219.102 565.55 219.102C565.686 219.102 565.805 219.093 565.908 219.074C566.01 219.055 566.089 219.04 566.146 219.028L566.453 220.432C566.355 220.47 566.214 220.508 566.033 220.545C565.851 220.587 565.624 220.61 565.351 220.614C564.904 220.621 564.487 220.542 564.101 220.375C563.714 220.208 563.402 219.951 563.163 219.602C562.925 219.254 562.805 218.816 562.805 218.29V209.682ZM574.572 213.903L573.033 214.176C572.968 213.979 572.866 213.792 572.726 213.614C572.589 213.436 572.404 213.29 572.169 213.176C571.934 213.062 571.641 213.006 571.288 213.006C570.807 213.006 570.406 213.114 570.084 213.33C569.762 213.542 569.601 213.816 569.601 214.153C569.601 214.445 569.709 214.68 569.925 214.858C570.141 215.036 570.489 215.182 570.97 215.295L572.357 215.614C573.16 215.799 573.758 216.085 574.152 216.472C574.546 216.858 574.743 217.36 574.743 217.977C574.743 218.5 574.591 218.966 574.288 219.375C573.989 219.78 573.571 220.098 573.033 220.33C572.499 220.561 571.879 220.676 571.175 220.676C570.197 220.676 569.4 220.468 568.783 220.051C568.165 219.631 567.786 219.034 567.646 218.261L569.288 218.011C569.391 218.439 569.601 218.763 569.919 218.983C570.237 219.199 570.652 219.307 571.163 219.307C571.72 219.307 572.165 219.191 572.499 218.96C572.832 218.725 572.999 218.439 572.999 218.102C572.999 217.83 572.896 217.6 572.692 217.415C572.491 217.229 572.182 217.089 571.766 216.994L570.288 216.67C569.474 216.485 568.872 216.189 568.482 215.784C568.095 215.379 567.902 214.866 567.902 214.244C567.902 213.729 568.046 213.278 568.334 212.892C568.622 212.506 569.019 212.205 569.527 211.989C570.035 211.769 570.616 211.659 571.271 211.659C572.214 211.659 572.957 211.864 573.499 212.273C574.04 212.678 574.398 213.222 574.572 213.903Z" fill="white"/>
</svg>
