<svg width="720" height="240" viewBox="0 0 720 240" fill="none" xmlns="http://www.w3.org/2000/svg">
<g clip-path="url(#clip0_4645_31621)">
<rect width="720" height="240" fill="black"/>
<path d="M49.3536 78.8536C49.5488 78.6583 49.5488 78.3417 49.3536 78.1464L46.1716 74.9645C45.9763 74.7692 45.6597 74.7692 45.4645 74.9645C45.2692 75.1597 45.2692 75.4763 45.4645 75.6716L48.2929 78.5L45.4645 81.3284C45.2692 81.5237 45.2692 81.8403 45.4645 82.0355C45.6597 82.2308 45.9763 82.2308 46.1716 82.0355L49.3536 78.8536ZM25 79H49V78H25V79Z" fill="white"/>
<rect x="53.5" y="54.5" width="142" height="48" stroke="white"/>
<path d="M69.56 74.264C70.508 74.264 71.312 74.516 71.96 75.02C72.608 75.524 72.992 76.208 73.112 77.06H72.164C72.044 76.436 71.732 75.956 71.252 75.62C70.784 75.296 70.22 75.14 69.548 75.14C68.552 75.14 67.784 75.488 67.244 76.184C66.74 76.832 66.488 77.684 66.488 78.752C66.488 79.82 66.728 80.672 67.232 81.296C67.76 81.956 68.516 82.292 69.524 82.292C70.208 82.292 70.784 82.112 71.264 81.752C71.768 81.368 72.116 80.804 72.284 80.06H73.232C73.04 81.056 72.596 81.836 71.888 82.388C71.228 82.904 70.436 83.168 69.524 83.168C68.192 83.168 67.172 82.724 66.464 81.848C65.816 81.056 65.504 80.024 65.504 78.752C65.504 77.48 65.828 76.436 66.488 75.62C67.208 74.708 68.24 74.264 69.56 74.264ZM74.4745 76.796H75.4345V80.588C75.4345 81.176 75.5545 81.62 75.8065 81.908C76.0585 82.196 76.4665 82.352 77.0305 82.352C77.4385 82.352 77.8105 82.184 78.1345 81.872C78.4705 81.536 78.6745 81.104 78.7465 80.576V76.796H79.7065V83H78.7465V82.04C78.2425 82.784 77.5705 83.168 76.7305 83.168C75.2185 83.168 74.4745 82.316 74.4745 80.636V76.796ZM83.3853 76.628C84.9213 76.628 85.7613 77.264 85.9293 78.56H84.9933C84.9093 78.176 84.7533 77.888 84.5133 77.72C84.2493 77.528 83.8653 77.432 83.3733 77.432C82.9413 77.432 82.6053 77.504 82.3653 77.672C82.1013 77.828 81.9693 78.044 81.9693 78.32C81.9693 78.584 82.1373 78.812 82.4973 78.992C82.7253 79.1 83.1573 79.232 83.7813 79.4C84.5253 79.58 85.0533 79.772 85.3773 79.976C85.8693 80.288 86.1213 80.708 86.1213 81.248C86.1213 82.52 85.2453 83.168 83.4933 83.168C81.8613 83.168 80.9733 82.448 80.8293 81.02H81.7653C81.8373 81.512 82.0173 81.86 82.2813 82.076C82.5453 82.268 82.9413 82.364 83.4693 82.364C84.5733 82.364 85.1373 82.004 85.1373 81.308C85.1373 80.96 84.9333 80.696 84.5493 80.504C84.3453 80.408 83.9013 80.276 83.2293 80.108C82.4973 79.928 81.9813 79.748 81.6933 79.556C81.2133 79.268 80.9853 78.872 80.9853 78.344C80.9853 77.816 81.2133 77.408 81.6813 77.096C82.1133 76.784 82.6893 76.628 83.3853 76.628ZM88.9039 74.792V76.796H90.4399V77.6H88.9039V81.548C88.9039 81.776 88.9399 81.944 89.0359 82.04C89.1199 82.136 89.2759 82.196 89.4919 82.196H90.2839V83H89.3479C88.8439 83 88.4719 82.868 88.2559 82.604C88.0519 82.364 87.9559 82.016 87.9559 81.548V77.6H86.7079V76.796H87.9559V75.188L88.9039 74.792ZM94.2855 76.628C95.2095 76.628 95.9535 76.94 96.5055 77.588C97.0335 78.2 97.2975 78.968 97.2975 79.904C97.2975 80.828 97.0335 81.596 96.5175 82.196C95.9535 82.844 95.2095 83.168 94.2855 83.168C93.3495 83.168 92.6175 82.844 92.0655 82.196C91.5375 81.596 91.2735 80.828 91.2735 79.904C91.2735 78.968 91.5375 78.2 92.0655 77.588C92.6175 76.94 93.3495 76.628 94.2855 76.628ZM94.2855 77.432C93.6255 77.432 93.1095 77.684 92.7495 78.188C92.4135 78.644 92.2575 79.208 92.2575 79.904C92.2575 80.588 92.4135 81.152 92.7495 81.608C93.1095 82.112 93.6255 82.364 94.2855 82.364C94.9335 82.364 95.4495 82.112 95.8335 81.608C96.1575 81.152 96.3255 80.576 96.3255 79.904C96.3255 79.208 96.1575 78.644 95.8335 78.188C95.4495 77.684 94.9335 77.432 94.2855 77.432ZM101.257 76.628C102.205 76.628 102.853 77.012 103.201 77.804C103.441 77.396 103.729 77.096 104.065 76.916C104.365 76.724 104.725 76.628 105.157 76.628C105.805 76.628 106.321 76.832 106.729 77.24C107.113 77.66 107.317 78.224 107.317 78.932V83H106.357V79.088C106.357 78.536 106.237 78.128 106.009 77.864C105.769 77.576 105.385 77.444 104.857 77.444C104.449 77.444 104.101 77.588 103.837 77.9C103.549 78.212 103.417 78.608 103.417 79.112V83H102.457V79.088C102.457 77.984 101.977 77.444 101.029 77.444C100.585 77.444 100.225 77.612 99.9368 77.972C99.6488 78.308 99.5048 78.728 99.5048 79.22V83H98.5448V76.796H99.5048V77.624C99.9728 76.952 100.561 76.628 101.257 76.628ZM109.602 74.456C109.806 74.456 109.974 74.516 110.118 74.66C110.262 74.78 110.334 74.948 110.334 75.164C110.334 75.368 110.262 75.536 110.118 75.68C109.974 75.812 109.806 75.884 109.602 75.884C109.398 75.884 109.23 75.812 109.086 75.68C108.942 75.536 108.882 75.368 108.882 75.164C108.882 74.948 108.942 74.78 109.086 74.66C109.23 74.516 109.398 74.456 109.602 74.456ZM109.122 76.796H110.082V83H109.122V76.796ZM111.557 76.796H116.489V77.468L112.685 82.196H116.681V83H111.437V82.304L115.229 77.6H111.557V76.796ZM120.284 76.628C121.28 76.628 122.036 76.964 122.54 77.636C122.996 78.236 123.236 79.088 123.26 80.168H118.364C118.412 80.864 118.592 81.404 118.928 81.788C119.264 82.172 119.732 82.364 120.32 82.364C120.824 82.364 121.244 82.232 121.556 81.98C121.82 81.764 122.024 81.44 122.18 81.008H123.14C122.996 81.608 122.72 82.088 122.3 82.472C121.784 82.928 121.124 83.168 120.32 83.168C119.432 83.168 118.712 82.868 118.184 82.292C117.632 81.692 117.368 80.9 117.368 79.892C117.368 78.98 117.62 78.212 118.148 77.6C118.676 76.952 119.384 76.628 120.284 76.628ZM120.308 77.432C119.756 77.432 119.312 77.612 118.976 77.972C118.64 78.332 118.448 78.812 118.388 79.424H122.264C122.144 78.092 121.484 77.432 120.308 77.432ZM130.037 74.792V76.796H131.573V77.6H130.037V81.548C130.037 81.776 130.073 81.944 130.169 82.04C130.253 82.136 130.409 82.196 130.625 82.196H131.417V83H130.481C129.977 83 129.605 82.868 129.389 82.604C129.185 82.364 129.089 82.016 129.089 81.548V77.6H127.841V76.796H129.089V75.188L130.037 74.792ZM132.646 74.264H133.606V77.816C133.822 77.42 134.11 77.12 134.47 76.916C134.806 76.724 135.178 76.628 135.598 76.628C136.318 76.628 136.882 76.832 137.266 77.264C137.65 77.684 137.842 78.296 137.842 79.088V83H136.882V79.232C136.882 78.656 136.738 78.212 136.474 77.9C136.186 77.588 135.79 77.432 135.274 77.432C134.794 77.432 134.398 77.624 134.086 78.008C133.762 78.392 133.606 78.884 133.606 79.46V83H132.646V74.264ZM141.87 76.628C142.866 76.628 143.622 76.964 144.126 77.636C144.582 78.236 144.822 79.088 144.846 80.168H139.95C139.998 80.864 140.178 81.404 140.514 81.788C140.85 82.172 141.318 82.364 141.906 82.364C142.41 82.364 142.83 82.232 143.142 81.98C143.406 81.764 143.61 81.44 143.766 81.008H144.726C144.582 81.608 144.306 82.088 143.886 82.472C143.37 82.928 142.71 83.168 141.906 83.168C141.018 83.168 140.298 82.868 139.77 82.292C139.218 81.692 138.954 80.9 138.954 79.892C138.954 78.98 139.206 78.212 139.734 77.6C140.262 76.952 140.97 76.628 141.87 76.628ZM141.894 77.432C141.342 77.432 140.898 77.612 140.562 77.972C140.226 78.332 140.034 78.812 139.974 79.424H143.85C143.73 78.092 143.07 77.432 141.894 77.432ZM152.679 76.628C153.627 76.628 154.275 77.012 154.623 77.804C154.863 77.396 155.151 77.096 155.487 76.916C155.787 76.724 156.147 76.628 156.579 76.628C157.227 76.628 157.743 76.832 158.151 77.24C158.535 77.66 158.739 78.224 158.739 78.932V83H157.779V79.088C157.779 78.536 157.659 78.128 157.431 77.864C157.191 77.576 156.807 77.444 156.279 77.444C155.871 77.444 155.523 77.588 155.259 77.9C154.971 78.212 154.839 78.608 154.839 79.112V83H153.879V79.088C153.879 77.984 153.399 77.444 152.451 77.444C152.007 77.444 151.647 77.612 151.359 77.972C151.071 78.308 150.927 78.728 150.927 79.22V83H149.967V76.796H150.927V77.624C151.395 76.952 151.983 76.628 152.679 76.628ZM163.004 76.628C163.928 76.628 164.672 76.94 165.224 77.588C165.752 78.2 166.016 78.968 166.016 79.904C166.016 80.828 165.752 81.596 165.236 82.196C164.672 82.844 163.928 83.168 163.004 83.168C162.068 83.168 161.336 82.844 160.784 82.196C160.256 81.596 159.992 80.828 159.992 79.904C159.992 78.968 160.256 78.2 160.784 77.588C161.336 76.94 162.068 76.628 163.004 76.628ZM163.004 77.432C162.344 77.432 161.828 77.684 161.468 78.188C161.132 78.644 160.976 79.208 160.976 79.904C160.976 80.588 161.132 81.152 161.468 81.608C161.828 82.112 162.344 82.364 163.004 82.364C163.652 82.364 164.168 82.112 164.552 81.608C164.876 81.152 165.044 80.576 165.044 79.904C165.044 79.208 164.876 78.644 164.552 78.188C164.168 77.684 163.652 77.432 163.004 77.432ZM171.848 74.264H172.808V83H171.908V81.98C171.476 82.772 170.78 83.168 169.844 83.168C168.932 83.168 168.224 82.832 167.72 82.184C167.252 81.584 167.024 80.816 167.024 79.88C167.024 78.968 167.252 78.224 167.72 77.624C168.224 76.952 168.908 76.628 169.796 76.628C170.684 76.628 171.368 77.06 171.848 77.936V74.264ZM170 77.42C169.316 77.42 168.8 77.66 168.464 78.14C168.152 78.56 168.008 79.136 168.008 79.88C168.008 80.624 168.152 81.212 168.452 81.644C168.788 82.124 169.292 82.376 169.964 82.376C170.588 82.376 171.068 82.136 171.416 81.656C171.716 81.224 171.872 80.66 171.872 79.964V79.844C171.872 79.124 171.692 78.536 171.356 78.092C171.008 77.636 170.552 77.42 170 77.42ZM176.851 76.628C177.847 76.628 178.603 76.964 179.107 77.636C179.563 78.236 179.803 79.088 179.827 80.168H174.931C174.979 80.864 175.159 81.404 175.495 81.788C175.831 82.172 176.299 82.364 176.887 82.364C177.391 82.364 177.811 82.232 178.123 81.98C178.387 81.764 178.591 81.44 178.747 81.008H179.707C179.563 81.608 179.287 82.088 178.867 82.472C178.351 82.928 177.691 83.168 176.887 83.168C175.999 83.168 175.279 82.868 174.751 82.292C174.199 81.692 173.935 80.9 173.935 79.892C173.935 78.98 174.187 78.212 174.715 77.6C175.243 76.952 175.951 76.628 176.851 76.628ZM176.875 77.432C176.323 77.432 175.879 77.612 175.543 77.972C175.207 78.332 175.015 78.812 174.955 79.424H178.831C178.711 78.092 178.051 77.432 176.875 77.432ZM181.143 74.264H182.091V83H181.143V74.264Z" fill="white"/>
<path d="M224.354 78.8536C224.549 78.6583 224.549 78.3417 224.354 78.1464L221.172 74.9645C220.976 74.7692 220.66 74.7692 220.464 74.9645C220.269 75.1597 220.269 75.4763 220.464 75.6716L223.293 78.5L220.464 81.3284C220.269 81.5237 220.269 81.8403 220.464 82.0355C220.66 82.2308 220.976 82.2308 221.172 82.0355L224.354 78.8536ZM200 79H224V78H200V79Z" fill="white"/>
<rect x="228.5" y="54.5" width="120" height="48" stroke="white"/>
<path d="M240.864 74.432H246.936V75.284H241.848V78.152H246.648V79.004H241.848V82.148H247.14V83H240.864V74.432ZM247.701 76.796H248.757L250.533 81.8L252.309 76.796H253.365L251.013 83H250.041L247.701 76.796ZM256.874 76.628C257.762 76.628 258.41 76.856 258.842 77.324C259.202 77.732 259.394 78.296 259.394 79.016V83H258.494V81.956C258.254 82.292 257.93 82.568 257.546 82.784C257.09 83.036 256.574 83.168 255.998 83.168C255.374 83.168 254.882 83.012 254.51 82.7C254.126 82.376 253.934 81.956 253.934 81.452C253.934 80.744 254.21 80.216 254.786 79.856C255.29 79.52 256.01 79.34 256.946 79.328L258.434 79.304V78.98C258.434 77.936 257.894 77.42 256.814 77.42C256.358 77.42 255.986 77.504 255.698 77.696C255.374 77.888 255.17 78.188 255.074 78.584L254.126 78.512C254.258 77.864 254.582 77.372 255.086 77.06C255.542 76.772 256.13 76.628 256.874 76.628ZM258.434 80.024L257.006 80.048C255.614 80.072 254.918 80.528 254.918 81.428C254.918 81.716 255.026 81.944 255.266 82.136C255.506 82.316 255.818 82.412 256.202 82.412C256.79 82.412 257.306 82.22 257.762 81.836C258.206 81.464 258.434 81.032 258.434 80.552V80.024ZM261.069 74.264H262.017V83H261.069V74.264ZM263.701 76.796H264.661V80.588C264.661 81.176 264.781 81.62 265.033 81.908C265.285 82.196 265.693 82.352 266.257 82.352C266.665 82.352 267.037 82.184 267.361 81.872C267.697 81.536 267.901 81.104 267.973 80.576V76.796H268.933V83H267.973V82.04C267.469 82.784 266.797 83.168 265.957 83.168C264.445 83.168 263.701 82.316 263.701 80.636V76.796ZM273.116 76.628C274.004 76.628 274.652 76.856 275.084 77.324C275.444 77.732 275.636 78.296 275.636 79.016V83H274.736V81.956C274.496 82.292 274.172 82.568 273.788 82.784C273.332 83.036 272.816 83.168 272.24 83.168C271.616 83.168 271.124 83.012 270.752 82.7C270.368 82.376 270.176 81.956 270.176 81.452C270.176 80.744 270.452 80.216 271.028 79.856C271.532 79.52 272.252 79.34 273.188 79.328L274.676 79.304V78.98C274.676 77.936 274.136 77.42 273.056 77.42C272.6 77.42 272.228 77.504 271.94 77.696C271.616 77.888 271.412 78.188 271.316 78.584L270.368 78.512C270.5 77.864 270.824 77.372 271.328 77.06C271.784 76.772 272.372 76.628 273.116 76.628ZM274.676 80.024L273.248 80.048C271.856 80.072 271.16 80.528 271.16 81.428C271.16 81.716 271.268 81.944 271.508 82.136C271.748 82.316 272.06 82.412 272.444 82.412C273.032 82.412 273.548 82.22 274.004 81.836C274.448 81.464 274.676 81.032 274.676 80.552V80.024ZM278.775 74.792V76.796H280.311V77.6H278.775V81.548C278.775 81.776 278.811 81.944 278.907 82.04C278.991 82.136 279.147 82.196 279.363 82.196H280.155V83H279.219C278.715 83 278.343 82.868 278.127 82.604C277.923 82.364 277.827 82.016 277.827 81.548V77.6H276.579V76.796H277.827V75.188L278.775 74.792ZM283.941 76.628C284.937 76.628 285.693 76.964 286.197 77.636C286.653 78.236 286.893 79.088 286.917 80.168H282.021C282.069 80.864 282.249 81.404 282.585 81.788C282.921 82.172 283.389 82.364 283.977 82.364C284.481 82.364 284.901 82.232 285.213 81.98C285.477 81.764 285.681 81.44 285.837 81.008H286.797C286.653 81.608 286.377 82.088 285.957 82.472C285.441 82.928 284.781 83.168 283.977 83.168C283.089 83.168 282.369 82.868 281.841 82.292C281.289 81.692 281.025 80.9 281.025 79.892C281.025 78.98 281.277 78.212 281.805 77.6C282.333 76.952 283.041 76.628 283.941 76.628ZM283.965 77.432C283.413 77.432 282.969 77.612 282.633 77.972C282.297 78.332 282.105 78.812 282.045 79.424H285.921C285.801 78.092 285.141 77.432 283.965 77.432ZM293.693 74.792V76.796H295.229V77.6H293.693V81.548C293.693 81.776 293.729 81.944 293.825 82.04C293.909 82.136 294.065 82.196 294.281 82.196H295.073V83H294.137C293.633 83 293.261 82.868 293.045 82.604C292.841 82.364 292.745 82.016 292.745 81.548V77.6H291.497V76.796H292.745V75.188L293.693 74.792ZM296.303 74.264H297.263V77.816C297.479 77.42 297.767 77.12 298.127 76.916C298.463 76.724 298.835 76.628 299.255 76.628C299.975 76.628 300.539 76.832 300.923 77.264C301.307 77.684 301.499 78.296 301.499 79.088V83H300.539V79.232C300.539 78.656 300.395 78.212 300.131 77.9C299.843 77.588 299.447 77.432 298.931 77.432C298.451 77.432 298.055 77.624 297.743 78.008C297.419 78.392 297.263 78.884 297.263 79.46V83H296.303V74.264ZM305.527 76.628C306.523 76.628 307.279 76.964 307.783 77.636C308.239 78.236 308.479 79.088 308.503 80.168H303.607C303.655 80.864 303.835 81.404 304.171 81.788C304.507 82.172 304.975 82.364 305.563 82.364C306.067 82.364 306.487 82.232 306.799 81.98C307.063 81.764 307.267 81.44 307.423 81.008H308.383C308.239 81.608 307.963 82.088 307.543 82.472C307.027 82.928 306.367 83.168 305.563 83.168C304.675 83.168 303.955 82.868 303.427 82.292C302.875 81.692 302.611 80.9 302.611 79.892C302.611 78.98 302.863 78.212 303.391 77.6C303.919 76.952 304.627 76.628 305.527 76.628ZM305.551 77.432C304.999 77.432 304.555 77.612 304.219 77.972C303.883 78.332 303.691 78.812 303.631 79.424H307.507C307.387 78.092 306.727 77.432 305.551 77.432ZM316.107 74.432H319.239V83H318.291V75.26H316.227C315.963 75.26 315.759 75.32 315.639 75.464C315.519 75.596 315.459 75.812 315.459 76.112V76.796H317.211V77.6H315.459V83H314.499V77.6H312.939V76.796H314.499V76.088C314.499 75.56 314.631 75.164 314.895 74.876C315.171 74.576 315.579 74.432 316.107 74.432ZM323.696 76.628C324.62 76.628 325.364 76.94 325.916 77.588C326.444 78.2 326.708 78.968 326.708 79.904C326.708 80.828 326.444 81.596 325.928 82.196C325.364 82.844 324.62 83.168 323.696 83.168C322.76 83.168 322.028 82.844 321.476 82.196C320.948 81.596 320.684 80.828 320.684 79.904C320.684 78.968 320.948 78.2 321.476 77.588C322.028 76.94 322.76 76.628 323.696 76.628ZM323.696 77.432C323.036 77.432 322.52 77.684 322.16 78.188C321.824 78.644 321.668 79.208 321.668 79.904C321.668 80.588 321.824 81.152 322.16 81.608C322.52 82.112 323.036 82.364 323.696 82.364C324.344 82.364 324.86 82.112 325.244 81.608C325.568 81.152 325.736 80.576 325.736 79.904C325.736 79.208 325.568 78.644 325.244 78.188C324.86 77.684 324.344 77.432 323.696 77.432ZM327.271 76.796H328.327L329.851 81.824L331.291 76.796H332.191L333.631 81.824L335.155 76.796H336.211L334.099 83H333.187L331.747 78.008L330.283 83H329.383L327.271 76.796Z" fill="white"/>
<path d="M377.354 78.8536C377.549 78.6583 377.549 78.3417 377.354 78.1464L374.172 74.9645C373.976 74.7692 373.66 74.7692 373.464 74.9645C373.269 75.1597 373.269 75.4763 373.464 75.6716L376.293 78.5L373.464 81.3284C373.269 81.5237 373.269 81.8403 373.464 82.0355C373.66 82.2308 373.976 82.2308 374.172 82.0355L377.354 78.8536ZM353 79H377V78H353V79Z" fill="white"/>
<rect x="381.5" y="54.5" width="121" height="48" stroke="white"/>
<path d="M393.864 74.432H396.936C398.292 74.432 399.312 74.816 400.008 75.608C400.644 76.328 400.968 77.372 400.968 78.716C400.968 80.036 400.62 81.08 399.936 81.824C399.216 82.604 398.184 83 396.84 83H393.864V74.432ZM394.848 75.284V82.148H396.672C397.788 82.148 398.628 81.848 399.192 81.26C399.72 80.684 399.996 79.832 399.996 78.716C399.996 77.564 399.744 76.712 399.252 76.16C398.724 75.572 397.908 75.284 396.78 75.284H394.848ZM404.773 76.628C405.769 76.628 406.525 76.964 407.029 77.636C407.485 78.236 407.725 79.088 407.749 80.168H402.853C402.901 80.864 403.081 81.404 403.417 81.788C403.753 82.172 404.221 82.364 404.809 82.364C405.313 82.364 405.733 82.232 406.045 81.98C406.309 81.764 406.513 81.44 406.669 81.008H407.629C407.485 81.608 407.209 82.088 406.789 82.472C406.273 82.928 405.613 83.168 404.809 83.168C403.921 83.168 403.201 82.868 402.673 82.292C402.121 81.692 401.857 80.9 401.857 79.892C401.857 78.98 402.109 78.212 402.637 77.6C403.165 76.952 403.873 76.628 404.773 76.628ZM404.797 77.432C404.245 77.432 403.801 77.612 403.465 77.972C403.129 78.332 402.937 78.812 402.877 79.424H406.753C406.633 78.092 405.973 77.432 404.797 77.432ZM411.837 76.628C412.725 76.628 413.433 76.952 413.949 77.624C414.417 78.224 414.657 78.98 414.657 79.916C414.657 80.828 414.417 81.584 413.961 82.184C413.457 82.832 412.773 83.168 411.885 83.168C410.997 83.168 410.313 82.736 409.833 81.872V85.376H408.873V76.796H409.773V77.816C410.217 77.024 410.901 76.628 411.837 76.628ZM411.717 77.42C411.093 77.42 410.601 77.66 410.265 78.152C409.953 78.584 409.797 79.16 409.797 79.856V79.976C409.797 80.696 409.965 81.272 410.325 81.716C410.661 82.148 411.105 82.376 411.681 82.376C412.353 82.376 412.857 82.136 413.205 81.68C413.517 81.248 413.673 80.66 413.673 79.916C413.673 79.184 413.517 78.596 413.229 78.164C412.881 77.66 412.377 77.42 411.717 77.42ZM416.096 74.264H417.044V83H416.096V74.264ZM421.5 76.628C422.424 76.628 423.168 76.94 423.72 77.588C424.248 78.2 424.512 78.968 424.512 79.904C424.512 80.828 424.248 81.596 423.732 82.196C423.168 82.844 422.424 83.168 421.5 83.168C420.564 83.168 419.832 82.844 419.28 82.196C418.752 81.596 418.488 80.828 418.488 79.904C418.488 78.968 418.752 78.2 419.28 77.588C419.832 76.94 420.564 76.628 421.5 76.628ZM421.5 77.432C420.84 77.432 420.324 77.684 419.964 78.188C419.628 78.644 419.472 79.208 419.472 79.904C419.472 80.588 419.628 81.152 419.964 81.608C420.324 82.112 420.84 82.364 421.5 82.364C422.148 82.364 422.664 82.112 423.048 81.608C423.372 81.152 423.54 80.576 423.54 79.904C423.54 79.208 423.372 78.644 423.048 78.188C422.664 77.684 422.148 77.432 421.5 77.432ZM425.076 76.796H426.12L428.016 81.692L429.852 76.796H430.908L427.512 85.376H426.468L427.536 82.856L425.076 76.796ZM437.365 74.792V76.796H438.901V77.6H437.365V81.548C437.365 81.776 437.401 81.944 437.497 82.04C437.581 82.136 437.737 82.196 437.953 82.196H438.745V83H437.809C437.305 83 436.933 82.868 436.717 82.604C436.513 82.364 436.417 82.016 436.417 81.548V77.6H435.169V76.796H436.417V75.188L437.365 74.792ZM439.974 74.264H440.934V77.816C441.15 77.42 441.438 77.12 441.798 76.916C442.134 76.724 442.506 76.628 442.926 76.628C443.646 76.628 444.21 76.832 444.594 77.264C444.978 77.684 445.17 78.296 445.17 79.088V83H444.21V79.232C444.21 78.656 444.066 78.212 443.802 77.9C443.514 77.588 443.118 77.432 442.602 77.432C442.122 77.432 441.726 77.624 441.414 78.008C441.09 78.392 440.934 78.884 440.934 79.46V83H439.974V74.264ZM449.198 76.628C450.194 76.628 450.95 76.964 451.454 77.636C451.91 78.236 452.15 79.088 452.174 80.168H447.278C447.326 80.864 447.506 81.404 447.842 81.788C448.178 82.172 448.646 82.364 449.234 82.364C449.738 82.364 450.158 82.232 450.47 81.98C450.734 81.764 450.938 81.44 451.094 81.008H452.054C451.91 81.608 451.634 82.088 451.214 82.472C450.698 82.928 450.038 83.168 449.234 83.168C448.346 83.168 447.626 82.868 447.098 82.292C446.546 81.692 446.282 80.9 446.282 79.892C446.282 78.98 446.534 78.212 447.062 77.6C447.59 76.952 448.298 76.628 449.198 76.628ZM449.222 77.432C448.67 77.432 448.226 77.612 447.89 77.972C447.554 78.332 447.362 78.812 447.302 79.424H451.178C451.058 78.092 450.398 77.432 449.222 77.432ZM460.007 76.628C460.955 76.628 461.603 77.012 461.951 77.804C462.191 77.396 462.479 77.096 462.815 76.916C463.115 76.724 463.475 76.628 463.907 76.628C464.555 76.628 465.071 76.832 465.479 77.24C465.863 77.66 466.067 78.224 466.067 78.932V83H465.107V79.088C465.107 78.536 464.987 78.128 464.759 77.864C464.519 77.576 464.135 77.444 463.607 77.444C463.199 77.444 462.851 77.588 462.587 77.9C462.299 78.212 462.167 78.608 462.167 79.112V83H461.207V79.088C461.207 77.984 460.727 77.444 459.779 77.444C459.335 77.444 458.975 77.612 458.687 77.972C458.399 78.308 458.255 78.728 458.255 79.22V83H457.295V76.796H458.255V77.624C458.723 76.952 459.311 76.628 460.007 76.628ZM470.332 76.628C471.256 76.628 472 76.94 472.552 77.588C473.08 78.2 473.344 78.968 473.344 79.904C473.344 80.828 473.08 81.596 472.564 82.196C472 82.844 471.256 83.168 470.332 83.168C469.396 83.168 468.664 82.844 468.112 82.196C467.584 81.596 467.32 80.828 467.32 79.904C467.32 78.968 467.584 78.2 468.112 77.588C468.664 76.94 469.396 76.628 470.332 76.628ZM470.332 77.432C469.672 77.432 469.156 77.684 468.796 78.188C468.46 78.644 468.304 79.208 468.304 79.904C468.304 80.588 468.46 81.152 468.796 81.608C469.156 82.112 469.672 82.364 470.332 82.364C470.98 82.364 471.496 82.112 471.88 81.608C472.204 81.152 472.372 80.576 472.372 79.904C472.372 79.208 472.204 78.644 471.88 78.188C471.496 77.684 470.98 77.432 470.332 77.432ZM479.176 74.264H480.136V83H479.236V81.98C478.804 82.772 478.108 83.168 477.172 83.168C476.26 83.168 475.552 82.832 475.048 82.184C474.58 81.584 474.352 80.816 474.352 79.88C474.352 78.968 474.58 78.224 475.048 77.624C475.552 76.952 476.236 76.628 477.124 76.628C478.012 76.628 478.696 77.06 479.176 77.936V74.264ZM477.328 77.42C476.644 77.42 476.128 77.66 475.792 78.14C475.48 78.56 475.336 79.136 475.336 79.88C475.336 80.624 475.48 81.212 475.78 81.644C476.116 82.124 476.62 82.376 477.292 82.376C477.916 82.376 478.396 82.136 478.744 81.656C479.044 81.224 479.2 80.66 479.2 79.964V79.844C479.2 79.124 479.02 78.536 478.684 78.092C478.336 77.636 477.88 77.42 477.328 77.42ZM484.179 76.628C485.175 76.628 485.931 76.964 486.435 77.636C486.891 78.236 487.131 79.088 487.155 80.168H482.259C482.307 80.864 482.487 81.404 482.823 81.788C483.159 82.172 483.627 82.364 484.215 82.364C484.719 82.364 485.139 82.232 485.451 81.98C485.715 81.764 485.919 81.44 486.075 81.008H487.035C486.891 81.608 486.615 82.088 486.195 82.472C485.679 82.928 485.019 83.168 484.215 83.168C483.327 83.168 482.607 82.868 482.079 82.292C481.527 81.692 481.263 80.9 481.263 79.892C481.263 78.98 481.515 78.212 482.043 77.6C482.571 76.952 483.279 76.628 484.179 76.628ZM484.203 77.432C483.651 77.432 483.207 77.612 482.871 77.972C482.535 78.332 482.343 78.812 482.283 79.424H486.159C486.039 78.092 485.379 77.432 484.203 77.432ZM488.471 74.264H489.419V83H488.471V74.264Z" fill="white"/>
<path d="M531.354 78.8536C531.549 78.6583 531.549 78.3417 531.354 78.1464L528.172 74.9645C527.976 74.7692 527.66 74.7692 527.464 74.9645C527.269 75.1597 527.269 75.4763 527.464 75.6716L530.293 78.5L527.464 81.3284C527.269 81.5237 527.269 81.8403 527.464 82.0355C527.66 82.2308 527.976 82.2308 528.172 82.0355L531.354 78.8536ZM507 79H531V78H507V79Z" fill="white"/>
<rect x="535.5" y="54.5" width="135" height="48" stroke="white"/>
<path d="M547.864 74.432H549.088L552.28 81.74H552.316L555.496 74.432H556.72V83H555.736V76.184H555.7L552.736 83H551.848L548.884 76.184H548.848V83H547.864V74.432ZM561.098 76.628C562.022 76.628 562.766 76.94 563.318 77.588C563.846 78.2 564.11 78.968 564.11 79.904C564.11 80.828 563.846 81.596 563.33 82.196C562.766 82.844 562.022 83.168 561.098 83.168C560.162 83.168 559.43 82.844 558.878 82.196C558.35 81.596 558.086 80.828 558.086 79.904C558.086 78.968 558.35 78.2 558.878 77.588C559.43 76.94 560.162 76.628 561.098 76.628ZM561.098 77.432C560.438 77.432 559.922 77.684 559.562 78.188C559.226 78.644 559.07 79.208 559.07 79.904C559.07 80.588 559.226 81.152 559.562 81.608C559.922 82.112 560.438 82.364 561.098 82.364C561.746 82.364 562.262 82.112 562.646 81.608C562.97 81.152 563.138 80.576 563.138 79.904C563.138 79.208 562.97 78.644 562.646 78.188C562.262 77.684 561.746 77.432 561.098 77.432ZM568.261 76.628C569.797 76.628 570.577 77.48 570.577 79.184V83H569.617V79.256C569.617 78.044 569.065 77.444 567.985 77.444C567.553 77.444 567.181 77.6 566.869 77.912C566.533 78.248 566.353 78.692 566.317 79.256V83H565.357V76.796H566.317V77.708C566.533 77.36 566.809 77.096 567.145 76.916C567.481 76.724 567.853 76.628 568.261 76.628ZM572.852 74.456C573.056 74.456 573.224 74.516 573.368 74.66C573.512 74.78 573.584 74.948 573.584 75.164C573.584 75.368 573.512 75.536 573.368 75.68C573.224 75.812 573.056 75.884 572.852 75.884C572.648 75.884 572.48 75.812 572.336 75.68C572.192 75.536 572.132 75.368 572.132 75.164C572.132 74.948 572.192 74.78 572.336 74.66C572.48 74.516 572.648 74.456 572.852 74.456ZM572.372 76.796H573.332V83H572.372V76.796ZM576.787 74.792V76.796H578.323V77.6H576.787V81.548C576.787 81.776 576.823 81.944 576.919 82.04C577.003 82.136 577.159 82.196 577.375 82.196H578.167V83H577.231C576.727 83 576.355 82.868 576.139 82.604C575.935 82.364 575.839 82.016 575.839 81.548V77.6H574.591V76.796H575.839V75.188L576.787 74.792ZM582.168 76.628C583.092 76.628 583.836 76.94 584.388 77.588C584.916 78.2 585.18 78.968 585.18 79.904C585.18 80.828 584.916 81.596 584.4 82.196C583.836 82.844 583.092 83.168 582.168 83.168C581.232 83.168 580.5 82.844 579.948 82.196C579.42 81.596 579.156 80.828 579.156 79.904C579.156 78.968 579.42 78.2 579.948 77.588C580.5 76.94 581.232 76.628 582.168 76.628ZM582.168 77.432C581.508 77.432 580.992 77.684 580.632 78.188C580.296 78.644 580.14 79.208 580.14 79.904C580.14 80.588 580.296 81.152 580.632 81.608C580.992 82.112 581.508 82.364 582.168 82.364C582.816 82.364 583.332 82.112 583.716 81.608C584.04 81.152 584.208 80.576 584.208 79.904C584.208 79.208 584.04 78.644 583.716 78.188C583.332 77.684 582.816 77.432 582.168 77.432ZM589.152 76.628C589.488 76.628 589.776 76.676 590.004 76.772V77.732C589.692 77.636 589.38 77.6 589.08 77.6C588.6 77.6 588.192 77.804 587.868 78.236C587.532 78.644 587.376 79.136 587.376 79.712V83H586.428V76.796H587.376V77.876C587.544 77.516 587.76 77.228 588.024 77.024C588.348 76.76 588.72 76.628 589.152 76.628ZM599.391 74.264H600.351V83H599.451V81.98C599.019 82.772 598.323 83.168 597.387 83.168C596.475 83.168 595.767 82.832 595.263 82.184C594.795 81.584 594.567 80.816 594.567 79.88C594.567 78.968 594.795 78.224 595.263 77.624C595.767 76.952 596.451 76.628 597.339 76.628C598.227 76.628 598.911 77.06 599.391 77.936V74.264ZM597.543 77.42C596.859 77.42 596.343 77.66 596.007 78.14C595.695 78.56 595.551 79.136 595.551 79.88C595.551 80.624 595.695 81.212 595.995 81.644C596.331 82.124 596.835 82.376 597.507 82.376C598.131 82.376 598.611 82.136 598.959 81.656C599.259 81.224 599.415 80.66 599.415 79.964V79.844C599.415 79.124 599.235 78.536 598.899 78.092C598.551 77.636 598.095 77.42 597.543 77.42ZM604.394 76.628C605.39 76.628 606.146 76.964 606.65 77.636C607.106 78.236 607.346 79.088 607.37 80.168H602.474C602.522 80.864 602.702 81.404 603.038 81.788C603.374 82.172 603.842 82.364 604.43 82.364C604.934 82.364 605.354 82.232 605.666 81.98C605.93 81.764 606.134 81.44 606.29 81.008H607.25C607.106 81.608 606.83 82.088 606.41 82.472C605.894 82.928 605.234 83.168 604.43 83.168C603.542 83.168 602.822 82.868 602.294 82.292C601.742 81.692 601.478 80.9 601.478 79.892C601.478 78.98 601.73 78.212 602.258 77.6C602.786 76.952 603.494 76.628 604.394 76.628ZM604.418 77.432C603.866 77.432 603.422 77.612 603.086 77.972C602.75 78.332 602.558 78.812 602.498 79.424H606.374C606.254 78.092 605.594 77.432 604.418 77.432ZM611.458 76.628C612.346 76.628 613.054 76.952 613.57 77.624C614.038 78.224 614.278 78.98 614.278 79.916C614.278 80.828 614.038 81.584 613.582 82.184C613.078 82.832 612.394 83.168 611.506 83.168C610.618 83.168 609.934 82.736 609.454 81.872V85.376H608.494V76.796H609.394V77.816C609.838 77.024 610.522 76.628 611.458 76.628ZM611.338 77.42C610.714 77.42 610.222 77.66 609.886 78.152C609.574 78.584 609.418 79.16 609.418 79.856V79.976C609.418 80.696 609.586 81.272 609.946 81.716C610.282 82.148 610.726 82.376 611.302 82.376C611.974 82.376 612.478 82.136 612.826 81.68C613.138 81.248 613.294 80.66 613.294 79.916C613.294 79.184 613.138 78.596 612.85 78.164C612.502 77.66 611.998 77.42 611.338 77.42ZM615.717 74.264H616.665V83H615.717V74.264ZM621.121 76.628C622.045 76.628 622.789 76.94 623.341 77.588C623.869 78.2 624.133 78.968 624.133 79.904C624.133 80.828 623.869 81.596 623.353 82.196C622.789 82.844 622.045 83.168 621.121 83.168C620.185 83.168 619.453 82.844 618.901 82.196C618.373 81.596 618.109 80.828 618.109 79.904C618.109 78.968 618.373 78.2 618.901 77.588C619.453 76.94 620.185 76.628 621.121 76.628ZM621.121 77.432C620.461 77.432 619.945 77.684 619.585 78.188C619.249 78.644 619.093 79.208 619.093 79.904C619.093 80.588 619.249 81.152 619.585 81.608C619.945 82.112 620.461 82.364 621.121 82.364C621.769 82.364 622.285 82.112 622.669 81.608C622.993 81.152 623.161 80.576 623.161 79.904C623.161 79.208 622.993 78.644 622.669 78.188C622.285 77.684 621.769 77.432 621.121 77.432ZM624.697 76.796H625.741L627.637 81.692L629.473 76.796H630.529L627.133 85.376H626.089L627.157 82.856L624.697 76.796ZM634.046 76.628C634.994 76.628 635.642 77.012 635.99 77.804C636.23 77.396 636.518 77.096 636.854 76.916C637.154 76.724 637.514 76.628 637.946 76.628C638.594 76.628 639.11 76.832 639.518 77.24C639.902 77.66 640.106 78.224 640.106 78.932V83H639.146V79.088C639.146 78.536 639.026 78.128 638.798 77.864C638.558 77.576 638.174 77.444 637.646 77.444C637.238 77.444 636.89 77.588 636.626 77.9C636.338 78.212 636.206 78.608 636.206 79.112V83H635.246V79.088C635.246 77.984 634.766 77.444 633.818 77.444C633.374 77.444 633.014 77.612 632.726 77.972C632.438 78.308 632.294 78.728 632.294 79.22V83H631.334V76.796H632.294V77.624C632.762 76.952 633.35 76.628 634.046 76.628ZM644.155 76.628C645.151 76.628 645.907 76.964 646.411 77.636C646.867 78.236 647.107 79.088 647.131 80.168H642.235C642.283 80.864 642.463 81.404 642.799 81.788C643.135 82.172 643.603 82.364 644.191 82.364C644.695 82.364 645.115 82.232 645.427 81.98C645.691 81.764 645.895 81.44 646.051 81.008H647.011C646.867 81.608 646.591 82.088 646.171 82.472C645.655 82.928 644.995 83.168 644.191 83.168C643.303 83.168 642.583 82.868 642.055 82.292C641.503 81.692 641.239 80.9 641.239 79.892C641.239 78.98 641.491 78.212 642.019 77.6C642.547 76.952 643.255 76.628 644.155 76.628ZM644.179 77.432C643.627 77.432 643.183 77.612 642.847 77.972C642.511 78.332 642.319 78.812 642.259 79.424H646.135C646.015 78.092 645.355 77.432 644.179 77.432ZM651.16 76.628C652.696 76.628 653.476 77.48 653.476 79.184V83H652.516V79.256C652.516 78.044 651.964 77.444 650.884 77.444C650.452 77.444 650.08 77.6 649.768 77.912C649.432 78.248 649.252 78.692 649.216 79.256V83H648.256V76.796H649.216V77.708C649.432 77.36 649.708 77.096 650.044 76.916C650.38 76.724 650.752 76.628 651.16 76.628ZM656.615 74.792V76.796H658.151V77.6H656.615V81.548C656.615 81.776 656.651 81.944 656.747 82.04C656.831 82.136 656.987 82.196 657.203 82.196H657.995V83H657.059C656.555 83 656.183 82.868 655.967 82.604C655.763 82.364 655.667 82.016 655.667 81.548V77.6H654.419V76.796H655.667V75.188L656.615 74.792Z" fill="white"/>
<path d="M699.354 78.8536C699.549 78.6583 699.549 78.3417 699.354 78.1464L696.172 74.9645C695.976 74.7692 695.66 74.7692 695.464 74.9645C695.269 75.1597 695.269 75.4763 695.464 75.6716L698.293 78.5L695.464 81.3284C695.269 81.5237 695.269 81.8403 695.464 82.0355C695.66 82.2308 695.976 82.2308 696.172 82.0355L699.354 78.8536ZM675 79H699V78H675V79Z" fill="white"/>
<path d="M438.354 107.646C438.158 107.451 437.842 107.451 437.646 107.646L434.464 110.828C434.269 111.024 434.269 111.34 434.464 111.536C434.66 111.731 434.976 111.731 435.172 111.536L438 108.707L440.828 111.536C441.024 111.731 441.34 111.731 441.536 111.536C441.731 111.34 441.731 111.024 441.536 110.828L438.354 107.646ZM438.5 131L438.5 108L437.5 108L437.5 131L438.5 131Z" fill="white"/>
<rect x="156.5" y="136.5" width="160" height="48" fill="white"/>
<rect x="156.5" y="136.5" width="160" height="48" stroke="white"/>
<path d="M172.56 156.264C173.508 156.264 174.312 156.516 174.96 157.02C175.608 157.524 175.992 158.208 176.112 159.06H175.164C175.044 158.436 174.732 157.956 174.252 157.62C173.784 157.296 173.22 157.14 172.548 157.14C171.552 157.14 170.784 157.488 170.244 158.184C169.74 158.832 169.488 159.684 169.488 160.752C169.488 161.82 169.728 162.672 170.232 163.296C170.76 163.956 171.516 164.292 172.524 164.292C173.208 164.292 173.784 164.112 174.264 163.752C174.768 163.368 175.116 162.804 175.284 162.06H176.232C176.04 163.056 175.596 163.836 174.888 164.388C174.228 164.904 173.436 165.168 172.524 165.168C171.192 165.168 170.172 164.724 169.464 163.848C168.816 163.056 168.504 162.024 168.504 160.752C168.504 159.48 168.828 158.436 169.488 157.62C170.208 156.708 171.24 156.264 172.56 156.264ZM180.198 158.628C180.534 158.628 180.822 158.676 181.05 158.772V159.732C180.738 159.636 180.426 159.6 180.126 159.6C179.646 159.6 179.238 159.804 178.914 160.236C178.578 160.644 178.422 161.136 178.422 161.712V165H177.474V158.796H178.422V159.876C178.59 159.516 178.806 159.228 179.07 159.024C179.394 158.76 179.766 158.628 180.198 158.628ZM184.413 158.628C185.409 158.628 186.165 158.964 186.669 159.636C187.125 160.236 187.365 161.088 187.389 162.168H182.493C182.541 162.864 182.721 163.404 183.057 163.788C183.393 164.172 183.861 164.364 184.449 164.364C184.953 164.364 185.373 164.232 185.685 163.98C185.949 163.764 186.153 163.44 186.309 163.008H187.269C187.125 163.608 186.849 164.088 186.429 164.472C185.913 164.928 185.253 165.168 184.449 165.168C183.561 165.168 182.841 164.868 182.313 164.292C181.761 163.692 181.497 162.9 181.497 161.892C181.497 160.98 181.749 160.212 182.277 159.6C182.805 158.952 183.513 158.628 184.413 158.628ZM184.437 159.432C183.885 159.432 183.441 159.612 183.105 159.972C182.769 160.332 182.577 160.812 182.517 161.424H186.393C186.273 160.092 185.613 159.432 184.437 159.432ZM191.214 158.628C192.102 158.628 192.75 158.856 193.182 159.324C193.542 159.732 193.734 160.296 193.734 161.016V165H192.834V163.956C192.594 164.292 192.27 164.568 191.886 164.784C191.43 165.036 190.914 165.168 190.338 165.168C189.714 165.168 189.222 165.012 188.85 164.7C188.466 164.376 188.274 163.956 188.274 163.452C188.274 162.744 188.55 162.216 189.126 161.856C189.63 161.52 190.35 161.34 191.286 161.328L192.774 161.304V160.98C192.774 159.936 192.234 159.42 191.154 159.42C190.698 159.42 190.326 159.504 190.038 159.696C189.714 159.888 189.51 160.188 189.414 160.584L188.466 160.512C188.598 159.864 188.922 159.372 189.426 159.06C189.882 158.772 190.47 158.628 191.214 158.628ZM192.774 162.024L191.346 162.048C189.954 162.072 189.258 162.528 189.258 163.428C189.258 163.716 189.366 163.944 189.606 164.136C189.846 164.316 190.158 164.412 190.542 164.412C191.13 164.412 191.646 164.22 192.102 163.836C192.546 163.464 192.774 163.032 192.774 162.552V162.024ZM196.873 156.792V158.796H198.409V159.6H196.873V163.548C196.873 163.776 196.909 163.944 197.005 164.04C197.089 164.136 197.245 164.196 197.461 164.196H198.253V165H197.317C196.813 165 196.441 164.868 196.225 164.604C196.021 164.364 195.925 164.016 195.925 163.548V159.6H194.677V158.796H195.925V157.188L196.873 156.792ZM202.038 158.628C203.034 158.628 203.79 158.964 204.294 159.636C204.75 160.236 204.99 161.088 205.014 162.168H200.118C200.166 162.864 200.346 163.404 200.682 163.788C201.018 164.172 201.486 164.364 202.074 164.364C202.578 164.364 202.998 164.232 203.31 163.98C203.574 163.764 203.778 163.44 203.934 163.008H204.894C204.75 163.608 204.474 164.088 204.054 164.472C203.538 164.928 202.878 165.168 202.074 165.168C201.186 165.168 200.466 164.868 199.938 164.292C199.386 163.692 199.122 162.9 199.122 161.892C199.122 160.98 199.374 160.212 199.902 159.6C200.43 158.952 201.138 158.628 202.038 158.628ZM202.062 159.432C201.51 159.432 201.066 159.612 200.73 159.972C200.394 160.332 200.202 160.812 200.142 161.424H204.018C203.898 160.092 203.238 159.432 202.062 159.432ZM212.835 158.628C213.723 158.628 214.371 158.856 214.803 159.324C215.163 159.732 215.355 160.296 215.355 161.016V165H214.455V163.956C214.215 164.292 213.891 164.568 213.507 164.784C213.051 165.036 212.535 165.168 211.959 165.168C211.335 165.168 210.843 165.012 210.471 164.7C210.087 164.376 209.895 163.956 209.895 163.452C209.895 162.744 210.171 162.216 210.747 161.856C211.251 161.52 211.971 161.34 212.907 161.328L214.395 161.304V160.98C214.395 159.936 213.855 159.42 212.775 159.42C212.319 159.42 211.947 159.504 211.659 159.696C211.335 159.888 211.131 160.188 211.035 160.584L210.087 160.512C210.219 159.864 210.543 159.372 211.047 159.06C211.503 158.772 212.091 158.628 212.835 158.628ZM214.395 162.024L212.967 162.048C211.575 162.072 210.879 162.528 210.879 163.428C210.879 163.716 210.987 163.944 211.227 164.136C211.467 164.316 211.779 164.412 212.163 164.412C212.751 164.412 213.267 164.22 213.723 163.836C214.167 163.464 214.395 163.032 214.395 162.552V162.024ZM224.65 156.264C225.598 156.264 226.402 156.516 227.05 157.02C227.698 157.524 228.082 158.208 228.202 159.06H227.254C227.134 158.436 226.822 157.956 226.342 157.62C225.874 157.296 225.31 157.14 224.638 157.14C223.642 157.14 222.874 157.488 222.334 158.184C221.83 158.832 221.578 159.684 221.578 160.752C221.578 161.82 221.818 162.672 222.322 163.296C222.85 163.956 223.606 164.292 224.614 164.292C225.298 164.292 225.874 164.112 226.354 163.752C226.858 163.368 227.206 162.804 227.374 162.06H228.322C228.13 163.056 227.686 163.836 226.978 164.388C226.318 164.904 225.526 165.168 224.614 165.168C223.282 165.168 222.262 164.724 221.554 163.848C220.906 163.056 220.594 162.024 220.594 160.752C220.594 159.48 220.918 158.436 221.578 157.62C222.298 156.708 223.33 156.264 224.65 156.264ZM232.336 158.628C233.26 158.628 234.004 158.94 234.556 159.588C235.084 160.2 235.348 160.968 235.348 161.904C235.348 162.828 235.084 163.596 234.568 164.196C234.004 164.844 233.26 165.168 232.336 165.168C231.4 165.168 230.668 164.844 230.116 164.196C229.588 163.596 229.324 162.828 229.324 161.904C229.324 160.968 229.588 160.2 230.116 159.588C230.668 158.94 231.4 158.628 232.336 158.628ZM232.336 159.432C231.676 159.432 231.16 159.684 230.8 160.188C230.464 160.644 230.308 161.208 230.308 161.904C230.308 162.588 230.464 163.152 230.8 163.608C231.16 164.112 231.676 164.364 232.336 164.364C232.984 164.364 233.5 164.112 233.884 163.608C234.208 163.152 234.376 162.576 234.376 161.904C234.376 161.208 234.208 160.644 233.884 160.188C233.5 159.684 232.984 159.432 232.336 159.432ZM239.5 158.628C241.036 158.628 241.816 159.48 241.816 161.184V165H240.856V161.256C240.856 160.044 240.304 159.444 239.224 159.444C238.792 159.444 238.42 159.6 238.108 159.912C237.772 160.248 237.592 160.692 237.556 161.256V165H236.596V158.796H237.556V159.708C237.772 159.36 238.048 159.096 238.384 158.916C238.72 158.724 239.092 158.628 239.5 158.628ZM244.955 156.792V158.796H246.491V159.6H244.955V163.548C244.955 163.776 244.991 163.944 245.087 164.04C245.171 164.136 245.327 164.196 245.543 164.196H246.335V165H245.399C244.895 165 244.523 164.868 244.307 164.604C244.103 164.364 244.007 164.016 244.007 163.548V159.6H242.759V158.796H244.007V157.188L244.955 156.792ZM250.12 158.628C251.116 158.628 251.872 158.964 252.376 159.636C252.832 160.236 253.072 161.088 253.096 162.168H248.2C248.248 162.864 248.428 163.404 248.764 163.788C249.1 164.172 249.568 164.364 250.156 164.364C250.66 164.364 251.08 164.232 251.392 163.98C251.656 163.764 251.86 163.44 252.016 163.008H252.976C252.832 163.608 252.556 164.088 252.136 164.472C251.62 164.928 250.96 165.168 250.156 165.168C249.268 165.168 248.548 164.868 248.02 164.292C247.468 163.692 247.204 162.9 247.204 161.892C247.204 160.98 247.456 160.212 247.984 159.6C248.512 158.952 249.22 158.628 250.12 158.628ZM250.144 159.432C249.592 159.432 249.148 159.612 248.812 159.972C248.476 160.332 248.284 160.812 248.224 161.424H252.1C251.98 160.092 251.32 159.432 250.144 159.432ZM257.125 158.628C258.661 158.628 259.441 159.48 259.441 161.184V165H258.481V161.256C258.481 160.044 257.929 159.444 256.849 159.444C256.417 159.444 256.045 159.6 255.733 159.912C255.397 160.248 255.217 160.692 255.181 161.256V165H254.221V158.796H255.181V159.708C255.397 159.36 255.673 159.096 256.009 158.916C256.345 158.724 256.717 158.628 257.125 158.628ZM262.58 156.792V158.796H264.116V159.6H262.58V163.548C262.58 163.776 262.616 163.944 262.712 164.04C262.796 164.136 262.952 164.196 263.168 164.196H263.96V165H263.024C262.52 165 262.148 164.868 261.932 164.604C261.728 164.364 261.632 164.016 261.632 163.548V159.6H260.384V158.796H261.632V157.188L262.58 156.792ZM272.185 156.264C273.145 156.264 273.913 156.48 274.465 156.924C275.041 157.38 275.365 158.064 275.449 158.964H274.477C274.369 158.34 274.129 157.884 273.757 157.584C273.373 157.272 272.833 157.128 272.137 157.128C271.501 157.128 271.009 157.224 270.649 157.44C270.241 157.68 270.037 158.04 270.037 158.532C270.037 158.964 270.277 159.312 270.769 159.576C270.985 159.696 271.513 159.876 272.341 160.116C273.469 160.452 274.213 160.728 274.573 160.944C275.281 161.376 275.641 161.976 275.641 162.756C275.641 163.5 275.341 164.1 274.741 164.532C274.141 164.952 273.337 165.168 272.317 165.168C271.309 165.168 270.517 164.952 269.941 164.52C269.269 164.004 268.897 163.224 268.825 162.168H269.797C269.881 162.912 270.145 163.464 270.577 163.812C270.973 164.124 271.549 164.292 272.317 164.292C273.013 164.292 273.589 164.16 274.021 163.896C274.453 163.632 274.669 163.272 274.669 162.816C274.669 162.276 274.381 161.856 273.817 161.556C273.577 161.412 272.965 161.208 272.005 160.932C270.973 160.62 270.313 160.38 270.037 160.236C269.377 159.852 269.053 159.3 269.053 158.58C269.053 157.836 269.365 157.248 270.001 156.84C270.565 156.456 271.297 156.264 272.185 156.264ZM279.467 158.628C280.355 158.628 281.003 158.856 281.435 159.324C281.795 159.732 281.987 160.296 281.987 161.016V165H281.087V163.956C280.847 164.292 280.523 164.568 280.139 164.784C279.683 165.036 279.167 165.168 278.591 165.168C277.967 165.168 277.475 165.012 277.103 164.7C276.719 164.376 276.527 163.956 276.527 163.452C276.527 162.744 276.803 162.216 277.379 161.856C277.883 161.52 278.603 161.34 279.539 161.328L281.027 161.304V160.98C281.027 159.936 280.487 159.42 279.407 159.42C278.951 159.42 278.579 159.504 278.291 159.696C277.967 159.888 277.763 160.188 277.667 160.584L276.719 160.512C276.851 159.864 277.175 159.372 277.679 159.06C278.135 158.772 278.723 158.628 279.467 158.628ZM281.027 162.024L279.599 162.048C278.207 162.072 277.511 162.528 277.511 163.428C277.511 163.716 277.619 163.944 277.859 164.136C278.099 164.316 278.411 164.412 278.795 164.412C279.383 164.412 279.899 164.22 280.355 163.836C280.799 163.464 281.027 163.032 281.027 162.552V162.024ZM285.955 156.432H287.143V157.26H286.075C285.811 157.26 285.607 157.32 285.487 157.464C285.367 157.596 285.307 157.812 285.307 158.112V158.796H287.059V159.6H285.307V165H284.347V159.6H282.787V158.796H284.347V158.088C284.347 157.56 284.479 157.164 284.743 156.876C285.019 156.576 285.427 156.432 285.955 156.432ZM290.503 158.628C291.499 158.628 292.255 158.964 292.759 159.636C293.215 160.236 293.455 161.088 293.479 162.168H288.583C288.631 162.864 288.811 163.404 289.147 163.788C289.483 164.172 289.951 164.364 290.539 164.364C291.043 164.364 291.463 164.232 291.775 163.98C292.039 163.764 292.243 163.44 292.399 163.008H293.359C293.215 163.608 292.939 164.088 292.519 164.472C292.003 164.928 291.343 165.168 290.539 165.168C289.651 165.168 288.931 164.868 288.403 164.292C287.851 163.692 287.587 162.9 287.587 161.892C287.587 160.98 287.839 160.212 288.367 159.6C288.895 158.952 289.603 158.628 290.503 158.628ZM290.527 159.432C289.975 159.432 289.531 159.612 289.195 159.972C288.859 160.332 288.667 160.812 288.607 161.424H292.483C292.363 160.092 291.703 159.432 290.527 159.432ZM296.259 156.792V158.796H297.795V159.6H296.259V163.548C296.259 163.776 296.295 163.944 296.391 164.04C296.475 164.136 296.631 164.196 296.847 164.196H297.639V165H296.703C296.199 165 295.827 164.868 295.611 164.604C295.407 164.364 295.311 164.016 295.311 163.548V159.6H294.063V158.796H295.311V157.188L296.259 156.792ZM298.185 158.796H299.229L301.125 163.692L302.961 158.796H304.017L300.621 167.376H299.577L300.645 164.856L298.185 158.796Z" fill="black"/>
<path d="M344.354 160.854C344.549 160.658 344.549 160.342 344.354 160.146L341.172 156.964C340.976 156.769 340.66 156.769 340.464 156.964C340.269 157.16 340.269 157.476 340.464 157.672L343.293 160.5L340.464 163.328C340.269 163.524 340.269 163.84 340.464 164.036C340.66 164.231 340.976 164.231 341.172 164.036L344.354 160.854ZM320 161H344V160H320V161Z" fill="white"/>
<rect x="347.5" y="136.5" width="153" height="48" fill="white"/>
<rect x="347.5" y="136.5" width="153" height="48" stroke="white"/>
<path d="M362.372 156.432H363.512L366.884 165H365.816L364.904 162.6H360.968L360.056 165H359L362.372 156.432ZM361.28 161.772H364.592L362.972 157.488H362.924L361.28 161.772ZM370.595 158.628C371.483 158.628 372.191 158.952 372.707 159.624C373.175 160.224 373.415 160.98 373.415 161.916C373.415 162.828 373.175 163.584 372.719 164.184C372.215 164.832 371.531 165.168 370.643 165.168C369.755 165.168 369.071 164.736 368.591 163.872V167.376H367.631V158.796H368.531V159.816C368.975 159.024 369.659 158.628 370.595 158.628ZM370.475 159.42C369.851 159.42 369.359 159.66 369.023 160.152C368.711 160.584 368.555 161.16 368.555 161.856V161.976C368.555 162.696 368.723 163.272 369.083 163.716C369.419 164.148 369.863 164.376 370.439 164.376C371.111 164.376 371.615 164.136 371.963 163.68C372.275 163.248 372.431 162.66 372.431 161.916C372.431 161.184 372.275 160.596 371.987 160.164C371.639 159.66 371.135 159.42 370.475 159.42ZM377.626 158.628C378.514 158.628 379.222 158.952 379.738 159.624C380.206 160.224 380.446 160.98 380.446 161.916C380.446 162.828 380.206 163.584 379.75 164.184C379.246 164.832 378.562 165.168 377.674 165.168C376.786 165.168 376.102 164.736 375.622 163.872V167.376H374.662V158.796H375.562V159.816C376.006 159.024 376.69 158.628 377.626 158.628ZM377.506 159.42C376.882 159.42 376.39 159.66 376.054 160.152C375.742 160.584 375.586 161.16 375.586 161.856V161.976C375.586 162.696 375.754 163.272 376.114 163.716C376.45 164.148 376.894 164.376 377.47 164.376C378.142 164.376 378.646 164.136 378.994 163.68C379.306 163.248 379.462 162.66 379.462 161.916C379.462 161.184 379.306 160.596 379.018 160.164C378.67 159.66 378.166 159.42 377.506 159.42ZM381.885 156.264H382.833V165H381.885V156.264ZM383.833 158.796H384.877L386.773 163.692L388.609 158.796H389.665L386.269 167.376H385.225L386.293 164.856L383.833 158.796ZM397.167 158.628C398.055 158.628 398.703 158.856 399.135 159.324C399.495 159.732 399.687 160.296 399.687 161.016V165H398.787V163.956C398.547 164.292 398.223 164.568 397.839 164.784C397.383 165.036 396.867 165.168 396.291 165.168C395.667 165.168 395.175 165.012 394.803 164.7C394.419 164.376 394.227 163.956 394.227 163.452C394.227 162.744 394.503 162.216 395.079 161.856C395.583 161.52 396.303 161.34 397.239 161.328L398.727 161.304V160.98C398.727 159.936 398.187 159.42 397.107 159.42C396.651 159.42 396.279 159.504 395.991 159.696C395.667 159.888 395.463 160.188 395.367 160.584L394.419 160.512C394.551 159.864 394.875 159.372 395.379 159.06C395.835 158.772 396.423 158.628 397.167 158.628ZM398.727 162.024L397.299 162.048C395.907 162.072 395.211 162.528 395.211 163.428C395.211 163.716 395.319 163.944 395.559 164.136C395.799 164.316 396.111 164.412 396.495 164.412C397.083 164.412 397.599 164.22 398.055 163.836C398.499 163.464 398.727 163.032 398.727 162.552V162.024ZM408.982 156.264C409.93 156.264 410.734 156.516 411.382 157.02C412.03 157.524 412.414 158.208 412.534 159.06H411.586C411.466 158.436 411.154 157.956 410.674 157.62C410.206 157.296 409.642 157.14 408.97 157.14C407.974 157.14 407.206 157.488 406.666 158.184C406.162 158.832 405.91 159.684 405.91 160.752C405.91 161.82 406.15 162.672 406.654 163.296C407.182 163.956 407.938 164.292 408.946 164.292C409.63 164.292 410.206 164.112 410.686 163.752C411.19 163.368 411.538 162.804 411.706 162.06H412.654C412.462 163.056 412.018 163.836 411.31 164.388C410.65 164.904 409.858 165.168 408.946 165.168C407.614 165.168 406.594 164.724 405.886 163.848C405.238 163.056 404.926 162.024 404.926 160.752C404.926 159.48 405.25 158.436 405.91 157.62C406.63 156.708 407.662 156.264 408.982 156.264ZM416.668 158.628C417.592 158.628 418.336 158.94 418.888 159.588C419.416 160.2 419.68 160.968 419.68 161.904C419.68 162.828 419.416 163.596 418.9 164.196C418.336 164.844 417.592 165.168 416.668 165.168C415.732 165.168 415 164.844 414.448 164.196C413.92 163.596 413.656 162.828 413.656 161.904C413.656 160.968 413.92 160.2 414.448 159.588C415 158.94 415.732 158.628 416.668 158.628ZM416.668 159.432C416.008 159.432 415.492 159.684 415.132 160.188C414.796 160.644 414.64 161.208 414.64 161.904C414.64 162.588 414.796 163.152 415.132 163.608C415.492 164.112 416.008 164.364 416.668 164.364C417.316 164.364 417.832 164.112 418.216 163.608C418.54 163.152 418.708 162.576 418.708 161.904C418.708 161.208 418.54 160.644 418.216 160.188C417.832 159.684 417.316 159.432 416.668 159.432ZM423.832 158.628C425.368 158.628 426.148 159.48 426.148 161.184V165H425.188V161.256C425.188 160.044 424.636 159.444 423.556 159.444C423.124 159.444 422.752 159.6 422.44 159.912C422.104 160.248 421.924 160.692 421.888 161.256V165H420.928V158.796H421.888V159.708C422.104 159.36 422.38 159.096 422.716 158.916C423.052 158.724 423.424 158.628 423.832 158.628ZM429.287 156.792V158.796H430.823V159.6H429.287V163.548C429.287 163.776 429.323 163.944 429.419 164.04C429.503 164.136 429.659 164.196 429.875 164.196H430.667V165H429.731C429.227 165 428.855 164.868 428.639 164.604C428.435 164.364 428.339 164.016 428.339 163.548V159.6H427.091V158.796H428.339V157.188L429.287 156.792ZM434.452 158.628C435.448 158.628 436.204 158.964 436.708 159.636C437.164 160.236 437.404 161.088 437.428 162.168H432.532C432.58 162.864 432.76 163.404 433.096 163.788C433.432 164.172 433.9 164.364 434.488 164.364C434.992 164.364 435.412 164.232 435.724 163.98C435.988 163.764 436.192 163.44 436.348 163.008H437.308C437.164 163.608 436.888 164.088 436.468 164.472C435.952 164.928 435.292 165.168 434.488 165.168C433.6 165.168 432.88 164.868 432.352 164.292C431.8 163.692 431.536 162.9 431.536 161.892C431.536 160.98 431.788 160.212 432.316 159.6C432.844 158.952 433.552 158.628 434.452 158.628ZM434.476 159.432C433.924 159.432 433.48 159.612 433.144 159.972C432.808 160.332 432.616 160.812 432.556 161.424H436.432C436.312 160.092 435.652 159.432 434.476 159.432ZM441.457 158.628C442.993 158.628 443.773 159.48 443.773 161.184V165H442.813V161.256C442.813 160.044 442.261 159.444 441.181 159.444C440.749 159.444 440.377 159.6 440.065 159.912C439.729 160.248 439.549 160.692 439.513 161.256V165H438.553V158.796H439.513V159.708C439.729 159.36 440.005 159.096 440.341 158.916C440.677 158.724 441.049 158.628 441.457 158.628ZM446.912 156.792V158.796H448.448V159.6H446.912V163.548C446.912 163.776 446.948 163.944 447.044 164.04C447.128 164.136 447.284 164.196 447.5 164.196H448.292V165H447.356C446.852 165 446.48 164.868 446.264 164.604C446.06 164.364 445.964 164.016 445.964 163.548V159.6H444.716V158.796H445.964V157.188L446.912 156.792ZM456.517 156.264C457.477 156.264 458.245 156.48 458.797 156.924C459.373 157.38 459.697 158.064 459.781 158.964H458.809C458.701 158.34 458.461 157.884 458.089 157.584C457.705 157.272 457.165 157.128 456.469 157.128C455.833 157.128 455.341 157.224 454.981 157.44C454.573 157.68 454.369 158.04 454.369 158.532C454.369 158.964 454.609 159.312 455.101 159.576C455.317 159.696 455.845 159.876 456.673 160.116C457.801 160.452 458.545 160.728 458.905 160.944C459.613 161.376 459.973 161.976 459.973 162.756C459.973 163.5 459.673 164.1 459.073 164.532C458.473 164.952 457.669 165.168 456.649 165.168C455.641 165.168 454.849 164.952 454.273 164.52C453.601 164.004 453.229 163.224 453.157 162.168H454.129C454.213 162.912 454.477 163.464 454.909 163.812C455.305 164.124 455.881 164.292 456.649 164.292C457.345 164.292 457.921 164.16 458.353 163.896C458.785 163.632 459.001 163.272 459.001 162.816C459.001 162.276 458.713 161.856 458.149 161.556C457.909 161.412 457.297 161.208 456.337 160.932C455.305 160.62 454.645 160.38 454.369 160.236C453.709 159.852 453.385 159.3 453.385 158.58C453.385 157.836 453.697 157.248 454.333 156.84C454.897 156.456 455.629 156.264 456.517 156.264ZM463.799 158.628C464.687 158.628 465.335 158.856 465.767 159.324C466.127 159.732 466.319 160.296 466.319 161.016V165H465.419V163.956C465.179 164.292 464.855 164.568 464.471 164.784C464.015 165.036 463.499 165.168 462.923 165.168C462.299 165.168 461.807 165.012 461.435 164.7C461.051 164.376 460.859 163.956 460.859 163.452C460.859 162.744 461.135 162.216 461.711 161.856C462.215 161.52 462.935 161.34 463.871 161.328L465.359 161.304V160.98C465.359 159.936 464.819 159.42 463.739 159.42C463.283 159.42 462.911 159.504 462.623 159.696C462.299 159.888 462.095 160.188 461.999 160.584L461.051 160.512C461.183 159.864 461.507 159.372 462.011 159.06C462.467 158.772 463.055 158.628 463.799 158.628ZM465.359 162.024L463.931 162.048C462.539 162.072 461.843 162.528 461.843 163.428C461.843 163.716 461.951 163.944 462.191 164.136C462.431 164.316 462.743 164.412 463.127 164.412C463.715 164.412 464.231 164.22 464.687 163.836C465.131 163.464 465.359 163.032 465.359 162.552V162.024ZM470.287 156.432H471.475V157.26H470.407C470.143 157.26 469.939 157.32 469.819 157.464C469.699 157.596 469.639 157.812 469.639 158.112V158.796H471.391V159.6H469.639V165H468.679V159.6H467.119V158.796H468.679V158.088C468.679 157.56 468.811 157.164 469.075 156.876C469.351 156.576 469.759 156.432 470.287 156.432ZM474.835 158.628C475.831 158.628 476.587 158.964 477.091 159.636C477.547 160.236 477.787 161.088 477.811 162.168H472.915C472.963 162.864 473.143 163.404 473.479 163.788C473.815 164.172 474.283 164.364 474.871 164.364C475.375 164.364 475.795 164.232 476.107 163.98C476.371 163.764 476.575 163.44 476.731 163.008H477.691C477.547 163.608 477.271 164.088 476.851 164.472C476.335 164.928 475.675 165.168 474.871 165.168C473.983 165.168 473.263 164.868 472.735 164.292C472.183 163.692 471.919 162.9 471.919 161.892C471.919 160.98 472.171 160.212 472.699 159.6C473.227 158.952 473.935 158.628 474.835 158.628ZM474.859 159.432C474.307 159.432 473.863 159.612 473.527 159.972C473.191 160.332 472.999 160.812 472.939 161.424H476.815C476.695 160.092 476.035 159.432 474.859 159.432ZM480.591 156.792V158.796H482.127V159.6H480.591V163.548C480.591 163.776 480.627 163.944 480.723 164.04C480.807 164.136 480.963 164.196 481.179 164.196H481.971V165H481.035C480.531 165 480.159 164.868 479.943 164.604C479.739 164.364 479.643 164.016 479.643 163.548V159.6H478.395V158.796H479.643V157.188L480.591 156.792ZM482.517 158.796H483.561L485.457 163.692L487.293 158.796H488.349L484.953 167.376H483.909L484.977 164.856L482.517 158.796Z" fill="black"/>
<rect width="720" height="240" fill="url(#paint0_linear_4645_31621)"/>
</g>
<defs>
<linearGradient id="paint0_linear_4645_31621" x1="0" y1="120.284" x2="720" y2="120.284" gradientUnits="userSpaceOnUse">
<stop/>
<stop offset="0.25" stop-opacity="0"/>
<stop offset="0.5" stop-opacity="0"/>
<stop offset="0.75" stop-opacity="0"/>
<stop offset="1"/>
</linearGradient>
<clipPath id="clip0_4645_31621">
<rect width="720" height="240" fill="white"/>
</clipPath>
</defs>
</svg>
