<svg width="540" height="360" viewBox="0 0 540 360" fill="none" xmlns="http://www.w3.org/2000/svg">
<rect x="0.5" y="0.5" width="539" height="359" rx="3.5" fill="white"/>
<rect x="0.5" y="0.5" width="539" height="359" rx="3.5" stroke="#F0F0F0"/>
<path d="M23.4297 24.375H19.2422V27.7422H23.1016V29.3125H19.2422V34H17.3828V22.7969H23.4297V24.375ZM26.1406 24.3203C25.8438 24.3203 25.5885 24.224 25.375 24.0312C25.1667 23.8385 25.0625 23.5938 25.0625 23.2969C25.0625 23 25.1667 22.7526 25.375 22.5547C25.5885 22.3568 25.8438 22.2578 26.1406 22.2578C26.4479 22.2578 26.7083 22.3568 26.9219 22.5547C27.1354 22.7526 27.2422 23 27.2422 23.2969C27.2422 23.5781 27.1354 23.8203 26.9219 24.0234C26.7083 24.2214 26.4479 24.3203 26.1406 24.3203ZM27.0391 34H25.2266V26H27.0391V34ZM31.2344 34H29.4141V22.1562H31.2344V34ZM37.8203 33.9141C37.4661 34.0911 37 34.1797 36.4219 34.1797C34.8698 34.1797 34.0938 33.4349 34.0938 31.9453V27.4219H32.7578V26H34.0938V24.1484L35.9062 23.6328V26H37.8203V27.4219H35.9062V31.4219C35.9062 31.8958 35.9922 32.2344 36.1641 32.4375C36.3359 32.6406 36.6224 32.7422 37.0234 32.7422C37.3307 32.7422 37.5964 32.6536 37.8203 32.4766V33.9141ZM46.0625 30.4922H40.6094C40.6302 31.2318 40.8568 31.8021 41.2891 32.2031C41.7266 32.6042 42.3255 32.8047 43.0859 32.8047C43.9401 32.8047 44.724 32.5495 45.4375 32.0391V33.5C44.7083 33.9583 43.7448 34.1875 42.5469 34.1875C41.3698 34.1875 40.4453 33.8255 39.7734 33.1016C39.1068 32.3724 38.7734 31.349 38.7734 30.0312C38.7734 28.7865 39.1406 27.7734 39.875 26.9922C40.6146 26.2057 41.5312 25.8125 42.625 25.8125C43.7188 25.8125 44.5651 26.1641 45.1641 26.8672C45.763 27.5703 46.0625 28.5469 46.0625 29.7969V30.4922ZM44.3125 29.2109C44.3073 28.5599 44.1536 28.0547 43.8516 27.6953C43.5495 27.3307 43.1328 27.1484 42.6016 27.1484C42.0807 27.1484 41.638 27.3385 41.2734 27.7188C40.9141 28.099 40.6927 28.5964 40.6094 29.2109H44.3125ZM52.4297 27.7266C52.2109 27.5547 51.8958 27.4688 51.4844 27.4688C50.9479 27.4688 50.5 27.7109 50.1406 28.1953C49.7812 28.6797 49.6016 29.3385 49.6016 30.1719V34H47.7891V26H49.6016V27.6484H49.6328C49.8099 27.0859 50.0807 26.6484 50.4453 26.3359C50.8151 26.0182 51.2266 25.8594 51.6797 25.8594C52.0078 25.8594 52.2578 25.9089 52.4297 26.0078V27.7266ZM57.6172 33.75V32.0703C58.2943 32.5859 59.0417 32.8438 59.8594 32.8438C60.9531 32.8438 61.5 32.5208 61.5 31.875C61.5 31.6927 61.4531 31.5391 61.3594 31.4141C61.2656 31.2839 61.138 31.1693 60.9766 31.0703C60.8203 30.9714 60.6328 30.8828 60.4141 30.8047C60.2005 30.7266 59.9609 30.638 59.6953 30.5391C59.3672 30.4089 59.0703 30.2708 58.8047 30.125C58.5443 29.9792 58.3255 29.8151 58.1484 29.6328C57.9766 29.4453 57.8464 29.2344 57.7578 29C57.6693 28.7656 57.625 28.4922 57.625 28.1797C57.625 27.7943 57.7161 27.4557 57.8984 27.1641C58.0807 26.8672 58.3255 26.6198 58.6328 26.4219C58.9401 26.2188 59.2891 26.0677 59.6797 25.9688C60.0703 25.8646 60.474 25.8125 60.8906 25.8125C61.6302 25.8125 62.2917 25.9245 62.875 26.1484V27.7344C62.3125 27.349 61.6667 27.1562 60.9375 27.1562C60.7083 27.1562 60.5 27.1797 60.3125 27.2266C60.1302 27.2734 59.974 27.3385 59.8438 27.4219C59.7135 27.5052 59.612 27.6068 59.5391 27.7266C59.4661 27.8411 59.4297 27.9688 59.4297 28.1094C59.4297 28.2812 59.4661 28.4271 59.5391 28.5469C59.612 28.6667 59.7188 28.7734 59.8594 28.8672C60.0052 28.9557 60.1771 29.0391 60.375 29.1172C60.5781 29.1901 60.8099 29.2708 61.0703 29.3594C61.4141 29.5 61.7214 29.6432 61.9922 29.7891C62.2682 29.9349 62.5026 30.1016 62.6953 30.2891C62.888 30.4714 63.0365 30.6849 63.1406 30.9297C63.2448 31.1693 63.2969 31.4557 63.2969 31.7891C63.2969 32.1953 63.2031 32.5495 63.0156 32.8516C62.8281 33.1536 62.5781 33.4036 62.2656 33.6016C61.9531 33.7995 61.5911 33.9453 61.1797 34.0391C60.7734 34.138 60.3438 34.1875 59.8906 34.1875C59.0156 34.1875 58.2578 34.0417 57.6172 33.75ZM71.7969 30.4922H66.3438C66.3646 31.2318 66.5911 31.8021 67.0234 32.2031C67.4609 32.6042 68.0599 32.8047 68.8203 32.8047C69.6745 32.8047 70.4583 32.5495 71.1719 32.0391V33.5C70.4427 33.9583 69.4792 34.1875 68.2812 34.1875C67.1042 34.1875 66.1797 33.8255 65.5078 33.1016C64.8411 32.3724 64.5078 31.349 64.5078 30.0312C64.5078 28.7865 64.875 27.7734 65.6094 26.9922C66.349 26.2057 67.2656 25.8125 68.3594 25.8125C69.4531 25.8125 70.2995 26.1641 70.8984 26.8672C71.4974 27.5703 71.7969 28.5469 71.7969 29.7969V30.4922ZM70.0469 29.2109C70.0417 28.5599 69.888 28.0547 69.5859 27.6953C69.2839 27.3307 68.8672 27.1484 68.3359 27.1484C67.8151 27.1484 67.3724 27.3385 67.0078 27.7188C66.6484 28.099 66.4271 28.5964 66.3438 29.2109H70.0469ZM80.6484 34H78.8359V29.4922C78.8359 27.9974 78.3073 27.25 77.25 27.25C76.6979 27.25 76.2422 27.4583 75.8828 27.875C75.5234 28.2865 75.3438 28.8073 75.3438 29.4375V34H73.5234V26H75.3438V27.3281H75.375C75.974 26.3177 76.8385 25.8125 77.9688 25.8125C78.8385 25.8125 79.5026 26.0964 79.9609 26.6641C80.4193 27.2266 80.6484 28.0417 80.6484 29.1094V34ZM82.3672 33.75V32.0703C83.0443 32.5859 83.7917 32.8438 84.6094 32.8438C85.7031 32.8438 86.25 32.5208 86.25 31.875C86.25 31.6927 86.2031 31.5391 86.1094 31.4141C86.0156 31.2839 85.888 31.1693 85.7266 31.0703C85.5703 30.9714 85.3828 30.8828 85.1641 30.8047C84.9505 30.7266 84.7109 30.638 84.4453 30.5391C84.1172 30.4089 83.8203 30.2708 83.5547 30.125C83.2943 29.9792 83.0755 29.8151 82.8984 29.6328C82.7266 29.4453 82.5964 29.2344 82.5078 29C82.4193 28.7656 82.375 28.4922 82.375 28.1797C82.375 27.7943 82.4661 27.4557 82.6484 27.1641C82.8307 26.8672 83.0755 26.6198 83.3828 26.4219C83.6901 26.2188 84.0391 26.0677 84.4297 25.9688C84.8203 25.8646 85.224 25.8125 85.6406 25.8125C86.3802 25.8125 87.0417 25.9245 87.625 26.1484V27.7344C87.0625 27.349 86.4167 27.1562 85.6875 27.1562C85.4583 27.1562 85.25 27.1797 85.0625 27.2266C84.8802 27.2734 84.724 27.3385 84.5938 27.4219C84.4635 27.5052 84.362 27.6068 84.2891 27.7266C84.2161 27.8411 84.1797 27.9688 84.1797 28.1094C84.1797 28.2812 84.2161 28.4271 84.2891 28.5469C84.362 28.6667 84.4688 28.7734 84.6094 28.8672C84.7552 28.9557 84.9271 29.0391 85.125 29.1172C85.3281 29.1901 85.5599 29.2708 85.8203 29.3594C86.1641 29.5 86.4714 29.6432 86.7422 29.7891C87.0182 29.9349 87.2526 30.1016 87.4453 30.2891C87.638 30.4714 87.7865 30.6849 87.8906 30.9297C87.9948 31.1693 88.0469 31.4557 88.0469 31.7891C88.0469 32.1953 87.9531 32.5495 87.7656 32.8516C87.5781 33.1536 87.3281 33.4036 87.0156 33.6016C86.7031 33.7995 86.3411 33.9453 85.9297 34.0391C85.5234 34.138 85.0938 34.1875 84.6406 34.1875C83.7656 34.1875 83.0078 34.0417 82.3672 33.75ZM90.6875 24.3203C90.3906 24.3203 90.1354 24.224 89.9219 24.0312C89.7135 23.8385 89.6094 23.5938 89.6094 23.2969C89.6094 23 89.7135 22.7526 89.9219 22.5547C90.1354 22.3568 90.3906 22.2578 90.6875 22.2578C90.9948 22.2578 91.2552 22.3568 91.4688 22.5547C91.6823 22.7526 91.7891 23 91.7891 23.2969C91.7891 23.5781 91.6823 23.8203 91.4688 24.0234C91.2552 24.2214 90.9948 24.3203 90.6875 24.3203ZM91.5859 34H89.7734V26H91.5859V34ZM98.1797 33.9141C97.8255 34.0911 97.3594 34.1797 96.7812 34.1797C95.2292 34.1797 94.4531 33.4349 94.4531 31.9453V27.4219H93.1172V26H94.4531V24.1484L96.2656 23.6328V26H98.1797V27.4219H96.2656V31.4219C96.2656 31.8958 96.3516 32.2344 96.5234 32.4375C96.6953 32.6406 96.9818 32.7422 97.3828 32.7422C97.6901 32.7422 97.9557 32.6536 98.1797 32.4766V33.9141ZM100.656 24.3203C100.359 24.3203 100.104 24.224 99.8906 24.0312C99.6823 23.8385 99.5781 23.5938 99.5781 23.2969C99.5781 23 99.6823 22.7526 99.8906 22.5547C100.104 22.3568 100.359 22.2578 100.656 22.2578C100.964 22.2578 101.224 22.3568 101.438 22.5547C101.651 22.7526 101.758 23 101.758 23.2969C101.758 23.5781 101.651 23.8203 101.438 24.0234C101.224 24.2214 100.964 24.3203 100.656 24.3203ZM101.555 34H99.7422V26H101.555V34ZM110.82 26L107.727 34H105.766L102.82 26H104.789L106.562 31.5938C106.698 32.0052 106.781 32.3646 106.812 32.6719H106.836C106.883 32.2865 106.956 31.9375 107.055 31.625L108.914 26H110.82ZM112.969 24.3203C112.672 24.3203 112.417 24.224 112.203 24.0312C111.995 23.8385 111.891 23.5938 111.891 23.2969C111.891 23 111.995 22.7526 112.203 22.5547C112.417 22.3568 112.672 22.2578 112.969 22.2578C113.276 22.2578 113.536 22.3568 113.75 22.5547C113.964 22.7526 114.07 23 114.07 23.2969C114.07 23.5781 113.964 23.8203 113.75 24.0234C113.536 24.2214 113.276 24.3203 112.969 24.3203ZM113.867 34H112.055V26H113.867V34ZM120.461 33.9141C120.107 34.0911 119.641 34.1797 119.062 34.1797C117.51 34.1797 116.734 33.4349 116.734 31.9453V27.4219H115.398V26H116.734V24.1484L118.547 23.6328V26H120.461V27.4219H118.547V31.4219C118.547 31.8958 118.633 32.2344 118.805 32.4375C118.977 32.6406 119.263 32.7422 119.664 32.7422C119.971 32.7422 120.237 32.6536 120.461 32.4766V33.9141ZM128.953 26L125.344 35.2812C124.594 36.9375 123.542 37.7656 122.188 37.7656C121.807 37.7656 121.49 37.7318 121.234 37.6641V36.1562C121.521 36.25 121.781 36.2969 122.016 36.2969C122.693 36.2969 123.198 35.9635 123.531 35.2969L124.07 33.9844L120.891 26H122.898L124.805 31.8125C124.826 31.8854 124.872 32.0781 124.945 32.3906H124.984C125.01 32.2708 125.057 32.0833 125.125 31.8281L127.125 26H128.953Z" fill="#323130"/>
<path d="M16.709 66.6602V65.5C16.8418 65.6172 17 65.7227 17.1836 65.8164C17.3711 65.9102 17.5664 65.9902 17.7695 66.0566C17.9766 66.1191 18.1836 66.168 18.3906 66.2031C18.5977 66.2383 18.7891 66.2559 18.9648 66.2559C19.5703 66.2559 20.0215 66.1445 20.3184 65.9219C20.6191 65.6953 20.7695 65.3711 20.7695 64.9492C20.7695 64.7227 20.7188 64.5254 20.6172 64.3574C20.5195 64.1895 20.3828 64.0371 20.207 63.9004C20.0312 63.7598 19.8223 63.627 19.5801 63.502C19.3418 63.373 19.084 63.2383 18.8066 63.0977C18.5137 62.9492 18.2402 62.7988 17.9863 62.6465C17.7324 62.4941 17.5117 62.3262 17.3242 62.1426C17.1367 61.959 16.9883 61.752 16.8789 61.5215C16.7734 61.2871 16.7207 61.0137 16.7207 60.7012C16.7207 60.3184 16.8047 59.9863 16.9727 59.7051C17.1406 59.4199 17.3613 59.1855 17.6348 59.002C17.9082 58.8184 18.2188 58.6816 18.5664 58.5918C18.918 58.502 19.2754 58.457 19.6387 58.457C20.4668 58.457 21.0703 58.5566 21.4492 58.7559V59.8633C20.9531 59.5195 20.3164 59.3477 19.5391 59.3477C19.3242 59.3477 19.1094 59.3711 18.8945 59.418C18.6797 59.4609 18.4883 59.5332 18.3203 59.6348C18.1523 59.7363 18.0156 59.8672 17.9102 60.0273C17.8047 60.1875 17.752 60.3828 17.752 60.6133C17.752 60.8281 17.791 61.0137 17.8691 61.1699C17.9512 61.3262 18.0703 61.4688 18.2266 61.5977C18.3828 61.7266 18.5723 61.8516 18.7949 61.9727C19.0215 62.0938 19.2812 62.2266 19.5742 62.3711C19.875 62.5195 20.1602 62.6758 20.4297 62.8398C20.6992 63.0039 20.9355 63.1855 21.1387 63.3848C21.3418 63.584 21.502 63.8047 21.6191 64.0469C21.7402 64.2891 21.8008 64.5664 21.8008 64.8789C21.8008 65.293 21.7188 65.6445 21.5547 65.9336C21.3945 66.2188 21.1758 66.4512 20.8984 66.6309C20.625 66.8105 20.3086 66.9395 19.9492 67.0176C19.5898 67.0996 19.2109 67.1406 18.8125 67.1406C18.6797 67.1406 18.5156 67.1289 18.3203 67.1055C18.125 67.0859 17.9258 67.0547 17.7227 67.0117C17.5195 66.9727 17.3262 66.9238 17.1426 66.8652C16.9629 66.8027 16.8184 66.7344 16.709 66.6602ZM28.1699 64.2402H23.9336C23.9492 64.9082 24.1289 65.4238 24.4727 65.7871C24.8164 66.1504 25.2891 66.332 25.8906 66.332C26.5664 66.332 27.1875 66.1094 27.7539 65.6641V66.5664C27.2266 66.9492 26.5293 67.1406 25.6621 67.1406C24.8145 67.1406 24.1484 66.8691 23.6641 66.3262C23.1797 65.7793 22.9375 65.0117 22.9375 64.0234C22.9375 63.0898 23.2012 62.3301 23.7285 61.7441C24.2598 61.1543 24.918 60.8594 25.7031 60.8594C26.4883 60.8594 27.0957 61.1133 27.5254 61.6211C27.9551 62.1289 28.1699 62.834 28.1699 63.7363V64.2402ZM27.1855 63.4258C27.1816 62.8711 27.0469 62.4395 26.7812 62.1309C26.5195 61.8223 26.1543 61.668 25.6855 61.668C25.2324 61.668 24.8477 61.8301 24.5312 62.1543C24.2148 62.4785 24.0195 62.9023 23.9453 63.4258H27.1855ZM32.4121 66.9414C32.1855 67.0664 31.8867 67.1289 31.5156 67.1289C30.4648 67.1289 29.9395 66.543 29.9395 65.3711V61.8203H28.9082V61H29.9395V59.5352L30.9004 59.2246V61H32.4121V61.8203H30.9004V65.2012C30.9004 65.6035 30.9688 65.8906 31.1055 66.0625C31.2422 66.2344 31.4688 66.3203 31.7852 66.3203C32.0273 66.3203 32.2363 66.2539 32.4121 66.1211V66.9414ZM39.7715 66.9414C39.5449 67.0664 39.2461 67.1289 38.875 67.1289C37.8242 67.1289 37.2988 66.543 37.2988 65.3711V61.8203H36.2676V61H37.2988V59.5352L38.2598 59.2246V61H39.7715V61.8203H38.2598V65.2012C38.2598 65.6035 38.3281 65.8906 38.4648 66.0625C38.6016 66.2344 38.8281 66.3203 39.1445 66.3203C39.3867 66.3203 39.5957 66.2539 39.7715 66.1211V66.9414ZM46.0352 67H45.0742V63.543C45.0742 62.293 44.6094 61.668 43.6797 61.668C43.2109 61.668 42.8164 61.8496 42.4961 62.2129C42.1758 62.5723 42.0156 63.0352 42.0156 63.6016V67H41.0547V58.1172H42.0156V61.9961H42.0391C42.5 61.2383 43.1562 60.8594 44.0078 60.8594C45.3594 60.8594 46.0352 61.6738 46.0352 63.3027V67ZM52.6738 64.2402H48.4375C48.4531 64.9082 48.6328 65.4238 48.9766 65.7871C49.3203 66.1504 49.793 66.332 50.3945 66.332C51.0703 66.332 51.6914 66.1094 52.2578 65.6641V66.5664C51.7305 66.9492 51.0332 67.1406 50.166 67.1406C49.3184 67.1406 48.6523 66.8691 48.168 66.3262C47.6836 65.7793 47.4414 65.0117 47.4414 64.0234C47.4414 63.0898 47.7051 62.3301 48.2324 61.7441C48.7637 61.1543 49.4219 60.8594 50.207 60.8594C50.9922 60.8594 51.5996 61.1133 52.0293 61.6211C52.459 62.1289 52.6738 62.834 52.6738 63.7363V64.2402ZM51.6895 63.4258C51.6855 62.8711 51.5508 62.4395 51.2852 62.1309C51.0234 61.8223 50.6582 61.668 50.1895 61.668C49.7363 61.668 49.3516 61.8301 49.0352 62.1543C48.7188 62.4785 48.5234 62.9023 48.4492 63.4258H51.6895ZM57.0625 66.7832V65.752C57.5859 66.1387 58.1621 66.332 58.791 66.332C59.6348 66.332 60.0566 66.0508 60.0566 65.4883C60.0566 65.3281 60.0195 65.1934 59.9453 65.084C59.875 64.9707 59.7773 64.8711 59.6523 64.7852C59.5312 64.6992 59.3867 64.623 59.2188 64.5566C59.0547 64.4863 58.877 64.4141 58.6855 64.3398C58.4199 64.2344 58.1855 64.1289 57.9824 64.0234C57.7832 63.9141 57.6152 63.793 57.4785 63.6602C57.3457 63.5234 57.2441 63.3691 57.1738 63.1973C57.1074 63.0254 57.0742 62.8242 57.0742 62.5938C57.0742 62.3125 57.1387 62.0645 57.2676 61.8496C57.3965 61.6309 57.5684 61.4492 57.7832 61.3047C57.998 61.1562 58.2422 61.0449 58.5156 60.9707C58.793 60.8965 59.0781 60.8594 59.3711 60.8594C59.8906 60.8594 60.3555 60.9492 60.7656 61.1289V62.1016C60.3242 61.8125 59.8164 61.668 59.2422 61.668C59.0625 61.668 58.9004 61.6895 58.7559 61.7324C58.6113 61.7715 58.4863 61.8281 58.3809 61.9023C58.2793 61.9766 58.1992 62.0664 58.1406 62.1719C58.0859 62.2734 58.0586 62.3867 58.0586 62.5117C58.0586 62.668 58.0859 62.7988 58.1406 62.9043C58.1992 63.0098 58.2832 63.1035 58.3926 63.1855C58.502 63.2676 58.6348 63.3418 58.791 63.4082C58.9473 63.4746 59.125 63.5469 59.3242 63.625C59.5898 63.7266 59.8281 63.832 60.0391 63.9414C60.25 64.0469 60.4297 64.168 60.5781 64.3047C60.7266 64.4375 60.8398 64.5918 60.918 64.7676C61 64.9434 61.041 65.1523 61.041 65.3945C61.041 65.6914 60.9746 65.9492 60.8418 66.168C60.7129 66.3867 60.5391 66.5684 60.3203 66.7129C60.1016 66.8574 59.8496 66.9648 59.5645 67.0352C59.2793 67.1055 58.9805 67.1406 58.668 67.1406C58.0508 67.1406 57.5156 67.0215 57.0625 66.7832ZM67.3457 64.2402H63.1094C63.125 64.9082 63.3047 65.4238 63.6484 65.7871C63.9922 66.1504 64.4648 66.332 65.0664 66.332C65.7422 66.332 66.3633 66.1094 66.9297 65.6641V66.5664C66.4023 66.9492 65.7051 67.1406 64.8379 67.1406C63.9902 67.1406 63.3242 66.8691 62.8398 66.3262C62.3555 65.7793 62.1133 65.0117 62.1133 64.0234C62.1133 63.0898 62.377 62.3301 62.9043 61.7441C63.4355 61.1543 64.0938 60.8594 64.8789 60.8594C65.6641 60.8594 66.2715 61.1133 66.7012 61.6211C67.1309 62.1289 67.3457 62.834 67.3457 63.7363V64.2402ZM66.3613 63.4258C66.3574 62.8711 66.2227 62.4395 65.957 62.1309C65.6953 61.8223 65.3301 61.668 64.8613 61.668C64.4082 61.668 64.0234 61.8301 63.707 62.1543C63.3906 62.4785 63.1953 62.9023 63.1211 63.4258H66.3613ZM73.7852 67H72.8242V63.5781C72.8242 62.3047 72.3594 61.668 71.4297 61.668C70.9492 61.668 70.5508 61.8496 70.2344 62.2129C69.9219 62.5723 69.7656 63.0273 69.7656 63.5781V67H68.8047V61H69.7656V61.9961H69.7891C70.2422 61.2383 70.8984 60.8594 71.7578 60.8594C72.4141 60.8594 72.916 61.0723 73.2637 61.498C73.6113 61.9199 73.7852 62.5312 73.7852 63.332V67ZM75.2383 66.7832V65.752C75.7617 66.1387 76.3379 66.332 76.9668 66.332C77.8105 66.332 78.2324 66.0508 78.2324 65.4883C78.2324 65.3281 78.1953 65.1934 78.1211 65.084C78.0508 64.9707 77.9531 64.8711 77.8281 64.7852C77.707 64.6992 77.5625 64.623 77.3945 64.5566C77.2305 64.4863 77.0527 64.4141 76.8613 64.3398C76.5957 64.2344 76.3613 64.1289 76.1582 64.0234C75.959 63.9141 75.791 63.793 75.6543 63.6602C75.5215 63.5234 75.4199 63.3691 75.3496 63.1973C75.2832 63.0254 75.25 62.8242 75.25 62.5938C75.25 62.3125 75.3145 62.0645 75.4434 61.8496C75.5723 61.6309 75.7441 61.4492 75.959 61.3047C76.1738 61.1562 76.418 61.0449 76.6914 60.9707C76.9688 60.8965 77.2539 60.8594 77.5469 60.8594C78.0664 60.8594 78.5312 60.9492 78.9414 61.1289V62.1016C78.5 61.8125 77.9922 61.668 77.418 61.668C77.2383 61.668 77.0762 61.6895 76.9316 61.7324C76.7871 61.7715 76.6621 61.8281 76.5566 61.9023C76.4551 61.9766 76.375 62.0664 76.3164 62.1719C76.2617 62.2734 76.2344 62.3867 76.2344 62.5117C76.2344 62.668 76.2617 62.7988 76.3164 62.9043C76.375 63.0098 76.459 63.1035 76.5684 63.1855C76.6777 63.2676 76.8105 63.3418 76.9668 63.4082C77.123 63.4746 77.3008 63.5469 77.5 63.625C77.7656 63.7266 78.0039 63.832 78.2148 63.9414C78.4258 64.0469 78.6055 64.168 78.7539 64.3047C78.9023 64.4375 79.0156 64.5918 79.0938 64.7676C79.1758 64.9434 79.2168 65.1523 79.2168 65.3945C79.2168 65.6914 79.1504 65.9492 79.0176 66.168C78.8887 66.3867 78.7148 66.5684 78.4961 66.7129C78.2773 66.8574 78.0254 66.9648 77.7402 67.0352C77.4551 67.1055 77.1562 67.1406 76.8438 67.1406C76.2266 67.1406 75.6914 67.0215 75.2383 66.7832ZM81.1914 59.4766C81.0195 59.4766 80.873 59.418 80.752 59.3008C80.6309 59.1836 80.5703 59.0352 80.5703 58.8555C80.5703 58.6758 80.6309 58.5273 80.752 58.4102C80.873 58.2891 81.0195 58.2285 81.1914 58.2285C81.3672 58.2285 81.5156 58.2891 81.6367 58.4102C81.7617 58.5273 81.8242 58.6758 81.8242 58.8555C81.8242 59.0273 81.7617 59.1738 81.6367 59.2949C81.5156 59.416 81.3672 59.4766 81.1914 59.4766ZM81.6602 67H80.6992V61H81.6602V67ZM86.3887 66.9414C86.1621 67.0664 85.8633 67.1289 85.4922 67.1289C84.4414 67.1289 83.916 66.543 83.916 65.3711V61.8203H82.8848V61H83.916V59.5352L84.877 59.2246V61H86.3887V61.8203H84.877V65.2012C84.877 65.6035 84.9453 65.8906 85.082 66.0625C85.2188 66.2344 85.4453 66.3203 85.7617 66.3203C86.0039 66.3203 86.2129 66.2539 86.3887 66.1211V66.9414ZM88.1641 59.4766C87.9922 59.4766 87.8457 59.418 87.7246 59.3008C87.6035 59.1836 87.543 59.0352 87.543 58.8555C87.543 58.6758 87.6035 58.5273 87.7246 58.4102C87.8457 58.2891 87.9922 58.2285 88.1641 58.2285C88.3398 58.2285 88.4883 58.2891 88.6094 58.4102C88.7344 58.5273 88.7969 58.6758 88.7969 58.8555C88.7969 59.0273 88.7344 59.1738 88.6094 59.2949C88.4883 59.416 88.3398 59.4766 88.1641 59.4766ZM88.6328 67H87.6719V61H88.6328V67ZM95.2949 61L92.9043 67H91.9609L89.6875 61H90.7422L92.2656 65.3594C92.3789 65.6797 92.4492 65.959 92.4766 66.1973H92.5C92.5391 65.8965 92.6016 65.625 92.6875 65.3828L94.2812 61H95.2949ZM96.8242 59.4766C96.6523 59.4766 96.5059 59.418 96.3848 59.3008C96.2637 59.1836 96.2031 59.0352 96.2031 58.8555C96.2031 58.6758 96.2637 58.5273 96.3848 58.4102C96.5059 58.2891 96.6523 58.2285 96.8242 58.2285C97 58.2285 97.1484 58.2891 97.2695 58.4102C97.3945 58.5273 97.457 58.6758 97.457 58.8555C97.457 59.0273 97.3945 59.1738 97.2695 59.2949C97.1484 59.416 97 59.4766 96.8242 59.4766ZM97.293 67H96.332V61H97.293V67ZM102.021 66.9414C101.795 67.0664 101.496 67.1289 101.125 67.1289C100.074 67.1289 99.5488 66.543 99.5488 65.3711V61.8203H98.5176V61H99.5488V59.5352L100.51 59.2246V61H102.021V61.8203H100.51V65.2012C100.51 65.6035 100.578 65.8906 100.715 66.0625C100.852 66.2344 101.078 66.3203 101.395 66.3203C101.637 66.3203 101.846 66.2539 102.021 66.1211V66.9414ZM108.08 61L105.32 67.9609C104.828 69.2031 104.137 69.8242 103.246 69.8242C102.996 69.8242 102.787 69.7988 102.619 69.748V68.8867C102.826 68.957 103.016 68.9922 103.188 68.9922C103.672 68.9922 104.035 68.7031 104.277 68.125L104.758 66.9883L102.414 61H103.48L105.104 65.6172C105.123 65.6758 105.164 65.8281 105.227 66.0742H105.262C105.281 65.9805 105.32 65.832 105.379 65.6289L107.084 61H108.08ZM114.918 67.1406C114.031 67.1406 113.322 66.8613 112.791 66.3027C112.264 65.7402 112 64.9961 112 64.0703C112 63.0625 112.275 62.2754 112.826 61.709C113.377 61.1426 114.121 60.8594 115.059 60.8594C115.953 60.8594 116.65 61.1348 117.15 61.6855C117.654 62.2363 117.906 63 117.906 63.9766C117.906 64.9336 117.635 65.7012 117.092 66.2793C116.553 66.8535 115.828 67.1406 114.918 67.1406ZM114.988 61.668C114.371 61.668 113.883 61.8789 113.523 62.3008C113.164 62.7188 112.984 63.2969 112.984 64.0352C112.984 64.7461 113.166 65.3066 113.529 65.7168C113.893 66.127 114.379 66.332 114.988 66.332C115.609 66.332 116.086 66.1309 116.418 65.7285C116.754 65.3262 116.922 64.7539 116.922 64.0117C116.922 63.2617 116.754 62.6836 116.418 62.2773C116.086 61.8711 115.609 61.668 114.988 61.668ZM122.184 58.9609C121.996 58.8555 121.783 58.8027 121.545 58.8027C120.873 58.8027 120.537 59.2266 120.537 60.0742V61H121.943V61.8203H120.537V67H119.582V61.8203H118.557V61H119.582V60.0273C119.582 59.3984 119.764 58.9023 120.127 58.5391C120.49 58.1719 120.943 57.9883 121.486 57.9883C121.779 57.9883 122.012 58.0234 122.184 58.0938V58.9609ZM129.057 66.9414C128.83 67.0664 128.531 67.1289 128.16 67.1289C127.109 67.1289 126.584 66.543 126.584 65.3711V61.8203H125.553V61H126.584V59.5352L127.545 59.2246V61H129.057V61.8203H127.545V65.2012C127.545 65.6035 127.613 65.8906 127.75 66.0625C127.887 66.2344 128.113 66.3203 128.43 66.3203C128.672 66.3203 128.881 66.2539 129.057 66.1211V66.9414ZM135.32 67H134.359V63.543C134.359 62.293 133.895 61.668 132.965 61.668C132.496 61.668 132.102 61.8496 131.781 62.2129C131.461 62.5723 131.301 63.0352 131.301 63.6016V67H130.34V58.1172H131.301V61.9961H131.324C131.785 61.2383 132.441 60.8594 133.293 60.8594C134.645 60.8594 135.32 61.6738 135.32 63.3027V67ZM141.959 64.2402H137.723C137.738 64.9082 137.918 65.4238 138.262 65.7871C138.605 66.1504 139.078 66.332 139.68 66.332C140.355 66.332 140.977 66.1094 141.543 65.6641V66.5664C141.016 66.9492 140.318 67.1406 139.451 67.1406C138.604 67.1406 137.938 66.8691 137.453 66.3262C136.969 65.7793 136.727 65.0117 136.727 64.0234C136.727 63.0898 136.99 62.3301 137.518 61.7441C138.049 61.1543 138.707 60.8594 139.492 60.8594C140.277 60.8594 140.885 61.1133 141.314 61.6211C141.744 62.1289 141.959 62.834 141.959 63.7363V64.2402ZM140.975 63.4258C140.971 62.8711 140.836 62.4395 140.57 62.1309C140.309 61.8223 139.943 61.668 139.475 61.668C139.021 61.668 138.637 61.8301 138.32 62.1543C138.004 62.4785 137.809 62.9023 137.734 63.4258H140.975ZM149.676 58.9609C149.488 58.8555 149.275 58.8027 149.037 58.8027C148.365 58.8027 148.029 59.2266 148.029 60.0742V61H149.436V61.8203H148.029V67H147.074V61.8203H146.049V61H147.074V60.0273C147.074 59.3984 147.256 58.9023 147.619 58.5391C147.982 58.1719 148.436 57.9883 148.979 57.9883C149.271 57.9883 149.504 58.0234 149.676 58.0938V58.9609ZM150.965 59.4766C150.793 59.4766 150.646 59.418 150.525 59.3008C150.404 59.1836 150.344 59.0352 150.344 58.8555C150.344 58.6758 150.404 58.5273 150.525 58.4102C150.646 58.2891 150.793 58.2285 150.965 58.2285C151.141 58.2285 151.289 58.2891 151.41 58.4102C151.535 58.5273 151.598 58.6758 151.598 58.8555C151.598 59.0273 151.535 59.1738 151.41 59.2949C151.289 59.416 151.141 59.4766 150.965 59.4766ZM151.434 67H150.473V61H151.434V67ZM154.34 67H153.379V58.1172H154.34V67ZM159.068 66.9414C158.842 67.0664 158.543 67.1289 158.172 67.1289C157.121 67.1289 156.596 66.543 156.596 65.3711V61.8203H155.564V61H156.596V59.5352L157.557 59.2246V61H159.068V61.8203H157.557V65.2012C157.557 65.6035 157.625 65.8906 157.762 66.0625C157.898 66.2344 158.125 66.3203 158.441 66.3203C158.684 66.3203 158.893 66.2539 159.068 66.1211V66.9414ZM165.08 64.2402H160.844C160.859 64.9082 161.039 65.4238 161.383 65.7871C161.727 66.1504 162.199 66.332 162.801 66.332C163.477 66.332 164.098 66.1094 164.664 65.6641V66.5664C164.137 66.9492 163.439 67.1406 162.572 67.1406C161.725 67.1406 161.059 66.8691 160.574 66.3262C160.09 65.7793 159.848 65.0117 159.848 64.0234C159.848 63.0898 160.111 62.3301 160.639 61.7441C161.17 61.1543 161.828 60.8594 162.613 60.8594C163.398 60.8594 164.006 61.1133 164.436 61.6211C164.865 62.1289 165.08 62.834 165.08 63.7363V64.2402ZM164.096 63.4258C164.092 62.8711 163.957 62.4395 163.691 62.1309C163.43 61.8223 163.064 61.668 162.596 61.668C162.143 61.668 161.758 61.8301 161.441 62.1543C161.125 62.4785 160.93 62.9023 160.855 63.4258H164.096ZM169.668 61.9727C169.5 61.8438 169.258 61.7793 168.941 61.7793C168.531 61.7793 168.188 61.9727 167.91 62.3594C167.637 62.7461 167.5 63.2734 167.5 63.9414V67H166.539V61H167.5V62.2363H167.523C167.66 61.8145 167.869 61.4863 168.15 61.252C168.432 61.0137 168.746 60.8945 169.094 60.8945C169.344 60.8945 169.535 60.9219 169.668 60.9766V61.9727Z" fill="#323130"/>
<path d="M135.918 99.1406C135.086 99.1406 134.436 98.7832 133.967 98.0684C133.502 97.3535 133.27 96.3203 133.27 94.9688C133.27 93.4844 133.512 92.3613 133.997 91.5996C134.485 90.8379 135.188 90.457 136.106 90.457C137.864 90.457 138.743 91.8926 138.743 94.7637C138.743 96.1855 138.495 97.2715 137.999 98.0215C137.502 98.7676 136.809 99.1406 135.918 99.1406ZM136.053 91.2715C134.854 91.2715 134.254 92.4883 134.254 94.9219C134.254 97.1953 134.842 98.332 136.018 98.332C137.178 98.332 137.758 97.1758 137.758 94.8633C137.758 92.4688 137.19 91.2715 136.053 91.2715Z" fill="#242424"/>
<path d="M265.049 99H260.297V98.1562H262.196V91.6289L260.25 92.209V91.2949L263.157 90.4102V98.1562H265.049V99Z" fill="#242424"/>
<path d="M391.89 99H386.828V98.1445L389.277 95.6895C389.902 95.0645 390.347 94.5449 390.613 94.1309C390.882 93.7129 391.017 93.2676 391.017 92.7949C391.017 92.3105 390.878 91.9355 390.601 91.6699C390.324 91.4043 389.929 91.2715 389.417 91.2715C388.667 91.2715 387.949 91.5918 387.261 92.2324V91.2246C387.917 90.7129 388.681 90.457 389.552 90.457C390.302 90.457 390.892 90.6602 391.322 91.0664C391.751 91.4727 391.966 92.0176 391.966 92.7012C391.966 93.2402 391.818 93.7676 391.521 94.2832C391.224 94.7949 390.691 95.4316 389.921 96.1934L387.982 98.1094V98.1328H391.89V99Z" fill="#242424"/>
<path d="M513.533 98.6895V97.6523C514.107 98.1055 514.755 98.332 515.478 98.332C516.064 98.332 516.531 98.1855 516.878 97.8926C517.23 97.5996 517.406 97.2051 517.406 96.709C517.406 95.6113 516.626 95.0625 515.068 95.0625H514.371V94.248H515.033C516.419 94.248 517.113 93.7324 517.113 92.7012C517.113 91.748 516.584 91.2715 515.525 91.2715C514.935 91.2715 514.378 91.4727 513.855 91.875V90.9375C514.394 90.6172 515.031 90.457 515.765 90.457C516.472 90.457 517.037 90.6445 517.459 91.0195C517.884 91.3945 518.097 91.875 518.097 92.4609C518.097 93.5664 517.535 94.2773 516.41 94.5938V94.6172C517.015 94.6758 517.496 94.8887 517.851 95.2559C518.21 95.6191 518.39 96.0742 518.39 96.6211C518.39 97.375 518.119 97.9844 517.576 98.4492C517.037 98.9102 516.324 99.1406 515.437 99.1406C514.64 99.1406 514.005 98.9902 513.533 98.6895Z" fill="#242424"/>
<rect x="24" y="110" width="16" height="16" rx="2" fill="#0F6CBD"/>
<path d="M35.765 115.205C36.0661 115.489 36.0797 115.964 35.7953 116.265L31.5453 120.765C31.4061 120.912 31.2133 120.997 31.0107 121C30.8081 121.003 30.6129 120.924 30.4697 120.78L28.2197 118.53C27.9268 118.237 27.9268 117.763 28.2197 117.47C28.5126 117.177 28.9874 117.177 29.2803 117.47L30.9846 119.174L34.7047 115.235C34.9891 114.934 35.4638 114.92 35.765 115.205Z" fill="white"/>
<path d="M60.5723 114.197L56.9424 124H55.6777L52.123 114.197H53.4014L56.1152 121.97C56.2018 122.22 56.2679 122.51 56.3135 122.838H56.3408C56.3773 122.564 56.4525 122.271 56.5664 121.956L59.335 114.197H60.5723ZM62.4043 115.223C62.2038 115.223 62.0329 115.154 61.8916 115.018C61.7503 114.881 61.6797 114.708 61.6797 114.498C61.6797 114.288 61.7503 114.115 61.8916 113.979C62.0329 113.837 62.2038 113.767 62.4043 113.767C62.6094 113.767 62.7826 113.837 62.9238 113.979C63.0697 114.115 63.1426 114.288 63.1426 114.498C63.1426 114.699 63.0697 114.869 62.9238 115.011C62.7826 115.152 62.6094 115.223 62.4043 115.223ZM62.9512 124H61.8301V117H62.9512V124ZM68.1465 124.164C67.112 124.164 66.2848 123.838 65.665 123.187C65.0498 122.53 64.7422 121.662 64.7422 120.582C64.7422 119.406 65.0635 118.488 65.7061 117.827C66.3486 117.166 67.2168 116.836 68.3105 116.836C69.3542 116.836 70.1676 117.157 70.751 117.8C71.3389 118.442 71.6328 119.333 71.6328 120.473C71.6328 121.589 71.3161 122.485 70.6826 123.159C70.0537 123.829 69.2083 124.164 68.1465 124.164ZM68.2285 117.779C67.5085 117.779 66.9388 118.025 66.5195 118.518C66.1003 119.005 65.8906 119.68 65.8906 120.541C65.8906 121.37 66.1025 122.024 66.5264 122.503C66.9502 122.981 67.5176 123.221 68.2285 123.221C68.9531 123.221 69.5091 122.986 69.8965 122.517C70.2884 122.047 70.4844 121.38 70.4844 120.514C70.4844 119.639 70.2884 118.964 69.8965 118.49C69.5091 118.016 68.9531 117.779 68.2285 117.779ZM74.5449 124H73.4238V113.637H74.5449V124ZM82.4404 120.78H77.498C77.5163 121.56 77.7259 122.161 78.127 122.585C78.528 123.009 79.0794 123.221 79.7812 123.221C80.5697 123.221 81.2943 122.961 81.9551 122.441V123.494C81.3398 123.941 80.5264 124.164 79.5146 124.164C78.5257 124.164 77.7487 123.847 77.1836 123.214C76.6185 122.576 76.3359 121.68 76.3359 120.527C76.3359 119.438 76.6436 118.552 77.2588 117.868C77.8786 117.18 78.6465 116.836 79.5625 116.836C80.4785 116.836 81.1872 117.132 81.6885 117.725C82.1898 118.317 82.4404 119.14 82.4404 120.192V120.78ZM81.292 119.83C81.2874 119.183 81.1302 118.679 80.8203 118.319C80.515 117.959 80.0889 117.779 79.542 117.779C79.0133 117.779 78.5645 117.968 78.1953 118.347C77.8262 118.725 77.5983 119.219 77.5117 119.83H81.292ZM89.9531 124H88.832V120.008C88.832 118.522 88.2897 117.779 87.2051 117.779C86.6445 117.779 86.1797 117.991 85.8105 118.415C85.446 118.834 85.2637 119.365 85.2637 120.008V124H84.1426V117H85.2637V118.162H85.291C85.8197 117.278 86.5853 116.836 87.5879 116.836C88.3535 116.836 88.9391 117.084 89.3447 117.581C89.7503 118.073 89.9531 118.786 89.9531 119.721V124ZM96.8438 123.679C96.306 124.002 95.668 124.164 94.9297 124.164C93.9316 124.164 93.125 123.84 92.5098 123.193C91.8991 122.542 91.5938 121.699 91.5938 120.664C91.5938 119.511 91.9242 118.586 92.585 117.889C93.2458 117.187 94.1276 116.836 95.2305 116.836C95.8457 116.836 96.388 116.95 96.8574 117.178V118.326C96.3379 117.962 95.7819 117.779 95.1895 117.779C94.474 117.779 93.8861 118.037 93.4258 118.552C92.9701 119.062 92.7422 119.734 92.7422 120.568C92.7422 121.389 92.9564 122.036 93.3848 122.51C93.8177 122.984 94.3965 123.221 95.1211 123.221C95.7318 123.221 96.306 123.018 96.8438 122.612V123.679ZM104.165 120.78H99.2227C99.2409 121.56 99.4505 122.161 99.8516 122.585C100.253 123.009 100.804 123.221 101.506 123.221C102.294 123.221 103.019 122.961 103.68 122.441V123.494C103.064 123.941 102.251 124.164 101.239 124.164C100.25 124.164 99.4733 123.847 98.9082 123.214C98.3431 122.576 98.0605 121.68 98.0605 120.527C98.0605 119.438 98.3682 118.552 98.9834 117.868C99.6032 117.18 100.371 116.836 101.287 116.836C102.203 116.836 102.912 117.132 103.413 117.725C103.914 118.317 104.165 119.14 104.165 120.192V120.78ZM103.017 119.83C103.012 119.183 102.855 118.679 102.545 118.319C102.24 117.959 101.813 117.779 101.267 117.779C100.738 117.779 100.289 117.968 99.9199 118.347C99.5508 118.725 99.3229 119.219 99.2363 119.83H103.017Z" fill="#242424"/>
<rect x="136" y="116" width="380" height="4" rx="2" fill="#616161"/>
<path d="M136 118C136 119.105 136.895 120 138 120L506 120V116L138 116C136.895 116 136 116.895 136 118V118Z" fill="#0F6CBD"/>
<rect width="1" height="4" transform="matrix(-1 0 0 1 263.003 116)" fill="white"/>
<rect width="1" height="4" transform="matrix(-1 0 0 1 389.997 116)" fill="white"/>
<rect x="505.5" y="108.5" width="19" height="19" rx="9.5" fill="white"/>
<rect x="505.5" y="108.5" width="19" height="19" rx="9.5" stroke="#D1D1D1"/>
<rect x="509" y="112" width="12" height="12" rx="6" fill="#0F6CBD"/>
<path d="M498.129 143H497.145V139.168H492.797V143H491.812V134.598H492.797V138.283H497.145V134.598H498.129V143ZM500.695 135.477C500.523 135.477 500.377 135.418 500.256 135.301C500.135 135.184 500.074 135.035 500.074 134.855C500.074 134.676 500.135 134.527 500.256 134.41C500.377 134.289 500.523 134.229 500.695 134.229C500.871 134.229 501.02 134.289 501.141 134.41C501.266 134.527 501.328 134.676 501.328 134.855C501.328 135.027 501.266 135.174 501.141 135.295C501.02 135.416 500.871 135.477 500.695 135.477ZM501.164 143H500.203V137H501.164V143ZM508.23 142.52C508.23 144.723 507.176 145.824 505.066 145.824C504.324 145.824 503.676 145.684 503.121 145.402V144.441C503.797 144.816 504.441 145.004 505.055 145.004C506.531 145.004 507.27 144.219 507.27 142.648V141.992H507.246C506.789 142.758 506.102 143.141 505.184 143.141C504.438 143.141 503.836 142.875 503.379 142.344C502.926 141.809 502.699 141.092 502.699 140.193C502.699 139.174 502.943 138.363 503.432 137.762C503.924 137.16 504.596 136.859 505.447 136.859C506.256 136.859 506.855 137.184 507.246 137.832H507.27V137H508.23V142.52ZM507.27 140.287V139.402C507.27 138.926 507.107 138.518 506.783 138.178C506.463 137.838 506.062 137.668 505.582 137.668C504.988 137.668 504.523 137.885 504.188 138.318C503.852 138.748 503.684 139.352 503.684 140.129C503.684 140.797 503.844 141.332 504.164 141.734C504.488 142.133 504.916 142.332 505.447 142.332C505.986 142.332 506.424 142.141 506.76 141.758C507.1 141.375 507.27 140.885 507.27 140.287ZM515.156 143H514.195V139.543C514.195 138.293 513.73 137.668 512.801 137.668C512.332 137.668 511.938 137.85 511.617 138.213C511.297 138.572 511.137 139.035 511.137 139.602V143H510.176V134.117H511.137V137.996H511.16C511.621 137.238 512.277 136.859 513.129 136.859C514.48 136.859 515.156 137.674 515.156 139.303V143Z" fill="#242424"/>
<rect x="24" y="166" width="16" height="16" rx="2" fill="#0F6CBD"/>
<path d="M35.765 171.205C36.0661 171.489 36.0797 171.964 35.7953 172.265L31.5453 176.765C31.4061 176.912 31.2133 176.997 31.0107 177C30.8081 177.003 30.6129 176.924 30.4697 176.78L28.2197 174.53C27.9268 174.237 27.9268 173.763 28.2197 173.47C28.5126 173.177 28.9874 173.177 29.2803 173.47L30.9846 175.174L34.7047 171.235C34.9891 170.934 35.4638 170.92 35.765 171.205Z" fill="white"/>
<path d="M60.6543 180H59.5059V175.529H54.4336V180H53.2852V170.197H54.4336V174.497H59.5059V170.197H60.6543V180ZM68.085 180H66.9639V178.906H66.9365C66.4489 179.745 65.7311 180.164 64.7832 180.164C64.0859 180.164 63.5391 179.979 63.1426 179.61C62.7507 179.241 62.5547 178.751 62.5547 178.141C62.5547 176.833 63.3249 176.072 64.8652 175.857L66.9639 175.563C66.9639 174.374 66.4831 173.779 65.5215 173.779C64.6784 173.779 63.9173 174.066 63.2383 174.641V173.492C63.9264 173.055 64.7194 172.836 65.6172 172.836C67.2624 172.836 68.085 173.706 68.085 175.447V180ZM66.9639 176.459L65.2754 176.691C64.7559 176.764 64.3639 176.894 64.0996 177.081C63.8353 177.263 63.7031 177.589 63.7031 178.059C63.7031 178.4 63.8239 178.681 64.0654 178.899C64.3115 179.114 64.6374 179.221 65.043 179.221C65.599 179.221 66.057 179.027 66.417 178.64C66.7816 178.248 66.9639 177.753 66.9639 177.156V176.459ZM73.4443 179.932C73.18 180.077 72.8314 180.15 72.3984 180.15C71.1725 180.15 70.5596 179.467 70.5596 178.1V173.957H69.3564V173H70.5596V171.291L71.6807 170.929V173H73.4443V173.957H71.6807V177.901C71.6807 178.371 71.7604 178.706 71.9199 178.906C72.0794 179.107 72.3438 179.207 72.7129 179.207C72.9954 179.207 73.2393 179.13 73.4443 178.975V179.932ZM80.458 176.78H75.5156C75.5339 177.56 75.7435 178.161 76.1445 178.585C76.5456 179.009 77.097 179.221 77.7988 179.221C78.5872 179.221 79.3118 178.961 79.9727 178.441V179.494C79.3574 179.941 78.5439 180.164 77.5322 180.164C76.5433 180.164 75.7663 179.847 75.2012 179.214C74.6361 178.576 74.3535 177.68 74.3535 176.527C74.3535 175.438 74.6611 174.552 75.2764 173.868C75.8962 173.18 76.6641 172.836 77.5801 172.836C78.4961 172.836 79.2048 173.132 79.7061 173.725C80.2074 174.317 80.458 175.14 80.458 176.192V176.78ZM79.3096 175.83C79.305 175.183 79.1478 174.679 78.8379 174.319C78.5326 173.959 78.1064 173.779 77.5596 173.779C77.0309 173.779 76.582 173.968 76.2129 174.347C75.8438 174.725 75.6159 175.219 75.5293 175.83H79.3096Z" fill="#242424"/>
<rect x="136" y="172" width="380" height="4" rx="2" fill="#616161"/>
<path d="M136 174C136 175.105 136.895 176 138 176L379 176V172L138 172C136.895 172 136 172.895 136 174V174Z" fill="#0F6CBD"/>
<rect width="1" height="4" transform="matrix(-1 0 0 1 263.003 172)" fill="white"/>
<rect width="1" height="4" transform="matrix(-1 0 0 1 389.997 172)" fill="white"/>
<rect x="378.5" y="164.5" width="19" height="19" rx="9.5" fill="white"/>
<rect x="378.5" y="164.5" width="19" height="19" rx="9.5" stroke="#D1D1D1"/>
<rect x="382" y="168" width="12" height="12" rx="6" fill="#0F6CBD"/>
<path d="M374.084 199H373.105V193.363C373.105 192.918 373.133 192.373 373.188 191.729H373.164C373.07 192.107 372.986 192.379 372.912 192.543L370.041 199H369.561L366.695 192.59C366.613 192.402 366.529 192.115 366.443 191.729H366.42C366.451 192.064 366.467 192.613 366.467 193.375V199H365.518V190.598H366.818L369.396 196.457C369.596 196.906 369.725 197.242 369.783 197.465H369.818C369.986 197.004 370.121 196.66 370.223 196.434L372.854 190.598H374.084V199ZM380.992 196.24H376.756C376.771 196.908 376.951 197.424 377.295 197.787C377.639 198.15 378.111 198.332 378.713 198.332C379.389 198.332 380.01 198.109 380.576 197.664V198.566C380.049 198.949 379.352 199.141 378.484 199.141C377.637 199.141 376.971 198.869 376.486 198.326C376.002 197.779 375.76 197.012 375.76 196.023C375.76 195.09 376.023 194.33 376.551 193.744C377.082 193.154 377.74 192.859 378.525 192.859C379.311 192.859 379.918 193.113 380.348 193.621C380.777 194.129 380.992 194.834 380.992 195.736V196.24ZM380.008 195.426C380.004 194.871 379.869 194.439 379.604 194.131C379.342 193.822 378.977 193.668 378.508 193.668C378.055 193.668 377.67 193.83 377.354 194.154C377.037 194.479 376.842 194.902 376.768 195.426H380.008ZM387.572 199H386.611V197.98H386.588C386.143 198.754 385.455 199.141 384.525 199.141C383.771 199.141 383.168 198.873 382.715 198.338C382.266 197.799 382.041 197.066 382.041 196.141C382.041 195.148 382.291 194.354 382.791 193.756C383.291 193.158 383.957 192.859 384.789 192.859C385.613 192.859 386.213 193.184 386.588 193.832H386.611V190.117H387.572V199ZM386.611 196.287V195.402C386.611 194.918 386.451 194.508 386.131 194.172C385.811 193.836 385.404 193.668 384.912 193.668C384.326 193.668 383.865 193.883 383.529 194.312C383.193 194.742 383.025 195.336 383.025 196.094C383.025 196.785 383.186 197.332 383.506 197.734C383.83 198.133 384.264 198.332 384.807 198.332C385.342 198.332 385.775 198.139 386.107 197.752C386.443 197.365 386.611 196.877 386.611 196.287ZM390.01 191.477C389.838 191.477 389.691 191.418 389.57 191.301C389.449 191.184 389.389 191.035 389.389 190.855C389.389 190.676 389.449 190.527 389.57 190.41C389.691 190.289 389.838 190.229 390.01 190.229C390.186 190.229 390.334 190.289 390.455 190.41C390.58 190.527 390.643 190.676 390.643 190.855C390.643 191.027 390.58 191.174 390.455 191.295C390.334 191.416 390.186 191.477 390.01 191.477ZM390.479 199H389.518V193H390.479V199ZM397.275 199H396.314V198.051H396.291C395.893 198.777 395.275 199.141 394.439 199.141C393.01 199.141 392.295 198.289 392.295 196.586V193H393.25V196.434C393.25 197.699 393.734 198.332 394.703 198.332C395.172 198.332 395.557 198.16 395.857 197.816C396.162 197.469 396.314 197.016 396.314 196.457V193H397.275V199ZM407.74 199H406.779V195.555C406.779 194.891 406.676 194.41 406.469 194.113C406.266 193.816 405.922 193.668 405.438 193.668C405.027 193.668 404.678 193.855 404.389 194.23C404.104 194.605 403.961 195.055 403.961 195.578V199H403V195.438C403 194.258 402.545 193.668 401.635 193.668C401.213 193.668 400.865 193.846 400.592 194.201C400.318 194.553 400.182 195.012 400.182 195.578V199H399.221V193H400.182V193.949H400.205C400.631 193.223 401.252 192.859 402.068 192.859C402.479 192.859 402.836 192.975 403.141 193.205C403.445 193.432 403.654 193.73 403.768 194.102C404.213 193.273 404.877 192.859 405.76 192.859C407.08 192.859 407.74 193.674 407.74 195.303V199Z" fill="#242424"/>
<rect x="24" y="222" width="16" height="16" rx="2" fill="#0F6CBD"/>
<path d="M35.765 227.205C36.0661 227.489 36.0797 227.964 35.7953 228.265L31.5453 232.765C31.4061 232.912 31.2133 232.997 31.0107 233C30.8081 233.003 30.6129 232.924 30.4697 232.78L28.2197 230.53C27.9268 230.237 27.9268 229.763 28.2197 229.47C28.5126 229.177 28.9874 229.177 29.2803 229.47L30.9846 231.174L34.7047 227.235C34.9891 226.934 35.4638 226.92 35.765 227.205Z" fill="white"/>
<path d="M52.8271 235.604V234.25C52.9821 234.387 53.1667 234.51 53.3809 234.619C53.5996 234.729 53.8275 234.822 54.0645 234.899C54.306 234.972 54.5475 235.029 54.7891 235.07C55.0306 235.111 55.2539 235.132 55.459 235.132C56.1654 235.132 56.6917 235.002 57.0381 234.742C57.389 234.478 57.5645 234.1 57.5645 233.607C57.5645 233.343 57.5052 233.113 57.3867 232.917C57.2728 232.721 57.1133 232.543 56.9082 232.384C56.7031 232.22 56.4593 232.065 56.1768 231.919C55.8988 231.769 55.598 231.611 55.2744 231.447C54.9326 231.274 54.6136 231.099 54.3174 230.921C54.0212 230.743 53.7637 230.547 53.5449 230.333C53.3262 230.119 53.153 229.877 53.0254 229.608C52.9023 229.335 52.8408 229.016 52.8408 228.651C52.8408 228.205 52.9388 227.817 53.1348 227.489C53.3307 227.157 53.5882 226.883 53.9072 226.669C54.2262 226.455 54.5885 226.295 54.9941 226.19C55.4043 226.086 55.8213 226.033 56.2451 226.033C57.2113 226.033 57.9154 226.149 58.3574 226.382V227.674C57.7786 227.273 57.0358 227.072 56.1289 227.072C55.8783 227.072 55.6276 227.1 55.377 227.154C55.1263 227.204 54.903 227.289 54.707 227.407C54.5111 227.526 54.3516 227.678 54.2285 227.865C54.1055 228.052 54.0439 228.28 54.0439 228.549C54.0439 228.799 54.0895 229.016 54.1807 229.198C54.2764 229.381 54.4154 229.547 54.5977 229.697C54.7799 229.848 55.001 229.993 55.2607 230.135C55.5251 230.276 55.8281 230.431 56.1699 230.6C56.5208 230.773 56.8535 230.955 57.168 231.146C57.4824 231.338 57.7581 231.55 57.9951 231.782C58.2321 232.015 58.4189 232.272 58.5557 232.555C58.6969 232.837 58.7676 233.161 58.7676 233.525C58.7676 234.008 58.6719 234.419 58.4805 234.756C58.2936 235.089 58.0384 235.36 57.7148 235.569C57.3958 235.779 57.0267 235.929 56.6074 236.021C56.1882 236.116 55.7461 236.164 55.2812 236.164C55.1263 236.164 54.9349 236.15 54.707 236.123C54.4792 236.1 54.2467 236.064 54.0098 236.014C53.7728 235.968 53.5472 235.911 53.333 235.843C53.1234 235.77 52.9548 235.69 52.8271 235.604ZM66.1982 232.78H61.2559C61.2741 233.56 61.4837 234.161 61.8848 234.585C62.2858 235.009 62.8372 235.221 63.5391 235.221C64.3275 235.221 65.0521 234.961 65.7129 234.441V235.494C65.0977 235.941 64.2842 236.164 63.2725 236.164C62.2835 236.164 61.5065 235.847 60.9414 235.214C60.3763 234.576 60.0938 233.68 60.0938 232.527C60.0938 231.438 60.4014 230.552 61.0166 229.868C61.6364 229.18 62.4043 228.836 63.3203 228.836C64.2363 228.836 64.945 229.132 65.4463 229.725C65.9476 230.317 66.1982 231.14 66.1982 232.192V232.78ZM65.0498 231.83C65.0452 231.183 64.888 230.679 64.5781 230.319C64.2728 229.959 63.8467 229.779 63.2998 229.779C62.7712 229.779 62.3223 229.968 61.9531 230.347C61.584 230.725 61.3561 231.219 61.2695 231.83H65.0498ZM73.0137 229L70.6621 232.541L72.9727 236H71.667L70.293 233.73C70.2064 233.589 70.1038 233.411 69.9854 233.197H69.958C69.9352 233.238 69.8281 233.416 69.6367 233.73L68.2354 236H66.9434L69.3291 232.568L67.0459 229H68.3516L69.7051 231.393C69.8053 231.57 69.9033 231.753 69.999 231.939H70.0264L71.7764 229H73.0137ZM79.9863 236H78.8652V234.893H78.8379C78.373 235.74 77.653 236.164 76.6777 236.164C75.0098 236.164 74.1758 235.171 74.1758 233.184V229H75.29V233.006C75.29 234.482 75.8551 235.221 76.9854 235.221C77.5322 235.221 77.9811 235.02 78.332 234.619C78.6875 234.214 78.8652 233.685 78.8652 233.033V229H79.9863V236ZM87.2666 236H86.1455V234.906H86.1182C85.6305 235.745 84.9128 236.164 83.9648 236.164C83.2676 236.164 82.7207 235.979 82.3242 235.61C81.9323 235.241 81.7363 234.751 81.7363 234.141C81.7363 232.833 82.5065 232.072 84.0469 231.857L86.1455 231.563C86.1455 230.374 85.6647 229.779 84.7031 229.779C83.86 229.779 83.099 230.066 82.4199 230.641V229.492C83.1081 229.055 83.901 228.836 84.7988 228.836C86.444 228.836 87.2666 229.706 87.2666 231.447V236ZM86.1455 232.459L84.457 232.691C83.9375 232.764 83.5456 232.894 83.2812 233.081C83.0169 233.263 82.8848 233.589 82.8848 234.059C82.8848 234.4 83.0055 234.681 83.2471 234.899C83.4932 235.114 83.819 235.221 84.2246 235.221C84.7806 235.221 85.2386 235.027 85.5986 234.64C85.9632 234.248 86.1455 233.753 86.1455 233.156V232.459ZM90.5 236H89.3789V225.637H90.5V236Z" fill="#242424"/>
<rect x="136" y="228" width="380" height="4" rx="2" fill="#616161"/>
<path d="M136 230C136 231.105 136.895 232 138 232L255 232V228L138 228C136.895 228 136 228.895 136 230V230Z" fill="#0F6CBD"/>
<rect width="1" height="4" transform="matrix(-1 0 0 1 263.003 228)" fill="white"/>
<rect width="1" height="4" transform="matrix(-1 0 0 1 389.997 228)" fill="white"/>
<rect x="254.5" y="220.5" width="19" height="19" rx="9.5" fill="white"/>
<rect x="254.5" y="220.5" width="19" height="19" rx="9.5" stroke="#D1D1D1"/>
<rect x="258" y="224" width="12" height="12" rx="6" fill="#0F6CBD"/>
<path d="M258.785 255H254.426V246.598H255.41V254.109H258.785V255ZM262.453 255.141C261.566 255.141 260.857 254.861 260.326 254.303C259.799 253.74 259.535 252.996 259.535 252.07C259.535 251.062 259.811 250.275 260.361 249.709C260.912 249.143 261.656 248.859 262.594 248.859C263.488 248.859 264.186 249.135 264.686 249.686C265.189 250.236 265.441 251 265.441 251.977C265.441 252.934 265.17 253.701 264.627 254.279C264.088 254.854 263.363 255.141 262.453 255.141ZM262.523 249.668C261.906 249.668 261.418 249.879 261.059 250.301C260.699 250.719 260.52 251.297 260.52 252.035C260.52 252.746 260.701 253.307 261.064 253.717C261.428 254.127 261.914 254.332 262.523 254.332C263.145 254.332 263.621 254.131 263.953 253.729C264.289 253.326 264.457 252.754 264.457 252.012C264.457 251.262 264.289 250.684 263.953 250.277C263.621 249.871 263.145 249.668 262.523 249.668ZM274.535 249L272.736 255H271.74L270.504 250.705C270.457 250.541 270.426 250.355 270.41 250.148H270.387C270.375 250.289 270.334 250.471 270.264 250.693L268.922 255H267.961L266.145 249H267.152L268.395 253.512C268.434 253.648 268.461 253.828 268.477 254.051H268.523C268.535 253.879 268.57 253.695 268.629 253.5L270.012 249H270.891L272.133 253.523C272.172 253.668 272.201 253.848 272.221 254.062H272.268C272.275 253.91 272.309 253.73 272.367 253.523L273.586 249H274.535Z" fill="#242424"/>
<rect x="24" y="278" width="16" height="16" rx="2" fill="#0F6CBD"/>
<path d="M35.765 283.205C36.0661 283.489 36.0797 283.964 35.7953 284.265L31.5453 288.765C31.4061 288.912 31.2133 288.997 31.0107 289C30.8081 289.003 30.6129 288.924 30.4697 288.78L28.2197 286.53C27.9268 286.237 27.9268 285.763 28.2197 285.47C28.5126 285.177 28.9874 285.177 29.2803 285.47L30.9846 287.174L34.7047 283.235C34.9891 282.934 35.4638 282.92 35.765 283.205Z" fill="white"/>
<path d="M52.8271 291.604V290.25C52.9821 290.387 53.1667 290.51 53.3809 290.619C53.5996 290.729 53.8275 290.822 54.0645 290.899C54.306 290.972 54.5475 291.029 54.7891 291.07C55.0306 291.111 55.2539 291.132 55.459 291.132C56.1654 291.132 56.6917 291.002 57.0381 290.742C57.389 290.478 57.5645 290.1 57.5645 289.607C57.5645 289.343 57.5052 289.113 57.3867 288.917C57.2728 288.721 57.1133 288.543 56.9082 288.384C56.7031 288.22 56.4593 288.065 56.1768 287.919C55.8988 287.769 55.598 287.611 55.2744 287.447C54.9326 287.274 54.6136 287.099 54.3174 286.921C54.0212 286.743 53.7637 286.547 53.5449 286.333C53.3262 286.119 53.153 285.877 53.0254 285.608C52.9023 285.335 52.8408 285.016 52.8408 284.651C52.8408 284.205 52.9388 283.817 53.1348 283.489C53.3307 283.157 53.5882 282.883 53.9072 282.669C54.2262 282.455 54.5885 282.295 54.9941 282.19C55.4043 282.086 55.8213 282.033 56.2451 282.033C57.2113 282.033 57.9154 282.149 58.3574 282.382V283.674C57.7786 283.273 57.0358 283.072 56.1289 283.072C55.8783 283.072 55.6276 283.1 55.377 283.154C55.1263 283.204 54.903 283.289 54.707 283.407C54.5111 283.526 54.3516 283.678 54.2285 283.865C54.1055 284.052 54.0439 284.28 54.0439 284.549C54.0439 284.799 54.0895 285.016 54.1807 285.198C54.2764 285.381 54.4154 285.547 54.5977 285.697C54.7799 285.848 55.001 285.993 55.2607 286.135C55.5251 286.276 55.8281 286.431 56.1699 286.6C56.5208 286.773 56.8535 286.955 57.168 287.146C57.4824 287.338 57.7581 287.55 57.9951 287.782C58.2321 288.015 58.4189 288.272 58.5557 288.555C58.6969 288.837 58.7676 289.161 58.7676 289.525C58.7676 290.008 58.6719 290.419 58.4805 290.756C58.2936 291.089 58.0384 291.36 57.7148 291.569C57.3958 291.779 57.0267 291.929 56.6074 292.021C56.1882 292.116 55.7461 292.164 55.2812 292.164C55.1263 292.164 54.9349 292.15 54.707 292.123C54.4792 292.1 54.2467 292.064 54.0098 292.014C53.7728 291.968 53.5472 291.911 53.333 291.843C53.1234 291.77 52.9548 291.69 52.8271 291.604ZM66.1982 288.78H61.2559C61.2741 289.56 61.4837 290.161 61.8848 290.585C62.2858 291.009 62.8372 291.221 63.5391 291.221C64.3275 291.221 65.0521 290.961 65.7129 290.441V291.494C65.0977 291.941 64.2842 292.164 63.2725 292.164C62.2835 292.164 61.5065 291.847 60.9414 291.214C60.3763 290.576 60.0938 289.68 60.0938 288.527C60.0938 287.438 60.4014 286.552 61.0166 285.868C61.6364 285.18 62.4043 284.836 63.3203 284.836C64.2363 284.836 64.945 285.132 65.4463 285.725C65.9476 286.317 66.1982 287.14 66.1982 288.192V288.78ZM65.0498 287.83C65.0452 287.183 64.888 286.679 64.5781 286.319C64.2728 285.959 63.8467 285.779 63.2998 285.779C62.7712 285.779 62.3223 285.968 61.9531 286.347C61.584 286.725 61.3561 287.219 61.2695 287.83H65.0498ZM69.0215 292H67.9004V281.637H69.0215V292ZM74.75 282.621C74.5312 282.498 74.2829 282.437 74.0049 282.437C73.221 282.437 72.8291 282.931 72.8291 283.92V285H74.4697V285.957H72.8291V292H71.7148V285.957H70.5186V285H71.7148V283.865C71.7148 283.132 71.9268 282.553 72.3506 282.129C72.7744 281.701 73.3031 281.486 73.9365 281.486C74.2783 281.486 74.5495 281.527 74.75 281.609V282.621ZM78.5645 288.541H74.832V287.659H78.5645V288.541ZM86.3984 292H85.2773V287.967C85.2773 286.508 84.735 285.779 83.6504 285.779C83.1035 285.779 82.6432 285.991 82.2695 286.415C81.8958 286.834 81.709 287.374 81.709 288.035V292H80.5879V281.637H81.709V286.162H81.7363C82.2741 285.278 83.0397 284.836 84.0332 284.836C85.61 284.836 86.3984 285.786 86.3984 287.687V292ZM93.5283 292H92.4072V290.906H92.3799C91.8923 291.745 91.1745 292.164 90.2266 292.164C89.5293 292.164 88.9824 291.979 88.5859 291.61C88.194 291.241 87.998 290.751 87.998 290.141C87.998 288.833 88.7682 288.072 90.3086 287.857L92.4072 287.563C92.4072 286.374 91.9264 285.779 90.9648 285.779C90.1217 285.779 89.3607 286.066 88.6816 286.641V285.492C89.3698 285.055 90.1628 284.836 91.0605 284.836C92.7057 284.836 93.5283 285.706 93.5283 287.447V292ZM92.4072 288.459L90.7188 288.691C90.1992 288.764 89.8073 288.894 89.543 289.081C89.2786 289.263 89.1465 289.589 89.1465 290.059C89.1465 290.4 89.2673 290.681 89.5088 290.899C89.7549 291.114 90.0807 291.221 90.4863 291.221C91.0423 291.221 91.5003 291.027 91.8604 290.64C92.2249 290.248 92.4072 289.753 92.4072 289.156V288.459ZM99.291 286.135C99.0951 285.984 98.8125 285.909 98.4434 285.909C97.9648 285.909 97.5638 286.135 97.2402 286.586C96.9212 287.037 96.7617 287.652 96.7617 288.432V292H95.6406V285H96.7617V286.442H96.7891C96.9486 285.95 97.1924 285.567 97.5205 285.294C97.8486 285.016 98.2155 284.877 98.6211 284.877C98.9128 284.877 99.1361 284.909 99.291 284.973V286.135ZM110.42 292H109.299V287.98C109.299 287.206 109.178 286.645 108.937 286.299C108.7 285.952 108.299 285.779 107.733 285.779C107.255 285.779 106.847 285.998 106.51 286.436C106.177 286.873 106.011 287.397 106.011 288.008V292H104.89V287.844C104.89 286.467 104.359 285.779 103.297 285.779C102.805 285.779 102.399 285.987 102.08 286.401C101.761 286.812 101.602 287.347 101.602 288.008V292H100.48V285H101.602V286.107H101.629C102.126 285.26 102.85 284.836 103.803 284.836C104.281 284.836 104.698 284.97 105.054 285.239C105.409 285.504 105.653 285.852 105.785 286.285C106.305 285.319 107.079 284.836 108.109 284.836C109.65 284.836 110.42 285.786 110.42 287.687V292Z" fill="#242424"/>
<rect x="136" y="284" width="380" height="4" rx="2" fill="#616161"/>
<path d="M136 287C136 287.552 136.448 288 137 288V288V284V284C136.448 284 136 284.448 136 285V287Z" fill="#0F6CBD"/>
<rect width="1" height="4" transform="matrix(-1 0 0 1 263.003 284)" fill="white"/>
<rect width="1" height="4" transform="matrix(-1 0 0 1 389.997 284)" fill="white"/>
<rect x="128.5" y="276.5" width="19" height="19" rx="9.5" fill="white"/>
<rect x="128.5" y="276.5" width="19" height="19" rx="9.5" stroke="#D1D1D1"/>
<rect x="132" y="280" width="12" height="12" rx="6" fill="#0F6CBD"/>
<path d="M143.875 311H142.668L138.344 304.303C138.234 304.135 138.145 303.959 138.074 303.775H138.039C138.07 303.955 138.086 304.34 138.086 304.93V311H137.102V302.598H138.379L142.586 309.189C142.762 309.463 142.875 309.65 142.926 309.752H142.949C142.91 309.51 142.891 309.098 142.891 308.516V302.598H143.875V311ZM148.457 311.141C147.57 311.141 146.861 310.861 146.33 310.303C145.803 309.74 145.539 308.996 145.539 308.07C145.539 307.062 145.814 306.275 146.365 305.709C146.916 305.143 147.66 304.859 148.598 304.859C149.492 304.859 150.189 305.135 150.689 305.686C151.193 306.236 151.445 307 151.445 307.977C151.445 308.934 151.174 309.701 150.631 310.279C150.092 310.854 149.367 311.141 148.457 311.141ZM148.527 305.668C147.91 305.668 147.422 305.879 147.062 306.301C146.703 306.719 146.523 307.297 146.523 308.035C146.523 308.746 146.705 309.307 147.068 309.717C147.432 310.127 147.918 310.332 148.527 310.332C149.148 310.332 149.625 310.131 149.957 309.729C150.293 309.326 150.461 308.754 150.461 308.012C150.461 307.262 150.293 306.684 149.957 306.277C149.625 305.871 149.148 305.668 148.527 305.668ZM159.238 302.961C159.051 302.855 158.838 302.803 158.6 302.803C157.928 302.803 157.592 303.227 157.592 304.074V305H158.998V305.82H157.592V311H156.637V305.82H155.611V305H156.637V304.027C156.637 303.398 156.818 302.902 157.182 302.539C157.545 302.172 157.998 301.988 158.541 301.988C158.834 301.988 159.066 302.023 159.238 302.094V302.961ZM160.527 303.477C160.355 303.477 160.209 303.418 160.088 303.301C159.967 303.184 159.906 303.035 159.906 302.855C159.906 302.676 159.967 302.527 160.088 302.41C160.209 302.289 160.355 302.229 160.527 302.229C160.703 302.229 160.852 302.289 160.973 302.41C161.098 302.527 161.16 302.676 161.16 302.855C161.16 303.027 161.098 303.174 160.973 303.295C160.852 303.416 160.703 303.477 160.527 303.477ZM160.996 311H160.035V305H160.996V311ZM163.902 311H162.941V302.117H163.902V311ZM168.631 310.941C168.404 311.066 168.105 311.129 167.734 311.129C166.684 311.129 166.158 310.543 166.158 309.371V305.82H165.127V305H166.158V303.535L167.119 303.225V305H168.631V305.82H167.119V309.201C167.119 309.604 167.188 309.891 167.324 310.062C167.461 310.234 167.688 310.32 168.004 310.32C168.246 310.32 168.455 310.254 168.631 310.121V310.941ZM174.643 308.24H170.406C170.422 308.908 170.602 309.424 170.945 309.787C171.289 310.15 171.762 310.332 172.363 310.332C173.039 310.332 173.66 310.109 174.227 309.664V310.566C173.699 310.949 173.002 311.141 172.135 311.141C171.287 311.141 170.621 310.869 170.137 310.326C169.652 309.779 169.41 309.012 169.41 308.023C169.41 307.09 169.674 306.33 170.201 305.744C170.732 305.154 171.391 304.859 172.176 304.859C172.961 304.859 173.568 305.113 173.998 305.621C174.428 306.129 174.643 306.834 174.643 307.736V308.24ZM173.658 307.426C173.654 306.871 173.52 306.439 173.254 306.131C172.992 305.822 172.627 305.668 172.158 305.668C171.705 305.668 171.32 305.83 171.004 306.154C170.688 306.479 170.492 306.902 170.418 307.426H173.658ZM179.23 305.973C179.062 305.844 178.82 305.779 178.504 305.779C178.094 305.779 177.75 305.973 177.473 306.359C177.199 306.746 177.062 307.273 177.062 307.941V311H176.102V305H177.062V306.236H177.086C177.223 305.814 177.432 305.486 177.713 305.252C177.994 305.014 178.309 304.895 178.656 304.895C178.906 304.895 179.098 304.922 179.23 304.977V305.973Z" fill="#BC4B09"/>
<path d="M190.75 308.249C190.75 308.663 190.414 308.999 190 308.999C189.586 308.999 189.25 308.663 189.25 308.249C189.25 307.835 189.586 307.499 190 307.499C190.414 307.499 190.75 307.835 190.75 308.249ZM189.5 305.999C189.5 306.275 189.724 306.499 190 306.499C190.276 306.499 190.5 306.275 190.5 305.999V303.499C190.5 303.223 190.276 302.999 190 302.999C189.724 302.999 189.5 303.223 189.5 303.499V305.999ZM188.909 300.636C189.386 299.783 190.614 299.783 191.091 300.636L195.841 309.138C196.307 309.971 195.705 310.998 194.75 310.998H185.247C184.292 310.998 183.69 309.971 184.156 309.138L188.909 300.636ZM190.218 301.124C190.123 300.953 189.877 300.953 189.781 301.124L185.029 309.626C184.936 309.792 185.056 309.998 185.247 309.998H194.75C194.941 309.998 195.062 309.792 194.968 309.626L190.218 301.124Z" fill="#BC4B09"/>
<path d="M16.709 340.66V339.5C16.8418 339.617 17 339.723 17.1836 339.816C17.3711 339.91 17.5664 339.99 17.7695 340.057C17.9766 340.119 18.1836 340.168 18.3906 340.203C18.5977 340.238 18.7891 340.256 18.9648 340.256C19.5703 340.256 20.0215 340.145 20.3184 339.922C20.6191 339.695 20.7695 339.371 20.7695 338.949C20.7695 338.723 20.7188 338.525 20.6172 338.357C20.5195 338.189 20.3828 338.037 20.207 337.9C20.0312 337.76 19.8223 337.627 19.5801 337.502C19.3418 337.373 19.084 337.238 18.8066 337.098C18.5137 336.949 18.2402 336.799 17.9863 336.646C17.7324 336.494 17.5117 336.326 17.3242 336.143C17.1367 335.959 16.9883 335.752 16.8789 335.521C16.7734 335.287 16.7207 335.014 16.7207 334.701C16.7207 334.318 16.8047 333.986 16.9727 333.705C17.1406 333.42 17.3613 333.186 17.6348 333.002C17.9082 332.818 18.2188 332.682 18.5664 332.592C18.918 332.502 19.2754 332.457 19.6387 332.457C20.4668 332.457 21.0703 332.557 21.4492 332.756V333.863C20.9531 333.52 20.3164 333.348 19.5391 333.348C19.3242 333.348 19.1094 333.371 18.8945 333.418C18.6797 333.461 18.4883 333.533 18.3203 333.635C18.1523 333.736 18.0156 333.867 17.9102 334.027C17.8047 334.188 17.752 334.383 17.752 334.613C17.752 334.828 17.791 335.014 17.8691 335.17C17.9512 335.326 18.0703 335.469 18.2266 335.598C18.3828 335.727 18.5723 335.852 18.7949 335.973C19.0215 336.094 19.2812 336.227 19.5742 336.371C19.875 336.52 20.1602 336.676 20.4297 336.84C20.6992 337.004 20.9355 337.186 21.1387 337.385C21.3418 337.584 21.502 337.805 21.6191 338.047C21.7402 338.289 21.8008 338.566 21.8008 338.879C21.8008 339.293 21.7188 339.645 21.5547 339.934C21.3945 340.219 21.1758 340.451 20.8984 340.631C20.625 340.811 20.3086 340.939 19.9492 341.018C19.5898 341.1 19.2109 341.141 18.8125 341.141C18.6797 341.141 18.5156 341.129 18.3203 341.105C18.125 341.086 17.9258 341.055 17.7227 341.012C17.5195 340.973 17.3262 340.924 17.1426 340.865C16.9629 340.803 16.8184 340.734 16.709 340.66ZM28.1699 338.24H23.9336C23.9492 338.908 24.1289 339.424 24.4727 339.787C24.8164 340.15 25.2891 340.332 25.8906 340.332C26.5664 340.332 27.1875 340.109 27.7539 339.664V340.566C27.2266 340.949 26.5293 341.141 25.6621 341.141C24.8145 341.141 24.1484 340.869 23.6641 340.326C23.1797 339.779 22.9375 339.012 22.9375 338.023C22.9375 337.09 23.2012 336.33 23.7285 335.744C24.2598 335.154 24.918 334.859 25.7031 334.859C26.4883 334.859 27.0957 335.113 27.5254 335.621C27.9551 336.129 28.1699 336.834 28.1699 337.736V338.24ZM27.1855 337.426C27.1816 336.871 27.0469 336.439 26.7812 336.131C26.5195 335.822 26.1543 335.668 25.6855 335.668C25.2324 335.668 24.8477 335.83 24.5312 336.154C24.2148 336.479 24.0195 336.902 23.9453 337.426H27.1855ZM34.3457 335L31.9551 341H31.0117L28.7383 335H29.793L31.3164 339.359C31.4297 339.68 31.5 339.959 31.5273 340.197H31.5508C31.5898 339.896 31.6523 339.625 31.7383 339.383L33.332 335H34.3457ZM40.1348 338.24H35.8984C35.9141 338.908 36.0938 339.424 36.4375 339.787C36.7812 340.15 37.2539 340.332 37.8555 340.332C38.5312 340.332 39.1523 340.109 39.7188 339.664V340.566C39.1914 340.949 38.4941 341.141 37.627 341.141C36.7793 341.141 36.1133 340.869 35.6289 340.326C35.1445 339.779 34.9023 339.012 34.9023 338.023C34.9023 337.09 35.166 336.33 35.6934 335.744C36.2246 335.154 36.8828 334.859 37.668 334.859C38.4531 334.859 39.0605 335.113 39.4902 335.621C39.9199 336.129 40.1348 336.834 40.1348 337.736V338.24ZM39.1504 337.426C39.1465 336.871 39.0117 336.439 38.7461 336.131C38.4844 335.822 38.1191 335.668 37.6504 335.668C37.1973 335.668 36.8125 335.83 36.4961 336.154C36.1797 336.479 35.9844 336.902 35.9102 337.426H39.1504ZM44.7227 335.973C44.5547 335.844 44.3125 335.779 43.9961 335.779C43.5859 335.779 43.2422 335.973 42.9648 336.359C42.6914 336.746 42.5547 337.273 42.5547 337.941V341H41.5938V335H42.5547V336.236H42.5781C42.7148 335.814 42.9238 335.486 43.2051 335.252C43.4863 335.014 43.8008 334.895 44.1484 334.895C44.3984 334.895 44.5898 334.922 44.7227 334.977V335.973ZM46.2578 333.477C46.0859 333.477 45.9395 333.418 45.8184 333.301C45.6973 333.184 45.6367 333.035 45.6367 332.855C45.6367 332.676 45.6973 332.527 45.8184 332.41C45.9395 332.289 46.0859 332.229 46.2578 332.229C46.4336 332.229 46.582 332.289 46.7031 332.41C46.8281 332.527 46.8906 332.676 46.8906 332.855C46.8906 333.027 46.8281 333.174 46.7031 333.295C46.582 333.416 46.4336 333.477 46.2578 333.477ZM46.7266 341H45.7656V335H46.7266V341ZM51.4551 340.941C51.2285 341.066 50.9297 341.129 50.5586 341.129C49.5078 341.129 48.9824 340.543 48.9824 339.371V335.82H47.9512V335H48.9824V333.535L49.9434 333.225V335H51.4551V335.82H49.9434V339.201C49.9434 339.604 50.0117 339.891 50.1484 340.062C50.2852 340.234 50.5117 340.32 50.8281 340.32C51.0703 340.32 51.2793 340.254 51.4551 340.121V340.941ZM57.5137 335L54.7539 341.961C54.2617 343.203 53.5703 343.824 52.6797 343.824C52.4297 343.824 52.2207 343.799 52.0527 343.748V342.887C52.2598 342.957 52.4492 342.992 52.6211 342.992C53.1055 342.992 53.4688 342.703 53.7109 342.125L54.1914 340.988L51.8477 335H52.9141L54.5371 339.617C54.5566 339.676 54.5977 339.828 54.6602 340.074H54.6953C54.7148 339.98 54.7539 339.832 54.8125 339.629L56.5176 335H57.5137ZM66.666 338.24H62.4297C62.4453 338.908 62.625 339.424 62.9688 339.787C63.3125 340.15 63.7852 340.332 64.3867 340.332C65.0625 340.332 65.6836 340.109 66.25 339.664V340.566C65.7227 340.949 65.0254 341.141 64.1582 341.141C63.3105 341.141 62.6445 340.869 62.1602 340.326C61.6758 339.779 61.4336 339.012 61.4336 338.023C61.4336 337.09 61.6973 336.33 62.2246 335.744C62.7559 335.154 63.4141 334.859 64.1992 334.859C64.9844 334.859 65.5918 335.113 66.0215 335.621C66.4512 336.129 66.666 336.834 66.666 337.736V338.24ZM65.6816 337.426C65.6777 336.871 65.543 336.439 65.2773 336.131C65.0156 335.822 64.6504 335.668 64.1816 335.668C63.7285 335.668 63.3438 335.83 63.0273 336.154C62.7109 336.479 62.5156 336.902 62.4414 337.426H65.6816ZM72.5078 335L70.4922 338.035L72.4727 341H71.3535L70.1758 339.055C70.1016 338.934 70.0137 338.781 69.9121 338.598H69.8887C69.8691 338.633 69.7773 338.785 69.6133 339.055L68.4121 341H67.3047L69.3496 338.059L67.3926 335H68.5117L69.6719 337.051C69.7578 337.203 69.8418 337.359 69.9238 337.52H69.9473L71.4473 335H72.5078ZM77.9277 341H76.9668V340.062H76.9434C76.5254 340.781 75.9102 341.141 75.0977 341.141C74.5 341.141 74.0312 340.982 73.6914 340.666C73.3555 340.35 73.1875 339.93 73.1875 339.406C73.1875 338.285 73.8477 337.633 75.168 337.449L76.9668 337.197C76.9668 336.178 76.5547 335.668 75.7305 335.668C75.0078 335.668 74.3555 335.914 73.7734 336.406V335.422C74.3633 335.047 75.043 334.859 75.8125 334.859C77.2227 334.859 77.9277 335.605 77.9277 337.098V341ZM76.9668 337.965L75.5195 338.164C75.0742 338.227 74.7383 338.338 74.5117 338.498C74.2852 338.654 74.1719 338.934 74.1719 339.336C74.1719 339.629 74.2754 339.869 74.4824 340.057C74.6934 340.24 74.9727 340.332 75.3203 340.332C75.7969 340.332 76.1895 340.166 76.498 339.834C76.8105 339.498 76.9668 339.074 76.9668 338.562V337.965ZM88.2578 341H87.2969V337.555C87.2969 336.891 87.1934 336.41 86.9863 336.113C86.7832 335.816 86.4395 335.668 85.9551 335.668C85.5449 335.668 85.1953 335.855 84.9062 336.23C84.6211 336.605 84.4785 337.055 84.4785 337.578V341H83.5176V337.438C83.5176 336.258 83.0625 335.668 82.1523 335.668C81.7305 335.668 81.3828 335.846 81.1094 336.201C80.8359 336.553 80.6992 337.012 80.6992 337.578V341H79.7383V335H80.6992V335.949H80.7227C81.1484 335.223 81.7695 334.859 82.5859 334.859C82.9961 334.859 83.3535 334.975 83.6582 335.205C83.9629 335.432 84.1719 335.73 84.2852 336.102C84.7305 335.273 85.3945 334.859 86.2773 334.859C87.5977 334.859 88.2578 335.674 88.2578 337.303V341ZM91.0586 340.133H91.0352V343.76H90.0742V335H91.0352V336.055H91.0586C91.5312 335.258 92.2227 334.859 93.1328 334.859C93.9062 334.859 94.5098 335.129 94.9434 335.668C95.377 336.203 95.5938 336.922 95.5938 337.824C95.5938 338.828 95.3496 339.633 94.8613 340.238C94.373 340.84 93.7051 341.141 92.8574 341.141C92.0801 341.141 91.4805 340.805 91.0586 340.133ZM91.0352 337.713V338.551C91.0352 339.047 91.1953 339.469 91.5156 339.816C91.8398 340.16 92.25 340.332 92.7461 340.332C93.3281 340.332 93.7832 340.109 94.1113 339.664C94.4434 339.219 94.6094 338.6 94.6094 337.807C94.6094 337.139 94.4551 336.615 94.1465 336.236C93.8379 335.857 93.4199 335.668 92.8926 335.668C92.334 335.668 91.8848 335.863 91.5449 336.254C91.2051 336.641 91.0352 337.127 91.0352 337.713ZM98.0898 341H97.1289V332.117H98.0898V341ZM104.857 338.24H100.621C100.637 338.908 100.816 339.424 101.16 339.787C101.504 340.15 101.977 340.332 102.578 340.332C103.254 340.332 103.875 340.109 104.441 339.664V340.566C103.914 340.949 103.217 341.141 102.35 341.141C101.502 341.141 100.836 340.869 100.352 340.326C99.8672 339.779 99.625 339.012 99.625 338.023C99.625 337.09 99.8887 336.33 100.416 335.744C100.947 335.154 101.605 334.859 102.391 334.859C103.176 334.859 103.783 335.113 104.213 335.621C104.643 336.129 104.857 336.834 104.857 337.736V338.24ZM103.873 337.426C103.869 336.871 103.734 336.439 103.469 336.131C103.207 335.822 102.842 335.668 102.373 335.668C101.92 335.668 101.535 335.83 101.219 336.154C100.902 336.479 100.707 336.902 100.633 337.426H103.873Z" fill="#115EA3"/>
<path d="M112.5 331C111.672 331 111 331.672 111 332.5V339.5C111 340.328 111.672 341 112.5 341H119.5C120.328 341 121 340.328 121 339.5V337.269C121 336.993 121.224 336.769 121.5 336.769C121.776 336.769 122 336.993 122 337.269V339.5C122 340.881 120.881 342 119.5 342H112.5C111.119 342 110 340.881 110 339.5V332.5C110 331.119 111.119 330 112.5 330H114.731C115.007 330 115.231 330.224 115.231 330.5C115.231 330.776 115.007 331 114.731 331H112.5ZM116.769 330.5C116.769 330.224 116.993 330 117.269 330H121.5C121.776 330 122 330.224 122 330.5V334.731C122 335.007 121.776 335.231 121.5 335.231C121.224 335.231 121 335.007 121 334.731V331.707L117.623 335.084C117.428 335.28 117.111 335.28 116.916 335.084C116.72 334.889 116.72 334.572 116.916 334.377L120.293 331H117.269C116.993 331 116.769 330.776 116.769 330.5Z" fill="#115EA3"/>
</svg>
