<svg width="540" height="360" viewBox="0 0 540 360" fill="none" xmlns="http://www.w3.org/2000/svg">
<rect x="0.5" y="0.5" width="539" height="359" rx="3.5" fill="white"/>
<rect x="0.5" y="0.5" width="539" height="359" rx="3.5" stroke="#F0F0F0"/>
<path d="M25.1953 33.5312C24.3516 33.9688 23.3021 34.1875 22.0469 34.1875C20.4219 34.1875 19.1198 33.6745 18.1406 32.6484C17.1615 31.6224 16.6719 30.276 16.6719 28.6094C16.6719 26.8177 17.2214 25.3698 18.3203 24.2656C19.4245 23.1615 20.8177 22.6094 22.5 22.6094C23.5833 22.6094 24.4818 22.763 25.1953 23.0703V24.9141C24.4401 24.4661 23.6068 24.2422 22.6953 24.2422C21.4818 24.2422 20.4974 24.6302 19.7422 25.4062C18.9922 26.1823 18.6172 27.2188 18.6172 28.5156C18.6172 29.75 18.9688 30.7344 19.6719 31.4688C20.375 32.1979 21.2995 32.5625 22.4453 32.5625C23.5026 32.5625 24.4193 32.3125 25.1953 31.8125V33.5312ZM30.6641 34.1875C29.4297 34.1875 28.4427 33.8151 27.7031 33.0703C26.9688 32.3203 26.6016 31.3281 26.6016 30.0938C26.6016 28.75 26.9844 27.7005 27.75 26.9453C28.5208 26.1901 29.5573 25.8125 30.8594 25.8125C32.1094 25.8125 33.0833 26.1797 33.7812 26.9141C34.4792 27.6484 34.8281 28.6667 34.8281 29.9688C34.8281 31.2448 34.4505 32.2682 33.6953 33.0391C32.9453 33.8047 31.9349 34.1875 30.6641 34.1875ZM30.75 27.2578C30.0417 27.2578 29.4818 27.5052 29.0703 28C28.6589 28.4948 28.4531 29.1771 28.4531 30.0469C28.4531 30.8854 28.6615 31.5469 29.0781 32.0312C29.4948 32.5104 30.0521 32.75 30.75 32.75C31.4635 32.75 32.0104 32.513 32.3906 32.0391C32.776 31.5651 32.9688 30.8906 32.9688 30.0156C32.9688 29.1354 32.776 28.4557 32.3906 27.9766C32.0104 27.4974 31.4635 27.2578 30.75 27.2578ZM43.8047 34H41.9922V29.4922C41.9922 27.9974 41.4635 27.25 40.4062 27.25C39.8542 27.25 39.3984 27.4583 39.0391 27.875C38.6797 28.2865 38.5 28.8073 38.5 29.4375V34H36.6797V26H38.5V27.3281H38.5312C39.1302 26.3177 39.9948 25.8125 41.125 25.8125C41.9948 25.8125 42.6589 26.0964 43.1172 26.6641C43.5755 27.2266 43.8047 28.0417 43.8047 29.1094V34ZM50.2422 33.9141C49.888 34.0911 49.4219 34.1797 48.8438 34.1797C47.2917 34.1797 46.5156 33.4349 46.5156 31.9453V27.4219H45.1797V26H46.5156V24.1484L48.3281 23.6328V26H50.2422V27.4219H48.3281V31.4219C48.3281 31.8958 48.4141 32.2344 48.5859 32.4375C48.7578 32.6406 49.0443 32.7422 49.4453 32.7422C49.7526 32.7422 50.0182 32.6536 50.2422 32.4766V33.9141ZM58.4844 30.4922H53.0312C53.0521 31.2318 53.2786 31.8021 53.7109 32.2031C54.1484 32.6042 54.7474 32.8047 55.5078 32.8047C56.362 32.8047 57.1458 32.5495 57.8594 32.0391V33.5C57.1302 33.9583 56.1667 34.1875 54.9688 34.1875C53.7917 34.1875 52.8672 33.8255 52.1953 33.1016C51.5286 32.3724 51.1953 31.349 51.1953 30.0312C51.1953 28.7865 51.5625 27.7734 52.2969 26.9922C53.0365 26.2057 53.9531 25.8125 55.0469 25.8125C56.1406 25.8125 56.987 26.1641 57.5859 26.8672C58.1849 27.5703 58.4844 28.5469 58.4844 29.7969V30.4922ZM56.7344 29.2109C56.7292 28.5599 56.5755 28.0547 56.2734 27.6953C55.9714 27.3307 55.5547 27.1484 55.0234 27.1484C54.5026 27.1484 54.0599 27.3385 53.6953 27.7188C53.3359 28.099 53.1146 28.5964 53.0312 29.2109H56.7344ZM67.3359 34H65.5234V29.4922C65.5234 27.9974 64.9948 27.25 63.9375 27.25C63.3854 27.25 62.9297 27.4583 62.5703 27.875C62.2109 28.2865 62.0312 28.8073 62.0312 29.4375V34H60.2109V26H62.0312V27.3281H62.0625C62.6615 26.3177 63.526 25.8125 64.6562 25.8125C65.526 25.8125 66.1901 26.0964 66.6484 26.6641C67.1068 27.2266 67.3359 28.0417 67.3359 29.1094V34ZM73.7734 33.9141C73.4193 34.0911 72.9531 34.1797 72.375 34.1797C70.8229 34.1797 70.0469 33.4349 70.0469 31.9453V27.4219H68.7109V26H70.0469V24.1484L71.8594 23.6328V26H73.7734V27.4219H71.8594V31.4219C71.8594 31.8958 71.9453 32.2344 72.1172 32.4375C72.2891 32.6406 72.5755 32.7422 72.9766 32.7422C73.2839 32.7422 73.5495 32.6536 73.7734 32.4766V33.9141ZM84.2656 23.6328C84.0208 23.4922 83.7422 23.4219 83.4297 23.4219C82.5495 23.4219 82.1094 23.9193 82.1094 24.9141V26H83.9688V27.4219H82.1172V34H80.3047V27.4219H78.9375V26H80.3047V24.7031C80.3047 23.8594 80.5807 23.1953 81.1328 22.7109C81.6849 22.2214 82.375 21.9766 83.2031 21.9766C83.651 21.9766 84.0052 22.026 84.2656 22.125V23.6328ZM86.1719 24.3203C85.875 24.3203 85.6198 24.224 85.4062 24.0312C85.1979 23.8385 85.0938 23.5938 85.0938 23.2969C85.0938 23 85.1979 22.7526 85.4062 22.5547C85.6198 22.3568 85.875 22.2578 86.1719 22.2578C86.4792 22.2578 86.7396 22.3568 86.9531 22.5547C87.1667 22.7526 87.2734 23 87.2734 23.2969C87.2734 23.5781 87.1667 23.8203 86.9531 24.0234C86.7396 24.2214 86.4792 24.3203 86.1719 24.3203ZM87.0703 34H85.2578V26H87.0703V34ZM91.2656 34H89.4453V22.1562H91.2656V34ZM97.8516 33.9141C97.4974 34.0911 97.0312 34.1797 96.4531 34.1797C94.901 34.1797 94.125 33.4349 94.125 31.9453V27.4219H92.7891V26H94.125V24.1484L95.9375 23.6328V26H97.8516V27.4219H95.9375V31.4219C95.9375 31.8958 96.0234 32.2344 96.1953 32.4375C96.3672 32.6406 96.6536 32.7422 97.0547 32.7422C97.362 32.7422 97.6276 32.6536 97.8516 32.4766V33.9141ZM106.094 30.4922H100.641C100.661 31.2318 100.888 31.8021 101.32 32.2031C101.758 32.6042 102.357 32.8047 103.117 32.8047C103.971 32.8047 104.755 32.5495 105.469 32.0391V33.5C104.74 33.9583 103.776 34.1875 102.578 34.1875C101.401 34.1875 100.477 33.8255 99.8047 33.1016C99.138 32.3724 98.8047 31.349 98.8047 30.0312C98.8047 28.7865 99.1719 27.7734 99.9062 26.9922C100.646 26.2057 101.562 25.8125 102.656 25.8125C103.75 25.8125 104.596 26.1641 105.195 26.8672C105.794 27.5703 106.094 28.5469 106.094 29.7969V30.4922ZM104.344 29.2109C104.339 28.5599 104.185 28.0547 103.883 27.6953C103.581 27.3307 103.164 27.1484 102.633 27.1484C102.112 27.1484 101.669 27.3385 101.305 27.7188C100.945 28.099 100.724 28.5964 100.641 29.2109H104.344ZM112.461 27.7266C112.242 27.5547 111.927 27.4688 111.516 27.4688C110.979 27.4688 110.531 27.7109 110.172 28.1953C109.812 28.6797 109.633 29.3385 109.633 30.1719V34H107.82V26H109.633V27.6484H109.664C109.841 27.0859 110.112 26.6484 110.477 26.3359C110.846 26.0182 111.258 25.8594 111.711 25.8594C112.039 25.8594 112.289 25.9089 112.461 26.0078V27.7266Z" fill="#242424"/>
<path d="M16.709 66.6602V65.5C16.8418 65.6172 17 65.7227 17.1836 65.8164C17.3711 65.9102 17.5664 65.9902 17.7695 66.0566C17.9766 66.1191 18.1836 66.168 18.3906 66.2031C18.5977 66.2383 18.7891 66.2559 18.9648 66.2559C19.5703 66.2559 20.0215 66.1445 20.3184 65.9219C20.6191 65.6953 20.7695 65.3711 20.7695 64.9492C20.7695 64.7227 20.7188 64.5254 20.6172 64.3574C20.5195 64.1895 20.3828 64.0371 20.207 63.9004C20.0312 63.7598 19.8223 63.627 19.5801 63.502C19.3418 63.373 19.084 63.2383 18.8066 63.0977C18.5137 62.9492 18.2402 62.7988 17.9863 62.6465C17.7324 62.4941 17.5117 62.3262 17.3242 62.1426C17.1367 61.959 16.9883 61.752 16.8789 61.5215C16.7734 61.2871 16.7207 61.0137 16.7207 60.7012C16.7207 60.3184 16.8047 59.9863 16.9727 59.7051C17.1406 59.4199 17.3613 59.1855 17.6348 59.002C17.9082 58.8184 18.2188 58.6816 18.5664 58.5918C18.918 58.502 19.2754 58.457 19.6387 58.457C20.4668 58.457 21.0703 58.5566 21.4492 58.7559V59.8633C20.9531 59.5195 20.3164 59.3477 19.5391 59.3477C19.3242 59.3477 19.1094 59.3711 18.8945 59.418C18.6797 59.4609 18.4883 59.5332 18.3203 59.6348C18.1523 59.7363 18.0156 59.8672 17.9102 60.0273C17.8047 60.1875 17.752 60.3828 17.752 60.6133C17.752 60.8281 17.791 61.0137 17.8691 61.1699C17.9512 61.3262 18.0703 61.4688 18.2266 61.5977C18.3828 61.7266 18.5723 61.8516 18.7949 61.9727C19.0215 62.0938 19.2812 62.2266 19.5742 62.3711C19.875 62.5195 20.1602 62.6758 20.4297 62.8398C20.6992 63.0039 20.9355 63.1855 21.1387 63.3848C21.3418 63.584 21.502 63.8047 21.6191 64.0469C21.7402 64.2891 21.8008 64.5664 21.8008 64.8789C21.8008 65.293 21.7188 65.6445 21.5547 65.9336C21.3945 66.2188 21.1758 66.4512 20.8984 66.6309C20.625 66.8105 20.3086 66.9395 19.9492 67.0176C19.5898 67.0996 19.2109 67.1406 18.8125 67.1406C18.6797 67.1406 18.5156 67.1289 18.3203 67.1055C18.125 67.0859 17.9258 67.0547 17.7227 67.0117C17.5195 66.9727 17.3262 66.9238 17.1426 66.8652C16.9629 66.8027 16.8184 66.7344 16.709 66.6602ZM28.1699 64.2402H23.9336C23.9492 64.9082 24.1289 65.4238 24.4727 65.7871C24.8164 66.1504 25.2891 66.332 25.8906 66.332C26.5664 66.332 27.1875 66.1094 27.7539 65.6641V66.5664C27.2266 66.9492 26.5293 67.1406 25.6621 67.1406C24.8145 67.1406 24.1484 66.8691 23.6641 66.3262C23.1797 65.7793 22.9375 65.0117 22.9375 64.0234C22.9375 63.0898 23.2012 62.3301 23.7285 61.7441C24.2598 61.1543 24.918 60.8594 25.7031 60.8594C26.4883 60.8594 27.0957 61.1133 27.5254 61.6211C27.9551 62.1289 28.1699 62.834 28.1699 63.7363V64.2402ZM27.1855 63.4258C27.1816 62.8711 27.0469 62.4395 26.7812 62.1309C26.5195 61.8223 26.1543 61.668 25.6855 61.668C25.2324 61.668 24.8477 61.8301 24.5312 62.1543C24.2148 62.4785 24.0195 62.9023 23.9453 63.4258H27.1855ZM32.4121 66.9414C32.1855 67.0664 31.8867 67.1289 31.5156 67.1289C30.4648 67.1289 29.9395 66.543 29.9395 65.3711V61.8203H28.9082V61H29.9395V59.5352L30.9004 59.2246V61H32.4121V61.8203H30.9004V65.2012C30.9004 65.6035 30.9688 65.8906 31.1055 66.0625C31.2422 66.2344 31.4688 66.3203 31.7852 66.3203C32.0273 66.3203 32.2363 66.2539 32.4121 66.1211V66.9414ZM41.9688 67H41.0078V63.543C41.0078 62.293 40.543 61.668 39.6133 61.668C39.1445 61.668 38.75 61.8496 38.4297 62.2129C38.1094 62.5723 37.9492 63.0352 37.9492 63.6016V67H36.9883V58.1172H37.9492V61.9961H37.9727C38.4336 61.2383 39.0898 60.8594 39.9414 60.8594C41.293 60.8594 41.9688 61.6738 41.9688 63.3027V67ZM46.293 67.1406C45.4062 67.1406 44.6973 66.8613 44.166 66.3027C43.6387 65.7402 43.375 64.9961 43.375 64.0703C43.375 63.0625 43.6504 62.2754 44.2012 61.709C44.752 61.1426 45.4961 60.8594 46.4336 60.8594C47.3281 60.8594 48.0254 61.1348 48.5254 61.6855C49.0293 62.2363 49.2812 63 49.2812 63.9766C49.2812 64.9336 49.0098 65.7012 48.4668 66.2793C47.9277 66.8535 47.2031 67.1406 46.293 67.1406ZM46.3633 61.668C45.7461 61.668 45.2578 61.8789 44.8984 62.3008C44.5391 62.7188 44.3594 63.2969 44.3594 64.0352C44.3594 64.7461 44.541 65.3066 44.9043 65.7168C45.2676 66.127 45.7539 66.332 46.3633 66.332C46.9844 66.332 47.4609 66.1309 47.793 65.7285C48.1289 65.3262 48.2969 64.7539 48.2969 64.0117C48.2969 63.2617 48.1289 62.6836 47.793 62.2773C47.4609 61.8711 46.9844 61.668 46.3633 61.668ZM58.375 61L56.5762 67H55.5801L54.3438 62.7051C54.2969 62.541 54.2656 62.3555 54.25 62.1484H54.2266C54.2148 62.2891 54.1738 62.4707 54.1035 62.6934L52.7617 67H51.8008L49.9844 61H50.9922L52.2344 65.5117C52.2734 65.6484 52.3008 65.8281 52.3164 66.0508H52.3633C52.375 65.8789 52.4102 65.6953 52.4688 65.5L53.8516 61H54.7305L55.9727 65.5234C56.0117 65.668 56.041 65.8477 56.0605 66.0625H56.1074C56.1152 65.9102 56.1484 65.7305 56.207 65.5234L57.4258 61H58.375ZM62.418 66.7832V65.752C62.9414 66.1387 63.5176 66.332 64.1465 66.332C64.9902 66.332 65.4121 66.0508 65.4121 65.4883C65.4121 65.3281 65.375 65.1934 65.3008 65.084C65.2305 64.9707 65.1328 64.8711 65.0078 64.7852C64.8867 64.6992 64.7422 64.623 64.5742 64.5566C64.4102 64.4863 64.2324 64.4141 64.041 64.3398C63.7754 64.2344 63.541 64.1289 63.3379 64.0234C63.1387 63.9141 62.9707 63.793 62.834 63.6602C62.7012 63.5234 62.5996 63.3691 62.5293 63.1973C62.4629 63.0254 62.4297 62.8242 62.4297 62.5938C62.4297 62.3125 62.4941 62.0645 62.623 61.8496C62.752 61.6309 62.9238 61.4492 63.1387 61.3047C63.3535 61.1562 63.5977 61.0449 63.8711 60.9707C64.1484 60.8965 64.4336 60.8594 64.7266 60.8594C65.2461 60.8594 65.7109 60.9492 66.1211 61.1289V62.1016C65.6797 61.8125 65.1719 61.668 64.5977 61.668C64.418 61.668 64.2559 61.6895 64.1113 61.7324C63.9668 61.7715 63.8418 61.8281 63.7363 61.9023C63.6348 61.9766 63.5547 62.0664 63.4961 62.1719C63.4414 62.2734 63.4141 62.3867 63.4141 62.5117C63.4141 62.668 63.4414 62.7988 63.4961 62.9043C63.5547 63.0098 63.6387 63.1035 63.748 63.1855C63.8574 63.2676 63.9902 63.3418 64.1465 63.4082C64.3027 63.4746 64.4805 63.5469 64.6797 63.625C64.9453 63.7266 65.1836 63.832 65.3945 63.9414C65.6055 64.0469 65.7852 64.168 65.9336 64.3047C66.082 64.4375 66.1953 64.5918 66.2734 64.7676C66.3555 64.9434 66.3965 65.1523 66.3965 65.3945C66.3965 65.6914 66.3301 65.9492 66.1973 66.168C66.0684 66.3867 65.8945 66.5684 65.6758 66.7129C65.457 66.8574 65.2051 66.9648 64.9199 67.0352C64.6348 67.1055 64.3359 67.1406 64.0234 67.1406C63.4062 67.1406 62.8711 67.0215 62.418 66.7832ZM72.7012 64.2402H68.4648C68.4805 64.9082 68.6602 65.4238 69.0039 65.7871C69.3477 66.1504 69.8203 66.332 70.4219 66.332C71.0977 66.332 71.7188 66.1094 72.2852 65.6641V66.5664C71.7578 66.9492 71.0605 67.1406 70.1934 67.1406C69.3457 67.1406 68.6797 66.8691 68.1953 66.3262C67.7109 65.7793 67.4688 65.0117 67.4688 64.0234C67.4688 63.0898 67.7324 62.3301 68.2598 61.7441C68.791 61.1543 69.4492 60.8594 70.2344 60.8594C71.0195 60.8594 71.627 61.1133 72.0566 61.6211C72.4863 62.1289 72.7012 62.834 72.7012 63.7363V64.2402ZM71.7168 63.4258C71.7129 62.8711 71.5781 62.4395 71.3125 62.1309C71.0508 61.8223 70.6855 61.668 70.2168 61.668C69.7637 61.668 69.3789 61.8301 69.0625 62.1543C68.7461 62.4785 68.5508 62.9023 68.4766 63.4258H71.7168ZM78.877 61L76.4863 67H75.543L73.2695 61H74.3242L75.8477 65.3594C75.9609 65.6797 76.0312 65.959 76.0586 66.1973H76.082C76.1211 65.8965 76.1836 65.625 76.2695 65.3828L77.8633 61H78.877ZM84.666 64.2402H80.4297C80.4453 64.9082 80.625 65.4238 80.9688 65.7871C81.3125 66.1504 81.7852 66.332 82.3867 66.332C83.0625 66.332 83.6836 66.1094 84.25 65.6641V66.5664C83.7227 66.9492 83.0254 67.1406 82.1582 67.1406C81.3105 67.1406 80.6445 66.8691 80.1602 66.3262C79.6758 65.7793 79.4336 65.0117 79.4336 64.0234C79.4336 63.0898 79.6973 62.3301 80.2246 61.7441C80.7559 61.1543 81.4141 60.8594 82.1992 60.8594C82.9844 60.8594 83.5918 61.1133 84.0215 61.6211C84.4512 62.1289 84.666 62.834 84.666 63.7363V64.2402ZM83.6816 63.4258C83.6777 62.8711 83.543 62.4395 83.2773 62.1309C83.0156 61.8223 82.6504 61.668 82.1816 61.668C81.7285 61.668 81.3438 61.8301 81.0273 62.1543C80.7109 62.4785 80.5156 62.9023 80.4414 63.4258H83.6816ZM89.2539 61.9727C89.0859 61.8438 88.8438 61.7793 88.5273 61.7793C88.1172 61.7793 87.7734 61.9727 87.4961 62.3594C87.2227 62.7461 87.0859 63.2734 87.0859 63.9414V67H86.125V61H87.0859V62.2363H87.1094C87.2461 61.8145 87.4551 61.4863 87.7363 61.252C88.0176 61.0137 88.332 60.8945 88.6797 60.8945C88.9297 60.8945 89.1211 60.9219 89.2539 60.9766V61.9727ZM94.9551 64.2402H90.7188C90.7344 64.9082 90.9141 65.4238 91.2578 65.7871C91.6016 66.1504 92.0742 66.332 92.6758 66.332C93.3516 66.332 93.9727 66.1094 94.5391 65.6641V66.5664C94.0117 66.9492 93.3145 67.1406 92.4473 67.1406C91.5996 67.1406 90.9336 66.8691 90.4492 66.3262C89.9648 65.7793 89.7227 65.0117 89.7227 64.0234C89.7227 63.0898 89.9863 62.3301 90.5137 61.7441C91.0449 61.1543 91.7031 60.8594 92.4883 60.8594C93.2734 60.8594 93.8809 61.1133 94.3105 61.6211C94.7402 62.1289 94.9551 62.834 94.9551 63.7363V64.2402ZM93.9707 63.4258C93.9668 62.8711 93.832 62.4395 93.5664 62.1309C93.3047 61.8223 92.9395 61.668 92.4707 61.668C92.0176 61.668 91.6328 61.8301 91.3164 62.1543C91 62.4785 90.8047 62.9023 90.7305 63.4258H93.9707ZM100.199 59.4766C100.027 59.4766 99.8809 59.418 99.7598 59.3008C99.6387 59.1836 99.5781 59.0352 99.5781 58.8555C99.5781 58.6758 99.6387 58.5273 99.7598 58.4102C99.8809 58.2891 100.027 58.2285 100.199 58.2285C100.375 58.2285 100.523 58.2891 100.645 58.4102C100.77 58.5273 100.832 58.6758 100.832 58.8555C100.832 59.0273 100.77 59.1738 100.645 59.2949C100.523 59.416 100.375 59.4766 100.199 59.4766ZM100.668 67H99.707V61H100.668V67ZM102.25 66.7832V65.752C102.773 66.1387 103.35 66.332 103.979 66.332C104.822 66.332 105.244 66.0508 105.244 65.4883C105.244 65.3281 105.207 65.1934 105.133 65.084C105.062 64.9707 104.965 64.8711 104.84 64.7852C104.719 64.6992 104.574 64.623 104.406 64.5566C104.242 64.4863 104.064 64.4141 103.873 64.3398C103.607 64.2344 103.373 64.1289 103.17 64.0234C102.971 63.9141 102.803 63.793 102.666 63.6602C102.533 63.5234 102.432 63.3691 102.361 63.1973C102.295 63.0254 102.262 62.8242 102.262 62.5938C102.262 62.3125 102.326 62.0645 102.455 61.8496C102.584 61.6309 102.756 61.4492 102.971 61.3047C103.186 61.1562 103.43 61.0449 103.703 60.9707C103.98 60.8965 104.266 60.8594 104.559 60.8594C105.078 60.8594 105.543 60.9492 105.953 61.1289V62.1016C105.512 61.8125 105.004 61.668 104.43 61.668C104.25 61.668 104.088 61.6895 103.943 61.7324C103.799 61.7715 103.674 61.8281 103.568 61.9023C103.467 61.9766 103.387 62.0664 103.328 62.1719C103.273 62.2734 103.246 62.3867 103.246 62.5117C103.246 62.668 103.273 62.7988 103.328 62.9043C103.387 63.0098 103.471 63.1035 103.58 63.1855C103.689 63.2676 103.822 63.3418 103.979 63.4082C104.135 63.4746 104.312 63.5469 104.512 63.625C104.777 63.7266 105.016 63.832 105.227 63.9414C105.438 64.0469 105.617 64.168 105.766 64.3047C105.914 64.4375 106.027 64.5918 106.105 64.7676C106.188 64.9434 106.229 65.1523 106.229 65.3945C106.229 65.6914 106.162 65.9492 106.029 66.168C105.9 66.3867 105.727 66.5684 105.508 66.7129C105.289 66.8574 105.037 66.9648 104.752 67.0352C104.467 67.1055 104.168 67.1406 103.855 67.1406C103.238 67.1406 102.703 67.0215 102.25 66.7832ZM115.299 67H114.338V66.0625H114.314C113.896 66.7812 113.281 67.1406 112.469 67.1406C111.871 67.1406 111.402 66.9824 111.062 66.666C110.727 66.3496 110.559 65.9297 110.559 65.4062C110.559 64.2852 111.219 63.6328 112.539 63.4492L114.338 63.1973C114.338 62.1777 113.926 61.668 113.102 61.668C112.379 61.668 111.727 61.9141 111.145 62.4062V61.4219C111.734 61.0469 112.414 60.8594 113.184 60.8594C114.594 60.8594 115.299 61.6055 115.299 63.0977V67ZM114.338 63.9648L112.891 64.1641C112.445 64.2266 112.109 64.3379 111.883 64.498C111.656 64.6543 111.543 64.9336 111.543 65.3359C111.543 65.6289 111.646 65.8691 111.854 66.0566C112.064 66.2402 112.344 66.332 112.691 66.332C113.168 66.332 113.561 66.166 113.869 65.834C114.182 65.498 114.338 65.0742 114.338 64.5625V63.9648ZM121.199 66.7246C120.738 67.002 120.191 67.1406 119.559 67.1406C118.703 67.1406 118.012 66.8633 117.484 66.3086C116.961 65.75 116.699 65.0273 116.699 64.1406C116.699 63.1523 116.982 62.3594 117.549 61.7617C118.115 61.1602 118.871 60.8594 119.816 60.8594C120.344 60.8594 120.809 60.957 121.211 61.1523V62.1367C120.766 61.8242 120.289 61.668 119.781 61.668C119.168 61.668 118.664 61.8887 118.27 62.3301C117.879 62.7676 117.684 63.3438 117.684 64.0586C117.684 64.7617 117.867 65.3164 118.234 65.7227C118.605 66.1289 119.102 66.332 119.723 66.332C120.246 66.332 120.738 66.1582 121.199 65.8105V66.7246ZM126.742 66.7246C126.281 67.002 125.734 67.1406 125.102 67.1406C124.246 67.1406 123.555 66.8633 123.027 66.3086C122.504 65.75 122.242 65.0273 122.242 64.1406C122.242 63.1523 122.525 62.3594 123.092 61.7617C123.658 61.1602 124.414 60.8594 125.359 60.8594C125.887 60.8594 126.352 60.957 126.754 61.1523V62.1367C126.309 61.8242 125.832 61.668 125.324 61.668C124.711 61.668 124.207 61.8887 123.812 62.3301C123.422 62.7676 123.227 63.3438 123.227 64.0586C123.227 64.7617 123.41 65.3164 123.777 65.7227C124.148 66.1289 124.645 66.332 125.266 66.332C125.789 66.332 126.281 66.1582 126.742 65.8105V66.7246ZM133.018 64.2402H128.781C128.797 64.9082 128.977 65.4238 129.32 65.7871C129.664 66.1504 130.137 66.332 130.738 66.332C131.414 66.332 132.035 66.1094 132.602 65.6641V66.5664C132.074 66.9492 131.377 67.1406 130.51 67.1406C129.662 67.1406 128.996 66.8691 128.512 66.3262C128.027 65.7793 127.785 65.0117 127.785 64.0234C127.785 63.0898 128.049 62.3301 128.576 61.7441C129.107 61.1543 129.766 60.8594 130.551 60.8594C131.336 60.8594 131.943 61.1133 132.373 61.6211C132.803 62.1289 133.018 62.834 133.018 63.7363V64.2402ZM132.033 63.4258C132.029 62.8711 131.895 62.4395 131.629 62.1309C131.367 61.8223 131.002 61.668 130.533 61.668C130.08 61.668 129.695 61.8301 129.379 62.1543C129.062 62.4785 128.867 62.9023 128.793 63.4258H132.033ZM135.461 66.1328H135.438V69.7598H134.477V61H135.438V62.0547H135.461C135.934 61.2578 136.625 60.8594 137.535 60.8594C138.309 60.8594 138.912 61.1289 139.346 61.668C139.779 62.2031 139.996 62.9219 139.996 63.8242C139.996 64.8281 139.752 65.6328 139.264 66.2383C138.775 66.8398 138.107 67.1406 137.26 67.1406C136.482 67.1406 135.883 66.8047 135.461 66.1328ZM135.438 63.7129V64.5508C135.438 65.0469 135.598 65.4688 135.918 65.8164C136.242 66.1602 136.652 66.332 137.148 66.332C137.73 66.332 138.186 66.1094 138.514 65.6641C138.846 65.2188 139.012 64.5996 139.012 63.8066C139.012 63.1387 138.857 62.6152 138.549 62.2363C138.24 61.8574 137.822 61.668 137.295 61.668C136.736 61.668 136.287 61.8633 135.947 62.2539C135.607 62.6406 135.438 63.127 135.438 63.7129ZM144.314 66.9414C144.088 67.0664 143.789 67.1289 143.418 67.1289C142.367 67.1289 141.842 66.543 141.842 65.3711V61.8203H140.811V61H141.842V59.5352L142.803 59.2246V61H144.314V61.8203H142.803V65.2012C142.803 65.6035 142.871 65.8906 143.008 66.0625C143.145 66.2344 143.371 66.3203 143.688 66.3203C143.93 66.3203 144.139 66.2539 144.314 66.1211V66.9414ZM149.893 67H148.932V66.0625H148.908C148.49 66.7812 147.875 67.1406 147.062 67.1406C146.465 67.1406 145.996 66.9824 145.656 66.666C145.32 66.3496 145.152 65.9297 145.152 65.4062C145.152 64.2852 145.812 63.6328 147.133 63.4492L148.932 63.1973C148.932 62.1777 148.52 61.668 147.695 61.668C146.973 61.668 146.32 61.9141 145.738 62.4062V61.4219C146.328 61.0469 147.008 60.8594 147.777 60.8594C149.188 60.8594 149.893 61.6055 149.893 63.0977V67ZM148.932 63.9648L147.484 64.1641C147.039 64.2266 146.703 64.3379 146.477 64.498C146.25 64.6543 146.137 64.9336 146.137 65.3359C146.137 65.6289 146.24 65.8691 146.447 66.0566C146.658 66.2402 146.938 66.332 147.285 66.332C147.762 66.332 148.154 66.166 148.463 65.834C148.775 65.498 148.932 65.0742 148.932 64.5625V63.9648ZM152.688 66.1328H152.664V67H151.703V58.1172H152.664V62.0547H152.688C153.16 61.2578 153.852 60.8594 154.762 60.8594C155.531 60.8594 156.133 61.1289 156.566 61.668C157.004 62.2031 157.223 62.9219 157.223 63.8242C157.223 64.8281 156.979 65.6328 156.49 66.2383C156.002 66.8398 155.334 67.1406 154.486 67.1406C153.693 67.1406 153.094 66.8047 152.688 66.1328ZM152.664 63.7129V64.5508C152.664 65.0469 152.824 65.4688 153.145 65.8164C153.469 66.1602 153.879 66.332 154.375 66.332C154.957 66.332 155.412 66.1094 155.74 65.6641C156.072 65.2188 156.238 64.5996 156.238 63.8066C156.238 63.1387 156.084 62.6152 155.775 62.2363C155.467 61.8574 155.049 61.668 154.521 61.668C153.963 61.668 153.514 61.8633 153.174 62.2539C152.834 62.6406 152.664 63.127 152.664 63.7129ZM159.719 67H158.758V58.1172H159.719V67ZM166.486 64.2402H162.25C162.266 64.9082 162.445 65.4238 162.789 65.7871C163.133 66.1504 163.605 66.332 164.207 66.332C164.883 66.332 165.504 66.1094 166.07 65.6641V66.5664C165.543 66.9492 164.846 67.1406 163.979 67.1406C163.131 67.1406 162.465 66.8691 161.98 66.3262C161.496 65.7793 161.254 65.0117 161.254 64.0234C161.254 63.0898 161.518 62.3301 162.045 61.7441C162.576 61.1543 163.234 60.8594 164.02 60.8594C164.805 60.8594 165.412 61.1133 165.842 61.6211C166.271 62.1289 166.486 62.834 166.486 63.7363V64.2402ZM165.502 63.4258C165.498 62.8711 165.363 62.4395 165.098 62.1309C164.836 61.8223 164.471 61.668 164.002 61.668C163.549 61.668 163.164 61.8301 162.848 62.1543C162.531 62.4785 162.336 62.9023 162.262 63.4258H165.502Z" fill="#323130"/>
<path d="M161.081 96.7168V95.75C161.192 95.8477 161.324 95.9355 161.477 96.0137C161.633 96.0918 161.796 96.1585 161.965 96.2139C162.137 96.266 162.31 96.3066 162.482 96.3359C162.655 96.3652 162.814 96.3799 162.961 96.3799C163.465 96.3799 163.841 96.2871 164.089 96.1016C164.34 95.9128 164.465 95.6426 164.465 95.291C164.465 95.1022 164.423 94.9378 164.338 94.7979C164.257 94.6579 164.143 94.5309 163.996 94.417C163.85 94.2998 163.675 94.1891 163.474 94.085C163.275 93.9775 163.06 93.8652 162.829 93.748C162.585 93.6243 162.357 93.499 162.146 93.3721C161.934 93.2451 161.75 93.1051 161.594 92.9521C161.438 92.7992 161.314 92.6266 161.223 92.4346C161.135 92.2393 161.091 92.0114 161.091 91.751C161.091 91.432 161.161 91.1553 161.301 90.9209C161.441 90.6833 161.625 90.488 161.853 90.335C162.08 90.182 162.339 90.068 162.629 89.9932C162.922 89.9183 163.22 89.8809 163.522 89.8809C164.213 89.8809 164.715 89.9639 165.031 90.1299V91.0527C164.618 90.7663 164.087 90.623 163.439 90.623C163.26 90.623 163.081 90.6426 162.902 90.6816C162.723 90.7174 162.564 90.7777 162.424 90.8623C162.284 90.9469 162.17 91.056 162.082 91.1895C161.994 91.3229 161.95 91.4857 161.95 91.6777C161.95 91.8568 161.983 92.0114 162.048 92.1416C162.116 92.2718 162.215 92.3906 162.346 92.498C162.476 92.6055 162.634 92.7096 162.819 92.8105C163.008 92.9115 163.225 93.0221 163.469 93.1426C163.719 93.2663 163.957 93.3965 164.182 93.5332C164.406 93.6699 164.603 93.8213 164.772 93.9873C164.942 94.1533 165.075 94.3372 165.173 94.5391C165.274 94.7409 165.324 94.972 165.324 95.2324C165.324 95.5775 165.256 95.8704 165.119 96.1113C164.986 96.349 164.803 96.5426 164.572 96.6924C164.344 96.8421 164.081 96.9495 163.781 97.0146C163.482 97.083 163.166 97.1172 162.834 97.1172C162.723 97.1172 162.587 97.1074 162.424 97.0879C162.261 97.0716 162.095 97.0456 161.926 97.0098C161.757 96.9772 161.595 96.9365 161.442 96.8877C161.293 96.8356 161.172 96.7786 161.081 96.7168ZM170.192 97H169.392V96.2188H169.372C169.024 96.8177 168.511 97.1172 167.834 97.1172C167.336 97.1172 166.945 96.9854 166.662 96.7217C166.382 96.458 166.242 96.1081 166.242 95.6719C166.242 94.7376 166.792 94.194 167.893 94.041L169.392 93.8311C169.392 92.9814 169.048 92.5566 168.361 92.5566C167.759 92.5566 167.215 92.7617 166.73 93.1719V92.3516C167.222 92.0391 167.788 91.8828 168.43 91.8828C169.605 91.8828 170.192 92.5046 170.192 93.748V97ZM169.392 94.4707L168.186 94.6367C167.814 94.6888 167.535 94.7816 167.346 94.915C167.157 95.0452 167.062 95.278 167.062 95.6133C167.062 95.8574 167.149 96.0576 167.321 96.2139C167.497 96.3669 167.73 96.4434 168.02 96.4434C168.417 96.4434 168.744 96.305 169.001 96.0283C169.261 95.7484 169.392 95.3952 169.392 94.9688V94.4707ZM174.172 90.3008C174.016 90.2129 173.838 90.1689 173.64 90.1689C173.08 90.1689 172.8 90.5221 172.8 91.2285V92H173.972V92.6836H172.8V97H172.004V92.6836H171.149V92H172.004V91.1895C172.004 90.6654 172.155 90.252 172.458 89.9492C172.761 89.6432 173.138 89.4902 173.591 89.4902C173.835 89.4902 174.029 89.5195 174.172 89.5781V90.3008ZM178.854 94.7002H175.324C175.337 95.2568 175.487 95.6865 175.773 95.9893C176.06 96.292 176.454 96.4434 176.955 96.4434C177.518 96.4434 178.036 96.2578 178.508 95.8867V96.6387C178.068 96.9577 177.487 97.1172 176.765 97.1172C176.058 97.1172 175.503 96.891 175.1 96.4385C174.696 95.9827 174.494 95.3431 174.494 94.5195C174.494 93.7415 174.714 93.1084 175.153 92.6201C175.596 92.1286 176.145 91.8828 176.799 91.8828C177.453 91.8828 177.959 92.0944 178.317 92.5176C178.675 92.9408 178.854 93.5283 178.854 94.2803V94.7002ZM178.034 94.0215C178.031 93.5592 177.919 93.1995 177.697 92.9424C177.479 92.6852 177.175 92.5566 176.784 92.5566C176.407 92.5566 176.086 92.6917 175.822 92.9619C175.559 93.2321 175.396 93.5853 175.334 94.0215H178.034Z" fill="#707070"/>
<path d="M169.807 111.117C169.113 111.117 168.571 110.819 168.181 110.224C167.793 109.628 167.6 108.767 167.6 107.641C167.6 106.404 167.801 105.468 168.205 104.833C168.612 104.198 169.198 103.881 169.963 103.881C171.428 103.881 172.16 105.077 172.16 107.47C172.16 108.655 171.953 109.56 171.54 110.185C171.127 110.806 170.549 111.117 169.807 111.117ZM169.919 104.56C168.92 104.56 168.42 105.574 168.42 107.602C168.42 109.496 168.91 110.443 169.89 110.443C170.856 110.443 171.34 109.48 171.34 107.553C171.34 105.557 170.866 104.56 169.919 104.56Z" fill="#242424"/>
<rect x="219.75" y="100" width="14" height="1" rx="0.5" transform="rotate(90 219.75 100)" fill="#E0E0E0"/>
<path d="M270.617 111H266.398V110.287L268.439 108.241C268.96 107.72 269.331 107.287 269.553 106.942C269.777 106.594 269.89 106.223 269.89 105.829C269.89 105.425 269.774 105.113 269.543 104.892C269.312 104.67 268.983 104.56 268.557 104.56C267.932 104.56 267.333 104.826 266.76 105.36V104.521C267.307 104.094 267.943 103.881 268.669 103.881C269.294 103.881 269.785 104.05 270.144 104.389C270.502 104.727 270.681 105.181 270.681 105.751C270.681 106.2 270.557 106.64 270.31 107.069C270.062 107.496 269.618 108.026 268.977 108.661L267.36 110.258V110.277H270.617V111Z" fill="#242424"/>
<rect x="318.5" y="100" width="14" height="1" rx="0.5" transform="rotate(90 318.5 100)" fill="#E0E0E0"/>
<path d="M369.729 109.14H368.83V111H368.039V109.14H364.748V108.617L367.863 103.998H368.83V108.49H369.729V109.14ZM368.039 108.49V105.463C368.039 105.248 368.046 105.007 368.059 104.74H368.039C367.993 104.857 367.904 105.036 367.771 105.277L365.617 108.49H368.039Z" fill="#242424"/>
<rect x="417.25" y="100" width="14" height="1" rx="0.5" transform="rotate(90 417.25 100)" fill="#E0E0E0"/>
<path d="M454.938 97H453.933L450.329 91.4189C450.238 91.279 450.163 91.1325 450.104 90.9795H450.075C450.101 91.1292 450.114 91.4499 450.114 91.9414V97H449.294V89.998H450.358L453.864 95.4912C454.011 95.7191 454.105 95.8753 454.147 95.96H454.167C454.134 95.7581 454.118 95.4147 454.118 94.9297V89.998H454.938V97ZM460.246 97H459.445V96.2188H459.426C459.077 96.8177 458.565 97.1172 457.888 97.1172C457.39 97.1172 456.999 96.9854 456.716 96.7217C456.436 96.458 456.296 96.1081 456.296 95.6719C456.296 94.7376 456.846 94.194 457.946 94.041L459.445 93.8311C459.445 92.9814 459.102 92.5566 458.415 92.5566C457.813 92.5566 457.269 92.7617 456.784 93.1719V92.3516C457.276 92.0391 457.842 91.8828 458.483 91.8828C459.659 91.8828 460.246 92.5046 460.246 93.748V97ZM459.445 94.4707L458.239 94.6367C457.868 94.6888 457.588 94.7816 457.399 94.915C457.211 95.0452 457.116 95.278 457.116 95.6133C457.116 95.8574 457.202 96.0576 457.375 96.2139C457.551 96.3669 457.784 96.4434 458.073 96.4434C458.47 96.4434 458.798 96.305 459.055 96.0283C459.315 95.7484 459.445 95.3952 459.445 94.9688V94.4707ZM461.452 96.8193V95.96C461.888 96.2822 462.368 96.4434 462.893 96.4434C463.596 96.4434 463.947 96.209 463.947 95.7402C463.947 95.6068 463.916 95.4945 463.854 95.4033C463.796 95.3089 463.715 95.2259 463.61 95.1543C463.509 95.0827 463.389 95.0192 463.249 94.9639C463.112 94.9053 462.964 94.8451 462.805 94.7832C462.583 94.6953 462.388 94.6074 462.219 94.5195C462.053 94.4284 461.913 94.3275 461.799 94.2168C461.688 94.1029 461.604 93.9743 461.545 93.8311C461.49 93.6878 461.462 93.5202 461.462 93.3281C461.462 93.0938 461.516 92.887 461.623 92.708C461.73 92.5257 461.874 92.3743 462.053 92.2539C462.232 92.1302 462.435 92.0374 462.663 91.9756C462.894 91.9137 463.132 91.8828 463.376 91.8828C463.809 91.8828 464.196 91.9577 464.538 92.1074V92.918C464.17 92.6771 463.747 92.5566 463.269 92.5566C463.119 92.5566 462.984 92.5745 462.863 92.6104C462.743 92.6429 462.639 92.6901 462.551 92.752C462.466 92.8138 462.399 92.8887 462.351 92.9766C462.305 93.0612 462.282 93.1556 462.282 93.2598C462.282 93.39 462.305 93.499 462.351 93.5869C462.399 93.6748 462.469 93.7529 462.561 93.8213C462.652 93.8896 462.762 93.9515 462.893 94.0068C463.023 94.0622 463.171 94.1224 463.337 94.1875C463.558 94.2721 463.757 94.36 463.933 94.4512C464.108 94.5391 464.258 94.64 464.382 94.7539C464.506 94.8646 464.6 94.9932 464.665 95.1396C464.733 95.2861 464.768 95.4603 464.768 95.6621C464.768 95.9095 464.712 96.1243 464.602 96.3066C464.494 96.4889 464.349 96.6403 464.167 96.7607C463.985 96.8812 463.775 96.9707 463.537 97.0293C463.299 97.0879 463.05 97.1172 462.79 97.1172C462.276 97.1172 461.83 97.0179 461.452 96.8193ZM468.322 96.9512C468.133 97.0553 467.884 97.1074 467.575 97.1074C466.7 97.1074 466.262 96.6191 466.262 95.6426V92.6836H465.402V92H466.262V90.7793L467.062 90.5205V92H468.322V92.6836H467.062V95.501C467.062 95.8363 467.119 96.0755 467.233 96.2188C467.347 96.362 467.536 96.4336 467.8 96.4336C468.002 96.4336 468.176 96.3783 468.322 96.2676V96.9512ZM469.802 90.7305C469.659 90.7305 469.536 90.6816 469.436 90.584C469.335 90.4863 469.284 90.3626 469.284 90.2129C469.284 90.0632 469.335 89.9395 469.436 89.8418C469.536 89.7409 469.659 89.6904 469.802 89.6904C469.948 89.6904 470.072 89.7409 470.173 89.8418C470.277 89.9395 470.329 90.0632 470.329 90.2129C470.329 90.3561 470.277 90.4782 470.173 90.5791C470.072 90.68 469.948 90.7305 469.802 90.7305ZM470.192 97H469.392V92H470.192V97ZM475.832 94.7002H472.302C472.315 95.2568 472.465 95.6865 472.751 95.9893C473.037 96.292 473.431 96.4434 473.933 96.4434C474.496 96.4434 475.013 96.2578 475.485 95.8867V96.6387C475.046 96.9577 474.465 97.1172 473.742 97.1172C473.036 97.1172 472.481 96.891 472.077 96.4385C471.674 95.9827 471.472 95.3431 471.472 94.5195C471.472 93.7415 471.691 93.1084 472.131 92.6201C472.574 92.1286 473.122 91.8828 473.776 91.8828C474.431 91.8828 474.937 92.0944 475.295 92.5176C475.653 92.9408 475.832 93.5283 475.832 94.2803V94.7002ZM475.012 94.0215C475.008 93.5592 474.896 93.1995 474.675 92.9424C474.457 92.6852 474.152 92.5566 473.762 92.5566C473.384 92.5566 473.063 92.6917 472.8 92.9619C472.536 93.2321 472.373 93.5853 472.312 94.0215H475.012ZM476.745 96.8193V95.96C477.181 96.2822 477.661 96.4434 478.186 96.4434C478.889 96.4434 479.24 96.209 479.24 95.7402C479.24 95.6068 479.209 95.4945 479.147 95.4033C479.089 95.3089 479.007 95.2259 478.903 95.1543C478.802 95.0827 478.682 95.0192 478.542 94.9639C478.405 94.9053 478.257 94.8451 478.098 94.7832C477.876 94.6953 477.681 94.6074 477.512 94.5195C477.346 94.4284 477.206 94.3275 477.092 94.2168C476.981 94.1029 476.896 93.9743 476.838 93.8311C476.783 93.6878 476.755 93.5202 476.755 93.3281C476.755 93.0938 476.809 92.887 476.916 92.708C477.023 92.5257 477.167 92.3743 477.346 92.2539C477.525 92.1302 477.728 92.0374 477.956 91.9756C478.187 91.9137 478.425 91.8828 478.669 91.8828C479.102 91.8828 479.489 91.9577 479.831 92.1074V92.918C479.463 92.6771 479.04 92.5566 478.562 92.5566C478.412 92.5566 478.277 92.5745 478.156 92.6104C478.036 92.6429 477.932 92.6901 477.844 92.752C477.759 92.8138 477.692 92.8887 477.644 92.9766C477.598 93.0612 477.575 93.1556 477.575 93.2598C477.575 93.39 477.598 93.499 477.644 93.5869C477.692 93.6748 477.762 93.7529 477.854 93.8213C477.945 93.8896 478.055 93.9515 478.186 94.0068C478.316 94.0622 478.464 94.1224 478.63 94.1875C478.851 94.2721 479.05 94.36 479.226 94.4512C479.401 94.5391 479.551 94.64 479.675 94.7539C479.799 94.8646 479.893 94.9932 479.958 95.1396C480.026 95.2861 480.061 95.4603 480.061 95.6621C480.061 95.9095 480.005 96.1243 479.895 96.3066C479.787 96.4889 479.642 96.6403 479.46 96.7607C479.278 96.8812 479.068 96.9707 478.83 97.0293C478.592 97.0879 478.343 97.1172 478.083 97.1172C477.569 97.1172 477.123 97.0179 476.745 96.8193ZM483.615 96.9512C483.426 97.0553 483.177 97.1074 482.868 97.1074C481.993 97.1074 481.555 96.6191 481.555 95.6426V92.6836H480.695V92H481.555V90.7793L482.355 90.5205V92H483.615V92.6836H482.355V95.501C482.355 95.8363 482.412 96.0755 482.526 96.2188C482.64 96.362 482.829 96.4336 483.093 96.4336C483.295 96.4336 483.469 96.3783 483.615 96.2676V96.9512Z" fill="#707070"/>
<path d="M467.99 104.081V104.838C467.629 104.652 467.248 104.56 466.848 104.56C466.226 104.56 465.728 104.836 465.354 105.39C464.982 105.943 464.797 106.684 464.797 107.611H464.816C465.142 106.951 465.676 106.62 466.418 106.62C467.03 106.62 467.517 106.817 467.878 107.211C468.239 107.602 468.42 108.126 468.42 108.783C468.42 109.47 468.213 110.032 467.8 110.468C467.386 110.901 466.861 111.117 466.223 111.117C465.52 111.117 464.968 110.837 464.567 110.277C464.167 109.717 463.967 108.931 463.967 107.919C463.967 106.692 464.229 105.712 464.753 104.979C465.277 104.247 465.969 103.881 466.828 103.881C467.316 103.881 467.704 103.948 467.99 104.081ZM466.242 107.299C465.829 107.299 465.493 107.439 465.236 107.719C464.979 107.999 464.851 108.329 464.851 108.71C464.851 109.188 464.978 109.597 465.231 109.936C465.489 110.274 465.829 110.443 466.252 110.443C466.656 110.443 466.981 110.297 467.229 110.004C467.476 109.708 467.6 109.333 467.6 108.881C467.6 108.386 467.481 107.999 467.243 107.719C467.006 107.439 466.672 107.299 466.242 107.299Z" fill="#242424"/>
<line x1="16" y1="118.5" x2="516" y2="118.5" stroke="#E0E0E0"/>
<rect x="24" y="135" width="16" height="16" rx="2" fill="#0F6CBD"/>
<path d="M35.765 140.205C36.0661 140.489 36.0797 140.964 35.7953 141.265L31.5453 145.765C31.4061 145.912 31.2133 145.997 31.0107 146C30.8081 146.003 30.6129 145.924 30.4697 145.78L28.2197 143.53C27.9268 143.237 27.9268 142.763 28.2197 142.47C28.5126 142.177 28.9874 142.177 29.2803 142.47L30.9846 144.174L34.7047 140.235C34.9891 139.934 35.4638 139.92 35.765 140.205Z" fill="white"/>
<path d="M60.5723 139.197L56.9424 149H55.6777L52.123 139.197H53.4014L56.1152 146.97C56.2018 147.22 56.2679 147.51 56.3135 147.838H56.3408C56.3773 147.564 56.4525 147.271 56.5664 146.956L59.335 139.197H60.5723ZM62.4043 140.223C62.2038 140.223 62.0329 140.154 61.8916 140.018C61.7503 139.881 61.6797 139.708 61.6797 139.498C61.6797 139.288 61.7503 139.115 61.8916 138.979C62.0329 138.837 62.2038 138.767 62.4043 138.767C62.6094 138.767 62.7826 138.837 62.9238 138.979C63.0697 139.115 63.1426 139.288 63.1426 139.498C63.1426 139.699 63.0697 139.869 62.9238 140.011C62.7826 140.152 62.6094 140.223 62.4043 140.223ZM62.9512 149H61.8301V142H62.9512V149ZM68.1465 149.164C67.112 149.164 66.2848 148.838 65.665 148.187C65.0498 147.53 64.7422 146.662 64.7422 145.582C64.7422 144.406 65.0635 143.488 65.7061 142.827C66.3486 142.166 67.2168 141.836 68.3105 141.836C69.3542 141.836 70.1676 142.157 70.751 142.8C71.3389 143.442 71.6328 144.333 71.6328 145.473C71.6328 146.589 71.3161 147.485 70.6826 148.159C70.0537 148.829 69.2083 149.164 68.1465 149.164ZM68.2285 142.779C67.5085 142.779 66.9388 143.025 66.5195 143.518C66.1003 144.005 65.8906 144.68 65.8906 145.541C65.8906 146.37 66.1025 147.024 66.5264 147.503C66.9502 147.981 67.5176 148.221 68.2285 148.221C68.9531 148.221 69.5091 147.986 69.8965 147.517C70.2884 147.047 70.4844 146.38 70.4844 145.514C70.4844 144.639 70.2884 143.964 69.8965 143.49C69.5091 143.016 68.9531 142.779 68.2285 142.779ZM74.5449 149H73.4238V138.637H74.5449V149ZM82.4404 145.78H77.498C77.5163 146.56 77.7259 147.161 78.127 147.585C78.528 148.009 79.0794 148.221 79.7812 148.221C80.5697 148.221 81.2943 147.961 81.9551 147.441V148.494C81.3398 148.941 80.5264 149.164 79.5146 149.164C78.5257 149.164 77.7487 148.847 77.1836 148.214C76.6185 147.576 76.3359 146.68 76.3359 145.527C76.3359 144.438 76.6436 143.552 77.2588 142.868C77.8786 142.18 78.6465 141.836 79.5625 141.836C80.4785 141.836 81.1872 142.132 81.6885 142.725C82.1898 143.317 82.4404 144.14 82.4404 145.192V145.78ZM81.292 144.83C81.2874 144.183 81.1302 143.679 80.8203 143.319C80.515 142.959 80.0889 142.779 79.542 142.779C79.0133 142.779 78.5645 142.968 78.1953 143.347C77.8262 143.725 77.5983 144.219 77.5117 144.83H81.292ZM89.9531 149H88.832V145.008C88.832 143.522 88.2897 142.779 87.2051 142.779C86.6445 142.779 86.1797 142.991 85.8105 143.415C85.446 143.834 85.2637 144.365 85.2637 145.008V149H84.1426V142H85.2637V143.162H85.291C85.8197 142.278 86.5853 141.836 87.5879 141.836C88.3535 141.836 88.9391 142.084 89.3447 142.581C89.7503 143.073 89.9531 143.786 89.9531 144.721V149ZM96.8438 148.679C96.306 149.002 95.668 149.164 94.9297 149.164C93.9316 149.164 93.125 148.84 92.5098 148.193C91.8991 147.542 91.5938 146.699 91.5938 145.664C91.5938 144.511 91.9242 143.586 92.585 142.889C93.2458 142.187 94.1276 141.836 95.2305 141.836C95.8457 141.836 96.388 141.95 96.8574 142.178V143.326C96.3379 142.962 95.7819 142.779 95.1895 142.779C94.474 142.779 93.8861 143.037 93.4258 143.552C92.9701 144.062 92.7422 144.734 92.7422 145.568C92.7422 146.389 92.9564 147.036 93.3848 147.51C93.8177 147.984 94.3965 148.221 95.1211 148.221C95.7318 148.221 96.306 148.018 96.8438 147.612V148.679ZM104.165 145.78H99.2227C99.2409 146.56 99.4505 147.161 99.8516 147.585C100.253 148.009 100.804 148.221 101.506 148.221C102.294 148.221 103.019 147.961 103.68 147.441V148.494C103.064 148.941 102.251 149.164 101.239 149.164C100.25 149.164 99.4733 148.847 98.9082 148.214C98.3431 147.576 98.0605 146.68 98.0605 145.527C98.0605 144.438 98.3682 143.552 98.9834 142.868C99.6032 142.18 100.371 141.836 101.287 141.836C102.203 141.836 102.912 142.132 103.413 142.725C103.914 143.317 104.165 144.14 104.165 145.192V145.78ZM103.017 144.83C103.012 144.183 102.855 143.679 102.545 143.319C102.24 142.959 101.813 142.779 101.267 142.779C100.738 142.779 100.289 142.968 99.9199 143.347C99.5508 143.725 99.3229 144.219 99.2363 144.83H103.017Z" fill="#242424"/>
<rect x="219.75" y="127" width="32" height="1" rx="0.5" transform="rotate(90 219.75 127)" fill="#E0E0E0"/>
<rect x="318.5" y="127" width="32" height="1" rx="0.5" transform="rotate(90 318.5 127)" fill="#E0E0E0"/>
<rect x="417.25" y="127" width="32" height="1" rx="0.5" transform="rotate(90 417.25 127)" fill="#E0E0E0"/>
<path d="M120 137C120 134.791 121.791 133 124 133H417V153H124C121.791 153 120 151.209 120 149V137Z" fill="#239582"/>
<path d="M259.74 147H258.832L258.09 145.037H255.121L254.423 147H253.51L256.195 139.998H257.045L259.74 147ZM257.821 144.3L256.723 141.316C256.687 141.219 256.651 141.062 256.615 140.848H256.596C256.563 141.046 256.526 141.202 256.483 141.316L255.395 144.3H257.821ZM264.076 146.771C263.692 147.002 263.236 147.117 262.709 147.117C261.996 147.117 261.42 146.886 260.98 146.424C260.544 145.958 260.326 145.356 260.326 144.617C260.326 143.794 260.562 143.133 261.034 142.635C261.506 142.133 262.136 141.883 262.924 141.883C263.363 141.883 263.751 141.964 264.086 142.127V142.947C263.715 142.687 263.318 142.557 262.895 142.557C262.383 142.557 261.964 142.741 261.635 143.108C261.309 143.473 261.146 143.953 261.146 144.549C261.146 145.135 261.299 145.597 261.605 145.936C261.915 146.274 262.328 146.443 262.846 146.443C263.282 146.443 263.692 146.299 264.076 146.009V146.771ZM268.695 146.771C268.311 147.002 267.855 147.117 267.328 147.117C266.615 147.117 266.039 146.886 265.6 146.424C265.163 145.958 264.945 145.356 264.945 144.617C264.945 143.794 265.181 143.133 265.653 142.635C266.125 142.133 266.755 141.883 267.543 141.883C267.982 141.883 268.37 141.964 268.705 142.127V142.947C268.334 142.687 267.937 142.557 267.514 142.557C267.003 142.557 266.583 142.741 266.254 143.108C265.928 143.473 265.766 143.953 265.766 144.549C265.766 145.135 265.919 145.597 266.225 145.936C266.534 146.274 266.947 146.443 267.465 146.443C267.901 146.443 268.311 146.299 268.695 146.009V146.771ZM273.925 144.7H270.395C270.408 145.257 270.557 145.687 270.844 145.989C271.13 146.292 271.524 146.443 272.025 146.443C272.589 146.443 273.106 146.258 273.578 145.887V146.639C273.139 146.958 272.558 147.117 271.835 147.117C271.129 147.117 270.574 146.891 270.17 146.438C269.766 145.983 269.564 145.343 269.564 144.52C269.564 143.742 269.784 143.108 270.224 142.62C270.666 142.129 271.215 141.883 271.869 141.883C272.523 141.883 273.03 142.094 273.388 142.518C273.746 142.941 273.925 143.528 273.925 144.28V144.7ZM273.104 144.021C273.101 143.559 272.989 143.2 272.768 142.942C272.549 142.685 272.245 142.557 271.854 142.557C271.477 142.557 271.156 142.692 270.893 142.962C270.629 143.232 270.466 143.585 270.404 144.021H273.104ZM275.961 146.277H275.941V149.3H275.141V142H275.941V142.879H275.961C276.355 142.215 276.931 141.883 277.689 141.883C278.334 141.883 278.837 142.107 279.198 142.557C279.56 143.003 279.74 143.602 279.74 144.354C279.74 145.19 279.537 145.861 279.13 146.365C278.723 146.867 278.166 147.117 277.46 147.117C276.812 147.117 276.312 146.837 275.961 146.277ZM275.941 144.261V144.959C275.941 145.372 276.075 145.724 276.342 146.014C276.612 146.3 276.954 146.443 277.367 146.443C277.852 146.443 278.231 146.258 278.505 145.887C278.782 145.516 278.92 145 278.92 144.339C278.92 143.782 278.791 143.346 278.534 143.03C278.277 142.715 277.929 142.557 277.489 142.557C277.024 142.557 276.649 142.719 276.366 143.045C276.083 143.367 275.941 143.772 275.941 144.261ZM283.339 146.951C283.15 147.055 282.901 147.107 282.592 147.107C281.716 147.107 281.278 146.619 281.278 145.643V142.684H280.419V142H281.278V140.779L282.079 140.521V142H283.339V142.684H282.079V145.501C282.079 145.836 282.136 146.076 282.25 146.219C282.364 146.362 282.553 146.434 282.816 146.434C283.018 146.434 283.192 146.378 283.339 146.268V146.951Z" fill="white"/>
<path d="M417 133H512C514.209 133 516 134.791 516 137V149C516 151.209 514.209 153 512 153H417V133Z" fill="#AB4A31"/>
<path d="M459.137 147H458.16L456.988 145.037C456.881 144.855 456.777 144.7 456.676 144.573C456.575 144.443 456.471 144.337 456.363 144.256C456.259 144.174 456.145 144.116 456.021 144.08C455.901 144.041 455.764 144.021 455.611 144.021H454.938V147H454.117V139.998H456.207C456.513 139.998 456.795 140.037 457.052 140.115C457.312 140.19 457.537 140.306 457.726 140.462C457.918 140.618 458.067 140.813 458.175 141.048C458.282 141.279 458.336 141.551 458.336 141.863C458.336 142.107 458.299 142.332 458.224 142.537C458.152 142.739 458.048 142.92 457.911 143.079C457.778 143.239 457.615 143.375 457.423 143.489C457.234 143.6 457.021 143.686 456.783 143.748V143.768C456.9 143.82 457.001 143.88 457.086 143.948C457.174 144.013 457.257 144.091 457.335 144.183C457.413 144.274 457.49 144.378 457.564 144.495C457.643 144.609 457.729 144.743 457.823 144.896L459.137 147ZM454.938 140.74V143.279H456.051C456.256 143.279 456.445 143.248 456.617 143.187C456.793 143.125 456.944 143.037 457.071 142.923C457.198 142.806 457.298 142.664 457.369 142.498C457.441 142.329 457.477 142.14 457.477 141.932C457.477 141.557 457.354 141.266 457.11 141.058C456.869 140.846 456.52 140.74 456.061 140.74H454.938ZM463.731 144.7H460.201C460.214 145.257 460.364 145.687 460.65 145.989C460.937 146.292 461.331 146.443 461.832 146.443C462.395 146.443 462.913 146.258 463.385 145.887V146.639C462.945 146.958 462.364 147.117 461.642 147.117C460.935 147.117 460.38 146.891 459.977 146.438C459.573 145.983 459.371 145.343 459.371 144.52C459.371 143.742 459.591 143.108 460.03 142.62C460.473 142.129 461.021 141.883 461.676 141.883C462.33 141.883 462.836 142.094 463.194 142.518C463.552 142.941 463.731 143.528 463.731 144.28V144.7ZM462.911 144.021C462.908 143.559 462.796 143.2 462.574 142.942C462.356 142.685 462.052 142.557 461.661 142.557C461.284 142.557 460.963 142.692 460.699 142.962C460.436 143.232 460.273 143.585 460.211 144.021H462.911ZM465.748 146.79C465.748 147.61 465.582 148.242 465.25 148.685C464.921 149.131 464.449 149.354 463.834 149.354C463.606 149.354 463.385 149.301 463.17 149.197V148.45C463.411 148.597 463.639 148.67 463.854 148.67C464.583 148.67 464.947 148.087 464.947 146.922V142H465.748V146.79ZM465.357 140.73C465.214 140.73 465.092 140.682 464.991 140.584C464.89 140.486 464.84 140.363 464.84 140.213C464.84 140.063 464.89 139.939 464.991 139.842C465.092 139.741 465.214 139.69 465.357 139.69C465.504 139.69 465.628 139.741 465.729 139.842C465.833 139.939 465.885 140.063 465.885 140.213C465.885 140.356 465.833 140.478 465.729 140.579C465.628 140.68 465.504 140.73 465.357 140.73ZM471.388 144.7H467.857C467.87 145.257 468.02 145.687 468.307 145.989C468.593 146.292 468.987 146.443 469.488 146.443C470.051 146.443 470.569 146.258 471.041 145.887V146.639C470.602 146.958 470.021 147.117 469.298 147.117C468.591 147.117 468.036 146.891 467.633 146.438C467.229 145.983 467.027 145.343 467.027 144.52C467.027 143.742 467.247 143.108 467.687 142.62C468.129 142.129 468.678 141.883 469.332 141.883C469.986 141.883 470.493 142.094 470.851 142.518C471.209 142.941 471.388 143.528 471.388 144.28V144.7ZM470.567 144.021C470.564 143.559 470.452 143.2 470.23 142.942C470.012 142.685 469.708 142.557 469.317 142.557C468.94 142.557 468.619 142.692 468.355 142.962C468.092 143.232 467.929 143.585 467.867 144.021H470.567ZM476.012 146.771C475.628 147.002 475.172 147.117 474.645 147.117C473.932 147.117 473.355 146.886 472.916 146.424C472.48 145.958 472.262 145.356 472.262 144.617C472.262 143.794 472.498 143.133 472.97 142.635C473.442 142.133 474.072 141.883 474.859 141.883C475.299 141.883 475.686 141.964 476.021 142.127V142.947C475.65 142.687 475.253 142.557 474.83 142.557C474.319 142.557 473.899 142.741 473.57 143.108C473.245 143.473 473.082 143.953 473.082 144.549C473.082 145.135 473.235 145.597 473.541 145.936C473.85 146.274 474.264 146.443 474.781 146.443C475.217 146.443 475.628 146.299 476.012 146.009V146.771ZM479.542 146.951C479.353 147.055 479.104 147.107 478.795 147.107C477.919 147.107 477.481 146.619 477.481 145.643V142.684H476.622V142H477.481V140.779L478.282 140.521V142H479.542V142.684H478.282V145.501C478.282 145.836 478.339 146.076 478.453 146.219C478.567 146.362 478.756 146.434 479.02 146.434C479.221 146.434 479.396 146.378 479.542 146.268V146.951Z" fill="white"/>
<rect x="407.5" y="133.5" width="19" height="19" rx="9.5" fill="white"/>
<rect x="407.5" y="133.5" width="19" height="19" rx="9.5" stroke="#D1D1D1"/>
<rect x="411" y="137" width="12" height="12" rx="6" fill="#0F6CBD"/>
<line x1="16" y1="167.5" x2="516" y2="167.5" stroke="#E0E0E0"/>
<rect x="24" y="184" width="16" height="16" rx="2" fill="#0F6CBD"/>
<path d="M35.765 189.205C36.0661 189.489 36.0797 189.964 35.7953 190.265L31.5453 194.765C31.4061 194.912 31.2133 194.997 31.0107 195C30.8081 195.003 30.6129 194.924 30.4697 194.78L28.2197 192.53C27.9268 192.237 27.9268 191.763 28.2197 191.47C28.5126 191.177 28.9874 191.177 29.2803 191.47L30.9846 193.174L34.7047 189.235C34.9891 188.934 35.4638 188.92 35.765 189.205Z" fill="white"/>
<path d="M60.6543 198H59.5059V193.529H54.4336V198H53.2852V188.197H54.4336V192.497H59.5059V188.197H60.6543V198ZM68.085 198H66.9639V196.906H66.9365C66.4489 197.745 65.7311 198.164 64.7832 198.164C64.0859 198.164 63.5391 197.979 63.1426 197.61C62.7507 197.241 62.5547 196.751 62.5547 196.141C62.5547 194.833 63.3249 194.072 64.8652 193.857L66.9639 193.563C66.9639 192.374 66.4831 191.779 65.5215 191.779C64.6784 191.779 63.9173 192.066 63.2383 192.641V191.492C63.9264 191.055 64.7194 190.836 65.6172 190.836C67.2624 190.836 68.085 191.706 68.085 193.447V198ZM66.9639 194.459L65.2754 194.691C64.7559 194.764 64.3639 194.894 64.0996 195.081C63.8353 195.263 63.7031 195.589 63.7031 196.059C63.7031 196.4 63.8239 196.681 64.0654 196.899C64.3115 197.114 64.6374 197.221 65.043 197.221C65.599 197.221 66.057 197.027 66.417 196.64C66.7816 196.248 66.9639 195.753 66.9639 195.156V194.459ZM73.4443 197.932C73.18 198.077 72.8314 198.15 72.3984 198.15C71.1725 198.15 70.5596 197.467 70.5596 196.1V191.957H69.3564V191H70.5596V189.291L71.6807 188.929V191H73.4443V191.957H71.6807V195.901C71.6807 196.371 71.7604 196.706 71.9199 196.906C72.0794 197.107 72.3438 197.207 72.7129 197.207C72.9954 197.207 73.2393 197.13 73.4443 196.975V197.932ZM80.458 194.78H75.5156C75.5339 195.56 75.7435 196.161 76.1445 196.585C76.5456 197.009 77.097 197.221 77.7988 197.221C78.5872 197.221 79.3118 196.961 79.9727 196.441V197.494C79.3574 197.941 78.5439 198.164 77.5322 198.164C76.5433 198.164 75.7663 197.847 75.2012 197.214C74.6361 196.576 74.3535 195.68 74.3535 194.527C74.3535 193.438 74.6611 192.552 75.2764 191.868C75.8962 191.18 76.6641 190.836 77.5801 190.836C78.4961 190.836 79.2048 191.132 79.7061 191.725C80.2074 192.317 80.458 193.14 80.458 194.192V194.78ZM79.3096 193.83C79.305 193.183 79.1478 192.679 78.8379 192.319C78.5326 191.959 78.1064 191.779 77.5596 191.779C77.0309 191.779 76.582 191.968 76.2129 192.347C75.8438 192.725 75.6159 193.219 75.5293 193.83H79.3096Z" fill="#242424"/>
<rect x="219.75" y="176" width="32" height="1" rx="0.5" transform="rotate(90 219.75 176)" fill="#E0E0E0"/>
<rect x="318.5" y="176" width="32" height="1" rx="0.5" transform="rotate(90 318.5 176)" fill="#E0E0E0"/>
<rect x="417.25" y="176" width="32" height="1" rx="0.5" transform="rotate(90 417.25 176)" fill="#E0E0E0"/>
<path d="M120 186C120 183.791 121.791 182 124 182H318V202H124C121.791 202 120 200.209 120 198V186Z" fill="#239582"/>
<path d="M210.24 196H209.332L208.59 194.037H205.621L204.923 196H204.01L206.695 188.998H207.545L210.24 196ZM208.321 193.3L207.223 190.316C207.187 190.219 207.151 190.062 207.115 189.848H207.096C207.063 190.046 207.026 190.202 206.983 190.316L205.895 193.3H208.321ZM214.576 195.771C214.192 196.002 213.736 196.117 213.209 196.117C212.496 196.117 211.92 195.886 211.48 195.424C211.044 194.958 210.826 194.356 210.826 193.617C210.826 192.794 211.062 192.133 211.534 191.635C212.006 191.133 212.636 190.883 213.424 190.883C213.863 190.883 214.251 190.964 214.586 191.127V191.947C214.215 191.687 213.818 191.557 213.395 191.557C212.883 191.557 212.464 191.741 212.135 192.108C211.809 192.473 211.646 192.953 211.646 193.549C211.646 194.135 211.799 194.597 212.105 194.936C212.415 195.274 212.828 195.443 213.346 195.443C213.782 195.443 214.192 195.299 214.576 195.009V195.771ZM219.195 195.771C218.811 196.002 218.355 196.117 217.828 196.117C217.115 196.117 216.539 195.886 216.1 195.424C215.663 194.958 215.445 194.356 215.445 193.617C215.445 192.794 215.681 192.133 216.153 191.635C216.625 191.133 217.255 190.883 218.043 190.883C218.482 190.883 218.87 190.964 219.205 191.127V191.947C218.834 191.687 218.437 191.557 218.014 191.557C217.503 191.557 217.083 191.741 216.754 192.108C216.428 192.473 216.266 192.953 216.266 193.549C216.266 194.135 216.419 194.597 216.725 194.936C217.034 195.274 217.447 195.443 217.965 195.443C218.401 195.443 218.811 195.299 219.195 195.009V195.771ZM224.425 193.7H220.895C220.908 194.257 221.057 194.687 221.344 194.989C221.63 195.292 222.024 195.443 222.525 195.443C223.089 195.443 223.606 195.258 224.078 194.887V195.639C223.639 195.958 223.058 196.117 222.335 196.117C221.629 196.117 221.074 195.891 220.67 195.438C220.266 194.983 220.064 194.343 220.064 193.52C220.064 192.742 220.284 192.108 220.724 191.62C221.166 191.129 221.715 190.883 222.369 190.883C223.023 190.883 223.53 191.094 223.888 191.518C224.246 191.941 224.425 192.528 224.425 193.28V193.7ZM223.604 193.021C223.601 192.559 223.489 192.2 223.268 191.942C223.049 191.685 222.745 191.557 222.354 191.557C221.977 191.557 221.656 191.692 221.393 191.962C221.129 192.232 220.966 192.585 220.904 193.021H223.604ZM226.461 195.277H226.441V198.3H225.641V191H226.441V191.879H226.461C226.855 191.215 227.431 190.883 228.189 190.883C228.834 190.883 229.337 191.107 229.698 191.557C230.06 192.003 230.24 192.602 230.24 193.354C230.24 194.19 230.037 194.861 229.63 195.365C229.223 195.867 228.666 196.117 227.96 196.117C227.312 196.117 226.812 195.837 226.461 195.277ZM226.441 193.261V193.959C226.441 194.372 226.575 194.724 226.842 195.014C227.112 195.3 227.454 195.443 227.867 195.443C228.352 195.443 228.731 195.258 229.005 194.887C229.282 194.516 229.42 194 229.42 193.339C229.42 192.782 229.291 192.346 229.034 192.03C228.777 191.715 228.429 191.557 227.989 191.557C227.524 191.557 227.149 191.719 226.866 192.045C226.583 192.367 226.441 192.772 226.441 193.261ZM233.839 195.951C233.65 196.055 233.401 196.107 233.092 196.107C232.216 196.107 231.778 195.619 231.778 194.643V191.684H230.919V191H231.778V189.779L232.579 189.521V191H233.839V191.684H232.579V194.501C232.579 194.836 232.636 195.076 232.75 195.219C232.864 195.362 233.053 195.434 233.316 195.434C233.518 195.434 233.692 195.378 233.839 195.268V195.951Z" fill="white"/>
<path d="M318 182H512C514.209 182 516 183.791 516 186V198C516 200.209 514.209 202 512 202H318V182Z" fill="#AB4A31"/>
<path d="M409.637 196H408.66L407.488 194.037C407.381 193.855 407.277 193.7 407.176 193.573C407.075 193.443 406.971 193.337 406.863 193.256C406.759 193.174 406.645 193.116 406.521 193.08C406.401 193.041 406.264 193.021 406.111 193.021H405.438V196H404.617V188.998H406.707C407.013 188.998 407.295 189.037 407.552 189.115C407.812 189.19 408.037 189.306 408.226 189.462C408.418 189.618 408.567 189.813 408.675 190.048C408.782 190.279 408.836 190.551 408.836 190.863C408.836 191.107 408.799 191.332 408.724 191.537C408.652 191.739 408.548 191.92 408.411 192.079C408.278 192.239 408.115 192.375 407.923 192.489C407.734 192.6 407.521 192.686 407.283 192.748V192.768C407.4 192.82 407.501 192.88 407.586 192.948C407.674 193.013 407.757 193.091 407.835 193.183C407.913 193.274 407.99 193.378 408.064 193.495C408.143 193.609 408.229 193.743 408.323 193.896L409.637 196ZM405.438 189.74V192.279H406.551C406.756 192.279 406.945 192.248 407.117 192.187C407.293 192.125 407.444 192.037 407.571 191.923C407.698 191.806 407.798 191.664 407.869 191.498C407.941 191.329 407.977 191.14 407.977 190.932C407.977 190.557 407.854 190.266 407.61 190.058C407.369 189.846 407.02 189.74 406.561 189.74H405.438ZM414.231 193.7H410.701C410.714 194.257 410.864 194.687 411.15 194.989C411.437 195.292 411.831 195.443 412.332 195.443C412.895 195.443 413.413 195.258 413.885 194.887V195.639C413.445 195.958 412.864 196.117 412.142 196.117C411.435 196.117 410.88 195.891 410.477 195.438C410.073 194.983 409.871 194.343 409.871 193.52C409.871 192.742 410.091 192.108 410.53 191.62C410.973 191.129 411.521 190.883 412.176 190.883C412.83 190.883 413.336 191.094 413.694 191.518C414.052 191.941 414.231 192.528 414.231 193.28V193.7ZM413.411 193.021C413.408 192.559 413.296 192.2 413.074 191.942C412.856 191.685 412.552 191.557 412.161 191.557C411.784 191.557 411.463 191.692 411.199 191.962C410.936 192.232 410.773 192.585 410.711 193.021H413.411ZM416.248 195.79C416.248 196.61 416.082 197.242 415.75 197.685C415.421 198.131 414.949 198.354 414.334 198.354C414.106 198.354 413.885 198.301 413.67 198.197V197.45C413.911 197.597 414.139 197.67 414.354 197.67C415.083 197.67 415.447 197.087 415.447 195.922V191H416.248V195.79ZM415.857 189.73C415.714 189.73 415.592 189.682 415.491 189.584C415.39 189.486 415.34 189.363 415.34 189.213C415.34 189.063 415.39 188.939 415.491 188.842C415.592 188.741 415.714 188.69 415.857 188.69C416.004 188.69 416.128 188.741 416.229 188.842C416.333 188.939 416.385 189.063 416.385 189.213C416.385 189.356 416.333 189.478 416.229 189.579C416.128 189.68 416.004 189.73 415.857 189.73ZM421.888 193.7H418.357C418.37 194.257 418.52 194.687 418.807 194.989C419.093 195.292 419.487 195.443 419.988 195.443C420.551 195.443 421.069 195.258 421.541 194.887V195.639C421.102 195.958 420.521 196.117 419.798 196.117C419.091 196.117 418.536 195.891 418.133 195.438C417.729 194.983 417.527 194.343 417.527 193.52C417.527 192.742 417.747 192.108 418.187 191.62C418.629 191.129 419.178 190.883 419.832 190.883C420.486 190.883 420.993 191.094 421.351 191.518C421.709 191.941 421.888 192.528 421.888 193.28V193.7ZM421.067 193.021C421.064 192.559 420.952 192.2 420.73 191.942C420.512 191.685 420.208 191.557 419.817 191.557C419.44 191.557 419.119 191.692 418.855 191.962C418.592 192.232 418.429 192.585 418.367 193.021H421.067ZM426.512 195.771C426.128 196.002 425.672 196.117 425.145 196.117C424.432 196.117 423.855 195.886 423.416 195.424C422.98 194.958 422.762 194.356 422.762 193.617C422.762 192.794 422.998 192.133 423.47 191.635C423.942 191.133 424.572 190.883 425.359 190.883C425.799 190.883 426.186 190.964 426.521 191.127V191.947C426.15 191.687 425.753 191.557 425.33 191.557C424.819 191.557 424.399 191.741 424.07 192.108C423.745 192.473 423.582 192.953 423.582 193.549C423.582 194.135 423.735 194.597 424.041 194.936C424.35 195.274 424.764 195.443 425.281 195.443C425.717 195.443 426.128 195.299 426.512 195.009V195.771ZM430.042 195.951C429.853 196.055 429.604 196.107 429.295 196.107C428.419 196.107 427.981 195.619 427.981 194.643V191.684H427.122V191H427.981V189.779L428.782 189.521V191H430.042V191.684H428.782V194.501C428.782 194.836 428.839 195.076 428.953 195.219C429.067 195.362 429.256 195.434 429.52 195.434C429.721 195.434 429.896 195.378 430.042 195.268V195.951Z" fill="white"/>
<rect x="308.5" y="182.5" width="19" height="19" rx="9.5" fill="white"/>
<rect x="308.5" y="182.5" width="19" height="19" rx="9.5" stroke="#D1D1D1"/>
<rect x="312" y="186" width="12" height="12" rx="6" fill="#0F6CBD"/>
<line x1="16" y1="216.5" x2="516" y2="216.5" stroke="#E0E0E0"/>
<rect x="24" y="233" width="16" height="16" rx="2" fill="#0F6CBD"/>
<path d="M35.765 238.205C36.0661 238.489 36.0797 238.964 35.7953 239.265L31.5453 243.765C31.4061 243.912 31.2133 243.997 31.0107 244C30.8081 244.003 30.6129 243.924 30.4697 243.78L28.2197 241.53C27.9268 241.237 27.9268 240.763 28.2197 240.47C28.5126 240.177 28.9874 240.177 29.2803 240.47L30.9846 242.174L34.7047 238.235C34.9891 237.934 35.4638 237.92 35.765 238.205Z" fill="white"/>
<path d="M52.8271 246.604V245.25C52.9821 245.387 53.1667 245.51 53.3809 245.619C53.5996 245.729 53.8275 245.822 54.0645 245.899C54.306 245.972 54.5475 246.029 54.7891 246.07C55.0306 246.111 55.2539 246.132 55.459 246.132C56.1654 246.132 56.6917 246.002 57.0381 245.742C57.389 245.478 57.5645 245.1 57.5645 244.607C57.5645 244.343 57.5052 244.113 57.3867 243.917C57.2728 243.721 57.1133 243.543 56.9082 243.384C56.7031 243.22 56.4593 243.065 56.1768 242.919C55.8988 242.769 55.598 242.611 55.2744 242.447C54.9326 242.274 54.6136 242.099 54.3174 241.921C54.0212 241.743 53.7637 241.547 53.5449 241.333C53.3262 241.119 53.153 240.877 53.0254 240.608C52.9023 240.335 52.8408 240.016 52.8408 239.651C52.8408 239.205 52.9388 238.817 53.1348 238.489C53.3307 238.157 53.5882 237.883 53.9072 237.669C54.2262 237.455 54.5885 237.295 54.9941 237.19C55.4043 237.086 55.8213 237.033 56.2451 237.033C57.2113 237.033 57.9154 237.149 58.3574 237.382V238.674C57.7786 238.273 57.0358 238.072 56.1289 238.072C55.8783 238.072 55.6276 238.1 55.377 238.154C55.1263 238.204 54.903 238.289 54.707 238.407C54.5111 238.526 54.3516 238.678 54.2285 238.865C54.1055 239.052 54.0439 239.28 54.0439 239.549C54.0439 239.799 54.0895 240.016 54.1807 240.198C54.2764 240.381 54.4154 240.547 54.5977 240.697C54.7799 240.848 55.001 240.993 55.2607 241.135C55.5251 241.276 55.8281 241.431 56.1699 241.6C56.5208 241.773 56.8535 241.955 57.168 242.146C57.4824 242.338 57.7581 242.55 57.9951 242.782C58.2321 243.015 58.4189 243.272 58.5557 243.555C58.6969 243.837 58.7676 244.161 58.7676 244.525C58.7676 245.008 58.6719 245.419 58.4805 245.756C58.2936 246.089 58.0384 246.36 57.7148 246.569C57.3958 246.779 57.0267 246.929 56.6074 247.021C56.1882 247.116 55.7461 247.164 55.2812 247.164C55.1263 247.164 54.9349 247.15 54.707 247.123C54.4792 247.1 54.2467 247.064 54.0098 247.014C53.7728 246.968 53.5472 246.911 53.333 246.843C53.1234 246.77 52.9548 246.69 52.8271 246.604ZM66.1982 243.78H61.2559C61.2741 244.56 61.4837 245.161 61.8848 245.585C62.2858 246.009 62.8372 246.221 63.5391 246.221C64.3275 246.221 65.0521 245.961 65.7129 245.441V246.494C65.0977 246.941 64.2842 247.164 63.2725 247.164C62.2835 247.164 61.5065 246.847 60.9414 246.214C60.3763 245.576 60.0938 244.68 60.0938 243.527C60.0938 242.438 60.4014 241.552 61.0166 240.868C61.6364 240.18 62.4043 239.836 63.3203 239.836C64.2363 239.836 64.945 240.132 65.4463 240.725C65.9476 241.317 66.1982 242.14 66.1982 243.192V243.78ZM65.0498 242.83C65.0452 242.183 64.888 241.679 64.5781 241.319C64.2728 240.959 63.8467 240.779 63.2998 240.779C62.7712 240.779 62.3223 240.968 61.9531 241.347C61.584 241.725 61.3561 242.219 61.2695 242.83H65.0498ZM73.0137 240L70.6621 243.541L72.9727 247H71.667L70.293 244.73C70.2064 244.589 70.1038 244.411 69.9854 244.197H69.958C69.9352 244.238 69.8281 244.416 69.6367 244.73L68.2354 247H66.9434L69.3291 243.568L67.0459 240H68.3516L69.7051 242.393C69.8053 242.57 69.9033 242.753 69.999 242.939H70.0264L71.7764 240H73.0137ZM79.9863 247H78.8652V245.893H78.8379C78.373 246.74 77.653 247.164 76.6777 247.164C75.0098 247.164 74.1758 246.171 74.1758 244.184V240H75.29V244.006C75.29 245.482 75.8551 246.221 76.9854 246.221C77.5322 246.221 77.9811 246.02 78.332 245.619C78.6875 245.214 78.8652 244.685 78.8652 244.033V240H79.9863V247ZM87.2666 247H86.1455V245.906H86.1182C85.6305 246.745 84.9128 247.164 83.9648 247.164C83.2676 247.164 82.7207 246.979 82.3242 246.61C81.9323 246.241 81.7363 245.751 81.7363 245.141C81.7363 243.833 82.5065 243.072 84.0469 242.857L86.1455 242.563C86.1455 241.374 85.6647 240.779 84.7031 240.779C83.86 240.779 83.099 241.066 82.4199 241.641V240.492C83.1081 240.055 83.901 239.836 84.7988 239.836C86.444 239.836 87.2666 240.706 87.2666 242.447V247ZM86.1455 243.459L84.457 243.691C83.9375 243.764 83.5456 243.894 83.2812 244.081C83.0169 244.263 82.8848 244.589 82.8848 245.059C82.8848 245.4 83.0055 245.681 83.2471 245.899C83.4932 246.114 83.819 246.221 84.2246 246.221C84.7806 246.221 85.2386 246.027 85.5986 245.64C85.9632 245.248 86.1455 244.753 86.1455 244.156V243.459ZM90.5 247H89.3789V236.637H90.5V247Z" fill="#242424"/>
<rect x="219.75" y="225" width="32" height="1" rx="0.5" transform="rotate(90 219.75 225)" fill="#E0E0E0"/>
<rect x="318.5" y="225" width="32" height="1" rx="0.5" transform="rotate(90 318.5 225)" fill="#E0E0E0"/>
<rect x="417.25" y="225" width="32" height="1" rx="0.5" transform="rotate(90 417.25 225)" fill="#E0E0E0"/>
<path d="M120 235C120 232.791 121.791 231 124 231H219V251H124C121.791 251 120 249.209 120 247V235Z" fill="#239582"/>
<path d="M160.74 245H159.832L159.09 243.037H156.121L155.423 245H154.51L157.195 237.998H158.045L160.74 245ZM158.821 242.3L157.723 239.316C157.687 239.219 157.651 239.062 157.615 238.848H157.596C157.563 239.046 157.526 239.202 157.483 239.316L156.395 242.3H158.821ZM165.076 244.771C164.692 245.002 164.236 245.117 163.709 245.117C162.996 245.117 162.42 244.886 161.98 244.424C161.544 243.958 161.326 243.356 161.326 242.617C161.326 241.794 161.562 241.133 162.034 240.635C162.506 240.133 163.136 239.883 163.924 239.883C164.363 239.883 164.751 239.964 165.086 240.127V240.947C164.715 240.687 164.318 240.557 163.895 240.557C163.383 240.557 162.964 240.741 162.635 241.108C162.309 241.473 162.146 241.953 162.146 242.549C162.146 243.135 162.299 243.597 162.605 243.936C162.915 244.274 163.328 244.443 163.846 244.443C164.282 244.443 164.692 244.299 165.076 244.009V244.771ZM169.695 244.771C169.311 245.002 168.855 245.117 168.328 245.117C167.615 245.117 167.039 244.886 166.6 244.424C166.163 243.958 165.945 243.356 165.945 242.617C165.945 241.794 166.181 241.133 166.653 240.635C167.125 240.133 167.755 239.883 168.543 239.883C168.982 239.883 169.37 239.964 169.705 240.127V240.947C169.334 240.687 168.937 240.557 168.514 240.557C168.003 240.557 167.583 240.741 167.254 241.108C166.928 241.473 166.766 241.953 166.766 242.549C166.766 243.135 166.919 243.597 167.225 243.936C167.534 244.274 167.947 244.443 168.465 244.443C168.901 244.443 169.311 244.299 169.695 244.009V244.771ZM174.925 242.7H171.395C171.408 243.257 171.557 243.687 171.844 243.989C172.13 244.292 172.524 244.443 173.025 244.443C173.589 244.443 174.106 244.258 174.578 243.887V244.639C174.139 244.958 173.558 245.117 172.835 245.117C172.129 245.117 171.574 244.891 171.17 244.438C170.766 243.983 170.564 243.343 170.564 242.52C170.564 241.742 170.784 241.108 171.224 240.62C171.666 240.129 172.215 239.883 172.869 239.883C173.523 239.883 174.03 240.094 174.388 240.518C174.746 240.941 174.925 241.528 174.925 242.28V242.7ZM174.104 242.021C174.101 241.559 173.989 241.2 173.768 240.942C173.549 240.685 173.245 240.557 172.854 240.557C172.477 240.557 172.156 240.692 171.893 240.962C171.629 241.232 171.466 241.585 171.404 242.021H174.104ZM176.961 244.277H176.941V247.3H176.141V240H176.941V240.879H176.961C177.355 240.215 177.931 239.883 178.689 239.883C179.334 239.883 179.837 240.107 180.198 240.557C180.56 241.003 180.74 241.602 180.74 242.354C180.74 243.19 180.537 243.861 180.13 244.365C179.723 244.867 179.166 245.117 178.46 245.117C177.812 245.117 177.312 244.837 176.961 244.277ZM176.941 242.261V242.959C176.941 243.372 177.075 243.724 177.342 244.014C177.612 244.3 177.954 244.443 178.367 244.443C178.852 244.443 179.231 244.258 179.505 243.887C179.782 243.516 179.92 243 179.92 242.339C179.92 241.782 179.791 241.346 179.534 241.03C179.277 240.715 178.929 240.557 178.489 240.557C178.024 240.557 177.649 240.719 177.366 241.045C177.083 241.367 176.941 241.772 176.941 242.261ZM184.339 244.951C184.15 245.055 183.901 245.107 183.592 245.107C182.716 245.107 182.278 244.619 182.278 243.643V240.684H181.419V240H182.278V238.779L183.079 238.521V240H184.339V240.684H183.079V243.501C183.079 243.836 183.136 244.076 183.25 244.219C183.364 244.362 183.553 244.434 183.816 244.434C184.018 244.434 184.192 244.378 184.339 244.268V244.951Z" fill="white"/>
<path d="M219 231H512C514.209 231 516 232.791 516 235V247C516 249.209 514.209 251 512 251H219V231Z" fill="#AB4A31"/>
<path d="M360.137 245H359.16L357.988 243.037C357.881 242.855 357.777 242.7 357.676 242.573C357.575 242.443 357.471 242.337 357.363 242.256C357.259 242.174 357.145 242.116 357.021 242.08C356.901 242.041 356.764 242.021 356.611 242.021H355.938V245H355.117V237.998H357.207C357.513 237.998 357.795 238.037 358.052 238.115C358.312 238.19 358.537 238.306 358.726 238.462C358.918 238.618 359.067 238.813 359.175 239.048C359.282 239.279 359.336 239.551 359.336 239.863C359.336 240.107 359.299 240.332 359.224 240.537C359.152 240.739 359.048 240.92 358.911 241.079C358.778 241.239 358.615 241.375 358.423 241.489C358.234 241.6 358.021 241.686 357.783 241.748V241.768C357.9 241.82 358.001 241.88 358.086 241.948C358.174 242.013 358.257 242.091 358.335 242.183C358.413 242.274 358.49 242.378 358.564 242.495C358.643 242.609 358.729 242.743 358.823 242.896L360.137 245ZM355.938 238.74V241.279H357.051C357.256 241.279 357.445 241.248 357.617 241.187C357.793 241.125 357.944 241.037 358.071 240.923C358.198 240.806 358.298 240.664 358.369 240.498C358.441 240.329 358.477 240.14 358.477 239.932C358.477 239.557 358.354 239.266 358.11 239.058C357.869 238.846 357.52 238.74 357.061 238.74H355.938ZM364.731 242.7H361.201C361.214 243.257 361.364 243.687 361.65 243.989C361.937 244.292 362.331 244.443 362.832 244.443C363.395 244.443 363.913 244.258 364.385 243.887V244.639C363.945 244.958 363.364 245.117 362.642 245.117C361.935 245.117 361.38 244.891 360.977 244.438C360.573 243.983 360.371 243.343 360.371 242.52C360.371 241.742 360.591 241.108 361.03 240.62C361.473 240.129 362.021 239.883 362.676 239.883C363.33 239.883 363.836 240.094 364.194 240.518C364.552 240.941 364.731 241.528 364.731 242.28V242.7ZM363.911 242.021C363.908 241.559 363.796 241.2 363.574 240.942C363.356 240.685 363.052 240.557 362.661 240.557C362.284 240.557 361.963 240.692 361.699 240.962C361.436 241.232 361.273 241.585 361.211 242.021H363.911ZM366.748 244.79C366.748 245.61 366.582 246.242 366.25 246.685C365.921 247.131 365.449 247.354 364.834 247.354C364.606 247.354 364.385 247.301 364.17 247.197V246.45C364.411 246.597 364.639 246.67 364.854 246.67C365.583 246.67 365.947 246.087 365.947 244.922V240H366.748V244.79ZM366.357 238.73C366.214 238.73 366.092 238.682 365.991 238.584C365.89 238.486 365.84 238.363 365.84 238.213C365.84 238.063 365.89 237.939 365.991 237.842C366.092 237.741 366.214 237.69 366.357 237.69C366.504 237.69 366.628 237.741 366.729 237.842C366.833 237.939 366.885 238.063 366.885 238.213C366.885 238.356 366.833 238.478 366.729 238.579C366.628 238.68 366.504 238.73 366.357 238.73ZM372.388 242.7H368.857C368.87 243.257 369.02 243.687 369.307 243.989C369.593 244.292 369.987 244.443 370.488 244.443C371.051 244.443 371.569 244.258 372.041 243.887V244.639C371.602 244.958 371.021 245.117 370.298 245.117C369.591 245.117 369.036 244.891 368.633 244.438C368.229 243.983 368.027 243.343 368.027 242.52C368.027 241.742 368.247 241.108 368.687 240.62C369.129 240.129 369.678 239.883 370.332 239.883C370.986 239.883 371.493 240.094 371.851 240.518C372.209 240.941 372.388 241.528 372.388 242.28V242.7ZM371.567 242.021C371.564 241.559 371.452 241.2 371.23 240.942C371.012 240.685 370.708 240.557 370.317 240.557C369.94 240.557 369.619 240.692 369.355 240.962C369.092 241.232 368.929 241.585 368.867 242.021H371.567ZM377.012 244.771C376.628 245.002 376.172 245.117 375.645 245.117C374.932 245.117 374.355 244.886 373.916 244.424C373.48 243.958 373.262 243.356 373.262 242.617C373.262 241.794 373.498 241.133 373.97 240.635C374.442 240.133 375.072 239.883 375.859 239.883C376.299 239.883 376.686 239.964 377.021 240.127V240.947C376.65 240.687 376.253 240.557 375.83 240.557C375.319 240.557 374.899 240.741 374.57 241.108C374.245 241.473 374.082 241.953 374.082 242.549C374.082 243.135 374.235 243.597 374.541 243.936C374.85 244.274 375.264 244.443 375.781 244.443C376.217 244.443 376.628 244.299 377.012 244.009V244.771ZM380.542 244.951C380.353 245.055 380.104 245.107 379.795 245.107C378.919 245.107 378.481 244.619 378.481 243.643V240.684H377.622V240H378.481V238.779L379.282 238.521V240H380.542V240.684H379.282V243.501C379.282 243.836 379.339 244.076 379.453 244.219C379.567 244.362 379.756 244.434 380.02 244.434C380.221 244.434 380.396 244.378 380.542 244.268V244.951Z" fill="white"/>
<rect x="209.5" y="231.5" width="19" height="19" rx="9.5" fill="white"/>
<rect x="209.5" y="231.5" width="19" height="19" rx="9.5" stroke="#D1D1D1"/>
<rect x="213" y="235" width="12" height="12" rx="6" fill="#0F6CBD"/>
<line x1="16" y1="265.5" x2="516" y2="265.5" stroke="#E0E0E0"/>
<rect x="24" y="282" width="16" height="16" rx="2" fill="#0F6CBD"/>
<path d="M35.765 287.205C36.0661 287.489 36.0797 287.964 35.7953 288.265L31.5453 292.765C31.4061 292.912 31.2133 292.997 31.0107 293C30.8081 293.003 30.6129 292.924 30.4697 292.78L28.2197 290.53C27.9268 290.237 27.9268 289.763 28.2197 289.47C28.5126 289.177 28.9874 289.177 29.2803 289.47L30.9846 291.174L34.7047 287.235C34.9891 286.934 35.4638 286.92 35.765 287.205Z" fill="white"/>
<path d="M52.8271 295.604V294.25C52.9821 294.387 53.1667 294.51 53.3809 294.619C53.5996 294.729 53.8275 294.822 54.0645 294.899C54.306 294.972 54.5475 295.029 54.7891 295.07C55.0306 295.111 55.2539 295.132 55.459 295.132C56.1654 295.132 56.6917 295.002 57.0381 294.742C57.389 294.478 57.5645 294.1 57.5645 293.607C57.5645 293.343 57.5052 293.113 57.3867 292.917C57.2728 292.721 57.1133 292.543 56.9082 292.384C56.7031 292.22 56.4593 292.065 56.1768 291.919C55.8988 291.769 55.598 291.611 55.2744 291.447C54.9326 291.274 54.6136 291.099 54.3174 290.921C54.0212 290.743 53.7637 290.547 53.5449 290.333C53.3262 290.119 53.153 289.877 53.0254 289.608C52.9023 289.335 52.8408 289.016 52.8408 288.651C52.8408 288.205 52.9388 287.817 53.1348 287.489C53.3307 287.157 53.5882 286.883 53.9072 286.669C54.2262 286.455 54.5885 286.295 54.9941 286.19C55.4043 286.086 55.8213 286.033 56.2451 286.033C57.2113 286.033 57.9154 286.149 58.3574 286.382V287.674C57.7786 287.273 57.0358 287.072 56.1289 287.072C55.8783 287.072 55.6276 287.1 55.377 287.154C55.1263 287.204 54.903 287.289 54.707 287.407C54.5111 287.526 54.3516 287.678 54.2285 287.865C54.1055 288.052 54.0439 288.28 54.0439 288.549C54.0439 288.799 54.0895 289.016 54.1807 289.198C54.2764 289.381 54.4154 289.547 54.5977 289.697C54.7799 289.848 55.001 289.993 55.2607 290.135C55.5251 290.276 55.8281 290.431 56.1699 290.6C56.5208 290.773 56.8535 290.955 57.168 291.146C57.4824 291.338 57.7581 291.55 57.9951 291.782C58.2321 292.015 58.4189 292.272 58.5557 292.555C58.6969 292.837 58.7676 293.161 58.7676 293.525C58.7676 294.008 58.6719 294.419 58.4805 294.756C58.2936 295.089 58.0384 295.36 57.7148 295.569C57.3958 295.779 57.0267 295.929 56.6074 296.021C56.1882 296.116 55.7461 296.164 55.2812 296.164C55.1263 296.164 54.9349 296.15 54.707 296.123C54.4792 296.1 54.2467 296.064 54.0098 296.014C53.7728 295.968 53.5472 295.911 53.333 295.843C53.1234 295.77 52.9548 295.69 52.8271 295.604ZM66.1982 292.78H61.2559C61.2741 293.56 61.4837 294.161 61.8848 294.585C62.2858 295.009 62.8372 295.221 63.5391 295.221C64.3275 295.221 65.0521 294.961 65.7129 294.441V295.494C65.0977 295.941 64.2842 296.164 63.2725 296.164C62.2835 296.164 61.5065 295.847 60.9414 295.214C60.3763 294.576 60.0938 293.68 60.0938 292.527C60.0938 291.438 60.4014 290.552 61.0166 289.868C61.6364 289.18 62.4043 288.836 63.3203 288.836C64.2363 288.836 64.945 289.132 65.4463 289.725C65.9476 290.317 66.1982 291.14 66.1982 292.192V292.78ZM65.0498 291.83C65.0452 291.183 64.888 290.679 64.5781 290.319C64.2728 289.959 63.8467 289.779 63.2998 289.779C62.7712 289.779 62.3223 289.968 61.9531 290.347C61.584 290.725 61.3561 291.219 61.2695 291.83H65.0498ZM69.0215 296H67.9004V285.637H69.0215V296ZM74.75 286.621C74.5312 286.498 74.2829 286.437 74.0049 286.437C73.221 286.437 72.8291 286.931 72.8291 287.92V289H74.4697V289.957H72.8291V296H71.7148V289.957H70.5186V289H71.7148V287.865C71.7148 287.132 71.9268 286.553 72.3506 286.129C72.7744 285.701 73.3031 285.486 73.9365 285.486C74.2783 285.486 74.5495 285.527 74.75 285.609V286.621ZM78.5645 292.541H74.832V291.659H78.5645V292.541ZM86.3984 296H85.2773V291.967C85.2773 290.508 84.735 289.779 83.6504 289.779C83.1035 289.779 82.6432 289.991 82.2695 290.415C81.8958 290.834 81.709 291.374 81.709 292.035V296H80.5879V285.637H81.709V290.162H81.7363C82.2741 289.278 83.0397 288.836 84.0332 288.836C85.61 288.836 86.3984 289.786 86.3984 291.687V296ZM93.5283 296H92.4072V294.906H92.3799C91.8923 295.745 91.1745 296.164 90.2266 296.164C89.5293 296.164 88.9824 295.979 88.5859 295.61C88.194 295.241 87.998 294.751 87.998 294.141C87.998 292.833 88.7682 292.072 90.3086 291.857L92.4072 291.563C92.4072 290.374 91.9264 289.779 90.9648 289.779C90.1217 289.779 89.3607 290.066 88.6816 290.641V289.492C89.3698 289.055 90.1628 288.836 91.0605 288.836C92.7057 288.836 93.5283 289.706 93.5283 291.447V296ZM92.4072 292.459L90.7188 292.691C90.1992 292.764 89.8073 292.894 89.543 293.081C89.2786 293.263 89.1465 293.589 89.1465 294.059C89.1465 294.4 89.2673 294.681 89.5088 294.899C89.7549 295.114 90.0807 295.221 90.4863 295.221C91.0423 295.221 91.5003 295.027 91.8604 294.64C92.2249 294.248 92.4072 293.753 92.4072 293.156V292.459ZM99.291 290.135C99.0951 289.984 98.8125 289.909 98.4434 289.909C97.9648 289.909 97.5638 290.135 97.2402 290.586C96.9212 291.037 96.7617 291.652 96.7617 292.432V296H95.6406V289H96.7617V290.442H96.7891C96.9486 289.95 97.1924 289.567 97.5205 289.294C97.8486 289.016 98.2155 288.877 98.6211 288.877C98.9128 288.877 99.1361 288.909 99.291 288.973V290.135ZM110.42 296H109.299V291.98C109.299 291.206 109.178 290.645 108.937 290.299C108.7 289.952 108.299 289.779 107.733 289.779C107.255 289.779 106.847 289.998 106.51 290.436C106.177 290.873 106.011 291.397 106.011 292.008V296H104.89V291.844C104.89 290.467 104.359 289.779 103.297 289.779C102.805 289.779 102.399 289.987 102.08 290.401C101.761 290.812 101.602 291.347 101.602 292.008V296H100.48V289H101.602V290.107H101.629C102.126 289.26 102.85 288.836 103.803 288.836C104.281 288.836 104.698 288.97 105.054 289.239C105.409 289.504 105.653 289.852 105.785 290.285C106.305 289.319 107.079 288.836 108.109 288.836C109.65 288.836 110.42 289.786 110.42 291.687V296Z" fill="#242424"/>
<rect x="219.75" y="274" width="32" height="1" rx="0.5" transform="rotate(90 219.75 274)" fill="#E0E0E0"/>
<rect x="318.5" y="274" width="32" height="1" rx="0.5" transform="rotate(90 318.5 274)" fill="#E0E0E0"/>
<rect x="417.25" y="274" width="32" height="1" rx="0.5" transform="rotate(90 417.25 274)" fill="#E0E0E0"/>
<path d="M120 284C120 281.791 121.791 280 124 280H514V300H124C121.791 300 120 298.209 120 296V284Z" fill="#239582"/>
<path d="M291.902 294H290.994L290.252 292.037H287.283L286.585 294H285.672L288.357 286.998H289.207L291.902 294ZM289.983 291.3L288.885 288.316C288.849 288.219 288.813 288.062 288.777 287.848H288.758C288.725 288.046 288.688 288.202 288.646 288.316L287.557 291.3H289.983ZM296.238 293.771C295.854 294.002 295.398 294.117 294.871 294.117C294.158 294.117 293.582 293.886 293.143 293.424C292.706 292.958 292.488 292.356 292.488 291.617C292.488 290.794 292.724 290.133 293.196 289.635C293.668 289.133 294.298 288.883 295.086 288.883C295.525 288.883 295.913 288.964 296.248 289.127V289.947C295.877 289.687 295.48 289.557 295.057 289.557C294.546 289.557 294.126 289.741 293.797 290.108C293.471 290.473 293.309 290.953 293.309 291.549C293.309 292.135 293.462 292.597 293.768 292.936C294.077 293.274 294.49 293.443 295.008 293.443C295.444 293.443 295.854 293.299 296.238 293.009V293.771ZM300.857 293.771C300.473 294.002 300.018 294.117 299.49 294.117C298.777 294.117 298.201 293.886 297.762 293.424C297.326 292.958 297.107 292.356 297.107 291.617C297.107 290.794 297.343 290.133 297.815 289.635C298.287 289.133 298.917 288.883 299.705 288.883C300.145 288.883 300.532 288.964 300.867 289.127V289.947C300.496 289.687 300.099 289.557 299.676 289.557C299.165 289.557 298.745 289.741 298.416 290.108C298.09 290.473 297.928 290.953 297.928 291.549C297.928 292.135 298.081 292.597 298.387 292.936C298.696 293.274 299.109 293.443 299.627 293.443C300.063 293.443 300.473 293.299 300.857 293.009V293.771ZM306.087 291.7H302.557C302.57 292.257 302.719 292.687 303.006 292.989C303.292 293.292 303.686 293.443 304.188 293.443C304.751 293.443 305.268 293.258 305.74 292.887V293.639C305.301 293.958 304.72 294.117 303.997 294.117C303.291 294.117 302.736 293.891 302.332 293.438C301.928 292.983 301.727 292.343 301.727 291.52C301.727 290.742 301.946 290.108 302.386 289.62C302.828 289.129 303.377 288.883 304.031 288.883C304.686 288.883 305.192 289.094 305.55 289.518C305.908 289.941 306.087 290.528 306.087 291.28V291.7ZM305.267 291.021C305.263 290.559 305.151 290.2 304.93 289.942C304.712 289.685 304.407 289.557 304.017 289.557C303.639 289.557 303.318 289.692 303.055 289.962C302.791 290.232 302.628 290.585 302.566 291.021H305.267ZM308.123 293.277H308.104V296.3H307.303V289H308.104V289.879H308.123C308.517 289.215 309.093 288.883 309.852 288.883C310.496 288.883 310.999 289.107 311.36 289.557C311.722 290.003 311.902 290.602 311.902 291.354C311.902 292.19 311.699 292.861 311.292 293.365C310.885 293.867 310.328 294.117 309.622 294.117C308.974 294.117 308.475 293.837 308.123 293.277ZM308.104 291.261V291.959C308.104 292.372 308.237 292.724 308.504 293.014C308.774 293.3 309.116 293.443 309.529 293.443C310.014 293.443 310.394 293.258 310.667 292.887C310.944 292.516 311.082 292 311.082 291.339C311.082 290.782 310.953 290.346 310.696 290.03C310.439 289.715 310.091 289.557 309.651 289.557C309.186 289.557 308.812 289.719 308.528 290.045C308.245 290.367 308.104 290.772 308.104 291.261ZM315.501 293.951C315.312 294.055 315.063 294.107 314.754 294.107C313.878 294.107 313.44 293.619 313.44 292.643V289.684H312.581V289H313.44V287.779L314.241 287.521V289H315.501V289.684H314.241V292.501C314.241 292.836 314.298 293.076 314.412 293.219C314.526 293.362 314.715 293.434 314.979 293.434C315.18 293.434 315.354 293.378 315.501 293.268V293.951ZM322.894 294H322.093V293.219H322.073C321.725 293.818 321.212 294.117 320.535 294.117C320.037 294.117 319.646 293.985 319.363 293.722C319.083 293.458 318.943 293.108 318.943 292.672C318.943 291.738 319.493 291.194 320.594 291.041L322.093 290.831C322.093 289.981 321.749 289.557 321.062 289.557C320.46 289.557 319.917 289.762 319.432 290.172V289.352C319.923 289.039 320.49 288.883 321.131 288.883C322.306 288.883 322.894 289.505 322.894 290.748V294ZM322.093 291.471L320.887 291.637C320.516 291.689 320.236 291.782 320.047 291.915C319.858 292.045 319.764 292.278 319.764 292.613C319.764 292.857 319.85 293.058 320.022 293.214C320.198 293.367 320.431 293.443 320.721 293.443C321.118 293.443 321.445 293.305 321.702 293.028C321.963 292.748 322.093 292.395 322.093 291.969V291.471ZM325.203 294H324.402V286.598H325.203V294ZM327.625 294H326.824V286.598H327.625V294Z" fill="white"/>
<path d="M341.714 285.459C342.063 284.847 342.937 284.847 343.286 285.459L347.378 292.628C347.726 293.238 347.289 294 346.591 294H338.409C337.711 294 337.274 293.238 337.622 292.628L341.714 285.459ZM342 288.5V289.5C342 289.776 342.224 290 342.5 290C342.776 290 343 289.776 343 289.5V288.5C343 288.224 342.776 288 342.5 288C342.224 288 342 288.224 342 288.5ZM342.5 290.75C342.086 290.75 341.75 291.086 341.75 291.5C341.75 291.914 342.086 292.25 342.5 292.25C342.914 292.25 343.25 291.914 343.25 291.5C343.25 291.086 342.914 290.75 342.5 290.75Z" fill="white"/>
<g clip-path="url(#clip0_4273_32276)">
<path d="M514 280V280C515.105 280 516 280.895 516 282V298C516 299.105 515.105 300 514 300V300V280Z" fill="#AB4A31"/>
<path d="M507.637 294H506.66L505.488 292.037C505.381 291.855 505.277 291.7 505.176 291.573C505.075 291.443 504.971 291.337 504.863 291.256C504.759 291.174 504.645 291.116 504.521 291.08C504.401 291.041 504.264 291.021 504.111 291.021H503.438V294H502.617V286.998H504.707C505.013 286.998 505.295 287.037 505.552 287.115C505.812 287.19 506.037 287.306 506.226 287.462C506.418 287.618 506.567 287.813 506.675 288.048C506.782 288.279 506.836 288.551 506.836 288.863C506.836 289.107 506.799 289.332 506.724 289.537C506.652 289.739 506.548 289.92 506.411 290.079C506.278 290.239 506.115 290.375 505.923 290.489C505.734 290.6 505.521 290.686 505.283 290.748V290.768C505.4 290.82 505.501 290.88 505.586 290.948C505.674 291.013 505.757 291.091 505.835 291.183C505.913 291.274 505.99 291.378 506.064 291.495C506.143 291.609 506.229 291.743 506.323 291.896L507.637 294ZM503.438 287.74V290.279H504.551C504.756 290.279 504.945 290.248 505.117 290.187C505.293 290.125 505.444 290.037 505.571 289.923C505.698 289.806 505.798 289.664 505.869 289.498C505.941 289.329 505.977 289.14 505.977 288.932C505.977 288.557 505.854 288.266 505.61 288.058C505.369 287.846 505.02 287.74 504.561 287.74H503.438ZM512.231 291.7H508.701C508.714 292.257 508.864 292.687 509.15 292.989C509.437 293.292 509.831 293.443 510.332 293.443C510.895 293.443 511.413 293.258 511.885 292.887V293.639C511.445 293.958 510.864 294.117 510.142 294.117C509.435 294.117 508.88 293.891 508.477 293.438C508.073 292.983 507.871 292.343 507.871 291.52C507.871 290.742 508.091 290.108 508.53 289.62C508.973 289.129 509.521 288.883 510.176 288.883C510.83 288.883 511.336 289.094 511.694 289.518C512.052 289.941 512.231 290.528 512.231 291.28V291.7ZM511.411 291.021C511.408 290.559 511.296 290.2 511.074 289.942C510.856 289.685 510.552 289.557 510.161 289.557C509.784 289.557 509.463 289.692 509.199 289.962C508.936 290.232 508.773 290.585 508.711 291.021H511.411ZM514.248 293.79C514.248 294.61 514.082 295.242 513.75 295.685C513.421 296.131 512.949 296.354 512.334 296.354C512.106 296.354 511.885 296.301 511.67 296.197V295.45C511.911 295.597 512.139 295.67 512.354 295.67C513.083 295.67 513.447 295.087 513.447 293.922V289H514.248V293.79ZM513.857 287.73C513.714 287.73 513.592 287.682 513.491 287.584C513.39 287.486 513.34 287.363 513.34 287.213C513.34 287.063 513.39 286.939 513.491 286.842C513.592 286.741 513.714 286.69 513.857 286.69C514.004 286.69 514.128 286.741 514.229 286.842C514.333 286.939 514.385 287.063 514.385 287.213C514.385 287.356 514.333 287.478 514.229 287.579C514.128 287.68 514.004 287.73 513.857 287.73ZM519.888 291.7H516.357C516.37 292.257 516.52 292.687 516.807 292.989C517.093 293.292 517.487 293.443 517.988 293.443C518.551 293.443 519.069 293.258 519.541 292.887V293.639C519.102 293.958 518.521 294.117 517.798 294.117C517.091 294.117 516.536 293.891 516.133 293.438C515.729 292.983 515.527 292.343 515.527 291.52C515.527 290.742 515.747 290.108 516.187 289.62C516.629 289.129 517.178 288.883 517.832 288.883C518.486 288.883 518.993 289.094 519.351 289.518C519.709 289.941 519.888 290.528 519.888 291.28V291.7ZM519.067 291.021C519.064 290.559 518.952 290.2 518.73 289.942C518.512 289.685 518.208 289.557 517.817 289.557C517.44 289.557 517.119 289.692 516.855 289.962C516.592 290.232 516.429 290.585 516.367 291.021H519.067ZM524.512 293.771C524.128 294.002 523.672 294.117 523.145 294.117C522.432 294.117 521.855 293.886 521.416 293.424C520.98 292.958 520.762 292.356 520.762 291.617C520.762 290.794 520.998 290.133 521.47 289.635C521.942 289.133 522.572 288.883 523.359 288.883C523.799 288.883 524.186 288.964 524.521 289.127V289.947C524.15 289.687 523.753 289.557 523.33 289.557C522.819 289.557 522.399 289.741 522.07 290.108C521.745 290.473 521.582 290.953 521.582 291.549C521.582 292.135 521.735 292.597 522.041 292.936C522.35 293.274 522.764 293.443 523.281 293.443C523.717 293.443 524.128 293.299 524.512 293.009V293.771ZM528.042 293.951C527.853 294.055 527.604 294.107 527.295 294.107C526.419 294.107 525.981 293.619 525.981 292.643V289.684H525.122V289H525.981V287.779L526.782 287.521V289H528.042V289.684H526.782V292.501C526.782 292.836 526.839 293.076 526.953 293.219C527.067 293.362 527.256 293.434 527.52 293.434C527.721 293.434 527.896 293.378 528.042 293.268V293.951Z" fill="white"/>
</g>
<rect x="505.5" y="280.5" width="19" height="19" rx="9.5" fill="white"/>
<rect x="505.5" y="280.5" width="19" height="19" rx="9.5" stroke="#D1D1D1"/>
<rect x="509" y="284" width="12" height="12" rx="6" fill="#0F6CBD"/>
<path d="M16.709 340.66V339.5C16.8418 339.617 17 339.723 17.1836 339.816C17.3711 339.91 17.5664 339.99 17.7695 340.057C17.9766 340.119 18.1836 340.168 18.3906 340.203C18.5977 340.238 18.7891 340.256 18.9648 340.256C19.5703 340.256 20.0215 340.145 20.3184 339.922C20.6191 339.695 20.7695 339.371 20.7695 338.949C20.7695 338.723 20.7188 338.525 20.6172 338.357C20.5195 338.189 20.3828 338.037 20.207 337.9C20.0312 337.76 19.8223 337.627 19.5801 337.502C19.3418 337.373 19.084 337.238 18.8066 337.098C18.5137 336.949 18.2402 336.799 17.9863 336.646C17.7324 336.494 17.5117 336.326 17.3242 336.143C17.1367 335.959 16.9883 335.752 16.8789 335.521C16.7734 335.287 16.7207 335.014 16.7207 334.701C16.7207 334.318 16.8047 333.986 16.9727 333.705C17.1406 333.42 17.3613 333.186 17.6348 333.002C17.9082 332.818 18.2188 332.682 18.5664 332.592C18.918 332.502 19.2754 332.457 19.6387 332.457C20.4668 332.457 21.0703 332.557 21.4492 332.756V333.863C20.9531 333.52 20.3164 333.348 19.5391 333.348C19.3242 333.348 19.1094 333.371 18.8945 333.418C18.6797 333.461 18.4883 333.533 18.3203 333.635C18.1523 333.736 18.0156 333.867 17.9102 334.027C17.8047 334.188 17.752 334.383 17.752 334.613C17.752 334.828 17.791 335.014 17.8691 335.17C17.9512 335.326 18.0703 335.469 18.2266 335.598C18.3828 335.727 18.5723 335.852 18.7949 335.973C19.0215 336.094 19.2812 336.227 19.5742 336.371C19.875 336.52 20.1602 336.676 20.4297 336.84C20.6992 337.004 20.9355 337.186 21.1387 337.385C21.3418 337.584 21.502 337.805 21.6191 338.047C21.7402 338.289 21.8008 338.566 21.8008 338.879C21.8008 339.293 21.7188 339.645 21.5547 339.934C21.3945 340.219 21.1758 340.451 20.8984 340.631C20.625 340.811 20.3086 340.939 19.9492 341.018C19.5898 341.1 19.2109 341.141 18.8125 341.141C18.6797 341.141 18.5156 341.129 18.3203 341.105C18.125 341.086 17.9258 341.055 17.7227 341.012C17.5195 340.973 17.3262 340.924 17.1426 340.865C16.9629 340.803 16.8184 340.734 16.709 340.66ZM28.1699 338.24H23.9336C23.9492 338.908 24.1289 339.424 24.4727 339.787C24.8164 340.15 25.2891 340.332 25.8906 340.332C26.5664 340.332 27.1875 340.109 27.7539 339.664V340.566C27.2266 340.949 26.5293 341.141 25.6621 341.141C24.8145 341.141 24.1484 340.869 23.6641 340.326C23.1797 339.779 22.9375 339.012 22.9375 338.023C22.9375 337.09 23.2012 336.33 23.7285 335.744C24.2598 335.154 24.918 334.859 25.7031 334.859C26.4883 334.859 27.0957 335.113 27.5254 335.621C27.9551 336.129 28.1699 336.834 28.1699 337.736V338.24ZM27.1855 337.426C27.1816 336.871 27.0469 336.439 26.7812 336.131C26.5195 335.822 26.1543 335.668 25.6855 335.668C25.2324 335.668 24.8477 335.83 24.5312 336.154C24.2148 336.479 24.0195 336.902 23.9453 337.426H27.1855ZM34.3457 335L31.9551 341H31.0117L28.7383 335H29.793L31.3164 339.359C31.4297 339.68 31.5 339.959 31.5273 340.197H31.5508C31.5898 339.896 31.6523 339.625 31.7383 339.383L33.332 335H34.3457ZM40.1348 338.24H35.8984C35.9141 338.908 36.0938 339.424 36.4375 339.787C36.7812 340.15 37.2539 340.332 37.8555 340.332C38.5312 340.332 39.1523 340.109 39.7188 339.664V340.566C39.1914 340.949 38.4941 341.141 37.627 341.141C36.7793 341.141 36.1133 340.869 35.6289 340.326C35.1445 339.779 34.9023 339.012 34.9023 338.023C34.9023 337.09 35.166 336.33 35.6934 335.744C36.2246 335.154 36.8828 334.859 37.668 334.859C38.4531 334.859 39.0605 335.113 39.4902 335.621C39.9199 336.129 40.1348 336.834 40.1348 337.736V338.24ZM39.1504 337.426C39.1465 336.871 39.0117 336.439 38.7461 336.131C38.4844 335.822 38.1191 335.668 37.6504 335.668C37.1973 335.668 36.8125 335.83 36.4961 336.154C36.1797 336.479 35.9844 336.902 35.9102 337.426H39.1504ZM44.7227 335.973C44.5547 335.844 44.3125 335.779 43.9961 335.779C43.5859 335.779 43.2422 335.973 42.9648 336.359C42.6914 336.746 42.5547 337.273 42.5547 337.941V341H41.5938V335H42.5547V336.236H42.5781C42.7148 335.814 42.9238 335.486 43.2051 335.252C43.4863 335.014 43.8008 334.895 44.1484 334.895C44.3984 334.895 44.5898 334.922 44.7227 334.977V335.973ZM46.2578 333.477C46.0859 333.477 45.9395 333.418 45.8184 333.301C45.6973 333.184 45.6367 333.035 45.6367 332.855C45.6367 332.676 45.6973 332.527 45.8184 332.41C45.9395 332.289 46.0859 332.229 46.2578 332.229C46.4336 332.229 46.582 332.289 46.7031 332.41C46.8281 332.527 46.8906 332.676 46.8906 332.855C46.8906 333.027 46.8281 333.174 46.7031 333.295C46.582 333.416 46.4336 333.477 46.2578 333.477ZM46.7266 341H45.7656V335H46.7266V341ZM51.4551 340.941C51.2285 341.066 50.9297 341.129 50.5586 341.129C49.5078 341.129 48.9824 340.543 48.9824 339.371V335.82H47.9512V335H48.9824V333.535L49.9434 333.225V335H51.4551V335.82H49.9434V339.201C49.9434 339.604 50.0117 339.891 50.1484 340.062C50.2852 340.234 50.5117 340.32 50.8281 340.32C51.0703 340.32 51.2793 340.254 51.4551 340.121V340.941ZM57.5137 335L54.7539 341.961C54.2617 343.203 53.5703 343.824 52.6797 343.824C52.4297 343.824 52.2207 343.799 52.0527 343.748V342.887C52.2598 342.957 52.4492 342.992 52.6211 342.992C53.1055 342.992 53.4688 342.703 53.7109 342.125L54.1914 340.988L51.8477 335H52.9141L54.5371 339.617C54.5566 339.676 54.5977 339.828 54.6602 340.074H54.6953C54.7148 339.98 54.7539 339.832 54.8125 339.629L56.5176 335H57.5137ZM66.666 338.24H62.4297C62.4453 338.908 62.625 339.424 62.9688 339.787C63.3125 340.15 63.7852 340.332 64.3867 340.332C65.0625 340.332 65.6836 340.109 66.25 339.664V340.566C65.7227 340.949 65.0254 341.141 64.1582 341.141C63.3105 341.141 62.6445 340.869 62.1602 340.326C61.6758 339.779 61.4336 339.012 61.4336 338.023C61.4336 337.09 61.6973 336.33 62.2246 335.744C62.7559 335.154 63.4141 334.859 64.1992 334.859C64.9844 334.859 65.5918 335.113 66.0215 335.621C66.4512 336.129 66.666 336.834 66.666 337.736V338.24ZM65.6816 337.426C65.6777 336.871 65.543 336.439 65.2773 336.131C65.0156 335.822 64.6504 335.668 64.1816 335.668C63.7285 335.668 63.3438 335.83 63.0273 336.154C62.7109 336.479 62.5156 336.902 62.4414 337.426H65.6816ZM72.5078 335L70.4922 338.035L72.4727 341H71.3535L70.1758 339.055C70.1016 338.934 70.0137 338.781 69.9121 338.598H69.8887C69.8691 338.633 69.7773 338.785 69.6133 339.055L68.4121 341H67.3047L69.3496 338.059L67.3926 335H68.5117L69.6719 337.051C69.7578 337.203 69.8418 337.359 69.9238 337.52H69.9473L71.4473 335H72.5078ZM77.9277 341H76.9668V340.062H76.9434C76.5254 340.781 75.9102 341.141 75.0977 341.141C74.5 341.141 74.0312 340.982 73.6914 340.666C73.3555 340.35 73.1875 339.93 73.1875 339.406C73.1875 338.285 73.8477 337.633 75.168 337.449L76.9668 337.197C76.9668 336.178 76.5547 335.668 75.7305 335.668C75.0078 335.668 74.3555 335.914 73.7734 336.406V335.422C74.3633 335.047 75.043 334.859 75.8125 334.859C77.2227 334.859 77.9277 335.605 77.9277 337.098V341ZM76.9668 337.965L75.5195 338.164C75.0742 338.227 74.7383 338.338 74.5117 338.498C74.2852 338.654 74.1719 338.934 74.1719 339.336C74.1719 339.629 74.2754 339.869 74.4824 340.057C74.6934 340.24 74.9727 340.332 75.3203 340.332C75.7969 340.332 76.1895 340.166 76.498 339.834C76.8105 339.498 76.9668 339.074 76.9668 338.562V337.965ZM88.2578 341H87.2969V337.555C87.2969 336.891 87.1934 336.41 86.9863 336.113C86.7832 335.816 86.4395 335.668 85.9551 335.668C85.5449 335.668 85.1953 335.855 84.9062 336.23C84.6211 336.605 84.4785 337.055 84.4785 337.578V341H83.5176V337.438C83.5176 336.258 83.0625 335.668 82.1523 335.668C81.7305 335.668 81.3828 335.846 81.1094 336.201C80.8359 336.553 80.6992 337.012 80.6992 337.578V341H79.7383V335H80.6992V335.949H80.7227C81.1484 335.223 81.7695 334.859 82.5859 334.859C82.9961 334.859 83.3535 334.975 83.6582 335.205C83.9629 335.432 84.1719 335.73 84.2852 336.102C84.7305 335.273 85.3945 334.859 86.2773 334.859C87.5977 334.859 88.2578 335.674 88.2578 337.303V341ZM91.0586 340.133H91.0352V343.76H90.0742V335H91.0352V336.055H91.0586C91.5312 335.258 92.2227 334.859 93.1328 334.859C93.9062 334.859 94.5098 335.129 94.9434 335.668C95.377 336.203 95.5938 336.922 95.5938 337.824C95.5938 338.828 95.3496 339.633 94.8613 340.238C94.373 340.84 93.7051 341.141 92.8574 341.141C92.0801 341.141 91.4805 340.805 91.0586 340.133ZM91.0352 337.713V338.551C91.0352 339.047 91.1953 339.469 91.5156 339.816C91.8398 340.16 92.25 340.332 92.7461 340.332C93.3281 340.332 93.7832 340.109 94.1113 339.664C94.4434 339.219 94.6094 338.6 94.6094 337.807C94.6094 337.139 94.4551 336.615 94.1465 336.236C93.8379 335.857 93.4199 335.668 92.8926 335.668C92.334 335.668 91.8848 335.863 91.5449 336.254C91.2051 336.641 91.0352 337.127 91.0352 337.713ZM98.0898 341H97.1289V332.117H98.0898V341ZM104.857 338.24H100.621C100.637 338.908 100.816 339.424 101.16 339.787C101.504 340.15 101.977 340.332 102.578 340.332C103.254 340.332 103.875 340.109 104.441 339.664V340.566C103.914 340.949 103.217 341.141 102.35 341.141C101.502 341.141 100.836 340.869 100.352 340.326C99.8672 339.779 99.625 339.012 99.625 338.023C99.625 337.09 99.8887 336.33 100.416 335.744C100.947 335.154 101.605 334.859 102.391 334.859C103.176 334.859 103.783 335.113 104.213 335.621C104.643 336.129 104.857 336.834 104.857 337.736V338.24ZM103.873 337.426C103.869 336.871 103.734 336.439 103.469 336.131C103.207 335.822 102.842 335.668 102.373 335.668C101.92 335.668 101.535 335.83 101.219 336.154C100.902 336.479 100.707 336.902 100.633 337.426H103.873Z" fill="#115EA3"/>
<path d="M112.5 331C111.672 331 111 331.672 111 332.5V339.5C111 340.328 111.672 341 112.5 341H119.5C120.328 341 121 340.328 121 339.5V337.269C121 336.993 121.224 336.769 121.5 336.769C121.776 336.769 122 336.993 122 337.269V339.5C122 340.881 120.881 342 119.5 342H112.5C111.119 342 110 340.881 110 339.5V332.5C110 331.119 111.119 330 112.5 330H114.731C115.007 330 115.231 330.224 115.231 330.5C115.231 330.776 115.007 331 114.731 331H112.5ZM116.769 330.5C116.769 330.224 116.993 330 117.269 330H121.5C121.776 330 122 330.224 122 330.5V334.731C122 335.007 121.776 335.231 121.5 335.231C121.224 335.231 121 335.007 121 334.731V331.707L117.623 335.084C117.428 335.28 117.111 335.28 116.916 335.084C116.72 334.889 116.72 334.572 116.916 334.377L120.293 331H117.269C116.993 331 116.769 330.776 116.769 330.5Z" fill="#115EA3"/>
<defs>
<clipPath id="clip0_4273_32276">
<path d="M514 280V280C515.105 280 516 280.895 516 282V298C516 299.105 515.105 300 514 300V300V280Z" fill="white"/>
</clipPath>
</defs>
</svg>
