<svg width="775" height="871" viewBox="0 0 775 871" fill="none" xmlns="http://www.w3.org/2000/svg">
<rect x="314" width="461" height="871" fill="#202028"/>
<rect width="314" height="871" fill="#202028"/>
<path d="M140.688 59.032V62.704H146.208V59.032H140.688ZM140.568 64.816C140.28 67.84 139.392 70.336 137.904 72.304L136.152 70.744C137.592 68.68 138.336 66.064 138.384 62.896V51.136H156.792V69.208C156.792 71.008 155.856 71.92 154.032 71.92H151.272L150.672 69.688C151.608 69.76 152.472 69.808 153.288 69.808C154.056 69.808 154.464 69.328 154.464 68.392V64.816H148.512V71.656H146.208V64.816H140.568ZM154.464 62.704V59.032H148.512V62.704H154.464ZM154.464 56.944V53.344H148.512V56.944H154.464ZM146.208 53.344H140.688V56.944H146.208V53.344ZM177.552 55.312H164.472V59.392H177.552V55.312ZM164.448 61.624C164.304 65.848 163.2 69.52 161.112 72.592L159.432 71.056C161.256 68.44 162.192 65.056 162.216 60.928V53.08H169.92C169.536 52.168 169.104 51.304 168.624 50.512L171.072 50.128C171.48 51.016 171.864 52 172.248 53.08H179.856V61.624H164.448Z" fill="white"/>
<path d="M594.424 72.4H591.712L591.184 70.168C592.048 70.264 592.864 70.312 593.632 70.312C594.136 70.312 594.4 70.048 594.4 69.52V64.216C592.096 64.36 589.648 64.48 587.008 64.6L586.384 62.608C587.104 62.536 587.776 62.392 588.352 62.2C590.128 61.432 592.072 60.28 594.184 58.72C592.264 58.864 590.2 59.008 588.04 59.128L587.56 57.112C588.112 57.064 588.616 56.92 589.096 56.704C590.056 56.224 591.208 55.24 592.552 53.752C590.656 53.824 588.664 53.872 586.552 53.872L585.88 51.904C592.744 51.904 598.552 51.424 603.28 50.512L604.408 52.408C601.864 52.96 598.84 53.344 595.384 53.584C594.136 55.024 592.84 56.224 591.496 57.184C593.176 57.088 594.856 56.992 596.536 56.872C597.544 56.032 598.6 55.12 599.68 54.136L601.792 55.168C597.976 58.48 594.664 60.904 591.856 62.488C595.192 62.272 598.096 62.008 600.568 61.72C600.04 61.024 599.512 60.328 598.936 59.632L600.616 58.576C602.608 60.88 604.144 62.92 605.2 64.648L603.376 65.92C602.944 65.152 602.44 64.36 601.888 63.544C600.304 63.736 598.576 63.904 596.68 64.048V70.072C596.68 71.608 595.912 72.4 594.424 72.4ZM599.92 65.152C602.32 66.88 604.312 68.608 605.92 70.336L604.288 71.968C602.896 70.312 600.928 68.536 598.408 66.64L599.92 65.152ZM590.344 65.32L591.952 66.76C590.32 68.704 588.328 70.408 585.928 71.872L584.488 70C586.792 68.656 588.76 67.096 590.344 65.32ZM615.904 66.616V68.8C613.72 69.904 611.224 70.816 608.44 71.488L608.176 69.208C611.104 68.56 613.696 67.696 615.904 66.616ZM611.728 50.224L613.912 51.088C612.76 53.944 611.608 56.272 610.456 58.048C611.272 57.952 612.088 57.832 612.904 57.688C613.312 56.92 613.744 56.08 614.176 55.192L616.216 55.96C614.296 59.608 612.688 62.296 611.368 64.024C612.856 63.616 614.368 63.088 615.904 62.416V64.504C613.312 65.584 610.84 66.304 608.512 66.688L607.912 64.576C608.32 64.384 608.656 64.168 608.944 63.904C609.688 63.112 610.624 61.744 611.752 59.8C610.648 59.992 609.496 60.16 608.296 60.328L607.72 58.24C608.08 58.096 608.416 57.784 608.704 57.352C609.856 55.216 610.864 52.84 611.728 50.224ZM616.624 61.096L616.12 59.08C616.312 59.032 616.48 58.96 616.576 58.912C617.296 58.384 618.232 57.016 619.36 54.856H615.64V52.672H621.472C621.184 51.904 620.872 51.184 620.536 50.512L622.864 50.128C623.176 50.896 623.488 51.736 623.776 52.672H629.032V54.856H621.736C620.824 56.584 620.008 57.904 619.288 58.864C621.232 58.672 623.176 58.432 625.096 58.144C624.616 57.472 624.136 56.824 623.656 56.176L625.384 55.096C626.968 57.136 628.192 58.936 629.056 60.472L627.28 61.696C626.992 61.144 626.656 60.592 626.32 60.016C623.344 60.472 620.104 60.832 616.624 61.096ZM618.4 61.84H620.608C620.488 64.888 620.104 67.12 619.48 68.536C618.784 70.024 617.632 71.32 616 72.424L614.56 70.624C615.904 69.76 616.864 68.728 617.44 67.528C617.992 66.376 618.304 64.48 618.4 61.84ZM627.184 72.04H625.648C623.944 72.04 623.104 71.272 623.104 69.76V61.576H625.288V69.328C625.288 69.712 625.432 69.952 625.72 70H627.064C627.496 69.952 627.76 69.64 627.808 69.064C627.88 68.416 627.928 67.48 627.928 66.28L629.896 66.976C629.896 69.28 629.704 70.672 629.368 71.2C629.032 71.68 628.288 71.944 627.184 72.04Z" fill="white"/>
<rect x="31.5" y="127.5" width="255" height="95" rx="47.5" fill="white" stroke="white" stroke-miterlimit="0"/>
<path d="M134.528 167.56H135.744V173.016H134.528V167.56ZM131.04 173.576V176.44H139.408V173.576H131.04ZM129.904 172.44H140.624V177.56H129.904V172.44ZM135.088 169.272H141.824V170.408H135.088V169.272ZM132.688 178.952L133.84 178.856C134.064 179.896 134.24 181.208 134.256 181.992L133.024 182.152C133.024 181.336 132.896 179.992 132.688 178.952ZM136 178.968L137.088 178.744C137.584 179.704 138.112 181 138.304 181.816L137.12 182.104C136.96 181.304 136.48 179.976 136 178.968ZM139.264 178.84L140.336 178.44C141.152 179.432 142.08 180.792 142.464 181.688L141.328 182.152C140.96 181.272 140.08 179.864 139.264 178.84ZM130.096 178.536L131.232 178.824C130.704 180.072 129.888 181.432 129.024 182.28L127.92 181.736C128.768 181.016 129.6 179.72 130.096 178.536ZM145.312 170.056H156.96V171.24H145.312V170.056ZM144.128 173.752H158.08V174.952H144.128V173.752ZM150.496 167.576H151.76V181H150.496V167.576ZM155.488 176.184H156.704V182.296H155.488V176.184ZM145.44 176.184H146.704V180.2H156.288V181.384H145.44V176.184ZM168.368 173.32H173.184V174.472H168.368V173.32ZM167.824 173.32H169.008V180.264C169.008 180.872 169.136 180.984 169.872 180.984C170.208 180.984 171.904 180.984 172.368 180.984C173.072 180.984 173.2 180.568 173.28 178.264C173.552 178.488 174.064 178.696 174.4 178.776C174.24 181.384 173.904 182.12 172.432 182.12C172.096 182.12 170.064 182.12 169.744 182.12C168.272 182.12 167.824 181.752 167.824 180.264V173.32ZM167.76 168.296H173.792V175.56H172.624V169.448H167.76V168.296ZM160.208 171.128H166.624V182.008H165.632V172.152H161.184V182.216H160.208V171.128ZM160.704 177.576H166.096V178.472H160.704V177.576ZM160.704 180.152H166.096V181.128H160.704V180.152ZM159.824 168.184H166.976V169.272H159.824V168.184ZM162.128 168.488H162.992V171.864H162.128V168.488ZM163.92 168.488H164.8V171.864H163.92V168.488ZM162.288 171.848H162.96V173.432C162.96 174.424 162.72 175.704 161.728 176.616C161.616 176.472 161.344 176.232 161.184 176.152C162.128 175.336 162.288 174.28 162.288 173.416V171.848ZM163.84 171.848H164.528V175.176C164.528 175.368 164.56 175.4 164.736 175.4C164.816 175.4 165.232 175.4 165.328 175.4C165.504 175.4 165.552 175.4 165.568 175.352C165.728 175.48 166 175.56 166.208 175.624C166.128 175.96 165.904 176.104 165.456 176.104C165.344 176.104 164.8 176.104 164.672 176.104C164.032 176.104 163.84 175.96 163.84 175.176V171.848ZM175.84 169.704H181.296V170.856H175.84V169.704ZM180.896 169.704H181.104L181.312 169.656L182.08 169.88C181.408 176.104 179.312 180.088 176.288 182.248C176.112 181.96 175.728 181.512 175.44 181.288C178.224 179.464 180.288 175.48 180.896 169.992V169.704ZM176.192 173.752L177.024 173.016C179.184 174.888 181.632 177.512 182.64 179.352L181.696 180.232C180.704 178.392 178.336 175.672 176.192 173.752ZM182.448 171.416H190.064V172.584H182.448V171.416ZM186.96 167.56H188.16V180.664C188.16 181.464 187.952 181.816 187.472 182.04C186.992 182.248 186.176 182.28 184.8 182.28C184.752 181.944 184.576 181.384 184.4 181.016C185.408 181.048 186.304 181.048 186.576 181.032C186.848 181.016 186.96 180.936 186.96 180.648V167.56ZM182.752 174.712L183.744 174.248C184.512 175.352 185.28 176.824 185.536 177.8L184.48 178.312C184.24 177.352 183.52 175.832 182.752 174.712Z" fill="black"/>
<rect x="479.5" y="127.5" width="255" height="95" rx="5.5" fill="white" stroke="black" stroke-miterlimit="0"/>
<path d="M560.459 168.152L561.339 168.952C560.523 169.432 559.467 169.848 558.571 170.136C558.507 169.912 558.347 169.56 558.203 169.32C559.019 169.016 559.931 168.568 560.459 168.152ZM557.979 168.984L559.035 169.32V174.472H557.979V168.984ZM557.979 173.928H565.211V169.864H563.179V168.888H566.299V174.92H557.979V173.928ZM558.443 171.416H560.779V172.328H558.443V171.416ZM563.243 171.416H565.691V172.328H563.243V171.416ZM561.499 167.576H562.587V176.6H561.499V167.576ZM557.547 176.376H565.403V177.4H557.547V176.376ZM565.067 176.376H565.291L565.499 176.328L566.251 176.696C564.731 180.104 561.083 181.672 557.163 182.312C557.067 182.008 556.843 181.544 556.635 181.288C560.299 180.808 563.803 179.4 565.067 176.552V176.376ZM559.643 177.288C560.939 179.432 563.739 180.808 567.099 181.336C566.827 181.592 566.507 182.056 566.347 182.392C562.907 181.736 560.091 180.168 558.587 177.688L559.643 177.288ZM552.027 176.072C553.403 175.72 555.451 175.112 557.435 174.536L557.579 175.624C555.755 176.2 553.835 176.808 552.347 177.24L552.027 176.072ZM552.235 170.792H557.419V171.912H552.235V170.792ZM554.459 167.576H555.627V180.904C555.627 181.56 555.467 181.896 555.051 182.072C554.635 182.264 553.995 182.296 552.923 182.28C552.891 181.992 552.715 181.512 552.571 181.192C553.291 181.208 553.963 181.208 554.155 181.208C554.379 181.208 554.459 181.128 554.459 180.904V167.576ZM574.763 177.88H575.963V182.312H574.763V177.88ZM574.763 167.56H575.947V172.04H574.763V167.56ZM574.171 172.328L575.291 172.872C574.363 173.736 573.227 174.664 572.299 175.304L571.419 174.808C572.315 174.152 573.515 173.096 574.171 172.328ZM577.627 173.368L578.715 173.96C576.907 175.432 574.443 177.128 572.491 178.216L571.643 177.64C573.595 176.536 576.123 174.728 577.627 173.368ZM570.187 174.76L570.987 174.072C572.187 174.664 573.707 175.576 574.491 176.248L573.659 177.016C572.923 176.344 571.419 175.384 570.187 174.76ZM577.451 176.024L578.251 175.384C579.659 176.216 581.435 177.448 582.331 178.296L581.483 179.032C580.635 178.184 578.875 176.872 577.451 176.024ZM577.499 179.448L578.411 178.824C579.787 179.496 581.547 180.568 582.459 181.352L581.467 182.072C580.635 181.288 578.907 180.168 577.499 179.448ZM568.443 177.384C571.371 177.384 576.203 177.32 580.763 177.224L580.699 178.184C576.267 178.312 571.547 178.456 568.507 178.488L568.443 177.384ZM572.027 178.808L573.163 179.224C572.091 180.328 570.443 181.432 569.051 182.12C568.843 181.896 568.395 181.48 568.107 181.272C569.531 180.68 571.067 179.752 572.027 178.808ZM568.619 168.984H582.139V170.04H568.619V168.984ZM568.571 171.576H582.283V174.584H581.099V172.616H569.707V174.584H568.571V171.576ZM592.059 171.256H598.635V172.36H592.059V171.256ZM596.059 167.768H597.211V180.744C597.211 181.464 597.035 181.816 596.603 182.024C596.155 182.216 595.435 182.264 594.251 182.248C594.203 181.944 594.027 181.416 593.867 181.08C594.715 181.096 595.483 181.096 595.707 181.096C595.963 181.08 596.059 181 596.059 180.744V167.768ZM592.411 174.392L593.339 173.976C593.963 175.128 594.699 176.616 595.035 177.592L594.043 178.072C593.723 177.08 593.003 175.544 592.411 174.392ZM591.483 167.576L592.587 167.88C591.771 170.456 590.507 173.016 589.051 174.68C588.907 174.456 588.523 173.928 588.299 173.704C589.643 172.216 590.795 169.912 591.483 167.576ZM584.539 168.248H588.171V169.336H585.627V182.28H584.539V168.248ZM587.787 168.248H587.995L588.171 168.2L588.939 168.648C588.523 170.024 587.979 171.656 587.467 172.984C588.539 174.376 588.795 175.576 588.795 176.584C588.795 177.48 588.619 178.184 588.187 178.504C587.979 178.664 587.707 178.76 587.387 178.808C587.099 178.84 586.715 178.856 586.379 178.824C586.363 178.52 586.283 178.072 586.107 177.752C586.443 177.8 586.715 177.8 586.939 177.784C587.131 177.768 587.291 177.72 587.419 177.64C587.627 177.464 587.707 176.984 587.707 176.472C587.707 175.576 587.467 174.44 586.411 173.112C586.939 171.624 587.483 169.688 587.787 168.584V168.248ZM590.203 171.416L591.163 170.472L591.291 170.52V182.2H590.203V171.416ZM606.315 172.28H614.283V173.416H606.315V172.28ZM610.107 172.792H611.291V180.024H610.107V172.792ZM605.675 168.648L607.195 168.984C607.179 169.096 607.083 169.16 606.859 169.208V172.392C606.859 174.52 606.555 177.512 604.587 179.624C604.443 179.352 604.011 178.952 603.723 178.792C605.467 176.888 605.675 174.36 605.675 172.36V168.648ZM612.379 167.624L613.403 168.536C611.547 169.16 608.843 169.624 606.507 169.896C606.443 169.624 606.267 169.192 606.123 168.936C608.363 168.632 610.939 168.152 612.379 167.624ZM603.227 173.88V179.544H602.059V175H599.819V173.88H603.227ZM603.227 179.016C603.979 180.2 605.403 180.744 607.243 180.824C608.987 180.888 612.587 180.84 614.475 180.712C614.347 181 614.139 181.576 614.091 181.944C612.331 182.008 609.019 182.04 607.243 181.976C605.163 181.896 603.723 181.336 602.699 180.072C601.931 180.76 601.115 181.448 600.251 182.152L599.611 180.92C600.379 180.408 601.323 179.704 602.139 179.016H603.227ZM599.995 168.68L600.875 167.96C601.931 168.632 603.131 169.672 603.691 170.456L602.747 171.24C602.235 170.472 601.035 169.384 599.995 168.68ZM629.877 173.148H628.104C628.036 172.769 627.909 172.436 627.723 172.148C627.538 171.86 627.31 171.616 627.041 171.415C626.772 171.214 626.471 171.062 626.138 170.96C625.808 170.858 625.458 170.807 625.087 170.807C624.416 170.807 623.816 170.975 623.286 171.312C622.759 171.65 622.342 172.144 622.036 172.795C621.733 173.447 621.581 174.242 621.581 175.182C621.581 176.129 621.733 176.928 622.036 177.58C622.342 178.231 622.761 178.723 623.291 179.057C623.822 179.39 624.418 179.557 625.081 179.557C625.449 179.557 625.797 179.508 626.127 179.409C626.46 179.307 626.761 179.157 627.03 178.96C627.299 178.763 627.526 178.523 627.712 178.239C627.901 177.951 628.032 177.621 628.104 177.25L629.877 177.256C629.782 177.828 629.598 178.354 629.325 178.835C629.056 179.312 628.71 179.725 628.286 180.074C627.865 180.419 627.384 180.686 626.842 180.875C626.301 181.064 625.71 181.159 625.07 181.159C624.062 181.159 623.164 180.92 622.377 180.443C621.589 179.962 620.967 179.275 620.513 178.381C620.062 177.487 619.837 176.42 619.837 175.182C619.837 173.939 620.064 172.873 620.519 171.983C620.973 171.089 621.594 170.403 622.382 169.926C623.17 169.445 624.066 169.205 625.07 169.205C625.687 169.205 626.263 169.294 626.797 169.472C627.335 169.646 627.818 169.903 628.246 170.244C628.674 170.581 629.028 170.994 629.308 171.483C629.589 171.968 629.778 172.523 629.877 173.148ZM641.909 175.182C641.909 176.424 641.682 177.492 641.228 178.386C640.773 179.277 640.15 179.962 639.358 180.443C638.57 180.92 637.675 181.159 636.671 181.159C635.663 181.159 634.764 180.92 633.972 180.443C633.184 179.962 632.563 179.275 632.108 178.381C631.654 177.487 631.426 176.42 631.426 175.182C631.426 173.939 631.654 172.873 632.108 171.983C632.563 171.089 633.184 170.403 633.972 169.926C634.764 169.445 635.663 169.205 636.671 169.205C637.675 169.205 638.57 169.445 639.358 169.926C640.15 170.403 640.773 171.089 641.228 171.983C641.682 172.873 641.909 173.939 641.909 175.182ZM640.171 175.182C640.171 174.235 640.017 173.437 639.71 172.79C639.407 172.138 638.991 171.646 638.46 171.312C637.934 170.975 637.337 170.807 636.671 170.807C636 170.807 635.402 170.975 634.875 171.312C634.349 171.646 633.932 172.138 633.625 172.79C633.322 173.437 633.171 174.235 633.171 175.182C633.171 176.129 633.322 176.928 633.625 177.58C633.932 178.227 634.349 178.72 634.875 179.057C635.402 179.39 636 179.557 636.671 179.557C637.337 179.557 637.934 179.39 638.46 179.057C638.991 178.72 639.407 178.227 639.71 177.58C640.017 176.928 640.171 176.129 640.171 175.182ZM643.922 181V169.364H648.07C648.972 169.364 649.72 169.519 650.314 169.83C650.913 170.14 651.36 170.57 651.655 171.119C651.951 171.665 652.098 172.295 652.098 173.011C652.098 173.723 651.949 174.35 651.65 174.892C651.354 175.43 650.907 175.848 650.309 176.148C649.714 176.447 648.966 176.597 648.064 176.597H644.922V175.085H647.905C648.473 175.085 648.936 175.004 649.292 174.841C649.651 174.678 649.915 174.441 650.081 174.131C650.248 173.82 650.331 173.447 650.331 173.011C650.331 172.572 650.246 172.191 650.076 171.869C649.909 171.547 649.646 171.301 649.286 171.131C648.93 170.956 648.462 170.869 647.883 170.869H645.678V181H643.922ZM649.667 175.75L652.542 181H650.542L647.723 175.75H649.667ZM654.059 181V169.364H661.354V170.875H655.814V174.42H660.974V175.926H655.814V179.489H661.422V181H654.059Z" fill="black"/>
<rect x="479.5" y="127.5" width="255" height="95" rx="5.5" fill="white" stroke="black" stroke-miterlimit="0"/>
<path d="M560.459 168.152L561.339 168.952C560.523 169.432 559.467 169.848 558.571 170.136C558.507 169.912 558.347 169.56 558.203 169.32C559.019 169.016 559.931 168.568 560.459 168.152ZM557.979 168.984L559.035 169.32V174.472H557.979V168.984ZM557.979 173.928H565.211V169.864H563.179V168.888H566.299V174.92H557.979V173.928ZM558.443 171.416H560.779V172.328H558.443V171.416ZM563.243 171.416H565.691V172.328H563.243V171.416ZM561.499 167.576H562.587V176.6H561.499V167.576ZM557.547 176.376H565.403V177.4H557.547V176.376ZM565.067 176.376H565.291L565.499 176.328L566.251 176.696C564.731 180.104 561.083 181.672 557.163 182.312C557.067 182.008 556.843 181.544 556.635 181.288C560.299 180.808 563.803 179.4 565.067 176.552V176.376ZM559.643 177.288C560.939 179.432 563.739 180.808 567.099 181.336C566.827 181.592 566.507 182.056 566.347 182.392C562.907 181.736 560.091 180.168 558.587 177.688L559.643 177.288ZM552.027 176.072C553.403 175.72 555.451 175.112 557.435 174.536L557.579 175.624C555.755 176.2 553.835 176.808 552.347 177.24L552.027 176.072ZM552.235 170.792H557.419V171.912H552.235V170.792ZM554.459 167.576H555.627V180.904C555.627 181.56 555.467 181.896 555.051 182.072C554.635 182.264 553.995 182.296 552.923 182.28C552.891 181.992 552.715 181.512 552.571 181.192C553.291 181.208 553.963 181.208 554.155 181.208C554.379 181.208 554.459 181.128 554.459 180.904V167.576ZM574.763 177.88H575.963V182.312H574.763V177.88ZM574.763 167.56H575.947V172.04H574.763V167.56ZM574.171 172.328L575.291 172.872C574.363 173.736 573.227 174.664 572.299 175.304L571.419 174.808C572.315 174.152 573.515 173.096 574.171 172.328ZM577.627 173.368L578.715 173.96C576.907 175.432 574.443 177.128 572.491 178.216L571.643 177.64C573.595 176.536 576.123 174.728 577.627 173.368ZM570.187 174.76L570.987 174.072C572.187 174.664 573.707 175.576 574.491 176.248L573.659 177.016C572.923 176.344 571.419 175.384 570.187 174.76ZM577.451 176.024L578.251 175.384C579.659 176.216 581.435 177.448 582.331 178.296L581.483 179.032C580.635 178.184 578.875 176.872 577.451 176.024ZM577.499 179.448L578.411 178.824C579.787 179.496 581.547 180.568 582.459 181.352L581.467 182.072C580.635 181.288 578.907 180.168 577.499 179.448ZM568.443 177.384C571.371 177.384 576.203 177.32 580.763 177.224L580.699 178.184C576.267 178.312 571.547 178.456 568.507 178.488L568.443 177.384ZM572.027 178.808L573.163 179.224C572.091 180.328 570.443 181.432 569.051 182.12C568.843 181.896 568.395 181.48 568.107 181.272C569.531 180.68 571.067 179.752 572.027 178.808ZM568.619 168.984H582.139V170.04H568.619V168.984ZM568.571 171.576H582.283V174.584H581.099V172.616H569.707V174.584H568.571V171.576ZM592.059 171.256H598.635V172.36H592.059V171.256ZM596.059 167.768H597.211V180.744C597.211 181.464 597.035 181.816 596.603 182.024C596.155 182.216 595.435 182.264 594.251 182.248C594.203 181.944 594.027 181.416 593.867 181.08C594.715 181.096 595.483 181.096 595.707 181.096C595.963 181.08 596.059 181 596.059 180.744V167.768ZM592.411 174.392L593.339 173.976C593.963 175.128 594.699 176.616 595.035 177.592L594.043 178.072C593.723 177.08 593.003 175.544 592.411 174.392ZM591.483 167.576L592.587 167.88C591.771 170.456 590.507 173.016 589.051 174.68C588.907 174.456 588.523 173.928 588.299 173.704C589.643 172.216 590.795 169.912 591.483 167.576ZM584.539 168.248H588.171V169.336H585.627V182.28H584.539V168.248ZM587.787 168.248H587.995L588.171 168.2L588.939 168.648C588.523 170.024 587.979 171.656 587.467 172.984C588.539 174.376 588.795 175.576 588.795 176.584C588.795 177.48 588.619 178.184 588.187 178.504C587.979 178.664 587.707 178.76 587.387 178.808C587.099 178.84 586.715 178.856 586.379 178.824C586.363 178.52 586.283 178.072 586.107 177.752C586.443 177.8 586.715 177.8 586.939 177.784C587.131 177.768 587.291 177.72 587.419 177.64C587.627 177.464 587.707 176.984 587.707 176.472C587.707 175.576 587.467 174.44 586.411 173.112C586.939 171.624 587.483 169.688 587.787 168.584V168.248ZM590.203 171.416L591.163 170.472L591.291 170.52V182.2H590.203V171.416ZM606.315 172.28H614.283V173.416H606.315V172.28ZM610.107 172.792H611.291V180.024H610.107V172.792ZM605.675 168.648L607.195 168.984C607.179 169.096 607.083 169.16 606.859 169.208V172.392C606.859 174.52 606.555 177.512 604.587 179.624C604.443 179.352 604.011 178.952 603.723 178.792C605.467 176.888 605.675 174.36 605.675 172.36V168.648ZM612.379 167.624L613.403 168.536C611.547 169.16 608.843 169.624 606.507 169.896C606.443 169.624 606.267 169.192 606.123 168.936C608.363 168.632 610.939 168.152 612.379 167.624ZM603.227 173.88V179.544H602.059V175H599.819V173.88H603.227ZM603.227 179.016C603.979 180.2 605.403 180.744 607.243 180.824C608.987 180.888 612.587 180.84 614.475 180.712C614.347 181 614.139 181.576 614.091 181.944C612.331 182.008 609.019 182.04 607.243 181.976C605.163 181.896 603.723 181.336 602.699 180.072C601.931 180.76 601.115 181.448 600.251 182.152L599.611 180.92C600.379 180.408 601.323 179.704 602.139 179.016H603.227ZM599.995 168.68L600.875 167.96C601.931 168.632 603.131 169.672 603.691 170.456L602.747 171.24C602.235 170.472 601.035 169.384 599.995 168.68ZM629.877 173.148H628.104C628.036 172.769 627.909 172.436 627.723 172.148C627.538 171.86 627.31 171.616 627.041 171.415C626.772 171.214 626.471 171.062 626.138 170.96C625.808 170.858 625.458 170.807 625.087 170.807C624.416 170.807 623.816 170.975 623.286 171.312C622.759 171.65 622.342 172.144 622.036 172.795C621.733 173.447 621.581 174.242 621.581 175.182C621.581 176.129 621.733 176.928 622.036 177.58C622.342 178.231 622.761 178.723 623.291 179.057C623.822 179.39 624.418 179.557 625.081 179.557C625.449 179.557 625.797 179.508 626.127 179.409C626.46 179.307 626.761 179.157 627.03 178.96C627.299 178.763 627.526 178.523 627.712 178.239C627.901 177.951 628.032 177.621 628.104 177.25L629.877 177.256C629.782 177.828 629.598 178.354 629.325 178.835C629.056 179.312 628.71 179.725 628.286 180.074C627.865 180.419 627.384 180.686 626.842 180.875C626.301 181.064 625.71 181.159 625.07 181.159C624.062 181.159 623.164 180.92 622.377 180.443C621.589 179.962 620.967 179.275 620.513 178.381C620.062 177.487 619.837 176.42 619.837 175.182C619.837 173.939 620.064 172.873 620.519 171.983C620.973 171.089 621.594 170.403 622.382 169.926C623.17 169.445 624.066 169.205 625.07 169.205C625.687 169.205 626.263 169.294 626.797 169.472C627.335 169.646 627.818 169.903 628.246 170.244C628.674 170.581 629.028 170.994 629.308 171.483C629.589 171.968 629.778 172.523 629.877 173.148ZM641.909 175.182C641.909 176.424 641.682 177.492 641.228 178.386C640.773 179.277 640.15 179.962 639.358 180.443C638.57 180.92 637.675 181.159 636.671 181.159C635.663 181.159 634.764 180.92 633.972 180.443C633.184 179.962 632.563 179.275 632.108 178.381C631.654 177.487 631.426 176.42 631.426 175.182C631.426 173.939 631.654 172.873 632.108 171.983C632.563 171.089 633.184 170.403 633.972 169.926C634.764 169.445 635.663 169.205 636.671 169.205C637.675 169.205 638.57 169.445 639.358 169.926C640.15 170.403 640.773 171.089 641.228 171.983C641.682 172.873 641.909 173.939 641.909 175.182ZM640.171 175.182C640.171 174.235 640.017 173.437 639.71 172.79C639.407 172.138 638.991 171.646 638.46 171.312C637.934 170.975 637.337 170.807 636.671 170.807C636 170.807 635.402 170.975 634.875 171.312C634.349 171.646 633.932 172.138 633.625 172.79C633.322 173.437 633.171 174.235 633.171 175.182C633.171 176.129 633.322 176.928 633.625 177.58C633.932 178.227 634.349 178.72 634.875 179.057C635.402 179.39 636 179.557 636.671 179.557C637.337 179.557 637.934 179.39 638.46 179.057C638.991 178.72 639.407 178.227 639.71 177.58C640.017 176.928 640.171 176.129 640.171 175.182ZM643.922 181V169.364H648.07C648.972 169.364 649.72 169.519 650.314 169.83C650.913 170.14 651.36 170.57 651.655 171.119C651.951 171.665 652.098 172.295 652.098 173.011C652.098 173.723 651.949 174.35 651.65 174.892C651.354 175.43 650.907 175.848 650.309 176.148C649.714 176.447 648.966 176.597 648.064 176.597H644.922V175.085H647.905C648.473 175.085 648.936 175.004 649.292 174.841C649.651 174.678 649.915 174.441 650.081 174.131C650.248 173.82 650.331 173.447 650.331 173.011C650.331 172.572 650.246 172.191 650.076 171.869C649.909 171.547 649.646 171.301 649.286 171.131C648.93 170.956 648.462 170.869 647.883 170.869H645.678V181H643.922ZM649.667 175.75L652.542 181H650.542L647.723 175.75H649.667ZM654.059 181V169.364H661.354V170.875H655.814V174.42H660.974V175.926H655.814V179.489H661.422V181H654.059Z" fill="black"/>
<path d="M291 174.5C290.724 174.5 290.5 174.724 290.5 175C290.5 175.276 290.724 175.5 291 175.5V174.5ZM475.354 175.354C475.549 175.158 475.549 174.842 475.354 174.646L472.172 171.464C471.976 171.269 471.66 171.269 471.464 171.464C471.269 171.66 471.269 171.976 471.464 172.172L474.293 175L471.464 177.828C471.269 178.024 471.269 178.34 471.464 178.536C471.66 178.731 471.976 178.731 472.172 178.536L475.354 175.354ZM291 175.5H475V174.5H291V175.5Z" fill="white"/>
<path d="M605.056 319.855L605.056 319.855L605.069 319.85C606.314 319.383 607.686 319.383 608.931 319.85L608.931 319.85L608.944 319.855L730.931 361.85C730.933 361.851 730.935 361.852 730.937 361.852C735.688 363.64 735.688 370.36 730.937 372.148C730.935 372.148 730.933 372.149 730.931 372.15L608.944 414.145L608.944 414.145L608.931 414.15C607.686 414.617 606.314 414.617 605.069 414.15L605.069 414.15L605.056 414.145L483.063 372.147C478.312 370.36 478.312 363.64 483.063 361.853L605.056 319.855Z" fill="white" stroke="black" stroke-miterlimit="0"/>
<path d="M556.952 364.344H566.216V365.48H556.952V364.344ZM556.952 368.136H566.216V369.272H556.952V368.136ZM556.952 371.944H566.216V373.112H556.952V371.944ZM556.12 360.552H566.984V374.2H565.736V361.736H557.32V374.2H556.12V360.552ZM576.872 360.792H583.864V361.912H576.872V360.792ZM576.184 364.616H584.712V365.736H576.184V364.616ZM579.592 365.16H580.808V372.744C580.808 373.432 580.68 373.784 580.216 373.992C579.736 374.2 579 374.216 577.88 374.216C577.832 373.864 577.672 373.352 577.512 372.984C578.328 373.016 579.08 373.016 579.304 373C579.528 372.984 579.592 372.936 579.592 372.728V365.16ZM581.896 367.816L582.92 367.496C583.688 369.048 584.472 371.08 584.744 372.344L583.64 372.744C583.384 371.48 582.648 369.4 581.896 367.816ZM577.288 367.528L578.376 367.784C577.896 369.624 577.08 371.496 576.216 372.728C576.008 372.552 575.512 372.232 575.256 372.088C576.136 370.952 576.856 369.224 577.288 367.528ZM570.216 362.952H575.944V364.088H570.216V362.952ZM572.664 359.56H573.848V374.264H572.664V359.56ZM572.504 363.624L573.32 363.88C572.792 366.248 571.672 369.192 570.472 370.696C570.344 370.376 570.024 369.864 569.8 369.576C570.92 368.264 572.024 365.704 572.504 363.624ZM573.768 364.424C574.152 364.84 575.688 366.792 576.024 367.24L575.304 368.2C574.904 367.432 573.64 365.56 573.16 364.968L573.768 364.424ZM596.199 365.148H594.427C594.358 364.769 594.232 364.436 594.046 364.148C593.86 363.86 593.633 363.616 593.364 363.415C593.095 363.214 592.794 363.062 592.461 362.96C592.131 362.858 591.781 362.807 591.41 362.807C590.739 362.807 590.139 362.975 589.608 363.312C589.082 363.65 588.665 364.144 588.358 364.795C588.055 365.447 587.904 366.242 587.904 367.182C587.904 368.129 588.055 368.928 588.358 369.58C588.665 370.231 589.084 370.723 589.614 371.057C590.144 371.39 590.741 371.557 591.404 371.557C591.771 371.557 592.12 371.508 592.449 371.409C592.783 371.307 593.084 371.157 593.353 370.96C593.622 370.763 593.849 370.523 594.035 370.239C594.224 369.951 594.355 369.621 594.427 369.25L596.199 369.256C596.105 369.828 595.921 370.354 595.648 370.835C595.379 371.312 595.033 371.725 594.608 372.074C594.188 372.419 593.707 372.686 593.165 372.875C592.624 373.064 592.033 373.159 591.393 373.159C590.385 373.159 589.487 372.92 588.699 372.443C587.911 371.962 587.29 371.275 586.836 370.381C586.385 369.487 586.16 368.42 586.16 367.182C586.16 365.939 586.387 364.873 586.841 363.983C587.296 363.089 587.917 362.403 588.705 361.926C589.493 361.445 590.389 361.205 591.393 361.205C592.01 361.205 592.586 361.294 593.12 361.472C593.658 361.646 594.141 361.903 594.569 362.244C594.997 362.581 595.351 362.994 595.631 363.483C595.911 363.968 596.101 364.523 596.199 365.148ZM608.232 367.182C608.232 368.424 608.005 369.492 607.55 370.386C607.096 371.277 606.473 371.962 605.681 372.443C604.893 372.92 603.997 373.159 602.994 373.159C601.986 373.159 601.086 372.92 600.295 372.443C599.507 371.962 598.886 371.275 598.431 370.381C597.976 369.487 597.749 368.42 597.749 367.182C597.749 365.939 597.976 364.873 598.431 363.983C598.886 363.089 599.507 362.403 600.295 361.926C601.086 361.445 601.986 361.205 602.994 361.205C603.997 361.205 604.893 361.445 605.681 361.926C606.473 362.403 607.096 363.089 607.55 363.983C608.005 364.873 608.232 365.939 608.232 367.182ZM606.494 367.182C606.494 366.235 606.34 365.437 606.033 364.79C605.73 364.138 605.314 363.646 604.783 363.312C604.257 362.975 603.66 362.807 602.994 362.807C602.323 362.807 601.725 362.975 601.198 363.312C600.672 363.646 600.255 364.138 599.948 364.79C599.645 365.437 599.494 366.235 599.494 367.182C599.494 368.129 599.645 368.928 599.948 369.58C600.255 370.227 600.672 370.72 601.198 371.057C601.725 371.39 602.323 371.557 602.994 371.557C603.66 371.557 604.257 371.39 604.783 371.057C605.314 370.72 605.73 370.227 606.033 369.58C606.34 368.928 606.494 368.129 606.494 367.182ZM610.245 373V361.364H614.393C615.294 361.364 616.042 361.519 616.637 361.83C617.236 362.14 617.683 362.57 617.978 363.119C618.274 363.665 618.421 364.295 618.421 365.011C618.421 365.723 618.272 366.35 617.972 366.892C617.677 367.43 617.23 367.848 616.631 368.148C616.037 368.447 615.289 368.597 614.387 368.597H611.245V367.085H614.228C614.796 367.085 615.258 367.004 615.614 366.841C615.974 366.678 616.238 366.441 616.404 366.131C616.571 365.82 616.654 365.447 616.654 365.011C616.654 364.572 616.569 364.191 616.399 363.869C616.232 363.547 615.969 363.301 615.609 363.131C615.253 362.956 614.785 362.869 614.205 362.869H612.001V373H610.245ZM615.989 367.75L618.864 373H616.864L614.046 367.75H615.989ZM620.382 373V361.364H627.677V362.875H622.137V366.42H627.296V367.926H622.137V371.489H627.745V373H620.382ZM629.192 368.104H637.048V369.112H629.192V368.104ZM629.288 362.52H637V363.496H629.288V362.52ZM632.168 366.728L633.288 366.968C632.568 368.536 631.56 370.488 630.824 371.752L629.768 371.384C630.488 370.168 631.496 368.2 632.168 366.728ZM634.568 368.696L635.688 368.84C635.144 371.96 633.464 373.496 629.768 374.28C629.688 373.96 629.448 373.528 629.224 373.288C632.568 372.728 634.072 371.416 634.568 368.696ZM635.576 359.88L636.6 360.328C636.136 361.064 635.608 361.864 635.16 362.408L634.36 362.008C634.76 361.432 635.288 360.504 635.576 359.88ZM632.6 359.56H633.704V366.92H632.6V359.56ZM629.88 360.328L630.792 359.944C631.24 360.584 631.672 361.432 631.832 362.008L630.888 362.44C630.744 361.864 630.328 360.984 629.88 360.328ZM632.616 362.952L633.432 363.432C632.648 364.776 631.144 366.2 629.768 366.952C629.624 366.68 629.336 366.28 629.112 366.04C630.44 365.464 631.912 364.184 632.616 362.952ZM633.576 363.512C634.152 363.816 636.104 365.048 636.568 365.384L635.912 366.264C635.336 365.72 633.672 364.472 633 364.024L633.576 363.512ZM638.216 362.52H643.912V363.64H638.216V362.52ZM638.616 359.56L639.832 359.736C639.304 362.872 638.36 365.736 636.952 367.608C636.76 367.384 636.264 366.984 635.976 366.792C637.336 365.096 638.168 362.392 638.616 359.56ZM641.768 363.16L642.984 363.288C642.216 368.808 640.52 372.248 636.488 374.328C636.36 374.04 636.008 373.512 635.768 373.256C639.576 371.464 641.112 368.232 641.768 363.16ZM638.856 363.512C639.56 367.912 641.096 371.688 644.072 373.256C643.784 373.496 643.4 373.96 643.224 374.28C640.088 372.44 638.568 368.536 637.768 363.688L638.856 363.512ZM630.728 371.16L631.368 370.344C633.288 371.08 635.272 372.136 636.424 373.016L635.592 373.88C634.488 372.984 632.584 371.912 630.728 371.16ZM648.376 362.36V363.256H656.344V362.36H648.376ZM648.376 360.808V361.672H656.344V360.808H648.376ZM647.224 360.088H657.544V363.976H647.224V360.088ZM648.072 368.648V369.56H656.824V368.648H648.072ZM648.072 367.032V367.928H656.824V367.032H648.072ZM646.936 366.28H658.008V370.296H646.936V366.28ZM651.768 366.552H652.952V373.448H651.768V366.552ZM645.224 364.648H659.576V365.576H645.224V364.648ZM646.488 371.176H658.36V372.024H646.488V371.176ZM645.128 372.952H659.656V373.896H645.128V372.952Z" fill="black"/>
<path d="M607.5 227C607.5 226.724 607.276 226.5 607 226.5C606.724 226.5 606.5 226.724 606.5 227H607.5ZM606.646 315.354C606.842 315.549 607.158 315.549 607.354 315.354L610.536 312.172C610.731 311.976 610.731 311.66 610.536 311.464C610.34 311.269 610.024 311.269 609.828 311.464L607 314.293L604.172 311.464C603.976 311.269 603.66 311.269 603.464 311.464C603.269 311.66 603.269 311.976 603.464 312.172L606.646 315.354ZM606.5 227V315H607.5V227H606.5Z" fill="white"/>
<rect x="31.5" y="305.5" width="255" height="95" rx="5.5" fill="white" stroke="black" stroke-miterlimit="0"/>
<path d="M124.872 339.896V341.784H129.688V339.896H124.872ZM123.8 338.904H130.824V342.776H123.8V338.904ZM125.624 342.456H126.712C126.472 344.696 125.784 346.28 123.48 347.208C123.352 346.952 123.048 346.504 122.792 346.312C124.872 345.592 125.432 344.296 125.624 342.456ZM129.192 336.296L130.376 336.6C129.816 337.576 129.176 338.648 128.632 339.368L127.624 339.064C128.168 338.328 128.84 337.112 129.192 336.296ZM124.408 336.776L125.352 336.344C125.896 337 126.456 337.864 126.68 338.472L125.688 338.952C125.48 338.36 124.952 337.448 124.408 336.776ZM132.728 334.472H133.88V346.808C133.88 347.448 133.752 347.768 133.336 347.976C132.92 348.168 132.232 348.184 131.224 348.184C131.16 347.88 131.016 347.368 130.856 347.08C131.56 347.096 132.232 347.096 132.44 347.08C132.664 347.08 132.728 347.016 132.728 346.792V334.472ZM120.808 337.176H121.976V348.296H120.808V337.176ZM121.032 334.344L121.944 333.768C122.648 334.392 123.48 335.304 123.864 335.912L122.888 336.584C122.536 335.944 121.736 335.016 121.032 334.344ZM124.984 334.472H133.416V335.544H124.984V334.472ZM127.864 342.424H128.92V345.432C128.92 345.768 128.984 345.816 129.352 345.816C129.496 345.816 130.312 345.816 130.536 345.816C130.856 345.816 130.92 345.656 130.968 344.44C131.176 344.616 131.608 344.76 131.896 344.84C131.784 346.392 131.496 346.776 130.664 346.776C130.456 346.776 129.416 346.776 129.208 346.776C128.12 346.776 127.864 346.488 127.864 345.448V342.424ZM141.64 335.048H149.464V336.072H141.64V335.048ZM144.936 333.576H146.136V337.992H144.936V333.576ZM142.264 339.768L142.824 339.176C143.64 339.576 144.648 340.216 145.16 340.712L144.568 341.384C144.088 340.904 143.096 340.216 142.264 339.768ZM141.096 341.224L141.672 340.6C142.504 341.016 143.544 341.688 144.04 342.2L143.464 342.904C142.968 342.392 141.96 341.688 141.096 341.224ZM141.032 337.512H149.416V338.552H141.032V337.512ZM149.032 337.512H149.208L149.4 337.464L150.152 337.656C149.832 338.728 149.416 339.944 149.032 340.696L148.088 340.44C148.392 339.736 148.792 338.616 149.032 337.688V337.512ZM140.712 343H150.312V344.056H140.712V343ZM145.384 339.192H146.552V341.096C146.552 343.48 146.008 346.44 141.176 348.36C141.032 348.072 140.696 347.656 140.44 347.432C144.952 345.704 145.384 343.112 145.384 341.08V339.192ZM146.088 345.32L146.824 344.648C148.104 345.48 149.736 346.712 150.504 347.56L149.752 348.344C148.984 347.496 147.4 346.2 146.088 345.32ZM136.84 334.712L137.608 333.944C138.472 334.648 139.608 335.64 140.12 336.28L139.32 337.176C138.792 336.504 137.704 335.448 136.84 334.712ZM138.056 347.96L137.816 346.808L138.104 346.28L140.728 344.2C140.856 344.52 141.048 344.968 141.192 345.192C138.68 347.272 138.28 347.624 138.056 347.96ZM138.056 347.976C137.928 347.72 137.608 347.304 137.416 347.128C137.688 346.904 138.184 346.36 138.184 345.592V338.584H139.288V346.456C139.288 346.456 138.056 347.512 138.056 347.976ZM135.816 338.584H138.952V339.752H135.816V338.584ZM158.648 337.128V338.408H163.992V337.128H158.648ZM158.648 335V336.28H163.992V335H158.648ZM157.544 334.088H165.144V339.336H157.544V334.088ZM156.808 340.488H166.024V341.496H156.808V340.488ZM160.744 340.984H161.864V347.528L160.744 347.064V340.984ZM158.6 343.928C159.416 346.584 161.176 346.984 163.4 346.984C163.8 346.984 165.96 346.984 166.52 346.968C166.36 347.224 166.2 347.736 166.168 348.04H163.352C160.68 348.04 158.84 347.464 157.864 344.2L158.6 343.928ZM161.512 343.368H165.224V344.36H161.512V343.368ZM157.864 342.248L158.952 342.376C158.632 345.016 157.8 347 156.36 348.28C156.168 348.088 155.704 347.736 155.464 347.56C156.888 346.424 157.608 344.616 157.864 342.248ZM151.448 342.072C152.696 341.736 154.552 341.16 156.344 340.584L156.52 341.688C154.856 342.232 153.112 342.808 151.752 343.24L151.448 342.072ZM151.624 336.792H156.504V337.912H151.624V336.792ZM153.608 333.576H154.728V346.792C154.728 347.448 154.584 347.768 154.184 347.96C153.816 348.152 153.192 348.184 152.184 348.184C152.136 347.896 151.992 347.4 151.832 347.064C152.536 347.08 153.144 347.08 153.336 347.08C153.544 347.08 153.608 347.016 153.608 346.776V333.576ZM174.184 339.272H175.48V346.728C175.48 347.496 175.288 347.864 174.728 348.072C174.152 348.248 173.208 348.264 171.8 348.264C171.736 347.912 171.544 347.384 171.352 347.016C172.44 347.048 173.496 347.048 173.8 347.032C174.104 347.032 174.184 346.952 174.184 346.696V339.272ZM170.552 341.4L171.8 341.72C171.016 343.688 169.752 345.608 168.472 346.84C168.232 346.616 167.688 346.28 167.368 346.104C168.68 344.968 169.864 343.208 170.552 341.4ZM177.752 341.88L178.856 341.416C180.04 342.92 181.288 344.952 181.752 346.312L180.552 346.84C180.12 345.512 178.92 343.416 177.752 341.88ZM169.208 334.76H180.456V335.944H169.208V334.76ZM167.768 338.632H181.88V339.832H167.768V338.632ZM185.16 348.712L184.792 347.88C186.104 347.336 186.824 346.52 186.824 345.32L186.52 343.96L187.384 345.176C187.16 345.464 186.84 345.544 186.536 345.544C185.88 345.544 185.336 345.16 185.336 344.392C185.336 343.64 185.912 343.24 186.552 343.24C187.448 343.24 187.928 343.976 187.928 345.096C187.928 346.824 186.84 348.136 185.16 348.712ZM84.912 363.176H94.992V364.232H84.912V363.176ZM86.768 359.784H94.32V360.824H86.768V359.784ZM89.44 357.624H90.64V363.64H89.44V357.624ZM86.928 358.056L88.064 358.296C87.616 359.88 86.848 361.448 86.016 362.456C85.792 362.28 85.296 361.96 85.008 361.832C85.872 360.888 86.528 359.48 86.928 358.056ZM90.64 363.72H91.824V367.944C91.824 368.344 91.888 368.392 92.288 368.392C92.448 368.392 93.344 368.392 93.568 368.392C93.952 368.392 94.032 368.184 94.064 366.504C94.304 366.712 94.8 366.888 95.136 366.984C95.008 369.016 94.704 369.528 93.696 369.528C93.44 369.528 92.352 369.528 92.128 369.528C90.928 369.528 90.64 369.16 90.64 367.96V363.72ZM87.84 363.752H89.04C88.784 366.536 88.08 368.552 85.216 369.672C85.072 369.368 84.736 368.936 84.48 368.712C87.072 367.8 87.632 366.088 87.84 363.752ZM80.752 358.76L81.664 358.104C82.624 358.856 83.712 359.944 84.224 360.712L83.248 361.448C82.768 360.664 81.696 359.544 80.752 358.76ZM83.808 363.704V369.88H82.64V364.824H80.672V363.704H83.808ZM83.696 369.384C84.192 369.384 84.56 369.8 85.36 370.28C86.368 370.872 87.712 370.968 89.408 370.968C91.232 370.968 93.664 370.856 95.248 370.68C95.104 371 94.912 371.592 94.896 371.928C93.648 372.008 90.944 372.104 89.392 372.104C87.52 372.104 86.192 371.928 85.152 371.32C84.512 370.936 84.032 370.472 83.68 370.472C83.072 370.472 82.208 371.288 81.312 372.28L80.512 371.256C81.616 370.216 82.8 369.384 83.696 369.384ZM96.176 365.976C97.472 365.608 99.408 365.016 101.296 364.424L101.456 365.528C99.728 366.088 97.888 366.696 96.496 367.128L96.176 365.976ZM96.336 360.776H101.504V361.896H96.336V360.776ZM98.448 357.576H99.616V370.824C99.616 371.48 99.472 371.816 99.072 372.008C98.672 372.2 98.048 372.232 97.008 372.232C96.96 371.912 96.816 371.416 96.672 371.08C97.344 371.112 97.984 371.112 98.16 371.096C98.368 371.096 98.448 371.032 98.448 370.824V357.576ZM101.936 358.424H109.264V359.512H101.936V358.424ZM109.008 358.424H109.216L109.424 358.376L110.16 358.776C108.624 361.912 105.184 363.96 101.888 364.936C101.776 364.632 101.472 364.2 101.248 363.96C104.384 363.16 107.728 361.24 109.008 358.616V358.424ZM103.776 358.92C105.104 361.416 107.856 363.208 111.2 363.928C110.944 364.184 110.624 364.632 110.448 364.936C107.088 364.056 104.304 362.072 102.832 359.256L103.776 358.92ZM102.288 365.832H109.776V366.904H102.288V365.832ZM101.456 368.568H110.928V369.656H101.456V368.568ZM105.52 364.424H106.736V372.312H105.52V364.424ZM124.192 357.592L125.088 358.568C122.192 359.416 117.456 359.848 113.568 360.008C113.536 359.704 113.392 359.224 113.28 358.952C117.088 358.776 121.76 358.344 124.192 357.592ZM113.296 362.104H125.776V363.256H113.296V362.104ZM112.224 365.864H126.672V367.032H112.224V365.864ZM118.832 359.288H120.08V370.616C120.08 371.464 119.824 371.832 119.216 372.024C118.608 372.216 117.568 372.248 115.872 372.232C115.792 371.896 115.568 371.352 115.376 371.032C116.704 371.08 117.984 371.064 118.336 371.048C118.704 371.048 118.832 370.936 118.832 370.6V359.288ZM135.376 361.256H141.792V362.408H135.376V361.256ZM141.2 361.256H142.384C142.384 361.256 142.368 361.704 142.368 361.864C142.16 368.472 141.968 370.728 141.408 371.432C141.088 371.864 140.768 371.992 140.24 372.056C139.744 372.104 138.88 372.088 138.032 372.04C138 371.688 137.872 371.192 137.648 370.856C138.56 370.936 139.392 370.936 139.744 370.936C140.016 370.952 140.192 370.904 140.368 370.712C140.8 370.2 141.024 367.896 141.2 361.528V361.256ZM137.696 357.848H138.88C138.848 363.416 138.768 369.192 135.52 372.264C135.312 371.992 134.896 371.592 134.592 371.4C137.664 368.584 137.68 363.08 137.696 357.848ZM128.688 358.872H134.88V359.96H128.688V358.872ZM128.112 362.696H135.168V363.784H128.112V362.696ZM132.832 365.448L133.808 365.176C134.432 366.6 135.152 368.52 135.44 369.624L134.384 369.992C134.112 368.856 133.424 366.904 132.832 365.448ZM128.688 370.312L128.592 369.304L129.2 368.872L134.448 367.768C134.48 368.088 134.56 368.552 134.608 368.808C129.68 369.912 129.072 370.088 128.688 370.312ZM128.688 370.312C128.624 370.056 128.432 369.496 128.304 369.192C128.56 369.112 128.768 368.696 129.04 368.072C129.28 367.496 130.096 365.192 130.48 363.112L131.648 363.48C131.152 365.624 130.336 367.976 129.52 369.624V369.64C129.52 369.64 128.688 370.056 128.688 370.312ZM152.544 363.32H157.36V364.472H152.544V363.32ZM152 363.32H153.184V370.264C153.184 370.872 153.312 370.984 154.048 370.984C154.384 370.984 156.08 370.984 156.544 370.984C157.248 370.984 157.376 370.568 157.456 368.264C157.728 368.488 158.24 368.696 158.576 368.776C158.416 371.384 158.08 372.12 156.608 372.12C156.272 372.12 154.24 372.12 153.92 372.12C152.448 372.12 152 371.752 152 370.264V363.32ZM151.936 358.296H157.968V365.56H156.8V359.448H151.936V358.296ZM144.384 361.128H150.8V372.008H149.808V362.152H145.36V372.216H144.384V361.128ZM144.88 367.576H150.272V368.472H144.88V367.576ZM144.88 370.152H150.272V371.128H144.88V370.152ZM144 358.184H151.152V359.272H144V358.184ZM146.304 358.488H147.168V361.864H146.304V358.488ZM148.096 358.488H148.976V361.864H148.096V358.488ZM146.464 361.848H147.136V363.432C147.136 364.424 146.896 365.704 145.904 366.616C145.792 366.472 145.52 366.232 145.36 366.152C146.304 365.336 146.464 364.28 146.464 363.416V361.848ZM148.016 361.848H148.704V365.176C148.704 365.368 148.736 365.4 148.912 365.4C148.992 365.4 149.408 365.4 149.504 365.4C149.68 365.4 149.728 365.4 149.744 365.352C149.904 365.48 150.176 365.56 150.384 365.624C150.304 365.96 150.08 366.104 149.632 366.104C149.52 366.104 148.976 366.104 148.848 366.104C148.208 366.104 148.016 365.96 148.016 365.176V361.848ZM160.016 359.704H165.472V360.856H160.016V359.704ZM165.072 359.704H165.28L165.488 359.656L166.256 359.88C165.584 366.104 163.488 370.088 160.464 372.248C160.288 371.96 159.904 371.512 159.616 371.288C162.4 369.464 164.464 365.48 165.072 359.992V359.704ZM160.368 363.752L161.2 363.016C163.36 364.888 165.808 367.512 166.816 369.352L165.872 370.232C164.88 368.392 162.512 365.672 160.368 363.752ZM166.624 361.416H174.24V362.584H166.624V361.416ZM171.136 357.56H172.336V370.664C172.336 371.464 172.128 371.816 171.648 372.04C171.168 372.248 170.352 372.28 168.976 372.28C168.928 371.944 168.752 371.384 168.576 371.016C169.584 371.048 170.48 371.048 170.752 371.032C171.024 371.016 171.136 370.936 171.136 370.648V357.56ZM166.928 364.712L167.92 364.248C168.688 365.352 169.456 366.824 169.712 367.8L168.656 368.312C168.416 367.352 167.696 365.832 166.928 364.712ZM183.552 357.608H184.832C184.8 364.92 186.368 371.048 188.32 371.048C188.784 371.048 188.96 370.2 189.056 368.072C189.328 368.344 189.776 368.632 190.112 368.744C189.904 371.512 189.44 372.296 188.224 372.296C185.04 372.296 183.632 365.192 183.552 357.608ZM185.792 358.36L186.496 357.624C187.488 358.04 188.672 358.744 189.264 359.272L188.528 360.12C187.952 359.576 186.784 358.824 185.792 358.36ZM187.888 362.456L189.072 362.744C187.68 367.064 185.264 370.28 181.904 372.296C181.728 372.056 181.248 371.576 180.992 371.352C184.32 369.56 186.624 366.488 187.888 362.456ZM175.808 360.12H189.712V361.304H175.808V360.12ZM175.728 369.96C177.472 369.624 180.192 369.08 182.8 368.52L182.896 369.672C180.448 370.216 177.824 370.792 175.952 371.192L175.728 369.96ZM177.84 363.768V366.568H181.104V363.768H177.84ZM176.736 362.728H182.288V367.592H176.736V362.728ZM191.424 362.712H205.68V363.784H191.424V362.712ZM192.832 359.576H202.096V360.648H192.832V359.576ZM195.424 368.072H202.96V369.032H195.424V368.072ZM195.424 370.728H202.96V371.768H195.424V370.728ZM196.944 357.56H198.112V363.288H196.944V357.56ZM203.952 358.12L204.976 358.664C201.76 362.872 196.944 366.024 191.824 367.992C191.68 367.72 191.296 367.224 191.056 366.984C196.224 365.192 200.992 362.088 203.952 358.12ZM194.768 365.48H203.728V372.232H202.48V366.488H195.968V372.296H194.768V365.48ZM207.216 370.792H221.568V371.784H207.216V370.792ZM207.296 360.408H221.472V361.4H207.296V360.408ZM208.4 368.456H220.544V369.416H208.4V368.456ZM213.712 358.792H214.912V371.272H213.712V358.792ZM219.28 357.656L219.92 358.584C217.056 359.112 212.496 359.384 208.752 359.464C208.752 359.176 208.608 358.76 208.496 358.504C212.224 358.408 216.752 358.12 219.28 357.656ZM210.08 365.24V366.472H218.736V365.24H210.08ZM210.08 363.224V364.44H218.736V363.224H210.08ZM208.912 362.36H219.952V367.336H208.912V362.36ZM224.112 358.6L224.928 357.88C225.744 358.552 226.784 359.528 227.28 360.152L226.432 361C225.968 360.328 224.944 359.32 224.112 358.6ZM225.056 371.88L224.88 370.808L225.232 370.312L228.144 368.44C228.224 368.744 228.352 369.208 228.464 369.448C225.744 371.304 225.312 371.576 225.056 371.88ZM223.008 362.584H225.84V363.752H223.008V362.584ZM227.744 360.904H237.552V362.056H227.744V360.904ZM228.256 364.376H232.544V365.496H228.256V364.376ZM229.92 365.016H231.024V369.88L229.92 370.008V365.016ZM227.952 370.04C229.2 369.72 231.072 369.208 232.912 368.696L233.072 369.752C231.392 370.264 229.632 370.776 228.288 371.16L227.952 370.04ZM234.64 358.28L235.456 357.768C236.128 358.44 236.896 359.368 237.232 359.992L236.352 360.584C236.032 359.96 235.296 358.984 234.64 358.28ZM232.928 357.64H234.144C234.192 364.664 234.864 370.6 236.128 370.664C236.416 370.68 236.608 369.768 236.704 368.216C236.928 368.456 237.456 368.76 237.664 368.872C237.344 371.56 236.72 372.248 236.096 372.232C233.68 372.184 233.104 366.008 232.928 357.64ZM225.056 371.88C224.96 371.576 224.656 371.064 224.448 370.824C224.736 370.648 225.216 370.184 225.216 369.512V362.584H226.368V370.552C226.368 370.552 225.056 371.432 225.056 371.88Z" fill="black"/>
<path d="M475 367.5C475.276 367.5 475.5 367.276 475.5 367C475.5 366.724 475.276 366.5 475 366.5V367.5ZM290.646 352.646C290.451 352.842 290.451 353.158 290.646 353.354L293.828 356.536C294.024 356.731 294.34 356.731 294.536 356.536C294.731 356.34 294.731 356.024 294.536 355.828L291.707 353L294.536 350.172C294.731 349.976 294.731 349.66 294.536 349.464C294.34 349.269 294.024 349.269 293.828 349.464L290.646 352.646ZM475 366.5H443.587V367.5H475V366.5ZM347.587 352.5H291V353.5H347.587V352.5Z" fill="white"/>
<path d="M356.691 360.696H370.467V361.912H356.691V360.696ZM364.531 365.352L365.427 364.584C367.299 365.8 369.747 367.608 370.931 368.84L369.955 369.752C368.835 368.52 366.435 366.648 364.531 365.352ZM364.227 361.112L365.539 361.592C363.715 364.904 360.723 368.072 357.107 369.976C356.915 369.672 356.531 369.192 356.291 368.936C359.763 367.192 362.739 364.12 364.227 361.112ZM362.915 364.312L364.211 363.032V374.264H362.915V364.312ZM376.803 366.088H386.499V367.192H376.803V366.088ZM375.571 364.216L376.707 364.584C375.763 366.552 374.307 368.536 372.899 369.816C372.739 369.576 372.323 369.064 372.067 368.84C373.411 367.688 374.739 365.96 375.571 364.216ZM383.139 364.344H384.307V372.76C384.307 373.512 384.131 373.864 383.587 374.056C383.043 374.232 382.099 374.248 380.643 374.248C380.595 373.928 380.403 373.416 380.227 373.096C381.379 373.128 382.435 373.112 382.739 373.096C383.059 373.096 383.139 373.016 383.139 372.744V364.344ZM374.083 361.096H378.995V362.12H374.083V361.096ZM380.227 361.096H386.355V362.12H380.227V361.096ZM374.323 359.512L375.475 359.8C374.899 361.544 373.955 363.288 372.995 364.424C372.771 364.248 372.259 363.912 371.971 363.752C372.979 362.712 373.827 361.128 374.323 359.512ZM380.611 359.512L381.763 359.784C381.203 361.56 380.243 363.224 379.203 364.312C378.979 364.136 378.483 363.8 378.195 363.624C379.267 362.648 380.131 361.128 380.611 359.512ZM375.203 361.912L376.227 361.608C376.611 362.328 377.123 363.336 377.379 363.912L376.307 364.296C376.067 363.704 375.587 362.664 375.203 361.912ZM381.731 361.912L382.723 361.528C383.203 362.184 383.811 363.08 384.115 363.64L383.059 364.072C382.787 363.512 382.195 362.584 381.731 361.912ZM377.731 368.584L378.691 368.072C379.395 369.064 380.307 370.392 380.755 371.176L379.747 371.784C379.331 370.984 378.435 369.608 377.731 368.584ZM374.451 366.856L375.603 365.72V365.736V374.28H374.451V366.856ZM391.203 364.792H399.283V365.864H391.203V364.792ZM390.915 372.568H399.491V373.64H390.915V372.568ZM390.371 367.88H400.163V374.296H398.947V368.968H391.539V374.296H390.371V367.88ZM395.187 360.792C393.875 362.744 391.251 365.016 388.515 366.504C388.355 366.232 388.035 365.8 387.763 365.544C390.579 364.12 393.251 361.672 394.515 359.608H395.731C397.459 361.992 400.259 364.216 402.819 365.352C402.515 365.64 402.227 366.056 402.019 366.408C399.507 365.096 396.691 362.84 395.187 360.792ZM403.779 368.312H418.339V369.32H403.779V368.312ZM404.163 360.264H417.939V361.32H404.163V360.264ZM409.331 366.632L410.499 366.952C409.459 368.616 407.987 370.712 406.963 372.024L405.827 371.64C406.851 370.344 408.339 368.2 409.331 366.632ZM414.131 368.664L415.283 369C413.875 372.52 410.467 373.832 404.467 374.28C404.387 373.928 404.195 373.496 404.003 373.224C409.715 372.92 412.851 371.784 414.131 368.664ZM406.691 371.48L407.299 370.6C411.251 371.304 415.363 372.376 417.843 373.352L417.123 374.328C414.675 373.32 410.755 372.232 406.691 371.48ZM408.531 360.664H409.667V366.248H408.531V360.664ZM412.259 360.664H413.395V366.248H412.259V360.664ZM406.083 363.672V365.848H416.067V363.672H406.083ZM404.963 362.696H417.267V366.84H404.963V362.696ZM419.907 362.248H433.907V363.416H419.907V362.248ZM427.363 363.288C428.563 367.128 431.027 370.6 434.371 372.056C434.083 372.296 433.683 372.76 433.491 373.112C430.083 371.448 427.731 367.784 426.419 363.576L427.363 363.288ZM432.163 364.072L433.203 364.824C432.147 366.04 430.691 367.464 429.571 368.376L428.723 367.72C429.811 366.808 431.299 365.256 432.163 364.072ZM428.963 360.376L429.699 359.624C430.675 360.136 431.987 360.888 432.659 361.416L431.891 362.28C431.267 361.72 429.987 360.92 428.963 360.376ZM420.771 364.984L421.699 364.376C422.675 365.224 423.827 366.44 424.323 367.288L423.347 367.976C422.867 367.144 421.763 365.864 420.771 364.984ZM426.227 359.608H427.459V372.664C427.459 373.512 427.235 373.88 426.707 374.072C426.163 374.296 425.203 374.312 423.795 374.312C423.731 373.976 423.539 373.416 423.347 373.048C424.467 373.08 425.507 373.08 425.827 373.064C426.115 373.048 426.227 372.968 426.227 372.664V359.608ZM419.475 371.656C420.819 370.968 422.915 369.8 424.867 368.664L425.251 369.736C423.523 370.808 421.635 371.928 420.211 372.728L419.475 371.656Z" fill="white"/>
<path d="M158.5 301C158.5 301.276 158.724 301.5 159 301.5C159.276 301.5 159.5 301.276 159.5 301H158.5ZM606.646 315.354C606.842 315.549 607.158 315.549 607.354 315.354L610.536 312.172C610.731 311.976 610.731 311.66 610.536 311.464C610.34 311.269 610.024 311.269 609.828 311.464L607 314.293L604.172 311.464C603.976 311.269 603.66 311.269 603.464 311.464C603.269 311.66 603.269 311.976 603.464 312.172L606.646 315.354ZM159.5 301V297H158.5V301H159.5ZM183 273.5H359V272.5H183V273.5ZM407 273.5H583V272.5H407V273.5ZM606.5 297V315H607.5V297H606.5ZM583 273.5C595.979 273.5 606.5 284.021 606.5 297H607.5C607.5 283.469 596.531 272.5 583 272.5V273.5ZM159.5 297C159.5 284.021 170.021 273.5 183 273.5V272.5C169.469 272.5 158.5 283.469 158.5 297H159.5Z" fill="white"/>
<path d="M367.832 278.792H382.184V279.784H367.832V278.792ZM367.912 268.408H382.088V269.4H367.912V268.408ZM369.016 276.456H381.16V277.416H369.016V276.456ZM374.328 266.792H375.528V279.272H374.328V266.792ZM379.896 265.656L380.536 266.584C377.672 267.112 373.112 267.384 369.368 267.464C369.368 267.176 369.224 266.76 369.112 266.504C372.84 266.408 377.368 266.12 379.896 265.656ZM370.696 273.24V274.472H379.352V273.24H370.696ZM370.696 271.224V272.44H379.352V271.224H370.696ZM369.528 270.36H380.568V275.336H369.528V270.36ZM384.728 266.6L385.544 265.88C386.36 266.552 387.4 267.528 387.896 268.152L387.048 269C386.584 268.328 385.56 267.32 384.728 266.6ZM385.672 279.88L385.496 278.808L385.848 278.312L388.76 276.44C388.84 276.744 388.968 277.208 389.08 277.448C386.36 279.304 385.928 279.576 385.672 279.88ZM383.624 270.584H386.456V271.752H383.624V270.584ZM388.36 268.904H398.168V270.056H388.36V268.904ZM388.872 272.376H393.16V273.496H388.872V272.376ZM390.536 273.016H391.64V277.88L390.536 278.008V273.016ZM388.568 278.04C389.816 277.72 391.688 277.208 393.528 276.696L393.688 277.752C392.008 278.264 390.248 278.776 388.904 279.16L388.568 278.04ZM395.256 266.28L396.072 265.768C396.744 266.44 397.512 267.368 397.848 267.992L396.968 268.584C396.648 267.96 395.912 266.984 395.256 266.28ZM393.544 265.64H394.76C394.808 272.664 395.48 278.6 396.744 278.664C397.032 278.68 397.224 277.768 397.32 276.216C397.544 276.456 398.072 276.76 398.28 276.872C397.96 279.56 397.336 280.248 396.712 280.232C394.296 280.184 393.72 274.008 393.544 265.64ZM385.672 279.88C385.576 279.576 385.272 279.064 385.064 278.824C385.352 278.648 385.832 278.184 385.832 277.512V270.584H386.984V278.552C386.984 278.552 385.672 279.432 385.672 279.88Z" fill="white"/>
<rect x="479.5" y="525.5" width="255" height="95" rx="5.5" fill="white" stroke="black" stroke-miterlimit="0"/>
<path d="M540.184 578.328H552.984V579.464H540.184V578.328ZM538.776 567.048H552.84V568.152H538.776V567.048ZM539.608 569.928H540.792V580.312H539.608V569.928ZM543.72 572.536V573.864H549.848V572.536H543.72ZM543.72 574.728V576.056H549.848V574.728H543.72ZM543.72 570.376V571.672H549.848V570.376H543.72ZM542.568 569.464H551.048V576.968H542.568V569.464ZM545.4 565.512L546.776 565.608C546.616 567.112 546.36 568.888 546.136 570.008L544.952 569.912C545.144 568.728 545.352 566.824 545.4 565.512ZM563.384 565.56H564.6V567.752H563.384V565.56ZM559.592 567.272H568.488V568.312H559.592V567.272ZM558.952 571.016H568.936V572.072H558.952V571.016ZM561.096 568.456L562.136 568.248C562.488 569.112 562.792 570.232 562.856 570.92L561.768 571.192C561.72 570.488 561.432 569.336 561.096 568.456ZM565.848 568.216L567.032 568.392C566.696 569.336 566.312 570.424 565.976 571.144L564.952 570.968C565.272 570.216 565.656 569.016 565.848 568.216ZM559.032 573.656H568.872V574.696H559.032V573.656ZM562.696 571.784L563.896 572.024C563.08 573.864 561.944 576.2 561.128 577.672L560.088 577.32C560.888 575.896 561.992 573.528 562.696 571.784ZM560.904 577.112L561.608 576.296C564.024 576.984 567.032 578.264 568.584 579.384L567.816 580.296C566.344 579.208 563.352 577.848 560.904 577.112ZM565.848 574.328L567.016 574.504C566.248 578.072 564.056 579.624 559.112 580.28C559.032 579.944 558.824 579.528 558.632 579.272C563.24 578.808 565.16 577.448 565.848 574.328ZM554.04 574.072C555.336 573.752 557.288 573.176 559.176 572.632L559.32 573.704C557.576 574.248 555.736 574.824 554.312 575.256L554.04 574.072ZM554.312 568.792H559.192V569.912H554.312V568.792ZM556.488 565.576H557.64V578.824C557.64 579.512 557.496 579.848 557.08 580.04C556.664 580.248 556.008 580.28 554.968 580.28C554.92 579.976 554.76 579.448 554.6 579.112C555.32 579.144 555.992 579.144 556.184 579.128C556.392 579.128 556.488 579.064 556.488 578.824V565.576ZM573.4 571V577.88H572.232V572.104H570.136V571H573.4ZM570.744 566.344L571.672 565.752C572.504 566.616 573.512 567.816 573.976 568.6L573 569.272C572.568 568.488 571.576 567.24 570.744 566.344ZM572.776 577.032C573.304 577.032 573.688 577.528 574.616 578.104C575.688 578.792 577.08 578.92 578.968 578.92C580.936 578.92 583.4 578.776 585 578.6C584.856 578.92 584.648 579.56 584.632 579.944C583.496 580.008 580.536 580.12 578.92 580.12C576.824 580.12 575.48 579.928 574.312 579.208C573.656 578.76 573.096 578.184 572.744 578.184C572.248 578.184 571.528 579.208 570.808 580.312L569.912 579.16C570.952 577.912 571.992 577.032 572.776 577.032ZM579.368 569.144H580.616V578.488H579.368V569.144ZM574.488 574.424H584.472V575.56H574.488V574.424ZM574.6 567.24H584.184V568.296H574.6V567.24ZM575.448 572.472V571.496L576.168 571.112H583.72V572.248H576.904C576.136 572.248 575.592 572.328 575.448 572.472ZM575.448 572.472C575.4 572.216 575.192 571.64 575.048 571.32C575.336 571.256 575.592 570.856 575.912 570.28C576.248 569.72 577.256 567.544 577.8 565.576L579.048 565.912C578.328 568.024 577.336 570.248 576.344 571.784V571.8C576.344 571.8 575.448 572.216 575.448 572.472ZM595.032 565.56H596.248V567.752H595.032V565.56ZM591.24 567.272H600.136V568.312H591.24V567.272ZM590.6 571.016H600.584V572.072H590.6V571.016ZM592.744 568.456L593.784 568.248C594.136 569.112 594.44 570.232 594.504 570.92L593.416 571.192C593.368 570.488 593.08 569.336 592.744 568.456ZM597.496 568.216L598.68 568.392C598.344 569.336 597.96 570.424 597.624 571.144L596.6 570.968C596.92 570.216 597.304 569.016 597.496 568.216ZM590.68 573.656H600.52V574.696H590.68V573.656ZM594.344 571.784L595.544 572.024C594.728 573.864 593.592 576.2 592.776 577.672L591.736 577.32C592.536 575.896 593.64 573.528 594.344 571.784ZM592.552 577.112L593.256 576.296C595.672 576.984 598.68 578.264 600.232 579.384L599.464 580.296C597.992 579.208 595 577.848 592.552 577.112ZM597.496 574.328L598.664 574.504C597.896 578.072 595.704 579.624 590.76 580.28C590.68 579.944 590.472 579.528 590.28 579.272C594.888 578.808 596.808 577.448 597.496 574.328ZM585.688 574.072C586.984 573.752 588.936 573.176 590.824 572.632L590.968 573.704C589.224 574.248 587.384 574.824 585.96 575.256L585.688 574.072ZM585.96 568.792H590.84V569.912H585.96V568.792ZM588.136 565.576H589.288V578.824C589.288 579.512 589.144 579.848 588.728 580.04C588.312 580.248 587.656 580.28 586.616 580.28C586.568 579.976 586.408 579.448 586.248 579.112C586.968 579.144 587.64 579.144 587.832 579.128C588.04 579.128 588.136 579.064 588.136 578.824V565.576ZM604.6 577.24C605.112 577.24 605.496 577.64 606.36 578.104C607.368 578.664 608.776 578.744 610.504 578.744C612.328 578.744 614.84 578.632 616.472 578.44C616.312 578.792 616.12 579.416 616.088 579.8C614.824 579.88 612.088 579.96 610.472 579.96C608.584 579.96 607.208 579.8 606.104 579.224C605.448 578.856 604.936 578.408 604.584 578.408C604.04 578.408 603.272 579.24 602.488 580.152L601.64 578.984C602.68 577.992 603.784 577.24 604.6 577.24ZM602.04 566.888L602.984 566.264C603.832 566.968 604.856 568.008 605.32 568.728L604.312 569.432C603.88 568.712 602.888 567.656 602.04 566.888ZM605.096 571.592V577.848H603.928V572.712H601.864V571.592H605.096ZM605.8 568.072H616.2V569.208H605.8V568.072ZM613.16 568.296L614.36 568.536C613.096 573.176 610.568 575.944 606.44 577.576C606.312 577.32 605.944 576.776 605.704 576.52C609.704 575.144 612.088 572.568 613.16 568.296ZM609.448 565.832L610.584 565.48C611.048 566.184 611.576 567.16 611.8 567.768L610.6 568.2C610.408 567.576 609.896 566.568 609.448 565.832ZM606.28 570.824L607.128 570.088C609.96 572.04 613.72 574.856 615.608 576.648L614.664 577.528C612.904 575.736 609.192 572.824 606.28 570.824ZM619.592 575.208H630.392V576.36H619.592V575.208ZM617.8 578.712H632.008V579.896H617.8V578.712ZM621.704 568.312H624.84V569.4H621.704V568.312ZM625.688 565.576H626.888V571.864C626.888 572.44 627 572.552 627.736 572.552C628.072 572.552 629.8 572.552 630.248 572.552C630.888 572.552 631 572.232 631.064 570.44C631.336 570.648 631.832 570.84 632.184 570.92C632.024 573.08 631.672 573.688 630.344 573.688C629.992 573.688 627.944 573.688 627.624 573.688C626.088 573.688 625.688 573.288 625.688 571.864V565.576ZM617.56 572.984C619.4 572.792 622.216 572.456 624.936 572.12L624.968 573.224C622.36 573.576 619.624 573.928 617.704 574.168L617.56 572.984ZM630.456 567.144L631.416 568.072C630.024 568.792 628.088 569.48 626.392 569.992C626.312 569.72 626.152 569.304 625.992 569.048C627.592 568.536 629.416 567.8 630.456 567.144ZM621.176 565.576H622.344V572.904L621.176 573.032V565.576ZM618.632 567.32H619.736V573.192L618.632 573.304V567.32ZM643.671 571.148H641.899C641.83 570.769 641.704 570.436 641.518 570.148C641.332 569.86 641.105 569.616 640.836 569.415C640.567 569.214 640.266 569.062 639.933 568.96C639.603 568.858 639.253 568.807 638.882 568.807C638.211 568.807 637.611 568.975 637.08 569.312C636.554 569.65 636.137 570.144 635.83 570.795C635.527 571.447 635.376 572.242 635.376 573.182C635.376 574.129 635.527 574.928 635.83 575.58C636.137 576.231 636.556 576.723 637.086 577.057C637.616 577.39 638.213 577.557 638.876 577.557C639.243 577.557 639.592 577.508 639.921 577.409C640.255 577.307 640.556 577.157 640.825 576.96C641.094 576.763 641.321 576.523 641.507 576.239C641.696 575.951 641.827 575.621 641.899 575.25L643.671 575.256C643.577 575.828 643.393 576.354 643.12 576.835C642.851 577.312 642.505 577.725 642.08 578.074C641.66 578.419 641.179 578.686 640.637 578.875C640.096 579.064 639.505 579.159 638.865 579.159C637.857 579.159 636.959 578.92 636.171 578.443C635.383 577.962 634.762 577.275 634.308 576.381C633.857 575.487 633.632 574.42 633.632 573.182C633.632 571.939 633.859 570.873 634.313 569.983C634.768 569.089 635.389 568.403 636.177 567.926C636.965 567.445 637.861 567.205 638.865 567.205C639.482 567.205 640.058 567.294 640.592 567.472C641.13 567.646 641.613 567.903 642.041 568.244C642.469 568.581 642.823 568.994 643.103 569.483C643.383 569.968 643.573 570.523 643.671 571.148ZM655.704 573.182C655.704 574.424 655.477 575.492 655.022 576.386C654.568 577.277 653.945 577.962 653.153 578.443C652.365 578.92 651.469 579.159 650.466 579.159C649.458 579.159 648.558 578.92 647.767 578.443C646.979 577.962 646.358 577.275 645.903 576.381C645.448 575.487 645.221 574.42 645.221 573.182C645.221 571.939 645.448 570.873 645.903 569.983C646.358 569.089 646.979 568.403 647.767 567.926C648.558 567.445 649.458 567.205 650.466 567.205C651.469 567.205 652.365 567.445 653.153 567.926C653.945 568.403 654.568 569.089 655.022 569.983C655.477 570.873 655.704 571.939 655.704 573.182ZM653.966 573.182C653.966 572.235 653.812 571.437 653.505 570.79C653.202 570.138 652.786 569.646 652.255 569.312C651.729 568.975 651.132 568.807 650.466 568.807C649.795 568.807 649.197 568.975 648.67 569.312C648.144 569.646 647.727 570.138 647.42 570.79C647.117 571.437 646.966 572.235 646.966 573.182C646.966 574.129 647.117 574.928 647.42 575.58C647.727 576.227 648.144 576.72 648.67 577.057C649.197 577.39 649.795 577.557 650.466 577.557C651.132 577.557 651.729 577.39 652.255 577.057C652.786 576.72 653.202 576.227 653.505 575.58C653.812 574.928 653.966 574.129 653.966 573.182ZM657.717 579V567.364H661.865C662.766 567.364 663.514 567.519 664.109 567.83C664.708 568.14 665.155 568.57 665.45 569.119C665.746 569.665 665.893 570.295 665.893 571.011C665.893 571.723 665.744 572.35 665.444 572.892C665.149 573.43 664.702 573.848 664.103 574.148C663.509 574.447 662.761 574.597 661.859 574.597H658.717V573.085H661.7C662.268 573.085 662.73 573.004 663.086 572.841C663.446 572.678 663.71 572.441 663.876 572.131C664.043 571.82 664.126 571.447 664.126 571.011C664.126 570.572 664.041 570.191 663.871 569.869C663.704 569.547 663.441 569.301 663.081 569.131C662.725 568.956 662.257 568.869 661.677 568.869H659.473V579H657.717ZM663.461 573.75L666.336 579H664.336L661.518 573.75H663.461ZM667.854 579V567.364H675.149V568.875H669.609V572.42H674.768V573.926H669.609V577.489H675.217V579H667.854Z" fill="black"/>
<path d="M607.5 419C607.5 418.724 607.276 418.5 607 418.5C606.724 418.5 606.5 418.724 606.5 419H607.5ZM606.646 521.354C606.842 521.549 607.158 521.549 607.354 521.354L610.536 518.172C610.731 517.976 610.731 517.66 610.536 517.464C610.34 517.269 610.024 517.269 609.828 517.464L607 520.293L604.172 517.464C603.976 517.269 603.66 517.269 603.464 517.464C603.269 517.66 603.269 517.976 603.464 518.172L606.646 521.354ZM606.5 419V450H607.5V419H606.5ZM606.5 490V521H607.5V490H606.5Z" fill="white"/>
<path d="M580.392 469.088H590.088V470.192H580.392V469.088ZM579.16 467.216L580.296 467.584C579.352 469.552 577.896 471.536 576.488 472.816C576.328 472.576 575.912 472.064 575.656 471.84C577 470.688 578.328 468.96 579.16 467.216ZM586.728 467.344H587.896V475.76C587.896 476.512 587.72 476.864 587.176 477.056C586.632 477.232 585.688 477.248 584.232 477.248C584.184 476.928 583.992 476.416 583.816 476.096C584.968 476.128 586.024 476.112 586.328 476.096C586.648 476.096 586.728 476.016 586.728 475.744V467.344ZM577.672 464.096H582.584V465.12H577.672V464.096ZM583.816 464.096H589.944V465.12H583.816V464.096ZM577.912 462.512L579.064 462.8C578.488 464.544 577.544 466.288 576.584 467.424C576.36 467.248 575.848 466.912 575.56 466.752C576.568 465.712 577.416 464.128 577.912 462.512ZM584.2 462.512L585.352 462.784C584.792 464.56 583.832 466.224 582.792 467.312C582.568 467.136 582.072 466.8 581.784 466.624C582.856 465.648 583.72 464.128 584.2 462.512ZM578.792 464.912L579.816 464.608C580.2 465.328 580.712 466.336 580.968 466.912L579.896 467.296C579.656 466.704 579.176 465.664 578.792 464.912ZM585.32 464.912L586.312 464.528C586.792 465.184 587.4 466.08 587.704 466.64L586.648 467.072C586.376 466.512 585.784 465.584 585.32 464.912ZM581.32 471.584L582.28 471.072C582.984 472.064 583.896 473.392 584.344 474.176L583.336 474.784C582.92 473.984 582.024 472.608 581.32 471.584ZM578.04 469.856L579.192 468.72V468.736V477.28H578.04V469.856ZM594.792 467.792H602.872V468.864H594.792V467.792ZM594.504 475.568H603.08V476.64H594.504V475.568ZM593.96 470.88H603.752V477.296H602.536V471.968H595.128V477.296H593.96V470.88ZM598.776 463.792C597.464 465.744 594.84 468.016 592.104 469.504C591.944 469.232 591.624 468.8 591.352 468.544C594.168 467.12 596.84 464.672 598.104 462.608H599.32C601.048 464.992 603.848 467.216 606.408 468.352C606.104 468.64 605.816 469.056 605.608 469.408C603.096 468.096 600.28 465.84 598.776 463.792ZM607.368 471.312H621.928V472.32H607.368V471.312ZM607.752 463.264H621.528V464.32H607.752V463.264ZM612.92 469.632L614.088 469.952C613.048 471.616 611.576 473.712 610.552 475.024L609.416 474.64C610.44 473.344 611.928 471.2 612.92 469.632ZM617.72 471.664L618.872 472C617.464 475.52 614.056 476.832 608.056 477.28C607.976 476.928 607.784 476.496 607.592 476.224C613.304 475.92 616.44 474.784 617.72 471.664ZM610.28 474.48L610.888 473.6C614.84 474.304 618.952 475.376 621.432 476.352L620.712 477.328C618.264 476.32 614.344 475.232 610.28 474.48ZM612.12 463.664H613.256V469.248H612.12V463.664ZM615.848 463.664H616.984V469.248H615.848V463.664ZM609.672 466.672V468.848H619.656V466.672H609.672ZM608.552 465.696H620.856V469.84H608.552V465.696ZM623.496 465.248H637.496V466.416H623.496V465.248ZM630.952 466.288C632.152 470.128 634.616 473.6 637.96 475.056C637.672 475.296 637.272 475.76 637.08 476.112C633.672 474.448 631.32 470.784 630.008 466.576L630.952 466.288ZM635.752 467.072L636.792 467.824C635.736 469.04 634.28 470.464 633.16 471.376L632.312 470.72C633.4 469.808 634.888 468.256 635.752 467.072ZM632.552 463.376L633.288 462.624C634.264 463.136 635.576 463.888 636.248 464.416L635.48 465.28C634.856 464.72 633.576 463.92 632.552 463.376ZM624.36 467.984L625.288 467.376C626.264 468.224 627.416 469.44 627.912 470.288L626.936 470.976C626.456 470.144 625.352 468.864 624.36 467.984ZM629.816 462.608H631.048V475.664C631.048 476.512 630.824 476.88 630.296 477.072C629.752 477.296 628.792 477.312 627.384 477.312C627.32 476.976 627.128 476.416 626.936 476.048C628.056 476.08 629.096 476.08 629.416 476.064C629.704 476.048 629.816 475.968 629.816 475.664V462.608ZM623.064 474.656C624.408 473.968 626.504 472.8 628.456 471.664L628.84 472.736C627.112 473.808 625.224 474.928 623.8 475.728L623.064 474.656Z" fill="white"/>
<rect x="31.5" y="703.5" width="255" height="95" rx="47.5" fill="white" stroke="white" stroke-miterlimit="0"/>
<path d="M136.72 749.32H141.536V750.472H136.72V749.32ZM136.176 749.32H137.36V756.264C137.36 756.872 137.488 756.984 138.224 756.984C138.56 756.984 140.256 756.984 140.72 756.984C141.424 756.984 141.552 756.568 141.632 754.264C141.904 754.488 142.416 754.696 142.752 754.776C142.592 757.384 142.256 758.12 140.784 758.12C140.448 758.12 138.416 758.12 138.096 758.12C136.624 758.12 136.176 757.752 136.176 756.264V749.32ZM136.112 744.296H142.144V751.56H140.976V745.448H136.112V744.296ZM128.56 747.128H134.976V758.008H133.984V748.152H129.536V758.216H128.56V747.128ZM129.056 753.576H134.448V754.472H129.056V753.576ZM129.056 756.152H134.448V757.128H129.056V756.152ZM128.176 744.184H135.328V745.272H128.176V744.184ZM130.48 744.488H131.344V747.864H130.48V744.488ZM132.272 744.488H133.152V747.864H132.272V744.488ZM130.64 747.848H131.312V749.432C131.312 750.424 131.072 751.704 130.08 752.616C129.968 752.472 129.696 752.232 129.536 752.152C130.48 751.336 130.64 750.28 130.64 749.416V747.848ZM132.192 747.848H132.88V751.176C132.88 751.368 132.912 751.4 133.088 751.4C133.168 751.4 133.584 751.4 133.68 751.4C133.856 751.4 133.904 751.4 133.92 751.352C134.08 751.48 134.352 751.56 134.56 751.624C134.48 751.96 134.256 752.104 133.808 752.104C133.696 752.104 133.152 752.104 133.024 752.104C132.384 752.104 132.192 751.96 132.192 751.176V747.848ZM144.192 745.704H149.648V746.856H144.192V745.704ZM149.248 745.704H149.456L149.664 745.656L150.432 745.88C149.76 752.104 147.664 756.088 144.64 758.248C144.464 757.96 144.08 757.512 143.792 757.288C146.576 755.464 148.64 751.48 149.248 745.992V745.704ZM144.544 749.752L145.376 749.016C147.536 750.888 149.984 753.512 150.992 755.352L150.048 756.232C149.056 754.392 146.688 751.672 144.544 749.752ZM150.8 747.416H158.416V748.584H150.8V747.416ZM155.312 743.56H156.512V756.664C156.512 757.464 156.304 757.816 155.824 758.04C155.344 758.248 154.528 758.28 153.152 758.28C153.104 757.944 152.928 757.384 152.752 757.016C153.76 757.048 154.656 757.048 154.928 757.032C155.2 757.016 155.312 756.936 155.312 756.648V743.56ZM151.104 750.712L152.096 750.248C152.864 751.352 153.632 752.824 153.888 753.8L152.832 754.312C152.592 753.352 151.872 751.832 151.104 750.712ZM162.544 748.216H171.248V749.304H162.544V748.216ZM159.808 751.16H174V752.296H159.808V751.16ZM164.016 751.944H165.296C164.96 755.064 164.064 757.224 160.16 758.312C160.032 758.008 159.712 757.528 159.456 757.288C163.056 756.392 163.744 754.552 164.016 751.944ZM168.064 751.848H169.264V756.344C169.264 756.824 169.376 756.904 170.048 756.904C170.368 756.904 171.888 756.904 172.304 756.904C172.912 756.904 173.024 756.616 173.072 754.776C173.328 754.968 173.84 755.16 174.16 755.256C174.032 757.448 173.68 758.008 172.4 758.008C172.08 758.008 170.24 758.008 169.92 758.008C168.448 758.008 168.064 757.64 168.064 756.36V751.848ZM166.24 743.576H167.504V746.12H166.24V743.576ZM160.176 745.288H173.632V748.68H172.368V746.424H161.392V748.68H160.176V745.288ZM177.456 749.56H181.44V750.68H177.456V749.56ZM180.96 749.56H182.128C182.128 749.56 182.128 749.912 182.128 750.072C182.048 753.688 181.952 755.032 181.616 755.48C181.36 755.768 181.104 755.88 180.656 755.928C180.24 755.976 179.52 755.96 178.736 755.928C178.704 755.576 178.576 755.112 178.4 754.808C179.12 754.872 179.824 754.872 180.096 754.872C180.32 754.872 180.48 754.856 180.592 754.712C180.832 754.424 180.912 753.224 180.96 749.768V749.56ZM185.472 744.376L186.192 743.624C187.184 744.136 188.448 744.904 189.072 745.464L188.32 746.28C187.712 745.72 186.48 744.904 185.472 744.376ZM187.76 748.712L188.96 749C187.6 753.176 185.216 756.264 181.936 758.2C181.76 757.96 181.312 757.464 181.056 757.224C184.304 755.496 186.56 752.568 187.76 748.712ZM177.552 746.28H189.936V747.464H177.552V746.28ZM176.784 746.28H178.032V750.792C178.032 753.064 177.776 756.296 176.32 758.392C176.112 758.152 175.6 757.736 175.312 757.592C176.64 755.624 176.784 752.872 176.784 750.776V746.28ZM183.424 743.592H184.672C184.64 750.952 186.208 756.952 188.288 756.952C188.736 756.952 188.944 756.12 189.04 753.992C189.312 754.264 189.76 754.536 190.08 754.648C189.856 757.384 189.408 758.168 188.192 758.168C184.928 758.168 183.488 751.256 183.424 743.592Z" fill="black"/>
<rect x="31.5" y="525.5" width="255" height="95" rx="5.5" fill="black" stroke="white" stroke-miterlimit="0"/>
<path d="M104.768 577.528H109.776V578.664H104.768V577.528ZM104.112 567.288H110.384V579.64H109.2V568.44H105.264V579.88H104.112V567.288ZM96.304 568.84H102.256V569.992H96.304V568.84ZM99.024 565.56L100.192 565.704C99.488 568.904 98.4 573.24 97.6 575.896L96.576 575.4C97.344 572.936 98.4 568.616 99.024 565.56ZM97.136 574.792L97.792 573.912C99.872 574.984 102.336 576.664 103.472 577.976L102.768 579C101.648 577.672 99.2 575.912 97.136 574.792ZM101.92 568.84H102.112L102.336 568.808L103.072 568.952C102.576 575.4 100.592 578.632 97.264 580.296C97.104 580.008 96.784 579.56 96.528 579.304C99.568 577.976 101.472 574.776 101.92 569.096V568.84ZM116.864 567.128H126.832V568.28H116.864V567.128ZM124.464 567.544H125.664V578.632C125.664 579.496 125.44 579.848 124.864 580.056C124.272 580.248 123.216 580.28 121.648 580.264C121.584 579.928 121.392 579.384 121.216 579.032C122.496 579.08 123.664 579.064 124.032 579.048C124.368 579.032 124.464 578.952 124.464 578.632V567.544ZM117.344 570.536H118.464V577.192H117.344V570.536ZM117.856 570.536H122.368V576.072H117.856V575H121.232V571.608H117.856V570.536ZM115.696 565.576L116.832 565.928C115.872 568.6 114.336 571.304 112.704 573.08C112.592 572.808 112.24 572.168 112.032 571.896C113.504 570.36 114.864 567.976 115.696 565.576ZM114.192 569.752L115.376 568.584L115.392 568.6V580.264H114.192V569.752ZM140.016 565.592L140.912 566.568C138.016 567.416 133.28 567.848 129.392 568.008C129.36 567.704 129.216 567.224 129.104 566.952C132.912 566.776 137.584 566.344 140.016 565.592ZM129.12 570.104H141.6V571.256H129.12V570.104ZM128.048 573.864H142.496V575.032H128.048V573.864ZM134.656 567.288H135.904V578.616C135.904 579.464 135.648 579.832 135.04 580.024C134.432 580.216 133.392 580.248 131.696 580.232C131.616 579.896 131.392 579.352 131.2 579.032C132.528 579.08 133.808 579.064 134.16 579.048C134.528 579.048 134.656 578.936 134.656 578.6V567.288ZM151.2 569.256H157.616V570.408H151.2V569.256ZM157.024 569.256H158.208C158.208 569.256 158.192 569.704 158.192 569.864C157.984 576.472 157.792 578.728 157.232 579.432C156.912 579.864 156.592 579.992 156.064 580.056C155.568 580.104 154.704 580.088 153.856 580.04C153.824 579.688 153.696 579.192 153.472 578.856C154.384 578.936 155.216 578.936 155.568 578.936C155.84 578.952 156.016 578.904 156.192 578.712C156.624 578.2 156.848 575.896 157.024 569.528V569.256ZM153.52 565.848H154.704C154.672 571.416 154.592 577.192 151.344 580.264C151.136 579.992 150.72 579.592 150.416 579.4C153.488 576.584 153.504 571.08 153.52 565.848ZM144.512 566.872H150.704V567.96H144.512V566.872ZM143.936 570.696H150.992V571.784H143.936V570.696ZM148.656 573.448L149.632 573.176C150.256 574.6 150.976 576.52 151.264 577.624L150.208 577.992C149.936 576.856 149.248 574.904 148.656 573.448ZM144.512 578.312L144.416 577.304L145.024 576.872L150.272 575.768C150.304 576.088 150.384 576.552 150.432 576.808C145.504 577.912 144.896 578.088 144.512 578.312ZM144.512 578.312C144.448 578.056 144.256 577.496 144.128 577.192C144.384 577.112 144.592 576.696 144.864 576.072C145.104 575.496 145.92 573.192 146.304 571.112L147.472 571.48C146.976 573.624 146.16 575.976 145.344 577.624V577.64C145.344 577.64 144.512 578.056 144.512 578.312ZM168.368 571.32H173.184V572.472H168.368V571.32ZM167.824 571.32H169.008V578.264C169.008 578.872 169.136 578.984 169.872 578.984C170.208 578.984 171.904 578.984 172.368 578.984C173.072 578.984 173.2 578.568 173.28 576.264C173.552 576.488 174.064 576.696 174.4 576.776C174.24 579.384 173.904 580.12 172.432 580.12C172.096 580.12 170.064 580.12 169.744 580.12C168.272 580.12 167.824 579.752 167.824 578.264V571.32ZM167.76 566.296H173.792V573.56H172.624V567.448H167.76V566.296ZM160.208 569.128H166.624V580.008H165.632V570.152H161.184V580.216H160.208V569.128ZM160.704 575.576H166.096V576.472H160.704V575.576ZM160.704 578.152H166.096V579.128H160.704V578.152ZM159.824 566.184H166.976V567.272H159.824V566.184ZM162.128 566.488H162.992V569.864H162.128V566.488ZM163.92 566.488H164.8V569.864H163.92V566.488ZM162.288 569.848H162.96V571.432C162.96 572.424 162.72 573.704 161.728 574.616C161.616 574.472 161.344 574.232 161.184 574.152C162.128 573.336 162.288 572.28 162.288 571.416V569.848ZM163.84 569.848H164.528V573.176C164.528 573.368 164.56 573.4 164.736 573.4C164.816 573.4 165.232 573.4 165.328 573.4C165.504 573.4 165.552 573.4 165.568 573.352C165.728 573.48 166 573.56 166.208 573.624C166.128 573.96 165.904 574.104 165.456 574.104C165.344 574.104 164.8 574.104 164.672 574.104C164.032 574.104 163.84 573.96 163.84 573.176V569.848ZM175.84 567.704H181.296V568.856H175.84V567.704ZM180.896 567.704H181.104L181.312 567.656L182.08 567.88C181.408 574.104 179.312 578.088 176.288 580.248C176.112 579.96 175.728 579.512 175.44 579.288C178.224 577.464 180.288 573.48 180.896 567.992V567.704ZM176.192 571.752L177.024 571.016C179.184 572.888 181.632 575.512 182.64 577.352L181.696 578.232C180.704 576.392 178.336 573.672 176.192 571.752ZM182.448 569.416H190.064V570.584H182.448V569.416ZM186.96 565.56H188.16V578.664C188.16 579.464 187.952 579.816 187.472 580.04C186.992 580.248 186.176 580.28 184.8 580.28C184.752 579.944 184.576 579.384 184.4 579.016C185.408 579.048 186.304 579.048 186.576 579.032C186.848 579.016 186.96 578.936 186.96 578.648V565.56ZM182.752 572.712L183.744 572.248C184.512 573.352 185.28 574.824 185.536 575.8L184.48 576.312C184.24 575.352 183.52 573.832 182.752 572.712ZM197.136 566.312H198.256V571.8C198.256 574.376 198 577.88 196.032 580.152C195.84 579.944 195.36 579.64 195.088 579.512C196.96 577.336 197.136 574.2 197.136 571.8V566.312ZM199.584 571.384H200.72V578.328C200.72 578.904 200.848 579.016 201.52 579.016C201.84 579.016 203.52 579.016 203.936 579.016C204.56 579.016 204.656 578.664 204.736 576.76C204.976 576.968 205.456 577.16 205.776 577.224C205.632 579.464 205.312 580.088 204.016 580.088C203.696 580.088 201.728 580.088 201.424 580.088C199.968 580.088 199.584 579.72 199.584 578.344V571.384ZM204.56 572.392L205.488 573.24C204.128 574.216 202.16 575.16 200.384 575.88C200.304 575.64 200.128 575.256 199.968 575.016C201.648 574.296 203.536 573.288 204.56 572.392ZM197.792 566.312H205.168V570.776H197.792V569.688H204.032V567.4H197.792V566.312ZM192.288 567.032H195.76V576.344H192.288V575.192H194.688V568.184H192.288V567.032ZM191.696 567.032H192.784V577.608H191.696V567.032ZM213.488 575.144C213.008 572.472 216.768 571.768 216.768 569.944C216.768 568.84 215.984 568.04 214.352 568.04C213.248 568.04 212.24 568.52 211.312 569.48L210.464 568.696C211.52 567.576 212.768 566.824 214.496 566.824C216.752 566.824 218.208 567.992 218.208 569.832C218.208 572.248 214.384 572.744 214.8 575.144H213.488ZM214.176 579.08C213.6 579.08 213.152 578.68 213.152 578.04C213.152 577.4 213.616 576.968 214.176 576.968C214.736 576.968 215.2 577.4 215.2 578.04C215.2 578.68 214.736 579.08 214.176 579.08Z" fill="white"/>
<path d="M159.5 625C159.5 624.724 159.276 624.5 159 624.5C158.724 624.5 158.5 624.724 158.5 625H159.5ZM158.646 699.354C158.842 699.549 159.158 699.549 159.354 699.354L162.536 696.172C162.731 695.976 162.731 695.66 162.536 695.464C162.34 695.269 162.024 695.269 161.828 695.464L159 698.293L156.172 695.464C155.976 695.269 155.66 695.269 155.464 695.464C155.269 695.66 155.269 695.976 155.464 696.172L158.646 699.354ZM158.5 625V699H159.5V625H158.5Z" fill="white"/>
<path d="M159.5 405C159.5 404.724 159.276 404.5 159 404.5C158.724 404.5 158.5 404.724 158.5 405H159.5ZM158.646 521.354C158.842 521.549 159.158 521.549 159.354 521.354L162.536 518.172C162.731 517.976 162.731 517.66 162.536 517.464C162.34 517.269 162.024 517.269 161.828 517.464L159 520.293L156.172 517.464C155.976 517.269 155.66 517.269 155.464 517.464C155.269 517.66 155.269 517.976 155.464 518.172L158.646 521.354ZM158.5 405V443H159.5V405H158.5ZM158.5 483V521H159.5V483H158.5Z" fill="white"/>
<path d="M139.752 455.592L140.648 456.568C137.752 457.416 133.016 457.848 129.128 458.008C129.096 457.704 128.952 457.224 128.84 456.952C132.648 456.776 137.32 456.344 139.752 455.592ZM128.856 460.104H141.336V461.256H128.856V460.104ZM127.784 463.864H142.232V465.032H127.784V463.864ZM134.392 457.288H135.64V468.616C135.64 469.464 135.384 469.832 134.776 470.024C134.168 470.216 133.128 470.248 131.432 470.232C131.352 469.896 131.128 469.352 130.936 469.032C132.264 469.08 133.544 469.064 133.896 469.048C134.264 469.048 134.392 468.936 134.392 468.6V457.288ZM150.936 459.256H157.352V460.408H150.936V459.256ZM156.76 459.256H157.944C157.944 459.256 157.928 459.704 157.928 459.864C157.72 466.472 157.528 468.728 156.968 469.432C156.648 469.864 156.328 469.992 155.8 470.056C155.304 470.104 154.44 470.088 153.592 470.04C153.56 469.688 153.432 469.192 153.208 468.856C154.12 468.936 154.952 468.936 155.304 468.936C155.576 468.952 155.752 468.904 155.928 468.712C156.36 468.2 156.584 465.896 156.76 459.528V459.256ZM153.256 455.848H154.44C154.408 461.416 154.328 467.192 151.08 470.264C150.872 469.992 150.456 469.592 150.152 469.4C153.224 466.584 153.24 461.08 153.256 455.848ZM144.248 456.872H150.44V457.96H144.248V456.872ZM143.672 460.696H150.728V461.784H143.672V460.696ZM148.392 463.448L149.368 463.176C149.992 464.6 150.712 466.52 151 467.624L149.944 467.992C149.672 466.856 148.984 464.904 148.392 463.448ZM144.248 468.312L144.152 467.304L144.76 466.872L150.008 465.768C150.04 466.088 150.12 466.552 150.168 466.808C145.24 467.912 144.632 468.088 144.248 468.312ZM144.248 468.312C144.184 468.056 143.992 467.496 143.864 467.192C144.12 467.112 144.328 466.696 144.6 466.072C144.84 465.496 145.656 463.192 146.04 461.112L147.208 461.48C146.712 463.624 145.896 465.976 145.08 467.624V467.64C145.08 467.64 144.248 468.056 144.248 468.312ZM168.104 461.32H172.92V462.472H168.104V461.32ZM167.56 461.32H168.744V468.264C168.744 468.872 168.872 468.984 169.608 468.984C169.944 468.984 171.64 468.984 172.104 468.984C172.808 468.984 172.936 468.568 173.016 466.264C173.288 466.488 173.8 466.696 174.136 466.776C173.976 469.384 173.64 470.12 172.168 470.12C171.832 470.12 169.8 470.12 169.48 470.12C168.008 470.12 167.56 469.752 167.56 468.264V461.32ZM167.496 456.296H173.528V463.56H172.36V457.448H167.496V456.296ZM159.944 459.128H166.36V470.008H165.368V460.152H160.92V470.216H159.944V459.128ZM160.44 465.576H165.832V466.472H160.44V465.576ZM160.44 468.152H165.832V469.128H160.44V468.152ZM159.56 456.184H166.712V457.272H159.56V456.184ZM161.864 456.488H162.728V459.864H161.864V456.488ZM163.656 456.488H164.536V459.864H163.656V456.488ZM162.024 459.848H162.696V461.432C162.696 462.424 162.456 463.704 161.464 464.616C161.352 464.472 161.08 464.232 160.92 464.152C161.864 463.336 162.024 462.28 162.024 461.416V459.848ZM163.576 459.848H164.264V463.176C164.264 463.368 164.296 463.4 164.472 463.4C164.552 463.4 164.968 463.4 165.064 463.4C165.24 463.4 165.288 463.4 165.304 463.352C165.464 463.48 165.736 463.56 165.944 463.624C165.864 463.96 165.64 464.104 165.192 464.104C165.08 464.104 164.536 464.104 164.408 464.104C163.768 464.104 163.576 463.96 163.576 463.176V459.848ZM175.576 457.704H181.032V458.856H175.576V457.704ZM180.632 457.704H180.84L181.048 457.656L181.816 457.88C181.144 464.104 179.048 468.088 176.024 470.248C175.848 469.96 175.464 469.512 175.176 469.288C177.96 467.464 180.024 463.48 180.632 457.992V457.704ZM175.928 461.752L176.76 461.016C178.92 462.888 181.368 465.512 182.376 467.352L181.432 468.232C180.44 466.392 178.072 463.672 175.928 461.752ZM182.184 459.416H189.8V460.584H182.184V459.416ZM186.696 455.56H187.896V468.664C187.896 469.464 187.688 469.816 187.208 470.04C186.728 470.248 185.912 470.28 184.536 470.28C184.488 469.944 184.312 469.384 184.136 469.016C185.144 469.048 186.04 469.048 186.312 469.032C186.584 469.016 186.696 468.936 186.696 468.648V455.56ZM182.488 462.712L183.48 462.248C184.248 463.352 185.016 464.824 185.272 465.8L184.216 466.312C183.976 465.352 183.256 463.832 182.488 462.712Z" fill="white"/>
<path d="M605.056 703.855L605.056 703.855L605.069 703.85C606.314 703.383 607.686 703.383 608.931 703.85L608.931 703.85L608.944 703.855L730.931 745.85C730.933 745.851 730.935 745.852 730.937 745.852C735.688 747.64 735.688 754.36 730.937 756.148C730.935 756.148 730.933 756.149 730.931 756.15L608.944 798.145L608.944 798.145L608.931 798.15C607.686 798.617 606.314 798.617 605.069 798.15L605.069 798.15L605.056 798.145L483.063 756.147C478.312 754.36 478.312 747.64 483.063 745.853L605.056 703.855Z" fill="white" stroke="black" stroke-miterlimit="0"/>
<path d="M560.368 750.616H574.528V751.704H560.368V750.616ZM567.488 753.48H573.472V754.536H567.488V753.48ZM566.96 751.096H568.176V757.16H566.96V751.096ZM563.824 753.704C564.8 756.328 566.912 756.824 570.048 756.84C570.656 756.84 574 756.84 574.832 756.824C574.656 757.096 574.464 757.624 574.4 757.976H570C566.256 757.976 564.08 757.304 562.832 754.072L563.824 753.704ZM563.136 752.216L564.336 752.392C563.824 755.048 562.672 757.032 560.912 758.312C560.736 758.088 560.272 757.656 560 757.464C561.696 756.36 562.72 754.568 563.136 752.216ZM563.216 747.304V748.616H571.552V747.304H563.216ZM563.216 745.144V746.44H571.552V745.144H563.216ZM562.048 744.232H572.768V749.528H562.048V744.232ZM578.752 756.44H587.792V757.512H578.752V756.44ZM578.08 752.248H588.56V758.248H587.264V753.304H579.312V758.28H578.08V752.248ZM576.32 744.472H590.208V745.608H576.32V744.472ZM584 744.92L585.168 745.448C583.152 747.992 579.84 749.928 576.672 751.144C576.496 750.872 576.08 750.312 575.824 750.056C578.992 749.032 582.208 747.208 584 744.92ZM584.528 747.976L585.376 747.16C587.216 747.912 589.408 749.176 590.608 750.04L589.744 750.952C588.576 750.024 586.368 748.728 584.528 747.976ZM582.624 747.24L583.84 746.04L583.856 746.056V751.768H582.624V747.24ZM595.056 749V755.88H593.888V750.104H591.792V749H595.056ZM592.4 744.344L593.328 743.752C594.16 744.616 595.168 745.816 595.632 746.6L594.656 747.272C594.224 746.488 593.232 745.24 592.4 744.344ZM594.432 755.032C594.96 755.032 595.344 755.528 596.272 756.104C597.344 756.792 598.736 756.92 600.624 756.92C602.592 756.92 605.056 756.776 606.656 756.6C606.512 756.92 606.304 757.56 606.288 757.944C605.152 758.008 602.192 758.12 600.576 758.12C598.48 758.12 597.136 757.928 595.968 757.208C595.312 756.76 594.752 756.184 594.4 756.184C593.904 756.184 593.184 757.208 592.464 758.312L591.568 757.16C592.608 755.912 593.648 755.032 594.432 755.032ZM601.024 747.144H602.272V756.488H601.024V747.144ZM596.144 752.424H606.128V753.56H596.144V752.424ZM596.256 745.24H605.84V746.296H596.256V745.24ZM597.104 750.472V749.496L597.824 749.112H605.376V750.248H598.56C597.792 750.248 597.248 750.328 597.104 750.472ZM597.104 750.472C597.056 750.216 596.848 749.64 596.704 749.32C596.992 749.256 597.248 748.856 597.568 748.28C597.904 747.72 598.912 745.544 599.456 743.576L600.704 743.912C599.984 746.024 598.992 748.248 598 749.784V749.8C598 749.8 597.104 750.216 597.104 750.472ZM616.688 743.56H617.904V745.752H616.688V743.56ZM612.896 745.272H621.792V746.312H612.896V745.272ZM612.256 749.016H622.24V750.072H612.256V749.016ZM614.4 746.456L615.44 746.248C615.792 747.112 616.096 748.232 616.16 748.92L615.072 749.192C615.024 748.488 614.736 747.336 614.4 746.456ZM619.152 746.216L620.336 746.392C620 747.336 619.616 748.424 619.28 749.144L618.256 748.968C618.576 748.216 618.96 747.016 619.152 746.216ZM612.336 751.656H622.176V752.696H612.336V751.656ZM616 749.784L617.2 750.024C616.384 751.864 615.248 754.2 614.432 755.672L613.392 755.32C614.192 753.896 615.296 751.528 616 749.784ZM614.208 755.112L614.912 754.296C617.328 754.984 620.336 756.264 621.888 757.384L621.12 758.296C619.648 757.208 616.656 755.848 614.208 755.112ZM619.152 752.328L620.32 752.504C619.552 756.072 617.36 757.624 612.416 758.28C612.336 757.944 612.128 757.528 611.936 757.272C616.544 756.808 618.464 755.448 619.152 752.328ZM607.344 752.072C608.64 751.752 610.592 751.176 612.48 750.632L612.624 751.704C610.88 752.248 609.04 752.824 607.616 753.256L607.344 752.072ZM607.616 746.792H612.496V747.912H607.616V746.792ZM609.792 743.576H610.944V756.824C610.944 757.512 610.8 757.848 610.384 758.04C609.968 758.248 609.312 758.28 608.272 758.28C608.224 757.976 608.064 757.448 607.904 757.112C608.624 757.144 609.296 757.144 609.488 757.128C609.696 757.128 609.792 757.064 609.792 756.824V743.576ZM625.456 749.56H629.44V750.68H625.456V749.56ZM628.96 749.56H630.128C630.128 749.56 630.128 749.912 630.128 750.072C630.048 753.688 629.952 755.032 629.616 755.48C629.36 755.768 629.104 755.88 628.656 755.928C628.24 755.976 627.52 755.96 626.736 755.928C626.704 755.576 626.576 755.112 626.4 754.808C627.12 754.872 627.824 754.872 628.096 754.872C628.32 754.872 628.48 754.856 628.592 754.712C628.832 754.424 628.912 753.224 628.96 749.768V749.56ZM633.472 744.376L634.192 743.624C635.184 744.136 636.448 744.904 637.072 745.464L636.32 746.28C635.712 745.72 634.48 744.904 633.472 744.376ZM635.76 748.712L636.96 749C635.6 753.176 633.216 756.264 629.936 758.2C629.76 757.96 629.312 757.464 629.056 757.224C632.304 755.496 634.56 752.568 635.76 748.712ZM625.552 746.28H637.936V747.464H625.552V746.28ZM624.784 746.28H626.032V750.792C626.032 753.064 625.776 756.296 624.32 758.392C624.112 758.152 623.6 757.736 623.312 757.592C624.64 755.624 624.784 752.872 624.784 750.776V746.28ZM631.424 743.592H632.672C632.64 750.952 634.208 756.952 636.288 756.952C636.736 756.952 636.944 756.12 637.04 753.992C637.312 754.264 637.76 754.536 638.08 754.648C637.856 757.384 637.408 758.168 636.192 758.168C632.928 758.168 631.488 751.256 631.424 743.592ZM639.376 745.464H645.248V746.6H639.376V745.464ZM645.376 747.224H652.976V748.376H645.376V747.224ZM641.744 745.912H642.912V753.928H641.744V745.912ZM652.416 747.224H653.6C653.6 747.224 653.6 747.656 653.584 747.832C653.328 754.44 653.104 756.76 652.496 757.48C652.144 757.928 651.808 758.056 651.264 758.12C650.736 758.168 649.808 758.152 648.896 758.088C648.864 757.752 648.736 757.24 648.528 756.904C649.504 757 650.416 757 650.768 757C651.088 757 651.264 756.952 651.44 756.76C651.936 756.216 652.192 753.848 652.416 747.48V747.224ZM639.152 754.104C640.736 753.736 643.168 753.08 645.488 752.456L645.648 753.592C643.472 754.216 641.152 754.872 639.456 755.336L639.152 754.104ZM648.096 743.832H649.312C649.28 750.008 649.232 755.544 644.336 758.296C644.16 758.008 643.76 757.576 643.472 757.352C648.16 754.856 648.064 749.672 648.096 743.832Z" fill="black"/>
<path d="M607.5 625C607.5 624.724 607.276 624.5 607 624.5C606.724 624.5 606.5 624.724 606.5 625H607.5ZM606.646 699.354C606.842 699.549 607.158 699.549 607.354 699.354L610.536 696.172C610.731 695.976 610.731 695.66 610.536 695.464C610.34 695.269 610.024 695.269 609.828 695.464L607 698.293L604.172 695.464C603.976 695.269 603.66 695.269 603.464 695.464C603.269 695.66 603.269 695.976 603.464 696.172L606.646 699.354ZM606.5 625V699H607.5V625H606.5Z" fill="white"/>
<path d="M607.5 803C607.5 802.724 607.276 802.5 607 802.5C606.724 802.5 606.5 802.724 606.5 803H607.5ZM159.354 802.646C159.158 802.451 158.842 802.451 158.646 802.646L155.464 805.828C155.269 806.024 155.269 806.34 155.464 806.536C155.66 806.731 155.976 806.731 156.172 806.536L159 803.707L161.828 806.536C162.024 806.731 162.34 806.731 162.536 806.536C162.731 806.34 162.731 806.024 162.536 805.828L159.354 802.646ZM606.5 803V807H607.5V803H606.5ZM583 830.5H423V831.5H583V830.5ZM343 830.5H183V831.5H343V830.5ZM159.5 807V803H158.5V807H159.5ZM183 830.5C170.021 830.5 159.5 819.979 159.5 807H158.5C158.5 820.531 169.469 831.5 183 831.5V830.5ZM606.5 807C606.5 819.979 595.979 830.5 583 830.5V831.5C596.531 831.5 607.5 820.531 607.5 807H606.5Z" fill="white"/>
<path d="M354.968 829V835.88H353.8V830.104H351.704V829H354.968ZM352.312 824.344L353.24 823.752C354.072 824.616 355.08 825.816 355.544 826.6L354.568 827.272C354.136 826.488 353.144 825.24 352.312 824.344ZM354.344 835.032C354.872 835.032 355.256 835.528 356.184 836.104C357.256 836.792 358.648 836.92 360.536 836.92C362.504 836.92 364.968 836.776 366.568 836.6C366.424 836.92 366.216 837.56 366.2 837.944C365.064 838.008 362.104 838.12 360.488 838.12C358.392 838.12 357.048 837.928 355.88 837.208C355.224 836.76 354.664 836.184 354.312 836.184C353.816 836.184 353.096 837.208 352.376 838.312L351.48 837.16C352.52 835.912 353.56 835.032 354.344 835.032ZM360.936 827.144H362.184V836.488H360.936V827.144ZM356.056 832.424H366.04V833.56H356.056V832.424ZM356.168 825.24H365.752V826.296H356.168V825.24ZM357.016 830.472V829.496L357.736 829.112H365.288V830.248H358.472C357.704 830.248 357.16 830.328 357.016 830.472ZM357.016 830.472C356.968 830.216 356.76 829.64 356.616 829.32C356.904 829.256 357.16 828.856 357.48 828.28C357.816 827.72 358.824 825.544 359.368 823.576L360.616 823.912C359.896 826.024 358.904 828.248 357.912 829.784V829.8C357.912 829.8 357.016 830.216 357.016 830.472ZM376.6 823.56H377.816V825.752H376.6V823.56ZM372.808 825.272H381.704V826.312H372.808V825.272ZM372.168 829.016H382.152V830.072H372.168V829.016ZM374.312 826.456L375.352 826.248C375.704 827.112 376.008 828.232 376.072 828.92L374.984 829.192C374.936 828.488 374.648 827.336 374.312 826.456ZM379.064 826.216L380.248 826.392C379.912 827.336 379.528 828.424 379.192 829.144L378.168 828.968C378.488 828.216 378.872 827.016 379.064 826.216ZM372.248 831.656H382.088V832.696H372.248V831.656ZM375.912 829.784L377.112 830.024C376.296 831.864 375.16 834.2 374.344 835.672L373.304 835.32C374.104 833.896 375.208 831.528 375.912 829.784ZM374.12 835.112L374.824 834.296C377.24 834.984 380.248 836.264 381.8 837.384L381.032 838.296C379.56 837.208 376.568 835.848 374.12 835.112ZM379.064 832.328L380.232 832.504C379.464 836.072 377.272 837.624 372.328 838.28C372.248 837.944 372.04 837.528 371.848 837.272C376.456 836.808 378.376 835.448 379.064 832.328ZM367.256 832.072C368.552 831.752 370.504 831.176 372.392 830.632L372.536 831.704C370.792 832.248 368.952 832.824 367.528 833.256L367.256 832.072ZM367.528 826.792H372.408V827.912H367.528V826.792ZM369.704 823.576H370.856V836.824C370.856 837.512 370.712 837.848 370.296 838.04C369.88 838.248 369.224 838.28 368.184 838.28C368.136 837.976 367.976 837.448 367.816 837.112C368.536 837.144 369.208 837.144 369.4 837.128C369.608 837.128 369.704 837.064 369.704 836.824V823.576ZM385.368 829.56H389.352V830.68H385.368V829.56ZM388.872 829.56H390.04C390.04 829.56 390.04 829.912 390.04 830.072C389.96 833.688 389.864 835.032 389.528 835.48C389.272 835.768 389.016 835.88 388.568 835.928C388.152 835.976 387.432 835.96 386.648 835.928C386.616 835.576 386.488 835.112 386.312 834.808C387.032 834.872 387.736 834.872 388.008 834.872C388.232 834.872 388.392 834.856 388.504 834.712C388.744 834.424 388.824 833.224 388.872 829.768V829.56ZM393.384 824.376L394.104 823.624C395.096 824.136 396.36 824.904 396.984 825.464L396.232 826.28C395.624 825.72 394.392 824.904 393.384 824.376ZM395.672 828.712L396.872 829C395.512 833.176 393.128 836.264 389.848 838.2C389.672 837.96 389.224 837.464 388.968 837.224C392.216 835.496 394.472 832.568 395.672 828.712ZM385.464 826.28H397.848V827.464H385.464V826.28ZM384.696 826.28H385.944V830.792C385.944 833.064 385.688 836.296 384.232 838.392C384.024 838.152 383.512 837.736 383.224 837.592C384.552 835.624 384.696 832.872 384.696 830.776V826.28ZM391.336 823.592H392.584C392.552 830.952 394.12 836.952 396.2 836.952C396.648 836.952 396.856 836.12 396.952 833.992C397.224 834.264 397.672 834.536 397.992 834.648C397.768 837.384 397.32 838.168 396.104 838.168C392.84 838.168 391.4 831.256 391.336 823.592ZM399.288 825.464H405.16V826.6H399.288V825.464ZM405.288 827.224H412.888V828.376H405.288V827.224ZM401.656 825.912H402.824V833.928H401.656V825.912ZM412.328 827.224H413.512C413.512 827.224 413.512 827.656 413.496 827.832C413.24 834.44 413.016 836.76 412.408 837.48C412.056 837.928 411.72 838.056 411.176 838.12C410.648 838.168 409.72 838.152 408.808 838.088C408.776 837.752 408.648 837.24 408.44 836.904C409.416 837 410.328 837 410.68 837C411 837 411.176 836.952 411.352 836.76C411.848 836.216 412.104 833.848 412.328 827.48V827.224ZM399.064 834.104C400.648 833.736 403.08 833.08 405.4 832.456L405.56 833.592C403.384 834.216 401.064 834.872 399.368 835.336L399.064 834.104ZM408.008 823.832H409.224C409.192 830.008 409.144 835.544 404.248 838.296C404.072 838.008 403.672 837.576 403.384 837.352C408.072 834.856 407.976 829.672 408.008 823.832Z" fill="white"/>
</svg>
