<svg width="720" height="240" viewBox="0 0 720 240" fill="none" xmlns="http://www.w3.org/2000/svg">
<g clip-path="url(#clip0_4196_27282)">
<rect width="720" height="240" fill="white"/>
<path d="M306.823 113.983C307.13 114.566 307.13 115.262 306.823 115.845L299.989 128.845C299.643 129.502 298.961 129.914 298.219 129.914H219.646C218.136 129.914 217.171 128.305 217.881 126.973L223.811 115.855C224.124 115.267 224.124 114.561 223.811 113.973L217.881 102.855C217.171 101.523 218.136 99.9141 219.646 99.9141L298.219 99.9141C298.961 99.9141 299.643 100.326 299.989 100.983L306.823 113.983Z" fill="#239582"/>
<path d="M238.812 118.586L235.02 114.793C234.629 114.402 233.996 114.402 233.605 114.793C233.215 115.183 233.215 115.817 233.605 116.207L238.105 120.707C238.496 121.098 239.129 121.098 239.52 120.707L250.52 109.707C250.91 109.317 250.91 108.683 250.52 108.293C250.129 107.902 249.496 107.902 249.105 108.293L238.812 118.586Z" fill="white"/>
<path d="M399.823 113.983C400.13 114.566 400.13 115.262 399.823 115.845L392.989 128.845C392.643 129.502 391.961 129.914 391.219 129.914H312.646C311.136 129.914 310.171 128.305 310.881 126.973L316.811 115.855C317.124 115.267 317.124 114.561 316.811 113.973L310.881 102.855C310.171 101.523 311.136 99.9141 312.646 99.9141L391.219 99.9141C391.961 99.9141 392.643 100.326 392.989 100.983L399.823 113.983Z" fill="#239582"/>
<path d="M331.812 118.586L328.02 114.793C327.629 114.402 326.996 114.402 326.605 114.793C326.215 115.183 326.215 115.817 326.605 116.207L331.105 120.707C331.496 121.098 332.129 121.098 332.52 120.707L343.52 109.707C343.91 109.317 343.91 108.683 343.52 108.293C343.129 107.902 342.496 107.902 342.105 108.293L331.812 118.586Z" fill="white"/>
<path d="M493.136 114.114C493.442 114.697 493.442 115.393 493.136 115.976L486.301 128.976C485.956 129.633 485.274 130.045 484.531 130.045H405.958C404.448 130.045 403.483 128.436 404.194 127.104L410.123 115.986C410.437 115.398 410.437 114.692 410.123 114.104L404.194 102.986C403.483 101.654 404.448 100.045 405.958 100.045L484.531 100.045C485.274 100.045 485.956 100.457 486.301 101.114L493.136 114.114Z" fill="#AB4A31"/>
<path d="M427.312 105.131C432.835 105.131 437.312 109.608 437.312 115.131C437.312 120.654 432.835 125.131 427.312 125.131C421.79 125.131 417.312 120.654 417.312 115.131C417.312 109.608 421.79 105.131 427.312 105.131ZM423.062 114.381C422.648 114.381 422.312 114.717 422.312 115.131C422.312 115.511 422.595 115.824 422.961 115.874L423.062 115.881C428.523 115.881 426.566 115.881 431.562 115.881C431.977 115.881 432.312 115.545 432.312 115.131C432.312 114.751 432.03 114.437 431.664 114.388L431.562 114.381C426.368 114.381 428.756 114.381 423.062 114.381Z" fill="white"/>
<path d="M586.136 114.114C586.442 114.697 586.442 115.393 586.136 115.976L579.301 128.976C578.956 129.633 578.274 130.045 577.531 130.045H498.958C497.448 130.045 496.483 128.436 497.194 127.104L503.123 115.986C503.437 115.398 503.437 114.692 503.123 114.104L497.194 102.986C496.483 101.654 497.448 100.045 498.958 100.045L577.531 100.045C578.274 100.045 578.956 100.457 579.301 101.114L586.136 114.114Z" fill="#AB4A31"/>
<path d="M520.312 105.131C525.835 105.131 530.312 109.608 530.312 115.131C530.312 120.654 525.835 125.131 520.312 125.131C514.79 125.131 510.312 120.654 510.312 115.131C510.312 109.608 514.79 105.131 520.312 105.131ZM516.062 114.381C515.648 114.381 515.312 114.717 515.312 115.131C515.312 115.511 515.595 115.824 515.961 115.874L516.062 115.881C521.523 115.881 519.566 115.881 524.562 115.881C524.977 115.881 525.312 115.545 525.312 115.131C525.312 114.751 525.03 114.437 524.664 114.388L524.562 114.381C519.368 114.381 521.756 114.381 516.062 114.381Z" fill="white"/>
<g opacity="0.5">
<path d="M484 49C484 46.7909 485.791 45 488 45H556C558.209 45 560 46.7909 560 49V73C560 75.2091 558.209 77 556 77H488C485.791 77 484 75.2091 484 73V49Z" fill="#0F6CBD"/>
<path fill-rule="evenodd" clip-rule="evenodd" d="M506 69C510.418 69 514 65.4183 514 61C514 56.5817 510.418 53 506 53C501.582 53 498 56.5817 498 61C498 65.4183 501.582 69 506 69ZM506 68C502.134 68 499 64.866 499 61C499 57.134 502.134 54 506 54C509.866 54 513 57.134 513 61C513 64.866 509.866 68 506 68Z" fill="white"/>
<path d="M529.499 57.5781H526.683V66H525.056V57.5781H522.246V56.1973H529.499V57.5781ZM535.316 62.9307H530.545C530.563 63.5778 530.761 64.0768 531.14 64.4277C531.522 64.7786 532.047 64.9541 532.712 64.9541C533.459 64.9541 534.145 64.7308 534.77 64.2842V65.5625C534.132 65.9635 533.288 66.1641 532.24 66.1641C531.21 66.1641 530.401 65.8473 529.813 65.2139C529.23 64.5758 528.938 63.6803 528.938 62.5273C528.938 61.4382 529.26 60.5518 529.902 59.8682C530.549 59.18 531.352 58.8359 532.309 58.8359C533.266 58.8359 534.006 59.1436 534.53 59.7588C535.054 60.374 535.316 61.2285 535.316 62.3223V62.9307ZM533.785 61.8096C533.781 61.2399 533.646 60.7979 533.382 60.4834C533.118 60.1644 532.753 60.0049 532.288 60.0049C531.832 60.0049 531.445 60.1712 531.126 60.5039C530.812 60.8366 530.618 61.2718 530.545 61.8096H533.785ZM542.679 59L540.348 62.541L542.651 66H540.812L539.582 63.833C539.505 63.7008 539.413 63.5322 539.309 63.3271H539.281C539.263 63.3682 539.167 63.5368 538.994 63.833L537.743 66H535.911L538.29 62.5684L536.034 59H537.88L539.09 61.2764C539.181 61.445 539.27 61.6182 539.356 61.7959H539.377L540.942 59H542.679ZM547.532 65.9248C547.222 66.0798 546.814 66.1572 546.309 66.1572C544.951 66.1572 544.271 65.5055 544.271 64.2021V60.2441H543.103V59H544.271V57.3799L545.857 56.9287V59H547.532V60.2441H545.857V63.7441C545.857 64.1589 545.933 64.4551 546.083 64.6328C546.233 64.8105 546.484 64.8994 546.835 64.8994C547.104 64.8994 547.336 64.8219 547.532 64.667V65.9248Z" fill="white"/>
<g filter="url(#filter0_dd_4196_27282)">
<path d="M283 166C283 161.582 286.582 158 291 158H547C551.418 158 555 161.582 555 166V238C555 242.418 551.418 246 547 246H291C286.582 246 283 242.418 283 238V166Z" fill="white" shape-rendering="crispEdges"/>
<rect width="240" height="56" transform="translate(299 174)" fill="#EBF3FC"/>
<path d="M337.074 205.717V204.75C337.185 204.848 337.317 204.936 337.47 205.014C337.626 205.092 337.789 205.159 337.958 205.214C338.131 205.266 338.303 205.307 338.476 205.336C338.648 205.365 338.808 205.38 338.954 205.38C339.459 205.38 339.835 205.287 340.082 205.102C340.333 204.913 340.458 204.643 340.458 204.291C340.458 204.102 340.416 203.938 340.331 203.798C340.25 203.658 340.136 203.531 339.989 203.417C339.843 203.3 339.669 203.189 339.467 203.085C339.268 202.978 339.053 202.865 338.822 202.748C338.578 202.624 338.35 202.499 338.139 202.372C337.927 202.245 337.743 202.105 337.587 201.952C337.431 201.799 337.307 201.627 337.216 201.435C337.128 201.239 337.084 201.011 337.084 200.751C337.084 200.432 337.154 200.155 337.294 199.921C337.434 199.683 337.618 199.488 337.846 199.335C338.074 199.182 338.332 199.068 338.622 198.993C338.915 198.918 339.213 198.881 339.516 198.881C340.206 198.881 340.709 198.964 341.024 199.13V200.053C340.611 199.766 340.08 199.623 339.433 199.623C339.254 199.623 339.075 199.643 338.896 199.682C338.716 199.717 338.557 199.778 338.417 199.862C338.277 199.947 338.163 200.056 338.075 200.189C337.987 200.323 337.943 200.486 337.943 200.678C337.943 200.857 337.976 201.011 338.041 201.142C338.109 201.272 338.209 201.391 338.339 201.498C338.469 201.605 338.627 201.71 338.812 201.811C339.001 201.911 339.218 202.022 339.462 202.143C339.713 202.266 339.95 202.396 340.175 202.533C340.399 202.67 340.596 202.821 340.766 202.987C340.935 203.153 341.068 203.337 341.166 203.539C341.267 203.741 341.317 203.972 341.317 204.232C341.317 204.577 341.249 204.87 341.112 205.111C340.979 205.349 340.797 205.543 340.565 205.692C340.338 205.842 340.074 205.95 339.774 206.015C339.475 206.083 339.159 206.117 338.827 206.117C338.716 206.117 338.58 206.107 338.417 206.088C338.254 206.072 338.088 206.046 337.919 206.01C337.75 205.977 337.589 205.937 337.436 205.888C337.286 205.836 337.165 205.779 337.074 205.717ZM351.015 198.998L349.037 206H348.075L346.635 200.883C346.573 200.665 346.535 200.427 346.522 200.17H346.503C346.483 200.411 346.441 200.645 346.376 200.873L344.926 206H343.974L341.923 198.998H342.826L344.315 204.369C344.377 204.594 344.416 204.828 344.433 205.072H344.457C344.473 204.9 344.524 204.665 344.608 204.369L346.156 198.998H346.942L348.427 204.408C348.479 204.594 348.518 204.812 348.544 205.062H348.563C348.576 204.893 348.62 204.669 348.695 204.389L350.126 198.998H351.015ZM357.118 206H356.21L355.468 204.037H352.499L351.801 206H350.888L353.573 198.998H354.423L357.118 206ZM355.199 203.3L354.101 200.316C354.065 200.219 354.029 200.062 353.993 199.848H353.974C353.941 200.046 353.904 200.202 353.861 200.316L352.772 203.3H355.199ZM358.974 203.354V206H358.153V198.998H360.077C360.826 198.998 361.405 199.18 361.815 199.545C362.229 199.91 362.436 200.424 362.436 201.088C362.436 201.752 362.206 202.296 361.747 202.719C361.291 203.142 360.674 203.354 359.896 203.354H358.974ZM358.974 199.74V202.611H359.833C360.399 202.611 360.831 202.483 361.127 202.226C361.426 201.965 361.576 201.599 361.576 201.127C361.576 200.202 361.029 199.74 359.936 199.74H358.974ZM374.804 198.998L372.826 206H371.864L370.424 200.883C370.362 200.665 370.325 200.427 370.312 200.17H370.292C370.272 200.411 370.23 200.645 370.165 200.873L368.715 206H367.763L365.712 198.998H366.615L368.104 204.369C368.166 204.594 368.205 204.828 368.222 205.072H368.246C368.262 204.9 368.313 204.665 368.397 204.369L369.945 198.998H370.731L372.216 204.408C372.268 204.594 372.307 204.812 372.333 205.062H372.353C372.366 204.893 372.41 204.669 372.484 204.389L373.915 198.998H374.804ZM377.353 198.998V199.701H376.669V205.297H377.353V206H375.165V205.297H375.849V199.701H375.165V198.998H377.353ZM382.655 199.74H380.634V206H379.813V199.74H377.797V198.998H382.655V199.74ZM389.022 206H388.202V202.807H384.579V206H383.759V198.998H384.579V202.069H388.202V198.998H389.022V206ZM398.368 205.707C397.851 205.98 397.206 206.117 396.435 206.117C395.438 206.117 394.641 205.797 394.042 205.155C393.443 204.514 393.144 203.673 393.144 202.631C393.144 201.511 393.48 200.606 394.154 199.916C394.828 199.226 395.683 198.881 396.718 198.881C397.382 198.881 397.932 198.977 398.368 199.169V200.043C397.867 199.763 397.313 199.623 396.708 199.623C395.904 199.623 395.251 199.892 394.75 200.429C394.252 200.966 394.003 201.684 394.003 202.582C394.003 203.435 394.236 204.115 394.701 204.623C395.17 205.128 395.784 205.38 396.542 205.38C397.245 205.38 397.854 205.224 398.368 204.911V205.707ZM402.479 206.117C401.487 206.117 400.691 205.79 400.092 205.136C399.496 204.481 399.198 203.63 399.198 202.582C399.198 201.456 399.503 200.557 400.111 199.887C400.72 199.216 401.549 198.881 402.597 198.881C403.563 198.881 404.341 199.206 404.931 199.857C405.523 200.508 405.819 201.36 405.819 202.411C405.819 203.554 405.517 204.457 404.911 205.121C404.306 205.785 403.495 206.117 402.479 206.117ZM402.538 199.623C401.802 199.623 401.205 199.888 400.746 200.419C400.287 200.95 400.058 201.646 400.058 202.509C400.058 203.371 400.281 204.066 400.727 204.594C401.176 205.118 401.76 205.38 402.479 205.38C403.248 205.38 403.853 205.129 404.296 204.628C404.739 204.127 404.96 203.425 404.96 202.523C404.96 201.599 404.745 200.884 404.315 200.38C403.886 199.875 403.293 199.623 402.538 199.623ZM412.841 206H411.835L408.231 200.419C408.14 200.279 408.065 200.132 408.007 199.979H407.978C408.004 200.129 408.017 200.45 408.017 200.941V206H407.196V198.998H408.261L411.767 204.491C411.913 204.719 412.007 204.875 412.05 204.96H412.069C412.037 204.758 412.021 204.415 412.021 203.93V198.998H412.841V206ZM418.817 199.74H416.796V206H415.976V199.74H413.959V198.998H418.817V199.74ZM423.632 206H419.921V198.998H423.476V199.74H420.741V202.069H423.271V202.807H420.741V205.258H423.632V206ZM430.624 206H429.618L426.015 200.419C425.924 200.279 425.849 200.132 425.79 199.979H425.761C425.787 200.129 425.8 200.45 425.8 200.941V206H424.979V198.998H426.044L429.55 204.491C429.696 204.719 429.791 204.875 429.833 204.96H429.853C429.82 204.758 429.804 204.415 429.804 203.93V198.998H430.624V206ZM436.601 199.74H434.579V206H433.759V199.74H431.742V198.998H436.601V199.74ZM445.214 205.707C444.696 205.98 444.052 206.117 443.28 206.117C442.284 206.117 441.487 205.797 440.888 205.155C440.289 204.514 439.989 203.673 439.989 202.631C439.989 201.511 440.326 200.606 441 199.916C441.674 199.226 442.528 198.881 443.563 198.881C444.228 198.881 444.778 198.977 445.214 199.169V200.043C444.713 199.763 444.159 199.623 443.554 199.623C442.75 199.623 442.097 199.892 441.596 200.429C441.098 200.966 440.849 201.684 440.849 202.582C440.849 203.435 441.081 204.115 441.547 204.623C442.016 205.128 442.629 205.38 443.388 205.38C444.091 205.38 444.7 205.224 445.214 204.911V205.707ZM449.325 206.117C448.332 206.117 447.536 205.79 446.938 205.136C446.342 204.481 446.044 203.63 446.044 202.582C446.044 201.456 446.348 200.557 446.957 199.887C447.566 199.216 448.394 198.881 449.442 198.881C450.409 198.881 451.187 199.206 451.776 199.857C452.369 200.508 452.665 201.36 452.665 202.411C452.665 203.554 452.362 204.457 451.757 205.121C451.151 205.785 450.341 206.117 449.325 206.117ZM449.384 199.623C448.648 199.623 448.051 199.888 447.592 200.419C447.133 200.95 446.903 201.646 446.903 202.509C446.903 203.371 447.126 204.066 447.572 204.594C448.021 205.118 448.606 205.38 449.325 205.38C450.093 205.38 450.699 205.129 451.142 204.628C451.584 204.127 451.806 203.425 451.806 202.523C451.806 201.599 451.591 200.884 451.161 200.38C450.731 199.875 450.139 199.623 449.384 199.623ZM461.181 206H460.365V201.303C460.365 200.932 460.388 200.478 460.434 199.94H460.414C460.336 200.256 460.266 200.482 460.204 200.619L457.812 206H457.411L455.023 200.658C454.955 200.502 454.885 200.263 454.813 199.94H454.794C454.82 200.22 454.833 200.678 454.833 201.312V206H454.042V198.998H455.126L457.274 203.881C457.44 204.255 457.548 204.535 457.597 204.721H457.626C457.766 204.337 457.878 204.05 457.963 203.861L460.155 198.998H461.181V206ZM463.847 203.354V206H463.026V198.998H464.95C465.699 198.998 466.278 199.18 466.688 199.545C467.102 199.91 467.309 200.424 467.309 201.088C467.309 201.752 467.079 202.296 466.62 202.719C466.164 203.142 465.548 203.354 464.77 203.354H463.847ZM463.847 199.74V202.611H464.706C465.272 202.611 465.704 202.483 466 202.226C466.299 201.965 466.449 201.599 466.449 201.127C466.449 200.202 465.902 199.74 464.809 199.74H463.847ZM471.454 206.117C470.461 206.117 469.665 205.79 469.066 205.136C468.471 204.481 468.173 203.63 468.173 202.582C468.173 201.456 468.477 200.557 469.086 199.887C469.695 199.216 470.523 198.881 471.571 198.881C472.538 198.881 473.316 199.206 473.905 199.857C474.498 200.508 474.794 201.36 474.794 202.411C474.794 203.554 474.491 204.457 473.886 205.121C473.28 205.785 472.47 206.117 471.454 206.117ZM471.513 199.623C470.777 199.623 470.18 199.888 469.721 200.419C469.262 200.95 469.032 201.646 469.032 202.509C469.032 203.371 469.255 204.066 469.701 204.594C470.15 205.118 470.735 205.38 471.454 205.38C472.222 205.38 472.828 205.129 473.271 204.628C473.713 204.127 473.935 203.425 473.935 202.523C473.935 201.599 473.72 200.884 473.29 200.38C472.86 199.875 472.268 199.623 471.513 199.623ZM481.815 206H480.81L477.206 200.419C477.115 200.279 477.04 200.132 476.981 199.979H476.952C476.978 200.129 476.991 200.45 476.991 200.941V206H476.171V198.998H477.235L480.741 204.491C480.888 204.719 480.982 204.875 481.024 204.96H481.044C481.011 204.758 480.995 204.415 480.995 203.93V198.998H481.815V206ZM487.362 206H483.651V198.998H487.206V199.74H484.472V202.069H487.001V202.807H484.472V205.258H487.362V206ZM494.354 206H493.349L489.745 200.419C489.654 200.279 489.579 200.132 489.521 199.979H489.491C489.517 200.129 489.53 200.45 489.53 200.941V206H488.71V198.998H489.774L493.28 204.491C493.427 204.719 493.521 204.875 493.563 204.96H493.583C493.55 204.758 493.534 204.415 493.534 203.93V198.998H494.354V206ZM500.331 199.74H498.31V206H497.489V199.74H495.473V198.998H500.331V199.74Z" fill="#0F6CBD"/>
</g>
<path d="M51.5 109C50.1193 109 49 110.119 49 111.5V112H63V111.5C63 110.119 61.8807 109 60.5 109H51.5ZM63 113H49V120.5C49 121.881 50.1193 123 51.5 123H60.5C61.8807 123 63 121.881 63 120.5V113ZM54 116C54 116.552 53.5523 117 53 117C52.4477 117 52 116.552 52 116C52 115.448 52.4477 115 53 115C53.5523 115 54 115.448 54 116ZM53 120C52.4477 120 52 119.552 52 119C52 118.448 52.4477 118 53 118C53.5523 118 54 118.448 54 119C54 119.552 53.5523 120 53 120ZM57 116C57 116.552 56.5523 117 56 117C55.4477 117 55 116.552 55 116C55 115.448 55.4477 115 56 115C56.5523 115 57 115.448 57 116ZM56 120C55.4477 120 55 119.552 55 119C55 118.448 55.4477 118 56 118C56.5523 118 57 118.448 57 119C57 119.552 56.5523 120 56 120ZM60 116C60 116.552 59.5523 117 59 117C58.4477 117 58 116.552 58 116C58 115.448 58.4477 115 59 115C59.5523 115 60 115.448 60 116Z" fill="#0F6CBD"/>
<path d="M81.499 113.578H78.6826V122H77.0557V113.578H74.2461V112.197H81.499V113.578ZM87.3164 118.931H82.5449C82.5632 119.578 82.7614 120.077 83.1396 120.428C83.5225 120.779 84.0465 120.954 84.7119 120.954C85.4593 120.954 86.1452 120.731 86.7695 120.284V121.562C86.1315 121.964 85.2884 122.164 84.2402 122.164C83.2103 122.164 82.4014 121.847 81.8135 121.214C81.2301 120.576 80.9385 119.68 80.9385 118.527C80.9385 117.438 81.2598 116.552 81.9023 115.868C82.5495 115.18 83.3516 114.836 84.3086 114.836C85.2656 114.836 86.0062 115.144 86.5303 115.759C87.0544 116.374 87.3164 117.229 87.3164 118.322V118.931ZM85.7852 117.81C85.7806 117.24 85.6462 116.798 85.3818 116.483C85.1175 116.164 84.7529 116.005 84.2881 116.005C83.8324 116.005 83.445 116.171 83.126 116.504C82.8115 116.837 82.6178 117.272 82.5449 117.81H85.7852ZM94.6787 115L92.3477 118.541L94.6514 122H92.8125L91.582 119.833C91.5046 119.701 91.4134 119.532 91.3086 119.327H91.2812C91.263 119.368 91.1673 119.537 90.9941 119.833L89.7432 122H87.9111L90.29 118.568L88.0342 115H89.8799L91.0898 117.276C91.181 117.445 91.2699 117.618 91.3564 117.796H91.377L92.9424 115H94.6787ZM99.5322 121.925C99.2223 122.08 98.8145 122.157 98.3086 122.157C96.9505 122.157 96.2715 121.506 96.2715 120.202V116.244H95.1025V115H96.2715V113.38L97.8574 112.929V115H99.5322V116.244H97.8574V119.744C97.8574 120.159 97.9326 120.455 98.083 120.633C98.2334 120.811 98.484 120.899 98.835 120.899C99.1038 120.899 99.3363 120.822 99.5322 120.667V121.925Z" fill="#242424"/>
<rect x="48" y="135" width="52" height="3" rx="1.5" fill="#0F6CBD"/>
<path d="M129 117C129.552 117 130 116.552 130 116C130 115.448 129.552 115 129 115C128.448 115 128 115.448 128 116C128 116.552 128.448 117 129 117ZM130 119C130 119.552 129.552 120 129 120C128.448 120 128 119.552 128 119C128 118.448 128.448 118 129 118C129.552 118 130 118.448 130 119ZM132 117C132.552 117 133 116.552 133 116C133 115.448 132.552 115 132 115C131.448 115 131 115.448 131 116C131 116.552 131.448 117 132 117ZM133 119C133 119.552 132.552 120 132 120C131.448 120 131 119.552 131 119C131 118.448 131.448 118 132 118C132.552 118 133 118.448 133 119ZM135 117C135.552 117 136 116.552 136 116C136 115.448 135.552 115 135 115C134.448 115 134 115.448 134 116C134 116.552 134.448 117 135 117ZM139 111.5C139 110.119 137.881 109 136.5 109H127.5C126.119 109 125 110.119 125 111.5V120.5C125 121.881 126.119 123 127.5 123H136.5C137.881 123 139 121.881 139 120.5V111.5ZM126 113H138V120.5C138 121.328 137.328 122 136.5 122H127.5C126.672 122 126 121.328 126 120.5V113ZM127.5 110H136.5C137.328 110 138 110.672 138 111.5V112H126V111.5C126 110.672 126.672 110 127.5 110Z" fill="#424242"/>
<path d="M157.082 113.236H154.252V122H153.104V113.236H150.28V112.197H157.082V113.236ZM162.653 118.78H157.711C157.729 119.56 157.939 120.161 158.34 120.585C158.741 121.009 159.292 121.221 159.994 121.221C160.783 121.221 161.507 120.961 162.168 120.441V121.494C161.553 121.941 160.739 122.164 159.728 122.164C158.739 122.164 157.962 121.847 157.396 121.214C156.831 120.576 156.549 119.68 156.549 118.527C156.549 117.438 156.856 116.552 157.472 115.868C158.091 115.18 158.859 114.836 159.775 114.836C160.691 114.836 161.4 115.132 161.901 115.725C162.403 116.317 162.653 117.14 162.653 118.192V118.78ZM161.505 117.83C161.5 117.183 161.343 116.679 161.033 116.319C160.728 115.959 160.302 115.779 159.755 115.779C159.226 115.779 158.777 115.968 158.408 116.347C158.039 116.725 157.811 117.219 157.725 117.83H161.505ZM169.469 115L167.117 118.541L169.428 122H168.122L166.748 119.73C166.661 119.589 166.559 119.411 166.44 119.197H166.413C166.39 119.238 166.283 119.416 166.092 119.73L164.69 122H163.398L165.784 118.568L163.501 115H164.807L166.16 117.393C166.26 117.57 166.358 117.753 166.454 117.939H166.481L168.231 115H169.469ZM174.028 121.932C173.764 122.077 173.415 122.15 172.982 122.15C171.757 122.15 171.144 121.467 171.144 120.1V115.957H169.94V115H171.144V113.291L172.265 112.929V115H174.028V115.957H172.265V119.901C172.265 120.371 172.344 120.706 172.504 120.906C172.663 121.107 172.928 121.207 173.297 121.207C173.579 121.207 173.823 121.13 174.028 120.975V121.932Z" fill="#424242"/>
<rect x="-612.5" y="158.5" width="799" height="35" rx="3.5" fill="#F5F5F5"/>
<rect x="-612.5" y="158.5" width="799" height="35" rx="3.5" stroke="#D1D1D1"/>
<path d="M3.5 168C3.5 166.067 5.067 164.5 7 164.5H65C66.933 164.5 68.5 166.067 68.5 168V184C68.5 185.933 66.933 187.5 65 187.5H7C5.067 187.5 3.5 185.933 3.5 184V168Z" fill="white"/>
<path d="M3.5 168C3.5 166.067 5.067 164.5 7 164.5H65C66.933 164.5 68.5 166.067 68.5 168V184C68.5 185.933 66.933 187.5 65 187.5H7C5.067 187.5 3.5 185.933 3.5 184V168Z" stroke="#D1D1D1"/>
<path d="M24.2627 181H22.4785L21.5967 178.505H17.7412L16.8936 181H15.1162L18.7871 171.197H20.6191L24.2627 181ZM21.166 177.179L19.8057 173.269C19.7646 173.141 19.7214 172.936 19.6758 172.653H19.6484C19.6074 172.913 19.5618 173.118 19.5117 173.269L18.165 177.179H21.166ZM30.4492 180.679C29.8887 181.002 29.2256 181.164 28.46 181.164C27.4209 181.164 26.5824 180.84 25.9443 180.193C25.3063 179.542 24.9873 178.699 24.9873 177.664C24.9873 176.511 25.3291 175.586 26.0127 174.889C26.7008 174.187 27.6191 173.836 28.7676 173.836C29.4056 173.836 29.9684 173.948 30.4561 174.171V175.647C29.9684 175.283 29.4489 175.101 28.8975 175.101C28.2275 175.101 27.6784 175.328 27.25 175.784C26.8216 176.235 26.6074 176.828 26.6074 177.562C26.6074 178.286 26.8079 178.858 27.209 179.277C27.6146 179.697 28.1569 179.906 28.8359 179.906C29.4056 179.906 29.9434 179.703 30.4492 179.298V180.679ZM35.7197 180.925C35.4098 181.08 35.002 181.157 34.4961 181.157C33.138 181.157 32.459 180.506 32.459 179.202V175.244H31.29V174H32.459V172.38L34.0449 171.929V174H35.7197V175.244H34.0449V178.744C34.0449 179.159 34.1201 179.455 34.2705 179.633C34.4209 179.811 34.6715 179.899 35.0225 179.899C35.2913 179.899 35.5238 179.822 35.7197 179.667V180.925ZM37.8867 172.53C37.627 172.53 37.4036 172.446 37.2168 172.277C37.0345 172.109 36.9434 171.895 36.9434 171.635C36.9434 171.375 37.0345 171.159 37.2168 170.985C37.4036 170.812 37.627 170.726 37.8867 170.726C38.1556 170.726 38.3835 170.812 38.5703 170.985C38.7572 171.159 38.8506 171.375 38.8506 171.635C38.8506 171.881 38.7572 172.093 38.5703 172.271C38.3835 172.444 38.1556 172.53 37.8867 172.53ZM38.6729 181H37.0869V174H38.6729V181ZM43.8545 181.164C42.7744 181.164 41.9108 180.838 41.2637 180.187C40.6211 179.53 40.2998 178.662 40.2998 177.582C40.2998 176.406 40.6348 175.488 41.3047 174.827C41.9792 174.166 42.8861 173.836 44.0254 173.836C45.1191 173.836 45.9714 174.157 46.582 174.8C47.1927 175.442 47.498 176.333 47.498 177.473C47.498 178.589 47.1676 179.485 46.5068 180.159C45.8506 180.829 44.9665 181.164 43.8545 181.164ZM43.9297 175.101C43.3099 175.101 42.82 175.317 42.46 175.75C42.0999 176.183 41.9199 176.78 41.9199 177.541C41.9199 178.275 42.1022 178.854 42.4668 179.277C42.8314 179.697 43.319 179.906 43.9297 179.906C44.554 179.906 45.0326 179.699 45.3652 179.284C45.7025 178.869 45.8711 178.279 45.8711 177.514C45.8711 176.743 45.7025 176.149 45.3652 175.729C45.0326 175.31 44.554 175.101 43.9297 175.101ZM55.3525 181H53.7666V177.056C53.7666 175.748 53.304 175.094 52.3789 175.094C51.8958 175.094 51.4971 175.276 51.1826 175.641C50.8682 176.001 50.7109 176.456 50.7109 177.008V181H49.1182V174H50.7109V175.162H50.7383C51.2624 174.278 52.0189 173.836 53.0078 173.836C53.7689 173.836 54.3499 174.084 54.751 174.581C55.152 175.073 55.3525 175.786 55.3525 176.721V181Z" fill="#242424"/>
<path d="M77.5 168C77.5 166.067 79.067 164.5 81 164.5H139C140.933 164.5 142.5 166.067 142.5 168V184C142.5 185.933 140.933 187.5 139 187.5H81C79.067 187.5 77.5 185.933 77.5 184V168Z" fill="white"/>
<path d="M77.5 168C77.5 166.067 79.067 164.5 81 164.5H139C140.933 164.5 142.5 166.067 142.5 168V184C142.5 185.933 140.933 187.5 139 187.5H81C79.067 187.5 77.5 185.933 77.5 184V168Z" stroke="#D1D1D1"/>
<path d="M98.2627 181H96.4785L95.5967 178.505H91.7412L90.8936 181H89.1162L92.7871 171.197H94.6191L98.2627 181ZM95.166 177.179L93.8057 173.269C93.7646 173.141 93.7214 172.936 93.6758 172.653H93.6484C93.6074 172.913 93.5618 173.118 93.5117 173.269L92.165 177.179H95.166ZM104.449 180.679C103.889 181.002 103.226 181.164 102.46 181.164C101.421 181.164 100.582 180.84 99.9443 180.193C99.3063 179.542 98.9873 178.699 98.9873 177.664C98.9873 176.511 99.3291 175.586 100.013 174.889C100.701 174.187 101.619 173.836 102.768 173.836C103.406 173.836 103.968 173.948 104.456 174.171V175.647C103.968 175.283 103.449 175.101 102.897 175.101C102.228 175.101 101.678 175.328 101.25 175.784C100.822 176.235 100.607 176.828 100.607 177.562C100.607 178.286 100.808 178.858 101.209 179.277C101.615 179.697 102.157 179.906 102.836 179.906C103.406 179.906 103.943 179.703 104.449 179.298V180.679ZM109.72 180.925C109.41 181.08 109.002 181.157 108.496 181.157C107.138 181.157 106.459 180.506 106.459 179.202V175.244H105.29V174H106.459V172.38L108.045 171.929V174H109.72V175.244H108.045V178.744C108.045 179.159 108.12 179.455 108.271 179.633C108.421 179.811 108.672 179.899 109.022 179.899C109.291 179.899 109.524 179.822 109.72 179.667V180.925ZM111.887 172.53C111.627 172.53 111.404 172.446 111.217 172.277C111.035 172.109 110.943 171.895 110.943 171.635C110.943 171.375 111.035 171.159 111.217 170.985C111.404 170.812 111.627 170.726 111.887 170.726C112.156 170.726 112.383 170.812 112.57 170.985C112.757 171.159 112.851 171.375 112.851 171.635C112.851 171.881 112.757 172.093 112.57 172.271C112.383 172.444 112.156 172.53 111.887 172.53ZM112.673 181H111.087V174H112.673V181ZM117.854 181.164C116.774 181.164 115.911 180.838 115.264 180.187C114.621 179.53 114.3 178.662 114.3 177.582C114.3 176.406 114.635 175.488 115.305 174.827C115.979 174.166 116.886 173.836 118.025 173.836C119.119 173.836 119.971 174.157 120.582 174.8C121.193 175.442 121.498 176.333 121.498 177.473C121.498 178.589 121.168 179.485 120.507 180.159C119.851 180.829 118.966 181.164 117.854 181.164ZM117.93 175.101C117.31 175.101 116.82 175.317 116.46 175.75C116.1 176.183 115.92 176.78 115.92 177.541C115.92 178.275 116.102 178.854 116.467 179.277C116.831 179.697 117.319 179.906 117.93 179.906C118.554 179.906 119.033 179.699 119.365 179.284C119.702 178.869 119.871 178.279 119.871 177.514C119.871 176.743 119.702 176.149 119.365 175.729C119.033 175.31 118.554 175.101 117.93 175.101ZM129.353 181H127.767V177.056C127.767 175.748 127.304 175.094 126.379 175.094C125.896 175.094 125.497 175.276 125.183 175.641C124.868 176.001 124.711 176.456 124.711 177.008V181H123.118V174H124.711V175.162H124.738C125.262 174.278 126.019 173.836 127.008 173.836C127.769 173.836 128.35 174.084 128.751 174.581C129.152 175.073 129.353 175.786 129.353 176.721V181Z" fill="#242424"/>
<path d="M157.089 170.216L157.146 170.146C157.32 169.973 157.589 169.954 157.784 170.089L157.854 170.146L163 175.293L168.146 170.146C168.32 169.973 168.589 169.954 168.784 170.089L168.854 170.146C169.027 170.32 169.046 170.589 168.911 170.784L168.854 170.854L163.707 176L168.854 181.146C169.027 181.32 169.046 181.589 168.911 181.784L168.854 181.854C168.68 182.027 168.411 182.046 168.216 181.911L168.146 181.854L163 176.707L157.854 181.854C157.68 182.027 157.411 182.046 157.216 181.911L157.146 181.854C156.973 181.68 156.954 181.411 157.089 181.216L157.146 181.146L162.293 176L157.146 170.854C156.973 170.68 156.954 170.411 157.089 170.216L157.146 170.146L157.089 170.216Z" fill="#424242"/>
<rect x="580" y="45" width="240" height="32" rx="4" fill="#F5F5F5"/>
<path d="M592.434 63.2949V67H591.285V57.1973H593.979C595.027 57.1973 595.838 57.4525 596.412 57.9629C596.991 58.4733 597.28 59.1934 597.28 60.123C597.28 61.0527 596.959 61.8138 596.316 62.4062C595.678 62.9987 594.815 63.2949 593.726 63.2949H592.434ZM592.434 58.2363V62.2559H593.637C594.43 62.2559 595.034 62.0758 595.448 61.7158C595.868 61.3512 596.077 60.8385 596.077 60.1777C596.077 58.8835 595.312 58.2363 593.78 58.2363H592.434ZM600.104 67H598.982V56.6367H600.104V67ZM607.384 67H606.263V65.9062H606.235C605.748 66.7448 605.03 67.1641 604.082 67.1641C603.385 67.1641 602.838 66.9795 602.441 66.6104C602.049 66.2412 601.854 65.7513 601.854 65.1406C601.854 63.8327 602.624 63.0716 604.164 62.8574L606.263 62.5635C606.263 61.374 605.782 60.7793 604.82 60.7793C603.977 60.7793 603.216 61.0664 602.537 61.6406V60.4922C603.225 60.0547 604.018 59.8359 604.916 59.8359C606.561 59.8359 607.384 60.7064 607.384 62.4473V67ZM606.263 63.459L604.574 63.6914C604.055 63.7643 603.663 63.8942 603.398 64.0811C603.134 64.2633 603.002 64.5892 603.002 65.0586C603.002 65.4004 603.123 65.6807 603.364 65.8994C603.61 66.1136 603.936 66.2207 604.342 66.2207C604.898 66.2207 605.356 66.027 605.716 65.6396C606.08 65.2477 606.263 64.7533 606.263 64.1562V63.459ZM614.268 66.6787C613.73 67.0023 613.092 67.1641 612.354 67.1641C611.355 67.1641 610.549 66.8405 609.934 66.1934C609.323 65.5417 609.018 64.6986 609.018 63.6641C609.018 62.5111 609.348 61.5859 610.009 60.8887C610.67 60.1868 611.551 59.8359 612.654 59.8359C613.27 59.8359 613.812 59.9499 614.281 60.1777V61.3262C613.762 60.9616 613.206 60.7793 612.613 60.7793C611.898 60.7793 611.31 61.0368 610.85 61.5518C610.394 62.0622 610.166 62.7344 610.166 63.5684C610.166 64.3887 610.38 65.0358 610.809 65.5098C611.242 65.9837 611.82 66.2207 612.545 66.2207C613.156 66.2207 613.73 66.0179 614.268 65.6123V66.6787ZM621.589 63.7803H616.646C616.665 64.5596 616.874 65.1611 617.275 65.585C617.676 66.0088 618.228 66.2207 618.93 66.2207C619.718 66.2207 620.443 65.9609 621.104 65.4414V66.4941C620.488 66.9408 619.675 67.1641 618.663 67.1641C617.674 67.1641 616.897 66.8473 616.332 66.2139C615.767 65.5758 615.484 64.6803 615.484 63.5273C615.484 62.4382 615.792 61.5518 616.407 60.8682C617.027 60.18 617.795 59.8359 618.711 59.8359C619.627 59.8359 620.336 60.1322 620.837 60.7246C621.338 61.3171 621.589 62.1396 621.589 63.1924V63.7803ZM620.44 62.8301C620.436 62.1829 620.279 61.6794 619.969 61.3193C619.663 60.9593 619.237 60.7793 618.69 60.7793C618.162 60.7793 617.713 60.9684 617.344 61.3467C616.975 61.7249 616.747 62.2194 616.66 62.8301H620.44ZM629.102 67H627.98V62.9668C627.98 61.5085 627.438 60.7793 626.354 60.7793C625.807 60.7793 625.346 60.9912 624.973 61.415C624.599 61.8343 624.412 62.3743 624.412 63.0352V67H623.291V56.6367H624.412V61.1621H624.439C624.977 60.278 625.743 59.8359 626.736 59.8359C628.313 59.8359 629.102 60.7861 629.102 62.6865V67ZM634.146 67.1641C633.112 67.1641 632.285 66.8382 631.665 66.1865C631.05 65.5303 630.742 64.6621 630.742 63.582C630.742 62.4062 631.063 61.488 631.706 60.8271C632.349 60.1663 633.217 59.8359 634.311 59.8359C635.354 59.8359 636.168 60.1572 636.751 60.7998C637.339 61.4424 637.633 62.3333 637.633 63.4727C637.633 64.5892 637.316 65.4847 636.683 66.1592C636.054 66.8291 635.208 67.1641 634.146 67.1641ZM634.229 60.7793C633.508 60.7793 632.939 61.0254 632.52 61.5176C632.1 62.0052 631.891 62.6797 631.891 63.541C631.891 64.3704 632.103 65.0244 632.526 65.5029C632.95 65.9814 633.518 66.2207 634.229 66.2207C634.953 66.2207 635.509 65.986 635.896 65.5166C636.288 65.0472 636.484 64.3796 636.484 63.5137C636.484 62.6387 636.288 61.9642 635.896 61.4902C635.509 61.0163 634.953 60.7793 634.229 60.7793ZM640.545 67H639.424V56.6367H640.545V67ZM648.789 67H647.668V65.8105H647.641C647.121 66.7129 646.319 67.1641 645.234 67.1641C644.355 67.1641 643.651 66.8519 643.122 66.2275C642.598 65.5986 642.336 64.7441 642.336 63.6641C642.336 62.5065 642.628 61.5791 643.211 60.8818C643.794 60.1846 644.571 59.8359 645.542 59.8359C646.504 59.8359 647.203 60.2142 647.641 60.9707H647.668V56.6367H648.789V67ZM647.668 63.835V62.8027C647.668 62.2376 647.481 61.7591 647.107 61.3672C646.734 60.9753 646.26 60.7793 645.686 60.7793C645.002 60.7793 644.464 61.0299 644.072 61.5312C643.68 62.0326 643.484 62.7253 643.484 63.6094C643.484 64.416 643.671 65.054 644.045 65.5234C644.423 65.9883 644.929 66.2207 645.562 66.2207C646.187 66.2207 646.693 65.9951 647.08 65.5439C647.472 65.0928 647.668 64.5231 647.668 63.835ZM656.685 63.7803H651.742C651.76 64.5596 651.97 65.1611 652.371 65.585C652.772 66.0088 653.324 66.2207 654.025 66.2207C654.814 66.2207 655.538 65.9609 656.199 65.4414V66.4941C655.584 66.9408 654.771 67.1641 653.759 67.1641C652.77 67.1641 651.993 66.8473 651.428 66.2139C650.863 65.5758 650.58 64.6803 650.58 63.5273C650.58 62.4382 650.888 61.5518 651.503 60.8682C652.123 60.18 652.891 59.8359 653.807 59.8359C654.723 59.8359 655.431 60.1322 655.933 60.7246C656.434 61.3171 656.685 62.1396 656.685 63.1924V63.7803ZM655.536 62.8301C655.532 62.1829 655.374 61.6794 655.064 61.3193C654.759 60.9593 654.333 60.7793 653.786 60.7793C653.257 60.7793 652.809 60.9684 652.439 61.3467C652.07 61.7249 651.842 62.2194 651.756 62.8301H655.536ZM662.037 61.1348C661.841 60.9844 661.559 60.9092 661.189 60.9092C660.711 60.9092 660.31 61.1348 659.986 61.5859C659.667 62.0371 659.508 62.6523 659.508 63.4316V67H658.387V60H659.508V61.4424H659.535C659.695 60.9502 659.938 60.5674 660.267 60.2939C660.595 60.016 660.962 59.877 661.367 59.877C661.659 59.877 661.882 59.9089 662.037 59.9727V61.1348Z" fill="#616161"/>
<rect x="255" y="19" width="305" height="2" rx="1" fill="#E6E6E6"/>
<rect x="255" y="19" width="205" height="2" rx="1" fill="#0F6CBD"/>
<g clip-path="url(#clip1_4196_27282)">
<rect x="184.5" y="45.5" width="279" height="31" rx="3.5" fill="white"/>
<rect x="184.5" y="45.5" width="279" height="31" rx="3.5" stroke="#D1D1D1"/>
<path d="M198.434 62.2949V66H197.285V56.1973H199.979C201.027 56.1973 201.838 56.4525 202.412 56.9629C202.991 57.4733 203.28 58.1934 203.28 59.123C203.28 60.0527 202.959 60.8138 202.316 61.4062C201.678 61.9987 200.815 62.2949 199.726 62.2949H198.434ZM198.434 57.2363V61.2559H199.637C200.43 61.2559 201.034 61.0758 201.448 60.7158C201.868 60.3512 202.077 59.8385 202.077 59.1777C202.077 57.8835 201.312 57.2363 199.78 57.2363H198.434ZM206.104 66H204.982V55.6367H206.104V66ZM213.384 66H212.263V64.9062H212.235C211.748 65.7448 211.03 66.1641 210.082 66.1641C209.385 66.1641 208.838 65.9795 208.441 65.6104C208.049 65.2412 207.854 64.7513 207.854 64.1406C207.854 62.8327 208.624 62.0716 210.164 61.8574L212.263 61.5635C212.263 60.374 211.782 59.7793 210.82 59.7793C209.977 59.7793 209.216 60.0664 208.537 60.6406V59.4922C209.225 59.0547 210.018 58.8359 210.916 58.8359C212.561 58.8359 213.384 59.7064 213.384 61.4473V66ZM212.263 62.459L210.574 62.6914C210.055 62.7643 209.663 62.8942 209.398 63.0811C209.134 63.2633 209.002 63.5892 209.002 64.0586C209.002 64.4004 209.123 64.6807 209.364 64.8994C209.61 65.1136 209.936 65.2207 210.342 65.2207C210.898 65.2207 211.356 65.027 211.716 64.6396C212.08 64.2477 212.263 63.7533 212.263 63.1562V62.459ZM220.268 65.6787C219.73 66.0023 219.092 66.1641 218.354 66.1641C217.355 66.1641 216.549 65.8405 215.934 65.1934C215.323 64.5417 215.018 63.6986 215.018 62.6641C215.018 61.5111 215.348 60.5859 216.009 59.8887C216.67 59.1868 217.551 58.8359 218.654 58.8359C219.27 58.8359 219.812 58.9499 220.281 59.1777V60.3262C219.762 59.9616 219.206 59.7793 218.613 59.7793C217.898 59.7793 217.31 60.0368 216.85 60.5518C216.394 61.0622 216.166 61.7344 216.166 62.5684C216.166 63.3887 216.38 64.0358 216.809 64.5098C217.242 64.9837 217.82 65.2207 218.545 65.2207C219.156 65.2207 219.73 65.0179 220.268 64.6123V65.6787ZM227.589 62.7803H222.646C222.665 63.5596 222.874 64.1611 223.275 64.585C223.676 65.0088 224.228 65.2207 224.93 65.2207C225.718 65.2207 226.443 64.9609 227.104 64.4414V65.4941C226.488 65.9408 225.675 66.1641 224.663 66.1641C223.674 66.1641 222.897 65.8473 222.332 65.2139C221.767 64.5758 221.484 63.6803 221.484 62.5273C221.484 61.4382 221.792 60.5518 222.407 59.8682C223.027 59.18 223.795 58.8359 224.711 58.8359C225.627 58.8359 226.336 59.1322 226.837 59.7246C227.338 60.3171 227.589 61.1396 227.589 62.1924V62.7803ZM226.44 61.8301C226.436 61.1829 226.279 60.6794 225.969 60.3193C225.663 59.9593 225.237 59.7793 224.69 59.7793C224.162 59.7793 223.713 59.9684 223.344 60.3467C222.975 60.7249 222.747 61.2194 222.66 61.8301H226.44ZM235.102 66H233.98V61.9668C233.98 60.5085 233.438 59.7793 232.354 59.7793C231.807 59.7793 231.346 59.9912 230.973 60.415C230.599 60.8343 230.412 61.3743 230.412 62.0352V66H229.291V55.6367H230.412V60.1621H230.439C230.977 59.278 231.743 58.8359 232.736 58.8359C234.313 58.8359 235.102 59.7861 235.102 61.6865V66ZM240.146 66.1641C239.112 66.1641 238.285 65.8382 237.665 65.1865C237.05 64.5303 236.742 63.6621 236.742 62.582C236.742 61.4062 237.063 60.488 237.706 59.8271C238.349 59.1663 239.217 58.8359 240.311 58.8359C241.354 58.8359 242.168 59.1572 242.751 59.7998C243.339 60.4424 243.633 61.3333 243.633 62.4727C243.633 63.5892 243.316 64.4847 242.683 65.1592C242.054 65.8291 241.208 66.1641 240.146 66.1641ZM240.229 59.7793C239.508 59.7793 238.939 60.0254 238.52 60.5176C238.1 61.0052 237.891 61.6797 237.891 62.541C237.891 63.3704 238.103 64.0244 238.526 64.5029C238.95 64.9814 239.518 65.2207 240.229 65.2207C240.953 65.2207 241.509 64.986 241.896 64.5166C242.288 64.0472 242.484 63.3796 242.484 62.5137C242.484 61.6387 242.288 60.9642 241.896 60.4902C241.509 60.0163 240.953 59.7793 240.229 59.7793ZM246.545 66H245.424V55.6367H246.545V66ZM254.789 66H253.668V64.8105H253.641C253.121 65.7129 252.319 66.1641 251.234 66.1641C250.355 66.1641 249.651 65.8519 249.122 65.2275C248.598 64.5986 248.336 63.7441 248.336 62.6641C248.336 61.5065 248.628 60.5791 249.211 59.8818C249.794 59.1846 250.571 58.8359 251.542 58.8359C252.504 58.8359 253.203 59.2142 253.641 59.9707H253.668V55.6367H254.789V66ZM253.668 62.835V61.8027C253.668 61.2376 253.481 60.7591 253.107 60.3672C252.734 59.9753 252.26 59.7793 251.686 59.7793C251.002 59.7793 250.464 60.0299 250.072 60.5312C249.68 61.0326 249.484 61.7253 249.484 62.6094C249.484 63.416 249.671 64.054 250.045 64.5234C250.423 64.9883 250.929 65.2207 251.562 65.2207C252.187 65.2207 252.693 64.9951 253.08 64.5439C253.472 64.0928 253.668 63.5231 253.668 62.835ZM262.685 62.7803H257.742C257.76 63.5596 257.97 64.1611 258.371 64.585C258.772 65.0088 259.324 65.2207 260.025 65.2207C260.814 65.2207 261.538 64.9609 262.199 64.4414V65.4941C261.584 65.9408 260.771 66.1641 259.759 66.1641C258.77 66.1641 257.993 65.8473 257.428 65.2139C256.863 64.5758 256.58 63.6803 256.58 62.5273C256.58 61.4382 256.888 60.5518 257.503 59.8682C258.123 59.18 258.891 58.8359 259.807 58.8359C260.723 58.8359 261.431 59.1322 261.933 59.7246C262.434 60.3171 262.685 61.1396 262.685 62.1924V62.7803ZM261.536 61.8301C261.532 61.1829 261.374 60.6794 261.064 60.3193C260.759 59.9593 260.333 59.7793 259.786 59.7793C259.257 59.7793 258.809 59.9684 258.439 60.3467C258.07 60.7249 257.842 61.2194 257.756 61.8301H261.536ZM268.037 60.1348C267.841 59.9844 267.559 59.9092 267.189 59.9092C266.711 59.9092 266.31 60.1348 265.986 60.5859C265.667 61.0371 265.508 61.6523 265.508 62.4316V66H264.387V59H265.508V60.4424H265.535C265.695 59.9502 265.938 59.5674 266.267 59.2939C266.595 59.016 266.962 58.877 267.367 58.877C267.659 58.877 267.882 58.9089 268.037 58.9727V60.1348ZM276.343 65.9316C276.078 66.0775 275.73 66.1504 275.297 66.1504C274.071 66.1504 273.458 65.4668 273.458 64.0996V59.957H272.255V59H273.458V57.291L274.579 56.9287V59H276.343V59.957H274.579V63.9014C274.579 64.3708 274.659 64.7057 274.818 64.9062C274.978 65.1068 275.242 65.207 275.611 65.207C275.894 65.207 276.138 65.1296 276.343 64.9746V65.9316ZM283.356 62.7803H278.414C278.432 63.5596 278.642 64.1611 279.043 64.585C279.444 65.0088 279.995 65.2207 280.697 65.2207C281.486 65.2207 282.21 64.9609 282.871 64.4414V65.4941C282.256 65.9408 281.442 66.1641 280.431 66.1641C279.442 66.1641 278.665 65.8473 278.1 65.2139C277.535 64.5758 277.252 63.6803 277.252 62.5273C277.252 61.4382 277.56 60.5518 278.175 59.8682C278.795 59.18 279.562 58.8359 280.479 58.8359C281.395 58.8359 282.103 59.1322 282.604 59.7246C283.106 60.3171 283.356 61.1396 283.356 62.1924V62.7803ZM282.208 61.8301C282.203 61.1829 282.046 60.6794 281.736 60.3193C281.431 59.9593 281.005 59.7793 280.458 59.7793C279.929 59.7793 279.48 59.9684 279.111 60.3467C278.742 60.7249 278.514 61.2194 278.428 61.8301H282.208ZM290.172 59L287.82 62.541L290.131 66H288.825L287.451 63.7305C287.365 63.5892 287.262 63.4115 287.144 63.1973H287.116C287.093 63.2383 286.986 63.416 286.795 63.7305L285.394 66H284.102L286.487 62.5684L284.204 59H285.51L286.863 61.3926C286.964 61.5703 287.062 61.7526 287.157 61.9395H287.185L288.935 59H290.172ZM294.731 65.9316C294.467 66.0775 294.118 66.1504 293.686 66.1504C292.46 66.1504 291.847 65.4668 291.847 64.0996V59.957H290.644V59H291.847V57.291L292.968 56.9287V59H294.731V59.957H292.968V63.9014C292.968 64.3708 293.048 64.7057 293.207 64.9062C293.367 65.1068 293.631 65.207 294 65.207C294.283 65.207 294.526 65.1296 294.731 64.9746V65.9316Z" fill="#707070"/>
<path d="M184 76H464V77H184V76Z" fill="#616161"/>
</g>
<rect x="580" y="18" width="147" height="4" rx="2" fill="#616161"/>
<path d="M580 20C580 21.1046 580.895 22 582 22L666 22V18L582 18C580.895 18 580 18.8954 580 20V20Z" fill="#0F6CBD"/>
<rect width="1" height="4" transform="matrix(-1 0 0 1 614.005 18)" fill="white"/>
<rect width="1" height="4" transform="matrix(-1 0 0 1 655 18)" fill="white"/>
<rect width="1" height="4" transform="matrix(-1 0 0 1 695.995 18)" fill="white"/>
<rect x="665.5" y="10.5" width="19" height="19" rx="9.5" fill="white"/>
<rect x="665.5" y="10.5" width="19" height="19" rx="9.5" stroke="#D1D1D1"/>
<rect x="669" y="14" width="12" height="12" rx="6" fill="#0F6CBD"/>
<rect x="215.5" y="166.5" width="39" height="19" rx="9.5" stroke="#616161"/>
<circle cx="225" cy="176" r="7" fill="#616161"/>
<rect x="91.5" y="53.5" width="15" height="15" rx="1.5" stroke="#616161"/>
<path d="M125.371 66H120.285V56.1973H121.434V64.9609H125.371V66ZM131.735 66H130.614V64.9062H130.587C130.099 65.7448 129.382 66.1641 128.434 66.1641C127.736 66.1641 127.189 65.9795 126.793 65.6104C126.401 65.2412 126.205 64.7513 126.205 64.1406C126.205 62.8327 126.975 62.0716 128.516 61.8574L130.614 61.5635C130.614 60.374 130.133 59.7793 129.172 59.7793C128.329 59.7793 127.568 60.0664 126.889 60.6406V59.4922C127.577 59.0547 128.37 58.8359 129.268 58.8359C130.913 58.8359 131.735 59.7064 131.735 61.4473V66ZM130.614 62.459L128.926 62.6914C128.406 62.7643 128.014 62.8942 127.75 63.0811C127.486 63.2633 127.354 63.5892 127.354 64.0586C127.354 64.4004 127.474 64.6807 127.716 64.8994C127.962 65.1136 128.288 65.2207 128.693 65.2207C129.249 65.2207 129.707 65.027 130.067 64.6396C130.432 64.2477 130.614 63.7533 130.614 63.1562V62.459ZM134.996 64.9883H134.969V66H133.848V55.6367H134.969V60.2305H134.996C135.548 59.3008 136.354 58.8359 137.416 58.8359C138.314 58.8359 139.016 59.1504 139.521 59.7793C140.032 60.4036 140.287 61.2422 140.287 62.2949C140.287 63.4661 140.002 64.4049 139.433 65.1113C138.863 65.8132 138.084 66.1641 137.095 66.1641C136.17 66.1641 135.47 65.7721 134.996 64.9883ZM134.969 62.165V63.1426C134.969 63.7214 135.156 64.2135 135.529 64.6191C135.908 65.0202 136.386 65.2207 136.965 65.2207C137.644 65.2207 138.175 64.9609 138.558 64.4414C138.945 63.9219 139.139 63.1995 139.139 62.2744C139.139 61.4951 138.959 60.8844 138.599 60.4424C138.239 60.0003 137.751 59.7793 137.136 59.7793C136.484 59.7793 135.96 60.0072 135.563 60.4629C135.167 60.9141 134.969 61.4814 134.969 62.165ZM147.704 62.7803H142.762C142.78 63.5596 142.99 64.1611 143.391 64.585C143.792 65.0088 144.343 65.2207 145.045 65.2207C145.833 65.2207 146.558 64.9609 147.219 64.4414V65.4941C146.604 65.9408 145.79 66.1641 144.778 66.1641C143.789 66.1641 143.012 65.8473 142.447 65.2139C141.882 64.5758 141.6 63.6803 141.6 62.5273C141.6 61.4382 141.907 60.5518 142.522 59.8682C143.142 59.18 143.91 58.8359 144.826 58.8359C145.742 58.8359 146.451 59.1322 146.952 59.7246C147.453 60.3171 147.704 61.1396 147.704 62.1924V62.7803ZM146.556 61.8301C146.551 61.1829 146.394 60.6794 146.084 60.3193C145.779 59.9593 145.353 59.7793 144.806 59.7793C144.277 59.7793 143.828 59.9684 143.459 60.3467C143.09 60.7249 142.862 61.2194 142.775 61.8301H146.556ZM150.527 66H149.406V55.6367H150.527V66Z" fill="#616161"/>
<circle cx="2" cy="61" r="7.5" stroke="#616161"/>
<path d="M28.3711 66H23.2852V56.1973H24.4336V64.9609H28.3711V66ZM34.7354 66H33.6143V64.9062H33.5869C33.0993 65.7448 32.3815 66.1641 31.4336 66.1641C30.7363 66.1641 30.1895 65.9795 29.793 65.6104C29.401 65.2412 29.2051 64.7513 29.2051 64.1406C29.2051 62.8327 29.9753 62.0716 31.5156 61.8574L33.6143 61.5635C33.6143 60.374 33.1335 59.7793 32.1719 59.7793C31.3288 59.7793 30.5677 60.0664 29.8887 60.6406V59.4922C30.5768 59.0547 31.3698 58.8359 32.2676 58.8359C33.9128 58.8359 34.7354 59.7064 34.7354 61.4473V66ZM33.6143 62.459L31.9258 62.6914C31.4062 62.7643 31.0143 62.8942 30.75 63.0811C30.4857 63.2633 30.3535 63.5892 30.3535 64.0586C30.3535 64.4004 30.4743 64.6807 30.7158 64.8994C30.9619 65.1136 31.2878 65.2207 31.6934 65.2207C32.2493 65.2207 32.7074 65.027 33.0674 64.6396C33.432 64.2477 33.6143 63.7533 33.6143 63.1562V62.459ZM37.9961 64.9883H37.9688V66H36.8477V55.6367H37.9688V60.2305H37.9961C38.5475 59.3008 39.3542 58.8359 40.416 58.8359C41.3138 58.8359 42.0156 59.1504 42.5215 59.7793C43.0319 60.4036 43.2871 61.2422 43.2871 62.2949C43.2871 63.4661 43.0023 64.4049 42.4326 65.1113C41.863 65.8132 41.0837 66.1641 40.0947 66.1641C39.1696 66.1641 38.4701 65.7721 37.9961 64.9883ZM37.9688 62.165V63.1426C37.9688 63.7214 38.1556 64.2135 38.5293 64.6191C38.9076 65.0202 39.3861 65.2207 39.9648 65.2207C40.6439 65.2207 41.1748 64.9609 41.5576 64.4414C41.945 63.9219 42.1387 63.1995 42.1387 62.2744C42.1387 61.4951 41.9587 60.8844 41.5986 60.4424C41.2386 60.0003 40.751 59.7793 40.1357 59.7793C39.484 59.7793 38.96 60.0072 38.5635 60.4629C38.167 60.9141 37.9688 61.4814 37.9688 62.165ZM50.7041 62.7803H45.7617C45.7799 63.5596 45.9896 64.1611 46.3906 64.585C46.7917 65.0088 47.3431 65.2207 48.0449 65.2207C48.8333 65.2207 49.5579 64.9609 50.2188 64.4414V65.4941C49.6035 65.9408 48.79 66.1641 47.7783 66.1641C46.7894 66.1641 46.0124 65.8473 45.4473 65.2139C44.8822 64.5758 44.5996 63.6803 44.5996 62.5273C44.5996 61.4382 44.9072 60.5518 45.5225 59.8682C46.1423 59.18 46.9102 58.8359 47.8262 58.8359C48.7422 58.8359 49.4508 59.1322 49.9521 59.7246C50.4535 60.3171 50.7041 61.1396 50.7041 62.1924V62.7803ZM49.5557 61.8301C49.5511 61.1829 49.3939 60.6794 49.084 60.3193C48.7786 59.9593 48.3525 59.7793 47.8057 59.7793C47.277 59.7793 46.8281 59.9684 46.459 60.3467C46.0898 60.7249 45.862 61.2194 45.7754 61.8301H49.5557ZM53.5273 66H52.4062V55.6367H53.5273V66Z" fill="#616161"/>
<g filter="url(#filter1_dd_4196_27282)">
<path d="M-5 -15C-5 -17.2091 -3.20914 -19 -1 -19H231C233.209 -19 235 -17.2091 235 -15V21C235 23.2091 233.209 25 231 25H-1C-3.20914 25 -5 23.2091 -5 21V-15Z" fill="white"/>
<path d="M16.668 -1H15.6895V-6.63672C15.6895 -7.08203 15.7168 -7.62695 15.7715 -8.27148H15.748C15.6543 -7.89258 15.5703 -7.62109 15.4961 -7.45703L12.625 -1H12.1445L9.2793 -7.41016C9.19727 -7.59766 9.11328 -7.88477 9.02734 -8.27148H9.00391C9.03516 -7.93555 9.05078 -7.38672 9.05078 -6.625V-1H8.10156V-9.40234H9.40234L11.9805 -3.54297C12.1797 -3.09375 12.3086 -2.75781 12.3672 -2.53516H12.4023C12.5703 -2.99609 12.7051 -3.33984 12.8066 -3.56641L15.4375 -9.40234H16.668V-1ZM23.0488 -1H22.0879V-1.9375H22.0645C21.6465 -1.21875 21.0312 -0.859375 20.2188 -0.859375C19.6211 -0.859375 19.1523 -1.01758 18.8125 -1.33398C18.4766 -1.65039 18.3086 -2.07031 18.3086 -2.59375C18.3086 -3.71484 18.9688 -4.36719 20.2891 -4.55078L22.0879 -4.80273C22.0879 -5.82227 21.6758 -6.33203 20.8516 -6.33203C20.1289 -6.33203 19.4766 -6.08594 18.8945 -5.59375V-6.57812C19.4844 -6.95312 20.1641 -7.14062 20.9336 -7.14062C22.3438 -7.14062 23.0488 -6.39453 23.0488 -4.90234V-1ZM22.0879 -4.03516L20.6406 -3.83594C20.1953 -3.77344 19.8594 -3.66211 19.6328 -3.50195C19.4062 -3.3457 19.293 -3.06641 19.293 -2.66406C19.293 -2.37109 19.3965 -2.13086 19.6035 -1.94336C19.8145 -1.75977 20.0938 -1.66797 20.4414 -1.66797C20.918 -1.66797 21.3105 -1.83398 21.6191 -2.16602C21.9316 -2.50195 22.0879 -2.92578 22.0879 -3.4375V-4.03516ZM29.2422 -7L27.2266 -3.96484L29.207 -1H28.0879L26.9102 -2.94531C26.8359 -3.06641 26.748 -3.21875 26.6465 -3.40234H26.623C26.6035 -3.36719 26.5117 -3.21484 26.3477 -2.94531L25.1465 -1H24.0391L26.084 -3.94141L24.127 -7H25.2461L26.4062 -4.94922C26.4922 -4.79688 26.5762 -4.64062 26.6582 -4.48047H26.6816L28.1816 -7H29.2422ZM41.2188 -7L39.4199 -1H38.4238L37.1875 -5.29492C37.1406 -5.45898 37.1094 -5.64453 37.0938 -5.85156H37.0703C37.0586 -5.71094 37.0176 -5.5293 36.9473 -5.30664L35.6055 -1H34.6445L32.8281 -7H33.8359L35.0781 -2.48828C35.1172 -2.35156 35.1445 -2.17188 35.1602 -1.94922H35.207C35.2188 -2.12109 35.2539 -2.30469 35.3125 -2.5L36.6953 -7H37.5742L38.8164 -2.47656C38.8555 -2.33203 38.8848 -2.15234 38.9043 -1.9375H38.9512C38.959 -2.08984 38.9922 -2.26953 39.0508 -2.47656L40.2695 -7H41.2188ZM42.8242 -8.52344C42.6523 -8.52344 42.5059 -8.58203 42.3848 -8.69922C42.2637 -8.81641 42.2031 -8.96484 42.2031 -9.14453C42.2031 -9.32422 42.2637 -9.47266 42.3848 -9.58984C42.5059 -9.71094 42.6523 -9.77148 42.8242 -9.77148C43 -9.77148 43.1484 -9.71094 43.2695 -9.58984C43.3945 -9.47266 43.457 -9.32422 43.457 -9.14453C43.457 -8.97266 43.3945 -8.82617 43.2695 -8.70508C43.1484 -8.58398 43 -8.52344 42.8242 -8.52344ZM43.293 -1H42.332V-7H43.293V-1ZM50.3594 -1H49.3984V-2.01953H49.375C48.9297 -1.24609 48.2422 -0.859375 47.3125 -0.859375C46.5586 -0.859375 45.9551 -1.12695 45.502 -1.66211C45.0527 -2.20117 44.8281 -2.93359 44.8281 -3.85938C44.8281 -4.85156 45.0781 -5.64648 45.5781 -6.24414C46.0781 -6.8418 46.7441 -7.14062 47.5762 -7.14062C48.4004 -7.14062 49 -6.81641 49.375 -6.16797H49.3984V-9.88281H50.3594V-1ZM49.3984 -3.71289V-4.59766C49.3984 -5.08203 49.2383 -5.49219 48.918 -5.82812C48.5977 -6.16406 48.1914 -6.33203 47.6992 -6.33203C47.1133 -6.33203 46.6523 -6.11719 46.3164 -5.6875C45.9805 -5.25781 45.8125 -4.66406 45.8125 -3.90625C45.8125 -3.21484 45.9727 -2.66797 46.293 -2.26562C46.6172 -1.86719 47.0508 -1.66797 47.5938 -1.66797C48.1289 -1.66797 48.5625 -1.86133 48.8945 -2.24805C49.2305 -2.63477 49.3984 -3.12305 49.3984 -3.71289ZM55.0879 -1.05859C54.8613 -0.933594 54.5625 -0.871094 54.1914 -0.871094C53.1406 -0.871094 52.6152 -1.45703 52.6152 -2.62891V-6.17969H51.584V-7H52.6152V-8.46484L53.5762 -8.77539V-7H55.0879V-6.17969H53.5762V-2.79883C53.5762 -2.39648 53.6445 -2.10938 53.7812 -1.9375C53.918 -1.76562 54.1445 -1.67969 54.4609 -1.67969C54.7031 -1.67969 54.9121 -1.74609 55.0879 -1.87891V-1.05859ZM61.3516 -1H60.3906V-4.45703C60.3906 -5.70703 59.9258 -6.33203 58.9961 -6.33203C58.5273 -6.33203 58.1328 -6.15039 57.8125 -5.78711C57.4922 -5.42773 57.332 -4.96484 57.332 -4.39844V-1H56.3711V-9.88281H57.332V-6.00391H57.3555C57.8164 -6.76172 58.4727 -7.14062 59.3242 -7.14062C60.6758 -7.14062 61.3516 -6.32617 61.3516 -4.69727V-1ZM68.9688 -0.859375C68.082 -0.859375 67.373 -1.13867 66.8418 -1.69727C66.3145 -2.25977 66.0508 -3.00391 66.0508 -3.92969C66.0508 -4.9375 66.3262 -5.72461 66.877 -6.29102C67.4277 -6.85742 68.1719 -7.14062 69.1094 -7.14062C70.0039 -7.14062 70.7012 -6.86523 71.2012 -6.31445C71.7051 -5.76367 71.957 -5 71.957 -4.02344C71.957 -3.06641 71.6855 -2.29883 71.1426 -1.7207C70.6035 -1.14648 69.8789 -0.859375 68.9688 -0.859375ZM69.0391 -6.33203C68.4219 -6.33203 67.9336 -6.12109 67.5742 -5.69922C67.2148 -5.28125 67.0352 -4.70312 67.0352 -3.96484C67.0352 -3.25391 67.2168 -2.69336 67.5801 -2.2832C67.9434 -1.87305 68.4297 -1.66797 69.0391 -1.66797C69.6602 -1.66797 70.1367 -1.86914 70.4688 -2.27148C70.8047 -2.67383 70.9727 -3.24609 70.9727 -3.98828C70.9727 -4.73828 70.8047 -5.31641 70.4688 -5.72266C70.1367 -6.12891 69.6602 -6.33203 69.0391 -6.33203ZM76.2344 -9.03906C76.0469 -9.14453 75.834 -9.19727 75.5957 -9.19727C74.9238 -9.19727 74.5879 -8.77344 74.5879 -7.92578V-7H75.9941V-6.17969H74.5879V-1H73.6328V-6.17969H72.6074V-7H73.6328V-7.97266C73.6328 -8.60156 73.8145 -9.09766 74.1777 -9.46094C74.541 -9.82812 74.9941 -10.0117 75.5371 -10.0117C75.8301 -10.0117 76.0625 -9.97656 76.2344 -9.90625V-9.03906ZM83.1074 -1.05859C82.8809 -0.933594 82.582 -0.871094 82.2109 -0.871094C81.1602 -0.871094 80.6348 -1.45703 80.6348 -2.62891V-6.17969H79.6035V-7H80.6348V-8.46484L81.5957 -8.77539V-7H83.1074V-6.17969H81.5957V-2.79883C81.5957 -2.39648 81.6641 -2.10938 81.8008 -1.9375C81.9375 -1.76562 82.1641 -1.67969 82.4805 -1.67969C82.7227 -1.67969 82.9316 -1.74609 83.1074 -1.87891V-1.05859ZM86.8047 -0.859375C85.918 -0.859375 85.209 -1.13867 84.6777 -1.69727C84.1504 -2.25977 83.8867 -3.00391 83.8867 -3.92969C83.8867 -4.9375 84.1621 -5.72461 84.7129 -6.29102C85.2637 -6.85742 86.0078 -7.14062 86.9453 -7.14062C87.8398 -7.14062 88.5371 -6.86523 89.0371 -6.31445C89.541 -5.76367 89.793 -5 89.793 -4.02344C89.793 -3.06641 89.5215 -2.29883 88.9785 -1.7207C88.4395 -1.14648 87.7148 -0.859375 86.8047 -0.859375ZM86.875 -6.33203C86.2578 -6.33203 85.7695 -6.12109 85.4102 -5.69922C85.0508 -5.28125 84.8711 -4.70312 84.8711 -3.96484C84.8711 -3.25391 85.0527 -2.69336 85.416 -2.2832C85.7793 -1.87305 86.2656 -1.66797 86.875 -1.66797C87.4961 -1.66797 87.9727 -1.86914 88.3047 -2.27148C88.6406 -2.67383 88.8086 -3.24609 88.8086 -3.98828C88.8086 -4.73828 88.6406 -5.31641 88.3047 -5.72266C87.9727 -6.12891 87.4961 -6.33203 86.875 -6.33203ZM93.8359 -0.859375C92.9492 -0.859375 92.2402 -1.13867 91.709 -1.69727C91.1816 -2.25977 90.918 -3.00391 90.918 -3.92969C90.918 -4.9375 91.1934 -5.72461 91.7441 -6.29102C92.2949 -6.85742 93.0391 -7.14062 93.9766 -7.14062C94.8711 -7.14062 95.5684 -6.86523 96.0684 -6.31445C96.5723 -5.76367 96.8242 -5 96.8242 -4.02344C96.8242 -3.06641 96.5527 -2.29883 96.0098 -1.7207C95.4707 -1.14648 94.7461 -0.859375 93.8359 -0.859375ZM93.9062 -6.33203C93.2891 -6.33203 92.8008 -6.12109 92.4414 -5.69922C92.082 -5.28125 91.9023 -4.70312 91.9023 -3.96484C91.9023 -3.25391 92.084 -2.69336 92.4473 -2.2832C92.8105 -1.87305 93.2969 -1.66797 93.9062 -1.66797C94.5273 -1.66797 95.0039 -1.86914 95.3359 -2.27148C95.6719 -2.67383 95.8398 -3.24609 95.8398 -3.98828C95.8398 -4.73828 95.6719 -5.31641 95.3359 -5.72266C95.0039 -6.12891 94.5273 -6.33203 93.9062 -6.33203ZM99.3203 -1H98.3594V-9.88281H99.3203V-1ZM104.049 -1.05859C103.822 -0.933594 103.523 -0.871094 103.152 -0.871094C102.102 -0.871094 101.576 -1.45703 101.576 -2.62891V-6.17969H100.545V-7H101.576V-8.46484L102.537 -8.77539V-7H104.049V-6.17969H102.537V-2.79883C102.537 -2.39648 102.605 -2.10938 102.742 -1.9375C102.879 -1.76562 103.105 -1.67969 103.422 -1.67969C103.664 -1.67969 103.873 -1.74609 104.049 -1.87891V-1.05859ZM105.824 -8.52344C105.652 -8.52344 105.506 -8.58203 105.385 -8.69922C105.264 -8.81641 105.203 -8.96484 105.203 -9.14453C105.203 -9.32422 105.264 -9.47266 105.385 -9.58984C105.506 -9.71094 105.652 -9.77148 105.824 -9.77148C106 -9.77148 106.148 -9.71094 106.27 -9.58984C106.395 -9.47266 106.457 -9.32422 106.457 -9.14453C106.457 -8.97266 106.395 -8.82617 106.27 -8.70508C106.148 -8.58398 106 -8.52344 105.824 -8.52344ZM106.293 -1H105.332V-7H106.293V-1ZM109.223 -1.86719H109.199V1.75977H108.238V-7H109.199V-5.94531H109.223C109.695 -6.74219 110.387 -7.14062 111.297 -7.14062C112.07 -7.14062 112.674 -6.87109 113.107 -6.33203C113.541 -5.79688 113.758 -5.07812 113.758 -4.17578C113.758 -3.17188 113.514 -2.36719 113.025 -1.76172C112.537 -1.16016 111.869 -0.859375 111.021 -0.859375C110.244 -0.859375 109.645 -1.19531 109.223 -1.86719ZM109.199 -4.28711V-3.44922C109.199 -2.95312 109.359 -2.53125 109.68 -2.18359C110.004 -1.83984 110.414 -1.66797 110.91 -1.66797C111.492 -1.66797 111.947 -1.89062 112.275 -2.33594C112.607 -2.78125 112.773 -3.40039 112.773 -4.19336C112.773 -4.86133 112.619 -5.38477 112.311 -5.76367C112.002 -6.14258 111.584 -6.33203 111.057 -6.33203C110.498 -6.33203 110.049 -6.13672 109.709 -5.74609C109.369 -5.35938 109.199 -4.87305 109.199 -4.28711ZM114.93 -1.2168V-2.24805C115.453 -1.86133 116.029 -1.66797 116.658 -1.66797C117.502 -1.66797 117.924 -1.94922 117.924 -2.51172C117.924 -2.67188 117.887 -2.80664 117.812 -2.91602C117.742 -3.0293 117.645 -3.12891 117.52 -3.21484C117.398 -3.30078 117.254 -3.37695 117.086 -3.44336C116.922 -3.51367 116.744 -3.58594 116.553 -3.66016C116.287 -3.76562 116.053 -3.87109 115.85 -3.97656C115.65 -4.08594 115.482 -4.20703 115.346 -4.33984C115.213 -4.47656 115.111 -4.63086 115.041 -4.80273C114.975 -4.97461 114.941 -5.17578 114.941 -5.40625C114.941 -5.6875 115.006 -5.93555 115.135 -6.15039C115.264 -6.36914 115.436 -6.55078 115.65 -6.69531C115.865 -6.84375 116.109 -6.95508 116.383 -7.0293C116.66 -7.10352 116.945 -7.14062 117.238 -7.14062C117.758 -7.14062 118.223 -7.05078 118.633 -6.87109V-5.89844C118.191 -6.1875 117.684 -6.33203 117.109 -6.33203C116.93 -6.33203 116.768 -6.31055 116.623 -6.26758C116.479 -6.22852 116.354 -6.17188 116.248 -6.09766C116.146 -6.02344 116.066 -5.93359 116.008 -5.82812C115.953 -5.72656 115.926 -5.61328 115.926 -5.48828C115.926 -5.33203 115.953 -5.20117 116.008 -5.0957C116.066 -4.99023 116.15 -4.89648 116.26 -4.81445C116.369 -4.73242 116.502 -4.6582 116.658 -4.5918C116.814 -4.52539 116.992 -4.45312 117.191 -4.375C117.457 -4.27344 117.695 -4.16797 117.906 -4.05859C118.117 -3.95312 118.297 -3.83203 118.445 -3.69531C118.594 -3.5625 118.707 -3.4082 118.785 -3.23242C118.867 -3.05664 118.908 -2.84766 118.908 -2.60547C118.908 -2.30859 118.842 -2.05078 118.709 -1.83203C118.58 -1.61328 118.406 -1.43164 118.188 -1.28711C117.969 -1.14258 117.717 -1.03516 117.432 -0.964844C117.146 -0.894531 116.848 -0.859375 116.535 -0.859375C115.918 -0.859375 115.383 -0.978516 114.93 -1.2168ZM124.176 -8.52344C124.004 -8.52344 123.857 -8.58203 123.736 -8.69922C123.615 -8.81641 123.555 -8.96484 123.555 -9.14453C123.555 -9.32422 123.615 -9.47266 123.736 -9.58984C123.857 -9.71094 124.004 -9.77148 124.176 -9.77148C124.352 -9.77148 124.5 -9.71094 124.621 -9.58984C124.746 -9.47266 124.809 -9.32422 124.809 -9.14453C124.809 -8.97266 124.746 -8.82617 124.621 -8.70508C124.5 -8.58398 124.352 -8.52344 124.176 -8.52344ZM124.645 -1H123.684V-7H124.645V-1ZM126.227 -1.2168V-2.24805C126.75 -1.86133 127.326 -1.66797 127.955 -1.66797C128.799 -1.66797 129.221 -1.94922 129.221 -2.51172C129.221 -2.67188 129.184 -2.80664 129.109 -2.91602C129.039 -3.0293 128.941 -3.12891 128.816 -3.21484C128.695 -3.30078 128.551 -3.37695 128.383 -3.44336C128.219 -3.51367 128.041 -3.58594 127.85 -3.66016C127.584 -3.76562 127.35 -3.87109 127.146 -3.97656C126.947 -4.08594 126.779 -4.20703 126.643 -4.33984C126.51 -4.47656 126.408 -4.63086 126.338 -4.80273C126.271 -4.97461 126.238 -5.17578 126.238 -5.40625C126.238 -5.6875 126.303 -5.93555 126.432 -6.15039C126.561 -6.36914 126.732 -6.55078 126.947 -6.69531C127.162 -6.84375 127.406 -6.95508 127.68 -7.0293C127.957 -7.10352 128.242 -7.14062 128.535 -7.14062C129.055 -7.14062 129.52 -7.05078 129.93 -6.87109V-5.89844C129.488 -6.1875 128.98 -6.33203 128.406 -6.33203C128.227 -6.33203 128.064 -6.31055 127.92 -6.26758C127.775 -6.22852 127.65 -6.17188 127.545 -6.09766C127.443 -6.02344 127.363 -5.93359 127.305 -5.82812C127.25 -5.72656 127.223 -5.61328 127.223 -5.48828C127.223 -5.33203 127.25 -5.20117 127.305 -5.0957C127.363 -4.99023 127.447 -4.89648 127.557 -4.81445C127.666 -4.73242 127.799 -4.6582 127.955 -4.5918C128.111 -4.52539 128.289 -4.45312 128.488 -4.375C128.754 -4.27344 128.992 -4.16797 129.203 -4.05859C129.414 -3.95312 129.594 -3.83203 129.742 -3.69531C129.891 -3.5625 130.004 -3.4082 130.082 -3.23242C130.164 -3.05664 130.205 -2.84766 130.205 -2.60547C130.205 -2.30859 130.139 -2.05078 130.006 -1.83203C129.877 -1.61328 129.703 -1.43164 129.484 -1.28711C129.266 -1.14258 129.014 -1.03516 128.729 -0.964844C128.443 -0.894531 128.145 -0.859375 127.832 -0.859375C127.215 -0.859375 126.68 -0.978516 126.227 -1.2168ZM139.633 -1H134.57V-1.85547L137.02 -4.31055C137.645 -4.93555 138.09 -5.45508 138.355 -5.86914C138.625 -6.28711 138.76 -6.73242 138.76 -7.20508C138.76 -7.68945 138.621 -8.06445 138.344 -8.33008C138.066 -8.5957 137.672 -8.72852 137.16 -8.72852C136.41 -8.72852 135.691 -8.4082 135.004 -7.76758V-8.77539C135.66 -9.28711 136.424 -9.54297 137.295 -9.54297C138.045 -9.54297 138.635 -9.33984 139.064 -8.93359C139.494 -8.52734 139.709 -7.98242 139.709 -7.29883C139.709 -6.75977 139.561 -6.23242 139.264 -5.7168C138.967 -5.20508 138.434 -4.56836 137.664 -3.80664L135.725 -1.89062V-1.86719H139.633V-1ZM146.535 -3.23242H145.457V-1H144.508V-3.23242H140.559V-3.85938L144.297 -9.40234H145.457V-4.01172H146.535V-3.23242ZM144.508 -4.01172V-7.64453C144.508 -7.90234 144.516 -8.19141 144.531 -8.51172H144.508C144.453 -8.37109 144.346 -8.15625 144.186 -7.86719L141.602 -4.01172H144.508ZM150.098 -0.859375C149.266 -0.859375 148.615 -1.2168 148.146 -1.93164C147.682 -2.64648 147.449 -3.67969 147.449 -5.03125C147.449 -6.51562 147.691 -7.63867 148.176 -8.40039C148.664 -9.16211 149.367 -9.54297 150.285 -9.54297C152.043 -9.54297 152.922 -8.10742 152.922 -5.23633C152.922 -3.81445 152.674 -2.72852 152.178 -1.97852C151.682 -1.23242 150.988 -0.859375 150.098 -0.859375ZM150.232 -8.72852C149.033 -8.72852 148.434 -7.51172 148.434 -5.07812C148.434 -2.80469 149.021 -1.66797 150.197 -1.66797C151.357 -1.66797 151.938 -2.82422 151.938 -5.13672C151.938 -7.53125 151.369 -8.72852 150.232 -8.72852ZM155.371 -1.86719H155.348V1.75977H154.387V-7H155.348V-5.94531H155.371C155.844 -6.74219 156.535 -7.14062 157.445 -7.14062C158.219 -7.14062 158.822 -6.87109 159.256 -6.33203C159.689 -5.79688 159.906 -5.07812 159.906 -4.17578C159.906 -3.17188 159.662 -2.36719 159.174 -1.76172C158.686 -1.16016 158.018 -0.859375 157.17 -0.859375C156.393 -0.859375 155.793 -1.19531 155.371 -1.86719ZM155.348 -4.28711V-3.44922C155.348 -2.95312 155.508 -2.53125 155.828 -2.18359C156.152 -1.83984 156.562 -1.66797 157.059 -1.66797C157.641 -1.66797 158.096 -1.89062 158.424 -2.33594C158.756 -2.78125 158.922 -3.40039 158.922 -4.19336C158.922 -4.86133 158.768 -5.38477 158.459 -5.76367C158.15 -6.14258 157.732 -6.33203 157.205 -6.33203C156.646 -6.33203 156.197 -6.13672 155.857 -5.74609C155.518 -5.35938 155.348 -4.87305 155.348 -4.28711ZM165.672 -7L163.656 -3.96484L165.637 -1H164.518L163.34 -2.94531C163.266 -3.06641 163.178 -3.21875 163.076 -3.40234H163.053C163.033 -3.36719 162.941 -3.21484 162.777 -2.94531L161.576 -1H160.469L162.514 -3.94141L160.557 -7H161.676L162.836 -4.94922C162.922 -4.79688 163.006 -4.64062 163.088 -4.48047H163.111L164.611 -7H165.672ZM173.16 -3.96484H169.961V-4.7207H173.16V-3.96484ZM185.746 -7L183.947 -1H182.951L181.715 -5.29492C181.668 -5.45898 181.637 -5.64453 181.621 -5.85156H181.598C181.586 -5.71094 181.545 -5.5293 181.475 -5.30664L180.133 -1H179.172L177.355 -7H178.363L179.605 -2.48828C179.645 -2.35156 179.672 -2.17188 179.688 -1.94922H179.734C179.746 -2.12109 179.781 -2.30469 179.84 -2.5L181.223 -7H182.102L183.344 -2.47656C183.383 -2.33203 183.412 -2.15234 183.432 -1.9375H183.479C183.486 -2.08984 183.52 -2.26953 183.578 -2.47656L184.797 -7H185.746ZM189.988 -6.02734C189.82 -6.15625 189.578 -6.2207 189.262 -6.2207C188.852 -6.2207 188.508 -6.02734 188.23 -5.64062C187.957 -5.25391 187.82 -4.72656 187.82 -4.05859V-1H186.859V-7H187.82V-5.76367H187.844C187.98 -6.18555 188.189 -6.51367 188.471 -6.74805C188.752 -6.98633 189.066 -7.10547 189.414 -7.10547C189.664 -7.10547 189.855 -7.07812 189.988 -7.02344V-6.02734ZM195.326 -1H194.365V-1.9375H194.342C193.924 -1.21875 193.309 -0.859375 192.496 -0.859375C191.898 -0.859375 191.43 -1.01758 191.09 -1.33398C190.754 -1.65039 190.586 -2.07031 190.586 -2.59375C190.586 -3.71484 191.246 -4.36719 192.566 -4.55078L194.365 -4.80273C194.365 -5.82227 193.953 -6.33203 193.129 -6.33203C192.406 -6.33203 191.754 -6.08594 191.172 -5.59375V-6.57812C191.762 -6.95312 192.441 -7.14062 193.211 -7.14062C194.621 -7.14062 195.326 -6.39453 195.326 -4.90234V-1ZM194.365 -4.03516L192.918 -3.83594C192.473 -3.77344 192.137 -3.66211 191.91 -3.50195C191.684 -3.3457 191.57 -3.06641 191.57 -2.66406C191.57 -2.37109 191.674 -2.13086 191.881 -1.94336C192.092 -1.75977 192.371 -1.66797 192.719 -1.66797C193.195 -1.66797 193.588 -1.83398 193.896 -2.16602C194.209 -2.50195 194.365 -2.92578 194.365 -3.4375V-4.03516ZM198.121 -1.86719H198.098V1.75977H197.137V-7H198.098V-5.94531H198.121C198.594 -6.74219 199.285 -7.14062 200.195 -7.14062C200.969 -7.14062 201.572 -6.87109 202.006 -6.33203C202.439 -5.79688 202.656 -5.07812 202.656 -4.17578C202.656 -3.17188 202.412 -2.36719 201.924 -1.76172C201.436 -1.16016 200.768 -0.859375 199.92 -0.859375C199.143 -0.859375 198.543 -1.19531 198.121 -1.86719ZM198.098 -4.28711V-3.44922C198.098 -2.95312 198.258 -2.53125 198.578 -2.18359C198.902 -1.83984 199.312 -1.66797 199.809 -1.66797C200.391 -1.66797 200.846 -1.89062 201.174 -2.33594C201.506 -2.78125 201.672 -3.40039 201.672 -4.19336C201.672 -4.86133 201.518 -5.38477 201.209 -5.76367C200.9 -6.14258 200.482 -6.33203 199.955 -6.33203C199.396 -6.33203 198.947 -6.13672 198.607 -5.74609C198.268 -5.35938 198.098 -4.87305 198.098 -4.28711ZM10.7559 14.9414C10.5293 15.0664 10.2305 15.1289 9.85938 15.1289C8.80859 15.1289 8.2832 14.543 8.2832 13.3711V9.82031H7.25195V9H8.2832V7.53516L9.24414 7.22461V9H10.7559V9.82031H9.24414V13.2012C9.24414 13.6035 9.3125 13.8906 9.44922 14.0625C9.58594 14.2344 9.8125 14.3203 10.1289 14.3203C10.3711 14.3203 10.5801 14.2539 10.7559 14.1211V14.9414ZM16.7676 12.2402H12.5312C12.5469 12.9082 12.7266 13.4238 13.0703 13.7871C13.4141 14.1504 13.8867 14.332 14.4883 14.332C15.1641 14.332 15.7852 14.1094 16.3516 13.6641V14.5664C15.8242 14.9492 15.127 15.1406 14.2598 15.1406C13.4121 15.1406 12.7461 14.8691 12.2617 14.3262C11.7773 13.7793 11.5352 13.0117 11.5352 12.0234C11.5352 11.0898 11.7988 10.3301 12.3262 9.74414C12.8574 9.1543 13.5156 8.85938 14.3008 8.85938C15.0859 8.85938 15.6934 9.11328 16.123 9.62109C16.5527 10.1289 16.7676 10.834 16.7676 11.7363V12.2402ZM15.7832 11.4258C15.7793 10.8711 15.6445 10.4395 15.3789 10.1309C15.1172 9.82227 14.752 9.66797 14.2832 9.66797C13.8301 9.66797 13.4453 9.83008 13.1289 10.1543C12.8125 10.4785 12.6172 10.9023 12.543 11.4258H15.7832ZM22.6094 9L20.5938 12.0352L22.5742 15H21.4551L20.2773 13.0547C20.2031 12.9336 20.1152 12.7812 20.0137 12.5977H19.9902C19.9707 12.6328 19.8789 12.7852 19.7148 13.0547L18.5137 15H17.4062L19.4512 12.0586L17.4941 9H18.6133L19.7734 11.0508C19.8594 11.2031 19.9434 11.3594 20.0254 11.5195H20.0488L21.5488 9H22.6094ZM26.5176 14.9414C26.291 15.0664 25.9922 15.1289 25.6211 15.1289C24.5703 15.1289 24.0449 14.543 24.0449 13.3711V9.82031H23.0137V9H24.0449V7.53516L25.0059 7.22461V9H26.5176V9.82031H25.0059V13.2012C25.0059 13.6035 25.0742 13.8906 25.2109 14.0625C25.3477 14.2344 25.5742 14.3203 25.8906 14.3203C26.1328 14.3203 26.3418 14.2539 26.5176 14.1211V14.9414ZM31.5859 7.47656C31.4141 7.47656 31.2676 7.41797 31.1465 7.30078C31.0254 7.18359 30.9648 7.03516 30.9648 6.85547C30.9648 6.67578 31.0254 6.52734 31.1465 6.41016C31.2676 6.28906 31.4141 6.22852 31.5859 6.22852C31.7617 6.22852 31.9102 6.28906 32.0312 6.41016C32.1562 6.52734 32.2188 6.67578 32.2188 6.85547C32.2188 7.02734 32.1562 7.17383 32.0312 7.29492C31.9102 7.41602 31.7617 7.47656 31.5859 7.47656ZM32.0547 15H31.0938V9H32.0547V15ZM36.9648 6.96094C36.7773 6.85547 36.5645 6.80273 36.3262 6.80273C35.6543 6.80273 35.3184 7.22656 35.3184 8.07422V9H36.7246V9.82031H35.3184V15H34.3633V9.82031H33.3379V9H34.3633V8.02734C34.3633 7.39844 34.5449 6.90234 34.9082 6.53906C35.2715 6.17188 35.7246 5.98828 36.2676 5.98828C36.5605 5.98828 36.793 6.02344 36.9648 6.09375V6.96094ZM46.0352 15H45.0742V11.5781C45.0742 10.3047 44.6094 9.66797 43.6797 9.66797C43.1992 9.66797 42.8008 9.84961 42.4844 10.2129C42.1719 10.5723 42.0156 11.0273 42.0156 11.5781V15H41.0547V9H42.0156V9.99609H42.0391C42.4922 9.23828 43.1484 8.85938 44.0078 8.85938C44.6641 8.85938 45.166 9.07227 45.5137 9.49805C45.8613 9.91992 46.0352 10.5312 46.0352 11.332V15ZM52.6738 12.2402H48.4375C48.4531 12.9082 48.6328 13.4238 48.9766 13.7871C49.3203 14.1504 49.793 14.332 50.3945 14.332C51.0703 14.332 51.6914 14.1094 52.2578 13.6641V14.5664C51.7305 14.9492 51.0332 15.1406 50.166 15.1406C49.3184 15.1406 48.6523 14.8691 48.168 14.3262C47.6836 13.7793 47.4414 13.0117 47.4414 12.0234C47.4414 11.0898 47.7051 10.3301 48.2324 9.74414C48.7637 9.1543 49.4219 8.85938 50.207 8.85938C50.9922 8.85938 51.5996 9.11328 52.0293 9.62109C52.459 10.1289 52.6738 10.834 52.6738 11.7363V12.2402ZM51.6895 11.4258C51.6855 10.8711 51.5508 10.4395 51.2852 10.1309C51.0234 9.82227 50.6582 9.66797 50.1895 9.66797C49.7363 9.66797 49.3516 9.83008 49.0352 10.1543C48.7188 10.4785 48.5234 10.9023 48.4492 11.4258H51.6895ZM58.2227 14.7246C57.7617 15.002 57.2148 15.1406 56.582 15.1406C55.7266 15.1406 55.0352 14.8633 54.5078 14.3086C53.9844 13.75 53.7227 13.0273 53.7227 12.1406C53.7227 11.1523 54.0059 10.3594 54.5723 9.76172C55.1387 9.16016 55.8945 8.85938 56.8398 8.85938C57.3672 8.85938 57.832 8.95703 58.2344 9.15234V10.1367C57.7891 9.82422 57.3125 9.66797 56.8047 9.66797C56.1914 9.66797 55.6875 9.88867 55.293 10.3301C54.9023 10.7676 54.707 11.3438 54.707 12.0586C54.707 12.7617 54.8906 13.3164 55.2578 13.7227C55.6289 14.1289 56.125 14.332 56.7461 14.332C57.2695 14.332 57.7617 14.1582 58.2227 13.8105V14.7246ZM64.498 12.2402H60.2617C60.2773 12.9082 60.457 13.4238 60.8008 13.7871C61.1445 14.1504 61.6172 14.332 62.2188 14.332C62.8945 14.332 63.5156 14.1094 64.082 13.6641V14.5664C63.5547 14.9492 62.8574 15.1406 61.9902 15.1406C61.1426 15.1406 60.4766 14.8691 59.9922 14.3262C59.5078 13.7793 59.2656 13.0117 59.2656 12.0234C59.2656 11.0898 59.5293 10.3301 60.0566 9.74414C60.5879 9.1543 61.2461 8.85938 62.0312 8.85938C62.8164 8.85938 63.4238 9.11328 63.8535 9.62109C64.2832 10.1289 64.498 10.834 64.498 11.7363V12.2402ZM63.5137 11.4258C63.5098 10.8711 63.375 10.4395 63.1094 10.1309C62.8477 9.82227 62.4824 9.66797 62.0137 9.66797C61.5605 9.66797 61.1758 9.83008 60.8594 10.1543C60.543 10.4785 60.3477 10.9023 60.2734 11.4258H63.5137ZM65.5938 14.7832V13.752C66.1172 14.1387 66.6934 14.332 67.3223 14.332C68.166 14.332 68.5879 14.0508 68.5879 13.4883C68.5879 13.3281 68.5508 13.1934 68.4766 13.084C68.4062 12.9707 68.3086 12.8711 68.1836 12.7852C68.0625 12.6992 67.918 12.623 67.75 12.5566C67.5859 12.4863 67.4082 12.4141 67.2168 12.3398C66.9512 12.2344 66.7168 12.1289 66.5137 12.0234C66.3145 11.9141 66.1465 11.793 66.0098 11.6602C65.877 11.5234 65.7754 11.3691 65.7051 11.1973C65.6387 11.0254 65.6055 10.8242 65.6055 10.5938C65.6055 10.3125 65.6699 10.0645 65.7988 9.84961C65.9277 9.63086 66.0996 9.44922 66.3145 9.30469C66.5293 9.15625 66.7734 9.04492 67.0469 8.9707C67.3242 8.89648 67.6094 8.85938 67.9023 8.85938C68.4219 8.85938 68.8867 8.94922 69.2969 9.12891V10.1016C68.8555 9.8125 68.3477 9.66797 67.7734 9.66797C67.5938 9.66797 67.4316 9.68945 67.2871 9.73242C67.1426 9.77148 67.0176 9.82812 66.9121 9.90234C66.8105 9.97656 66.7305 10.0664 66.6719 10.1719C66.6172 10.2734 66.5898 10.3867 66.5898 10.5117C66.5898 10.668 66.6172 10.7988 66.6719 10.9043C66.7305 11.0098 66.8145 11.1035 66.9238 11.1855C67.0332 11.2676 67.166 11.3418 67.3223 11.4082C67.4785 11.4746 67.6562 11.5469 67.8555 11.625C68.1211 11.7266 68.3594 11.832 68.5703 11.9414C68.7812 12.0469 68.9609 12.168 69.1094 12.3047C69.2578 12.4375 69.3711 12.5918 69.4492 12.7676C69.5312 12.9434 69.5723 13.1523 69.5723 13.3945C69.5723 13.6914 69.5059 13.9492 69.373 14.168C69.2441 14.3867 69.0703 14.5684 68.8516 14.7129C68.6328 14.8574 68.3809 14.9648 68.0957 15.0352C67.8105 15.1055 67.5117 15.1406 67.1992 15.1406C66.582 15.1406 66.0469 15.0215 65.5938 14.7832ZM70.6914 14.7832V13.752C71.2148 14.1387 71.791 14.332 72.4199 14.332C73.2637 14.332 73.6855 14.0508 73.6855 13.4883C73.6855 13.3281 73.6484 13.1934 73.5742 13.084C73.5039 12.9707 73.4062 12.8711 73.2812 12.7852C73.1602 12.6992 73.0156 12.623 72.8477 12.5566C72.6836 12.4863 72.5059 12.4141 72.3145 12.3398C72.0488 12.2344 71.8145 12.1289 71.6113 12.0234C71.4121 11.9141 71.2441 11.793 71.1074 11.6602C70.9746 11.5234 70.873 11.3691 70.8027 11.1973C70.7363 11.0254 70.7031 10.8242 70.7031 10.5938C70.7031 10.3125 70.7676 10.0645 70.8965 9.84961C71.0254 9.63086 71.1973 9.44922 71.4121 9.30469C71.627 9.15625 71.8711 9.04492 72.1445 8.9707C72.4219 8.89648 72.707 8.85938 73 8.85938C73.5195 8.85938 73.9844 8.94922 74.3945 9.12891V10.1016C73.9531 9.8125 73.4453 9.66797 72.8711 9.66797C72.6914 9.66797 72.5293 9.68945 72.3848 9.73242C72.2402 9.77148 72.1152 9.82812 72.0098 9.90234C71.9082 9.97656 71.8281 10.0664 71.7695 10.1719C71.7148 10.2734 71.6875 10.3867 71.6875 10.5117C71.6875 10.668 71.7148 10.7988 71.7695 10.9043C71.8281 11.0098 71.9121 11.1035 72.0215 11.1855C72.1309 11.2676 72.2637 11.3418 72.4199 11.4082C72.5762 11.4746 72.7539 11.5469 72.9531 11.625C73.2188 11.7266 73.457 11.832 73.668 11.9414C73.8789 12.0469 74.0586 12.168 74.207 12.3047C74.3555 12.4375 74.4688 12.5918 74.5469 12.7676C74.6289 12.9434 74.6699 13.1523 74.6699 13.3945C74.6699 13.6914 74.6035 13.9492 74.4707 14.168C74.3418 14.3867 74.168 14.5684 73.9492 14.7129C73.7305 14.8574 73.4785 14.9648 73.1934 15.0352C72.9082 15.1055 72.6094 15.1406 72.2969 15.1406C71.6797 15.1406 71.1445 15.0215 70.6914 14.7832ZM80.4473 15H79.4863V14.0625H79.4629C79.0449 14.7812 78.4297 15.1406 77.6172 15.1406C77.0195 15.1406 76.5508 14.9824 76.2109 14.666C75.875 14.3496 75.707 13.9297 75.707 13.4062C75.707 12.2852 76.3672 11.6328 77.6875 11.4492L79.4863 11.1973C79.4863 10.1777 79.0742 9.66797 78.25 9.66797C77.5273 9.66797 76.875 9.91406 76.293 10.4062V9.42188C76.8828 9.04688 77.5625 8.85938 78.332 8.85938C79.7422 8.85938 80.4473 9.60547 80.4473 11.0977V15ZM79.4863 11.9648L78.0391 12.1641C77.5938 12.2266 77.2578 12.3379 77.0312 12.498C76.8047 12.6543 76.6914 12.9336 76.6914 13.3359C76.6914 13.6289 76.7949 13.8691 77.002 14.0566C77.2129 14.2402 77.4922 14.332 77.8398 14.332C78.3164 14.332 78.709 14.166 79.0176 13.834C79.3301 13.498 79.4863 13.0742 79.4863 12.5625V11.9648ZM85.3867 9.97266C85.2188 9.84375 84.9766 9.7793 84.6602 9.7793C84.25 9.7793 83.9062 9.97266 83.6289 10.3594C83.3555 10.7461 83.2188 11.2734 83.2188 11.9414V15H82.2578V9H83.2188V10.2363H83.2422C83.3789 9.81445 83.5879 9.48633 83.8691 9.25195C84.1504 9.01367 84.4648 8.89453 84.8125 8.89453C85.0625 8.89453 85.2539 8.92188 85.3867 8.97656V9.97266ZM91.6855 9L88.9258 15.9609C88.4336 17.2031 87.7422 17.8242 86.8516 17.8242C86.6016 17.8242 86.3926 17.7988 86.2246 17.748V16.8867C86.4316 16.957 86.6211 16.9922 86.793 16.9922C87.2773 16.9922 87.6406 16.7031 87.8828 16.125L88.3633 14.9883L86.0195 9H87.0859L88.709 13.6172C88.7285 13.6758 88.7695 13.8281 88.832 14.0742H88.8672C88.8867 13.9805 88.9258 13.832 88.9844 13.6289L90.6895 9H91.6855ZM92.3066 15.1289C92.127 15.1289 91.9727 15.0645 91.8438 14.9355C91.7188 14.8066 91.6562 14.6523 91.6562 14.4727C91.6562 14.293 91.7188 14.1387 91.8438 14.0098C91.9727 13.877 92.127 13.8105 92.3066 13.8105C92.4902 13.8105 92.6465 13.877 92.7754 14.0098C92.9043 14.1387 92.9688 14.293 92.9688 14.4727C92.9688 14.6523 92.9043 14.8066 92.7754 14.9355C92.6465 15.0645 92.4902 15.1289 92.3066 15.1289Z" fill="#242424"/>
<path d="M222.414 29.5858C221.633 30.3668 220.367 30.3668 219.586 29.5858L215 25H227L222.414 29.5858Z" fill="white"/>
</g>
<g filter="url(#filter2_dd_4196_27282)">
<rect x="575" y="158" width="248" height="285" rx="4" fill="white" shape-rendering="crispEdges"/>
<path d="M579 166C579 163.791 580.791 162 583 162H815C817.209 162 819 163.791 819 166V190C819 192.209 817.209 194 815 194H583C580.791 194 579 192.209 579 190V166Z" fill="white"/>
<path d="M587.65 182.666V181.23C587.779 181.348 587.932 181.453 588.107 181.547C588.287 181.641 588.477 181.721 588.676 181.787C588.875 181.85 589.074 181.898 589.273 181.934C589.473 181.969 589.656 181.986 589.824 181.986C590.41 181.986 590.846 181.889 591.131 181.693C591.42 181.498 591.564 181.215 591.564 180.844C591.564 180.645 591.516 180.473 591.418 180.328C591.324 180.18 591.191 180.045 591.02 179.924C590.848 179.803 590.645 179.688 590.41 179.578C590.18 179.465 589.932 179.348 589.666 179.227C589.381 179.074 589.115 178.92 588.869 178.764C588.623 178.607 588.408 178.436 588.225 178.248C588.045 178.057 587.902 177.842 587.797 177.604C587.695 177.365 587.645 177.086 587.645 176.766C587.645 176.371 587.732 176.029 587.908 175.74C588.088 175.447 588.322 175.207 588.611 175.02C588.904 174.828 589.236 174.688 589.607 174.598C589.979 174.504 590.357 174.457 590.744 174.457C591.623 174.457 592.264 174.557 592.666 174.756V176.133C592.189 175.789 591.576 175.617 590.826 175.617C590.619 175.617 590.412 175.637 590.205 175.676C590.002 175.715 589.818 175.779 589.654 175.869C589.494 175.959 589.363 176.074 589.262 176.215C589.16 176.355 589.109 176.525 589.109 176.725C589.109 176.912 589.148 177.074 589.227 177.211C589.305 177.348 589.418 177.473 589.566 177.586C589.719 177.699 589.902 177.811 590.117 177.92C590.336 178.025 590.588 178.141 590.873 178.266C591.166 178.418 591.441 178.578 591.699 178.746C591.961 178.914 592.189 179.1 592.385 179.303C592.584 179.506 592.74 179.732 592.854 179.982C592.971 180.229 593.029 180.51 593.029 180.826C593.029 181.252 592.943 181.611 592.771 181.904C592.6 182.197 592.367 182.436 592.074 182.619C591.785 182.803 591.451 182.936 591.072 183.018C590.693 183.1 590.293 183.141 589.871 183.141C589.73 183.141 589.557 183.129 589.35 183.105C589.146 183.086 588.938 183.055 588.723 183.012C588.508 182.973 588.305 182.924 588.113 182.865C587.922 182.807 587.768 182.74 587.65 182.666ZM599.504 180.369H595.414C595.43 180.924 595.6 181.352 595.924 181.652C596.252 181.953 596.701 182.104 597.271 182.104C597.912 182.104 598.5 181.912 599.035 181.529V182.625C598.488 182.969 597.766 183.141 596.867 183.141C595.984 183.141 595.291 182.869 594.787 182.326C594.287 181.779 594.037 181.012 594.037 180.023C594.037 179.09 594.312 178.33 594.863 177.744C595.418 177.154 596.105 176.859 596.926 176.859C597.746 176.859 598.381 177.123 598.83 177.65C599.279 178.178 599.504 178.91 599.504 179.848V180.369ZM598.191 179.408C598.188 178.92 598.072 178.541 597.846 178.271C597.619 177.998 597.307 177.861 596.908 177.861C596.518 177.861 596.186 178.004 595.912 178.289C595.643 178.574 595.477 178.947 595.414 179.408H598.191ZM605.094 182.725C604.613 183.002 604.045 183.141 603.389 183.141C602.498 183.141 601.779 182.863 601.232 182.309C600.686 181.75 600.412 181.027 600.412 180.141C600.412 179.152 600.705 178.359 601.291 177.762C601.881 177.16 602.668 176.859 603.652 176.859C604.199 176.859 604.682 176.955 605.1 177.146V178.412C604.682 178.1 604.236 177.943 603.764 177.943C603.189 177.943 602.719 178.139 602.352 178.529C601.984 178.916 601.801 179.424 601.801 180.053C601.801 180.674 601.973 181.164 602.316 181.523C602.664 181.883 603.129 182.062 603.711 182.062C604.199 182.062 604.66 181.889 605.094 181.541V182.725ZM609.611 182.936C609.346 183.068 608.996 183.135 608.562 183.135C607.398 183.135 606.816 182.576 606.816 181.459V178.066H605.814V177H606.816V175.611L608.176 175.225V177H609.611V178.066H608.176V181.066C608.176 181.422 608.24 181.676 608.369 181.828C608.498 181.98 608.713 182.057 609.014 182.057C609.244 182.057 609.443 181.99 609.611 181.857V182.936ZM611.469 175.74C611.246 175.74 611.055 175.668 610.895 175.523C610.738 175.379 610.66 175.195 610.66 174.973C610.66 174.75 610.738 174.564 610.895 174.416C611.055 174.268 611.246 174.193 611.469 174.193C611.699 174.193 611.895 174.268 612.055 174.416C612.215 174.564 612.295 174.75 612.295 174.973C612.295 175.184 612.215 175.365 612.055 175.518C611.895 175.666 611.699 175.74 611.469 175.74ZM612.143 183H610.783V177H612.143V183ZM616.584 183.141C615.658 183.141 614.918 182.861 614.363 182.303C613.812 181.74 613.537 180.996 613.537 180.07C613.537 179.062 613.824 178.275 614.398 177.709C614.977 177.143 615.754 176.859 616.73 176.859C617.668 176.859 618.398 177.135 618.922 177.686C619.445 178.236 619.707 179 619.707 179.977C619.707 180.934 619.424 181.701 618.857 182.279C618.295 182.854 617.537 183.141 616.584 183.141ZM616.648 177.943C616.117 177.943 615.697 178.129 615.389 178.5C615.08 178.871 614.926 179.383 614.926 180.035C614.926 180.664 615.082 181.16 615.395 181.523C615.707 181.883 616.125 182.062 616.648 182.062C617.184 182.062 617.594 181.885 617.879 181.529C618.168 181.174 618.312 180.668 618.312 180.012C618.312 179.352 618.168 178.842 617.879 178.482C617.594 178.123 617.184 177.943 616.648 177.943ZM626.439 183H625.08V179.619C625.08 178.498 624.684 177.938 623.891 177.938C623.477 177.938 623.135 178.094 622.865 178.406C622.596 178.715 622.461 179.105 622.461 179.578V183H621.096V177H622.461V177.996H622.484C622.934 177.238 623.582 176.859 624.43 176.859C625.082 176.859 625.58 177.072 625.924 177.498C626.268 177.92 626.439 178.531 626.439 179.332V183ZM636.74 183H635.381V179.719C635.381 178.531 634.984 177.938 634.191 177.938C633.793 177.938 633.457 178.109 633.184 178.453C632.91 178.797 632.773 179.236 632.773 179.771V183H631.408V174.117H632.773V177.996H632.797C633.25 177.238 633.898 176.859 634.742 176.859C636.074 176.859 636.74 177.674 636.74 179.303V183ZM643.473 180.369H639.383C639.398 180.924 639.568 181.352 639.893 181.652C640.221 181.953 640.67 182.104 641.24 182.104C641.881 182.104 642.469 181.912 643.004 181.529V182.625C642.457 182.969 641.734 183.141 640.836 183.141C639.953 183.141 639.26 182.869 638.756 182.326C638.256 181.779 638.006 181.012 638.006 180.023C638.006 179.09 638.281 178.33 638.832 177.744C639.387 177.154 640.074 176.859 640.895 176.859C641.715 176.859 642.35 177.123 642.799 177.65C643.248 178.178 643.473 178.91 643.473 179.848V180.369ZM642.16 179.408C642.156 178.92 642.041 178.541 641.814 178.271C641.588 177.998 641.275 177.861 640.877 177.861C640.486 177.861 640.154 178.004 639.881 178.289C639.611 178.574 639.445 178.947 639.383 179.408H642.16ZM649.373 183H648.055V182.062H648.031C647.617 182.781 647.01 183.141 646.209 183.141C645.619 183.141 645.156 182.98 644.82 182.66C644.488 182.34 644.322 181.916 644.322 181.389C644.322 180.256 644.975 179.596 646.279 179.408L648.061 179.156C648.061 178.301 647.654 177.873 646.842 177.873C646.127 177.873 645.482 178.119 644.908 178.611V177.422C645.541 177.047 646.271 176.859 647.1 176.859C648.615 176.859 649.373 177.605 649.373 179.098V183ZM648.061 180.053L646.801 180.229C646.41 180.279 646.115 180.375 645.916 180.516C645.721 180.652 645.623 180.895 645.623 181.242C645.623 181.496 645.713 181.705 645.893 181.869C646.076 182.029 646.32 182.109 646.625 182.109C647.039 182.109 647.381 181.965 647.65 181.676C647.924 181.383 648.061 181.016 648.061 180.574V180.053ZM656.492 183H655.133V181.98H655.109C654.672 182.754 653.998 183.141 653.088 183.141C652.35 183.141 651.758 182.873 651.312 182.338C650.871 181.799 650.65 181.066 650.65 180.141C650.65 179.148 650.895 178.354 651.383 177.756C651.875 177.158 652.529 176.859 653.346 176.859C654.154 176.859 654.742 177.184 655.109 177.832H655.133V174.117H656.492V183ZM655.15 180.258V179.473C655.15 179.047 655.012 178.686 654.734 178.389C654.457 178.092 654.104 177.943 653.674 177.943C653.166 177.943 652.766 178.133 652.473 178.512C652.184 178.891 652.039 179.416 652.039 180.088C652.039 180.697 652.178 181.18 652.455 181.535C652.736 181.887 653.113 182.062 653.586 182.062C654.051 182.062 654.428 181.893 654.717 181.553C655.006 181.209 655.15 180.777 655.15 180.258ZM663.348 180.369H659.258C659.273 180.924 659.443 181.352 659.768 181.652C660.096 181.953 660.545 182.104 661.115 182.104C661.756 182.104 662.344 181.912 662.879 181.529V182.625C662.332 182.969 661.609 183.141 660.711 183.141C659.828 183.141 659.135 182.869 658.631 182.326C658.131 181.779 657.881 181.012 657.881 180.023C657.881 179.09 658.156 178.33 658.707 177.744C659.262 177.154 659.949 176.859 660.77 176.859C661.59 176.859 662.225 177.123 662.674 177.65C663.123 178.178 663.348 178.91 663.348 179.848V180.369ZM662.035 179.408C662.031 178.92 661.916 178.541 661.689 178.271C661.463 177.998 661.15 177.861 660.752 177.861C660.361 177.861 660.029 178.004 659.756 178.289C659.486 178.574 659.32 178.947 659.258 179.408H662.035ZM668.123 178.295C667.959 178.166 667.723 178.102 667.414 178.102C667.012 178.102 666.676 178.283 666.406 178.646C666.137 179.01 666.002 179.504 666.002 180.129V183H664.643V177H666.002V178.236H666.025C666.158 177.814 666.361 177.486 666.635 177.252C666.912 177.014 667.221 176.895 667.561 176.895C667.807 176.895 667.994 176.932 668.123 177.006V178.295Z" fill="#616161"/>
<path d="M579 200C579 197.791 580.791 196 583 196H815C817.209 196 819 197.791 819 200V224C819 226.209 817.209 228 815 228H583C580.791 228 579 226.209 579 224V200Z" fill="white"/>
<path d="M599 209.5C599 210.328 598.328 211 597.5 211C596.672 211 596 210.328 596 209.5C596 208.672 596.672 208 597.5 208C598.328 208 599 208.672 599 209.5ZM598 209.5C598 209.224 597.776 209 597.5 209C597.224 209 597 209.224 597 209.5C597 209.776 597.224 210 597.5 210C597.776 210 598 209.776 598 209.5ZM588 208C588 206.343 589.343 205 591 205H599C600.657 205 602 206.343 602 208V216C602 217.657 600.657 219 599 219H591C589.343 219 588 217.657 588 216V208ZM591 206C589.895 206 589 206.895 589 208V216C589 216.373 589.102 216.721 589.279 217.02L593.949 212.432C594.532 211.859 595.468 211.859 596.051 212.432L600.721 217.02C600.898 216.721 601 216.373 601 216V208C601 206.895 600.105 206 599 206H591ZM591 218H599C599.369 218 599.715 217.9 600.012 217.726L595.35 213.145C595.156 212.954 594.844 212.954 594.65 213.145L589.988 217.726C590.285 217.9 590.631 218 591 218Z" fill="#424242"/>
<path d="M619.873 218H618.602L617.562 215.252H613.406L612.429 218H611.15L614.91 208.197H616.1L619.873 218ZM617.187 214.22L615.648 210.043C615.598 209.906 615.548 209.688 615.498 209.387H615.471C615.425 209.665 615.373 209.883 615.313 210.043L613.789 214.22H617.187ZM625.943 217.679C625.406 218.002 624.768 218.164 624.029 218.164C623.031 218.164 622.225 217.84 621.609 217.193C620.999 216.542 620.693 215.699 620.693 214.664C620.693 213.511 621.024 212.586 621.685 211.889C622.345 211.187 623.227 210.836 624.33 210.836C624.945 210.836 625.488 210.95 625.957 211.178V212.326C625.438 211.962 624.882 211.779 624.289 211.779C623.574 211.779 622.986 212.037 622.525 212.552C622.07 213.062 621.842 213.734 621.842 214.568C621.842 215.389 622.056 216.036 622.484 216.51C622.917 216.984 623.496 217.221 624.221 217.221C624.831 217.221 625.406 217.018 625.943 216.612V217.679ZM630.886 217.932C630.621 218.077 630.273 218.15 629.84 218.15C628.614 218.15 628.001 217.467 628.001 216.1V211.957H626.798V211H628.001V209.291L629.122 208.929V211H630.886V211.957H629.122V215.901C629.122 216.371 629.202 216.706 629.361 216.906C629.521 217.107 629.785 217.207 630.154 217.207C630.437 217.207 630.681 217.13 630.886 216.975V217.932ZM632.957 209.223C632.757 209.223 632.586 209.154 632.444 209.018C632.303 208.881 632.232 208.708 632.232 208.498C632.232 208.288 632.303 208.115 632.444 207.979C632.586 207.837 632.757 207.767 632.957 207.767C633.162 207.767 633.335 207.837 633.477 207.979C633.622 208.115 633.695 208.288 633.695 208.498C633.695 208.699 633.622 208.869 633.477 209.011C633.335 209.152 633.162 209.223 632.957 209.223ZM633.504 218H632.383V211H633.504V218ZM638.699 218.164C637.665 218.164 636.838 217.838 636.218 217.187C635.603 216.53 635.295 215.662 635.295 214.582C635.295 213.406 635.616 212.488 636.259 211.827C636.901 211.166 637.77 210.836 638.863 210.836C639.907 210.836 640.72 211.157 641.304 211.8C641.892 212.442 642.186 213.333 642.186 214.473C642.186 215.589 641.869 216.485 641.235 217.159C640.606 217.829 639.761 218.164 638.699 218.164ZM638.781 211.779C638.061 211.779 637.492 212.025 637.072 212.518C636.653 213.005 636.443 213.68 636.443 214.541C636.443 215.37 636.655 216.024 637.079 216.503C637.503 216.981 638.07 217.221 638.781 217.221C639.506 217.221 640.062 216.986 640.449 216.517C640.841 216.047 641.037 215.38 641.037 214.514C641.037 213.639 640.841 212.964 640.449 212.49C640.062 212.016 639.506 211.779 638.781 211.779ZM649.787 218H648.666V214.008C648.666 212.522 648.124 211.779 647.039 211.779C646.479 211.779 646.014 211.991 645.645 212.415C645.28 212.834 645.098 213.365 645.098 214.008V218H643.977V211H645.098V212.162H645.125C645.654 211.278 646.419 210.836 647.422 210.836C648.188 210.836 648.773 211.084 649.179 211.581C649.584 212.073 649.787 212.786 649.787 213.721V218Z" fill="#424242"/>
<path d="M708.312 217.604V216.25C708.466 216.387 708.651 216.51 708.865 216.619C709.084 216.729 709.312 216.822 709.549 216.899C709.79 216.972 710.032 217.029 710.273 217.07C710.515 217.111 710.738 217.132 710.943 217.132C711.65 217.132 712.176 217.002 712.522 216.742C712.873 216.478 713.049 216.1 713.049 215.607C713.049 215.343 712.99 215.113 712.871 214.917C712.757 214.721 712.598 214.543 712.393 214.384C712.188 214.22 711.944 214.065 711.661 213.919C711.383 213.769 711.082 213.611 710.759 213.447C710.417 213.274 710.098 213.099 709.802 212.921C709.506 212.743 709.248 212.547 709.029 212.333C708.811 212.119 708.637 211.877 708.51 211.608C708.387 211.335 708.325 211.016 708.325 210.651C708.325 210.205 708.423 209.817 708.619 209.489C708.815 209.157 709.073 208.883 709.392 208.669C709.711 208.455 710.073 208.295 710.479 208.19C710.889 208.086 711.306 208.033 711.729 208.033C712.696 208.033 713.4 208.149 713.842 208.382V209.674C713.263 209.273 712.52 209.072 711.613 209.072C711.363 209.072 711.112 209.1 710.861 209.154C710.611 209.204 710.387 209.289 710.191 209.407C709.995 209.526 709.836 209.678 709.713 209.865C709.59 210.052 709.528 210.28 709.528 210.549C709.528 210.799 709.574 211.016 709.665 211.198C709.761 211.381 709.9 211.547 710.082 211.697C710.264 211.848 710.485 211.993 710.745 212.135C711.009 212.276 711.312 212.431 711.654 212.6C712.005 212.773 712.338 212.955 712.652 213.146C712.967 213.338 713.243 213.55 713.479 213.782C713.716 214.015 713.903 214.272 714.04 214.555C714.181 214.837 714.252 215.161 714.252 215.525C714.252 216.008 714.156 216.419 713.965 216.756C713.778 217.089 713.523 217.36 713.199 217.569C712.88 217.779 712.511 217.929 712.092 218.021C711.673 218.116 711.23 218.164 710.766 218.164C710.611 218.164 710.419 218.15 710.191 218.123C709.964 218.1 709.731 218.064 709.494 218.014C709.257 217.968 709.032 217.911 708.817 217.843C708.608 217.77 708.439 217.69 708.312 217.604ZM721.867 218H720.746V213.967C720.746 212.508 720.204 211.779 719.119 211.779C718.572 211.779 718.112 211.991 717.738 212.415C717.365 212.834 717.178 213.374 717.178 214.035V218H716.057V207.637H717.178V212.162H717.205C717.743 211.278 718.508 210.836 719.502 210.836C721.079 210.836 721.867 211.786 721.867 213.687V218ZM726.912 218.164C725.878 218.164 725.05 217.838 724.431 217.187C723.815 216.53 723.508 215.662 723.508 214.582C723.508 213.406 723.829 212.488 724.472 211.827C725.114 211.166 725.982 210.836 727.076 210.836C728.12 210.836 728.933 211.157 729.517 211.8C730.104 212.442 730.398 213.333 730.398 214.473C730.398 215.589 730.082 216.485 729.448 217.159C728.819 217.829 727.974 218.164 726.912 218.164ZM726.994 211.779C726.274 211.779 725.704 212.025 725.285 212.518C724.866 213.005 724.656 213.68 724.656 214.541C724.656 215.37 724.868 216.024 725.292 216.503C725.716 216.981 726.283 217.221 726.994 217.221C727.719 217.221 728.275 216.986 728.662 216.517C729.054 216.047 729.25 215.38 729.25 214.514C729.25 213.639 729.054 212.964 728.662 212.49C728.275 212.016 727.719 211.779 726.994 211.779ZM735.84 212.135C735.644 211.984 735.361 211.909 734.992 211.909C734.514 211.909 734.113 212.135 733.789 212.586C733.47 213.037 733.311 213.652 733.311 214.432V218H732.189V211H733.311V212.442H733.338C733.497 211.95 733.741 211.567 734.069 211.294C734.397 211.016 734.764 210.877 735.17 210.877C735.462 210.877 735.685 210.909 735.84 210.973V212.135ZM740.714 217.932C740.45 218.077 740.101 218.15 739.668 218.15C738.442 218.15 737.829 217.467 737.829 216.1V211.957H736.626V211H737.829V209.291L738.95 208.929V211H740.714V211.957H738.95V215.901C738.95 216.371 739.03 216.706 739.189 216.906C739.349 217.107 739.613 217.207 739.982 217.207C740.265 217.207 740.509 217.13 740.714 216.975V217.932ZM746.791 217.679C746.253 218.002 745.615 218.164 744.877 218.164C743.879 218.164 743.072 217.84 742.457 217.193C741.846 216.542 741.541 215.699 741.541 214.664C741.541 213.511 741.871 212.586 742.532 211.889C743.193 211.187 744.075 210.836 745.178 210.836C745.793 210.836 746.335 210.95 746.805 211.178V212.326C746.285 211.962 745.729 211.779 745.137 211.779C744.421 211.779 743.833 212.037 743.373 212.552C742.917 213.062 742.689 213.734 742.689 214.568C742.689 215.389 742.904 216.036 743.332 216.51C743.765 216.984 744.344 217.221 745.068 217.221C745.679 217.221 746.253 217.018 746.791 216.612V217.679ZM754.146 218H753.025V216.893H752.998C752.533 217.74 751.813 218.164 750.838 218.164C749.17 218.164 748.336 217.171 748.336 215.184V211H749.45V215.006C749.45 216.482 750.015 217.221 751.146 217.221C751.692 217.221 752.141 217.02 752.492 216.619C752.848 216.214 753.025 215.685 753.025 215.033V211H754.146V218ZM759.663 217.932C759.399 218.077 759.05 218.15 758.617 218.15C757.391 218.15 756.778 217.467 756.778 216.1V211.957H755.575V211H756.778V209.291L757.899 208.929V211H759.663V211.957H757.899V215.901C757.899 216.371 757.979 216.706 758.139 216.906C758.298 217.107 758.562 217.207 758.932 217.207C759.214 217.207 759.458 217.13 759.663 216.975V217.932ZM768.249 217.932C767.985 218.077 767.636 218.15 767.203 218.15C765.977 218.15 765.364 217.467 765.364 216.1V211.957H764.161V211H765.364V209.291L766.485 208.929V211H768.249V211.957H766.485V215.901C766.485 216.371 766.565 216.706 766.725 216.906C766.884 217.107 767.148 217.207 767.518 217.207C767.8 217.207 768.044 217.13 768.249 216.975V217.932ZM775.263 214.78H770.32C770.339 215.56 770.548 216.161 770.949 216.585C771.35 217.009 771.902 217.221 772.604 217.221C773.392 217.221 774.117 216.961 774.777 216.441V217.494C774.162 217.941 773.349 218.164 772.337 218.164C771.348 218.164 770.571 217.847 770.006 217.214C769.441 216.576 769.158 215.68 769.158 214.527C769.158 213.438 769.466 212.552 770.081 211.868C770.701 211.18 771.469 210.836 772.385 210.836C773.301 210.836 774.009 211.132 774.511 211.725C775.012 212.317 775.263 213.14 775.263 214.192V214.78ZM774.114 213.83C774.11 213.183 773.952 212.679 773.643 212.319C773.337 211.959 772.911 211.779 772.364 211.779C771.836 211.779 771.387 211.968 771.018 212.347C770.648 212.725 770.421 213.219 770.334 213.83H774.114ZM782.078 211L779.727 214.541L782.037 218H780.731L779.357 215.73C779.271 215.589 779.168 215.411 779.05 215.197H779.022C779 215.238 778.893 215.416 778.701 215.73L777.3 218H776.008L778.394 214.568L776.11 211H777.416L778.77 213.393C778.87 213.57 778.968 213.753 779.063 213.939H779.091L780.841 211H782.078ZM786.638 217.932C786.373 218.077 786.025 218.15 785.592 218.15C784.366 218.15 783.753 217.467 783.753 216.1V211.957H782.55V211H783.753V209.291L784.874 208.929V211H786.638V211.957H784.874V215.901C784.874 216.371 784.954 216.706 785.113 216.906C785.273 217.107 785.537 217.207 785.906 217.207C786.189 217.207 786.433 217.13 786.638 216.975V217.932Z" fill="#616161"/>
<path d="M579 234C579 231.791 580.791 230 583 230H815C817.209 230 819 231.791 819 234V258C819 260.209 817.209 262 815 262H583C580.791 262 579 260.209 579 258V234Z" fill="white"/>
<path d="M599 243.5C599 244.328 598.328 245 597.5 245C596.672 245 596 244.328 596 243.5C596 242.672 596.672 242 597.5 242C598.328 242 599 242.672 599 243.5ZM598 243.5C598 243.224 597.776 243 597.5 243C597.224 243 597 243.224 597 243.5C597 243.776 597.224 244 597.5 244C597.776 244 598 243.776 598 243.5ZM588 242C588 240.343 589.343 239 591 239H599C600.657 239 602 240.343 602 242V250C602 251.657 600.657 253 599 253H591C589.343 253 588 251.657 588 250V242ZM591 240C589.895 240 589 240.895 589 242V250C589 250.373 589.102 250.721 589.279 251.02L593.949 246.432C594.532 245.859 595.468 245.859 596.051 246.432L600.721 251.02C600.898 250.721 601 250.373 601 250V242C601 240.895 600.105 240 599 240H591ZM591 252H599C599.369 252 599.715 251.9 600.012 251.726L595.35 247.145C595.156 246.954 594.844 246.954 594.65 247.145L589.988 251.726C590.285 251.9 590.631 252 591 252Z" fill="#424242"/>
</g>
</g>
</g>
<defs>
<filter id="filter0_dd_4196_27282" x="279" y="156" width="280" height="96" filterUnits="userSpaceOnUse" color-interpolation-filters="sRGB">
<feFlood flood-opacity="0" result="BackgroundImageFix"/>
<feColorMatrix in="SourceAlpha" type="matrix" values="0 0 0 0 0 0 0 0 0 0 0 0 0 0 0 0 0 0 127 0" result="hardAlpha"/>
<feOffset/>
<feGaussianBlur stdDeviation="1"/>
<feComposite in2="hardAlpha" operator="out"/>
<feColorMatrix type="matrix" values="0 0 0 0 0 0 0 0 0 0 0 0 0 0 0 0 0 0 0.12 0"/>
<feBlend mode="normal" in2="BackgroundImageFix" result="effect1_dropShadow_4196_27282"/>
<feColorMatrix in="SourceAlpha" type="matrix" values="0 0 0 0 0 0 0 0 0 0 0 0 0 0 0 0 0 0 127 0" result="hardAlpha"/>
<feOffset dy="2"/>
<feGaussianBlur stdDeviation="2"/>
<feComposite in2="hardAlpha" operator="out"/>
<feColorMatrix type="matrix" values="0 0 0 0 0 0 0 0 0 0 0 0 0 0 0 0 0 0 0.14 0"/>
<feBlend mode="normal" in2="effect1_dropShadow_4196_27282" result="effect2_dropShadow_4196_27282"/>
<feBlend mode="normal" in="SourceGraphic" in2="effect2_dropShadow_4196_27282" result="shape"/>
</filter>
<filter id="filter1_dd_4196_27282" x="-13" y="-23" width="256" height="66" filterUnits="userSpaceOnUse" color-interpolation-filters="sRGB">
<feFlood flood-opacity="0" result="BackgroundImageFix"/>
<feColorMatrix in="SourceAlpha" type="matrix" values="0 0 0 0 0 0 0 0 0 0 0 0 0 0 0 0 0 0 127 0" result="hardAlpha"/>
<feOffset/>
<feGaussianBlur stdDeviation="1"/>
<feComposite in2="hardAlpha" operator="out"/>
<feColorMatrix type="matrix" values="0 0 0 0 0 0 0 0 0 0 0 0 0 0 0 0 0 0 0.12 0"/>
<feBlend mode="normal" in2="BackgroundImageFix" result="effect1_dropShadow_4196_27282"/>
<feColorMatrix in="SourceAlpha" type="matrix" values="0 0 0 0 0 0 0 0 0 0 0 0 0 0 0 0 0 0 127 0" result="hardAlpha"/>
<feOffset dy="4"/>
<feGaussianBlur stdDeviation="4"/>
<feComposite in2="hardAlpha" operator="out"/>
<feColorMatrix type="matrix" values="0 0 0 0 0 0 0 0 0 0 0 0 0 0 0 0 0 0 0.14 0"/>
<feBlend mode="normal" in2="effect1_dropShadow_4196_27282" result="effect2_dropShadow_4196_27282"/>
<feBlend mode="normal" in="SourceGraphic" in2="effect2_dropShadow_4196_27282" result="shape"/>
</filter>
<filter id="filter2_dd_4196_27282" x="559" y="150" width="280" height="317" filterUnits="userSpaceOnUse" color-interpolation-filters="sRGB">
<feFlood flood-opacity="0" result="BackgroundImageFix"/>
<feColorMatrix in="SourceAlpha" type="matrix" values="0 0 0 0 0 0 0 0 0 0 0 0 0 0 0 0 0 0 127 0" result="hardAlpha"/>
<feOffset/>
<feGaussianBlur stdDeviation="1"/>
<feComposite in2="hardAlpha" operator="out"/>
<feColorMatrix type="matrix" values="0 0 0 0 0 0 0 0 0 0 0 0 0 0 0 0 0 0 0.12 0"/>
<feBlend mode="normal" in2="BackgroundImageFix" result="effect1_dropShadow_4196_27282"/>
<feColorMatrix in="SourceAlpha" type="matrix" values="0 0 0 0 0 0 0 0 0 0 0 0 0 0 0 0 0 0 127 0" result="hardAlpha"/>
<feOffset dy="8"/>
<feGaussianBlur stdDeviation="8"/>
<feComposite in2="hardAlpha" operator="out"/>
<feColorMatrix type="matrix" values="0 0 0 0 0 0 0 0 0 0 0 0 0 0 0 0 0 0 0.14 0"/>
<feBlend mode="normal" in2="effect1_dropShadow_4196_27282" result="effect2_dropShadow_4196_27282"/>
<feBlend mode="normal" in="SourceGraphic" in2="effect2_dropShadow_4196_27282" result="shape"/>
</filter>
<clipPath id="clip0_4196_27282">
<rect width="720" height="240" fill="white"/>
</clipPath>
<clipPath id="clip1_4196_27282">
<path d="M184 49C184 46.7909 185.791 45 188 45H460C462.209 45 464 46.7909 464 49V73C464 75.2091 462.209 77 460 77H188C185.791 77 184 75.2091 184 73V49Z" fill="white"/>
</clipPath>
</defs>
</svg>
