<svg width="240" height="128" viewBox="0 0 240 128" fill="none" xmlns="http://www.w3.org/2000/svg">
<g clip-path="url(#clip0_1736_6841)">
<path d="M70.9642 54.1789C71.0826 55.6031 70.6091 56.968 69.7213 58.8076C68.9519 60.3504 67.709 61.5373 66.4069 63.1395C65.1048 64.7417 63.6252 66.1659 61.8496 67.4714C60.1332 68.8363 58.5943 70.0825 56.582 70.9726C54.5697 71.8627 52.7941 72.8715 51.0777 73.0496C49.3613 73.2276 47.8816 73.1089 46.6387 72.6935C45.3958 72.2781 44.3896 71.566 43.7386 70.6166C43.0875 69.6671 42.7324 68.4803 42.7916 67.0561C42.8508 65.6319 43.2651 64.1483 43.9753 62.6054C44.6856 61.1219 45.6917 59.579 46.9346 58.1548C48.1776 56.7306 49.598 55.3657 51.1961 54.1196C52.7941 52.8734 54.5105 51.8052 56.4044 50.9151C58.2392 50.025 60.0148 49.4909 61.672 49.1942C63.3292 48.8975 64.8089 48.8975 66.111 49.1942C67.4131 49.4909 68.5968 49.9063 69.3662 50.7964C70.1356 51.6866 70.8459 52.8141 70.9642 54.1789ZM64.7497 59.757C64.6905 59.1043 64.5129 58.5109 64.1578 58.0955C63.8027 57.6801 63.27 57.3834 62.6782 57.2053C62.0863 57.0273 61.3169 57.0273 60.5475 57.146C59.6597 57.2647 58.8311 57.5614 57.8841 57.9768C56.9963 58.3922 56.1085 58.9262 55.3391 59.5197C54.5697 60.1131 53.8594 60.7658 53.2676 61.4779C52.6757 62.19 52.2022 62.9021 51.8471 63.6736C51.492 64.3857 51.3144 65.1571 51.3144 65.8099C51.3144 66.522 51.492 67.0561 51.8471 67.5308C52.2022 68.0055 52.6757 68.3022 53.2676 68.4803C53.8594 68.6583 54.6289 68.7176 55.3983 68.5989C56.2269 68.4803 57.1147 68.2429 58.0617 67.8275C59.0086 67.4121 59.8964 66.878 60.725 66.2253C61.5536 65.5725 62.2639 64.9198 62.8557 64.1483C63.4476 63.4362 63.9211 62.6648 64.2762 61.8933C64.6313 61.1812 64.7497 60.4098 64.7497 59.757Z" fill="url(#paint0_radial_1736_6841)"/>
<path d="M19.8866 5.45936C14.6782 8.66381 11.6005 10.3847 7.81257 15.0727C6.27373 16.9123 5.38594 18.0398 4.32059 20.1761C3.78791 21.2442 3.13686 23.0245 3.13686 23.0245L2.90012 24.9828L2.48581 27.7125L2.30826 30.0862L2.24907 30.9169C2.24907 30.7389 2.24907 30.5016 2.30826 30.2642C2.30826 30.0862 2.36744 29.8488 2.36744 29.6708C2.42663 29.4334 2.42663 29.196 2.48581 29.018C2.545 28.7213 2.60419 28.4839 2.66337 28.2466C3.25523 25.8729 4.32059 23.3805 6.03699 20.5321C7.87176 17.4464 9.29223 15.9035 11.8372 13.3518C14.3822 10.8595 16.0986 9.0792 19.1171 6.76488C21.0111 5.40002 25.5684 2.49228 28.2318 2.13623C29.3563 2.07689 25.8052 2.31425 24.4439 2.96701C22.6091 3.85714 21.603 4.39121 19.8866 5.45936Z" fill="url(#paint1_radial_1736_6841)"/>
<path d="M57.4698 7.53638L55.5166 5.51877L53.4451 3.61983L52.3798 2.78905L50.0123 1.83958C48.7102 1.42419 47.1122 0.830775 45.3958 0.593408C43.7386 0.356041 41.1936 -8.75034e-06 39.1813 0.474725C37.1097 0.890116 35.8076 1.36485 33.4994 2.31432C31.3095 3.26378 28.942 4.50996 26.4562 5.9935C23.0826 8.1298 19.8866 10.5035 16.8681 13.1145C13.9088 15.7255 11.127 18.5739 8.75955 21.4223C6.33292 24.3301 4.32059 27.3565 2.72256 30.2642C1.12453 33.2313 0.473487 36.1984 -2.65254e-06 38.8688C-0.0591888 39.4029 -2.65254e-06 39.8776 -0.0591888 40.4117C-0.0591888 40.9457 0.414301 44.0909 0.946976 46.3458C1.18372 47.3547 1.30209 47.8887 1.65721 48.8382C2.01233 49.9657 2.84093 51.5679 2.84093 51.5679L3.25524 52.28L4.14303 53.7636C3.78791 53.2295 3.55117 52.6954 3.31442 52.102C3.07768 51.5086 2.95931 50.8558 2.84093 50.203C2.66338 49.4909 2.66338 48.7788 2.66338 48.0074C2.66338 47.236 2.72256 46.4645 2.84093 45.6337C3.25524 42.726 4.37978 39.5809 6.03699 36.3764C7.63502 33.2313 9.76572 30.0862 12.3107 27.0005C14.7965 23.974 17.6375 20.9476 20.7744 18.2179C23.9112 15.4882 27.2848 12.9365 30.836 10.8002C33.7361 9.07927 36.5179 7.65507 39.1813 6.64626C41.8446 5.63745 44.3896 4.92535 46.6979 4.62864C49.0654 4.33193 51.1961 4.39128 52.9716 4.86601C54.8064 5.40008 56.3453 6.23087 57.4698 7.53638Z" fill="url(#paint2_radial_1736_6841)"/>
<path d="M70.1948 23.2025L66.9396 14.5979L66.111 12.699C64.9864 10.8001 63.0925 9.55389 61.021 8.78245C58.8903 8.07035 55.2207 8.07035 52.439 8.36706C49.7164 8.66377 46.7571 9.43521 43.6202 10.6814C40.4834 11.9276 37.2281 13.6485 33.8545 15.8441C30.1258 18.2771 26.5746 21.1255 23.3785 24.1519C20.2417 27.119 17.3416 30.3828 14.9149 33.706C12.4291 37.0884 10.3576 40.5302 8.87793 43.8534C7.39828 47.2952 6.4513 50.6183 6.27374 53.7041C6.21455 54.8909 6.27374 55.9591 6.39211 56.9679C6.51048 57.9767 6.80641 58.9262 7.16153 59.757C7.51665 60.5877 7.99014 61.4185 8.52281 62.0713C9.05549 62.7834 9.70654 63.3768 10.476 63.8515L13.021 65.4538L15.4476 66.7593L18.111 67.9461L20.5376 68.7769C19.3539 68.4208 18.3477 67.8868 17.4599 67.234C16.5721 66.5812 15.8027 65.8098 15.2109 64.8603C14.619 63.9109 14.1455 62.9021 13.9088 61.7152C13.6128 60.6471 13.4945 59.3416 13.4945 57.9174C13.6128 55.0096 14.3822 51.8645 15.7435 48.6601C17.0456 45.5149 18.9396 42.2512 21.1887 39.106C23.4377 35.9609 26.1011 32.9345 29.0604 30.1455C32.0197 27.3564 35.3342 24.7454 38.8261 22.4904C42.3181 20.2354 45.7509 18.5738 48.947 17.4463C52.2022 16.3188 56.4636 15.4881 59.1862 15.4881C61.9679 15.4881 64.3946 16.1408 66.2293 17.387C68.1825 18.6925 68.5376 20.8288 69.1887 23.4398L70.1948 23.2025Z" fill="url(#paint3_radial_1736_6841)"/>
<path d="M72.7398 41.005C72.2663 38.9874 71.2602 37.3852 69.7805 36.3171C68.3601 35.2489 66.4661 34.7148 64.3354 34.5961C62.2047 34.4775 59.7781 34.8335 57.233 35.605C54.688 36.4357 52.0247 37.6226 49.2429 39.3435C46.5203 41.005 43.9753 42.9633 41.6671 45.0996C39.418 47.2359 37.3465 49.5502 35.6893 51.9239C33.9729 54.2976 32.6708 56.7899 31.783 59.1636C30.8952 61.5966 30.4217 63.9109 30.5401 66.0472C30.6584 67.9462 31.1911 69.5484 32.0789 70.8539C32.9667 72.1594 34.2688 73.0495 35.8668 73.643C37.4649 74.2364 39.418 74.4144 41.6079 74.2364C43.7978 73.999 46.2244 73.4056 48.8286 72.3374L48.3551 72.5155L46.106 73.3463L45.455 73.5836L42.9692 74.2957L40.4242 74.8891L39.0629 75.1265L36.2811 75.4826L33.4402 75.6606H33.0259C31.0728 75.5419 29.5931 75.3045 28.0543 75.0078C26.5746 74.6518 25.3909 73.9397 24.3255 73.0496C23.3194 72.1594 22.5499 71.0319 21.9581 69.7264C21.4254 68.4209 21.1295 66.9374 21.1295 65.2758C21.0703 62.6054 21.7213 59.6383 22.9642 56.6713C24.148 53.7042 25.8644 50.6777 27.9951 47.7107C30.1258 44.7436 32.6708 41.8952 35.5117 39.2248C38.3527 36.5544 41.5487 34.1214 44.9223 31.9851C48.3551 29.8488 51.6695 28.2466 54.8064 27.2378C58.0025 26.1103 60.9618 25.5762 63.6252 25.6356C66.3477 25.6949 69.8397 26.5257 71.6745 27.7125C73.2725 28.7807 74.2787 29.4928 75.2257 31.3324C75.4032 31.7477 75.4032 32.0445 75.5216 32.4598C75.4624 33.1126 75.1073 36.6731 74.9889 37.3259C74.8705 37.9786 74.693 38.6314 74.5154 39.2841C74.3379 39.8776 72.9766 40.3523 72.7398 41.005Z" fill="url(#paint4_radial_1736_6841)"/>
<path d="M41.4303 4.92527C41.0752 6.17145 40.2466 7.47697 39.0629 8.78248C37.8792 10.1473 36.2811 11.4529 34.4464 12.7584C32.5524 14.0639 30.4809 15.3101 28.2318 16.3782C25.9827 17.4464 23.6745 18.3365 21.307 18.9893C18.9396 19.642 16.8089 19.9981 15.0333 20.0574C13.2577 20.1167 11.7189 19.9387 10.5943 19.5233C9.46979 19.0486 8.75956 18.3958 8.40444 17.5057C8.10851 16.6749 8.1677 15.6068 8.70037 14.3606C8.87793 14.0046 9.05549 13.5892 9.29224 13.2331C9.58817 12.8771 9.82491 12.4617 10.18 12.1056C10.476 11.7496 10.8311 11.3342 11.1862 10.9781C11.5413 10.6221 11.9556 10.2067 12.3699 9.85063L13.4945 8.84182L14.619 7.9517L15.6252 7.12092L16.6905 6.40882L17.6967 5.75606L18.7028 5.16264L19.709 4.62856C19.709 4.62856 17.6967 6.17145 16.7497 7.41762C16.0986 8.07038 15.6843 8.6638 15.3884 9.25722C15.1517 9.85063 15.0925 10.3847 15.27 10.8001C15.4476 11.2155 15.8619 11.5122 16.3946 11.6902C17.0456 11.8683 17.7559 11.9869 18.6437 11.9276C19.5314 11.8683 20.5968 11.6902 21.7213 11.3342C22.8459 10.9781 24.0296 10.5627 25.095 10.0287C26.2195 9.55392 27.2257 8.96051 28.1134 8.30775C29.0012 7.71433 29.8298 7.00223 30.4217 6.40882C31.0136 5.75606 31.4871 5.1033 31.6646 4.50988C31.9014 3.91646 31.8422 3.44173 31.6054 3.02634C31.3687 2.67029 30.9544 2.37358 30.3625 2.19556C29.7707 2.01753 29.0604 2.07687 28.1726 2.2549C27.344 2.43292 26.3379 2.49226 25.2133 2.78897C24.5031 3.02634 24.0888 3.14502 23.4377 3.50107C25.5093 2.43292 26.7522 1.89885 29.0012 1.18675C30.4217 0.712014 31.4279 0.474647 32.7892 0.23728C34.328 -0.0594282 35.6301 -0.0594282 36.8138 0.0592552C37.9975 0.177939 39.0037 0.415305 39.7731 0.771355C40.5425 1.18675 41.1344 1.72082 41.4303 2.43292C41.7263 3.14502 41.7263 3.97581 41.4303 4.92527Z" fill="#E60012"/>
<path d="M70.5499 56.9087C70.5499 56.9087 70.0173 58.3329 69.5438 59.1637C69.1295 59.9351 68.2417 61.0033 68.2417 61.0033C68.2417 61.0033 67.9457 61.3593 67.7682 61.5967C67.2355 62.2494 66.4069 63.2583 66.4069 63.2583L65.2232 64.5044C64.0395 65.7506 62.6782 66.9374 61.1393 68.0649C59.6597 69.1924 58.0025 70.2606 56.2269 71.21C54.5105 72.1595 52.6165 72.9903 50.7226 73.7617C48.8286 74.4738 46.8755 75.0673 44.9223 75.4826C44.508 75.542 44.1529 75.6607 43.7978 75.72C43.4427 75.7794 43.0284 75.8387 42.6732 75.898C42.3773 75.9574 42.0222 75.9574 41.6671 76.0167C41.312 76.0761 40.9568 76.0761 40.6017 76.1354L38.471 76.1947H37.9975L35.6893 76.1354L33.3218 75.9574C33.3218 75.9574 32.9075 75.898 32.6708 75.898C31.7238 75.7794 31.1319 75.6607 30.185 75.4826C29.238 75.3046 27.6991 74.8892 27.6991 74.8892L26.4562 74.4738L26.1011 74.2958C26.9889 74.6519 28.1134 74.9486 29.2972 75.1266C30.4217 75.3046 31.6646 75.4233 32.9667 75.4233C34.2688 75.4233 35.6301 75.364 37.1097 75.2453C38.5302 75.0673 40.069 74.8299 41.6079 74.5332C45.1591 73.7617 48.7102 72.5749 52.0838 71.0914C55.4575 69.6078 58.5943 67.7682 61.4353 65.7506C64.2762 63.733 66.7028 61.5967 68.7152 59.2824C69.4254 58.4516 69.9581 57.7395 70.5499 56.9087C70.5499 56.9087 70.6091 56.8494 70.5499 56.9087Z" fill="#E60012"/>
<path d="M50.0123 1.89876L52.4981 2.84823L55.0432 3.97572L55.9309 4.45045C56.6412 4.8065 57.233 5.2219 57.7065 5.75597C58.18 6.17136 58.5943 6.70544 58.9494 7.3582C59.2454 7.95161 59.4821 8.66371 59.5413 9.37581C59.6005 10.0879 59.6005 10.9187 59.4229 11.7495C58.9494 14.0045 57.6473 16.4375 55.635 18.9298C53.5635 21.4815 50.7817 23.9739 47.5265 26.4069C44.2121 28.8399 40.4242 31.0949 36.3403 33.0531C32.2565 35.0114 27.9359 36.6136 23.5561 37.7411C19.709 38.7499 16.217 39.2247 13.1393 39.284C10.18 39.3434 7.63501 38.9873 5.62268 38.2752C3.66954 37.5631 2.24907 36.495 1.36128 35.1301C0.53267 33.7652 0.295925 32.163 0.710229 30.2641L0.887787 29.4333L1.59802 26.7629L2.48581 24.2112L3.43279 22.0156L4.2614 20.2353L4.08384 20.6507C4.14303 20.532 4.08384 20.7101 4.08384 20.7101C3.25523 22.4903 3.13686 24.0332 3.55117 25.2794C3.96547 26.5849 4.97163 27.653 6.56966 28.3058C8.16769 29.0179 10.2984 29.374 12.8434 29.3146C15.4476 29.3146 18.5253 28.8399 21.8989 27.9498C25.3317 27.0003 28.7645 25.7541 32.0197 24.1519C35.275 22.609 38.2935 20.8288 40.9568 18.9298C43.6202 17.0309 45.8693 15.0133 47.5857 13.055C49.2429 11.0967 50.3674 9.19779 50.8409 7.41754C51.0777 6.52741 51.0777 5.63729 50.9593 4.92519C50.7817 4.15375 50.4858 3.50099 50.0123 2.96691C49.5388 2.3735 48.947 1.89876 48.1776 1.54271C47.6449 1.30535 47.1122 1.06798 46.4612 0.889955L45.5734 0.652588C45.9877 0.71193 46.1652 0.71193 46.4612 0.830613C46.4612 0.830613 47.3489 1.06798 47.9408 1.246C48.7694 1.42403 50.0123 1.89876 50.0123 1.89876Z" fill="#E60012"/>
<path d="M66.7028 13.0552L68.5376 15.3695L70.254 17.8619L71.0234 19.1674C71.2602 19.5828 71.4377 19.9982 71.6153 20.4136C71.7929 20.829 71.9112 21.3037 71.9704 21.7784C72.0296 22.2532 72.0888 22.7872 72.0888 23.262C72.0888 23.796 72.0888 24.3301 71.9704 24.8642C71.6153 27.7719 70.1948 30.8577 67.8866 33.9435C65.5191 37.1479 62.3231 40.293 58.4168 43.3195C54.5105 46.4052 49.9531 49.1943 45.0407 51.5679C40.1282 53.9416 34.9199 55.8405 29.6523 57.0274C25.9236 57.9175 22.4908 58.3922 19.3539 58.5109C16.217 58.6296 13.4945 58.3922 11.127 57.8582C8.81875 57.2648 6.8656 56.434 5.38595 55.3065C3.96548 54.2383 2.90013 52.8735 2.30826 51.3306L1.7164 49.6097L0.887796 46.7019L0.295934 43.7348L0.236747 42.9041L0.0591888 41.2425C0.0591888 41.0645 0.0591888 41.2425 0.0591888 41.2425C0.295934 42.8447 0.946982 44.2096 2.01233 45.3371C3.25524 46.6426 4.97164 47.5921 7.22072 48.3042C9.46979 48.9569 12.2515 49.313 15.3884 49.1943C18.5845 49.0756 22.254 48.6009 26.1603 47.5921C31.1319 46.4052 36.1036 44.5656 40.7201 42.37C45.3958 40.115 49.7164 37.504 53.4451 34.7149C57.1739 31.9259 60.2515 28.9588 62.5006 26.051C64.7497 23.1433 66.111 20.3542 66.5845 17.6839C66.7028 16.9718 66.762 16.2596 66.7028 15.5475C66.6437 14.8948 66.5253 14.242 66.3477 13.6486C66.1702 13.0552 65.9334 12.5211 65.5783 11.987C65.4007 11.6903 65.164 11.3936 64.9273 11.0969L66.4661 12.6991L66.7028 13.0552Z" fill="#E60012"/>
<path d="M75.8767 34.9522C76.1134 37.3259 76.1726 38.6908 75.8175 41.0644C75.2256 44.6843 74.2787 46.8799 72.2663 49.847C70.1948 52.8734 67.2947 55.8405 63.8619 58.6296C60.3699 61.4186 56.2861 63.9703 51.8471 66.1066C47.4081 68.2429 42.6732 69.9045 37.8792 70.9726C35.3933 71.5067 33.0259 71.8628 30.836 71.9814C28.6461 72.1595 26.5746 72.1001 24.7398 71.9221C22.905 71.7441 21.1887 71.388 19.709 70.8539C18.2293 70.3199 16.9272 69.7265 15.8027 68.8957L13.4944 67.1154L11.6005 65.3945C11.6005 65.3945 10.2984 64.089 9.52897 63.1989C8.9963 62.5461 8.16769 61.5373 8.16769 61.5373C8.04932 61.3593 8.16769 61.5373 8.16769 61.5373C9.05548 62.5461 10.1208 63.4362 11.5413 64.1483C13.1393 64.9791 15.0333 65.6319 17.2824 66.0473C19.5314 66.4627 22.0173 66.5813 24.799 66.4627C27.5808 66.344 30.5993 65.9286 33.8545 65.1571C39.0629 63.9703 44.2121 62.1307 49.0062 59.8164C53.8594 57.5021 58.2984 54.713 62.1455 51.6866C65.9334 48.7195 69.0703 45.5151 71.3785 42.3106C73.6276 39.1655 74.9889 36.0204 75.2848 33.0533C75.344 32.7566 75.344 32.4005 75.344 32.1038C75.344 31.8071 75.2848 31.4511 75.2848 31.2137C75.2256 30.917 75.6991 32.5786 75.6991 32.5786C75.6991 32.5786 75.7583 34.0621 75.8767 34.9522Z" fill="#E60012"/>
<path d="M0.355118 127.644V113.343H3.07768V116.25H3.13687C3.8471 114.233 5.38594 113.046 7.51665 113.046V116.013C4.08385 116.013 3.07768 118.505 3.07768 121.65V127.703H0.355118V127.644Z" fill="black"/>
<path d="M19.9458 127.525C18.762 127.822 17.6375 128 16.3946 128C11.3046 128 9.35143 124.499 9.35143 119.811C9.35143 115.894 11.0678 113.046 15.1517 113.046C18.6437 113.046 20.3009 115.479 20.3009 118.802V119.514H12.0148C12.0148 122.719 13.672 125.923 17.2824 125.923C18.2294 125.923 19.1171 125.745 20.0049 125.389V127.525H19.9458ZM17.5783 117.675C17.5783 116.132 16.4538 115.182 14.9741 115.182C13.7904 115.182 12.8434 115.776 12.3107 116.844C12.1924 117.14 12.074 117.437 12.074 117.734H17.5783V117.675Z" fill="black"/>
<path d="M31.5462 127.644V125.448H31.487C30.8952 127.05 29.1788 127.941 27.5216 127.941C23.5561 127.941 22.6683 123.965 22.6683 120.701C22.6683 117.437 23.6153 112.986 27.6991 112.986C29.238 112.986 30.9544 113.758 31.487 115.301H31.5462V106.874H34.2688V127.585H31.5462V127.644ZM31.5462 120.464C31.5462 118.505 31.0136 115.123 28.4094 115.123C25.8644 115.123 25.6276 118.624 25.6276 120.523C25.6276 122.422 25.8644 125.923 28.4685 125.923C30.836 125.864 31.5462 122.303 31.5462 120.464Z" fill="black"/>
<path d="M46.5204 127.644V125.448H46.4612C45.8693 127.05 44.1529 127.941 42.4957 127.941C38.5302 127.941 37.6424 123.965 37.6424 120.701C37.6424 117.437 38.5894 112.986 42.6732 112.986C44.2121 112.986 45.9285 113.758 46.4612 115.301H46.5204V106.874H49.2429V127.585H46.5204V127.644ZM46.5204 120.464C46.5204 118.505 45.9877 115.123 43.3835 115.123C40.8385 115.123 40.6017 118.624 40.6017 120.523C40.6017 122.422 40.8385 125.923 43.4427 125.923C45.8693 125.864 46.5204 122.303 46.5204 120.464Z" fill="#E60012"/>
<path d="M52.5573 120.523C52.5573 116.369 54.2737 113.046 58.8903 113.046C63.4476 113.046 65.164 116.369 65.164 120.523C65.164 124.677 63.4476 128 58.8903 128C54.3329 128 52.5573 124.736 52.5573 120.523ZM62.2047 120.523C62.2047 118.268 61.8496 115.123 58.8903 115.123C55.931 115.123 55.5758 118.209 55.5758 120.523C55.5758 122.778 55.931 125.923 58.8903 125.923C61.8496 125.864 62.2047 122.778 62.2047 120.523Z" fill="#E60012"/>
<path d="M76.1726 127.762C75.4624 127.94 74.7522 128 74.0419 128C71.5561 128 69.7805 127.228 69.7805 124.499V115.479H67.2355V113.342H69.7805V109.96L72.5031 108.298V113.342H76.4686V115.419H72.5031V123.074C72.5031 124.677 72.9174 125.863 74.7522 125.863C75.2256 125.863 75.7583 125.804 76.1726 125.626V127.762V127.762Z" fill="#E60012"/>
<path d="M99.0185 127.644L96.0592 117.734H96L93.0999 127.644H90.2589L87.0037 113.343H89.6079L91.857 123.727H91.9161L95.053 113.343H97.0653L100.202 123.727H100.261L102.51 113.343H105.115L101.919 127.644H99.0185Z" fill="black"/>
<path d="M108.547 110.019V106.934H111.803V110.019H108.547ZM108.784 127.644V113.342H111.507V127.644H108.784Z" fill="black"/>
<path d="M124.646 127.644V119.87C124.646 119.277 124.646 118.683 124.587 118.09C124.469 116.784 124.173 115.776 122.693 115.776C120.03 115.776 118.905 119.514 118.905 121.65V127.703H116.182V113.343H118.905V116.428H118.964C119.793 114.411 121.213 113.046 123.462 113.046C126.303 113.046 127.31 115.242 127.31 117.734V127.644H124.646V127.644Z" fill="black"/>
<path d="M140.212 127.644V119.87C140.212 119.277 140.212 118.683 140.153 118.09C140.035 116.784 139.739 115.776 138.259 115.776C135.596 115.776 134.471 119.514 134.471 121.65V127.703H131.748V113.343H134.471V116.428H134.53C135.359 114.411 136.779 113.046 139.028 113.046C141.869 113.046 142.875 115.242 142.875 117.734V127.644H140.212V127.644Z" fill="black"/>
<path d="M156.962 127.525C155.778 127.822 154.654 128 153.411 128C148.321 128 146.367 124.499 146.367 119.811C146.367 115.894 148.084 113.046 152.168 113.046C155.66 113.046 157.317 115.479 157.317 118.802V119.514H149.031C149.031 122.719 150.688 125.923 154.298 125.923C155.245 125.923 156.133 125.745 157.021 125.389V127.525H156.962ZM154.594 117.675C154.594 116.132 153.47 115.182 151.99 115.182C150.806 115.182 149.859 115.776 149.327 116.844C149.208 117.14 149.09 117.437 149.09 117.734H154.594V117.675Z" fill="black"/>
<path d="M160.631 127.644V113.343H163.354V116.25H163.413C164.123 114.233 165.662 113.046 167.793 113.046V116.013C164.36 116.013 163.354 118.505 163.354 121.65V127.703H160.631V127.644Z" fill="black"/>
<path d="M178.861 125.329C181.347 123.312 187.916 117.14 187.916 113.164C187.916 111.562 187.028 110.257 185.016 110.257C183.004 110.257 182.175 111.562 182.175 112.868H178.861C179.097 110.85 180.222 108.18 185.016 108.18C188.271 108.18 190.875 110.019 190.875 113.402C190.875 118.743 185.549 122.659 182.412 125.448H191.053V127.525H178.861V125.329V125.329Z" fill="black"/>
<path d="M194.486 117.971C194.486 112.986 195.906 108.12 201.411 108.12C206.915 108.12 208.395 112.927 208.395 117.971C208.395 123.015 206.915 127.822 201.411 127.822C195.906 127.822 194.486 123.015 194.486 117.971ZM201.411 125.745C204.903 125.745 205.376 121.532 205.376 117.971C205.376 114.47 204.903 110.197 201.411 110.197C197.978 110.197 197.504 114.411 197.504 117.971C197.504 121.532 197.978 125.745 201.411 125.745Z" fill="black"/>
<path d="M210.466 125.329C212.952 123.312 219.522 117.14 219.522 113.164C219.522 111.562 218.634 110.257 216.621 110.257C214.609 110.257 213.781 111.562 213.781 112.868H210.466C210.703 110.85 211.827 108.18 216.621 108.18C219.877 108.18 222.481 110.019 222.481 113.402C222.481 118.743 217.154 122.659 214.017 125.448H222.658V127.525H210.466V125.329Z" fill="black"/>
<path d="M226.091 117.971C226.091 112.986 227.512 108.12 233.016 108.12C238.52 108.12 240 112.927 240 117.971C240 123.015 238.52 127.822 233.016 127.822C227.512 127.822 226.091 123.015 226.091 117.971ZM233.016 125.745C236.508 125.745 236.982 121.532 236.982 117.971C236.982 114.47 236.508 110.197 233.016 110.197C229.583 110.197 229.11 114.411 229.11 117.971C229.11 121.532 229.583 125.745 233.016 125.745Z" fill="black"/>
</g>
<defs>
<radialGradient id="paint0_radial_1736_6841" cx="0" cy="0" r="1" gradientUnits="userSpaceOnUse" gradientTransform="translate(60.0621 51.0736) scale(24.9997 25.0653)">
<stop stop-color="white"/>
<stop offset="0.1808" stop-color="#FCE4D9"/>
<stop offset="0.4663" stop-color="#F6B495"/>
<stop offset="0.5254" stop-color="#F3A380"/>
<stop offset="0.7541" stop-color="#EB613B"/>
<stop offset="0.918" stop-color="#E72D1B"/>
<stop offset="1" stop-color="#070707"/>
</radialGradient>
<radialGradient id="paint1_radial_1736_6841" cx="0" cy="0" r="1" gradientUnits="userSpaceOnUse" gradientTransform="translate(3.87314 22.7925) scale(24.2077 24.2713)">
<stop stop-color="white"/>
<stop offset="0.0576" stop-color="#FCE9DF"/>
<stop offset="0.1215" stop-color="#FAD6C4"/>
<stop offset="0.1912" stop-color="#F8C7AF"/>
<stop offset="0.2687" stop-color="#F7BCA0"/>
<stop offset="0.3601" stop-color="#F6B698"/>
<stop offset="0.5" stop-color="#F6B495"/>
<stop offset="0.5553" stop-color="#F3A380"/>
<stop offset="0.7696" stop-color="#EB613B"/>
<stop offset="0.9232" stop-color="#E72D1B"/>
<stop offset="1" stop-color="#070707"/>
</radialGradient>
<radialGradient id="paint2_radial_1736_6841" cx="0" cy="0" r="1" gradientUnits="userSpaceOnUse" gradientTransform="translate(39.4233 1.17792) scale(58.8903 59.045)">
<stop stop-color="white"/>
<stop offset="0.0479" stop-color="#FEF3EE"/>
<stop offset="0.1975" stop-color="#F9D1BE"/>
<stop offset="0.3118" stop-color="#F7BCA0"/>
<stop offset="0.3764" stop-color="#F6B495"/>
<stop offset="0.4551" stop-color="#F5AF8F"/>
<stop offset="0.5609" stop-color="#F3A07D"/>
<stop offset="0.682" stop-color="#F08861"/>
<stop offset="0.8146" stop-color="#EC653E"/>
<stop offset="0.9549" stop-color="#E72D1B"/>
<stop offset="1" stop-color="#070707"/>
</radialGradient>
<radialGradient id="paint3_radial_1736_6841" cx="0" cy="0" r="1" gradientUnits="userSpaceOnUse" gradientTransform="translate(45.3834 14.0502) scale(71.6017 71.7898)">
<stop stop-color="white"/>
<stop offset="0.0181" stop-color="#FEFAF8"/>
<stop offset="0.1424" stop-color="#FBDCCD"/>
<stop offset="0.2545" stop-color="#F8C6AF"/>
<stop offset="0.3494" stop-color="#F7B99C"/>
<stop offset="0.4157" stop-color="#F6B495"/>
<stop offset="0.5169" stop-color="#F39D78"/>
<stop offset="1" stop-color="#E60012"/>
</radialGradient>
<radialGradient id="paint4_radial_1736_6841" cx="0" cy="0" r="1" gradientUnits="userSpaceOnUse" gradientTransform="translate(56.8525 27.3915) scale(57.6184 57.7697)">
<stop stop-color="white"/>
<stop offset="0.1808" stop-color="#FCE4D9"/>
<stop offset="0.4663" stop-color="#F6B495"/>
<stop offset="0.5254" stop-color="#F3A380"/>
<stop offset="0.7541" stop-color="#EB613B"/>
<stop offset="0.918" stop-color="#E72D1B"/>
<stop offset="1" stop-color="#070707"/>
</radialGradient>
<clipPath id="clip0_1736_6841">
<rect width="240" height="128" fill="white"/>
</clipPath>
</defs>
</svg>
