<svg width="720" height="288" viewBox="0 0 720 288" fill="none" xmlns="http://www.w3.org/2000/svg">
<g clip-path="url(#clip0_4328_31067)">
<rect width="720" height="288" fill="white"/>
<rect x="118" y="136" width="16" height="16" rx="2" fill="#0F6CBD"/>
<path d="M129.765 141.205C130.066 141.489 130.08 141.964 129.795 142.265L125.545 146.765C125.406 146.912 125.213 146.997 125.011 147C124.808 147.003 124.613 146.924 124.47 146.78L122.22 144.53C121.927 144.237 121.927 143.763 122.22 143.47C122.513 143.177 122.987 143.177 123.28 143.47L124.985 145.174L128.705 141.235C128.989 140.934 129.464 140.92 129.765 141.205Z" fill="white"/>
<path d="M152.371 149H147.285V139.197H148.434V147.961H152.371V149ZM158.735 149H157.614V147.906H157.587C157.099 148.745 156.382 149.164 155.434 149.164C154.736 149.164 154.189 148.979 153.793 148.61C153.401 148.241 153.205 147.751 153.205 147.141C153.205 145.833 153.975 145.072 155.516 144.857L157.614 144.563C157.614 143.374 157.133 142.779 156.172 142.779C155.329 142.779 154.568 143.066 153.889 143.641V142.492C154.577 142.055 155.37 141.836 156.268 141.836C157.913 141.836 158.735 142.706 158.735 144.447V149ZM157.614 145.459L155.926 145.691C155.406 145.764 155.014 145.894 154.75 146.081C154.486 146.263 154.354 146.589 154.354 147.059C154.354 147.4 154.474 147.681 154.716 147.899C154.962 148.114 155.288 148.221 155.693 148.221C156.249 148.221 156.707 148.027 157.067 147.64C157.432 147.248 157.614 146.753 157.614 146.156V145.459ZM161.996 147.988H161.969V149H160.848V138.637H161.969V143.23H161.996C162.548 142.301 163.354 141.836 164.416 141.836C165.314 141.836 166.016 142.15 166.521 142.779C167.032 143.404 167.287 144.242 167.287 145.295C167.287 146.466 167.002 147.405 166.433 148.111C165.863 148.813 165.084 149.164 164.095 149.164C163.17 149.164 162.47 148.772 161.996 147.988ZM161.969 145.165V146.143C161.969 146.721 162.156 147.214 162.529 147.619C162.908 148.02 163.386 148.221 163.965 148.221C164.644 148.221 165.175 147.961 165.558 147.441C165.945 146.922 166.139 146.2 166.139 145.274C166.139 144.495 165.959 143.884 165.599 143.442C165.239 143 164.751 142.779 164.136 142.779C163.484 142.779 162.96 143.007 162.563 143.463C162.167 143.914 161.969 144.481 161.969 145.165ZM174.704 145.78H169.762C169.78 146.56 169.99 147.161 170.391 147.585C170.792 148.009 171.343 148.221 172.045 148.221C172.833 148.221 173.558 147.961 174.219 147.441V148.494C173.604 148.941 172.79 149.164 171.778 149.164C170.789 149.164 170.012 148.847 169.447 148.214C168.882 147.576 168.6 146.68 168.6 145.527C168.6 144.438 168.907 143.552 169.522 142.868C170.142 142.18 170.91 141.836 171.826 141.836C172.742 141.836 173.451 142.132 173.952 142.725C174.453 143.317 174.704 144.14 174.704 145.192V145.78ZM173.556 144.83C173.551 144.183 173.394 143.679 173.084 143.319C172.779 142.959 172.353 142.779 171.806 142.779C171.277 142.779 170.828 142.968 170.459 143.347C170.09 143.725 169.862 144.219 169.775 144.83H173.556ZM177.527 149H176.406V138.637H177.527V149Z" fill="#242424"/>
<rect x="240" y="142" width="360" height="4" rx="2" fill="#616161"/>
<rect x="240" y="142" width="180" height="4" rx="2" fill="#0078D4"/>
<rect x="410.5" y="134.5" width="19" height="19" rx="9.5" fill="white"/>
<rect x="410.5" y="134.5" width="19" height="19" rx="9.5" stroke="#D1D1D1"/>
<rect x="414" y="138" width="12" height="12" rx="6" fill="#0F6CBD"/>
<path d="M250.061 129H248.678V123.562C248.678 123.117 248.705 122.572 248.76 121.928H248.736C248.65 122.295 248.574 122.559 248.508 122.719L246 129H245.039L242.525 122.766C242.455 122.582 242.381 122.303 242.303 121.928H242.279C242.311 122.264 242.326 122.812 242.326 123.574V129H241.037V120.598H243L245.209 126.193C245.377 126.623 245.486 126.943 245.537 127.154H245.566C245.711 126.713 245.828 126.385 245.918 126.17L248.168 120.598H250.061V129ZM257.062 126.369H252.973C252.988 126.924 253.158 127.352 253.482 127.652C253.811 127.953 254.26 128.104 254.83 128.104C255.471 128.104 256.059 127.912 256.594 127.529V128.625C256.047 128.969 255.324 129.141 254.426 129.141C253.543 129.141 252.85 128.869 252.346 128.326C251.846 127.779 251.596 127.012 251.596 126.023C251.596 125.09 251.871 124.33 252.422 123.744C252.977 123.154 253.664 122.859 254.484 122.859C255.305 122.859 255.939 123.123 256.389 123.65C256.838 124.178 257.062 124.91 257.062 125.848V126.369ZM255.75 125.408C255.746 124.92 255.631 124.541 255.404 124.271C255.178 123.998 254.865 123.861 254.467 123.861C254.076 123.861 253.744 124.004 253.471 124.289C253.201 124.574 253.035 124.947 252.973 125.408H255.75ZM263.812 129H262.453V127.98H262.43C261.992 128.754 261.318 129.141 260.408 129.141C259.67 129.141 259.078 128.873 258.633 128.338C258.191 127.799 257.971 127.066 257.971 126.141C257.971 125.148 258.215 124.354 258.703 123.756C259.195 123.158 259.85 122.859 260.666 122.859C261.475 122.859 262.062 123.184 262.43 123.832H262.453V120.117H263.812V129ZM262.471 126.258V125.473C262.471 125.047 262.332 124.686 262.055 124.389C261.777 124.092 261.424 123.943 260.994 123.943C260.486 123.943 260.086 124.133 259.793 124.512C259.504 124.891 259.359 125.416 259.359 126.088C259.359 126.697 259.498 127.18 259.775 127.535C260.057 127.887 260.434 128.062 260.906 128.062C261.371 128.062 261.748 127.893 262.037 127.553C262.326 127.209 262.471 126.777 262.471 126.258ZM266.273 121.74C266.051 121.74 265.859 121.668 265.699 121.523C265.543 121.379 265.465 121.195 265.465 120.973C265.465 120.75 265.543 120.564 265.699 120.416C265.859 120.268 266.051 120.193 266.273 120.193C266.504 120.193 266.699 120.268 266.859 120.416C267.02 120.564 267.1 120.75 267.1 120.973C267.1 121.184 267.02 121.365 266.859 121.518C266.699 121.666 266.504 121.74 266.273 121.74ZM266.947 129H265.588V123H266.947V129ZM273.961 129H272.602V128.051H272.578C272.184 128.777 271.57 129.141 270.738 129.141C269.32 129.141 268.611 128.289 268.611 126.586V123H269.971V126.445C269.971 127.523 270.387 128.062 271.219 128.062C271.621 128.062 271.951 127.914 272.209 127.617C272.471 127.32 272.602 126.932 272.602 126.451V123H273.961V129ZM284.707 129H283.348V125.73C283.348 125.102 283.258 124.646 283.078 124.365C282.902 124.084 282.604 123.943 282.182 123.943C281.826 123.943 281.523 124.121 281.273 124.477C281.027 124.832 280.904 125.258 280.904 125.754V129H279.539V125.619C279.539 124.502 279.145 123.943 278.355 123.943C277.988 123.943 277.686 124.111 277.447 124.447C277.213 124.783 277.096 125.219 277.096 125.754V129H275.736V123H277.096V123.949H277.119C277.553 123.223 278.184 122.859 279.012 122.859C279.426 122.859 279.787 122.975 280.096 123.205C280.408 123.432 280.621 123.73 280.734 124.102C281.18 123.273 281.844 122.859 282.727 122.859C284.047 122.859 284.707 123.674 284.707 125.303V129Z" fill="#424242"/>
<path d="M247.605 169H246.516L245.625 166.645H242.062L241.225 169H240.129L243.352 160.598H244.371L247.605 169ZM245.303 165.76L243.984 162.18C243.941 162.062 243.898 161.875 243.855 161.617H243.832C243.793 161.855 243.748 162.043 243.697 162.18L242.391 165.76H245.303ZM249.68 169H248.719V160.117H249.68V169ZM252.586 169H251.625V160.117H252.586V169ZM257.039 169.141C256.152 169.141 255.443 168.861 254.912 168.303C254.385 167.74 254.121 166.996 254.121 166.07C254.121 165.062 254.396 164.275 254.947 163.709C255.498 163.143 256.242 162.859 257.18 162.859C258.074 162.859 258.771 163.135 259.271 163.686C259.775 164.236 260.027 165 260.027 165.977C260.027 166.934 259.756 167.701 259.213 168.279C258.674 168.854 257.949 169.141 257.039 169.141ZM257.109 163.668C256.492 163.668 256.004 163.879 255.645 164.301C255.285 164.719 255.105 165.297 255.105 166.035C255.105 166.746 255.287 167.307 255.65 167.717C256.014 168.127 256.5 168.332 257.109 168.332C257.73 168.332 258.207 168.131 258.539 167.729C258.875 167.326 259.043 166.754 259.043 166.012C259.043 165.262 258.875 164.684 258.539 164.277C258.207 163.871 257.73 163.668 257.109 163.668ZM269.121 163L267.322 169H266.326L265.09 164.705C265.043 164.541 265.012 164.355 264.996 164.148H264.973C264.961 164.289 264.92 164.471 264.85 164.693L263.508 169H262.547L260.73 163H261.738L262.98 167.512C263.02 167.648 263.047 167.828 263.062 168.051H263.109C263.121 167.879 263.156 167.695 263.215 167.5L264.598 163H265.477L266.719 167.523C266.758 167.668 266.787 167.848 266.807 168.062H266.854C266.861 167.91 266.895 167.73 266.953 167.523L268.172 163H269.121ZM278.016 169H273.656V160.598H274.641V168.109H278.016V169ZM281.684 169.141C280.797 169.141 280.088 168.861 279.557 168.303C279.029 167.74 278.766 166.996 278.766 166.07C278.766 165.062 279.041 164.275 279.592 163.709C280.143 163.143 280.887 162.859 281.824 162.859C282.719 162.859 283.416 163.135 283.916 163.686C284.42 164.236 284.672 165 284.672 165.977C284.672 166.934 284.4 167.701 283.857 168.279C283.318 168.854 282.594 169.141 281.684 169.141ZM281.754 163.668C281.137 163.668 280.648 163.879 280.289 164.301C279.93 164.719 279.75 165.297 279.75 166.035C279.75 166.746 279.932 167.307 280.295 167.717C280.658 168.127 281.145 168.332 281.754 168.332C282.375 168.332 282.852 168.131 283.184 167.729C283.52 167.326 283.688 166.754 283.688 166.012C283.688 165.262 283.52 164.684 283.184 164.277C282.852 163.871 282.375 163.668 281.754 163.668ZM293.766 163L291.967 169H290.971L289.734 164.705C289.688 164.541 289.656 164.355 289.641 164.148H289.617C289.605 164.289 289.564 164.471 289.494 164.693L288.152 169H287.191L285.375 163H286.383L287.625 167.512C287.664 167.648 287.691 167.828 287.707 168.051H287.754C287.766 167.879 287.801 167.695 287.859 167.5L289.242 163H290.121L291.363 167.523C291.402 167.668 291.432 167.848 291.451 168.062H291.498C291.506 167.91 291.539 167.73 291.598 167.523L292.816 163H293.766ZM301.963 160.598L297.932 170.395H297.035L301.055 160.598H301.963ZM306.27 169V160.598H308.66C309.387 160.598 309.963 160.775 310.389 161.131C310.814 161.486 311.027 161.949 311.027 162.52C311.027 162.996 310.898 163.41 310.641 163.762C310.383 164.113 310.027 164.363 309.574 164.512V164.535C310.141 164.602 310.594 164.816 310.934 165.18C311.273 165.539 311.443 166.008 311.443 166.586C311.443 167.305 311.186 167.887 310.67 168.332C310.154 168.777 309.504 169 308.719 169H306.27ZM307.254 161.488V164.201H308.262C308.801 164.201 309.225 164.072 309.533 163.814C309.842 163.553 309.996 163.186 309.996 162.713C309.996 161.896 309.459 161.488 308.385 161.488H307.254ZM307.254 165.086V168.109H308.59C309.168 168.109 309.615 167.973 309.932 167.699C310.252 167.426 310.412 167.051 310.412 166.574C310.412 165.582 309.736 165.086 308.385 165.086H307.254ZM313.98 169H313.02V160.117H313.98V169ZM318.434 169.141C317.547 169.141 316.838 168.861 316.307 168.303C315.779 167.74 315.516 166.996 315.516 166.07C315.516 165.062 315.791 164.275 316.342 163.709C316.893 163.143 317.637 162.859 318.574 162.859C319.469 162.859 320.166 163.135 320.666 163.686C321.17 164.236 321.422 165 321.422 165.977C321.422 166.934 321.15 167.701 320.607 168.279C320.068 168.854 319.344 169.141 318.434 169.141ZM318.504 163.668C317.887 163.668 317.398 163.879 317.039 164.301C316.68 164.719 316.5 165.297 316.5 166.035C316.5 166.746 316.682 167.307 317.045 167.717C317.408 168.127 317.895 168.332 318.504 168.332C319.125 168.332 319.602 168.131 319.934 167.729C320.27 167.326 320.438 166.754 320.438 166.012C320.438 165.262 320.27 164.684 319.934 164.277C319.602 163.871 319.125 163.668 318.504 163.668ZM327.047 168.725C326.586 169.002 326.039 169.141 325.406 169.141C324.551 169.141 323.859 168.863 323.332 168.309C322.809 167.75 322.547 167.027 322.547 166.141C322.547 165.152 322.83 164.359 323.396 163.762C323.963 163.16 324.719 162.859 325.664 162.859C326.191 162.859 326.656 162.957 327.059 163.152V164.137C326.613 163.824 326.137 163.668 325.629 163.668C325.016 163.668 324.512 163.889 324.117 164.33C323.727 164.768 323.531 165.344 323.531 166.059C323.531 166.762 323.715 167.316 324.082 167.723C324.453 168.129 324.949 168.332 325.57 168.332C326.094 168.332 326.586 168.158 327.047 167.811V168.725ZM333.48 169H332.133L329.484 166.117H329.461V169H328.5V160.117H329.461V165.748H329.484L332.004 163H333.264L330.48 165.895L333.48 169ZM346.453 169H345.475V163.363C345.475 162.918 345.502 162.373 345.557 161.729H345.533C345.439 162.107 345.355 162.379 345.281 162.543L342.41 169H341.93L339.064 162.59C338.982 162.402 338.898 162.115 338.812 161.729H338.789C338.82 162.064 338.836 162.613 338.836 163.375V169H337.887V160.598H339.188L341.766 166.457C341.965 166.906 342.094 167.242 342.152 167.465H342.188C342.355 167.004 342.49 166.66 342.592 166.434L345.223 160.598H346.453V169ZM353.361 166.24H349.125C349.141 166.908 349.32 167.424 349.664 167.787C350.008 168.15 350.48 168.332 351.082 168.332C351.758 168.332 352.379 168.109 352.945 167.664V168.566C352.418 168.949 351.721 169.141 350.854 169.141C350.006 169.141 349.34 168.869 348.855 168.326C348.371 167.779 348.129 167.012 348.129 166.023C348.129 165.09 348.393 164.33 348.92 163.744C349.451 163.154 350.109 162.859 350.895 162.859C351.68 162.859 352.287 163.113 352.717 163.621C353.146 164.129 353.361 164.834 353.361 165.736V166.24ZM352.377 165.426C352.373 164.871 352.238 164.439 351.973 164.131C351.711 163.822 351.346 163.668 350.877 163.668C350.424 163.668 350.039 163.83 349.723 164.154C349.406 164.479 349.211 164.902 349.137 165.426H352.377ZM359.941 169H358.98V167.98H358.957C358.512 168.754 357.824 169.141 356.895 169.141C356.141 169.141 355.537 168.873 355.084 168.338C354.635 167.799 354.41 167.066 354.41 166.141C354.41 165.148 354.66 164.354 355.16 163.756C355.66 163.158 356.326 162.859 357.158 162.859C357.982 162.859 358.582 163.184 358.957 163.832H358.98V160.117H359.941V169ZM358.98 166.287V165.402C358.98 164.918 358.82 164.508 358.5 164.172C358.18 163.836 357.773 163.668 357.281 163.668C356.695 163.668 356.234 163.883 355.898 164.312C355.562 164.742 355.395 165.336 355.395 166.094C355.395 166.785 355.555 167.332 355.875 167.734C356.199 168.133 356.633 168.332 357.176 168.332C357.711 168.332 358.145 168.139 358.477 167.752C358.812 167.365 358.98 166.877 358.98 166.287ZM362.379 161.477C362.207 161.477 362.061 161.418 361.939 161.301C361.818 161.184 361.758 161.035 361.758 160.855C361.758 160.676 361.818 160.527 361.939 160.41C362.061 160.289 362.207 160.229 362.379 160.229C362.555 160.229 362.703 160.289 362.824 160.41C362.949 160.527 363.012 160.676 363.012 160.855C363.012 161.027 362.949 161.174 362.824 161.295C362.703 161.416 362.555 161.477 362.379 161.477ZM362.848 169H361.887V163H362.848V169ZM369.645 169H368.684V168.051H368.66C368.262 168.777 367.645 169.141 366.809 169.141C365.379 169.141 364.664 168.289 364.664 166.586V163H365.619V166.434C365.619 167.699 366.104 168.332 367.072 168.332C367.541 168.332 367.926 168.16 368.227 167.816C368.531 167.469 368.684 167.016 368.684 166.457V163H369.645V169ZM380.109 169H379.148V165.555C379.148 164.891 379.045 164.41 378.838 164.113C378.635 163.816 378.291 163.668 377.807 163.668C377.396 163.668 377.047 163.855 376.758 164.23C376.473 164.605 376.33 165.055 376.33 165.578V169H375.369V165.438C375.369 164.258 374.914 163.668 374.004 163.668C373.582 163.668 373.234 163.846 372.961 164.201C372.688 164.553 372.551 165.012 372.551 165.578V169H371.59V163H372.551V163.949H372.574C373 163.223 373.621 162.859 374.438 162.859C374.848 162.859 375.205 162.975 375.51 163.205C375.814 163.432 376.023 163.73 376.137 164.102C376.582 163.273 377.246 162.859 378.129 162.859C379.449 162.859 380.109 163.674 380.109 165.303V169ZM389.514 169H388.553V168.062H388.529C388.111 168.781 387.496 169.141 386.684 169.141C386.086 169.141 385.617 168.982 385.277 168.666C384.941 168.35 384.773 167.93 384.773 167.406C384.773 166.285 385.434 165.633 386.754 165.449L388.553 165.197C388.553 164.178 388.141 163.668 387.316 163.668C386.594 163.668 385.941 163.914 385.359 164.406V163.422C385.949 163.047 386.629 162.859 387.398 162.859C388.809 162.859 389.514 163.605 389.514 165.098V169ZM388.553 165.965L387.105 166.164C386.66 166.227 386.324 166.338 386.098 166.498C385.871 166.654 385.758 166.934 385.758 167.336C385.758 167.629 385.861 167.869 386.068 168.057C386.279 168.24 386.559 168.332 386.906 168.332C387.383 168.332 387.775 168.166 388.084 167.834C388.396 167.498 388.553 167.074 388.553 166.562V165.965ZM396.305 169H395.344V165.578C395.344 164.305 394.879 163.668 393.949 163.668C393.469 163.668 393.07 163.85 392.754 164.213C392.441 164.572 392.285 165.027 392.285 165.578V169H391.324V163H392.285V163.996H392.309C392.762 163.238 393.418 162.859 394.277 162.859C394.934 162.859 395.436 163.072 395.783 163.498C396.131 163.92 396.305 164.531 396.305 165.332V169ZM403.242 169H402.281V167.98H402.258C401.812 168.754 401.125 169.141 400.195 169.141C399.441 169.141 398.838 168.873 398.385 168.338C397.936 167.799 397.711 167.066 397.711 166.141C397.711 165.148 397.961 164.354 398.461 163.756C398.961 163.158 399.627 162.859 400.459 162.859C401.283 162.859 401.883 163.184 402.258 163.832H402.281V160.117H403.242V169ZM402.281 166.287V165.402C402.281 164.918 402.121 164.508 401.801 164.172C401.48 163.836 401.074 163.668 400.582 163.668C399.996 163.668 399.535 163.883 399.199 164.312C398.863 164.742 398.695 165.336 398.695 166.094C398.695 166.785 398.855 167.332 399.176 167.734C399.5 168.133 399.934 168.332 400.477 168.332C401.012 168.332 401.445 168.139 401.777 167.752C402.113 167.365 402.281 166.877 402.281 166.287ZM414.926 169H413.941V165.168H409.594V169H408.609V160.598H409.594V164.283H413.941V160.598H414.926V169ZM417.492 161.477C417.32 161.477 417.174 161.418 417.053 161.301C416.932 161.184 416.871 161.035 416.871 160.855C416.871 160.676 416.932 160.527 417.053 160.41C417.174 160.289 417.32 160.229 417.492 160.229C417.668 160.229 417.816 160.289 417.938 160.41C418.062 160.527 418.125 160.676 418.125 160.855C418.125 161.027 418.062 161.174 417.938 161.295C417.816 161.416 417.668 161.477 417.492 161.477ZM417.961 169H417V163H417.961V169ZM425.027 168.52C425.027 170.723 423.973 171.824 421.863 171.824C421.121 171.824 420.473 171.684 419.918 171.402V170.441C420.594 170.816 421.238 171.004 421.852 171.004C423.328 171.004 424.066 170.219 424.066 168.648V167.992H424.043C423.586 168.758 422.898 169.141 421.98 169.141C421.234 169.141 420.633 168.875 420.176 168.344C419.723 167.809 419.496 167.092 419.496 166.193C419.496 165.174 419.74 164.363 420.229 163.762C420.721 163.16 421.393 162.859 422.244 162.859C423.053 162.859 423.652 163.184 424.043 163.832H424.066V163H425.027V168.52ZM424.066 166.287V165.402C424.066 164.926 423.904 164.518 423.58 164.178C423.26 163.838 422.859 163.668 422.379 163.668C421.785 163.668 421.32 163.885 420.984 164.318C420.648 164.748 420.48 165.352 420.48 166.129C420.48 166.797 420.641 167.332 420.961 167.734C421.285 168.133 421.713 168.332 422.244 168.332C422.783 168.332 423.221 168.141 423.557 167.758C423.896 167.375 424.066 166.885 424.066 166.287ZM431.953 169H430.992V165.543C430.992 164.293 430.527 163.668 429.598 163.668C429.129 163.668 428.734 163.85 428.414 164.213C428.094 164.572 427.934 165.035 427.934 165.602V169H426.973V160.117H427.934V163.996H427.957C428.418 163.238 429.074 162.859 429.926 162.859C431.277 162.859 431.953 163.674 431.953 165.303V169Z" fill="#616161"/>
<line x1="110" y1="179.5" x2="610" y2="179.5" stroke="#E0E0E0"/>
<rect x="240" y="156" width="360" height="16" stroke="#EF5533"/>
<rect x="240" y="116" width="46" height="16" stroke="#EF5533"/>
<rect x="230" y="132" width="380" height="24" stroke="#EF5533"/>
<rect x="110" y="132" width="120" height="24" stroke="#EF5533"/>
<rect x="240" y="132" width="360" height="24" stroke="#EF5533"/>
<rect x="110" y="132" width="32" height="24" stroke="#EF5533"/>
<rect x="146" y="132" width="74" height="24" stroke="#EF5533"/>
<rect x="110" y="108" width="500" height="72" stroke="#EF5533"/>
<rect x="369" y="224" width="122" height="26" rx="5" stroke="black" stroke-width="2"/>
<rect x="378" y="229" width="16" height="16" rx="2" fill="#0F6CBD"/>
<path d="M389.765 234.205C390.066 234.489 390.08 234.964 389.795 235.265L385.545 239.765C385.406 239.912 385.213 239.997 385.011 240C384.808 240.003 384.613 239.924 384.47 239.78L382.22 237.53C381.927 237.237 381.927 236.763 382.22 236.47C382.513 236.177 382.987 236.177 383.28 236.47L384.985 238.174L388.705 234.235C388.989 233.934 389.464 233.92 389.765 234.205Z" fill="white"/>
<path d="M412.371 242H407.285V232.197H408.434V240.961H412.371V242ZM418.735 242H417.614V240.906H417.587C417.099 241.745 416.382 242.164 415.434 242.164C414.736 242.164 414.189 241.979 413.793 241.61C413.401 241.241 413.205 240.751 413.205 240.141C413.205 238.833 413.975 238.072 415.516 237.857L417.614 237.563C417.614 236.374 417.133 235.779 416.172 235.779C415.329 235.779 414.568 236.066 413.889 236.641V235.492C414.577 235.055 415.37 234.836 416.268 234.836C417.913 234.836 418.735 235.706 418.735 237.447V242ZM417.614 238.459L415.926 238.691C415.406 238.764 415.014 238.894 414.75 239.081C414.486 239.263 414.354 239.589 414.354 240.059C414.354 240.4 414.474 240.681 414.716 240.899C414.962 241.114 415.288 241.221 415.693 241.221C416.249 241.221 416.707 241.027 417.067 240.64C417.432 240.248 417.614 239.753 417.614 239.156V238.459ZM421.996 240.988H421.969V242H420.848V231.637H421.969V236.23H421.996C422.548 235.301 423.354 234.836 424.416 234.836C425.314 234.836 426.016 235.15 426.521 235.779C427.032 236.404 427.287 237.242 427.287 238.295C427.287 239.466 427.002 240.405 426.433 241.111C425.863 241.813 425.084 242.164 424.095 242.164C423.17 242.164 422.47 241.772 421.996 240.988ZM421.969 238.165V239.143C421.969 239.721 422.156 240.214 422.529 240.619C422.908 241.02 423.386 241.221 423.965 241.221C424.644 241.221 425.175 240.961 425.558 240.441C425.945 239.922 426.139 239.2 426.139 238.274C426.139 237.495 425.959 236.884 425.599 236.442C425.239 236 424.751 235.779 424.136 235.779C423.484 235.779 422.96 236.007 422.563 236.463C422.167 236.914 421.969 237.481 421.969 238.165ZM434.704 238.78H429.762C429.78 239.56 429.99 240.161 430.391 240.585C430.792 241.009 431.343 241.221 432.045 241.221C432.833 241.221 433.558 240.961 434.219 240.441V241.494C433.604 241.941 432.79 242.164 431.778 242.164C430.789 242.164 430.012 241.847 429.447 241.214C428.882 240.576 428.6 239.68 428.6 238.527C428.6 237.438 428.907 236.552 429.522 235.868C430.142 235.18 430.91 234.836 431.826 234.836C432.742 234.836 433.451 235.132 433.952 235.725C434.453 236.317 434.704 237.14 434.704 238.192V238.78ZM433.556 237.83C433.551 237.183 433.394 236.679 433.084 236.319C432.779 235.959 432.353 235.779 431.806 235.779C431.277 235.779 430.828 235.968 430.459 236.347C430.09 236.725 429.862 237.219 429.775 237.83H433.556ZM437.527 242H436.406V231.637H437.527V242Z" fill="#242424"/>
<rect x="500" y="235" width="360" height="4" rx="2" fill="#616161"/>
<rect x="500" y="235" width="180" height="4" rx="2" fill="#0078D4"/>
<rect x="670.5" y="227.5" width="19" height="19" rx="9.5" fill="white"/>
<rect x="670.5" y="227.5" width="19" height="19" rx="9.5" stroke="#D1D1D1"/>
<rect x="674" y="231" width="12" height="12" rx="6" fill="#0F6CBD"/>
<path d="M510.061 222H508.678V216.562C508.678 216.117 508.705 215.572 508.76 214.928H508.736C508.65 215.295 508.574 215.559 508.508 215.719L506 222H505.039L502.525 215.766C502.455 215.582 502.381 215.303 502.303 214.928H502.279C502.311 215.264 502.326 215.812 502.326 216.574V222H501.037V213.598H503L505.209 219.193C505.377 219.623 505.486 219.943 505.537 220.154H505.566C505.711 219.713 505.828 219.385 505.918 219.17L508.168 213.598H510.061V222ZM517.062 219.369H512.973C512.988 219.924 513.158 220.352 513.482 220.652C513.811 220.953 514.26 221.104 514.83 221.104C515.471 221.104 516.059 220.912 516.594 220.529V221.625C516.047 221.969 515.324 222.141 514.426 222.141C513.543 222.141 512.85 221.869 512.346 221.326C511.846 220.779 511.596 220.012 511.596 219.023C511.596 218.09 511.871 217.33 512.422 216.744C512.977 216.154 513.664 215.859 514.484 215.859C515.305 215.859 515.939 216.123 516.389 216.65C516.838 217.178 517.062 217.91 517.062 218.848V219.369ZM515.75 218.408C515.746 217.92 515.631 217.541 515.404 217.271C515.178 216.998 514.865 216.861 514.467 216.861C514.076 216.861 513.744 217.004 513.471 217.289C513.201 217.574 513.035 217.947 512.973 218.408H515.75ZM523.812 222H522.453V220.98H522.43C521.992 221.754 521.318 222.141 520.408 222.141C519.67 222.141 519.078 221.873 518.633 221.338C518.191 220.799 517.971 220.066 517.971 219.141C517.971 218.148 518.215 217.354 518.703 216.756C519.195 216.158 519.85 215.859 520.666 215.859C521.475 215.859 522.062 216.184 522.43 216.832H522.453V213.117H523.812V222ZM522.471 219.258V218.473C522.471 218.047 522.332 217.686 522.055 217.389C521.777 217.092 521.424 216.943 520.994 216.943C520.486 216.943 520.086 217.133 519.793 217.512C519.504 217.891 519.359 218.416 519.359 219.088C519.359 219.697 519.498 220.18 519.775 220.535C520.057 220.887 520.434 221.062 520.906 221.062C521.371 221.062 521.748 220.893 522.037 220.553C522.326 220.209 522.471 219.777 522.471 219.258ZM526.273 214.74C526.051 214.74 525.859 214.668 525.699 214.523C525.543 214.379 525.465 214.195 525.465 213.973C525.465 213.75 525.543 213.564 525.699 213.416C525.859 213.268 526.051 213.193 526.273 213.193C526.504 213.193 526.699 213.268 526.859 213.416C527.02 213.564 527.1 213.75 527.1 213.973C527.1 214.184 527.02 214.365 526.859 214.518C526.699 214.666 526.504 214.74 526.273 214.74ZM526.947 222H525.588V216H526.947V222ZM533.961 222H532.602V221.051H532.578C532.184 221.777 531.57 222.141 530.738 222.141C529.32 222.141 528.611 221.289 528.611 219.586V216H529.971V219.445C529.971 220.523 530.387 221.062 531.219 221.062C531.621 221.062 531.951 220.914 532.209 220.617C532.471 220.32 532.602 219.932 532.602 219.451V216H533.961V222ZM544.707 222H543.348V218.73C543.348 218.102 543.258 217.646 543.078 217.365C542.902 217.084 542.604 216.943 542.182 216.943C541.826 216.943 541.523 217.121 541.273 217.477C541.027 217.832 540.904 218.258 540.904 218.754V222H539.539V218.619C539.539 217.502 539.145 216.943 538.355 216.943C537.988 216.943 537.686 217.111 537.447 217.447C537.213 217.783 537.096 218.219 537.096 218.754V222H535.736V216H537.096V216.949H537.119C537.553 216.223 538.184 215.859 539.012 215.859C539.426 215.859 539.787 215.975 540.096 216.205C540.408 216.432 540.621 216.73 540.734 217.102C541.18 216.273 541.844 215.859 542.727 215.859C544.047 215.859 544.707 216.674 544.707 218.303V222Z" fill="#424242"/>
<path d="M507.605 262H506.516L505.625 259.645H502.062L501.225 262H500.129L503.352 253.598H504.371L507.605 262ZM505.303 258.76L503.984 255.18C503.941 255.062 503.898 254.875 503.855 254.617H503.832C503.793 254.855 503.748 255.043 503.697 255.18L502.391 258.76H505.303ZM509.68 262H508.719V253.117H509.68V262ZM512.586 262H511.625V253.117H512.586V262ZM517.039 262.141C516.152 262.141 515.443 261.861 514.912 261.303C514.385 260.74 514.121 259.996 514.121 259.07C514.121 258.062 514.396 257.275 514.947 256.709C515.498 256.143 516.242 255.859 517.18 255.859C518.074 255.859 518.771 256.135 519.271 256.686C519.775 257.236 520.027 258 520.027 258.977C520.027 259.934 519.756 260.701 519.213 261.279C518.674 261.854 517.949 262.141 517.039 262.141ZM517.109 256.668C516.492 256.668 516.004 256.879 515.645 257.301C515.285 257.719 515.105 258.297 515.105 259.035C515.105 259.746 515.287 260.307 515.65 260.717C516.014 261.127 516.5 261.332 517.109 261.332C517.73 261.332 518.207 261.131 518.539 260.729C518.875 260.326 519.043 259.754 519.043 259.012C519.043 258.262 518.875 257.684 518.539 257.277C518.207 256.871 517.73 256.668 517.109 256.668ZM529.121 256L527.322 262H526.326L525.09 257.705C525.043 257.541 525.012 257.355 524.996 257.148H524.973C524.961 257.289 524.92 257.471 524.85 257.693L523.508 262H522.547L520.73 256H521.738L522.98 260.512C523.02 260.648 523.047 260.828 523.062 261.051H523.109C523.121 260.879 523.156 260.695 523.215 260.5L524.598 256H525.477L526.719 260.523C526.758 260.668 526.787 260.848 526.807 261.062H526.854C526.861 260.91 526.895 260.73 526.953 260.523L528.172 256H529.121ZM538.016 262H533.656V253.598H534.641V261.109H538.016V262ZM541.684 262.141C540.797 262.141 540.088 261.861 539.557 261.303C539.029 260.74 538.766 259.996 538.766 259.07C538.766 258.062 539.041 257.275 539.592 256.709C540.143 256.143 540.887 255.859 541.824 255.859C542.719 255.859 543.416 256.135 543.916 256.686C544.42 257.236 544.672 258 544.672 258.977C544.672 259.934 544.4 260.701 543.857 261.279C543.318 261.854 542.594 262.141 541.684 262.141ZM541.754 256.668C541.137 256.668 540.648 256.879 540.289 257.301C539.93 257.719 539.75 258.297 539.75 259.035C539.75 259.746 539.932 260.307 540.295 260.717C540.658 261.127 541.145 261.332 541.754 261.332C542.375 261.332 542.852 261.131 543.184 260.729C543.52 260.326 543.688 259.754 543.688 259.012C543.688 258.262 543.52 257.684 543.184 257.277C542.852 256.871 542.375 256.668 541.754 256.668ZM553.766 256L551.967 262H550.971L549.734 257.705C549.688 257.541 549.656 257.355 549.641 257.148H549.617C549.605 257.289 549.564 257.471 549.494 257.693L548.152 262H547.191L545.375 256H546.383L547.625 260.512C547.664 260.648 547.691 260.828 547.707 261.051H547.754C547.766 260.879 547.801 260.695 547.859 260.5L549.242 256H550.121L551.363 260.523C551.402 260.668 551.432 260.848 551.451 261.062H551.498C551.506 260.91 551.539 260.73 551.598 260.523L552.816 256H553.766ZM561.963 253.598L557.932 263.395H557.035L561.055 253.598H561.963ZM566.27 262V253.598H568.66C569.387 253.598 569.963 253.775 570.389 254.131C570.814 254.486 571.027 254.949 571.027 255.52C571.027 255.996 570.898 256.41 570.641 256.762C570.383 257.113 570.027 257.363 569.574 257.512V257.535C570.141 257.602 570.594 257.816 570.934 258.18C571.273 258.539 571.443 259.008 571.443 259.586C571.443 260.305 571.186 260.887 570.67 261.332C570.154 261.777 569.504 262 568.719 262H566.27ZM567.254 254.488V257.201H568.262C568.801 257.201 569.225 257.072 569.533 256.814C569.842 256.553 569.996 256.186 569.996 255.713C569.996 254.896 569.459 254.488 568.385 254.488H567.254ZM567.254 258.086V261.109H568.59C569.168 261.109 569.615 260.973 569.932 260.699C570.252 260.426 570.412 260.051 570.412 259.574C570.412 258.582 569.736 258.086 568.385 258.086H567.254ZM573.98 262H573.02V253.117H573.98V262ZM578.434 262.141C577.547 262.141 576.838 261.861 576.307 261.303C575.779 260.74 575.516 259.996 575.516 259.07C575.516 258.062 575.791 257.275 576.342 256.709C576.893 256.143 577.637 255.859 578.574 255.859C579.469 255.859 580.166 256.135 580.666 256.686C581.17 257.236 581.422 258 581.422 258.977C581.422 259.934 581.15 260.701 580.607 261.279C580.068 261.854 579.344 262.141 578.434 262.141ZM578.504 256.668C577.887 256.668 577.398 256.879 577.039 257.301C576.68 257.719 576.5 258.297 576.5 259.035C576.5 259.746 576.682 260.307 577.045 260.717C577.408 261.127 577.895 261.332 578.504 261.332C579.125 261.332 579.602 261.131 579.934 260.729C580.27 260.326 580.438 259.754 580.438 259.012C580.438 258.262 580.27 257.684 579.934 257.277C579.602 256.871 579.125 256.668 578.504 256.668ZM587.047 261.725C586.586 262.002 586.039 262.141 585.406 262.141C584.551 262.141 583.859 261.863 583.332 261.309C582.809 260.75 582.547 260.027 582.547 259.141C582.547 258.152 582.83 257.359 583.396 256.762C583.963 256.16 584.719 255.859 585.664 255.859C586.191 255.859 586.656 255.957 587.059 256.152V257.137C586.613 256.824 586.137 256.668 585.629 256.668C585.016 256.668 584.512 256.889 584.117 257.33C583.727 257.768 583.531 258.344 583.531 259.059C583.531 259.762 583.715 260.316 584.082 260.723C584.453 261.129 584.949 261.332 585.57 261.332C586.094 261.332 586.586 261.158 587.047 260.811V261.725ZM593.48 262H592.133L589.484 259.117H589.461V262H588.5V253.117H589.461V258.748H589.484L592.004 256H593.264L590.48 258.895L593.48 262ZM606.453 262H605.475V256.363C605.475 255.918 605.502 255.373 605.557 254.729H605.533C605.439 255.107 605.355 255.379 605.281 255.543L602.41 262H601.93L599.064 255.59C598.982 255.402 598.898 255.115 598.812 254.729H598.789C598.82 255.064 598.836 255.613 598.836 256.375V262H597.887V253.598H599.188L601.766 259.457C601.965 259.906 602.094 260.242 602.152 260.465H602.188C602.355 260.004 602.49 259.66 602.592 259.434L605.223 253.598H606.453V262ZM613.361 259.24H609.125C609.141 259.908 609.32 260.424 609.664 260.787C610.008 261.15 610.48 261.332 611.082 261.332C611.758 261.332 612.379 261.109 612.945 260.664V261.566C612.418 261.949 611.721 262.141 610.854 262.141C610.006 262.141 609.34 261.869 608.855 261.326C608.371 260.779 608.129 260.012 608.129 259.023C608.129 258.09 608.393 257.33 608.92 256.744C609.451 256.154 610.109 255.859 610.895 255.859C611.68 255.859 612.287 256.113 612.717 256.621C613.146 257.129 613.361 257.834 613.361 258.736V259.24ZM612.377 258.426C612.373 257.871 612.238 257.439 611.973 257.131C611.711 256.822 611.346 256.668 610.877 256.668C610.424 256.668 610.039 256.83 609.723 257.154C609.406 257.479 609.211 257.902 609.137 258.426H612.377ZM619.941 262H618.98V260.98H618.957C618.512 261.754 617.824 262.141 616.895 262.141C616.141 262.141 615.537 261.873 615.084 261.338C614.635 260.799 614.41 260.066 614.41 259.141C614.41 258.148 614.66 257.354 615.16 256.756C615.66 256.158 616.326 255.859 617.158 255.859C617.982 255.859 618.582 256.184 618.957 256.832H618.98V253.117H619.941V262ZM618.98 259.287V258.402C618.98 257.918 618.82 257.508 618.5 257.172C618.18 256.836 617.773 256.668 617.281 256.668C616.695 256.668 616.234 256.883 615.898 257.312C615.562 257.742 615.395 258.336 615.395 259.094C615.395 259.785 615.555 260.332 615.875 260.734C616.199 261.133 616.633 261.332 617.176 261.332C617.711 261.332 618.145 261.139 618.477 260.752C618.812 260.365 618.98 259.877 618.98 259.287ZM622.379 254.477C622.207 254.477 622.061 254.418 621.939 254.301C621.818 254.184 621.758 254.035 621.758 253.855C621.758 253.676 621.818 253.527 621.939 253.41C622.061 253.289 622.207 253.229 622.379 253.229C622.555 253.229 622.703 253.289 622.824 253.41C622.949 253.527 623.012 253.676 623.012 253.855C623.012 254.027 622.949 254.174 622.824 254.295C622.703 254.416 622.555 254.477 622.379 254.477ZM622.848 262H621.887V256H622.848V262ZM629.645 262H628.684V261.051H628.66C628.262 261.777 627.645 262.141 626.809 262.141C625.379 262.141 624.664 261.289 624.664 259.586V256H625.619V259.434C625.619 260.699 626.104 261.332 627.072 261.332C627.541 261.332 627.926 261.16 628.227 260.816C628.531 260.469 628.684 260.016 628.684 259.457V256H629.645V262ZM640.109 262H639.148V258.555C639.148 257.891 639.045 257.41 638.838 257.113C638.635 256.816 638.291 256.668 637.807 256.668C637.396 256.668 637.047 256.855 636.758 257.23C636.473 257.605 636.33 258.055 636.33 258.578V262H635.369V258.438C635.369 257.258 634.914 256.668 634.004 256.668C633.582 256.668 633.234 256.846 632.961 257.201C632.688 257.553 632.551 258.012 632.551 258.578V262H631.59V256H632.551V256.949H632.574C633 256.223 633.621 255.859 634.438 255.859C634.848 255.859 635.205 255.975 635.51 256.205C635.814 256.432 636.023 256.73 636.137 257.102C636.582 256.273 637.246 255.859 638.129 255.859C639.449 255.859 640.109 256.674 640.109 258.303V262ZM649.514 262H648.553V261.062H648.529C648.111 261.781 647.496 262.141 646.684 262.141C646.086 262.141 645.617 261.982 645.277 261.666C644.941 261.35 644.773 260.93 644.773 260.406C644.773 259.285 645.434 258.633 646.754 258.449L648.553 258.197C648.553 257.178 648.141 256.668 647.316 256.668C646.594 256.668 645.941 256.914 645.359 257.406V256.422C645.949 256.047 646.629 255.859 647.398 255.859C648.809 255.859 649.514 256.605 649.514 258.098V262ZM648.553 258.965L647.105 259.164C646.66 259.227 646.324 259.338 646.098 259.498C645.871 259.654 645.758 259.934 645.758 260.336C645.758 260.629 645.861 260.869 646.068 261.057C646.279 261.24 646.559 261.332 646.906 261.332C647.383 261.332 647.775 261.166 648.084 260.834C648.396 260.498 648.553 260.074 648.553 259.562V258.965ZM656.305 262H655.344V258.578C655.344 257.305 654.879 256.668 653.949 256.668C653.469 256.668 653.07 256.85 652.754 257.213C652.441 257.572 652.285 258.027 652.285 258.578V262H651.324V256H652.285V256.996H652.309C652.762 256.238 653.418 255.859 654.277 255.859C654.934 255.859 655.436 256.072 655.783 256.498C656.131 256.92 656.305 257.531 656.305 258.332V262ZM663.242 262H662.281V260.98H662.258C661.812 261.754 661.125 262.141 660.195 262.141C659.441 262.141 658.838 261.873 658.385 261.338C657.936 260.799 657.711 260.066 657.711 259.141C657.711 258.148 657.961 257.354 658.461 256.756C658.961 256.158 659.627 255.859 660.459 255.859C661.283 255.859 661.883 256.184 662.258 256.832H662.281V253.117H663.242V262ZM662.281 259.287V258.402C662.281 257.918 662.121 257.508 661.801 257.172C661.48 256.836 661.074 256.668 660.582 256.668C659.996 256.668 659.535 256.883 659.199 257.312C658.863 257.742 658.695 258.336 658.695 259.094C658.695 259.785 658.855 260.332 659.176 260.734C659.5 261.133 659.934 261.332 660.477 261.332C661.012 261.332 661.445 261.139 661.777 260.752C662.113 260.365 662.281 259.877 662.281 259.287ZM674.926 262H673.941V258.168H669.594V262H668.609V253.598H669.594V257.283H673.941V253.598H674.926V262ZM677.492 254.477C677.32 254.477 677.174 254.418 677.053 254.301C676.932 254.184 676.871 254.035 676.871 253.855C676.871 253.676 676.932 253.527 677.053 253.41C677.174 253.289 677.32 253.229 677.492 253.229C677.668 253.229 677.816 253.289 677.938 253.41C678.062 253.527 678.125 253.676 678.125 253.855C678.125 254.027 678.062 254.174 677.938 254.295C677.816 254.416 677.668 254.477 677.492 254.477ZM677.961 262H677V256H677.961V262ZM685.027 261.52C685.027 263.723 683.973 264.824 681.863 264.824C681.121 264.824 680.473 264.684 679.918 264.402V263.441C680.594 263.816 681.238 264.004 681.852 264.004C683.328 264.004 684.066 263.219 684.066 261.648V260.992H684.043C683.586 261.758 682.898 262.141 681.98 262.141C681.234 262.141 680.633 261.875 680.176 261.344C679.723 260.809 679.496 260.092 679.496 259.193C679.496 258.174 679.74 257.363 680.229 256.762C680.721 256.16 681.393 255.859 682.244 255.859C683.053 255.859 683.652 256.184 684.043 256.832H684.066V256H685.027V261.52ZM684.066 259.287V258.402C684.066 257.926 683.904 257.518 683.58 257.178C683.26 256.838 682.859 256.668 682.379 256.668C681.785 256.668 681.32 256.885 680.984 257.318C680.648 257.748 680.48 258.352 680.48 259.129C680.48 259.797 680.641 260.332 680.961 260.734C681.285 261.133 681.713 261.332 682.244 261.332C682.783 261.332 683.221 261.141 683.557 260.758C683.896 260.375 684.066 259.885 684.066 259.287ZM691.953 262H690.992V258.543C690.992 257.293 690.527 256.668 689.598 256.668C689.129 256.668 688.734 256.85 688.414 257.213C688.094 257.572 687.934 258.035 687.934 258.602V262H686.973V253.117H687.934V256.996H687.957C688.418 256.238 689.074 255.859 689.926 255.859C691.277 255.859 691.953 256.674 691.953 258.303V262Z" fill="#616161"/>
<line x1="370" y1="272.5" x2="870" y2="272.5" stroke="#E0E0E0"/>
<rect x="-20" y="50" width="360" height="4" rx="2" fill="#616161"/>
<rect x="-20" y="50" width="180" height="4" rx="2" fill="#0078D4"/>
<rect x="150.5" y="42.5" width="19" height="19" rx="9.5" fill="white"/>
<rect x="150.5" y="42.5" width="19" height="19" rx="9.5" stroke="#D1D1D1"/>
<rect x="154" y="46" width="12" height="12" rx="6" fill="#0F6CBD"/>
<path d="M-9.93945 37H-11.3223V31.5625C-11.3223 31.1172 -11.2949 30.5723 -11.2402 29.9277H-11.2637C-11.3496 30.2949 -11.4258 30.5586 -11.4922 30.7188L-14 37H-14.9609L-17.4746 30.7656C-17.5449 30.582 -17.6191 30.3027 -17.6973 29.9277H-17.7207C-17.6895 30.2637 -17.6738 30.8125 -17.6738 31.5742V37H-18.9629V28.5977H-17L-14.791 34.1934C-14.623 34.623 -14.5137 34.9434 -14.4629 35.1543H-14.4336C-14.2891 34.7129 -14.1719 34.3848 -14.082 34.1699L-11.832 28.5977H-9.93945V37ZM-2.9375 34.3691H-7.02734C-7.01172 34.9238 -6.8418 35.3516 -6.51758 35.6523C-6.18945 35.9531 -5.74023 36.1035 -5.16992 36.1035C-4.5293 36.1035 -3.94141 35.9121 -3.40625 35.5293V36.625C-3.95312 36.9688 -4.67578 37.1406 -5.57422 37.1406C-6.45703 37.1406 -7.15039 36.8691 -7.6543 36.3262C-8.1543 35.7793 -8.4043 35.0117 -8.4043 34.0234C-8.4043 33.0898 -8.12891 32.3301 -7.57812 31.7441C-7.02344 31.1543 -6.33594 30.8594 -5.51562 30.8594C-4.69531 30.8594 -4.06055 31.123 -3.61133 31.6504C-3.16211 32.1777 -2.9375 32.9102 -2.9375 33.8477V34.3691ZM-4.25 33.4082C-4.25391 32.9199 -4.36914 32.541 -4.5957 32.2715C-4.82227 31.998 -5.13477 31.8613 -5.5332 31.8613C-5.92383 31.8613 -6.25586 32.0039 -6.5293 32.2891C-6.79883 32.5742 -6.96484 32.9473 -7.02734 33.4082H-4.25ZM3.8125 37H2.45312V35.9805H2.42969C1.99219 36.7539 1.31836 37.1406 0.408203 37.1406C-0.330078 37.1406 -0.921875 36.873 -1.36719 36.3379C-1.80859 35.7988 -2.0293 35.0664 -2.0293 34.1406C-2.0293 33.1484 -1.78516 32.3535 -1.29688 31.7559C-0.804688 31.1582 -0.150391 30.8594 0.666016 30.8594C1.47461 30.8594 2.0625 31.1836 2.42969 31.832H2.45312V28.1172H3.8125V37ZM2.4707 34.2578V33.4727C2.4707 33.0469 2.33203 32.6855 2.05469 32.3887C1.77734 32.0918 1.42383 31.9434 0.994141 31.9434C0.486328 31.9434 0.0859375 32.1328 -0.207031 32.5117C-0.496094 32.8906 -0.640625 33.416 -0.640625 34.0879C-0.640625 34.6973 -0.501953 35.1797 -0.224609 35.5352C0.0566406 35.8867 0.433594 36.0625 0.90625 36.0625C1.37109 36.0625 1.74805 35.8926 2.03711 35.5527C2.32617 35.209 2.4707 34.7773 2.4707 34.2578ZM6.27344 29.7402C6.05078 29.7402 5.85938 29.668 5.69922 29.5234C5.54297 29.3789 5.46484 29.1953 5.46484 28.9727C5.46484 28.75 5.54297 28.5645 5.69922 28.416C5.85938 28.2676 6.05078 28.1934 6.27344 28.1934C6.50391 28.1934 6.69922 28.2676 6.85938 28.416C7.01953 28.5645 7.09961 28.75 7.09961 28.9727C7.09961 29.1836 7.01953 29.3652 6.85938 29.5176C6.69922 29.666 6.50391 29.7402 6.27344 29.7402ZM6.94727 37H5.58789V31H6.94727V37ZM13.9609 37H12.6016V36.0508H12.5781C12.1836 36.7773 11.5703 37.1406 10.7383 37.1406C9.32031 37.1406 8.61133 36.2891 8.61133 34.5859V31H9.9707V34.4453C9.9707 35.5234 10.3867 36.0625 11.2188 36.0625C11.6211 36.0625 11.9512 35.9141 12.209 35.6172C12.4707 35.3203 12.6016 34.9316 12.6016 34.4512V31H13.9609V37ZM24.707 37H23.3477V33.7305C23.3477 33.1016 23.2578 32.6465 23.0781 32.3652C22.9023 32.084 22.6035 31.9434 22.1816 31.9434C21.8262 31.9434 21.5234 32.1211 21.2734 32.4766C21.0273 32.832 20.9043 33.2578 20.9043 33.7539V37H19.5391V33.6191C19.5391 32.502 19.1445 31.9434 18.3555 31.9434C17.9883 31.9434 17.6855 32.1113 17.4473 32.4473C17.2129 32.7832 17.0957 33.2188 17.0957 33.7539V37H15.7363V31H17.0957V31.9492H17.1191C17.5527 31.2227 18.1836 30.8594 19.0117 30.8594C19.4258 30.8594 19.7871 30.9746 20.0957 31.2051C20.4082 31.4316 20.6211 31.7305 20.7344 32.1016C21.1797 31.2734 21.8438 30.8594 22.7266 30.8594C24.0469 30.8594 24.707 31.6738 24.707 33.3027V37Z" fill="#424242"/>
<path d="M-12.3945 77H-13.4844L-14.375 74.6445H-17.9375L-18.7754 77H-19.8711L-16.6484 68.5977H-15.6289L-12.3945 77ZM-14.6973 73.7598L-16.0156 70.1797C-16.0586 70.0625 -16.1016 69.875 -16.1445 69.6172H-16.168C-16.207 69.8555 -16.252 70.043 -16.3027 70.1797L-17.6094 73.7598H-14.6973ZM-10.3203 77H-11.2812V68.1172H-10.3203V77ZM-7.41406 77H-8.375V68.1172H-7.41406V77ZM-2.96094 77.1406C-3.84766 77.1406 -4.55664 76.8613 -5.08789 76.3027C-5.61523 75.7402 -5.87891 74.9961 -5.87891 74.0703C-5.87891 73.0625 -5.60352 72.2754 -5.05273 71.709C-4.50195 71.1426 -3.75781 70.8594 -2.82031 70.8594C-1.92578 70.8594 -1.22852 71.1348 -0.728516 71.6855C-0.224609 72.2363 0.0273438 73 0.0273438 73.9766C0.0273438 74.9336 -0.244141 75.7012 -0.787109 76.2793C-1.32617 76.8535 -2.05078 77.1406 -2.96094 77.1406ZM-2.89062 71.668C-3.50781 71.668 -3.99609 71.8789 -4.35547 72.3008C-4.71484 72.7188 -4.89453 73.2969 -4.89453 74.0352C-4.89453 74.7461 -4.71289 75.3066 -4.34961 75.7168C-3.98633 76.127 -3.5 76.332 -2.89062 76.332C-2.26953 76.332 -1.79297 76.1309 -1.46094 75.7285C-1.125 75.3262 -0.957031 74.7539 -0.957031 74.0117C-0.957031 73.2617 -1.125 72.6836 -1.46094 72.2773C-1.79297 71.8711 -2.26953 71.668 -2.89062 71.668ZM9.12109 71L7.32227 77H6.32617L5.08984 72.7051C5.04297 72.541 5.01172 72.3555 4.99609 72.1484H4.97266C4.96094 72.2891 4.91992 72.4707 4.84961 72.6934L3.50781 77H2.54688L0.730469 71H1.73828L2.98047 75.5117C3.01953 75.6484 3.04688 75.8281 3.0625 76.0508H3.10938C3.12109 75.8789 3.15625 75.6953 3.21484 75.5L4.59766 71H5.47656L6.71875 75.5234C6.75781 75.668 6.78711 75.8477 6.80664 76.0625H6.85352C6.86133 75.9102 6.89453 75.7305 6.95312 75.5234L8.17188 71H9.12109ZM18.0156 77H13.6562V68.5977H14.6406V76.1094H18.0156V77ZM21.6836 77.1406C20.7969 77.1406 20.0879 76.8613 19.5566 76.3027C19.0293 75.7402 18.7656 74.9961 18.7656 74.0703C18.7656 73.0625 19.041 72.2754 19.5918 71.709C20.1426 71.1426 20.8867 70.8594 21.8242 70.8594C22.7188 70.8594 23.416 71.1348 23.916 71.6855C24.4199 72.2363 24.6719 73 24.6719 73.9766C24.6719 74.9336 24.4004 75.7012 23.8574 76.2793C23.3184 76.8535 22.5938 77.1406 21.6836 77.1406ZM21.7539 71.668C21.1367 71.668 20.6484 71.8789 20.2891 72.3008C19.9297 72.7188 19.75 73.2969 19.75 74.0352C19.75 74.7461 19.9316 75.3066 20.2949 75.7168C20.6582 76.127 21.1445 76.332 21.7539 76.332C22.375 76.332 22.8516 76.1309 23.1836 75.7285C23.5195 75.3262 23.6875 74.7539 23.6875 74.0117C23.6875 73.2617 23.5195 72.6836 23.1836 72.2773C22.8516 71.8711 22.375 71.668 21.7539 71.668ZM33.7656 71L31.9668 77H30.9707L29.7344 72.7051C29.6875 72.541 29.6562 72.3555 29.6406 72.1484H29.6172C29.6055 72.2891 29.5645 72.4707 29.4941 72.6934L28.1523 77H27.1914L25.375 71H26.3828L27.625 75.5117C27.6641 75.6484 27.6914 75.8281 27.707 76.0508H27.7539C27.7656 75.8789 27.8008 75.6953 27.8594 75.5L29.2422 71H30.1211L31.3633 75.5234C31.4023 75.668 31.4316 75.8477 31.4512 76.0625H31.498C31.5059 75.9102 31.5391 75.7305 31.5977 75.5234L32.8164 71H33.7656ZM41.9629 68.5977L37.9316 78.3945H37.0352L41.0547 68.5977H41.9629ZM46.2695 77V68.5977H48.6602C49.3867 68.5977 49.9629 68.7754 50.3887 69.1309C50.8145 69.4863 51.0273 69.9492 51.0273 70.5195C51.0273 70.9961 50.8984 71.4102 50.6406 71.7617C50.3828 72.1133 50.0273 72.3633 49.5742 72.5117V72.5352C50.1406 72.6016 50.5938 72.8164 50.9336 73.1797C51.2734 73.5391 51.4434 74.0078 51.4434 74.5859C51.4434 75.3047 51.1855 75.8867 50.6699 76.332C50.1543 76.7773 49.5039 77 48.7188 77H46.2695ZM47.2539 69.4883V72.2012H48.2617C48.8008 72.2012 49.2246 72.0723 49.5332 71.8145C49.8418 71.5527 49.9961 71.1855 49.9961 70.7129C49.9961 69.8965 49.459 69.4883 48.3848 69.4883H47.2539ZM47.2539 73.0859V76.1094H48.5898C49.168 76.1094 49.6152 75.9727 49.9316 75.6992C50.252 75.4258 50.4121 75.0508 50.4121 74.5742C50.4121 73.582 49.7363 73.0859 48.3848 73.0859H47.2539ZM53.9805 77H53.0195V68.1172H53.9805V77ZM58.4336 77.1406C57.5469 77.1406 56.8379 76.8613 56.3066 76.3027C55.7793 75.7402 55.5156 74.9961 55.5156 74.0703C55.5156 73.0625 55.791 72.2754 56.3418 71.709C56.8926 71.1426 57.6367 70.8594 58.5742 70.8594C59.4688 70.8594 60.166 71.1348 60.666 71.6855C61.1699 72.2363 61.4219 73 61.4219 73.9766C61.4219 74.9336 61.1504 75.7012 60.6074 76.2793C60.0684 76.8535 59.3438 77.1406 58.4336 77.1406ZM58.5039 71.668C57.8867 71.668 57.3984 71.8789 57.0391 72.3008C56.6797 72.7188 56.5 73.2969 56.5 74.0352C56.5 74.7461 56.6816 75.3066 57.0449 75.7168C57.4082 76.127 57.8945 76.332 58.5039 76.332C59.125 76.332 59.6016 76.1309 59.9336 75.7285C60.2695 75.3262 60.4375 74.7539 60.4375 74.0117C60.4375 73.2617 60.2695 72.6836 59.9336 72.2773C59.6016 71.8711 59.125 71.668 58.5039 71.668ZM67.0469 76.7246C66.5859 77.002 66.0391 77.1406 65.4062 77.1406C64.5508 77.1406 63.8594 76.8633 63.332 76.3086C62.8086 75.75 62.5469 75.0273 62.5469 74.1406C62.5469 73.1523 62.8301 72.3594 63.3965 71.7617C63.9629 71.1602 64.7188 70.8594 65.6641 70.8594C66.1914 70.8594 66.6562 70.957 67.0586 71.1523V72.1367C66.6133 71.8242 66.1367 71.668 65.6289 71.668C65.0156 71.668 64.5117 71.8887 64.1172 72.3301C63.7266 72.7676 63.5312 73.3438 63.5312 74.0586C63.5312 74.7617 63.7148 75.3164 64.082 75.7227C64.4531 76.1289 64.9492 76.332 65.5703 76.332C66.0938 76.332 66.5859 76.1582 67.0469 75.8105V76.7246ZM73.4805 77H72.1328L69.4844 74.1172H69.4609V77H68.5V68.1172H69.4609V73.748H69.4844L72.0039 71H73.2637L70.4805 73.8945L73.4805 77ZM86.4531 77H85.4746V71.3633C85.4746 70.918 85.502 70.373 85.5566 69.7285H85.5332C85.4395 70.1074 85.3555 70.3789 85.2812 70.543L82.4102 77H81.9297L79.0645 70.5898C78.9824 70.4023 78.8984 70.1152 78.8125 69.7285H78.7891C78.8203 70.0645 78.8359 70.6133 78.8359 71.375V77H77.8867V68.5977H79.1875L81.7656 74.457C81.9648 74.9062 82.0938 75.2422 82.1523 75.4648H82.1875C82.3555 75.0039 82.4902 74.6602 82.5918 74.4336L85.2227 68.5977H86.4531V77ZM93.3613 74.2402H89.125C89.1406 74.9082 89.3203 75.4238 89.6641 75.7871C90.0078 76.1504 90.4805 76.332 91.082 76.332C91.7578 76.332 92.3789 76.1094 92.9453 75.6641V76.5664C92.418 76.9492 91.7207 77.1406 90.8535 77.1406C90.0059 77.1406 89.3398 76.8691 88.8555 76.3262C88.3711 75.7793 88.1289 75.0117 88.1289 74.0234C88.1289 73.0898 88.3926 72.3301 88.9199 71.7441C89.4512 71.1543 90.1094 70.8594 90.8945 70.8594C91.6797 70.8594 92.2871 71.1133 92.7168 71.6211C93.1465 72.1289 93.3613 72.834 93.3613 73.7363V74.2402ZM92.377 73.4258C92.373 72.8711 92.2383 72.4395 91.9727 72.1309C91.7109 71.8223 91.3457 71.668 90.877 71.668C90.4238 71.668 90.0391 71.8301 89.7227 72.1543C89.4062 72.4785 89.2109 72.9023 89.1367 73.4258H92.377ZM99.9414 77H98.9805V75.9805H98.957C98.5117 76.7539 97.8242 77.1406 96.8945 77.1406C96.1406 77.1406 95.5371 76.873 95.084 76.3379C94.6348 75.7988 94.4102 75.0664 94.4102 74.1406C94.4102 73.1484 94.6602 72.3535 95.1602 71.7559C95.6602 71.1582 96.3262 70.8594 97.1582 70.8594C97.9824 70.8594 98.582 71.1836 98.957 71.832H98.9805V68.1172H99.9414V77ZM98.9805 74.2871V73.4023C98.9805 72.918 98.8203 72.5078 98.5 72.1719C98.1797 71.8359 97.7734 71.668 97.2812 71.668C96.6953 71.668 96.2344 71.8828 95.8984 72.3125C95.5625 72.7422 95.3945 73.3359 95.3945 74.0938C95.3945 74.7852 95.5547 75.332 95.875 75.7344C96.1992 76.1328 96.6328 76.332 97.1758 76.332C97.7109 76.332 98.1445 76.1387 98.4766 75.752C98.8125 75.3652 98.9805 74.877 98.9805 74.2871ZM102.379 69.4766C102.207 69.4766 102.061 69.418 101.939 69.3008C101.818 69.1836 101.758 69.0352 101.758 68.8555C101.758 68.6758 101.818 68.5273 101.939 68.4102C102.061 68.2891 102.207 68.2285 102.379 68.2285C102.555 68.2285 102.703 68.2891 102.824 68.4102C102.949 68.5273 103.012 68.6758 103.012 68.8555C103.012 69.0273 102.949 69.1738 102.824 69.2949C102.703 69.416 102.555 69.4766 102.379 69.4766ZM102.848 77H101.887V71H102.848V77ZM109.645 77H108.684V76.0508H108.66C108.262 76.7773 107.645 77.1406 106.809 77.1406C105.379 77.1406 104.664 76.2891 104.664 74.5859V71H105.619V74.4336C105.619 75.6992 106.104 76.332 107.072 76.332C107.541 76.332 107.926 76.1602 108.227 75.8164C108.531 75.4688 108.684 75.0156 108.684 74.457V71H109.645V77ZM120.109 77H119.148V73.5547C119.148 72.8906 119.045 72.4102 118.838 72.1133C118.635 71.8164 118.291 71.668 117.807 71.668C117.396 71.668 117.047 71.8555 116.758 72.2305C116.473 72.6055 116.33 73.0547 116.33 73.5781V77H115.369V73.4375C115.369 72.2578 114.914 71.668 114.004 71.668C113.582 71.668 113.234 71.8457 112.961 72.2012C112.688 72.5527 112.551 73.0117 112.551 73.5781V77H111.59V71H112.551V71.9492H112.574C113 71.2227 113.621 70.8594 114.438 70.8594C114.848 70.8594 115.205 70.9746 115.51 71.2051C115.814 71.4316 116.023 71.7305 116.137 72.1016C116.582 71.2734 117.246 70.8594 118.129 70.8594C119.449 70.8594 120.109 71.6738 120.109 73.3027V77ZM129.514 77H128.553V76.0625H128.529C128.111 76.7812 127.496 77.1406 126.684 77.1406C126.086 77.1406 125.617 76.9824 125.277 76.666C124.941 76.3496 124.773 75.9297 124.773 75.4062C124.773 74.2852 125.434 73.6328 126.754 73.4492L128.553 73.1973C128.553 72.1777 128.141 71.668 127.316 71.668C126.594 71.668 125.941 71.9141 125.359 72.4062V71.4219C125.949 71.0469 126.629 70.8594 127.398 70.8594C128.809 70.8594 129.514 71.6055 129.514 73.0977V77ZM128.553 73.9648L127.105 74.1641C126.66 74.2266 126.324 74.3379 126.098 74.498C125.871 74.6543 125.758 74.9336 125.758 75.3359C125.758 75.6289 125.861 75.8691 126.068 76.0566C126.279 76.2402 126.559 76.332 126.906 76.332C127.383 76.332 127.775 76.166 128.084 75.834C128.396 75.498 128.553 75.0742 128.553 74.5625V73.9648ZM136.305 77H135.344V73.5781C135.344 72.3047 134.879 71.668 133.949 71.668C133.469 71.668 133.07 71.8496 132.754 72.2129C132.441 72.5723 132.285 73.0273 132.285 73.5781V77H131.324V71H132.285V71.9961H132.309C132.762 71.2383 133.418 70.8594 134.277 70.8594C134.934 70.8594 135.436 71.0723 135.783 71.498C136.131 71.9199 136.305 72.5312 136.305 73.332V77ZM143.242 77H142.281V75.9805H142.258C141.812 76.7539 141.125 77.1406 140.195 77.1406C139.441 77.1406 138.838 76.873 138.385 76.3379C137.936 75.7988 137.711 75.0664 137.711 74.1406C137.711 73.1484 137.961 72.3535 138.461 71.7559C138.961 71.1582 139.627 70.8594 140.459 70.8594C141.283 70.8594 141.883 71.1836 142.258 71.832H142.281V68.1172H143.242V77ZM142.281 74.2871V73.4023C142.281 72.918 142.121 72.5078 141.801 72.1719C141.48 71.8359 141.074 71.668 140.582 71.668C139.996 71.668 139.535 71.8828 139.199 72.3125C138.863 72.7422 138.695 73.3359 138.695 74.0938C138.695 74.7852 138.855 75.332 139.176 75.7344C139.5 76.1328 139.934 76.332 140.477 76.332C141.012 76.332 141.445 76.1387 141.777 75.752C142.113 75.3652 142.281 74.877 142.281 74.2871ZM154.926 77H153.941V73.168H149.594V77H148.609V68.5977H149.594V72.2832H153.941V68.5977H154.926V77ZM157.492 69.4766C157.32 69.4766 157.174 69.418 157.053 69.3008C156.932 69.1836 156.871 69.0352 156.871 68.8555C156.871 68.6758 156.932 68.5273 157.053 68.4102C157.174 68.2891 157.32 68.2285 157.492 68.2285C157.668 68.2285 157.816 68.2891 157.938 68.4102C158.062 68.5273 158.125 68.6758 158.125 68.8555C158.125 69.0273 158.062 69.1738 157.938 69.2949C157.816 69.416 157.668 69.4766 157.492 69.4766ZM157.961 77H157V71H157.961V77ZM165.027 76.5195C165.027 78.7227 163.973 79.8242 161.863 79.8242C161.121 79.8242 160.473 79.6836 159.918 79.4023V78.4414C160.594 78.8164 161.238 79.0039 161.852 79.0039C163.328 79.0039 164.066 78.2188 164.066 76.6484V75.9922H164.043C163.586 76.7578 162.898 77.1406 161.98 77.1406C161.234 77.1406 160.633 76.875 160.176 76.3438C159.723 75.8086 159.496 75.0918 159.496 74.1934C159.496 73.1738 159.74 72.3633 160.229 71.7617C160.721 71.1602 161.393 70.8594 162.244 70.8594C163.053 70.8594 163.652 71.1836 164.043 71.832H164.066V71H165.027V76.5195ZM164.066 74.2871V73.4023C164.066 72.9258 163.904 72.5176 163.58 72.1777C163.26 71.8379 162.859 71.668 162.379 71.668C161.785 71.668 161.32 71.8848 160.984 72.3184C160.648 72.748 160.48 73.3516 160.48 74.1289C160.48 74.7969 160.641 75.332 160.961 75.7344C161.285 76.1328 161.713 76.332 162.244 76.332C162.783 76.332 163.221 76.1406 163.557 75.7578C163.896 75.375 164.066 74.8848 164.066 74.2871ZM171.953 77H170.992V73.543C170.992 72.293 170.527 71.668 169.598 71.668C169.129 71.668 168.734 71.8496 168.414 72.2129C168.094 72.5723 167.934 73.0352 167.934 73.6016V77H166.973V68.1172H167.934V71.9961H167.957C168.418 71.2383 169.074 70.8594 169.926 70.8594C171.277 70.8594 171.953 71.6738 171.953 73.3027V77Z" fill="#616161"/>
<line x1="-150" y1="87.5" x2="350" y2="87.5" stroke="#E0E0E0"/>
<rect x="230.5" y="40.5" width="109" height="23" fill="#FF0000" fill-opacity="0.2" stroke="#FF0000" stroke-dasharray="2 2"/>
<g clip-path="url(#clip1_4328_31067)">
<path d="M295.3 65.4005C295 65.0005 294.7 64.3005 294.1 63.4005C293.8 62.9005 292.9 61.9005 292.6 61.5005C292.4 61.1005 292.4 60.9005 292.5 60.5005C292.6 59.9005 293.2 59.4005 293.9 59.4005C294.4 59.4005 294.9 59.8005 295.3 60.1005C295.5 60.3005 295.8 60.7005 296 60.9005C296.2 61.1005 296.2 61.2005 296.4 61.4005C296.6 61.7005 296.7 61.9005 296.6 61.5005C296.5 61.0005 296.4 60.2005 296.2 59.4005C296.1 58.8005 296 58.7005 295.9 58.3005C295.8 57.8005 295.7 57.5005 295.6 57.0005C295.5 56.7005 295.4 55.9005 295.3 55.5005C295.2 55.0005 295.2 54.1005 295.6 53.7005C295.9 53.4005 296.5 53.3005 296.9 53.5005C297.4 53.8005 297.7 54.5005 297.8 54.8005C298 55.3005 298.2 56.0005 298.3 56.8005C298.5 57.8005 298.8 59.3005 298.8 59.6005C298.8 59.2005 298.7 58.5005 298.8 58.1005C298.9 57.8005 299.1 57.4005 299.5 57.3005C299.8 57.2005 300.1 57.2005 300.4 57.2005C300.7 57.3005 301 57.5005 301.2 57.7005C301.6 58.3005 301.6 59.6005 301.6 59.5005C301.7 59.1005 301.7 58.3005 301.9 57.9005C302 57.7005 302.4 57.5005 302.6 57.4005C302.9 57.3005 303.3 57.3005 303.6 57.4005C303.8 57.4005 304.2 57.7005 304.3 57.9005C304.5 58.2005 304.6 59.2005 304.7 59.6005C304.7 59.7005 304.8 59.2005 305 58.9005C305.4 58.3005 306.8 58.1005 306.9 59.5005C306.9 60.2005 306.9 60.1005 306.9 60.6005C306.9 61.1005 306.9 61.4005 306.9 61.8005C306.9 62.2005 306.8 63.1005 306.7 63.5005C306.6 63.8005 306.3 64.5005 306 64.9005C306 64.9005 304.9 66.1005 304.8 66.7005C304.7 67.3005 304.7 67.3005 304.7 67.7005C304.7 68.1005 304.8 68.6005 304.8 68.6005C304.8 68.6005 304 68.7005 303.6 68.6005C303.2 68.5005 302.7 67.8005 302.6 67.5005C302.4 67.2005 302.1 67.2005 301.9 67.5005C301.7 67.9005 301.2 68.6005 300.8 68.6005C300.1 68.7005 298.7 68.6005 297.7 68.6005C297.7 68.6005 297.9 67.6005 297.5 67.2005C297.2 66.9005 296.7 66.4005 296.4 66.1005L295.3 65.4005Z" fill="white"/>
<path d="M295.3 65.4005C295 65.0005 294.7 64.3005 294.1 63.4005C293.8 62.9005 292.9 61.9005 292.6 61.5005C292.4 61.1005 292.4 60.9005 292.5 60.5005C292.6 59.9005 293.2 59.4005 293.9 59.4005C294.4 59.4005 294.9 59.8005 295.3 60.1005C295.5 60.3005 295.8 60.7005 296 60.9005C296.2 61.1005 296.2 61.2005 296.4 61.4005C296.6 61.7005 296.7 61.9005 296.6 61.5005C296.5 61.0005 296.4 60.2005 296.2 59.4005C296.1 58.8005 296 58.7005 295.9 58.3005C295.8 57.8005 295.7 57.5005 295.6 57.0005C295.5 56.7005 295.4 55.9005 295.3 55.5005C295.2 55.0005 295.2 54.1005 295.6 53.7005C295.9 53.4005 296.5 53.3005 296.9 53.5005C297.4 53.8005 297.7 54.5005 297.8 54.8005C298 55.3005 298.2 56.0005 298.3 56.8005C298.5 57.8005 298.8 59.3005 298.8 59.6005C298.8 59.2005 298.7 58.5005 298.8 58.1005C298.9 57.8005 299.1 57.4005 299.5 57.3005C299.8 57.2005 300.1 57.2005 300.4 57.2005C300.7 57.3005 301 57.5005 301.2 57.7005C301.6 58.3005 301.6 59.6005 301.6 59.5005C301.7 59.1005 301.7 58.3005 301.9 57.9005C302 57.7005 302.4 57.5005 302.6 57.4005C302.9 57.3005 303.3 57.3005 303.6 57.4005C303.8 57.4005 304.2 57.7005 304.3 57.9005C304.5 58.2005 304.6 59.2005 304.7 59.6005C304.7 59.7005 304.8 59.2005 305 58.9005C305.4 58.3005 306.8 58.1005 306.9 59.5005C306.9 60.2005 306.9 60.1005 306.9 60.6005C306.9 61.1005 306.9 61.4005 306.9 61.8005C306.9 62.2005 306.8 63.1005 306.7 63.5005C306.6 63.8005 306.3 64.5005 306 64.9005C306 64.9005 304.9 66.1005 304.8 66.7005C304.7 67.3005 304.7 67.3005 304.7 67.7005C304.7 68.1005 304.8 68.6005 304.8 68.6005C304.8 68.6005 304 68.7005 303.6 68.6005C303.2 68.5005 302.7 67.8005 302.6 67.5005C302.4 67.2005 302.1 67.2005 301.9 67.5005C301.7 67.9005 301.2 68.6005 300.8 68.6005C300.1 68.7005 298.7 68.6005 297.7 68.6005C297.7 68.6005 297.9 67.6005 297.5 67.2005C297.2 66.9005 296.7 66.4005 296.4 66.1005L295.3 65.4005Z" stroke="black" stroke-width="0.75" stroke-linecap="round" stroke-linejoin="round"/>
<path d="M303.6 65.7008V62.3008" stroke="black" stroke-width="0.75" stroke-linecap="round"/>
<path d="M301.6 65.7008L301.5 62.3008" stroke="black" stroke-width="0.75" stroke-linecap="round"/>
<path d="M299.6 62.3008V65.7008" stroke="black" stroke-width="0.75" stroke-linecap="round"/>
</g>
<rect x="378" y="44" width="16" height="16" rx="2" fill="#0F6CBD"/>
<path d="M389.765 49.2047C390.066 49.4892 390.08 49.9638 389.795 50.265L385.545 54.765C385.406 54.9123 385.213 54.997 385.011 54.9999C384.808 55.0028 384.613 54.9236 384.47 54.7803L382.22 52.5303C381.927 52.2374 381.927 51.7626 382.22 51.4697C382.513 51.1768 382.987 51.1768 383.28 51.4697L384.985 53.174L388.705 49.235C388.989 48.9339 389.464 48.9203 389.765 49.2047Z" fill="white"/>
<path d="M412.371 57H407.285V47.1973H408.434V55.9609H412.371V57ZM418.735 57H417.614V55.9062H417.587C417.099 56.7448 416.382 57.1641 415.434 57.1641C414.736 57.1641 414.189 56.9795 413.793 56.6104C413.401 56.2412 413.205 55.7513 413.205 55.1406C413.205 53.8327 413.975 53.0716 415.516 52.8574L417.614 52.5635C417.614 51.374 417.133 50.7793 416.172 50.7793C415.329 50.7793 414.568 51.0664 413.889 51.6406V50.4922C414.577 50.0547 415.37 49.8359 416.268 49.8359C417.913 49.8359 418.735 50.7064 418.735 52.4473V57ZM417.614 53.459L415.926 53.6914C415.406 53.7643 415.014 53.8942 414.75 54.0811C414.486 54.2633 414.354 54.5892 414.354 55.0586C414.354 55.4004 414.474 55.6807 414.716 55.8994C414.962 56.1136 415.288 56.2207 415.693 56.2207C416.249 56.2207 416.707 56.027 417.067 55.6396C417.432 55.2477 417.614 54.7533 417.614 54.1562V53.459ZM421.996 55.9883H421.969V57H420.848V46.6367H421.969V51.2305H421.996C422.548 50.3008 423.354 49.8359 424.416 49.8359C425.314 49.8359 426.016 50.1504 426.521 50.7793C427.032 51.4036 427.287 52.2422 427.287 53.2949C427.287 54.4661 427.002 55.4049 426.433 56.1113C425.863 56.8132 425.084 57.1641 424.095 57.1641C423.17 57.1641 422.47 56.7721 421.996 55.9883ZM421.969 53.165V54.1426C421.969 54.7214 422.156 55.2135 422.529 55.6191C422.908 56.0202 423.386 56.2207 423.965 56.2207C424.644 56.2207 425.175 55.9609 425.558 55.4414C425.945 54.9219 426.139 54.1995 426.139 53.2744C426.139 52.4951 425.959 51.8844 425.599 51.4424C425.239 51.0003 424.751 50.7793 424.136 50.7793C423.484 50.7793 422.96 51.0072 422.563 51.4629C422.167 51.9141 421.969 52.4814 421.969 53.165ZM434.704 53.7803H429.762C429.78 54.5596 429.99 55.1611 430.391 55.585C430.792 56.0088 431.343 56.2207 432.045 56.2207C432.833 56.2207 433.558 55.9609 434.219 55.4414V56.4941C433.604 56.9408 432.79 57.1641 431.778 57.1641C430.789 57.1641 430.012 56.8473 429.447 56.2139C428.882 55.5758 428.6 54.6803 428.6 53.5273C428.6 52.4382 428.907 51.5518 429.522 50.8682C430.142 50.18 430.91 49.8359 431.826 49.8359C432.742 49.8359 433.451 50.1322 433.952 50.7246C434.453 51.3171 434.704 52.1396 434.704 53.1924V53.7803ZM433.556 52.8301C433.551 52.1829 433.394 51.6794 433.084 51.3193C432.779 50.9593 432.353 50.7793 431.806 50.7793C431.277 50.7793 430.828 50.9684 430.459 51.3467C430.09 51.7249 429.862 52.2194 429.775 52.8301H433.556ZM437.527 57H436.406V46.6367H437.527V57Z" fill="#242424"/>
<rect x="500" y="50" width="360" height="4" rx="2" fill="#616161"/>
<rect x="500" y="50" width="180" height="4" rx="2" fill="#0078D4"/>
<rect x="670.5" y="42.5" width="19" height="19" rx="9.5" fill="white"/>
<rect x="670.5" y="42.5" width="19" height="19" rx="9.5" stroke="#D1D1D1"/>
<rect x="674" y="46" width="12" height="12" rx="6" fill="#0F6CBD"/>
<path d="M510.061 37H508.678V31.5625C508.678 31.1172 508.705 30.5723 508.76 29.9277H508.736C508.65 30.2949 508.574 30.5586 508.508 30.7188L506 37H505.039L502.525 30.7656C502.455 30.582 502.381 30.3027 502.303 29.9277H502.279C502.311 30.2637 502.326 30.8125 502.326 31.5742V37H501.037V28.5977H503L505.209 34.1934C505.377 34.623 505.486 34.9434 505.537 35.1543H505.566C505.711 34.7129 505.828 34.3848 505.918 34.1699L508.168 28.5977H510.061V37ZM517.062 34.3691H512.973C512.988 34.9238 513.158 35.3516 513.482 35.6523C513.811 35.9531 514.26 36.1035 514.83 36.1035C515.471 36.1035 516.059 35.9121 516.594 35.5293V36.625C516.047 36.9688 515.324 37.1406 514.426 37.1406C513.543 37.1406 512.85 36.8691 512.346 36.3262C511.846 35.7793 511.596 35.0117 511.596 34.0234C511.596 33.0898 511.871 32.3301 512.422 31.7441C512.977 31.1543 513.664 30.8594 514.484 30.8594C515.305 30.8594 515.939 31.123 516.389 31.6504C516.838 32.1777 517.062 32.9102 517.062 33.8477V34.3691ZM515.75 33.4082C515.746 32.9199 515.631 32.541 515.404 32.2715C515.178 31.998 514.865 31.8613 514.467 31.8613C514.076 31.8613 513.744 32.0039 513.471 32.2891C513.201 32.5742 513.035 32.9473 512.973 33.4082H515.75ZM523.812 37H522.453V35.9805H522.43C521.992 36.7539 521.318 37.1406 520.408 37.1406C519.67 37.1406 519.078 36.873 518.633 36.3379C518.191 35.7988 517.971 35.0664 517.971 34.1406C517.971 33.1484 518.215 32.3535 518.703 31.7559C519.195 31.1582 519.85 30.8594 520.666 30.8594C521.475 30.8594 522.062 31.1836 522.43 31.832H522.453V28.1172H523.812V37ZM522.471 34.2578V33.4727C522.471 33.0469 522.332 32.6855 522.055 32.3887C521.777 32.0918 521.424 31.9434 520.994 31.9434C520.486 31.9434 520.086 32.1328 519.793 32.5117C519.504 32.8906 519.359 33.416 519.359 34.0879C519.359 34.6973 519.498 35.1797 519.775 35.5352C520.057 35.8867 520.434 36.0625 520.906 36.0625C521.371 36.0625 521.748 35.8926 522.037 35.5527C522.326 35.209 522.471 34.7773 522.471 34.2578ZM526.273 29.7402C526.051 29.7402 525.859 29.668 525.699 29.5234C525.543 29.3789 525.465 29.1953 525.465 28.9727C525.465 28.75 525.543 28.5645 525.699 28.416C525.859 28.2676 526.051 28.1934 526.273 28.1934C526.504 28.1934 526.699 28.2676 526.859 28.416C527.02 28.5645 527.1 28.75 527.1 28.9727C527.1 29.1836 527.02 29.3652 526.859 29.5176C526.699 29.666 526.504 29.7402 526.273 29.7402ZM526.947 37H525.588V31H526.947V37ZM533.961 37H532.602V36.0508H532.578C532.184 36.7773 531.57 37.1406 530.738 37.1406C529.32 37.1406 528.611 36.2891 528.611 34.5859V31H529.971V34.4453C529.971 35.5234 530.387 36.0625 531.219 36.0625C531.621 36.0625 531.951 35.9141 532.209 35.6172C532.471 35.3203 532.602 34.9316 532.602 34.4512V31H533.961V37ZM544.707 37H543.348V33.7305C543.348 33.1016 543.258 32.6465 543.078 32.3652C542.902 32.084 542.604 31.9434 542.182 31.9434C541.826 31.9434 541.523 32.1211 541.273 32.4766C541.027 32.832 540.904 33.2578 540.904 33.7539V37H539.539V33.6191C539.539 32.502 539.145 31.9434 538.355 31.9434C537.988 31.9434 537.686 32.1113 537.447 32.4473C537.213 32.7832 537.096 33.2188 537.096 33.7539V37H535.736V31H537.096V31.9492H537.119C537.553 31.2227 538.184 30.8594 539.012 30.8594C539.426 30.8594 539.787 30.9746 540.096 31.2051C540.408 31.4316 540.621 31.7305 540.734 32.1016C541.18 31.2734 541.844 30.8594 542.727 30.8594C544.047 30.8594 544.707 31.6738 544.707 33.3027V37Z" fill="#424242"/>
<path d="M507.605 77H506.516L505.625 74.6445H502.062L501.225 77H500.129L503.352 68.5977H504.371L507.605 77ZM505.303 73.7598L503.984 70.1797C503.941 70.0625 503.898 69.875 503.855 69.6172H503.832C503.793 69.8555 503.748 70.043 503.697 70.1797L502.391 73.7598H505.303ZM509.68 77H508.719V68.1172H509.68V77ZM512.586 77H511.625V68.1172H512.586V77ZM517.039 77.1406C516.152 77.1406 515.443 76.8613 514.912 76.3027C514.385 75.7402 514.121 74.9961 514.121 74.0703C514.121 73.0625 514.396 72.2754 514.947 71.709C515.498 71.1426 516.242 70.8594 517.18 70.8594C518.074 70.8594 518.771 71.1348 519.271 71.6855C519.775 72.2363 520.027 73 520.027 73.9766C520.027 74.9336 519.756 75.7012 519.213 76.2793C518.674 76.8535 517.949 77.1406 517.039 77.1406ZM517.109 71.668C516.492 71.668 516.004 71.8789 515.645 72.3008C515.285 72.7188 515.105 73.2969 515.105 74.0352C515.105 74.7461 515.287 75.3066 515.65 75.7168C516.014 76.127 516.5 76.332 517.109 76.332C517.73 76.332 518.207 76.1309 518.539 75.7285C518.875 75.3262 519.043 74.7539 519.043 74.0117C519.043 73.2617 518.875 72.6836 518.539 72.2773C518.207 71.8711 517.73 71.668 517.109 71.668ZM529.121 71L527.322 77H526.326L525.09 72.7051C525.043 72.541 525.012 72.3555 524.996 72.1484H524.973C524.961 72.2891 524.92 72.4707 524.85 72.6934L523.508 77H522.547L520.73 71H521.738L522.98 75.5117C523.02 75.6484 523.047 75.8281 523.062 76.0508H523.109C523.121 75.8789 523.156 75.6953 523.215 75.5L524.598 71H525.477L526.719 75.5234C526.758 75.668 526.787 75.8477 526.807 76.0625H526.854C526.861 75.9102 526.895 75.7305 526.953 75.5234L528.172 71H529.121ZM538.016 77H533.656V68.5977H534.641V76.1094H538.016V77ZM541.684 77.1406C540.797 77.1406 540.088 76.8613 539.557 76.3027C539.029 75.7402 538.766 74.9961 538.766 74.0703C538.766 73.0625 539.041 72.2754 539.592 71.709C540.143 71.1426 540.887 70.8594 541.824 70.8594C542.719 70.8594 543.416 71.1348 543.916 71.6855C544.42 72.2363 544.672 73 544.672 73.9766C544.672 74.9336 544.4 75.7012 543.857 76.2793C543.318 76.8535 542.594 77.1406 541.684 77.1406ZM541.754 71.668C541.137 71.668 540.648 71.8789 540.289 72.3008C539.93 72.7188 539.75 73.2969 539.75 74.0352C539.75 74.7461 539.932 75.3066 540.295 75.7168C540.658 76.127 541.145 76.332 541.754 76.332C542.375 76.332 542.852 76.1309 543.184 75.7285C543.52 75.3262 543.688 74.7539 543.688 74.0117C543.688 73.2617 543.52 72.6836 543.184 72.2773C542.852 71.8711 542.375 71.668 541.754 71.668ZM553.766 71L551.967 77H550.971L549.734 72.7051C549.688 72.541 549.656 72.3555 549.641 72.1484H549.617C549.605 72.2891 549.564 72.4707 549.494 72.6934L548.152 77H547.191L545.375 71H546.383L547.625 75.5117C547.664 75.6484 547.691 75.8281 547.707 76.0508H547.754C547.766 75.8789 547.801 75.6953 547.859 75.5L549.242 71H550.121L551.363 75.5234C551.402 75.668 551.432 75.8477 551.451 76.0625H551.498C551.506 75.9102 551.539 75.7305 551.598 75.5234L552.816 71H553.766ZM561.963 68.5977L557.932 78.3945H557.035L561.055 68.5977H561.963ZM566.27 77V68.5977H568.66C569.387 68.5977 569.963 68.7754 570.389 69.1309C570.814 69.4863 571.027 69.9492 571.027 70.5195C571.027 70.9961 570.898 71.4102 570.641 71.7617C570.383 72.1133 570.027 72.3633 569.574 72.5117V72.5352C570.141 72.6016 570.594 72.8164 570.934 73.1797C571.273 73.5391 571.443 74.0078 571.443 74.5859C571.443 75.3047 571.186 75.8867 570.67 76.332C570.154 76.7773 569.504 77 568.719 77H566.27ZM567.254 69.4883V72.2012H568.262C568.801 72.2012 569.225 72.0723 569.533 71.8145C569.842 71.5527 569.996 71.1855 569.996 70.7129C569.996 69.8965 569.459 69.4883 568.385 69.4883H567.254ZM567.254 73.0859V76.1094H568.59C569.168 76.1094 569.615 75.9727 569.932 75.6992C570.252 75.4258 570.412 75.0508 570.412 74.5742C570.412 73.582 569.736 73.0859 568.385 73.0859H567.254ZM573.98 77H573.02V68.1172H573.98V77ZM578.434 77.1406C577.547 77.1406 576.838 76.8613 576.307 76.3027C575.779 75.7402 575.516 74.9961 575.516 74.0703C575.516 73.0625 575.791 72.2754 576.342 71.709C576.893 71.1426 577.637 70.8594 578.574 70.8594C579.469 70.8594 580.166 71.1348 580.666 71.6855C581.17 72.2363 581.422 73 581.422 73.9766C581.422 74.9336 581.15 75.7012 580.607 76.2793C580.068 76.8535 579.344 77.1406 578.434 77.1406ZM578.504 71.668C577.887 71.668 577.398 71.8789 577.039 72.3008C576.68 72.7188 576.5 73.2969 576.5 74.0352C576.5 74.7461 576.682 75.3066 577.045 75.7168C577.408 76.127 577.895 76.332 578.504 76.332C579.125 76.332 579.602 76.1309 579.934 75.7285C580.27 75.3262 580.438 74.7539 580.438 74.0117C580.438 73.2617 580.27 72.6836 579.934 72.2773C579.602 71.8711 579.125 71.668 578.504 71.668ZM587.047 76.7246C586.586 77.002 586.039 77.1406 585.406 77.1406C584.551 77.1406 583.859 76.8633 583.332 76.3086C582.809 75.75 582.547 75.0273 582.547 74.1406C582.547 73.1523 582.83 72.3594 583.396 71.7617C583.963 71.1602 584.719 70.8594 585.664 70.8594C586.191 70.8594 586.656 70.957 587.059 71.1523V72.1367C586.613 71.8242 586.137 71.668 585.629 71.668C585.016 71.668 584.512 71.8887 584.117 72.3301C583.727 72.7676 583.531 73.3438 583.531 74.0586C583.531 74.7617 583.715 75.3164 584.082 75.7227C584.453 76.1289 584.949 76.332 585.57 76.332C586.094 76.332 586.586 76.1582 587.047 75.8105V76.7246ZM593.48 77H592.133L589.484 74.1172H589.461V77H588.5V68.1172H589.461V73.748H589.484L592.004 71H593.264L590.48 73.8945L593.48 77ZM606.453 77H605.475V71.3633C605.475 70.918 605.502 70.373 605.557 69.7285H605.533C605.439 70.1074 605.355 70.3789 605.281 70.543L602.41 77H601.93L599.064 70.5898C598.982 70.4023 598.898 70.1152 598.812 69.7285H598.789C598.82 70.0645 598.836 70.6133 598.836 71.375V77H597.887V68.5977H599.188L601.766 74.457C601.965 74.9062 602.094 75.2422 602.152 75.4648H602.188C602.355 75.0039 602.49 74.6602 602.592 74.4336L605.223 68.5977H606.453V77ZM613.361 74.2402H609.125C609.141 74.9082 609.32 75.4238 609.664 75.7871C610.008 76.1504 610.48 76.332 611.082 76.332C611.758 76.332 612.379 76.1094 612.945 75.6641V76.5664C612.418 76.9492 611.721 77.1406 610.854 77.1406C610.006 77.1406 609.34 76.8691 608.855 76.3262C608.371 75.7793 608.129 75.0117 608.129 74.0234C608.129 73.0898 608.393 72.3301 608.92 71.7441C609.451 71.1543 610.109 70.8594 610.895 70.8594C611.68 70.8594 612.287 71.1133 612.717 71.6211C613.146 72.1289 613.361 72.834 613.361 73.7363V74.2402ZM612.377 73.4258C612.373 72.8711 612.238 72.4395 611.973 72.1309C611.711 71.8223 611.346 71.668 610.877 71.668C610.424 71.668 610.039 71.8301 609.723 72.1543C609.406 72.4785 609.211 72.9023 609.137 73.4258H612.377ZM619.941 77H618.98V75.9805H618.957C618.512 76.7539 617.824 77.1406 616.895 77.1406C616.141 77.1406 615.537 76.873 615.084 76.3379C614.635 75.7988 614.41 75.0664 614.41 74.1406C614.41 73.1484 614.66 72.3535 615.16 71.7559C615.66 71.1582 616.326 70.8594 617.158 70.8594C617.982 70.8594 618.582 71.1836 618.957 71.832H618.98V68.1172H619.941V77ZM618.98 74.2871V73.4023C618.98 72.918 618.82 72.5078 618.5 72.1719C618.18 71.8359 617.773 71.668 617.281 71.668C616.695 71.668 616.234 71.8828 615.898 72.3125C615.562 72.7422 615.395 73.3359 615.395 74.0938C615.395 74.7852 615.555 75.332 615.875 75.7344C616.199 76.1328 616.633 76.332 617.176 76.332C617.711 76.332 618.145 76.1387 618.477 75.752C618.812 75.3652 618.98 74.877 618.98 74.2871ZM622.379 69.4766C622.207 69.4766 622.061 69.418 621.939 69.3008C621.818 69.1836 621.758 69.0352 621.758 68.8555C621.758 68.6758 621.818 68.5273 621.939 68.4102C622.061 68.2891 622.207 68.2285 622.379 68.2285C622.555 68.2285 622.703 68.2891 622.824 68.4102C622.949 68.5273 623.012 68.6758 623.012 68.8555C623.012 69.0273 622.949 69.1738 622.824 69.2949C622.703 69.416 622.555 69.4766 622.379 69.4766ZM622.848 77H621.887V71H622.848V77ZM629.645 77H628.684V76.0508H628.66C628.262 76.7773 627.645 77.1406 626.809 77.1406C625.379 77.1406 624.664 76.2891 624.664 74.5859V71H625.619V74.4336C625.619 75.6992 626.104 76.332 627.072 76.332C627.541 76.332 627.926 76.1602 628.227 75.8164C628.531 75.4688 628.684 75.0156 628.684 74.457V71H629.645V77ZM640.109 77H639.148V73.5547C639.148 72.8906 639.045 72.4102 638.838 72.1133C638.635 71.8164 638.291 71.668 637.807 71.668C637.396 71.668 637.047 71.8555 636.758 72.2305C636.473 72.6055 636.33 73.0547 636.33 73.5781V77H635.369V73.4375C635.369 72.2578 634.914 71.668 634.004 71.668C633.582 71.668 633.234 71.8457 632.961 72.2012C632.688 72.5527 632.551 73.0117 632.551 73.5781V77H631.59V71H632.551V71.9492H632.574C633 71.2227 633.621 70.8594 634.438 70.8594C634.848 70.8594 635.205 70.9746 635.51 71.2051C635.814 71.4316 636.023 71.7305 636.137 72.1016C636.582 71.2734 637.246 70.8594 638.129 70.8594C639.449 70.8594 640.109 71.6738 640.109 73.3027V77ZM649.514 77H648.553V76.0625H648.529C648.111 76.7812 647.496 77.1406 646.684 77.1406C646.086 77.1406 645.617 76.9824 645.277 76.666C644.941 76.3496 644.773 75.9297 644.773 75.4062C644.773 74.2852 645.434 73.6328 646.754 73.4492L648.553 73.1973C648.553 72.1777 648.141 71.668 647.316 71.668C646.594 71.668 645.941 71.9141 645.359 72.4062V71.4219C645.949 71.0469 646.629 70.8594 647.398 70.8594C648.809 70.8594 649.514 71.6055 649.514 73.0977V77ZM648.553 73.9648L647.105 74.1641C646.66 74.2266 646.324 74.3379 646.098 74.498C645.871 74.6543 645.758 74.9336 645.758 75.3359C645.758 75.6289 645.861 75.8691 646.068 76.0566C646.279 76.2402 646.559 76.332 646.906 76.332C647.383 76.332 647.775 76.166 648.084 75.834C648.396 75.498 648.553 75.0742 648.553 74.5625V73.9648ZM656.305 77H655.344V73.5781C655.344 72.3047 654.879 71.668 653.949 71.668C653.469 71.668 653.07 71.8496 652.754 72.2129C652.441 72.5723 652.285 73.0273 652.285 73.5781V77H651.324V71H652.285V71.9961H652.309C652.762 71.2383 653.418 70.8594 654.277 70.8594C654.934 70.8594 655.436 71.0723 655.783 71.498C656.131 71.9199 656.305 72.5312 656.305 73.332V77ZM663.242 77H662.281V75.9805H662.258C661.812 76.7539 661.125 77.1406 660.195 77.1406C659.441 77.1406 658.838 76.873 658.385 76.3379C657.936 75.7988 657.711 75.0664 657.711 74.1406C657.711 73.1484 657.961 72.3535 658.461 71.7559C658.961 71.1582 659.627 70.8594 660.459 70.8594C661.283 70.8594 661.883 71.1836 662.258 71.832H662.281V68.1172H663.242V77ZM662.281 74.2871V73.4023C662.281 72.918 662.121 72.5078 661.801 72.1719C661.48 71.8359 661.074 71.668 660.582 71.668C659.996 71.668 659.535 71.8828 659.199 72.3125C658.863 72.7422 658.695 73.3359 658.695 74.0938C658.695 74.7852 658.855 75.332 659.176 75.7344C659.5 76.1328 659.934 76.332 660.477 76.332C661.012 76.332 661.445 76.1387 661.777 75.752C662.113 75.3652 662.281 74.877 662.281 74.2871ZM674.926 77H673.941V73.168H669.594V77H668.609V68.5977H669.594V72.2832H673.941V68.5977H674.926V77ZM677.492 69.4766C677.32 69.4766 677.174 69.418 677.053 69.3008C676.932 69.1836 676.871 69.0352 676.871 68.8555C676.871 68.6758 676.932 68.5273 677.053 68.4102C677.174 68.2891 677.32 68.2285 677.492 68.2285C677.668 68.2285 677.816 68.2891 677.938 68.4102C678.062 68.5273 678.125 68.6758 678.125 68.8555C678.125 69.0273 678.062 69.1738 677.938 69.2949C677.816 69.416 677.668 69.4766 677.492 69.4766ZM677.961 77H677V71H677.961V77ZM685.027 76.5195C685.027 78.7227 683.973 79.8242 681.863 79.8242C681.121 79.8242 680.473 79.6836 679.918 79.4023V78.4414C680.594 78.8164 681.238 79.0039 681.852 79.0039C683.328 79.0039 684.066 78.2188 684.066 76.6484V75.9922H684.043C683.586 76.7578 682.898 77.1406 681.98 77.1406C681.234 77.1406 680.633 76.875 680.176 76.3438C679.723 75.8086 679.496 75.0918 679.496 74.1934C679.496 73.1738 679.74 72.3633 680.229 71.7617C680.721 71.1602 681.393 70.8594 682.244 70.8594C683.053 70.8594 683.652 71.1836 684.043 71.832H684.066V71H685.027V76.5195ZM684.066 74.2871V73.4023C684.066 72.9258 683.904 72.5176 683.58 72.1777C683.26 71.8379 682.859 71.668 682.379 71.668C681.785 71.668 681.32 71.8848 680.984 72.3184C680.648 72.748 680.48 73.3516 680.48 74.1289C680.48 74.7969 680.641 75.332 680.961 75.7344C681.285 76.1328 681.713 76.332 682.244 76.332C682.783 76.332 683.221 76.1406 683.557 75.7578C683.896 75.375 684.066 74.8848 684.066 74.2871ZM691.953 77H690.992V73.543C690.992 72.293 690.527 71.668 689.598 71.668C689.129 71.668 688.734 71.8496 688.414 72.2129C688.094 72.5723 687.934 73.0352 687.934 73.6016V77H686.973V68.1172H687.934V71.9961H687.957C688.418 71.2383 689.074 70.8594 689.926 70.8594C691.277 70.8594 691.953 71.6738 691.953 73.3027V77Z" fill="#616161"/>
<line x1="370" y1="87.5" x2="870" y2="87.5" stroke="#E0E0E0"/>
<rect x="370.5" y="40.5" width="109" height="23" fill="#FF0000" fill-opacity="0.2" stroke="#FF0000" stroke-dasharray="2 2"/>
<g clip-path="url(#clip2_4328_31067)">
<path d="M435.3 65.4005C435 65.0005 434.7 64.3005 434.1 63.4005C433.8 62.9005 432.9 61.9005 432.6 61.5005C432.4 61.1005 432.4 60.9005 432.5 60.5005C432.6 59.9005 433.2 59.4005 433.9 59.4005C434.4 59.4005 434.9 59.8005 435.3 60.1005C435.5 60.3005 435.8 60.7005 436 60.9005C436.2 61.1005 436.2 61.2005 436.4 61.4005C436.6 61.7005 436.7 61.9005 436.6 61.5005C436.5 61.0005 436.4 60.2005 436.2 59.4005C436.1 58.8005 436 58.7005 435.9 58.3005C435.8 57.8005 435.7 57.5005 435.6 57.0005C435.5 56.7005 435.4 55.9005 435.3 55.5005C435.2 55.0005 435.2 54.1005 435.6 53.7005C435.9 53.4005 436.5 53.3005 436.9 53.5005C437.4 53.8005 437.7 54.5005 437.8 54.8005C438 55.3005 438.2 56.0005 438.3 56.8005C438.5 57.8005 438.8 59.3005 438.8 59.6005C438.8 59.2005 438.7 58.5005 438.8 58.1005C438.9 57.8005 439.1 57.4005 439.5 57.3005C439.8 57.2005 440.1 57.2005 440.4 57.2005C440.7 57.3005 441 57.5005 441.2 57.7005C441.6 58.3005 441.6 59.6005 441.6 59.5005C441.7 59.1005 441.7 58.3005 441.9 57.9005C442 57.7005 442.4 57.5005 442.6 57.4005C442.9 57.3005 443.3 57.3005 443.6 57.4005C443.8 57.4005 444.2 57.7005 444.3 57.9005C444.5 58.2005 444.6 59.2005 444.7 59.6005C444.7 59.7005 444.8 59.2005 445 58.9005C445.4 58.3005 446.8 58.1005 446.9 59.5005C446.9 60.2005 446.9 60.1005 446.9 60.6005C446.9 61.1005 446.9 61.4005 446.9 61.8005C446.9 62.2005 446.8 63.1005 446.7 63.5005C446.6 63.8005 446.3 64.5005 446 64.9005C446 64.9005 444.9 66.1005 444.8 66.7005C444.7 67.3005 444.7 67.3005 444.7 67.7005C444.7 68.1005 444.8 68.6005 444.8 68.6005C444.8 68.6005 444 68.7005 443.6 68.6005C443.2 68.5005 442.7 67.8005 442.6 67.5005C442.4 67.2005 442.1 67.2005 441.9 67.5005C441.7 67.9005 441.2 68.6005 440.8 68.6005C440.1 68.7005 438.7 68.6005 437.7 68.6005C437.7 68.6005 437.9 67.6005 437.5 67.2005C437.2 66.9005 436.7 66.4005 436.4 66.1005L435.3 65.4005Z" fill="white"/>
<path d="M435.3 65.4005C435 65.0005 434.7 64.3005 434.1 63.4005C433.8 62.9005 432.9 61.9005 432.6 61.5005C432.4 61.1005 432.4 60.9005 432.5 60.5005C432.6 59.9005 433.2 59.4005 433.9 59.4005C434.4 59.4005 434.9 59.8005 435.3 60.1005C435.5 60.3005 435.8 60.7005 436 60.9005C436.2 61.1005 436.2 61.2005 436.4 61.4005C436.6 61.7005 436.7 61.9005 436.6 61.5005C436.5 61.0005 436.4 60.2005 436.2 59.4005C436.1 58.8005 436 58.7005 435.9 58.3005C435.8 57.8005 435.7 57.5005 435.6 57.0005C435.5 56.7005 435.4 55.9005 435.3 55.5005C435.2 55.0005 435.2 54.1005 435.6 53.7005C435.9 53.4005 436.5 53.3005 436.9 53.5005C437.4 53.8005 437.7 54.5005 437.8 54.8005C438 55.3005 438.2 56.0005 438.3 56.8005C438.5 57.8005 438.8 59.3005 438.8 59.6005C438.8 59.2005 438.7 58.5005 438.8 58.1005C438.9 57.8005 439.1 57.4005 439.5 57.3005C439.8 57.2005 440.1 57.2005 440.4 57.2005C440.7 57.3005 441 57.5005 441.2 57.7005C441.6 58.3005 441.6 59.6005 441.6 59.5005C441.7 59.1005 441.7 58.3005 441.9 57.9005C442 57.7005 442.4 57.5005 442.6 57.4005C442.9 57.3005 443.3 57.3005 443.6 57.4005C443.8 57.4005 444.2 57.7005 444.3 57.9005C444.5 58.2005 444.6 59.2005 444.7 59.6005C444.7 59.7005 444.8 59.2005 445 58.9005C445.4 58.3005 446.8 58.1005 446.9 59.5005C446.9 60.2005 446.9 60.1005 446.9 60.6005C446.9 61.1005 446.9 61.4005 446.9 61.8005C446.9 62.2005 446.8 63.1005 446.7 63.5005C446.6 63.8005 446.3 64.5005 446 64.9005C446 64.9005 444.9 66.1005 444.8 66.7005C444.7 67.3005 444.7 67.3005 444.7 67.7005C444.7 68.1005 444.8 68.6005 444.8 68.6005C444.8 68.6005 444 68.7005 443.6 68.6005C443.2 68.5005 442.7 67.8005 442.6 67.5005C442.4 67.2005 442.1 67.2005 441.9 67.5005C441.7 67.9005 441.2 68.6005 440.8 68.6005C440.1 68.7005 438.7 68.6005 437.7 68.6005C437.7 68.6005 437.9 67.6005 437.5 67.2005C437.2 66.9005 436.7 66.4005 436.4 66.1005L435.3 65.4005Z" stroke="black" stroke-width="0.75" stroke-linecap="round" stroke-linejoin="round"/>
<path d="M443.6 65.7008V62.3008" stroke="black" stroke-width="0.75" stroke-linecap="round"/>
<path d="M441.6 65.7008L441.5 62.3008" stroke="black" stroke-width="0.75" stroke-linecap="round"/>
<path d="M439.6 62.3008V65.7008" stroke="black" stroke-width="0.75" stroke-linecap="round"/>
</g>
<rect x="-20" y="235" width="360" height="4" rx="2" fill="#616161"/>
<rect x="-20" y="235" width="180" height="4" rx="2" fill="#0078D4"/>
<rect x="150.5" y="227.5" width="19" height="19" rx="9.5" fill="white"/>
<rect x="150.5" y="227.5" width="19" height="19" rx="9.5" stroke="#D1D1D1"/>
<rect x="154" y="231" width="12" height="12" rx="6" fill="#0F6CBD"/>
<path d="M-9.93945 222H-11.3223V216.562C-11.3223 216.117 -11.2949 215.572 -11.2402 214.928H-11.2637C-11.3496 215.295 -11.4258 215.559 -11.4922 215.719L-14 222H-14.9609L-17.4746 215.766C-17.5449 215.582 -17.6191 215.303 -17.6973 214.928H-17.7207C-17.6895 215.264 -17.6738 215.812 -17.6738 216.574V222H-18.9629V213.598H-17L-14.791 219.193C-14.623 219.623 -14.5137 219.943 -14.4629 220.154H-14.4336C-14.2891 219.713 -14.1719 219.385 -14.082 219.17L-11.832 213.598H-9.93945V222ZM-2.9375 219.369H-7.02734C-7.01172 219.924 -6.8418 220.352 -6.51758 220.652C-6.18945 220.953 -5.74023 221.104 -5.16992 221.104C-4.5293 221.104 -3.94141 220.912 -3.40625 220.529V221.625C-3.95312 221.969 -4.67578 222.141 -5.57422 222.141C-6.45703 222.141 -7.15039 221.869 -7.6543 221.326C-8.1543 220.779 -8.4043 220.012 -8.4043 219.023C-8.4043 218.09 -8.12891 217.33 -7.57812 216.744C-7.02344 216.154 -6.33594 215.859 -5.51562 215.859C-4.69531 215.859 -4.06055 216.123 -3.61133 216.65C-3.16211 217.178 -2.9375 217.91 -2.9375 218.848V219.369ZM-4.25 218.408C-4.25391 217.92 -4.36914 217.541 -4.5957 217.271C-4.82227 216.998 -5.13477 216.861 -5.5332 216.861C-5.92383 216.861 -6.25586 217.004 -6.5293 217.289C-6.79883 217.574 -6.96484 217.947 -7.02734 218.408H-4.25ZM3.8125 222H2.45312V220.98H2.42969C1.99219 221.754 1.31836 222.141 0.408203 222.141C-0.330078 222.141 -0.921875 221.873 -1.36719 221.338C-1.80859 220.799 -2.0293 220.066 -2.0293 219.141C-2.0293 218.148 -1.78516 217.354 -1.29688 216.756C-0.804688 216.158 -0.150391 215.859 0.666016 215.859C1.47461 215.859 2.0625 216.184 2.42969 216.832H2.45312V213.117H3.8125V222ZM2.4707 219.258V218.473C2.4707 218.047 2.33203 217.686 2.05469 217.389C1.77734 217.092 1.42383 216.943 0.994141 216.943C0.486328 216.943 0.0859375 217.133 -0.207031 217.512C-0.496094 217.891 -0.640625 218.416 -0.640625 219.088C-0.640625 219.697 -0.501953 220.18 -0.224609 220.535C0.0566406 220.887 0.433594 221.062 0.90625 221.062C1.37109 221.062 1.74805 220.893 2.03711 220.553C2.32617 220.209 2.4707 219.777 2.4707 219.258ZM6.27344 214.74C6.05078 214.74 5.85938 214.668 5.69922 214.523C5.54297 214.379 5.46484 214.195 5.46484 213.973C5.46484 213.75 5.54297 213.564 5.69922 213.416C5.85938 213.268 6.05078 213.193 6.27344 213.193C6.50391 213.193 6.69922 213.268 6.85938 213.416C7.01953 213.564 7.09961 213.75 7.09961 213.973C7.09961 214.184 7.01953 214.365 6.85938 214.518C6.69922 214.666 6.50391 214.74 6.27344 214.74ZM6.94727 222H5.58789V216H6.94727V222ZM13.9609 222H12.6016V221.051H12.5781C12.1836 221.777 11.5703 222.141 10.7383 222.141C9.32031 222.141 8.61133 221.289 8.61133 219.586V216H9.9707V219.445C9.9707 220.523 10.3867 221.062 11.2188 221.062C11.6211 221.062 11.9512 220.914 12.209 220.617C12.4707 220.32 12.6016 219.932 12.6016 219.451V216H13.9609V222ZM24.707 222H23.3477V218.73C23.3477 218.102 23.2578 217.646 23.0781 217.365C22.9023 217.084 22.6035 216.943 22.1816 216.943C21.8262 216.943 21.5234 217.121 21.2734 217.477C21.0273 217.832 20.9043 218.258 20.9043 218.754V222H19.5391V218.619C19.5391 217.502 19.1445 216.943 18.3555 216.943C17.9883 216.943 17.6855 217.111 17.4473 217.447C17.2129 217.783 17.0957 218.219 17.0957 218.754V222H15.7363V216H17.0957V216.949H17.1191C17.5527 216.223 18.1836 215.859 19.0117 215.859C19.4258 215.859 19.7871 215.975 20.0957 216.205C20.4082 216.432 20.6211 216.73 20.7344 217.102C21.1797 216.273 21.8438 215.859 22.7266 215.859C24.0469 215.859 24.707 216.674 24.707 218.303V222Z" fill="#424242"/>
<path d="M-12.3945 262H-13.4844L-14.375 259.645H-17.9375L-18.7754 262H-19.8711L-16.6484 253.598H-15.6289L-12.3945 262ZM-14.6973 258.76L-16.0156 255.18C-16.0586 255.062 -16.1016 254.875 -16.1445 254.617H-16.168C-16.207 254.855 -16.252 255.043 -16.3027 255.18L-17.6094 258.76H-14.6973ZM-10.3203 262H-11.2812V253.117H-10.3203V262ZM-7.41406 262H-8.375V253.117H-7.41406V262ZM-2.96094 262.141C-3.84766 262.141 -4.55664 261.861 -5.08789 261.303C-5.61523 260.74 -5.87891 259.996 -5.87891 259.07C-5.87891 258.062 -5.60352 257.275 -5.05273 256.709C-4.50195 256.143 -3.75781 255.859 -2.82031 255.859C-1.92578 255.859 -1.22852 256.135 -0.728516 256.686C-0.224609 257.236 0.0273438 258 0.0273438 258.977C0.0273438 259.934 -0.244141 260.701 -0.787109 261.279C-1.32617 261.854 -2.05078 262.141 -2.96094 262.141ZM-2.89062 256.668C-3.50781 256.668 -3.99609 256.879 -4.35547 257.301C-4.71484 257.719 -4.89453 258.297 -4.89453 259.035C-4.89453 259.746 -4.71289 260.307 -4.34961 260.717C-3.98633 261.127 -3.5 261.332 -2.89062 261.332C-2.26953 261.332 -1.79297 261.131 -1.46094 260.729C-1.125 260.326 -0.957031 259.754 -0.957031 259.012C-0.957031 258.262 -1.125 257.684 -1.46094 257.277C-1.79297 256.871 -2.26953 256.668 -2.89062 256.668ZM9.12109 256L7.32227 262H6.32617L5.08984 257.705C5.04297 257.541 5.01172 257.355 4.99609 257.148H4.97266C4.96094 257.289 4.91992 257.471 4.84961 257.693L3.50781 262H2.54688L0.730469 256H1.73828L2.98047 260.512C3.01953 260.648 3.04688 260.828 3.0625 261.051H3.10938C3.12109 260.879 3.15625 260.695 3.21484 260.5L4.59766 256H5.47656L6.71875 260.523C6.75781 260.668 6.78711 260.848 6.80664 261.062H6.85352C6.86133 260.91 6.89453 260.73 6.95312 260.523L8.17188 256H9.12109ZM18.0156 262H13.6562V253.598H14.6406V261.109H18.0156V262ZM21.6836 262.141C20.7969 262.141 20.0879 261.861 19.5566 261.303C19.0293 260.74 18.7656 259.996 18.7656 259.07C18.7656 258.062 19.041 257.275 19.5918 256.709C20.1426 256.143 20.8867 255.859 21.8242 255.859C22.7188 255.859 23.416 256.135 23.916 256.686C24.4199 257.236 24.6719 258 24.6719 258.977C24.6719 259.934 24.4004 260.701 23.8574 261.279C23.3184 261.854 22.5938 262.141 21.6836 262.141ZM21.7539 256.668C21.1367 256.668 20.6484 256.879 20.2891 257.301C19.9297 257.719 19.75 258.297 19.75 259.035C19.75 259.746 19.9316 260.307 20.2949 260.717C20.6582 261.127 21.1445 261.332 21.7539 261.332C22.375 261.332 22.8516 261.131 23.1836 260.729C23.5195 260.326 23.6875 259.754 23.6875 259.012C23.6875 258.262 23.5195 257.684 23.1836 257.277C22.8516 256.871 22.375 256.668 21.7539 256.668ZM33.7656 256L31.9668 262H30.9707L29.7344 257.705C29.6875 257.541 29.6562 257.355 29.6406 257.148H29.6172C29.6055 257.289 29.5645 257.471 29.4941 257.693L28.1523 262H27.1914L25.375 256H26.3828L27.625 260.512C27.6641 260.648 27.6914 260.828 27.707 261.051H27.7539C27.7656 260.879 27.8008 260.695 27.8594 260.5L29.2422 256H30.1211L31.3633 260.523C31.4023 260.668 31.4316 260.848 31.4512 261.062H31.498C31.5059 260.91 31.5391 260.73 31.5977 260.523L32.8164 256H33.7656ZM41.9629 253.598L37.9316 263.395H37.0352L41.0547 253.598H41.9629ZM46.2695 262V253.598H48.6602C49.3867 253.598 49.9629 253.775 50.3887 254.131C50.8145 254.486 51.0273 254.949 51.0273 255.52C51.0273 255.996 50.8984 256.41 50.6406 256.762C50.3828 257.113 50.0273 257.363 49.5742 257.512V257.535C50.1406 257.602 50.5938 257.816 50.9336 258.18C51.2734 258.539 51.4434 259.008 51.4434 259.586C51.4434 260.305 51.1855 260.887 50.6699 261.332C50.1543 261.777 49.5039 262 48.7188 262H46.2695ZM47.2539 254.488V257.201H48.2617C48.8008 257.201 49.2246 257.072 49.5332 256.814C49.8418 256.553 49.9961 256.186 49.9961 255.713C49.9961 254.896 49.459 254.488 48.3848 254.488H47.2539ZM47.2539 258.086V261.109H48.5898C49.168 261.109 49.6152 260.973 49.9316 260.699C50.252 260.426 50.4121 260.051 50.4121 259.574C50.4121 258.582 49.7363 258.086 48.3848 258.086H47.2539ZM53.9805 262H53.0195V253.117H53.9805V262ZM58.4336 262.141C57.5469 262.141 56.8379 261.861 56.3066 261.303C55.7793 260.74 55.5156 259.996 55.5156 259.07C55.5156 258.062 55.791 257.275 56.3418 256.709C56.8926 256.143 57.6367 255.859 58.5742 255.859C59.4688 255.859 60.166 256.135 60.666 256.686C61.1699 257.236 61.4219 258 61.4219 258.977C61.4219 259.934 61.1504 260.701 60.6074 261.279C60.0684 261.854 59.3438 262.141 58.4336 262.141ZM58.5039 256.668C57.8867 256.668 57.3984 256.879 57.0391 257.301C56.6797 257.719 56.5 258.297 56.5 259.035C56.5 259.746 56.6816 260.307 57.0449 260.717C57.4082 261.127 57.8945 261.332 58.5039 261.332C59.125 261.332 59.6016 261.131 59.9336 260.729C60.2695 260.326 60.4375 259.754 60.4375 259.012C60.4375 258.262 60.2695 257.684 59.9336 257.277C59.6016 256.871 59.125 256.668 58.5039 256.668ZM67.0469 261.725C66.5859 262.002 66.0391 262.141 65.4062 262.141C64.5508 262.141 63.8594 261.863 63.332 261.309C62.8086 260.75 62.5469 260.027 62.5469 259.141C62.5469 258.152 62.8301 257.359 63.3965 256.762C63.9629 256.16 64.7188 255.859 65.6641 255.859C66.1914 255.859 66.6562 255.957 67.0586 256.152V257.137C66.6133 256.824 66.1367 256.668 65.6289 256.668C65.0156 256.668 64.5117 256.889 64.1172 257.33C63.7266 257.768 63.5312 258.344 63.5312 259.059C63.5312 259.762 63.7148 260.316 64.082 260.723C64.4531 261.129 64.9492 261.332 65.5703 261.332C66.0938 261.332 66.5859 261.158 67.0469 260.811V261.725ZM73.4805 262H72.1328L69.4844 259.117H69.4609V262H68.5V253.117H69.4609V258.748H69.4844L72.0039 256H73.2637L70.4805 258.895L73.4805 262ZM86.4531 262H85.4746V256.363C85.4746 255.918 85.502 255.373 85.5566 254.729H85.5332C85.4395 255.107 85.3555 255.379 85.2812 255.543L82.4102 262H81.9297L79.0645 255.59C78.9824 255.402 78.8984 255.115 78.8125 254.729H78.7891C78.8203 255.064 78.8359 255.613 78.8359 256.375V262H77.8867V253.598H79.1875L81.7656 259.457C81.9648 259.906 82.0938 260.242 82.1523 260.465H82.1875C82.3555 260.004 82.4902 259.66 82.5918 259.434L85.2227 253.598H86.4531V262ZM93.3613 259.24H89.125C89.1406 259.908 89.3203 260.424 89.6641 260.787C90.0078 261.15 90.4805 261.332 91.082 261.332C91.7578 261.332 92.3789 261.109 92.9453 260.664V261.566C92.418 261.949 91.7207 262.141 90.8535 262.141C90.0059 262.141 89.3398 261.869 88.8555 261.326C88.3711 260.779 88.1289 260.012 88.1289 259.023C88.1289 258.09 88.3926 257.33 88.9199 256.744C89.4512 256.154 90.1094 255.859 90.8945 255.859C91.6797 255.859 92.2871 256.113 92.7168 256.621C93.1465 257.129 93.3613 257.834 93.3613 258.736V259.24ZM92.377 258.426C92.373 257.871 92.2383 257.439 91.9727 257.131C91.7109 256.822 91.3457 256.668 90.877 256.668C90.4238 256.668 90.0391 256.83 89.7227 257.154C89.4062 257.479 89.2109 257.902 89.1367 258.426H92.377ZM99.9414 262H98.9805V260.98H98.957C98.5117 261.754 97.8242 262.141 96.8945 262.141C96.1406 262.141 95.5371 261.873 95.084 261.338C94.6348 260.799 94.4102 260.066 94.4102 259.141C94.4102 258.148 94.6602 257.354 95.1602 256.756C95.6602 256.158 96.3262 255.859 97.1582 255.859C97.9824 255.859 98.582 256.184 98.957 256.832H98.9805V253.117H99.9414V262ZM98.9805 259.287V258.402C98.9805 257.918 98.8203 257.508 98.5 257.172C98.1797 256.836 97.7734 256.668 97.2812 256.668C96.6953 256.668 96.2344 256.883 95.8984 257.312C95.5625 257.742 95.3945 258.336 95.3945 259.094C95.3945 259.785 95.5547 260.332 95.875 260.734C96.1992 261.133 96.6328 261.332 97.1758 261.332C97.7109 261.332 98.1445 261.139 98.4766 260.752C98.8125 260.365 98.9805 259.877 98.9805 259.287ZM102.379 254.477C102.207 254.477 102.061 254.418 101.939 254.301C101.818 254.184 101.758 254.035 101.758 253.855C101.758 253.676 101.818 253.527 101.939 253.41C102.061 253.289 102.207 253.229 102.379 253.229C102.555 253.229 102.703 253.289 102.824 253.41C102.949 253.527 103.012 253.676 103.012 253.855C103.012 254.027 102.949 254.174 102.824 254.295C102.703 254.416 102.555 254.477 102.379 254.477ZM102.848 262H101.887V256H102.848V262ZM109.645 262H108.684V261.051H108.66C108.262 261.777 107.645 262.141 106.809 262.141C105.379 262.141 104.664 261.289 104.664 259.586V256H105.619V259.434C105.619 260.699 106.104 261.332 107.072 261.332C107.541 261.332 107.926 261.16 108.227 260.816C108.531 260.469 108.684 260.016 108.684 259.457V256H109.645V262ZM120.109 262H119.148V258.555C119.148 257.891 119.045 257.41 118.838 257.113C118.635 256.816 118.291 256.668 117.807 256.668C117.396 256.668 117.047 256.855 116.758 257.23C116.473 257.605 116.33 258.055 116.33 258.578V262H115.369V258.438C115.369 257.258 114.914 256.668 114.004 256.668C113.582 256.668 113.234 256.846 112.961 257.201C112.688 257.553 112.551 258.012 112.551 258.578V262H111.59V256H112.551V256.949H112.574C113 256.223 113.621 255.859 114.438 255.859C114.848 255.859 115.205 255.975 115.51 256.205C115.814 256.432 116.023 256.73 116.137 257.102C116.582 256.273 117.246 255.859 118.129 255.859C119.449 255.859 120.109 256.674 120.109 258.303V262ZM129.514 262H128.553V261.062H128.529C128.111 261.781 127.496 262.141 126.684 262.141C126.086 262.141 125.617 261.982 125.277 261.666C124.941 261.35 124.773 260.93 124.773 260.406C124.773 259.285 125.434 258.633 126.754 258.449L128.553 258.197C128.553 257.178 128.141 256.668 127.316 256.668C126.594 256.668 125.941 256.914 125.359 257.406V256.422C125.949 256.047 126.629 255.859 127.398 255.859C128.809 255.859 129.514 256.605 129.514 258.098V262ZM128.553 258.965L127.105 259.164C126.66 259.227 126.324 259.338 126.098 259.498C125.871 259.654 125.758 259.934 125.758 260.336C125.758 260.629 125.861 260.869 126.068 261.057C126.279 261.24 126.559 261.332 126.906 261.332C127.383 261.332 127.775 261.166 128.084 260.834C128.396 260.498 128.553 260.074 128.553 259.562V258.965ZM136.305 262H135.344V258.578C135.344 257.305 134.879 256.668 133.949 256.668C133.469 256.668 133.07 256.85 132.754 257.213C132.441 257.572 132.285 258.027 132.285 258.578V262H131.324V256H132.285V256.996H132.309C132.762 256.238 133.418 255.859 134.277 255.859C134.934 255.859 135.436 256.072 135.783 256.498C136.131 256.92 136.305 257.531 136.305 258.332V262ZM143.242 262H142.281V260.98H142.258C141.812 261.754 141.125 262.141 140.195 262.141C139.441 262.141 138.838 261.873 138.385 261.338C137.936 260.799 137.711 260.066 137.711 259.141C137.711 258.148 137.961 257.354 138.461 256.756C138.961 256.158 139.627 255.859 140.459 255.859C141.283 255.859 141.883 256.184 142.258 256.832H142.281V253.117H143.242V262ZM142.281 259.287V258.402C142.281 257.918 142.121 257.508 141.801 257.172C141.48 256.836 141.074 256.668 140.582 256.668C139.996 256.668 139.535 256.883 139.199 257.312C138.863 257.742 138.695 258.336 138.695 259.094C138.695 259.785 138.855 260.332 139.176 260.734C139.5 261.133 139.934 261.332 140.477 261.332C141.012 261.332 141.445 261.139 141.777 260.752C142.113 260.365 142.281 259.877 142.281 259.287ZM154.926 262H153.941V258.168H149.594V262H148.609V253.598H149.594V257.283H153.941V253.598H154.926V262ZM157.492 254.477C157.32 254.477 157.174 254.418 157.053 254.301C156.932 254.184 156.871 254.035 156.871 253.855C156.871 253.676 156.932 253.527 157.053 253.41C157.174 253.289 157.32 253.229 157.492 253.229C157.668 253.229 157.816 253.289 157.938 253.41C158.062 253.527 158.125 253.676 158.125 253.855C158.125 254.027 158.062 254.174 157.938 254.295C157.816 254.416 157.668 254.477 157.492 254.477ZM157.961 262H157V256H157.961V262ZM165.027 261.52C165.027 263.723 163.973 264.824 161.863 264.824C161.121 264.824 160.473 264.684 159.918 264.402V263.441C160.594 263.816 161.238 264.004 161.852 264.004C163.328 264.004 164.066 263.219 164.066 261.648V260.992H164.043C163.586 261.758 162.898 262.141 161.98 262.141C161.234 262.141 160.633 261.875 160.176 261.344C159.723 260.809 159.496 260.092 159.496 259.193C159.496 258.174 159.74 257.363 160.229 256.762C160.721 256.16 161.393 255.859 162.244 255.859C163.053 255.859 163.652 256.184 164.043 256.832H164.066V256H165.027V261.52ZM164.066 259.287V258.402C164.066 257.926 163.904 257.518 163.58 257.178C163.26 256.838 162.859 256.668 162.379 256.668C161.785 256.668 161.32 256.885 160.984 257.318C160.648 257.748 160.48 258.352 160.48 259.129C160.48 259.797 160.641 260.332 160.961 260.734C161.285 261.133 161.713 261.332 162.244 261.332C162.783 261.332 163.221 261.141 163.557 260.758C163.896 260.375 164.066 259.885 164.066 259.287ZM171.953 262H170.992V258.543C170.992 257.293 170.527 256.668 169.598 256.668C169.129 256.668 168.734 256.85 168.414 257.213C168.094 257.572 167.934 258.035 167.934 258.602V262H166.973V253.117H167.934V256.996H167.957C168.418 256.238 169.074 255.859 169.926 255.859C171.277 255.859 171.953 256.674 171.953 258.303V262Z" fill="#616161"/>
<line x1="-150" y1="272.5" x2="350" y2="272.5" stroke="#E0E0E0"/>
<rect x="147" y="224" width="26" height="26" rx="3" stroke="black" stroke-width="2"/>
<rect x="148.5" y="225.5" width="23" height="23" rx="1.5" stroke="white"/>
</g>
<defs>
<clipPath id="clip0_4328_31067">
<rect width="720" height="288" fill="white"/>
</clipPath>
<clipPath id="clip1_4328_31067">
<rect width="32" height="32" fill="white" transform="translate(284 45)"/>
</clipPath>
<clipPath id="clip2_4328_31067">
<rect width="32" height="32" fill="white" transform="translate(424 45)"/>
</clipPath>
</defs>
</svg>
