<svg width="712" height="468" viewBox="0 0 712 468" fill="none" xmlns="http://www.w3.org/2000/svg">
<g clip-path="url(#clip0_2492_6411)">
<circle opacity="0.1" cx="356" cy="150" r="150" fill="white"/>
<circle opacity="0.1" cx="256" cy="318" r="150" fill="white"/>
<circle opacity="0.1" cx="456" cy="318" r="150" fill="white"/>
<rect width="139" height="54" rx="14.134" transform="matrix(-1 0 0 1 430 344)" fill="#5ABFA6"/>
<path d="M308.449 365.576H309.761V370.536H316.369V365.576H317.681V377H316.369V371.672H309.761V377H308.449V365.576ZM323.405 368.504C324.589 368.504 325.453 368.808 326.029 369.432C326.509 369.976 326.765 370.728 326.765 371.688V377H325.565V375.608C325.245 376.056 324.813 376.424 324.301 376.712C323.693 377.048 323.005 377.224 322.237 377.224C321.405 377.224 320.749 377.016 320.253 376.6C319.741 376.168 319.485 375.608 319.485 374.936C319.485 373.992 319.853 373.288 320.621 372.808C321.293 372.36 322.253 372.12 323.501 372.104L325.485 372.072V371.64C325.485 370.248 324.765 369.56 323.325 369.56C322.717 369.56 322.221 369.672 321.837 369.928C321.405 370.184 321.133 370.584 321.005 371.112L319.741 371.016C319.917 370.152 320.349 369.496 321.021 369.08C321.629 368.696 322.413 368.504 323.405 368.504ZM325.485 373.032L323.581 373.064C321.725 373.096 320.797 373.704 320.797 374.904C320.797 375.288 320.941 375.592 321.261 375.848C321.581 376.088 321.997 376.216 322.509 376.216C323.293 376.216 323.981 375.96 324.589 375.448C325.181 374.952 325.485 374.376 325.485 373.736V373.032ZM332.374 368.504C332.822 368.504 333.206 368.568 333.51 368.696V369.976C333.094 369.848 332.678 369.8 332.278 369.8C331.638 369.8 331.094 370.072 330.662 370.648C330.214 371.192 330.006 371.848 330.006 372.616V377H328.742V368.728H330.006V370.168C330.23 369.688 330.518 369.304 330.87 369.032C331.302 368.68 331.798 368.504 332.374 368.504ZM340.698 365.352H341.978V377H340.778V375.64C340.202 376.696 339.274 377.224 338.026 377.224C336.81 377.224 335.866 376.776 335.194 375.912C334.57 375.112 334.266 374.088 334.266 372.84C334.266 371.624 334.57 370.632 335.194 369.832C335.866 368.936 336.778 368.504 337.962 368.504C339.146 368.504 340.058 369.08 340.698 370.248V365.352ZM338.234 369.56C337.322 369.56 336.634 369.88 336.186 370.52C335.77 371.08 335.578 371.848 335.578 372.84C335.578 373.832 335.77 374.616 336.17 375.192C336.618 375.832 337.29 376.168 338.186 376.168C339.018 376.168 339.658 375.848 340.122 375.208C340.522 374.632 340.73 373.88 340.73 372.952V372.792C340.73 371.832 340.49 371.048 340.042 370.456C339.578 369.848 338.97 369.56 338.234 369.56ZM343.769 372.312H351.849V373.4H343.769V372.312ZM352.736 365.576H354.208L356.72 375.16H356.784L359.392 365.576H360.816L363.408 375.16H363.472L365.984 365.576H367.456L364.176 377H362.72L360.128 367.48H360.08L357.472 377H356.016L352.736 365.576ZM372.219 368.504C373.451 368.504 374.443 368.92 375.179 369.784C375.883 370.6 376.235 371.624 376.235 372.872C376.235 374.104 375.883 375.128 375.195 375.928C374.443 376.792 373.451 377.224 372.219 377.224C370.971 377.224 369.995 376.792 369.259 375.928C368.555 375.128 368.203 374.104 368.203 372.872C368.203 371.624 368.555 370.6 369.259 369.784C369.995 368.92 370.971 368.504 372.219 368.504ZM372.219 369.576C371.339 369.576 370.651 369.912 370.171 370.584C369.723 371.192 369.515 371.944 369.515 372.872C369.515 373.784 369.723 374.536 370.171 375.144C370.651 375.816 371.339 376.152 372.219 376.152C373.083 376.152 373.771 375.816 374.283 375.144C374.715 374.536 374.939 373.768 374.939 372.872C374.939 371.944 374.715 371.192 374.283 370.584C373.771 369.912 373.083 369.576 372.219 369.576ZM381.53 368.504C381.978 368.504 382.362 368.568 382.666 368.696V369.976C382.25 369.848 381.834 369.8 381.434 369.8C380.794 369.8 380.25 370.072 379.818 370.648C379.37 371.192 379.162 371.848 379.162 372.616V377H377.898V368.728H379.162V370.168C379.386 369.688 379.674 369.304 380.026 369.032C380.458 368.68 380.954 368.504 381.53 368.504ZM383.742 365.352H385.022V372.568L389.166 368.728H390.862L387.214 372.056L391.214 377H389.566L386.334 372.888L385.022 374.072V377H383.742V365.352ZM393.267 365.608C393.539 365.608 393.763 365.688 393.955 365.88C394.147 366.04 394.243 366.264 394.243 366.552C394.243 366.824 394.147 367.048 393.955 367.24C393.763 367.416 393.539 367.512 393.267 367.512C392.995 367.512 392.771 367.416 392.579 367.24C392.387 367.048 392.307 366.824 392.307 366.552C392.307 366.264 392.387 366.04 392.579 365.88C392.771 365.688 392.995 365.608 393.267 365.608ZM392.627 368.728H393.907V377H392.627V368.728ZM400.177 368.504C402.225 368.504 403.265 369.64 403.265 371.912V377H401.985V372.008C401.985 370.392 401.249 369.592 399.809 369.592C399.233 369.592 398.737 369.8 398.321 370.216C397.873 370.664 397.633 371.256 397.585 372.008V377H396.305V368.728H397.585V369.944C397.873 369.48 398.241 369.128 398.689 368.888C399.137 368.632 399.633 368.504 400.177 368.504ZM408.65 368.504C409.898 368.504 410.826 369.048 411.434 370.152V368.728H412.714V376.424C412.714 379.064 411.45 380.392 408.938 380.392C407.818 380.392 406.954 380.168 406.378 379.72C405.786 379.272 405.418 378.6 405.274 377.704H406.554C406.65 378.264 406.89 378.68 407.258 378.936C407.626 379.208 408.186 379.352 408.938 379.352C410.602 379.352 411.434 378.424 411.434 376.6V375.144C410.826 376.248 409.898 376.808 408.65 376.808C407.498 376.808 406.586 376.408 405.914 375.624C405.242 374.856 404.922 373.88 404.922 372.68C404.922 371.464 405.242 370.488 405.914 369.72C406.586 368.904 407.498 368.504 408.65 368.504ZM408.842 369.56C408.01 369.56 407.37 369.848 406.906 370.456C406.458 371 406.234 371.752 406.234 372.68C406.234 373.544 406.426 374.264 406.826 374.808C407.274 375.416 407.93 375.736 408.826 375.736C409.658 375.736 410.298 375.448 410.778 374.872C411.226 374.312 411.45 373.576 411.45 372.68C411.45 371.752 411.226 371 410.778 370.456C410.298 369.848 409.658 369.56 408.842 369.56Z" fill="white" fill-opacity="0.75"/>
<rect width="86" height="54" rx="14.134" transform="matrix(-1 0 0 1 542 290)" fill="#CE7ADC"/>
<path d="M473.457 311.576H478.129C480.753 311.576 482.065 312.696 482.065 314.936C482.065 317.192 480.737 318.328 478.113 318.328H474.769V323H473.457V311.576ZM474.769 312.712V317.192H478.049C478.977 317.192 479.649 317 480.097 316.632C480.529 316.264 480.753 315.704 480.753 314.936C480.753 314.168 480.529 313.608 480.081 313.272C479.633 312.888 478.961 312.712 478.049 312.712H474.769ZM483.818 311.352H485.082V323H483.818V311.352ZM490.928 314.504C492.112 314.504 492.976 314.808 493.552 315.432C494.032 315.976 494.288 316.728 494.288 317.688V323H493.088V321.608C492.768 322.056 492.336 322.424 491.824 322.712C491.216 323.048 490.528 323.224 489.76 323.224C488.928 323.224 488.272 323.016 487.776 322.6C487.264 322.168 487.008 321.608 487.008 320.936C487.008 319.992 487.376 319.288 488.144 318.808C488.816 318.36 489.776 318.12 491.024 318.104L493.008 318.072V317.64C493.008 316.248 492.288 315.56 490.848 315.56C490.24 315.56 489.744 315.672 489.36 315.928C488.928 316.184 488.656 316.584 488.528 317.112L487.264 317.016C487.44 316.152 487.872 315.496 488.544 315.08C489.152 314.696 489.936 314.504 490.928 314.504ZM493.008 319.032L491.104 319.064C489.248 319.096 488.32 319.704 488.32 320.904C488.32 321.288 488.464 321.592 488.784 321.848C489.104 322.088 489.52 322.216 490.032 322.216C490.816 322.216 491.504 321.96 492.112 321.448C492.704 320.952 493.008 320.376 493.008 319.736V319.032ZM495.353 314.728H496.745L499.273 321.256L501.721 314.728H503.129L498.601 326.168H497.209L498.633 322.808L495.353 314.728ZM505.259 311.608C505.531 311.608 505.755 311.688 505.947 311.88C506.139 312.04 506.235 312.264 506.235 312.552C506.235 312.824 506.139 313.048 505.947 313.24C505.755 313.416 505.531 313.512 505.259 313.512C504.987 313.512 504.763 313.416 504.571 313.24C504.379 313.048 504.299 312.824 504.299 312.552C504.299 312.264 504.379 312.04 504.571 311.88C504.763 311.688 504.987 311.608 505.259 311.608ZM504.619 314.728H505.899V323H504.619V314.728ZM512.169 314.504C514.217 314.504 515.257 315.64 515.257 317.912V323H513.977V318.008C513.977 316.392 513.241 315.592 511.801 315.592C511.225 315.592 510.729 315.8 510.313 316.216C509.865 316.664 509.625 317.256 509.577 318.008V323H508.297V314.728H509.577V315.944C509.865 315.48 510.233 315.128 510.681 314.888C511.129 314.632 511.625 314.504 512.169 314.504ZM520.642 314.504C521.89 314.504 522.818 315.048 523.426 316.152V314.728H524.706V322.424C524.706 325.064 523.442 326.392 520.93 326.392C519.81 326.392 518.946 326.168 518.37 325.72C517.778 325.272 517.41 324.6 517.266 323.704H518.546C518.642 324.264 518.882 324.68 519.25 324.936C519.618 325.208 520.178 325.352 520.93 325.352C522.594 325.352 523.426 324.424 523.426 322.6V321.144C522.818 322.248 521.89 322.808 520.642 322.808C519.49 322.808 518.578 322.408 517.906 321.624C517.234 320.856 516.914 319.88 516.914 318.68C516.914 317.464 517.234 316.488 517.906 315.72C518.578 314.904 519.49 314.504 520.642 314.504ZM520.834 315.56C520.002 315.56 519.362 315.848 518.898 316.456C518.45 317 518.226 317.752 518.226 318.68C518.226 319.544 518.418 320.264 518.818 320.808C519.266 321.416 519.922 321.736 520.818 321.736C521.65 321.736 522.29 321.448 522.77 320.872C523.218 320.312 523.442 319.576 523.442 318.68C523.442 317.752 523.218 317 522.77 316.456C522.29 315.848 521.65 315.56 520.834 315.56Z" fill="white" fill-opacity="0.75"/>
<rect width="124" height="54" rx="14.134" transform="matrix(-1 0 0 1 418 87)" fill="#8E6ADA"/>
<path d="M311.605 108.576H316.277C318.901 108.576 320.213 109.696 320.213 111.936C320.213 114.192 318.885 115.328 316.261 115.328H312.917V120H311.605V108.576ZM312.917 109.712V114.192H316.197C317.125 114.192 317.797 114 318.245 113.632C318.677 113.264 318.901 112.704 318.901 111.936C318.901 111.168 318.677 110.608 318.229 110.272C317.781 109.888 317.109 109.712 316.197 109.712H312.917ZM325.119 111.504C326.447 111.504 327.455 111.952 328.127 112.848C328.735 113.648 329.055 114.784 329.087 116.224H322.559C322.623 117.152 322.863 117.872 323.311 118.384C323.759 118.896 324.383 119.152 325.167 119.152C325.839 119.152 326.399 118.976 326.815 118.64C327.167 118.352 327.439 117.92 327.647 117.344H328.927C328.735 118.144 328.367 118.784 327.807 119.296C327.119 119.904 326.239 120.224 325.167 120.224C323.983 120.224 323.023 119.824 322.319 119.056C321.583 118.256 321.231 117.2 321.231 115.856C321.231 114.64 321.567 113.616 322.271 112.8C322.975 111.936 323.919 111.504 325.119 111.504ZM325.151 112.576C324.415 112.576 323.823 112.816 323.375 113.296C322.927 113.776 322.671 114.416 322.591 115.232H327.759C327.599 113.456 326.719 112.576 325.151 112.576ZM334.218 111.504C334.666 111.504 335.05 111.568 335.354 111.696V112.976C334.938 112.848 334.522 112.8 334.122 112.8C333.482 112.8 332.938 113.072 332.506 113.648C332.058 114.192 331.85 114.848 331.85 115.616V120H330.586V111.728H331.85V113.168C332.074 112.688 332.362 112.304 332.714 112.032C333.146 111.68 333.642 111.504 334.218 111.504ZM339.742 108.576H341.326V109.68H339.902C339.549 109.68 339.278 109.76 339.118 109.952C338.958 110.128 338.878 110.416 338.878 110.816V111.728H341.214V112.8H338.878V120H337.598V112.8H335.518V111.728H337.598V110.784C337.598 110.08 337.774 109.552 338.126 109.168C338.494 108.768 339.038 108.576 339.742 108.576ZM345.806 111.504C347.134 111.504 348.142 111.952 348.814 112.848C349.422 113.648 349.742 114.784 349.774 116.224H343.246C343.31 117.152 343.55 117.872 343.998 118.384C344.446 118.896 345.07 119.152 345.854 119.152C346.526 119.152 347.086 118.976 347.502 118.64C347.854 118.352 348.126 117.92 348.334 117.344H349.614C349.422 118.144 349.054 118.784 348.494 119.296C347.806 119.904 346.926 120.224 345.854 120.224C344.67 120.224 343.71 119.824 343.006 119.056C342.27 118.256 341.918 117.2 341.918 115.856C341.918 114.64 342.254 113.616 342.958 112.8C343.662 111.936 344.606 111.504 345.806 111.504ZM345.838 112.576C345.102 112.576 344.51 112.816 344.062 113.296C343.614 113.776 343.358 114.416 343.278 115.232H348.446C348.286 113.456 347.406 112.576 345.838 112.576ZM354.201 111.504C356.249 111.504 357.369 112.352 357.593 114.08H356.345C356.233 113.568 356.025 113.184 355.705 112.96C355.353 112.704 354.841 112.576 354.185 112.576C353.609 112.576 353.161 112.672 352.841 112.896C352.489 113.104 352.313 113.392 352.313 113.76C352.313 114.112 352.537 114.416 353.017 114.656C353.321 114.8 353.897 114.976 354.729 115.2C355.721 115.44 356.425 115.696 356.857 115.968C357.513 116.384 357.849 116.944 357.849 117.664C357.849 119.36 356.681 120.224 354.345 120.224C352.169 120.224 350.985 119.264 350.793 117.36H352.041C352.137 118.016 352.377 118.48 352.729 118.768C353.081 119.024 353.609 119.152 354.313 119.152C355.785 119.152 356.537 118.672 356.537 117.744C356.537 117.28 356.265 116.928 355.753 116.672C355.481 116.544 354.889 116.368 353.993 116.144C353.017 115.904 352.329 115.664 351.945 115.408C351.305 115.024 351.001 114.496 351.001 113.792C351.001 113.088 351.305 112.544 351.929 112.128C352.505 111.712 353.273 111.504 354.201 111.504ZM362.279 111.504C364.327 111.504 365.447 112.352 365.671 114.08H364.423C364.311 113.568 364.103 113.184 363.783 112.96C363.431 112.704 362.919 112.576 362.263 112.576C361.687 112.576 361.239 112.672 360.919 112.896C360.567 113.104 360.391 113.392 360.391 113.76C360.391 114.112 360.615 114.416 361.095 114.656C361.399 114.8 361.975 114.976 362.807 115.2C363.799 115.44 364.503 115.696 364.935 115.968C365.591 116.384 365.927 116.944 365.927 117.664C365.927 119.36 364.759 120.224 362.423 120.224C360.247 120.224 359.063 119.264 358.871 117.36H360.119C360.215 118.016 360.455 118.48 360.807 118.768C361.159 119.024 361.687 119.152 362.391 119.152C363.863 119.152 364.615 118.672 364.615 117.744C364.615 117.28 364.343 116.928 363.831 116.672C363.559 116.544 362.967 116.368 362.071 116.144C361.095 115.904 360.407 115.664 360.023 115.408C359.383 115.024 359.079 114.496 359.079 113.792C359.079 113.088 359.383 112.544 360.007 112.128C360.583 111.712 361.351 111.504 362.279 111.504ZM368.486 108.608C368.758 108.608 368.982 108.688 369.174 108.88C369.366 109.04 369.462 109.264 369.462 109.552C369.462 109.824 369.366 110.048 369.174 110.24C368.982 110.416 368.758 110.512 368.486 110.512C368.214 110.512 367.99 110.416 367.798 110.24C367.606 110.048 367.526 109.824 367.526 109.552C367.526 109.264 367.606 109.04 367.798 108.88C367.99 108.688 368.214 108.608 368.486 108.608ZM367.846 111.728H369.126V120H367.846V111.728ZM375.219 111.504C376.451 111.504 377.443 111.92 378.179 112.784C378.883 113.6 379.235 114.624 379.235 115.872C379.235 117.104 378.883 118.128 378.195 118.928C377.443 119.792 376.451 120.224 375.219 120.224C373.971 120.224 372.995 119.792 372.259 118.928C371.555 118.128 371.203 117.104 371.203 115.872C371.203 114.624 371.555 113.6 372.259 112.784C372.995 111.92 373.971 111.504 375.219 111.504ZM375.219 112.576C374.339 112.576 373.651 112.912 373.171 113.584C372.723 114.192 372.515 114.944 372.515 115.872C372.515 116.784 372.723 117.536 373.171 118.144C373.651 118.816 374.339 119.152 375.219 119.152C376.083 119.152 376.771 118.816 377.283 118.144C377.715 117.536 377.939 116.768 377.939 115.872C377.939 114.944 377.715 114.192 377.283 113.584C376.771 112.912 376.083 112.576 375.219 112.576ZM384.77 111.504C386.818 111.504 387.858 112.64 387.858 114.912V120H386.578V115.008C386.578 113.392 385.842 112.592 384.402 112.592C383.826 112.592 383.33 112.8 382.914 113.216C382.466 113.664 382.226 114.256 382.178 115.008V120H380.898V111.728H382.178V112.944C382.466 112.48 382.834 112.128 383.282 111.888C383.73 111.632 384.226 111.504 384.77 111.504ZM393.436 111.504C394.62 111.504 395.484 111.808 396.06 112.432C396.54 112.976 396.796 113.728 396.796 114.688V120H395.596V118.608C395.276 119.056 394.844 119.424 394.332 119.712C393.724 120.048 393.036 120.224 392.268 120.224C391.436 120.224 390.78 120.016 390.284 119.6C389.772 119.168 389.516 118.608 389.516 117.936C389.516 116.992 389.884 116.288 390.652 115.808C391.324 115.36 392.284 115.12 393.532 115.104L395.516 115.072V114.64C395.516 113.248 394.796 112.56 393.356 112.56C392.748 112.56 392.252 112.672 391.868 112.928C391.436 113.184 391.164 113.584 391.036 114.112L389.772 114.016C389.948 113.152 390.38 112.496 391.052 112.08C391.66 111.696 392.444 111.504 393.436 111.504ZM395.516 116.032L393.612 116.064C391.756 116.096 390.828 116.704 390.828 117.904C390.828 118.288 390.972 118.592 391.292 118.848C391.612 119.088 392.028 119.216 392.54 119.216C393.324 119.216 394.012 118.96 394.62 118.448C395.212 117.952 395.516 117.376 395.516 116.736V116.032ZM399.029 108.352H400.293V120H399.029V108.352Z" fill="white" fill-opacity="0.75"/>
<rect width="119" height="54" rx="14.134" transform="matrix(-1 0 0 1 320 188)" fill="#EF8383"/>
<path d="M223.205 209.352C224.469 209.352 225.541 209.688 226.405 210.36C227.269 211.032 227.781 211.944 227.941 213.08H226.677C226.517 212.248 226.101 211.608 225.461 211.16C224.837 210.728 224.085 210.52 223.189 210.52C221.861 210.52 220.837 210.984 220.117 211.912C219.445 212.776 219.109 213.912 219.109 215.336C219.109 216.76 219.429 217.896 220.101 218.728C220.805 219.608 221.813 220.056 223.157 220.056C224.069 220.056 224.837 219.816 225.477 219.336C226.149 218.824 226.613 218.072 226.837 217.08H228.101C227.845 218.408 227.253 219.448 226.309 220.184C225.429 220.872 224.373 221.224 223.157 221.224C221.381 221.224 220.021 220.632 219.077 219.464C218.213 218.408 217.797 217.032 217.797 215.336C217.797 213.64 218.229 212.248 219.109 211.16C220.069 209.944 221.445 209.352 223.205 209.352ZM229.758 209.352H231.038V214.088C231.326 213.56 231.71 213.16 232.19 212.888C232.638 212.632 233.134 212.504 233.694 212.504C234.654 212.504 235.406 212.776 235.918 213.352C236.43 213.912 236.686 214.728 236.686 215.784V221H235.406V215.976C235.406 215.208 235.214 214.616 234.862 214.2C234.478 213.784 233.95 213.576 233.262 213.576C232.622 213.576 232.094 213.832 231.678 214.344C231.246 214.856 231.038 215.512 231.038 216.28V221H229.758V209.352ZM242.248 212.504C243.432 212.504 244.296 212.808 244.872 213.432C245.352 213.976 245.608 214.728 245.608 215.688V221H244.408V219.608C244.088 220.056 243.656 220.424 243.144 220.712C242.536 221.048 241.848 221.224 241.08 221.224C240.248 221.224 239.592 221.016 239.096 220.6C238.584 220.168 238.328 219.608 238.328 218.936C238.328 217.992 238.696 217.288 239.464 216.808C240.136 216.36 241.096 216.12 242.344 216.104L244.328 216.072V215.64C244.328 214.248 243.608 213.56 242.168 213.56C241.56 213.56 241.064 213.672 240.68 213.928C240.248 214.184 239.976 214.584 239.848 215.112L238.584 215.016C238.76 214.152 239.192 213.496 239.864 213.08C240.472 212.696 241.256 212.504 242.248 212.504ZM244.328 217.032L242.424 217.064C240.568 217.096 239.64 217.704 239.64 218.904C239.64 219.288 239.784 219.592 240.104 219.848C240.424 220.088 240.84 220.216 241.352 220.216C242.136 220.216 242.824 219.96 243.432 219.448C244.024 218.952 244.328 218.376 244.328 217.736V217.032ZM247.842 209.352H249.106V221H247.842V209.352ZM251.607 209.352H252.871V221H251.607V209.352ZM258.525 212.504C259.853 212.504 260.861 212.952 261.533 213.848C262.141 214.648 262.461 215.784 262.493 217.224H255.965C256.029 218.152 256.269 218.872 256.717 219.384C257.165 219.896 257.789 220.152 258.573 220.152C259.245 220.152 259.805 219.976 260.221 219.64C260.573 219.352 260.845 218.92 261.053 218.344H262.333C262.141 219.144 261.773 219.784 261.213 220.296C260.525 220.904 259.645 221.224 258.573 221.224C257.389 221.224 256.429 220.824 255.725 220.056C254.989 219.256 254.637 218.2 254.637 216.856C254.637 215.64 254.973 214.616 255.677 213.8C256.381 212.936 257.325 212.504 258.525 212.504ZM258.557 213.576C257.821 213.576 257.229 213.816 256.781 214.296C256.333 214.776 256.077 215.416 255.997 216.232H261.165C261.005 214.456 260.125 213.576 258.557 213.576ZM267.864 212.504C269.912 212.504 270.952 213.64 270.952 215.912V221H269.672V216.008C269.672 214.392 268.936 213.592 267.496 213.592C266.92 213.592 266.424 213.8 266.008 214.216C265.56 214.664 265.32 215.256 265.272 216.008V221H263.992V212.728H265.272V213.944C265.56 213.48 265.928 213.128 266.376 212.888C266.824 212.632 267.32 212.504 267.864 212.504ZM276.338 212.504C277.586 212.504 278.514 213.048 279.122 214.152V212.728H280.402V220.424C280.402 223.064 279.138 224.392 276.626 224.392C275.506 224.392 274.642 224.168 274.066 223.72C273.474 223.272 273.106 222.6 272.962 221.704H274.242C274.338 222.264 274.578 222.68 274.946 222.936C275.314 223.208 275.874 223.352 276.626 223.352C278.29 223.352 279.122 222.424 279.122 220.6V219.144C278.514 220.248 277.586 220.808 276.338 220.808C275.186 220.808 274.274 220.408 273.602 219.624C272.93 218.856 272.61 217.88 272.61 216.68C272.61 215.464 272.93 214.488 273.602 213.72C274.274 212.904 275.186 212.504 276.338 212.504ZM276.53 213.56C275.698 213.56 275.058 213.848 274.594 214.456C274.146 215 273.922 215.752 273.922 216.68C273.922 217.544 274.114 218.264 274.514 218.808C274.962 219.416 275.618 219.736 276.514 219.736C277.346 219.736 277.986 219.448 278.466 218.872C278.914 218.312 279.138 217.576 279.138 216.68C279.138 215.752 278.914 215 278.466 214.456C277.986 213.848 277.346 213.56 276.53 213.56ZM283.439 209.608C283.711 209.608 283.935 209.688 284.127 209.88C284.319 210.04 284.415 210.264 284.415 210.552C284.415 210.824 284.319 211.048 284.127 211.24C283.935 211.416 283.711 211.512 283.439 211.512C283.167 211.512 282.943 211.416 282.751 211.24C282.559 211.048 282.479 210.824 282.479 210.552C282.479 210.264 282.559 210.04 282.751 209.88C282.943 209.688 283.167 209.608 283.439 209.608ZM282.799 212.728H284.079V221H282.799V212.728ZM290.348 212.504C292.396 212.504 293.436 213.64 293.436 215.912V221H292.156V216.008C292.156 214.392 291.42 213.592 289.98 213.592C289.404 213.592 288.908 213.8 288.492 214.216C288.044 214.664 287.804 215.256 287.756 216.008V221H286.476V212.728H287.756V213.944C288.044 213.48 288.412 213.128 288.86 212.888C289.308 212.632 289.804 212.504 290.348 212.504ZM298.822 212.504C300.07 212.504 300.998 213.048 301.606 214.152V212.728H302.886V220.424C302.886 223.064 301.622 224.392 299.11 224.392C297.99 224.392 297.126 224.168 296.55 223.72C295.958 223.272 295.59 222.6 295.446 221.704H296.726C296.822 222.264 297.062 222.68 297.43 222.936C297.798 223.208 298.358 223.352 299.11 223.352C300.774 223.352 301.606 222.424 301.606 220.6V219.144C300.998 220.248 300.07 220.808 298.822 220.808C297.67 220.808 296.758 220.408 296.086 219.624C295.414 218.856 295.094 217.88 295.094 216.68C295.094 215.464 295.414 214.488 296.086 213.72C296.758 212.904 297.67 212.504 298.822 212.504ZM299.014 213.56C298.182 213.56 297.542 213.848 297.078 214.456C296.63 215 296.406 215.752 296.406 216.68C296.406 217.544 296.598 218.264 296.998 218.808C297.446 219.416 298.102 219.736 298.998 219.736C299.83 219.736 300.47 219.448 300.95 218.872C301.398 218.312 301.622 217.576 301.622 216.68C301.622 215.752 301.398 215 300.95 214.456C300.47 213.848 299.83 213.56 299.014 213.56Z" fill="white" fill-opacity="0.75"/>
<path d="M311.355 41.576H316.027C318.651 41.576 319.963 42.696 319.963 44.936C319.963 47.192 318.635 48.328 316.011 48.328H312.667V53H311.355V41.576ZM312.667 42.712V47.192H315.947C316.875 47.192 317.547 47 317.995 46.632C318.427 46.264 318.651 45.704 318.651 44.936C318.651 44.168 318.427 43.608 317.979 43.272C317.531 42.888 316.859 42.712 315.947 42.712H312.667ZM325.093 44.504C325.541 44.504 325.925 44.568 326.229 44.696V45.976C325.813 45.848 325.397 45.8 324.997 45.8C324.357 45.8 323.813 46.072 323.381 46.648C322.933 47.192 322.725 47.848 322.725 48.616V53H321.461V44.728H322.725V46.168C322.949 45.688 323.237 45.304 323.589 45.032C324.021 44.68 324.517 44.504 325.093 44.504ZM331.001 44.504C332.233 44.504 333.225 44.92 333.961 45.784C334.665 46.6 335.017 47.624 335.017 48.872C335.017 50.104 334.665 51.128 333.977 51.928C333.225 52.792 332.233 53.224 331.001 53.224C329.753 53.224 328.777 52.792 328.041 51.928C327.337 51.128 326.985 50.104 326.985 48.872C326.985 47.624 327.337 46.6 328.041 45.784C328.777 44.92 329.753 44.504 331.001 44.504ZM331.001 45.576C330.121 45.576 329.433 45.912 328.953 46.584C328.505 47.192 328.297 47.944 328.297 48.872C328.297 49.784 328.505 50.536 328.953 51.144C329.433 51.816 330.121 52.152 331.001 52.152C331.865 52.152 332.553 51.816 333.065 51.144C333.497 50.536 333.721 49.768 333.721 48.872C333.721 47.944 333.497 47.192 333.065 46.584C332.553 45.912 331.865 45.576 331.001 45.576ZM339.992 41.576H341.576V42.68H340.152C339.799 42.68 339.528 42.76 339.368 42.952C339.208 43.128 339.128 43.416 339.128 43.816V44.728H341.464V45.8H339.128V53H337.848V45.8H335.768V44.728H337.848V43.784C337.848 43.08 338.024 42.552 338.376 42.168C338.744 41.768 339.288 41.576 339.992 41.576ZM346.056 44.504C347.384 44.504 348.392 44.952 349.064 45.848C349.672 46.648 349.992 47.784 350.024 49.224H343.496C343.56 50.152 343.8 50.872 344.248 51.384C344.696 51.896 345.32 52.152 346.104 52.152C346.776 52.152 347.336 51.976 347.752 51.64C348.104 51.352 348.376 50.92 348.584 50.344H349.864C349.672 51.144 349.304 51.784 348.744 52.296C348.056 52.904 347.176 53.224 346.104 53.224C344.92 53.224 343.96 52.824 343.256 52.056C342.52 51.256 342.168 50.2 342.168 48.856C342.168 47.64 342.504 46.616 343.208 45.8C343.912 44.936 344.856 44.504 346.056 44.504ZM346.088 45.576C345.352 45.576 344.76 45.816 344.312 46.296C343.864 46.776 343.608 47.416 343.528 48.232H348.696C348.536 46.456 347.656 45.576 346.088 45.576ZM354.451 44.504C356.499 44.504 357.619 45.352 357.843 47.08H356.595C356.483 46.568 356.275 46.184 355.955 45.96C355.603 45.704 355.091 45.576 354.435 45.576C353.859 45.576 353.411 45.672 353.091 45.896C352.739 46.104 352.563 46.392 352.563 46.76C352.563 47.112 352.787 47.416 353.267 47.656C353.571 47.8 354.147 47.976 354.979 48.2C355.971 48.44 356.675 48.696 357.107 48.968C357.763 49.384 358.099 49.944 358.099 50.664C358.099 52.36 356.931 53.224 354.595 53.224C352.419 53.224 351.235 52.264 351.043 50.36H352.291C352.387 51.016 352.627 51.48 352.979 51.768C353.331 52.024 353.859 52.152 354.563 52.152C356.035 52.152 356.787 51.672 356.787 50.744C356.787 50.28 356.515 49.928 356.003 49.672C355.731 49.544 355.139 49.368 354.243 49.144C353.267 48.904 352.579 48.664 352.195 48.408C351.555 48.024 351.251 47.496 351.251 46.792C351.251 46.088 351.555 45.544 352.179 45.128C352.755 44.712 353.523 44.504 354.451 44.504ZM362.529 44.504C364.577 44.504 365.697 45.352 365.921 47.08H364.673C364.561 46.568 364.353 46.184 364.033 45.96C363.681 45.704 363.169 45.576 362.513 45.576C361.937 45.576 361.489 45.672 361.169 45.896C360.817 46.104 360.641 46.392 360.641 46.76C360.641 47.112 360.865 47.416 361.345 47.656C361.649 47.8 362.225 47.976 363.057 48.2C364.049 48.44 364.753 48.696 365.185 48.968C365.841 49.384 366.177 49.944 366.177 50.664C366.177 52.36 365.009 53.224 362.673 53.224C360.497 53.224 359.313 52.264 359.121 50.36H360.369C360.465 51.016 360.705 51.48 361.057 51.768C361.409 52.024 361.937 52.152 362.641 52.152C364.113 52.152 364.865 51.672 364.865 50.744C364.865 50.28 364.593 49.928 364.081 49.672C363.809 49.544 363.217 49.368 362.321 49.144C361.345 48.904 360.657 48.664 360.273 48.408C359.633 48.024 359.329 47.496 359.329 46.792C359.329 46.088 359.633 45.544 360.257 45.128C360.833 44.712 361.601 44.504 362.529 44.504ZM368.736 41.608C369.008 41.608 369.232 41.688 369.424 41.88C369.616 42.04 369.712 42.264 369.712 42.552C369.712 42.824 369.616 43.048 369.424 43.24C369.232 43.416 369.008 43.512 368.736 43.512C368.464 43.512 368.24 43.416 368.048 43.24C367.856 43.048 367.776 42.824 367.776 42.552C367.776 42.264 367.856 42.04 368.048 41.88C368.24 41.688 368.464 41.608 368.736 41.608ZM368.096 44.728H369.376V53H368.096V44.728ZM375.469 44.504C376.701 44.504 377.693 44.92 378.429 45.784C379.133 46.6 379.485 47.624 379.485 48.872C379.485 50.104 379.133 51.128 378.445 51.928C377.693 52.792 376.701 53.224 375.469 53.224C374.221 53.224 373.245 52.792 372.509 51.928C371.805 51.128 371.453 50.104 371.453 48.872C371.453 47.624 371.805 46.6 372.509 45.784C373.245 44.92 374.221 44.504 375.469 44.504ZM375.469 45.576C374.589 45.576 373.901 45.912 373.421 46.584C372.973 47.192 372.765 47.944 372.765 48.872C372.765 49.784 372.973 50.536 373.421 51.144C373.901 51.816 374.589 52.152 375.469 52.152C376.333 52.152 377.021 51.816 377.533 51.144C377.965 50.536 378.189 49.768 378.189 48.872C378.189 47.944 377.965 47.192 377.533 46.584C377.021 45.912 376.333 45.576 375.469 45.576ZM385.02 44.504C387.068 44.504 388.108 45.64 388.108 47.912V53H386.828V48.008C386.828 46.392 386.092 45.592 384.652 45.592C384.076 45.592 383.58 45.8 383.164 46.216C382.716 46.664 382.476 47.256 382.428 48.008V53H381.148V44.728H382.428V45.944C382.716 45.48 383.084 45.128 383.532 44.888C383.98 44.632 384.476 44.504 385.02 44.504ZM393.686 44.504C394.87 44.504 395.734 44.808 396.31 45.432C396.79 45.976 397.046 46.728 397.046 47.688V53H395.846V51.608C395.526 52.056 395.094 52.424 394.582 52.712C393.974 53.048 393.286 53.224 392.518 53.224C391.686 53.224 391.03 53.016 390.534 52.6C390.022 52.168 389.766 51.608 389.766 50.936C389.766 49.992 390.134 49.288 390.902 48.808C391.574 48.36 392.534 48.12 393.782 48.104L395.766 48.072V47.64C395.766 46.248 395.046 45.56 393.606 45.56C392.998 45.56 392.502 45.672 392.118 45.928C391.686 46.184 391.414 46.584 391.286 47.112L390.022 47.016C390.198 46.152 390.63 45.496 391.302 45.08C391.91 44.696 392.694 44.504 393.686 44.504ZM395.766 49.032L393.862 49.064C392.006 49.096 391.078 49.704 391.078 50.904C391.078 51.288 391.222 51.592 391.542 51.848C391.862 52.088 392.278 52.216 392.79 52.216C393.574 52.216 394.262 51.96 394.87 51.448C395.462 50.952 395.766 50.376 395.766 49.736V49.032ZM399.279 41.352H400.543V53H399.279V41.352Z" fill="white"/>
<path d="M506.59 375.576H514.238V376.712H507.902V380.552H513.902V381.688H507.902V387H506.59V375.576ZM515.664 378.728H516.944V383.784C516.944 384.568 517.104 385.16 517.44 385.544C517.776 385.928 518.32 386.136 519.072 386.136C519.616 386.136 520.112 385.912 520.544 385.496C520.992 385.048 521.264 384.472 521.36 383.768V378.728H522.64V387H521.36V385.72C520.688 386.712 519.792 387.224 518.672 387.224C516.656 387.224 515.664 386.088 515.664 383.848V378.728ZM528.489 378.504C530.537 378.504 531.577 379.64 531.577 381.912V387H530.297V382.008C530.297 380.392 529.561 379.592 528.121 379.592C527.545 379.592 527.049 379.8 526.633 380.216C526.185 380.664 525.945 381.256 525.897 382.008V387H524.617V378.728H525.897V379.944C526.185 379.48 526.553 379.128 527.001 378.888C527.449 378.632 527.945 378.504 528.489 378.504Z" fill="white"/>
<path d="M162.311 375.576H163.607V387H162.311V375.576ZM169.723 378.504C171.771 378.504 172.811 379.64 172.811 381.912V387H171.531V382.008C171.531 380.392 170.795 379.592 169.355 379.592C168.779 379.592 168.283 379.8 167.867 380.216C167.419 380.664 167.179 381.256 167.131 382.008V387H165.851V378.728H167.131V379.944C167.419 379.48 167.787 379.128 168.235 378.888C168.683 378.632 169.179 378.504 169.723 378.504ZM176.997 376.056V378.728H179.045V379.8H176.997V385.064C176.997 385.368 177.045 385.592 177.173 385.72C177.285 385.848 177.493 385.928 177.781 385.928H178.837V387H177.589C176.917 387 176.421 386.824 176.133 386.472C175.861 386.152 175.733 385.688 175.733 385.064V379.8H174.069V378.728H175.733V376.584L176.997 376.056ZM183.884 378.504C185.212 378.504 186.22 378.952 186.892 379.848C187.5 380.648 187.82 381.784 187.852 383.224H181.324C181.388 384.152 181.628 384.872 182.076 385.384C182.524 385.896 183.148 386.152 183.932 386.152C184.604 386.152 185.164 385.976 185.58 385.64C185.932 385.352 186.204 384.92 186.412 384.344H187.692C187.5 385.144 187.132 385.784 186.572 386.296C185.884 386.904 185.004 387.224 183.932 387.224C182.748 387.224 181.788 386.824 181.084 386.056C180.348 385.256 179.996 384.2 179.996 382.856C179.996 381.64 180.332 380.616 181.036 379.8C181.74 378.936 182.684 378.504 183.884 378.504ZM183.916 379.576C183.18 379.576 182.588 379.816 182.14 380.296C181.692 380.776 181.436 381.416 181.356 382.232H186.524C186.364 380.456 185.484 379.576 183.916 379.576ZM189.607 375.352H190.871V387H189.607V375.352ZM193.373 375.352H194.637V387H193.373V375.352ZM197.939 375.608C198.211 375.608 198.435 375.688 198.627 375.88C198.819 376.04 198.915 376.264 198.915 376.552C198.915 376.824 198.819 377.048 198.627 377.24C198.435 377.416 198.211 377.512 197.939 377.512C197.667 377.512 197.443 377.416 197.251 377.24C197.059 377.048 196.979 376.824 196.979 376.552C196.979 376.264 197.059 376.04 197.251 375.88C197.443 375.688 197.667 375.608 197.939 375.608ZM197.299 378.728H198.579V387H197.299V378.728ZM204.384 378.504C205.632 378.504 206.56 379.048 207.168 380.152V378.728H208.448V386.424C208.448 389.064 207.184 390.392 204.672 390.392C203.552 390.392 202.688 390.168 202.112 389.72C201.52 389.272 201.152 388.6 201.008 387.704H202.288C202.384 388.264 202.624 388.68 202.992 388.936C203.36 389.208 203.92 389.352 204.672 389.352C206.336 389.352 207.168 388.424 207.168 386.6V385.144C206.56 386.248 205.632 386.808 204.384 386.808C203.232 386.808 202.32 386.408 201.648 385.624C200.976 384.856 200.656 383.88 200.656 382.68C200.656 381.464 200.976 380.488 201.648 379.72C202.32 378.904 203.232 378.504 204.384 378.504ZM204.576 379.56C203.744 379.56 203.104 379.848 202.64 380.456C202.192 381 201.968 381.752 201.968 382.68C201.968 383.544 202.16 384.264 202.56 384.808C203.008 385.416 203.664 385.736 204.56 385.736C205.392 385.736 206.032 385.448 206.512 384.872C206.96 384.312 207.184 383.576 207.184 382.68C207.184 381.752 206.96 381 206.512 380.456C206.032 379.848 205.392 379.56 204.576 379.56ZM213.838 378.504C215.166 378.504 216.174 378.952 216.846 379.848C217.454 380.648 217.774 381.784 217.806 383.224H211.278C211.342 384.152 211.582 384.872 212.03 385.384C212.478 385.896 213.102 386.152 213.886 386.152C214.558 386.152 215.118 385.976 215.534 385.64C215.886 385.352 216.158 384.92 216.366 384.344H217.646C217.454 385.144 217.086 385.784 216.526 386.296C215.838 386.904 214.958 387.224 213.886 387.224C212.702 387.224 211.742 386.824 211.038 386.056C210.302 385.256 209.95 384.2 209.95 382.856C209.95 381.64 210.286 380.616 210.99 379.8C211.694 378.936 212.638 378.504 213.838 378.504ZM213.87 379.576C213.134 379.576 212.542 379.816 212.094 380.296C211.646 380.776 211.39 381.416 211.31 382.232H216.478C216.318 380.456 215.438 379.576 213.87 379.576ZM223.177 378.504C225.225 378.504 226.265 379.64 226.265 381.912V387H224.985V382.008C224.985 380.392 224.249 379.592 222.809 379.592C222.233 379.592 221.737 379.8 221.321 380.216C220.873 380.664 220.633 381.256 220.585 382.008V387H219.305V378.728H220.585V379.944C220.873 379.48 221.241 379.128 221.689 378.888C222.137 378.632 222.633 378.504 223.177 378.504ZM230.45 376.056V378.728H232.498V379.8H230.45V385.064C230.45 385.368 230.498 385.592 230.626 385.72C230.738 385.848 230.946 385.928 231.234 385.928H232.29V387H231.042C230.37 387 229.874 386.824 229.586 386.472C229.314 386.152 229.186 385.688 229.186 385.064V379.8H227.522V378.728H229.186V376.584L230.45 376.056Z" fill="white"/>
</g>
<defs>
<clipPath id="clip0_2492_6411">
<rect width="500" height="468" fill="white" transform="matrix(-1 0 0 1 606 0)"/>
</clipPath>
</defs>
</svg>
