<svg width="644" height="166" viewBox="0 0 644 166" fill="none" xmlns="http://www.w3.org/2000/svg">
<path d="M38.2109 63.0877L52.6241 20.8425C52.6241 20.8425 55.2549 11.3994 59.0851 11.3994H68.0311M38.2109 63.0877H1.92965C1.26697 69.3831 3.12244 81.9739 15.8457 81.9739H43.1809M38.2109 63.0877H71.0131M71.0131 63.0877L77.4742 81.9739M71.0131 63.0877V49.7991C73.3366 40.2607 77.4742 26.1598 77.4742 26.1598L74.107 15.854C73.353 14.3692 71.0821 11.3994 68.0311 11.3994M71.0131 63.0877H572.987M43.1809 81.9739H77.4742M43.1809 81.9739C50.7354 81.9739 55.3834 94.8692 56.7631 101.317C58.2713 106.009 62.092 117.354 65.3094 125.196C69.3312 134.999 84.6642 163.654 122.117 163.654H521.883C559.336 163.654 574.669 134.999 578.69 125.196C581.908 117.354 585.729 106.009 587.237 101.317C588.616 94.8692 593.264 81.9739 600.819 81.9739M77.4742 81.9739H322M77.4742 81.9739C80.3736 90.9352 87.0773 111.12 90.6969 120.169C95.2214 131.48 106.03 143.043 122.117 143.043H148.007M322 81.9739C316.806 81.9739 315.818 83.3885 310.889 87.2406C303.492 97.939 277.458 136.256 277.458 136.256M322 81.9739H566.526M322 81.9739C327.194 81.9739 328.182 83.3885 333.111 87.2406C340.508 97.939 366.542 136.256 366.542 136.256M68.0311 11.3994H313.961C313.961 6.07679 317.844 3.61652 322 3.61652C326.156 3.61652 330.039 6.07679 330.039 11.3994H575.969M148.007 143.043C154.543 136.256 162.335 136.256 176.16 136.256H277.458M148.007 143.043H495.993M277.458 136.256H366.542M605.789 63.0877L591.376 20.8425C591.376 20.8425 588.745 11.3994 584.915 11.3994H575.969M605.789 63.0877H642.07C642.733 69.3831 640.877 81.9739 628.154 81.9739H600.819M605.789 63.0877H572.987M572.987 63.0877L566.526 81.9739M572.987 63.0877V49.7991C570.663 40.2607 566.526 26.1598 566.526 26.1598L569.893 15.854C570.647 14.3692 572.918 11.3994 575.969 11.3994M600.819 81.9739H566.526M566.526 81.9739C563.626 90.9352 556.923 111.12 553.303 120.169C548.779 131.48 537.97 143.043 521.883 143.043H495.993M495.993 143.043C489.457 136.256 481.665 136.256 467.84 136.256H366.542" stroke="url(#paint0_linear_1740_6986)" stroke-width="3"/>
<path opacity="0.3" d="M83.7737 20.3296C86.7133 9.87763 88.6556 8.48947 98.8801 8.48946H313.888C313.888 1.45306 320.251 0.345581 322.177 0.345581C324.103 0.345581 330.465 1.45306 330.465 8.48946H545.474C555.698 8.48947 557.64 9.87763 560.58 20.3296C563.52 30.7816 567.249 44.5543 568.746 50.1342V62.3826C564.118 75.5837 554.104 105.848 548.251 119.975C542.12 134.772 528.114 139.825 520.981 139.825H123.373C116.24 139.825 102.234 134.772 96.103 119.975C90.2496 105.848 80.2352 75.5837 75.608 62.3826V50.1342C77.1051 44.5543 80.834 30.7816 83.7737 20.3296Z" fill="#FF6666"/>
<defs>
<linearGradient id="paint0_linear_1740_6986" x1="322" y1="3.61652" x2="322" y2="163.654" gradientUnits="userSpaceOnUse">
<stop stop-color="#FF6666"/>
<stop offset="1" stop-color="#66B2FF"/>
</linearGradient>
</defs>
</svg>
