<svg width="720" height="240" viewBox="0 0 720 240" fill="none" xmlns="http://www.w3.org/2000/svg">
<rect width="720" height="240" fill="black"/>
<circle cx="360" cy="120" r="79.5" stroke="white"/>
<path d="M314.872 111.864H316.816V129H314.872V111.864ZM325.991 116.256C329.063 116.256 330.623 117.96 330.623 121.368V129H328.703V121.512C328.703 119.088 327.599 117.888 325.439 117.888C324.575 117.888 323.831 118.2 323.207 118.824C322.535 119.496 322.175 120.384 322.103 121.512V129H320.183V116.592H322.103V118.416C322.535 117.72 323.087 117.192 323.759 116.832C324.431 116.448 325.175 116.256 325.991 116.256ZM338.942 116.256C340.478 116.256 341.702 116.616 342.638 117.336C343.598 118.08 344.174 119.208 344.39 120.72H342.494C342.326 119.76 341.942 119.04 341.342 118.56C340.718 118.08 339.926 117.864 338.942 117.864C337.742 117.864 336.782 118.32 336.086 119.232C335.414 120.12 335.078 121.32 335.078 122.832C335.078 124.344 335.39 125.544 336.062 126.408C336.71 127.272 337.67 127.728 338.918 127.728C341.03 127.728 342.254 126.648 342.542 124.512H344.462C344.174 126.096 343.574 127.32 342.614 128.136C341.678 128.928 340.454 129.336 338.918 129.336C337.046 129.336 335.606 128.712 334.574 127.464C333.59 126.288 333.11 124.752 333.11 122.856C333.11 120.96 333.59 119.424 334.574 118.224C335.63 116.904 337.094 116.256 338.942 116.256ZM347.099 111.528H348.995V129H347.099V111.528ZM352.363 116.592H354.283V124.176C354.283 125.352 354.523 126.24 355.027 126.816C355.531 127.392 356.347 127.704 357.475 127.704C358.291 127.704 359.035 127.368 359.683 126.744C360.355 126.072 360.763 125.208 360.907 124.152V116.592H362.827V129H360.907V127.08C359.899 128.568 358.555 129.336 356.875 129.336C353.851 129.336 352.363 127.632 352.363 124.272V116.592ZM370.185 116.256C373.257 116.256 374.937 117.528 375.273 120.12H373.401C373.233 119.352 372.921 118.776 372.441 118.44C371.913 118.056 371.145 117.864 370.161 117.864C369.297 117.864 368.625 118.008 368.145 118.344C367.617 118.656 367.353 119.088 367.353 119.64C367.353 120.168 367.689 120.624 368.409 120.984C368.865 121.2 369.729 121.464 370.977 121.8C372.465 122.16 373.521 122.544 374.169 122.952C375.153 123.576 375.657 124.416 375.657 125.496C375.657 128.04 373.905 129.336 370.401 129.336C367.137 129.336 365.361 127.896 365.073 125.04H366.945C367.089 126.024 367.449 126.72 367.977 127.152C368.505 127.536 369.297 127.728 370.353 127.728C372.561 127.728 373.689 127.008 373.689 125.616C373.689 124.92 373.281 124.392 372.513 124.008C372.105 123.816 371.217 123.552 369.873 123.216C368.409 122.856 367.377 122.496 366.801 122.112C365.841 121.536 365.385 120.744 365.385 119.688C365.385 118.632 365.841 117.816 366.777 117.192C367.641 116.568 368.793 116.256 370.185 116.256ZM379.494 111.912C379.902 111.912 380.238 112.032 380.526 112.32C380.814 112.56 380.958 112.896 380.958 113.328C380.958 113.736 380.814 114.072 380.526 114.36C380.238 114.624 379.902 114.768 379.494 114.768C379.086 114.768 378.75 114.624 378.462 114.36C378.174 114.072 378.054 113.736 378.054 113.328C378.054 112.896 378.174 112.56 378.462 112.32C378.75 112.032 379.086 111.912 379.494 111.912ZM378.534 116.592H380.454V129H378.534V116.592ZM382.683 116.592H384.795L388.347 126.6L391.899 116.592H394.011L389.307 129H387.363L382.683 116.592ZM400.741 116.256C402.733 116.256 404.245 116.928 405.253 118.272C406.165 119.472 406.645 121.176 406.693 123.336H396.901C396.997 124.728 397.357 125.808 398.029 126.576C398.701 127.344 399.637 127.728 400.813 127.728C401.821 127.728 402.661 127.464 403.285 126.96C403.813 126.528 404.221 125.88 404.533 125.016H406.453C406.165 126.216 405.613 127.176 404.773 127.944C403.741 128.856 402.421 129.336 400.813 129.336C399.037 129.336 397.597 128.736 396.541 127.584C395.437 126.384 394.909 124.8 394.909 122.784C394.909 120.96 395.413 119.424 396.469 118.2C397.525 116.904 398.941 116.256 400.741 116.256ZM400.789 117.864C399.685 117.864 398.797 118.224 398.125 118.944C397.453 119.664 397.069 120.624 396.949 121.848H404.701C404.461 119.184 403.141 117.864 400.789 117.864Z" fill="white"/>
<path d="M171.992 114.352C173.272 114.352 174.296 114.64 175.032 115.232C175.8 115.84 176.232 116.752 176.344 117.952H175.048C174.904 117.12 174.584 116.512 174.088 116.112C173.576 115.696 172.856 115.504 171.928 115.504C171.08 115.504 170.424 115.632 169.944 115.92C169.4 116.24 169.128 116.72 169.128 117.376C169.128 117.952 169.448 118.416 170.104 118.768C170.392 118.928 171.096 119.168 172.2 119.488C173.704 119.936 174.696 120.304 175.176 120.592C176.12 121.168 176.6 121.968 176.6 123.008C176.6 124 176.2 124.8 175.4 125.376C174.6 125.936 173.528 126.224 172.168 126.224C170.824 126.224 169.768 125.936 169 125.36C168.104 124.672 167.608 123.632 167.512 122.224H168.808C168.92 123.216 169.272 123.952 169.848 124.416C170.376 124.832 171.144 125.056 172.168 125.056C173.096 125.056 173.864 124.88 174.44 124.528C175.016 124.176 175.304 123.696 175.304 123.088C175.304 122.368 174.92 121.808 174.168 121.408C173.848 121.216 173.032 120.944 171.752 120.576C170.376 120.16 169.496 119.84 169.128 119.648C168.248 119.136 167.816 118.4 167.816 117.44C167.816 116.448 168.232 115.664 169.08 115.12C169.832 114.608 170.808 114.352 171.992 114.352ZM179.157 114.608C179.429 114.608 179.653 114.688 179.845 114.88C180.037 115.04 180.133 115.264 180.133 115.552C180.133 115.824 180.037 116.048 179.845 116.24C179.653 116.416 179.429 116.512 179.157 116.512C178.885 116.512 178.661 116.416 178.469 116.24C178.277 116.048 178.197 115.824 178.197 115.552C178.197 115.264 178.277 115.04 178.469 114.88C178.661 114.688 178.885 114.608 179.157 114.608ZM178.517 117.728H179.797V126H178.517V117.728ZM185.811 117.504C187.075 117.504 187.939 118.016 188.403 119.072C188.723 118.528 189.107 118.128 189.555 117.888C189.955 117.632 190.435 117.504 191.011 117.504C191.875 117.504 192.563 117.776 193.107 118.32C193.619 118.88 193.891 119.632 193.891 120.576V126H192.611V120.784C192.611 120.048 192.451 119.504 192.147 119.152C191.827 118.768 191.315 118.592 190.611 118.592C190.067 118.592 189.603 118.784 189.251 119.2C188.867 119.616 188.691 120.144 188.691 120.816V126H187.411V120.784C187.411 119.312 186.771 118.592 185.507 118.592C184.915 118.592 184.435 118.816 184.051 119.296C183.667 119.744 183.475 120.304 183.475 120.96V126H182.195V117.728H183.475V118.832C184.099 117.936 184.883 117.504 185.811 117.504ZM199.835 117.504C201.019 117.504 201.963 117.936 202.651 118.832C203.275 119.632 203.595 120.64 203.595 121.888C203.595 123.104 203.275 124.112 202.667 124.912C201.995 125.776 201.083 126.224 199.899 126.224C198.715 126.224 197.803 125.648 197.163 124.496V129.168H195.883V117.728H197.083V119.088C197.675 118.032 198.587 117.504 199.835 117.504ZM199.675 118.56C198.843 118.56 198.187 118.88 197.739 119.536C197.323 120.112 197.115 120.88 197.115 121.808V121.968C197.115 122.928 197.339 123.696 197.819 124.288C198.267 124.864 198.859 125.168 199.627 125.168C200.523 125.168 201.195 124.848 201.659 124.24C202.075 123.664 202.283 122.88 202.283 121.888C202.283 120.912 202.075 120.128 201.691 119.552C201.227 118.88 200.555 118.56 199.675 118.56ZM205.514 114.352H206.778V126H205.514V114.352ZM212.431 117.504C213.759 117.504 214.767 117.952 215.439 118.848C216.047 119.648 216.367 120.784 216.399 122.224H209.871C209.935 123.152 210.175 123.872 210.623 124.384C211.071 124.896 211.695 125.152 212.479 125.152C213.151 125.152 213.711 124.976 214.127 124.64C214.479 124.352 214.751 123.92 214.959 123.344H216.239C216.047 124.144 215.679 124.784 215.119 125.296C214.431 125.904 213.551 126.224 212.479 126.224C211.295 126.224 210.335 125.824 209.631 125.056C208.895 124.256 208.543 123.2 208.543 121.856C208.543 120.64 208.879 119.616 209.583 118.8C210.287 117.936 211.231 117.504 212.431 117.504ZM212.463 118.576C211.727 118.576 211.135 118.816 210.687 119.296C210.239 119.776 209.983 120.416 209.903 121.232H215.071C214.911 119.456 214.031 118.576 212.463 118.576Z" fill="white"/>
<circle cx="192" cy="120" r="63.5" stroke="white"/>
<path d="M494.08 114.352C495.344 114.352 496.416 114.688 497.28 115.36C498.144 116.032 498.656 116.944 498.816 118.08H497.552C497.392 117.248 496.976 116.608 496.336 116.16C495.712 115.728 494.96 115.52 494.064 115.52C492.736 115.52 491.712 115.984 490.992 116.912C490.32 117.776 489.984 118.912 489.984 120.336C489.984 121.76 490.304 122.896 490.976 123.728C491.68 124.608 492.688 125.056 494.032 125.056C494.944 125.056 495.712 124.816 496.352 124.336C497.024 123.824 497.488 123.072 497.712 122.08H498.976C498.72 123.408 498.128 124.448 497.184 125.184C496.304 125.872 495.248 126.224 494.032 126.224C492.256 126.224 490.896 125.632 489.952 124.464C489.088 123.408 488.672 122.032 488.672 120.336C488.672 118.64 489.104 117.248 489.984 116.16C490.944 114.944 492.32 114.352 494.08 114.352ZM504.329 117.504C505.561 117.504 506.553 117.92 507.289 118.784C507.993 119.6 508.345 120.624 508.345 121.872C508.345 123.104 507.993 124.128 507.305 124.928C506.553 125.792 505.561 126.224 504.329 126.224C503.081 126.224 502.105 125.792 501.369 124.928C500.665 124.128 500.313 123.104 500.313 121.872C500.313 120.624 500.665 119.6 501.369 118.784C502.105 117.92 503.081 117.504 504.329 117.504ZM504.329 118.576C503.449 118.576 502.761 118.912 502.281 119.584C501.833 120.192 501.625 120.944 501.625 121.872C501.625 122.784 501.833 123.536 502.281 124.144C502.761 124.816 503.449 125.152 504.329 125.152C505.193 125.152 505.881 124.816 506.393 124.144C506.825 123.536 507.049 122.768 507.049 121.872C507.049 120.944 506.825 120.192 506.393 119.584C505.881 118.912 505.193 118.576 504.329 118.576ZM513.88 117.504C515.928 117.504 516.968 118.64 516.968 120.912V126H515.688V121.008C515.688 119.392 514.952 118.592 513.512 118.592C512.936 118.592 512.44 118.8 512.024 119.216C511.576 119.664 511.336 120.256 511.288 121.008V126H510.008V117.728H511.288V118.944C511.576 118.48 511.944 118.128 512.392 117.888C512.84 117.632 513.336 117.504 513.88 117.504ZM521.873 117.504C523.921 117.504 525.041 118.352 525.265 120.08H524.017C523.905 119.568 523.697 119.184 523.377 118.96C523.025 118.704 522.513 118.576 521.857 118.576C521.281 118.576 520.833 118.672 520.513 118.896C520.161 119.104 519.985 119.392 519.985 119.76C519.985 120.112 520.209 120.416 520.689 120.656C520.993 120.8 521.569 120.976 522.401 121.2C523.393 121.44 524.097 121.696 524.529 121.968C525.185 122.384 525.521 122.944 525.521 123.664C525.521 125.36 524.353 126.224 522.017 126.224C519.841 126.224 518.657 125.264 518.465 123.36H519.713C519.809 124.016 520.049 124.48 520.401 124.768C520.753 125.024 521.281 125.152 521.985 125.152C523.457 125.152 524.209 124.672 524.209 123.744C524.209 123.28 523.937 122.928 523.425 122.672C523.153 122.544 522.561 122.368 521.665 122.144C520.689 121.904 520.001 121.664 519.617 121.408C518.977 121.024 518.673 120.496 518.673 119.792C518.673 119.088 518.977 118.544 519.601 118.128C520.177 117.712 520.945 117.504 521.873 117.504ZM528.079 114.608C528.351 114.608 528.575 114.688 528.767 114.88C528.959 115.04 529.055 115.264 529.055 115.552C529.055 115.824 528.959 116.048 528.767 116.24C528.575 116.416 528.351 116.512 528.079 116.512C527.807 116.512 527.583 116.416 527.391 116.24C527.199 116.048 527.119 115.824 527.119 115.552C527.119 115.264 527.199 115.04 527.391 114.88C527.583 114.688 527.807 114.608 528.079 114.608ZM527.439 117.728H528.719V126H527.439V117.728ZM534.045 117.504C536.093 117.504 537.213 118.352 537.437 120.08H536.189C536.077 119.568 535.869 119.184 535.549 118.96C535.197 118.704 534.685 118.576 534.029 118.576C533.453 118.576 533.005 118.672 532.685 118.896C532.333 119.104 532.157 119.392 532.157 119.76C532.157 120.112 532.381 120.416 532.861 120.656C533.165 120.8 533.741 120.976 534.573 121.2C535.565 121.44 536.269 121.696 536.701 121.968C537.357 122.384 537.693 122.944 537.693 123.664C537.693 125.36 536.525 126.224 534.189 126.224C532.013 126.224 530.829 125.264 530.637 123.36H531.885C531.981 124.016 532.221 124.48 532.573 124.768C532.925 125.024 533.453 125.152 534.157 125.152C535.629 125.152 536.381 124.672 536.381 123.744C536.381 123.28 536.109 122.928 535.597 122.672C535.325 122.544 534.733 122.368 533.837 122.144C532.861 121.904 532.173 121.664 531.789 121.408C531.149 121.024 530.845 120.496 530.845 119.792C530.845 119.088 531.149 118.544 531.773 118.128C532.349 117.712 533.117 117.504 534.045 117.504ZM541.403 115.056V117.728H543.451V118.8H541.403V124.064C541.403 124.368 541.451 124.592 541.579 124.72C541.691 124.848 541.899 124.928 542.187 124.928H543.243V126H541.995C541.323 126 540.827 125.824 540.539 125.472C540.267 125.152 540.139 124.688 540.139 124.064V118.8H538.475V117.728H540.139V115.584L541.403 115.056ZM548.483 117.504C549.667 117.504 550.531 117.808 551.107 118.432C551.587 118.976 551.843 119.728 551.843 120.688V126H550.643V124.608C550.323 125.056 549.891 125.424 549.379 125.712C548.771 126.048 548.083 126.224 547.315 126.224C546.483 126.224 545.827 126.016 545.331 125.6C544.819 125.168 544.563 124.608 544.563 123.936C544.563 122.992 544.931 122.288 545.699 121.808C546.371 121.36 547.331 121.12 548.579 121.104L550.563 121.072V120.64C550.563 119.248 549.843 118.56 548.403 118.56C547.795 118.56 547.299 118.672 546.915 118.928C546.483 119.184 546.211 119.584 546.083 120.112L544.819 120.016C544.995 119.152 545.427 118.496 546.099 118.08C546.707 117.696 547.491 117.504 548.483 117.504ZM550.563 122.032L548.659 122.064C546.803 122.096 545.875 122.704 545.875 123.904C545.875 124.288 546.019 124.592 546.339 124.848C546.659 125.088 547.075 125.216 547.587 125.216C548.371 125.216 549.059 124.96 549.667 124.448C550.259 123.952 550.563 123.376 550.563 122.736V122.032ZM557.692 117.504C559.74 117.504 560.78 118.64 560.78 120.912V126H559.5V121.008C559.5 119.392 558.764 118.592 557.324 118.592C556.748 118.592 556.252 118.8 555.836 119.216C555.388 119.664 555.148 120.256 555.1 121.008V126H553.82V117.728H555.1V118.944C555.388 118.48 555.756 118.128 556.204 117.888C556.652 117.632 557.148 117.504 557.692 117.504ZM564.966 115.056V117.728H567.014V118.8H564.966V124.064C564.966 124.368 565.014 124.592 565.142 124.72C565.254 124.848 565.462 124.928 565.75 124.928H566.806V126H565.558C564.886 126 564.39 125.824 564.102 125.472C563.83 125.152 563.702 124.688 563.702 124.064V118.8H562.038V117.728H563.702V115.584L564.966 115.056Z" fill="white"/>
<circle cx="528" cy="120" r="63.5" stroke="white"/>
</svg>
